<svg xmlns="http://www.w3.org/2000/svg" xmlns:xlink="http://www.w3.org/1999/xlink" viewBox="0 0 703.23 569.6"><defs><style>.cls-1{isolation:isolate;}.cls-2,.cls-4{fill:#c7d1d8;}.cls-2{opacity:0.6;}.cls-3{fill:#7c9cb4;opacity:0.81;}.cls-5{fill:#b2542f;}.cls-6{fill:#7a321c;}.cls-7{fill:#db8245;}.cls-8{fill:#a65c3d;}.cls-26,.cls-40,.cls-55,.cls-60,.cls-9{fill:#fff;}.cls-10,.cls-100,.cls-109,.cls-66,.cls-67,.cls-71,.cls-72,.cls-74,.cls-75,.cls-79,.cls-81,.cls-82,.cls-85,.cls-96,.cls-98,.cls-99{fill:none;}.cls-10{stroke:#a0a6ba;stroke-width:2.69px;}.cls-10,.cls-100,.cls-109,.cls-66,.cls-67,.cls-72,.cls-74,.cls-75,.cls-79,.cls-81,.cls-82,.cls-85,.cls-96,.cls-98,.cls-99{stroke-linecap:round;}.cls-10,.cls-66,.cls-67,.cls-71,.cls-72,.cls-74,.cls-75,.cls-79,.cls-81,.cls-82,.cls-85,.cls-96{stroke-linejoin:round;}.cls-11{fill:#453c4c;}.cls-12{fill:#b59885;}.cls-110,.cls-12{mix-blend-mode:multiply;}.cls-13{fill:#d8d2d2;}.cls-14,.cls-20{fill:#4a4151;}.Graphic-Style-68{fill:url(#linear-gradient);}.cls-15,.cls-18{fill:#433a47;}.cls-16,.cls-27{fill:#574d5e;}.cls-16{opacity:0.62;}.cls-17,.cls-25{fill:#a0a6ba;}.cls-18{opacity:0.39;}.cls-19{fill:#545766;}.cls-108,.cls-20{opacity:0.37;}.cls-21{fill:#f16228;}.cls-22{fill:#f6b979;}.cls-23{fill:#b0bd46;}.cls-24{fill:#d2f0f7;}.cls-25,.cls-26{opacity:0.3;}.cls-28{fill:#3cada1;}.cls-29{fill:#21d5c8;}.cls-30{fill:#835684;}.cls-31{fill:#9d6aa0;}.cls-32{fill:#3f444c;}.cls-33{fill:#209cd3;}.cls-34{fill:#64647a;}.cls-35,.cls-54{fill:#ccd835;}.cls-36,.cls-38{fill:#b5aabf;}.cls-37{opacity:0.52;}.cls-38{opacity:0.43;}.cls-39{fill:#e8ddf2;opacity:0.95;}.cls-40,.cls-41,.cls-42,.cls-43,.cls-44,.cls-45,.cls-46,.cls-47,.cls-48,.cls-49,.cls-50,.cls-51{stroke:#3f444c;}.cls-100,.cls-109,.cls-40,.cls-41,.cls-42,.cls-43,.cls-44,.cls-45,.cls-46,.cls-47,.cls-48,.cls-49,.cls-50,.cls-51,.cls-52,.cls-54,.cls-55,.cls-98,.cls-99{stroke-miterlimit:10;}.cls-40,.cls-41,.cls-42,.cls-43,.cls-44,.cls-45,.cls-46,.cls-47,.cls-48,.cls-49,.cls-50,.cls-51,.cls-52{stroke-width:0.95px;}.cls-41{fill:url(#New_Gradient_Swatch_8);}.cls-42{fill:#ffbf4f;}.cls-43{fill:#e6ee32;}.cls-44{fill:#0fa353;}.cls-45{fill:#36b9f0;}.cls-46{fill:#3a489f;}.cls-47{fill:#ad2e72;}.cls-48{fill:#fd398a;}.cls-49{fill:#d1c4aa;}.cls-50{fill:#ffed26;}.cls-51{fill:#ffffc2;}.cls-52,.cls-53{fill:#fcae47;}.cls-52{stroke:#545766;}.cls-54{stroke:#fff;}.cls-54,.cls-55{stroke-width:1.43px;}.cls-55{stroke:#ea9939;}.cls-56{fill:#9fb8bc;}.cls-57{fill:#2ebfff;}.cls-58{fill:#6f778e;}.cls-59{fill:#c0e0de;}.cls-60{opacity:0.5;}.cls-61{fill:#f4e453;}.cls-62{fill:#fdc60b;}.cls-63{fill:#f393a0;}.cls-64{fill:#fffb0f;}.cls-65{fill:#c7f6dd;}.cls-66,.cls-67{stroke:#7c9cb4;}.cls-66{stroke-width:24.44px;}.cls-67,.cls-72{stroke-width:23.26px;}.cls-68{fill:#bc3335;}.cls-69{fill:#ff645c;}.cls-70{fill:#97aaad;}.cls-71{stroke:#97aaad;stroke-width:3.66px;}.cls-72,.cls-74,.cls-79,.cls-85,.cls-99{stroke:#433a47;}.cls-73{fill:#534859;}.cls-74{stroke-width:26.48px;}.cls-75{stroke:#534859;stroke-width:19.14px;}.cls-76{fill:#b8d3e0;}.cls-77{fill:#87b4c6;}.cls-78{fill:#cad80e;}.cls-79{stroke-width:18.23px;}.cls-80{fill:#362e3a;}.cls-81{stroke:#ffaf10;}.cls-81,.cls-82,.cls-85{stroke-width:3.99px;}.cls-82{stroke:#ffd13e;}.cls-83{fill:#544a59;}.cls-84{fill:#b8cc27;}.cls-86{fill:#53b09d;}.cls-87{fill:#b0d2dd;}.cls-88{fill:#418273;}.cls-89{fill:#c2e9f2;}.cls-90{fill:#deea3f;}.cls-91{fill:#ff5082;}.cls-92{fill:#475984;}.cls-93{fill:#eff431;}.cls-94{fill:#ffb91d;}.cls-95{opacity:0.63;}.cls-96{stroke:#ccd835;stroke-width:1.91px;}.cls-97{fill:#56bdf7;}.cls-98{stroke:#a65c3d;stroke-width:7.63px;}.cls-99{stroke-width:3.82px;}.cls-100{stroke:#bfbccc;stroke-width:4.77px;}.cls-101{fill:#dad9e8;}.cls-102{fill:#bfa7a3;}.cls-103{fill:#cadbef;}.cls-104{fill:#4b424f;}.cls-105,.cls-108{fill:#cebca4;}.cls-106{fill:#f9f0e5;}.cls-107{fill:#f2e7d7;}.cls-109{stroke:#4b4051;stroke-width:3px;}.cls-110{fill:#bacee0;}.cls-111{fill:#ffd93b;}.cls-112{fill:#a0693d;}</style><linearGradient id="linear-gradient" x1="398.12" y1="-116.11" x2="398.12" y2="174.87" gradientUnits="userSpaceOnUse"><stop offset="0" stop-color="#3767ae"/><stop offset="0.14" stop-color="#3e7abe"/><stop offset="0.5" stop-color="#4ca4e1"/><stop offset="0.78" stop-color="#56bdf7"/><stop offset="0.94" stop-color="#59c7ff"/></linearGradient><linearGradient id="New_Gradient_Swatch_8" x1="467.26" y1="48.44" x2="471.3" y2="48.44" gradientUnits="userSpaceOnUse"><stop offset="0" stop-color="#fa4b0f"/><stop offset="1" stop-color="#fa3b0f"/></linearGradient></defs><title>Asset 4</title><g class="cls-1"><g id="Layer_2" data-name="Layer 2"><g id="Layer_1-2" data-name="Layer 1"><path class="cls-2" d="M668.65,164.58a1.92,1.92,0,0,0-1.75-1.14H497.63v-145a5.9,5.9,0,0,0-5.9-5.9h-215a5.9,5.9,0,0,0-5.9,5.9v145H118.27l52-10.55a5.45,5.45,0,0,0,4.37-5.25l.84-42.61,14.14-2.75s2.56-2.6,6-6.37l-.2-24.12c0-.72-2-2.45-2.59-3-1.1-1.07-5.66.42-5.66.42L170.4,72a3.75,3.75,0,0,0-1.84-.13l-.32,0L75.32,87.65A5.44,5.44,0,0,0,71,92.9l.75,69.42v1.12H2.38a1.91,1.91,0,0,0-1.9,1.91V337.28a1.91,1.91,0,0,0,1.9,1.91H666.9a1.92,1.92,0,0,0,1.91-1.91V165.35A2,2,0,0,0,668.65,164.58Z"/><path class="cls-3" d="M670.91,113.29a2,2,0,0,0-2.41,1.48l-5.85,24.44h-.71l2.16-17.32a2,2,0,1,0-4-.5l-2.23,17.82H655.8l1.38-15a3.23,3.23,0,0,0,0-.46,2.88,2.88,0,0,0-.09-.76s0,0,0,0a2,2,0,0,0-.21-.47,1.79,1.79,0,0,0-.2-.26l-.06-.07c-.77-.8-2.26-.91-4.08-1.07-2-.2-3.92-.43-4.89.52l.75-10.74a2,2,0,1,0-4-.28l-2,28.6h-5.58c-.16-.76-.39-1.66-.45-1.93a53.13,53.13,0,0,1-.85-5.77c-.24-2.2,0-5.53-1.18-7.52a1,1,0,0,0-.59-.48l-.19-1.68a3.33,3.33,0,0,0-6.61.76l.67,5.72.34,3,.92,7.92h-6L618,116.43a2,2,0,0,0-3.9.85l4.76,21.92h-1.45a2,2,0,0,0-2,2V155.1h0v3.52h0v5.25h0v10.06H603.13l12.39,12.33a2.24,2.24,0,0,0,2.05,1.37h51.28a2.23,2.23,0,0,0,2.22-2.22v-2.56h0V141.24a2,2,0,0,0-2-2h-2.28l5.64-23.51A2,2,0,0,0,670.91,113.29Z"/><polygon class="cls-3" points="287.73 57.58 286.63 41.04 280.46 41.44 280.46 41.44 264.91 42.47 266 59.01 281.56 57.99 281.56 57.99 287.73 57.58"/><path class="cls-3" d="M265.84,80.71a2.64,2.64,0,0,0-2.65,2.65v5A2.64,2.64,0,0,0,265.84,91h17.28V80.71Z"/><path class="cls-4" d="M668.78,378.2c0-.83,0-1.34,0-1.45V337.94H625l-.08-.07H551.15l.07.07H0v38.81a2.18,2.18,0,0,0,.3,1.06H0l33.85,39.84L94.3,487.93l4-7.19V413c6.8,2.35,11.14,3.82,11.37,3.82H240.34l88.38,98.73,161.41.33-84.27-99.06h220l67.3,71.12,4-6.45V404.22Z"/><path class="cls-5" d="M104.39,260.39v227.1a1.92,1.92,0,0,1-1.91,1.91H94a1.92,1.92,0,0,1-1.91-1.91V272a5.15,5.15,0,0,1,1.38-3.22l9.49-9C103.77,259.08,104.39,259.34,104.39,260.39Z"/><rect class="cls-6" x="92.13" y="281.66" width="12.26" height="6.68"/><path class="cls-5" d="M692.32,259.84c-.74-.75-1.35-.5-1.35.55V487.48a1.92,1.92,0,0,0,1.91,1.91h8.44a1.92,1.92,0,0,0,1.91-1.91V272.76a5.31,5.31,0,0,0-1.34-3.26Z"/><rect class="cls-6" x="691.26" y="281.66" width="11.78" height="6.68"/><path class="cls-5" d="M702.74,281.07a1.4,1.4,0,0,1-1.42,1.84H94A1.56,1.56,0,0,1,92.45,281l15.73-93.4a2.33,2.33,0,0,1,2.22-1.88H675.67a2.61,2.61,0,0,1,2.39,1.84Z"/><path class="cls-7" d="M702.91,171.07V272.41a1.92,1.92,0,0,1-1.91,1.91H93.71a1.91,1.91,0,0,1-1.9-1.91V171.07a1.91,1.91,0,0,1,1.9-1.91H701a1.92,1.92,0,0,1,1.75,1.14A1.77,1.77,0,0,1,702.91,171.07Z"/><path class="cls-8" d="M530,215.38v4.38a8.48,8.48,0,0,1-8.45,8.45H519a8.48,8.48,0,0,1-8.44-8.45v-4.38a8.47,8.47,0,0,1,8.44-8.45h2.56a8.45,8.45,0,0,1,8.45,8.45Z"/><path class="cls-9" d="M536.17,216.86v4.38a8.47,8.47,0,0,1-8.44,8.45h-2.56a8.47,8.47,0,0,1-8.45-8.45v-4.38a8.47,8.47,0,0,1,8.45-8.45h2.56a8,8,0,0,1,1.83.21A8.48,8.48,0,0,1,536.17,216.86Z"/><line class="cls-10" x1="526.12" y1="209.18" x2="526.12" y2="211.62"/><path class="cls-8" d="M209.7,189.36l-6.5-20.1H93.71a1.91,1.91,0,0,0-1.9,1.91v22.11l16.8,14.91a3.66,3.66,0,0,0,3.22,2,3.47,3.47,0,0,0,.64-.06l96.1-18C210,191.92,210.67,191,209.7,189.36Z"/><path class="cls-11" d="M92.17,168.42l20,34.27a4.4,4.4,0,0,0,4.59,2.11L214.22,187a4.4,4.4,0,0,0,2.94-6.65l-20.3-32.56a4.4,4.4,0,0,0-4.46-2L95.25,161.86A4.39,4.39,0,0,0,92.17,168.42Z"/><path class="cls-12" d="M347.72,254.48l-9.1,28.62-46.24-.16-3.9-10c-3.8-10.17-7.8-44.36,44.19-44.36,10.16,0,7.68,19.56,9.12,22.58S347.72,254.48,347.72,254.48Z"/><path class="cls-8" d="M497.67,168.85v1.6a5.9,5.9,0,0,1-5.9,5.9H276.82a5.9,5.9,0,0,1-5.9-5.9v-1.6Z"/><polygon class="cls-8" points="406.59 179.12 343.69 189.66 324.61 168.85 405.73 168.85 406.59 179.12"/><rect class="cls-13" x="341.98" y="166.44" width="112.23" height="24.44" rx="3.55" ry="3.55"/><path class="cls-9" d="M454.24,164v17.32a3.57,3.57,0,0,1-3.56,3.56H345.56a3.57,3.57,0,0,1-3.55-3.56V164a3.58,3.58,0,0,1,3.55-3.56H450.68A3.57,3.57,0,0,1,454.24,164Z"/><path class="cls-4" d="M451.26,160.42H345a3,3,0,0,0-3,3v7.33a3,3,0,0,1,3-3H451.26a3,3,0,0,1,3,3v-7.33A3,3,0,0,0,451.26,160.42Z"/><path class="cls-13" d="M289,5.91V126.38a5.78,5.78,0,0,0,.23,1.63,5.91,5.91,0,0,0,5.68,4.28H501.31a5.89,5.89,0,0,0,5.9-5.91V5.91A5.89,5.89,0,0,0,501.31,0H295A5.9,5.9,0,0,0,289,5.91Z"/><rect class="cls-14" x="289.04" y="5.96" width="218.17" height="136.06" rx="5.9" ry="5.9"/><rect class="Graphic-Style-68" x="297.14" y="14.3" width="201.97" height="115.02"/><path class="cls-15" d="M498.85,14.32V126.19H297.4V14.32Zm2.46-3.63H295a1.18,1.18,0,0,0-1.18,1.18v118H502.49V11.87a1.18,1.18,0,0,0-1.18-1.18Z"/><polygon class="cls-16" points="419.71 161.95 367.3 172.49 356.23 160.41 419.57 160.41 419.71 161.95"/><rect class="cls-17" x="366.99" y="150.12" width="62.26" height="23.1" rx="1.97" ry="1.97"/><rect class="cls-18" x="366.99" y="139.15" width="62.26" height="23.1" rx="1.97" ry="1.97"/><path class="cls-14" d="M489.2,34.45v79.48a2.59,2.59,0,0,1,0,.48,3.18,3.18,0,0,1-3.14,2.7H311.82a3.17,3.17,0,0,1-3.17-3.18V34.45a3.18,3.18,0,0,1,3.17-3.18H486A3.18,3.18,0,0,1,489.2,34.45Z"/><path class="cls-9" d="M446,36.84V107a1.53,1.53,0,0,1,0,.3A2,2,0,0,1,444,109H327.78a2,2,0,0,1-2-2V36.84a2,2,0,0,1,2-2H444A2,2,0,0,1,446,36.84Z"/><path class="cls-19" d="M489.2,43.67v70.26a2.59,2.59,0,0,1,0,.48,3.18,3.18,0,0,1-3.14,2.7H458.58V43.67Z"/><rect class="cls-20" x="319.79" y="36.75" width="130.45" height="5.96"/><path class="cls-19" d="M485.47,30.87H312.22a3.57,3.57,0,0,0-3.57,3.58v6.77h180.4V34.45A3.58,3.58,0,0,0,485.47,30.87Z"/><path class="cls-21" d="M316.52,36.16a2,2,0,1,1-2-2A2,2,0,0,1,316.52,36.16Z"/><path class="cls-22" d="M322,35.67a2,2,0,1,1-1.43-1.44A2,2,0,0,1,322,35.67Z"/><path class="cls-23" d="M327.63,35.67a2,2,0,0,1-2.43,2.42,2,2,0,0,1-1.44-1.43,2,2,0,0,1,2.44-2.43A2,2,0,0,1,327.63,35.67Z"/><rect class="cls-24" x="297.37" y="14.3" width="201.48" height="7.9"/><rect class="cls-25" x="450.71" y="14.3" width="23.93" height="7.9"/><rect class="cls-26" x="483.62" y="14.3" width="15.1" height="7.9"/><path class="cls-19" d="M303.52,18.39a2,2,0,1,1-2-2A2,2,0,0,1,303.52,18.39Z"/><path class="cls-9" d="M507.21,135.72v11.84a5.9,5.9,0,0,1-5.9,5.9H295a5.91,5.91,0,0,1-5.91-5.9V135.72Z"/><path class="cls-27" d="M403,141.34v4.55h-5.41v-4.55Z"/><rect class="cls-15" x="284.49" y="75.4" width="4.61" height="8.07"/><rect class="cls-15" x="284.49" y="77.35" width="4.61" height="8.03"/><path class="cls-28" d="M270,73.87a2.65,2.65,0,0,0-2.65,2.65v5A2.65,2.65,0,0,0,270,84.13h17.28V73.87Z"/><path class="cls-29" d="M270,77.21a2.65,2.65,0,0,0-2.65,2.65v5A2.65,2.65,0,0,0,270,87.47h17.28V77.21Z"/><path class="cls-30" d="M282.56,78.87H273a1.79,1.79,0,0,0-1.79,1.79V84A1.79,1.79,0,0,0,273,85.81h9.59a1.8,1.8,0,0,0,1.8-1.79V80.66A1.8,1.8,0,0,0,282.56,78.87Z"/><path class="cls-31" d="M282.56,79.82H278.7a1.8,1.8,0,0,0-1.8,1.79V85a1.81,1.81,0,0,0,1.8,1.8h3.86a1.81,1.81,0,0,0,1.8-1.8V81.61A1.8,1.8,0,0,0,282.56,79.82Z"/><rect class="cls-32" x="335.73" y="46.65" width="21.68" height="1.95"/><rect class="cls-33" x="335.73" y="90.57" width="27.89" height="2.5"/><rect class="cls-34" x="335.73" y="96.82" width="24.47" height="1.95"/><rect class="cls-34" x="335.73" y="101.25" width="24.47" height="1.95"/><rect class="cls-33" x="373.21" y="90.57" width="27.89" height="2.5"/><rect class="cls-34" x="373.21" y="96.82" width="24.47" height="1.95"/><rect class="cls-34" x="373.21" y="101.25" width="24.47" height="1.95"/><rect class="cls-33" x="410.68" y="90.57" width="27.89" height="2.5"/><rect class="cls-34" x="410.68" y="96.81" width="24.47" height="1.95"/><rect class="cls-34" x="410.68" y="101.25" width="24.47" height="1.95"/><rect class="cls-33" x="424.46" y="46.65" width="13.77" height="1.95"/><rect class="cls-33" x="407.08" y="46.65" width="13.77" height="1.95"/><rect class="cls-33" x="389.69" y="46.65" width="13.78" height="1.95"/><rect class="cls-35" x="335.73" y="56.02" width="102.5" height="29.9"/><path class="cls-9" d="M383.41,77.77a1.32,1.32,0,1,1-1.32-1.31A1.32,1.32,0,0,1,383.41,77.77Z"/><path class="cls-9" d="M388.3,77.77A1.32,1.32,0,1,1,387,76.46,1.32,1.32,0,0,1,388.3,77.77Z"/><path class="cls-9" d="M393.19,77.77a1.32,1.32,0,1,1-1.32-1.31A1.32,1.32,0,0,1,393.19,77.77Z"/><rect class="cls-32" x="461.13" y="85.04" width="26.06" height="8.5" rx="1.25" ry="1.25"/><path class="cls-9" d="M495.22,33.85H465.58a1.19,1.19,0,0,1-1.19-1.19V24.59a1.19,1.19,0,0,1,1.19-1.18H490.9l2.62-2.88v2.88h1.7a1.18,1.18,0,0,1,1.19,1.18v8.07A1.19,1.19,0,0,1,495.22,33.85Z"/><rect class="cls-32" x="461.13" y="45.22" width="26.06" height="20.9" rx="1.25" ry="1.25"/><rect class="cls-32" x="461.13" y="95.54" width="26.06" height="8.5" rx="1.25" ry="1.25"/><rect class="cls-32" x="461.13" y="105.71" width="26.06" height="8.5" rx="1.25" ry="1.25"/><rect class="cls-36" x="462.29" y="86.26" width="5.79" height="6.08" rx="0.84" ry="0.84"/><rect class="cls-19" x="310.77" y="43.81" width="5.79" height="65.22" rx="0.84" ry="0.84"/><rect class="cls-36" x="462.29" y="69.25" width="5.79" height="6.08" rx="0.84" ry="0.84"/><g class="cls-37"><rect class="cls-36" x="312.14" y="88.31" width="2.92" height="3.06" rx="0.84" ry="0.84"/><rect class="cls-36" x="312.14" y="83.54" width="2.92" height="3.06" rx="0.84" ry="0.84"/><rect class="cls-36" x="312.14" y="78.77" width="2.92" height="3.06" rx="0.84" ry="0.84"/><rect class="cls-36" x="312.14" y="74" width="2.92" height="3.06" rx="0.84" ry="0.84"/><rect class="cls-36" x="312.14" y="69.23" width="2.92" height="3.06" rx="0.84" ry="0.84"/><rect class="cls-36" x="312.14" y="64.46" width="2.92" height="3.06" rx="0.84" ry="0.84"/><rect class="cls-36" x="312.14" y="59.69" width="2.92" height="3.06" rx="0.84" ry="0.84"/><rect class="cls-36" x="312.14" y="54.92" width="2.92" height="3.06" rx="0.84" ry="0.84"/><rect class="cls-36" x="312.14" y="50.15" width="2.92" height="3.06" rx="0.84" ry="0.84"/><rect class="cls-36" x="312.14" y="45.38" width="2.92" height="3.06" rx="0.84" ry="0.84"/></g><rect class="cls-36" x="469.84" y="69.25" width="5.79" height="6.08" rx="0.84" ry="0.84"/><rect class="cls-36" x="477.39" y="69.25" width="5.79" height="6.08" rx="0.84" ry="0.84"/><rect class="cls-38" x="470.26" y="88.38" width="9.92" height="1.86" rx="0.46" ry="0.46"/><rect class="cls-38" x="336.39" y="34.52" width="3.96" height="3.42" rx="0.85" ry="0.85"/><rect class="cls-39" x="342.28" y="34.52" width="11.6" height="3.42" rx="0.85" ry="0.85"/><rect class="cls-38" x="359.13" y="34.52" width="3.96" height="3.42" rx="0.85" ry="0.85"/><rect class="cls-39" x="365.01" y="34.52" width="11.6" height="3.42" rx="0.85" ry="0.85"/><rect class="cls-38" x="470.26" y="98.79" width="9.92" height="1.86" rx="0.46" ry="0.46"/><rect class="cls-38" x="470.26" y="109.05" width="9.92" height="1.86" rx="0.46" ry="0.46"/><rect class="cls-36" x="462.29" y="96.75" width="5.79" height="6.08" rx="0.84" ry="0.84"/><rect class="cls-36" x="462.29" y="106.77" width="5.79" height="6.08" rx="0.84" ry="0.84"/><rect class="cls-40" x="462.32" y="46.32" width="4.04" height="4.24" rx="0.84" ry="0.84"/><rect class="cls-41" x="467.26" y="46.32" width="4.04" height="4.24" rx="0.84" ry="0.84"/><rect class="cls-42" x="472.2" y="46.32" width="4.04" height="4.24" rx="0.84" ry="0.84"/><rect class="cls-43" x="477.14" y="46.32" width="4.04" height="4.24" rx="0.84" ry="0.84"/><rect class="cls-44" x="482.08" y="46.32" width="4.04" height="4.24" rx="0.84" ry="0.84"/><rect class="cls-45" x="462.32" y="51.5" width="4.04" height="4.24" rx="0.84" ry="0.84"/><rect class="cls-46" x="467.26" y="51.5" width="4.04" height="4.24" rx="0.84" ry="0.84"/><rect class="cls-47" x="472.2" y="51.5" width="4.04" height="4.24" rx="0.84" ry="0.84"/><rect class="cls-48" x="477.14" y="51.5" width="4.04" height="4.24" rx="0.84" ry="0.84"/><rect class="cls-49" x="482.08" y="51.5" width="4.04" height="4.24" rx="0.84" ry="0.84"/><rect class="cls-50" x="462.32" y="56.63" width="4.04" height="4.24" rx="0.84" ry="0.84"/><rect class="cls-51" x="467.26" y="56.63" width="4.04" height="4.24" rx="0.84" ry="0.84"/><rect class="cls-35" x="312.92" y="103.18" width="2.92" height="3.06" rx="0.84" ry="0.84"/><rect class="cls-52" x="311.69" y="102.23" width="2.92" height="3.06" rx="0.84" ry="0.84"/><rect class="cls-53" x="340.79" y="60.79" width="24.08" height="20.36"/><path class="cls-9" d="M364.14,61.5V80.44H341.5V61.5Zm1.44-1.43H340.07v21.8h25.51V60.07Z"/><rect class="cls-54" x="362.24" y="59.59" width="3.82" height="3.82"/><rect class="cls-54" x="339.58" y="59.59" width="3.82" height="3.82"/><rect class="cls-54" x="362.24" y="78.91" width="3.82" height="3.82"/><rect class="cls-54" x="339.58" y="78.91" width="3.82" height="3.82"/><rect class="cls-55" x="350.9" y="69.09" width="3.82" height="3.82"/><polygon class="cls-32" points="363.16 80.11 371.35 83.25 368.14 84.62 366.87 88.06 363.16 80.11"/><polygon class="cls-20" points="363.04 82.02 371.23 85.16 368.02 86.53 366.75 89.97 363.04 82.02"/><rect class="cls-38" x="470.02" y="26.81" width="17.42" height="1.45" rx="0.36" ry="0.36"/><rect class="cls-38" x="470.02" y="29.43" width="9.31" height="1.45" rx="0.36" ry="0.36"/><path class="cls-56" d="M218.9,176h0c0,.38,0,.69,0,.79a5.25,5.25,0,0,1-4,4.56l-95.17,16.6c-.22,0-1.14.2-1.35.22a7.7,7.7,0,0,1-6.52-3.48L94.29,165.23A3.09,3.09,0,0,1,94,163.3c0-1.76-.34-4.65.35-4.76l2.36,3.67,98-17L196,145a3.57,3.57,0,0,1,.65-.06,3.66,3.66,0,0,1,3.22,2l.55.75,18.3,27C219,175,218.94,175,218.9,176Z"/><path class="cls-9" d="M196.68,140.21a3.49,3.49,0,0,0-.65.06L95.42,157.71c-1.38.24-2.09,1.14-1.13,2.8l18.47,31.19a3.66,3.66,0,0,0,3.22,2,3.57,3.57,0,0,0,.65-.06l100.61-17.45c1.38-.23,2.1-1.13,1.13-2.8L199.9,142.2a3.68,3.68,0,0,0-3.22-2Z"/><path class="cls-9" d="M201.68,168.56h-.18l-82,14.21c-.69.12-.85.9-.37,1.73l.44.76a2.54,2.54,0,0,0,1.94,1.31h.18l82-14.22c.68-.11.85-.89.37-1.73l-.44-.75a2.54,2.54,0,0,0-1.94-1.31Z"/><path class="cls-57" d="M97.62,154.91a1,1,0,0,1-1.06-1.14l-.79-62.68a2.77,2.77,0,0,1,2.13-2.55l94-16a1.33,1.33,0,0,1,.28,0,1,1,0,0,1,1.06,1.15l.79,62.67a2.77,2.77,0,0,1-2.13,2.56l-94,16Z"/><path class="cls-15" d="M190.6,75.53l.77,60.73,0,0L99.23,151.92,98.47,91.2l0,0L190.6,75.53Zm1.62-5.68a4.59,4.59,0,0,0-.73.06l-94,16a5.44,5.44,0,0,0-4.37,5.25l.78,62.67a3.72,3.72,0,0,0,3.76,3.81,4.59,4.59,0,0,0,.73-.06l94-16a5.46,5.46,0,0,0,4.37-5.25L196,73.65a3.71,3.71,0,0,0-3.76-3.8Z"/><path class="cls-17" d="M194.72,145.47h-.19l-92.41,16c-.68.12-.84.9-.36,1.73l9.1,15.06a2.54,2.54,0,0,0,1.94,1.31H113l92.41-16c.68-.12.85-.89.36-1.73l-9.1-15.05a2.54,2.54,0,0,0-1.93-1.31Z"/><path class="cls-9" d="M111.47,134.57a1.45,1.45,0,0,1-1.64-1.59V99.72a2.16,2.16,0,0,1,1.64-2.14l35.36-6a1.46,1.46,0,0,1,1.65,1.59v33.26a2.18,2.18,0,0,1-1.65,2.14Z"/><path class="cls-19" d="M146.83,91.39l-35.36,6a2.45,2.45,0,0,0-1.85,2.41v4l39.06-6.58v-4A1.62,1.62,0,0,0,146.83,91.39Z"/><path class="cls-21" d="M113.4,100.12a1.37,1.37,0,0,1-1,1.35.92.92,0,0,1-1-1,1.37,1.37,0,0,1,1-1.35A.92.92,0,0,1,113.4,100.12Z"/><path class="cls-22" d="M116.29,99.63a1.37,1.37,0,0,1-1,1.35.91.91,0,0,1-1-1,1.36,1.36,0,0,1,1-1.34A.91.91,0,0,1,116.29,99.63Z"/><path class="cls-23" d="M119.18,99.15a1.36,1.36,0,0,1-1,1.34.91.91,0,0,1-1-1,1.37,1.37,0,0,1,1-1.35A.91.91,0,0,1,119.18,99.15Z"/><polygon class="cls-9" points="145.99 95.68 122.06 99.72 122.06 97.61 145.99 93.58 145.99 95.68"/><polygon class="cls-58" points="112.11 108.08 120.59 106.65 120.59 105.12 112.11 106.55 112.11 108.08"/><polygon class="cls-58" points="112.11 126.33 121.21 124.8 121.21 123.93 112.11 125.47 112.11 126.33"/><polygon class="cls-17" points="112.11 128.87 119.88 127.56 119.88 126.69 112.11 128 112.11 128.87"/><polygon class="cls-17" points="112.11 131.41 119.88 130.1 119.88 129.23 112.11 130.54 112.11 131.41"/><polygon class="cls-58" points="124.17 124.3 133.27 122.77 133.27 121.9 124.17 123.43 124.17 124.3"/><polygon class="cls-17" points="124.17 126.84 131.94 125.53 131.94 124.66 124.17 125.97 124.17 126.84"/><polygon class="cls-17" points="124.17 129.38 131.94 128.07 131.94 127.2 124.17 128.51 124.17 129.38"/><polygon class="cls-58" points="136.42 122.24 145.53 120.7 145.53 119.83 136.42 121.37 136.42 122.24"/><polygon class="cls-17" points="136.42 124.77 144.19 123.46 144.19 122.6 136.42 123.91 136.42 124.77"/><polygon class="cls-17" points="136.42 127.31 144.19 126 144.19 125.13 136.42 126.44 136.42 127.31"/><polygon class="cls-33" points="140.81 103.24 146.2 102.33 146.2 100.81 140.81 101.72 140.81 103.24"/><polygon class="cls-33" points="134 104.39 139.39 103.48 139.39 101.95 134 102.86 134 104.39"/><polygon class="cls-33" points="127.19 105.54 132.59 104.63 132.59 103.1 127.19 104.01 127.19 105.54"/><polygon class="cls-59" points="112.11 122.31 121.52 120.72 121.52 109.13 112.11 110.72 112.11 122.31"/><polygon class="cls-59" points="124.36 120.25 133.77 118.66 133.77 107.07 124.36 108.65 124.36 120.25"/><polygon class="cls-59" points="136.62 118.18 146.03 116.59 146.03 105 136.62 106.59 136.62 118.18"/><path class="cls-9" d="M145.48,133.3a1.46,1.46,0,0,1-1.65-1.59V101.54a2.19,2.19,0,0,1,1.65-2.15l23.38-3.94A1.46,1.46,0,0,1,170.51,97v30.17a2.19,2.19,0,0,1-1.65,2.15Z"/><path class="cls-19" d="M168.66,95.25l-23,3.88a2.44,2.44,0,0,0-1.85,2.41v4L170.51,101V97A1.64,1.64,0,0,0,168.66,95.25Z"/><path class="cls-21" d="M147.41,101.94a1.36,1.36,0,0,1-1,1.34.91.91,0,0,1-1-1,1.37,1.37,0,0,1,1-1.35A.91.91,0,0,1,147.41,101.94Z"/><path class="cls-22" d="M150.3,101.45a1.38,1.38,0,0,1-1,1.35.92.92,0,0,1-1-1,1.38,1.38,0,0,1,1-1.35A.92.92,0,0,1,150.3,101.45Z"/><path class="cls-23" d="M153.18,101a1.37,1.37,0,0,1-1,1.35.91.91,0,0,1-1-1,1.36,1.36,0,0,1,1-1.34A.91.91,0,0,1,153.18,101Z"/><polygon class="cls-32" points="146.11 109.23 154.6 107.81 154.6 106.94 146.11 108.37 146.11 109.23"/><polygon class="cls-58" points="146.11 127.47 155.22 125.93 155.22 125.06 146.11 126.6 146.11 127.47"/><polygon class="cls-17" points="146.11 130 153.88 128.69 153.88 127.82 146.11 129.13 146.11 130"/><polygon class="cls-58" points="158.67 125.35 167.78 123.81 167.78 122.95 158.67 124.48 158.67 125.35"/><polygon class="cls-17" points="158.67 127.89 166.44 126.58 166.44 125.71 158.67 127.02 158.67 127.89"/><polygon class="cls-53" points="146.34 124.01 155.75 122.42 155.75 110.83 146.34 112.42 146.34 124.01"/><polygon class="cls-35" points="158.59 121.94 168 120.36 168 108.77 158.59 110.35 158.59 121.94"/><path class="cls-24" d="M190.67,80.61,98.53,96.26l-.06-5.07h0L190.6,75.54Z"/><polygon class="cls-60" points="188.4 136.5 104.03 150.64 105.89 145.04 186.55 131.52 188.4 136.5"/><path class="cls-61" d="M124.39,139.4a.91.91,0,0,1,1.11.93v3.23a1.36,1.36,0,0,1-1.11,1.3l-3.24.54a.92.92,0,0,1-1.11-.93v-3.23a1.37,1.37,0,0,1,1.11-1.3Z"/><path class="cls-62" d="M115,141a.92.92,0,0,1,1.11.93v3.23a1.37,1.37,0,0,1-1.11,1.3l-3.24.54a.91.91,0,0,1-1.11-.92v-3.24a1.36,1.36,0,0,1,1.11-1.29Z"/><path class="cls-63" d="M149.29,140.68a.92.92,0,0,1-1.11-.93v-3.23a1.37,1.37,0,0,1,1.11-1.3l3.23-.54a.92.92,0,0,1,1.12.93v3.23a1.37,1.37,0,0,1-1.12,1.3Z"/><path class="cls-17" d="M139.91,142.25a.92.92,0,0,1-1.11-.92v-3.24a1.35,1.35,0,0,1,1.11-1.29l3.24-.54a.91.91,0,0,1,1.11.92v3.23a1.37,1.37,0,0,1-1.11,1.3Z"/><path class="cls-9" d="M130.53,143.83a.92.92,0,0,1-1.11-.93v-3.23a1.37,1.37,0,0,1,1.11-1.3l3.23-.54a.91.91,0,0,1,1.11.93V142a1.36,1.36,0,0,1-1.11,1.3Z"/><path class="cls-64" d="M171.29,131.54a.91.91,0,0,1,1.11.92v3.23a1.37,1.37,0,0,1-1.11,1.3l-3.24.54a.9.9,0,0,1-1.11-.92v-3.23a1.36,1.36,0,0,1,1.11-1.3Z"/><path class="cls-65" d="M161.91,133.11a.91.91,0,0,1,1.1.93v3.23a1.35,1.35,0,0,1-1.1,1.29l-3.24.55a.92.92,0,0,1-1.11-.93V135a1.37,1.37,0,0,1,1.11-1.3Z"/><path class="cls-9" d="M177.43,136a.9.9,0,0,1-1.11-.92v-3.23a1.36,1.36,0,0,1,1.11-1.3l3.23-.54a.91.91,0,0,1,1.12.92v3.24a1.36,1.36,0,0,1-1.12,1.29Z"/><path class="cls-8" d="M462.08,217.05v10.81a3.65,3.65,0,0,1-3.22,3.73L333.49,242.45a3.39,3.39,0,0,1-2.88-1.22l-4.36-5.18a3.9,3.9,0,0,1-.9-2.51V217.05a3.63,3.63,0,0,1,3.5-3.75H458.58A3.63,3.63,0,0,1,462.08,217.05Z"/><path class="cls-13" d="M330.63,242.18a3,3,0,0,0,2.69,3.19H462.87a3,3,0,0,0,2.69-3.19V220.55a3,3,0,0,0-2.69-3.19H333.32a3,3,0,0,0-2.69,3.19Z"/><path class="cls-27" d="M330.63,235.28a3,3,0,0,0,2.69,3.19H462.87a3,3,0,0,0,2.69-3.19V213.64a3,3,0,0,0-2.69-3.19H333.32a3,3,0,0,0-2.69,3.19Z"/><path class="cls-9" d="M330.63,235.28a3,3,0,0,0,2.69,3.19H462.87a3,3,0,0,0,2.69-3.19V213.64a3,3,0,0,0-2.69-3.19H333.32a3,3,0,0,0-2.69,3.19Z"/><path class="cls-17" d="M335.74,215.39a1.5,1.5,0,0,1,1.35-1.6h99.69a1.5,1.5,0,0,1,1.35,1.6v.8a1.5,1.5,0,0,1-1.35,1.6H337.09a1.49,1.49,0,0,1-1.35-1.59Z"/><path class="cls-17" d="M335.74,223.55a1.49,1.49,0,0,1,1.35-1.59h99.69a1.49,1.49,0,0,1,1.35,1.59v.81a1.49,1.49,0,0,1-1.35,1.59H337.09a1.49,1.49,0,0,1-1.35-1.59Z"/><path class="cls-17" d="M341.38,231.72a1.49,1.49,0,0,1,1.34-1.59h88.43a1.49,1.49,0,0,1,1.34,1.59v.8a1.49,1.49,0,0,1-1.34,1.6H342.72a1.49,1.49,0,0,1-1.34-1.6Z"/><path class="cls-17" d="M452.92,222a1.49,1.49,0,0,1,1.34,1.59v.81a1.49,1.49,0,0,1-1.34,1.59h-2.27a1.49,1.49,0,0,1-1.34-1.59v-.81a1.49,1.49,0,0,1,1.34-1.59Z"/><path class="cls-17" d="M459.68,222a1.49,1.49,0,0,1,1.35,1.59v.81a1.49,1.49,0,0,1-1.35,1.59h-2.26a1.49,1.49,0,0,1-1.34-1.59v-.81a1.49,1.49,0,0,1,1.34-1.59Z"/><path class="cls-17" d="M446,222a1.49,1.49,0,0,1,1.34,1.59v.81A1.49,1.49,0,0,1,446,226H443.4a1.49,1.49,0,0,1-1.34-1.59v-.81A1.49,1.49,0,0,1,443.4,222Z"/><path class="cls-17" d="M452.92,229.79a1.49,1.49,0,0,1,1.34,1.6v.8a1.49,1.49,0,0,1-1.34,1.6h-2.27a1.49,1.49,0,0,1-1.34-1.6v-.8a1.49,1.49,0,0,1,1.34-1.6Z"/><path class="cls-17" d="M459.68,229.79a1.5,1.5,0,0,1,1.35,1.6v.8a1.5,1.5,0,0,1-1.35,1.6h-2.26a1.49,1.49,0,0,1-1.34-1.6v-.8a1.49,1.49,0,0,1,1.34-1.6Z"/><path class="cls-17" d="M446,229.79a1.49,1.49,0,0,1,1.34,1.6v.8a1.49,1.49,0,0,1-1.34,1.6H443.4a1.49,1.49,0,0,1-1.34-1.6v-.8a1.49,1.49,0,0,1,1.34-1.6Z"/><path class="cls-17" d="M452.92,213.79a1.49,1.49,0,0,1,1.34,1.6v.8a1.49,1.49,0,0,1-1.34,1.6h-2.27a1.49,1.49,0,0,1-1.34-1.6v-.8a1.49,1.49,0,0,1,1.34-1.6Z"/><path class="cls-17" d="M459.68,213.79a1.5,1.5,0,0,1,1.35,1.6v.8a1.5,1.5,0,0,1-1.35,1.6h-2.26a1.49,1.49,0,0,1-1.34-1.6v-.8a1.49,1.49,0,0,1,1.34-1.6Z"/><path class="cls-17" d="M446,213.79a1.49,1.49,0,0,1,1.34,1.6v.8a1.49,1.49,0,0,1-1.34,1.6H443.4a1.49,1.49,0,0,1-1.34-1.6v-.8a1.49,1.49,0,0,1,1.34-1.6Z"/><line class="cls-66" x1="385.58" y1="477.64" x2="385.58" y2="548.57"/><line class="cls-67" x1="394.21" y1="509.8" x2="456.62" y2="509.8"/><line class="cls-67" x1="330.46" y1="509.8" x2="392.88" y2="509.8"/><path class="cls-68" d="M351.45,408.61v28.77a70,70,0,0,1-13.07-1.08c-11.88-2.28-16-7.94-16-14.51V386.33a15.39,15.39,0,0,1,2.9-9A15.66,15.66,0,0,1,330,373a15.46,15.46,0,0,1,8-2.21h0l5.92,16.61L349,401.59Z"/><path class="cls-69" d="M478,386.33v35.46a15.64,15.64,0,0,1-15.59,15.59H338l.41-1.08c2-5.23,10.27-27.7,7.25-27.7-3.41,0-7.66-1-7.66-7.39V370.75H462.4A15.63,15.63,0,0,1,478,386.33Z"/><path class="cls-68" d="M478,425.16c0,9.1-8.37,16.55-18.61,16.55H341c-10.23,0-18.6-7.45-18.6-16.55s8.37-16.56,18.6-16.56h118.4C469.62,408.6,478,416.05,478,425.16Z"/><rect class="cls-70" x="390.7" y="554.97" width="19.2" height="12.8" rx="4.07" ry="4.07"/><rect class="cls-71" x="390.7" y="554.97" width="19.2" height="12.8" rx="4.07" ry="4.07"/><path class="cls-15" d="M413.43,549.42V558H387.16v-8.54c0-5.71,5.4-10.36,12-10.36h2.26c6.33,0,11.54,4.26,12,9.64Q413.43,549.06,413.43,549.42Z"/><path class="cls-70" d="M467.33,522.85a10.45,10.45,0,1,0,20.89,0Z"/><line class="cls-72" x1="402.74" y1="495.68" x2="465.16" y2="495.68"/><line class="cls-72" x1="339" y1="495.68" x2="401.41" y2="495.68"/><path class="cls-15" d="M330,514.81a5,5,0,0,1-3.43-1.35c-2-1.9-4.09-8-2.19-10l3.79-10.84c1.9-2,11.65,2.65,13.67,4.55a5,5,0,0,1,.22,7.08l-8.41,9A5,5,0,0,1,330,514.81Z"/><path class="cls-73" d="M328.2,513.9a5,5,0,0,1-5-5c0-.27,0-.62,0-1-.16-3.78-.54-12.64,5.31-18.74,3.67-3.83,8.94-5.76,15.69-5.76h43a5,5,0,0,1,0,10h-50.3c-3.9,0-6.74.9-8.44,2.68-2.89,3-2.66,8.45-2.54,11.38,0,.58.05,1.07.05,1.45C325.93,511.66,331,513.9,328.2,513.9Z"/><path class="cls-15" d="M473.94,514.81a5,5,0,0,1-3.66-1.58l-8.41-9a5,5,0,0,1,.22-7.08c2-1.9,13.79-3.53,15.69-1.51l-.19,10.69a5,5,0,0,1-3.65,8.44Z"/><path class="cls-73" d="M475.76,513.9c-2.77,0,1.37-2.24,1.37-5,0-.38,0-.87,0-1.45.12-2.93.36-8.37-2.54-11.38-1.7-1.78-4.54-2.68-8.44-2.68H416.8a5,5,0,0,1,0-10h43c6.74,0,12,1.93,15.68,5.76,5.85,6.1,5.48,15,5.32,18.74,0,.41,0,.76,0,1A5,5,0,0,1,475.76,513.9Z"/><line class="cls-74" x1="400.18" y1="472.52" x2="400.18" y2="531.5"/><line class="cls-75" x1="403.83" y1="462.65" x2="403.83" y2="521.63"/><path class="cls-76" d="M410.21,443.58v40.57a10,10,0,1,1-20,0V443.58a9.46,9.46,0,0,1,.1-1.41,10,10,0,0,1,19.95,1.41Z"/><path class="cls-77" d="M410.21,443.58V469.9c-3.4,3.4-11.31,4.3-11.31,4.3v13.2s-7.79-2.7-8.74-2.45V443.58a10,10,0,0,1,20,0Z"/><path class="cls-15" d="M400.19,487.08a10,10,0,0,1-10-10l-.91,8c0,5.54,5.39,10,10.94,10s10.94-4.49,10.94-10l-.92-8A10,10,0,0,1,400.19,487.08Z"/><path class="cls-15" d="M400.19,446.33a10,10,0,0,1-10-10l-.91,8c0,5.53,5.39,10,10.94,10s10.94-4.5,10.94-10l-.92-8A10,10,0,0,1,400.19,446.33Z"/><path class="cls-15" d="M478,429.22v9.54c0,5.24-8.37,9.54-18.61,9.54H341c-10.23,0-18.6-4.3-18.6-9.54v-9.54Z"/><path class="cls-70" d="M316,522.85a10.45,10.45,0,1,0,20.89,0Z"/><path class="cls-15" d="M316.63,525.48a1.83,1.83,0,0,1-1.83-1.83,12.28,12.28,0,0,1,24.55,0,1.83,1.83,0,0,1-1.83,1.83Z"/><path class="cls-15" d="M326.47,511.38a10.44,10.44,0,0,1,10.44,10.45H316a10.45,10.45,0,0,1,10.45-10.45Zm0-3.66a14.13,14.13,0,0,0-14.11,14.11,3.66,3.66,0,0,0,3.66,3.66h20.89a3.66,3.66,0,0,0,3.66-3.66,14.12,14.12,0,0,0-14.1-14.11Z"/><path class="cls-15" d="M467.33,523.66a1.83,1.83,0,0,1-1.83-1.83,12.28,12.28,0,1,1,24.55,0,1.83,1.83,0,0,1-1.83,1.83Z"/><path class="cls-15" d="M477.78,511.38a10.44,10.44,0,0,1,10.44,10.45H467.33a10.45,10.45,0,0,1,10.45-10.45Zm0-3.66a14.13,14.13,0,0,0-14.11,14.11,3.66,3.66,0,0,0,3.66,3.66h20.89a3.66,3.66,0,0,0,3.66-3.66,14.12,14.12,0,0,0-14.1-14.11Z"/><path class="cls-69" d="M474.17,318.52l-146.45-4.08,2-22.31,4-45.61c.77-13.45,11.1-24.75,24-27.31a28,28,0,0,1,5.51-.55h74a30.35,30.35,0,0,1,29.77,27.84Z"/><path class="cls-68" d="M361.59,254.23,344,281s-11.85,17.32-12.76,14.28a18.33,18.33,0,0,0-1.53-3.12l4-45.61c.77-13.45,11.1-24.75,24-27.31a19.21,19.21,0,0,0-1.87,6.15c-.61,4.26-2.26,10.94,6.77,11.55S361.59,254.23,361.59,254.23Z"/><path class="cls-68" d="M350.28,358.2a25.42,25.42,0,0,1-25.69-27.82l8.49-70c1.22-15.3,14.78-27.82,30.13-27.82h74c15.35,0,28.9,12.52,30.12,27.82l8.49,70a25.42,25.42,0,0,1-25.69,27.82Z"/><path class="cls-78" d="M320.14,260.84l-.73,1.05A11.93,11.93,0,0,1,320.14,260.84Z"/><line class="cls-79" x1="400.18" y1="345.18" x2="400.18" y2="440.83"/><path class="cls-80" d="M355.75,343.62a16.3,16.3,0,0,1-16.61-17.81l6.69-55.29,0-.18c.84-10.53,10.47-19.43,21-19.43h65.75c10.56,0,20.19,8.9,21,19.43l0,.18,7.55,55.29a16.31,16.31,0,0,1-16.62,17.81H355.75Z"/><path class="cls-15" d="M355.75,349.09a16.3,16.3,0,0,1-16.61-17.81L345.83,276l0-.18c.84-10.54,10.47-19.43,21-19.43h65.75c10.56,0,20.19,8.9,21,19.43l0,.18,7.55,55.29a16.31,16.31,0,0,1-16.62,17.81H355.75Z"/><polygon class="cls-8" points="606.95 169.16 620.1 182.25 622.03 182.25 640.16 169.16 606.95 169.16"/><path class="cls-69" d="M674.89,164.8V136.47a2,2,0,0,0-2-2H621.2a2,2,0,0,0-2,2v5h0v7.94h0v31.23a2.22,2.22,0,0,0,2.21,2.21h51.29a2.22,2.22,0,0,0,2.22-2.21V164.8Z"/><path class="cls-68" d="M674.88,136.65v4.83H671v-3.16H623v3.16h-3.88v-4.83a2.22,2.22,0,0,1,2.22-2.21h51.29A2.22,2.22,0,0,1,674.88,136.65Z"/><path class="cls-68" d="M640.05,138.32H623v3.16l-3.88-1.43v-3.4a2.22,2.22,0,0,1,2.22-2.21h13.47Z"/><line class="cls-81" x1="619.84" y1="112.09" x2="627.98" y2="149.55"/><line class="cls-82" x1="650.24" y1="105.98" x2="647.19" y2="149.55"/><path class="cls-83" d="M648.71,144.38a7.31,7.31,0,0,1-.74-2c0-.54.11-1.23,1.08-1.2s.77,1.93.74,2.36S648.71,144.38,648.71,144.38Z"/><path class="cls-83" d="M659.23,144.8a7.17,7.17,0,0,0,.09-2.19c-.21-.49-.47-1.13-1.39-.81s-.15,2.07,0,2.47S659.23,144.8,659.23,144.8Z"/><path class="cls-84" d="M650.25,124.48l.55-6a1.86,1.86,0,0,1,0-.33c.42-2.45,2.83-2,5.53-1.73s4.65.19,4.65,2.55c0,.17,0,.32,0,.46l-2.77,29.89c-.25,2.66-2.48.8-5.1.8h-.48c-2.82-.27-4.88,1.08-4.63-1.74l2.23-23.94Z"/><path class="cls-83" d="M659.4,143.48l-.65,6.24c-.29,3-3,2.64-5.88,2.64a5.06,5.06,0,0,1-.55,0c-3.16-.3-5.47,1.21-5.18-2l.83-8.06c.78,1,2.59,1.17,5.56,1.45S658.37,144,659.4,143.48Z"/><line class="cls-81" x1="665.93" y1="116.87" x2="662.09" y2="147.61"/><line class="cls-85" x1="674.26" y1="110.47" x2="665.12" y2="148.59"/><path class="cls-86" d="M638.08,151.78l-.38,0a3.32,3.32,0,0,1-3.3-2.95l-2.59-22.35-.35-3-.66-5.72a3.32,3.32,0,1,1,6.6-.76l.7,6,.34,2.91L641,148.09A3.31,3.31,0,0,1,638.08,151.78Z"/><path class="cls-68" d="M671,141.48v7.19H623v-7.19h-3.88v8.85a2.23,2.23,0,0,0,2.22,2.22h51.29a2.22,2.22,0,0,0,2.21-2.22v-8.85Z"/><path class="cls-87" d="M634.12,124.65a6.89,6.89,0,0,1,4.22.34l-.25-2.12a6.61,6.61,0,0,0-4.2-.36,5.79,5.79,0,0,0-2.43,1l.25,2.13A5.89,5.89,0,0,1,634.12,124.65Z"/><path class="cls-88" d="M639.85,136.74c.32.22-.42-2.61-.53-3.13a50.78,50.78,0,0,1-.85-5.77c-.25-2.2,0-5.53-1.18-7.52a1.11,1.11,0,0,0-1.92,1.12c.63,1.06.51,3.07.64,4.26.21,1.87.34,3.78.64,5.64s.74,3.83,1.2,5.73c.18.73.24,1.14.88,1.58C639.91,139.47,641,137.54,639.85,136.74Z"/><path class="cls-89" d="M640.75,135.63c.32.22-.42-2.61-.53-3.13a53.13,53.13,0,0,1-.85-5.77c-.24-2.2,0-5.53-1.18-7.52a1.11,1.11,0,0,0-1.92,1.12c.63,1.06.51,3.07.64,4.26.21,1.87.34,3.78.64,5.64s.75,3.83,1.2,5.73c.18.74.24,1.14.88,1.58C640.81,138.36,641.92,136.44,640.75,135.63Z"/><path class="cls-90" d="M661,119c0,.17,0,.32,0,.46-.13,1.76-1.52,2.09-5.47,1.71-3.41-.32-4.86-.48-4.73-2.66a1.86,1.86,0,0,1,0-.33c.42-2.45,2.84-2.12,5.54-1.86S661,116.66,661,119Z"/><path class="cls-9" d="M674.88,154v5.25a2.26,2.26,0,0,1-2.21,2.28H619.16v-5.27h53.51A2.24,2.24,0,0,0,674.88,154Z"/><rect class="cls-91" x="504.55" y="21.47" width="21.77" height="16.58"/><path class="cls-92" d="M520.22,25.17c-4,.57-8,0-12,0a1,1,0,0,0,0,1.91c4.06,0,8.08.58,12.12,0C521.5,26.91,521.44,25,520.22,25.17Z"/><path class="cls-92" d="M516.82,29.83c-2.15.07-4.34-.12-6.49-.14a1,1,0,0,0,0,1.91c2.15,0,4.41.2,6.56.14A1,1,0,0,0,516.82,29.83Z"/><rect class="cls-93" x="269.89" y="36.97" width="21.77" height="16.58" transform="translate(-2.37 18.61) rotate(-3.78)"/><path class="cls-92" d="M275.68,41c4.07.3,8-.49,12-.81a1,1,0,0,1,.12,1.9c-4,.32-8,1.12-12.08.82C274.52,42.82,274.46,40.91,275.68,41Z"/><rect class="cls-94" x="634.44" y="190.1" width="51.22" height="64.58"/><rect class="cls-9" x="626.64" y="196.42" width="51.22" height="64.58"/><g class="cls-95"><rect class="cls-96" x="632.38" y="210.53" width="39.05" height="21.6"/><rect class="cls-53" x="635.5" y="213.9" width="13.67" height="14.87"/><rect class="cls-15" x="631.54" y="237.14" width="14.54" height="13.09"/><rect class="cls-15" x="652.18" y="237.14" width="20.25" height="13.09"/><rect class="cls-15" x="631.54" y="201.67" width="8.64" height="3.87"/><rect class="cls-97" x="647.23" y="201.67" width="24.79" height="3.87"/></g><line class="cls-98" x1="289.95" y1="221.64" x2="289.95" y2="195.41"/><line class="cls-99" x1="292.49" y1="208.29" x2="292.49" y2="192.87"/><line class="cls-100" x1="292.49" y1="217.19" x2="292.49" y2="208.29"/><path class="cls-15" d="M292.49,223.87c-1.05,0-1.9-2.76-1.9-3.82v-2.86a1.91,1.91,0,1,1,3.81,0v2.86C294.4,221.11,293.55,223.87,292.49,223.87Z"/><path class="cls-101" d="M291.81,223.28v1.26a.69.69,0,0,0,1.38,0v-1.26A.69.69,0,0,0,291.81,223.28Z"/><path class="cls-8" d="M169.46,221.14v39.73a4.93,4.93,0,0,1-4.93,4.92H112.71a4.92,4.92,0,0,1-4.92-4.92V221.14a4.92,4.92,0,0,1,4.92-4.93h51.82A4.92,4.92,0,0,1,169.46,221.14Z"/><rect class="cls-102" x="118.17" y="208.98" width="49.57" height="57.34" rx="4.49" ry="4.49" transform="translate(380.61 94.7) rotate(90)"/><path class="cls-15" d="M119.21,256.23a2.73,2.73,0,0,1-2.73-2.73V213.77a2.73,2.73,0,0,1,2.73-2.73H166.7a2.74,2.74,0,0,1,2.74,2.73V253.5a2.74,2.74,0,0,1-2.74,2.73Z"/><path class="cls-103" d="M166.7,213.23a.55.55,0,0,1,.55.54V253.5a.55.55,0,0,1-.55.54H119.21a.54.54,0,0,1-.54-.54V213.77a.54.54,0,0,1,.54-.54Zm0-4.38H119.21a4.92,4.92,0,0,0-4.92,4.92V253.5a4.92,4.92,0,0,0,4.92,4.92H166.7a4.92,4.92,0,0,0,4.93-4.92V213.77a4.92,4.92,0,0,0-4.93-4.92Z"/><path class="cls-8" d="M274.9,252.67l-76.48,8.76a2.72,2.72,0,0,1-3-2.14l-8-38a2.72,2.72,0,0,1,2.35-3.26l76.48-8.76a2.71,2.71,0,0,1,3,2.14l8,38A2.72,2.72,0,0,1,274.9,252.67Z"/><path class="cls-104" d="M276.35,249.45l-75.5,8.65a2.68,2.68,0,0,1-2.93-2.11L190,218.45a2.68,2.68,0,0,1,2.32-3.21l75.5-8.65a2.67,2.67,0,0,1,2.93,2.11l7.91,37.53A2.69,2.69,0,0,1,276.35,249.45Z"/><path class="cls-105" d="M229.94,208l-33.46,3.9a2.68,2.68,0,0,0-2.32,3.22l7.91,37.54a2.68,2.68,0,0,0,2.93,2.11l33.46-3.9Z"/><path class="cls-105" d="M238.47,250.78l33.46-3.9a2.69,2.69,0,0,0,2.32-3.22l-7.91-37.53a2.68,2.68,0,0,0-2.93-2.12L230,207.92l6.92,40.6Z"/><path class="cls-106" d="M230.1,207.39a24.5,24.5,0,0,0-10.8-1.78c-5.71.5-22,4.9-22,4.9a2.6,2.6,0,0,0-2.26,3.13l7.35,34.84a2.61,2.61,0,0,0,2.85,2.06s16.25-4.81,22.32-4.93a27.92,27.92,0,0,1,10.16,1.54Z"/><path class="cls-106" d="M271.73,243s-18.73-.71-24.62.65a33.56,33.56,0,0,0-9.39,3.54l-7.62-39.75a27.06,27.06,0,0,1,8.49-3.36c.4-.09.8-.16,1.22-.23,5.69-.93,23-.72,23-.72a3.09,3.09,0,0,1,3.36,2.41l7.49,34.83A2.22,2.22,0,0,1,271.73,243Z"/><path class="cls-107" d="M222.94,249.07a.09.09,0,0,1,0,0C223,249.09,223,249.11,222.94,249.07Z"/><path class="cls-108" d="M247.11,243.6a33.56,33.56,0,0,0-9.39,3.54l-7.62-39.75a27.06,27.06,0,0,1,8.49-3.36Z"/><polyline class="cls-109" points="205.56 208.45 213.81 248.2 213.81 254.2"/><polygon class="cls-110" points="276.27 223.75 201.2 240.96 198.21 231.11 277.23 221.47 276.27 223.75"/><polygon class="cls-111" points="277.23 221.47 247.82 228.21 218.68 234.89 202.17 238.68 199.17 228.83 215.71 225.03 244.85 218.36 274.24 211.61 277.23 221.47"/><circle class="cls-112" cx="204.37" cy="232.86" r="1.15"/></g></g></g></svg>