<!-- Generated by IcoMoon.io -->
<svg version="1.1" xmlns="http://www.w3.org/2000/svg" width="24" height="24" viewBox="0 0 24 24">
<title>anchor</title>
<path d="M14 5c0 0.273-0.054 0.53-0.151 0.765-0.101 0.244-0.25 0.464-0.435 0.65s-0.406 0.334-0.65 0.435c-0.234 0.096-0.491 0.15-0.764 0.15s-0.53-0.054-0.765-0.151c-0.244-0.101-0.464-0.25-0.65-0.435s-0.334-0.406-0.435-0.65c-0.096-0.234-0.15-0.491-0.15-0.764s0.054-0.53 0.151-0.765c0.101-0.244 0.25-0.464 0.435-0.65s0.406-0.334 0.65-0.435c0.234-0.096 0.491-0.15 0.764-0.15s0.53 0.054 0.765 0.151c0.244 0.101 0.464 0.25 0.65 0.435s0.334 0.406 0.435 0.65c0.096 0.234 0.15 0.491 0.15 0.764zM5 11h-3c-0.552 0-1 0.448-1 1 0 1.488 0.296 2.91 0.833 4.207 0.558 1.347 1.375 2.558 2.388 3.571s2.224 1.831 3.571 2.388c1.298 0.538 2.72 0.834 4.208 0.834s2.91-0.296 4.207-0.833c1.347-0.558 2.558-1.375 3.571-2.388s1.831-2.224 2.388-3.571c0.538-1.298 0.834-2.72 0.834-4.208 0-0.552-0.448-1-1-1h-3c-0.552 0-1 0.448-1 1s0.448 1 1 1h1.945c-0.095 0.857-0.309 1.676-0.626 2.442-0.456 1.101-1.124 2.092-1.955 2.922s-1.822 1.499-2.922 1.955c-0.766 0.317-1.585 0.532-2.442 0.626v-12.071c0.182-0.047 0.359-0.106 0.53-0.177 0.49-0.203 0.93-0.5 1.298-0.868s0.665-0.808 0.868-1.298c0.196-0.474 0.304-0.991 0.304-1.531s-0.108-1.057-0.303-1.53c-0.203-0.49-0.5-0.93-0.868-1.298s-0.809-0.666-1.299-0.869c-0.473-0.195-0.99-0.303-1.53-0.303s-1.057 0.108-1.53 0.303c-0.49 0.203-0.93 0.5-1.298 0.868s-0.666 0.809-0.869 1.299c-0.195 0.473-0.303 0.99-0.303 1.53s0.108 1.057 0.303 1.53c0.203 0.49 0.5 0.93 0.868 1.298s0.809 0.666 1.299 0.869c0.171 0.071 0.348 0.13 0.53 0.177v12.071c-0.857-0.095-1.676-0.309-2.442-0.626-1.101-0.456-2.092-1.124-2.922-1.955-0.831-0.831-1.499-1.822-1.955-2.922-0.317-0.766-0.532-1.585-0.626-2.442h1.945c0.552 0 1-0.448 1-1s-0.448-1-1-1z"></path>
</svg>
