<!-- Generated by IcoMoon.io -->
<svg version="1.1" xmlns="http://www.w3.org/2000/svg" width="24" height="24" viewBox="0 0 24 24">
<title>at-sign</title>
<path d="M15 12c0 0.408-0.081 0.795-0.227 1.147-0.152 0.366-0.375 0.697-0.652 0.974s-0.608 0.5-0.974 0.652c-0.352 0.146-0.739 0.227-1.147 0.227s-0.795-0.081-1.147-0.227c-0.366-0.152-0.697-0.375-0.974-0.652s-0.5-0.608-0.652-0.974c-0.146-0.352-0.227-0.739-0.227-1.147s0.081-0.795 0.227-1.147c0.152-0.366 0.375-0.697 0.652-0.974s0.608-0.5 0.974-0.652c0.352-0.146 0.739-0.227 1.147-0.227s0.795 0.081 1.147 0.227c0.366 0.152 0.697 0.375 0.974 0.652s0.5 0.608 0.652 0.974c0.146 0.352 0.227 0.739 0.227 1.147zM15.74 15.318c0.13 0.182 0.274 0.353 0.431 0.51 0.368 0.368 0.808 0.665 1.298 0.868 0.474 0.196 0.991 0.304 1.531 0.304s1.057-0.108 1.53-0.303c0.49-0.203 0.93-0.5 1.298-0.868s0.665-0.808 0.868-1.298c0.196-0.474 0.304-0.991 0.304-1.531v-1c0-1.488-0.296-2.91-0.834-4.207-0.558-1.347-1.375-2.558-2.389-3.571s-2.225-1.83-3.571-2.388c-1.297-0.537-2.719-0.833-4.207-0.833s-2.909 0.296-4.207 0.833c-1.346 0.558-2.557 1.375-3.571 2.389s-1.83 2.225-2.388 3.571c-0.537 1.298-0.833 2.719-0.833 4.207s0.296 2.91 0.834 4.207c0.558 1.347 1.375 2.558 2.389 3.571s2.225 1.83 3.571 2.388c1.297 0.537 2.719 0.833 4.207 0.833 1.245 0 2.443-0.207 3.559-0.588 1.145-0.391 2.202-0.963 3.132-1.681 0.437-0.337 0.518-0.965 0.181-1.403s-0.965-0.518-1.403-0.181c-0.757 0.585-1.62 1.052-2.555 1.371-0.911 0.311-1.891 0.481-2.913 0.481-1.221 0-2.383-0.242-3.442-0.681-1.101-0.456-2.092-1.124-2.923-1.955s-1.499-1.822-1.955-2.922c-0.439-1.057-0.682-2.219-0.682-3.44s0.242-2.382 0.681-3.441c0.456-1.101 1.124-2.092 1.955-2.923s1.822-1.499 2.922-1.955c1.059-0.439 2.221-0.681 3.441-0.681s2.383 0.242 3.442 0.681c1.101 0.456 2.092 1.124 2.923 1.955 0.831 0.83 1.499 1.822 1.955 2.922 0.438 1.058 0.681 2.22 0.681 3.441v1c0 0.273-0.054 0.53-0.151 0.765-0.101 0.244-0.25 0.464-0.435 0.65-0.185 0.185-0.406 0.334-0.65 0.435-0.234 0.096-0.491 0.15-0.764 0.15s-0.53-0.054-0.765-0.151c-0.244-0.101-0.464-0.25-0.65-0.435-0.185-0.185-0.334-0.406-0.435-0.65-0.096-0.234-0.15-0.491-0.15-0.764v-5c0-0.552-0.448-1-1-1s-1 0.448-1 1c-0.332-0.25-0.697-0.459-1.088-0.621-0.59-0.245-1.237-0.379-1.912-0.379s-1.322 0.134-1.912 0.379c-0.613 0.254-1.163 0.625-1.624 1.085s-0.832 1.011-1.085 1.623c-0.245 0.591-0.379 1.238-0.379 1.913s0.134 1.322 0.379 1.912c0.254 0.613 0.625 1.163 1.085 1.623s1.011 0.832 1.623 1.085c0.591 0.246 1.238 0.38 1.913 0.38s1.322-0.134 1.912-0.379c0.613-0.254 1.163-0.625 1.623-1.085 0.070-0.070 0.139-0.143 0.205-0.217z"></path>
</svg>
