<!-- Generated by IcoMoon.io -->
<svg version="1.1" xmlns="http://www.w3.org/2000/svg" width="24" height="24" viewBox="0 0 24 24">
<title>award</title>
<path d="M14.986 15.424l0.75 5.652-3.221-1.933c-0.311-0.184-0.703-0.196-1.029 0l-3.221 1.933 0.751-5.651c0.923 0.371 1.931 0.575 2.984 0.575 1.054 0 2.062-0.204 2.986-0.576zM15.331 12.991c-0.058 0.030-0.112 0.065-0.162 0.105-0.277 0.173-0.57 0.324-0.875 0.45-0.705 0.292-1.479 0.454-2.294 0.454s-1.589-0.162-2.294-0.454c-0.733-0.304-1.394-0.749-1.948-1.303s-1-1.215-1.303-1.948c-0.293-0.706-0.455-1.48-0.455-2.295s0.162-1.589 0.454-2.294c0.304-0.733 0.749-1.394 1.303-1.948s1.215-1 1.948-1.303c0.706-0.293 1.48-0.455 2.295-0.455s1.589 0.162 2.294 0.454c0.733 0.304 1.394 0.749 1.948 1.303s1 1.215 1.303 1.948c0.293 0.706 0.455 1.48 0.455 2.295s-0.162 1.589-0.454 2.294c-0.304 0.733-0.749 1.394-1.303 1.948-0.278 0.278-0.583 0.529-0.911 0.748zM7.14 14.355l-1.131 8.513c-0.073 0.547 0.312 1.050 0.86 1.123 0.234 0.031 0.461-0.022 0.646-0.134l4.485-2.691 4.486 2.691c0.474 0.284 1.088 0.131 1.372-0.343 0.122-0.203 0.163-0.431 0.134-0.646l-1.13-8.515c0.28-0.215 0.546-0.448 0.795-0.697 0.737-0.737 1.331-1.618 1.737-2.597 0.391-0.943 0.606-1.977 0.606-3.059s-0.215-2.116-0.606-3.060c-0.406-0.98-1-1.86-1.737-2.597s-1.618-1.331-2.597-1.737c-0.944-0.391-1.978-0.606-3.060-0.606s-2.116 0.215-3.060 0.606c-0.98 0.406-1.86 1-2.597 1.737s-1.331 1.618-1.737 2.597c-0.391 0.944-0.606 1.978-0.606 3.060s0.215 2.116 0.606 3.060c0.406 0.98 1 1.86 1.737 2.597 0.25 0.25 0.516 0.483 0.796 0.698z"></path>
</svg>
