<!-- Generated by IcoMoon.io -->
<svg version="1.1" xmlns="http://www.w3.org/2000/svg" width="24" height="24" viewBox="0 0 24 24">
<title>bell-off</title>
<path d="M12.865 20.498c-0.069 0.119-0.157 0.216-0.257 0.293-0.105 0.080-0.224 0.138-0.351 0.172s-0.26 0.043-0.39 0.025c-0.125-0.017-0.25-0.058-0.368-0.127-0.162-0.094-0.283-0.222-0.359-0.357-0.274-0.48-0.884-0.647-1.364-0.373s-0.647 0.884-0.373 1.364c0.25 0.439 0.623 0.823 1.093 1.096 0.35 0.203 0.726 0.328 1.107 0.379 0.395 0.053 0.792 0.026 1.169-0.075s0.735-0.274 1.052-0.516c0.305-0.233 0.57-0.529 0.773-0.878 0.277-0.478 0.114-1.090-0.363-1.367s-1.090-0.114-1.367 0.363zM19 7.997c0.001-0.945-0.186-1.848-0.527-2.673-0.354-0.858-0.873-1.629-1.516-2.275s-1.413-1.167-2.27-1.523c-0.826-0.343-1.73-0.533-2.676-0.534-1.448-0.002-2.799 0.437-3.9 1.18-0.458 0.308-0.579 0.93-0.27 1.388s0.931 0.578 1.389 0.269c0.776-0.524 1.737-0.839 2.778-0.838 0.679 0.001 1.324 0.137 1.911 0.381 0.611 0.254 1.161 0.626 1.622 1.089s0.832 1.014 1.084 1.625c0.241 0.585 0.374 1.226 0.375 1.901-0.042 1.658 0.173 3.476 0.665 5.277 0.146 0.533 0.695 0.847 1.228 0.701s0.847-0.695 0.701-1.228c-0.443-1.624-0.632-3.25-0.594-4.707 0-0.001 0-0.002 0-0.003 0-0.003 0-0.006 0-0.010s0-0.010 0-0.015c0-0.002 0-0.003 0-0.005zM6.996 8.411l7.59 7.589h-9.437c0.089-0.145 0.177-0.3 0.266-0.465 0.388-0.726 0.764-1.645 1.052-2.794 0.298-1.187 0.501-2.614 0.529-4.331zM0.293 1.707l4.856 4.856c-0.106 0.493-0.155 0.984-0.149 1.45 0 1.733-0.194 3.132-0.473 4.242-0.249 0.993-0.566 1.758-0.875 2.336-0.314 0.586-0.622 0.984-0.849 1.234-0.21 0.232-0.353 0.339-0.369 0.35-0.45 0.309-0.57 0.923-0.266 1.379 0.192 0.288 0.506 0.444 0.832 0.446h13.586l5.707 5.707c0.391 0.391 1.024 0.391 1.414 0s0.391-1.024 0-1.414l-22-22c-0.391-0.391-1.024-0.391-1.414 0-0.39 0.39-0.391 1.023 0 1.414z"></path>
</svg>
