<!-- Generated by IcoMoon.io -->
<svg version="1.1" xmlns="http://www.w3.org/2000/svg" width="24" height="24" viewBox="0 0 24 24">
<title>bell</title>
<path d="M17 8c0 1.894 0.211 3.458 0.533 4.741 0.288 1.148 0.664 2.068 1.052 2.794 0.088 0.165 0.177 0.32 0.266 0.465h-13.702c0.089-0.145 0.177-0.3 0.266-0.465 0.388-0.726 0.764-1.645 1.052-2.794 0.322-1.283 0.533-2.847 0.533-4.741 0-0.679 0.135-1.324 0.378-1.912 0.253-0.611 0.625-1.162 1.086-1.624s1.013-0.833 1.624-1.086c0.588-0.243 1.233-0.378 1.912-0.378s1.324 0.135 1.912 0.378c0.611 0.253 1.162 0.624 1.624 1.086s0.833 1.013 1.086 1.624c0.243 0.588 0.378 1.233 0.378 1.912zM19 8c0-0.946-0.188-1.851-0.53-2.677-0.355-0.857-0.875-1.628-1.52-2.273s-1.415-1.165-2.273-1.52c-0.826-0.342-1.731-0.53-2.677-0.53s-1.851 0.188-2.677 0.53c-0.858 0.356-1.628 0.876-2.273 1.52s-1.164 1.415-1.52 2.273c-0.342 0.826-0.53 1.731-0.53 2.677 0 1.745-0.194 3.145-0.473 4.255-0.249 0.993-0.566 1.758-0.875 2.336-0.314 0.586-0.622 0.984-0.849 1.234-0.21 0.232-0.353 0.339-0.369 0.35-0.45 0.309-0.57 0.923-0.266 1.379 0.192 0.288 0.506 0.444 0.832 0.446h18c0.552 0 1-0.448 1-1 0-0.346-0.175-0.65-0.445-0.832 0.009 0.006-0.137-0.099-0.358-0.343-0.227-0.25-0.535-0.648-0.849-1.234-0.309-0.578-0.626-1.343-0.875-2.336-0.279-1.11-0.473-2.51-0.473-4.255zM12.865 20.498c-0.069 0.119-0.157 0.216-0.257 0.293-0.105 0.080-0.224 0.138-0.351 0.172s-0.26 0.043-0.39 0.025c-0.125-0.017-0.25-0.058-0.368-0.127-0.162-0.094-0.283-0.222-0.359-0.357-0.274-0.48-0.884-0.647-1.364-0.373s-0.647 0.884-0.373 1.364c0.25 0.439 0.623 0.823 1.093 1.096 0.35 0.203 0.726 0.328 1.107 0.379 0.395 0.053 0.792 0.026 1.169-0.075s0.735-0.274 1.052-0.516c0.305-0.233 0.57-0.529 0.773-0.878 0.277-0.478 0.114-1.090-0.363-1.367s-1.090-0.114-1.367 0.363z"></path>
</svg>
