<!-- Generated by IcoMoon.io -->
<svg version="1.1" xmlns="http://www.w3.org/2000/svg" width="24" height="24" viewBox="0 0 24 24">
<title>bold</title>
<path d="M7 11v-6h7c0.408 0 0.795 0.081 1.147 0.227 0.366 0.152 0.697 0.375 0.974 0.652s0.5 0.608 0.652 0.974c0.146 0.352 0.227 0.739 0.227 1.147s-0.081 0.795-0.227 1.147c-0.152 0.366-0.375 0.697-0.652 0.974s-0.608 0.5-0.974 0.652c-0.352 0.146-0.739 0.227-1.147 0.227zM5 12v8c0 0.552 0.448 1 1 1h9c0.675 0 1.322-0.134 1.912-0.379 0.613-0.254 1.163-0.625 1.623-1.085s0.832-1.011 1.085-1.623c0.246-0.591 0.38-1.238 0.38-1.913s-0.134-1.322-0.379-1.912c-0.254-0.613-0.625-1.163-1.085-1.623-0.325-0.325-0.695-0.606-1.1-0.832 0.034-0.032 0.067-0.064 0.1-0.097 0.46-0.46 0.832-1.011 1.085-1.623 0.245-0.591 0.379-1.238 0.379-1.913s-0.134-1.322-0.379-1.912c-0.254-0.613-0.625-1.163-1.085-1.623s-1.011-0.832-1.623-1.085c-0.591-0.246-1.238-0.38-1.913-0.38h-8c-0.552 0-1 0.448-1 1zM7 13h8c0.408 0 0.795 0.081 1.147 0.227 0.366 0.152 0.697 0.375 0.974 0.652s0.5 0.608 0.652 0.974c0.146 0.352 0.227 0.739 0.227 1.147s-0.081 0.795-0.227 1.147c-0.152 0.366-0.375 0.697-0.652 0.974s-0.608 0.5-0.974 0.652c-0.352 0.146-0.739 0.227-1.147 0.227h-8z"></path>
</svg>
