<!-- Generated by IcoMoon.io -->
<svg version="1.1" xmlns="http://www.w3.org/2000/svg" width="24" height="24" viewBox="0 0 24 24">
<title>book</title>
<path d="M6.5 1c-0.472 0-0.925 0.094-1.339 0.265-0.429 0.178-0.814 0.438-1.136 0.76s-0.582 0.707-0.76 1.136c-0.171 0.414-0.265 0.867-0.265 1.339v15c0 0.472 0.094 0.925 0.265 1.339 0.178 0.429 0.438 0.814 0.76 1.136s0.707 0.582 1.136 0.76c0.414 0.171 0.867 0.265 1.339 0.265h13.5c0.552 0 1-0.448 1-1v-20c0-0.552-0.448-1-1-1zM19 18v3h-12.5c-0.205 0-0.398-0.041-0.573-0.113-0.183-0.076-0.348-0.187-0.487-0.326s-0.25-0.305-0.326-0.487c-0.073-0.176-0.114-0.369-0.114-0.574s0.041-0.398 0.113-0.573c0.076-0.183 0.187-0.348 0.326-0.487s0.305-0.25 0.487-0.326c0.176-0.073 0.369-0.114 0.574-0.114zM6.5 3h12.5v13h-12.5c-0.472 0-0.925 0.094-1.339 0.265-0.054 0.023-0.108 0.047-0.161 0.072v-11.837c0-0.205 0.041-0.398 0.113-0.573 0.076-0.183 0.187-0.349 0.326-0.488s0.305-0.25 0.487-0.326c0.176-0.072 0.369-0.113 0.574-0.113z"></path>
</svg>
