<!-- Generated by IcoMoon.io -->
<svg version="1.1" xmlns="http://www.w3.org/2000/svg" width="24" height="24" viewBox="0 0 24 24">
<title>book-open</title>
<path d="M21 4v13h-6c-0.54 0-1.057 0.108-1.53 0.303-0.162 0.067-0.319 0.145-0.47 0.232v-10.535c0-0.408 0.081-0.795 0.227-1.147 0.152-0.366 0.375-0.697 0.652-0.974s0.608-0.5 0.974-0.652c0.352-0.146 0.739-0.227 1.147-0.227zM11 17.535c-0.151-0.087-0.308-0.165-0.47-0.232-0.473-0.195-0.99-0.303-1.53-0.303h-6v-13h5c0.408 0 0.795 0.081 1.147 0.227 0.366 0.152 0.697 0.375 0.974 0.652s0.5 0.608 0.652 0.974c0.146 0.352 0.227 0.739 0.227 1.147zM22 2h-6c-0.675 0-1.322 0.134-1.912 0.379-0.613 0.254-1.163 0.625-1.623 1.085-0.168 0.167-0.323 0.346-0.465 0.536-0.142-0.19-0.297-0.369-0.464-0.536-0.46-0.46-1.011-0.832-1.623-1.085-0.591-0.245-1.238-0.379-1.913-0.379h-6c-0.552 0-1 0.448-1 1v15c0 0.552 0.448 1 1 1h7c0.273 0 0.53 0.054 0.765 0.151 0.244 0.101 0.464 0.25 0.65 0.435 0.185 0.185 0.334 0.406 0.435 0.65 0.096 0.234 0.15 0.491 0.15 0.764 0 0.552 0.448 1 1 1s1-0.448 1-1c0-0.273 0.054-0.53 0.151-0.765 0.101-0.244 0.25-0.464 0.435-0.65 0.185-0.185 0.406-0.334 0.65-0.435 0.234-0.096 0.491-0.15 0.764-0.15h7c0.552 0 1-0.448 1-1v-15c0-0.552-0.448-1-1-1z"></path>
</svg>
