<!-- Generated by IcoMoon.io -->
<svg version="1.1" xmlns="http://www.w3.org/2000/svg" width="24" height="24" viewBox="0 0 24 24">
<title>camera</title>
<path d="M24 19v-11c0-0.405-0.081-0.793-0.228-1.148-0.152-0.368-0.375-0.698-0.651-0.974s-0.606-0.499-0.974-0.651c-0.354-0.146-0.742-0.227-1.147-0.227h-3.465l-1.703-2.555c-0.182-0.27-0.486-0.445-0.832-0.445h-6c-0.326 0.002-0.64 0.158-0.832 0.445l-1.703 2.555h-3.465c-0.405 0-0.793 0.081-1.148 0.228-0.367 0.152-0.697 0.375-0.973 0.651s-0.499 0.606-0.651 0.973c-0.147 0.355-0.228 0.743-0.228 1.148v11c0 0.405 0.081 0.793 0.228 1.148 0.152 0.368 0.375 0.698 0.651 0.974s0.606 0.499 0.974 0.651c0.354 0.146 0.742 0.227 1.147 0.227h18c0.405 0 0.793-0.081 1.148-0.228 0.368-0.152 0.698-0.375 0.974-0.651s0.499-0.606 0.651-0.974c0.146-0.354 0.227-0.742 0.227-1.147zM22 19c0 0.137-0.027 0.266-0.075 0.382-0.050 0.122-0.125 0.232-0.218 0.325s-0.203 0.167-0.325 0.218c-0.116 0.048-0.245 0.075-0.382 0.075h-18c-0.137 0-0.266-0.027-0.382-0.075-0.122-0.050-0.232-0.125-0.325-0.218s-0.167-0.203-0.218-0.325c-0.048-0.116-0.075-0.245-0.075-0.382v-11c0-0.137 0.027-0.266 0.075-0.382 0.050-0.122 0.125-0.232 0.218-0.325s0.203-0.167 0.325-0.218c0.116-0.048 0.245-0.075 0.382-0.075h4c0.346 0 0.65-0.175 0.832-0.445l1.703-2.555h4.93l1.703 2.555c0.192 0.287 0.506 0.443 0.832 0.445h4c0.137 0 0.266 0.027 0.382 0.075 0.122 0.050 0.232 0.125 0.325 0.218s0.167 0.203 0.218 0.325c0.048 0.116 0.075 0.245 0.075 0.382zM17 13c0-0.675-0.134-1.322-0.379-1.912-0.254-0.613-0.625-1.163-1.085-1.623s-1.011-0.832-1.623-1.085c-0.591-0.246-1.238-0.38-1.913-0.38s-1.322 0.134-1.912 0.379c-0.613 0.254-1.163 0.625-1.624 1.085s-0.832 1.011-1.085 1.623c-0.245 0.591-0.379 1.238-0.379 1.913s0.134 1.322 0.379 1.912c0.254 0.613 0.625 1.163 1.085 1.623s1.011 0.832 1.623 1.085c0.591 0.246 1.238 0.38 1.913 0.38s1.322-0.134 1.912-0.379c0.613-0.254 1.163-0.625 1.623-1.085s0.832-1.011 1.085-1.623c0.246-0.591 0.38-1.238 0.38-1.913zM15 13c0 0.408-0.081 0.795-0.227 1.147-0.152 0.366-0.375 0.697-0.652 0.974s-0.608 0.5-0.974 0.652c-0.352 0.146-0.739 0.227-1.147 0.227s-0.795-0.081-1.147-0.227c-0.366-0.152-0.697-0.375-0.974-0.652s-0.5-0.608-0.652-0.974c-0.146-0.352-0.227-0.739-0.227-1.147s0.081-0.795 0.227-1.147c0.152-0.366 0.375-0.697 0.652-0.974s0.608-0.5 0.974-0.652c0.352-0.146 0.739-0.227 1.147-0.227s0.795 0.081 1.147 0.227c0.366 0.152 0.697 0.375 0.974 0.652s0.5 0.608 0.652 0.974c0.146 0.352 0.227 0.739 0.227 1.147z"></path>
</svg>
