<!-- Generated by IcoMoon.io -->
<svg version="1.1" xmlns="http://www.w3.org/2000/svg" width="24" height="24" viewBox="0 0 24 24">
<title>camera-off</title>
<path d="M9 4h5.465l1.703 2.555c0.192 0.287 0.506 0.443 0.832 0.445h4c0.137 0 0.266 0.027 0.382 0.075 0.122 0.050 0.232 0.125 0.325 0.218s0.167 0.203 0.218 0.325c0.048 0.116 0.075 0.245 0.075 0.382v9.34c0 0.552 0.448 1 1 1s1-0.448 1-1v-9.34c0-0.405-0.081-0.793-0.228-1.148-0.152-0.368-0.375-0.698-0.651-0.974s-0.606-0.499-0.974-0.651c-0.354-0.146-0.742-0.227-1.147-0.227h-3.465l-1.703-2.555c-0.182-0.27-0.486-0.445-0.832-0.445h-6c-0.552 0-1 0.448-1 1s0.448 1 1 1zM8.262 9.676c-0.146 0.163-0.283 0.337-0.409 0.522-0.381 0.557-0.636 1.167-0.767 1.792-0.137 0.649-0.141 1.313-0.021 1.953s0.364 1.257 0.727 1.812c0.349 0.535 0.807 1.011 1.364 1.393 0.557 0.381 1.167 0.636 1.792 0.767 0.649 0.137 1.313 0.141 1.953 0.021s1.257-0.364 1.812-0.727c0.214-0.14 0.419-0.297 0.612-0.471l3.261 3.262h-15.586c-0.137 0-0.266-0.027-0.382-0.075-0.122-0.050-0.232-0.125-0.325-0.218s-0.167-0.203-0.218-0.325c-0.048-0.116-0.075-0.245-0.075-0.382v-11c0-0.137 0.027-0.266 0.075-0.382 0.050-0.122 0.125-0.232 0.218-0.325s0.203-0.167 0.325-0.218c0.116-0.048 0.245-0.075 0.382-0.075h2.586zM10.413 8.998l-8.706-8.705c-0.391-0.391-1.024-0.391-1.414 0-0.39 0.39-0.391 1.023 0 1.414l3.293 3.293h-0.586c-0.405 0-0.793 0.081-1.148 0.228-0.367 0.152-0.697 0.375-0.973 0.651s-0.499 0.606-0.651 0.973c-0.147 0.355-0.228 0.743-0.228 1.148v11c0 0.405 0.081 0.793 0.228 1.148 0.152 0.368 0.375 0.698 0.651 0.974s0.606 0.499 0.974 0.651c0.354 0.146 0.742 0.227 1.147 0.227h17.586l1.707 1.707c0.391 0.391 1.024 0.391 1.414 0s0.391-1.024 0-1.414l-13.267-13.267zM13.907 15.321c-0.092 0.077-0.188 0.148-0.287 0.213-0.332 0.217-0.703 0.364-1.088 0.436s-0.784 0.069-1.172-0.012c-0.373-0.078-0.738-0.23-1.075-0.461s-0.61-0.516-0.819-0.835c-0.216-0.332-0.364-0.703-0.436-1.088s-0.069-0.784 0.012-1.172c0.078-0.373 0.23-0.738 0.461-1.075 0.056-0.082 0.115-0.16 0.176-0.233z"></path>
</svg>
