<!-- Generated by IcoMoon.io -->
<svg version="1.1" xmlns="http://www.w3.org/2000/svg" width="24" height="24" viewBox="0 0 24 24">
<title>cast</title>
<path d="M1.8 17.080c0.463 0.094 0.888 0.264 1.268 0.494 0.392 0.237 0.738 0.54 1.024 0.892 0.405 0.497 0.693 1.093 0.829 1.74 0.114 0.54 0.644 0.886 1.185 0.772s0.886-0.644 0.772-1.185c-0.202-0.96-0.629-1.847-1.235-2.59-0.429-0.527-0.948-0.982-1.54-1.34-0.573-0.347-1.213-0.602-1.903-0.743-0.541-0.11-1.069 0.239-1.18 0.78s0.239 1.069 0.78 1.18zM1.889 13.044c0.985 0.11 1.906 0.393 2.738 0.816 0.86 0.438 1.626 1.027 2.269 1.73 1.119 1.226 1.859 2.799 2.061 4.526 0.064 0.549 0.561 0.941 1.109 0.877s0.941-0.561 0.877-1.109c-0.251-2.15-1.174-4.112-2.57-5.642-0.802-0.878-1.76-1.615-2.838-2.164-1.043-0.531-2.197-0.885-3.424-1.022-0.549-0.061-1.043 0.334-1.104 0.883s0.334 1.043 0.883 1.104zM3 8v-2c0-0.137 0.027-0.266 0.075-0.382 0.050-0.122 0.125-0.232 0.218-0.325s0.203-0.167 0.325-0.218c0.116-0.048 0.245-0.075 0.382-0.075h16c0.137 0 0.266 0.027 0.382 0.075 0.122 0.050 0.232 0.125 0.325 0.218s0.167 0.203 0.218 0.325c0.048 0.116 0.075 0.245 0.075 0.382v12c0 0.137-0.027 0.266-0.075 0.382-0.050 0.122-0.125 0.232-0.218 0.325s-0.203 0.167-0.325 0.218c-0.116 0.048-0.245 0.075-0.382 0.075h-6c-0.552 0-1 0.448-1 1s0.448 1 1 1h6c0.405 0 0.793-0.081 1.148-0.228 0.368-0.152 0.698-0.375 0.974-0.651s0.499-0.606 0.651-0.974c0.146-0.354 0.227-0.742 0.227-1.147v-12c0-0.405-0.081-0.793-0.228-1.148-0.152-0.368-0.375-0.698-0.651-0.974s-0.606-0.499-0.974-0.651c-0.354-0.146-0.742-0.227-1.147-0.227h-16c-0.405 0-0.793 0.081-1.148 0.228-0.367 0.152-0.697 0.375-0.973 0.651s-0.499 0.606-0.651 0.973c-0.147 0.355-0.228 0.743-0.228 1.148v2c0 0.552 0.448 1 1 1s1-0.448 1-1zM3 20c0-0.552-0.448-1-1-1s-1 0.448-1 1 0.448 1 1 1 1-0.448 1-1z"></path>
</svg>
