<!-- Generated by IcoMoon.io -->
<svg version="1.1" xmlns="http://www.w3.org/2000/svg" width="24" height="24" viewBox="0 0 24 24">
<title>chrome</title>
<path d="M7.402 10.033l-2.244-3.881c0.152-0.178 0.312-0.35 0.478-0.516 0.831-0.831 1.822-1.499 2.922-1.955 1.059-0.438 2.221-0.681 3.442-0.681s2.383 0.243 3.442 0.681c1.101 0.456 2.092 1.124 2.922 1.955 0.416 0.416 0.792 0.873 1.121 1.364h-7.485c-0.675 0-1.322 0.134-1.912 0.379-0.613 0.254-1.163 0.625-1.623 1.085-0.447 0.447-0.81 0.978-1.063 1.569zM10.699 22.924c0.046 0.009 0.093 0.014 0.14 0.016 0.382 0.039 0.769 0.060 1.161 0.060 1.488 0 2.91-0.296 4.207-0.833 1.347-0.558 2.558-1.375 3.571-2.388s1.831-2.224 2.388-3.571c0.538-1.298 0.834-2.72 0.834-4.208s-0.296-2.91-0.833-4.207c-0.018-0.043-0.036-0.086-0.054-0.129-0.016-0.043-0.034-0.086-0.055-0.126-0.553-1.245-1.33-2.367-2.279-3.316-1.013-1.013-2.224-1.831-3.571-2.388-1.298-0.538-2.72-0.834-4.208-0.834s-2.91 0.296-4.207 0.833c-1.347 0.558-2.558 1.375-3.571 2.389-0.366 0.366-0.706 0.757-1.018 1.171-0.041 0.047-0.078 0.096-0.11 0.149-0.503 0.693-0.928 1.448-1.261 2.251-0.537 1.297-0.833 2.719-0.833 4.207s0.296 2.91 0.833 4.207c0.558 1.347 1.375 2.558 2.388 3.571s2.224 1.831 3.571 2.388c0.914 0.378 1.889 0.637 2.906 0.757zM12.595 16.965l-2.241 3.885c-0.624-0.115-1.225-0.295-1.796-0.531-1.101-0.456-2.092-1.124-2.922-1.955-0.831-0.831-1.499-1.822-1.955-2.922-0.438-1.059-0.681-2.221-0.681-3.442s0.243-2.383 0.681-3.442c0.076-0.183 0.158-0.364 0.245-0.541l3.644 6.303c0.236 0.451 0.539 0.86 0.895 1.216 0.46 0.46 1.011 0.832 1.623 1.085 0.59 0.245 1.237 0.379 1.912 0.379 0.201 0 0.4-0.012 0.595-0.035zM14.637 13.431c-0.015 0.022-0.030 0.045-0.044 0.069l-0.076 0.131c-0.115 0.177-0.248 0.341-0.397 0.49-0.277 0.277-0.608 0.5-0.974 0.652-0.351 0.146-0.738 0.227-1.146 0.227s-0.795-0.081-1.147-0.227c-0.366-0.152-0.697-0.375-0.974-0.652-0.166-0.166-0.313-0.351-0.436-0.552-0.011-0.024-0.024-0.047-0.037-0.070l-0.081-0.141c-0.035-0.069-0.068-0.14-0.098-0.212-0.146-0.351-0.227-0.738-0.227-1.146s0.081-0.795 0.227-1.147c0.152-0.366 0.375-0.697 0.652-0.974s0.608-0.5 0.974-0.652c0.352-0.146 0.739-0.227 1.147-0.227s0.795 0.081 1.147 0.227c0.366 0.152 0.697 0.375 0.974 0.652s0.5 0.608 0.652 0.974c0.146 0.352 0.227 0.739 0.227 1.147s-0.081 0.795-0.227 1.147c-0.040 0.097-0.086 0.192-0.136 0.284zM12.588 20.981l3.64-6.31c0.152-0.24 0.284-0.493 0.394-0.759 0.244-0.59 0.378-1.237 0.378-1.912s-0.134-1.322-0.379-1.912c-0.162-0.391-0.371-0.756-0.621-1.088h4.488c0.331 0.937 0.512 1.947 0.512 3 0 1.221-0.243 2.383-0.681 3.442-0.456 1.101-1.124 2.092-1.955 2.922s-1.822 1.499-2.922 1.955c-0.888 0.368-1.848 0.598-2.854 0.662z"></path>
</svg>
