<!-- Generated by IcoMoon.io -->
<svg version="1.1" xmlns="http://www.w3.org/2000/svg" width="24" height="24" viewBox="0 0 24 24">
<title>cloud</title>
<path d="M18 11c0.544 0 1.060 0.108 1.529 0.303 0.489 0.202 0.929 0.5 1.299 0.869s0.667 0.81 0.869 1.299c0.195 0.469 0.303 0.985 0.303 1.529s-0.108 1.060-0.303 1.529c-0.202 0.489-0.5 0.929-0.869 1.299s-0.81 0.667-1.299 0.869c-0.469 0.195-0.985 0.303-1.529 0.303h-8.995c-1.462-0.008-2.853-0.461-4.005-1.257-0.679-0.47-1.274-1.058-1.752-1.743-0.462-0.663-0.817-1.418-1.032-2.25-0.237-0.92-0.281-1.842-0.156-2.724 0.129-0.917 0.44-1.794 0.904-2.581s1.081-1.483 1.821-2.041c0.712-0.536 1.539-0.944 2.459-1.182s1.842-0.281 2.724-0.156c0.917 0.129 1.794 0.44 2.581 0.904s1.483 1.081 2.041 1.821c0.536 0.712 0.945 1.539 1.182 2.459 0.115 0.435 0.505 0.75 0.968 0.75zM18 9h-0.52c-0.311-0.884-0.751-1.693-1.292-2.412-0.718-0.953-1.613-1.745-2.623-2.341s-2.136-0.995-3.318-1.162c-1.138-0.16-2.325-0.104-3.503 0.2s-2.244 0.83-3.162 1.522c-0.953 0.717-1.745 1.612-2.341 2.622s-0.995 2.137-1.161 3.318c-0.16 1.138-0.104 2.325 0.2 3.503 0.275 1.065 0.731 2.039 1.328 2.895 0.617 0.884 1.383 1.641 2.255 2.243 1.478 1.022 3.261 1.602 5.132 1.612h9.005c0.811 0 1.587-0.161 2.295-0.455 0.735-0.304 1.395-0.75 1.948-1.303s0.998-1.213 1.303-1.948c0.293-0.707 0.454-1.483 0.454-2.294s-0.161-1.587-0.455-2.295c-0.304-0.735-0.75-1.395-1.303-1.948s-1.213-0.998-1.948-1.303c-0.707-0.293-1.483-0.454-2.294-0.454z"></path>
</svg>
