<!-- Generated by IcoMoon.io -->
<svg version="1.1" xmlns="http://www.w3.org/2000/svg" width="24" height="24" viewBox="0 0 24 24">
<title>cloud-off</title>
<path d="M23.531 17.34c0.316-0.747 0.47-1.524 0.476-2.29 0.006-0.796-0.147-1.577-0.44-2.302-0.293-0.724-0.728-1.392-1.286-1.959-0.538-0.546-1.189-0.997-1.936-1.314-0.775-0.328-1.587-0.483-2.356-0.475h-0.506c-0.261-0.75-0.615-1.448-1.047-2.083-0.591-0.87-1.326-1.62-2.164-2.226-1.298-0.938-2.844-1.531-4.487-1.687-0.55-0.052-1.038 0.351-1.090 0.901s0.351 1.038 0.901 1.090c1.286 0.122 2.493 0.586 3.505 1.317 0.653 0.472 1.223 1.055 1.682 1.729 0.443 0.653 0.783 1.393 0.989 2.205 0.112 0.437 0.503 0.754 0.968 0.754h1.271c0.49-0.005 1.030 0.094 1.555 0.317 0.501 0.212 0.934 0.513 1.29 0.875 0.371 0.377 0.661 0.822 0.857 1.307s0.298 1.006 0.294 1.535c-0.004 0.509-0.106 1.026-0.318 1.526-0.215 0.509 0.022 1.095 0.531 1.311s1.095-0.022 1.311-0.531zM4.854 6.268l12.732 12.732h-8.596c-0.96 0.010-1.904-0.172-2.775-0.527-0.728-0.297-1.405-0.714-2-1.243-0.575-0.511-1.075-1.127-1.47-1.842-0.46-0.831-0.732-1.713-0.832-2.599-0.104-0.92-0.022-1.847 0.231-2.725s0.676-1.706 1.254-2.43c0.409-0.513 0.896-0.975 1.456-1.366zM0.293 1.707l3.129 3.13c-0.601 0.456-1.132 0.978-1.588 1.55-0.744 0.933-1.287 1.997-1.612 3.124s-0.43 2.317-0.296 3.503c0.129 1.142 0.48 2.277 1.069 3.342 0.506 0.915 1.149 1.709 1.892 2.369 0.767 0.682 1.639 1.219 2.573 1.6 1.118 0.455 2.325 0.687 3.55 0.675h8.99c0.489-0.001 0.967-0.060 1.417-0.169l2.876 2.876c0.391 0.391 1.024 0.391 1.414 0s0.391-1.024 0-1.414l-22-22c-0.391-0.391-1.024-0.391-1.414 0-0.39 0.39-0.391 1.023 0 1.414z"></path>
</svg>
