<!-- Generated by IcoMoon.io -->
<svg version="1.1" xmlns="http://www.w3.org/2000/svg" width="24" height="24" viewBox="0 0 24 24">
<title>cloud-snow</title>
<path d="M20.401 18.496c0.743-0.325 1.389-0.784 1.92-1.337 0.551-0.574 0.977-1.247 1.262-1.975s0.428-1.511 0.412-2.307c-0.015-0.766-0.179-1.542-0.504-2.284-0.282-0.644-0.665-1.215-1.123-1.702-0.473-0.503-1.026-0.914-1.629-1.223-0.836-0.428-1.77-0.66-2.73-0.668h-0.529c-0.311-0.884-0.751-1.693-1.292-2.412-0.718-0.953-1.613-1.745-2.623-2.341s-2.136-0.995-3.318-1.161c-1.138-0.16-2.325-0.104-3.503 0.2s-2.244 0.83-3.162 1.521c-0.953 0.718-1.746 1.613-2.341 2.623s-0.995 2.136-1.161 3.317c-0.16 1.138-0.104 2.325 0.2 3.503 0.251 0.972 0.652 1.867 1.171 2.664 0.532 0.817 1.186 1.531 1.928 2.119 0.433 0.343 1.062 0.27 1.405-0.163s0.27-1.062-0.163-1.405c-0.573-0.454-1.081-1.007-1.494-1.642-0.402-0.618-0.715-1.315-0.911-2.074-0.238-0.92-0.281-1.842-0.156-2.724 0.129-0.917 0.44-1.794 0.904-2.581s1.081-1.483 1.821-2.041c0.712-0.534 1.539-0.943 2.459-1.18s1.842-0.281 2.724-0.156c0.917 0.129 1.794 0.44 2.581 0.904s1.483 1.081 2.041 1.821c0.536 0.712 0.945 1.539 1.182 2.459 0.115 0.434 0.505 0.749 0.968 0.749h1.252c0.647 0.005 1.275 0.162 1.834 0.448 0.403 0.206 0.771 0.48 1.084 0.814 0.304 0.322 0.558 0.702 0.747 1.134 0.218 0.498 0.326 1.014 0.336 1.522 0.011 0.529-0.085 1.052-0.275 1.539s-0.475 0.936-0.841 1.317c-0.352 0.367-0.782 0.673-1.28 0.891-0.506 0.222-0.736 0.811-0.515 1.317s0.811 0.736 1.317 0.515zM9 16c0-0.552-0.448-1-1-1s-1 0.448-1 1 0.448 1 1 1 1-0.448 1-1zM9 20c0-0.552-0.448-1-1-1s-1 0.448-1 1 0.448 1 1 1 1-0.448 1-1zM13 18c0-0.552-0.448-1-1-1s-1 0.448-1 1 0.448 1 1 1 1-0.448 1-1zM13 22c0-0.552-0.448-1-1-1s-1 0.448-1 1 0.448 1 1 1 1-0.448 1-1zM17 16c0-0.552-0.448-1-1-1s-1 0.448-1 1 0.448 1 1 1 1-0.448 1-1zM17 20c0-0.552-0.448-1-1-1s-1 0.448-1 1 0.448 1 1 1 1-0.448 1-1z"></path>
</svg>
