<!-- Generated by IcoMoon.io -->
<svg version="1.1" xmlns="http://www.w3.org/2000/svg" width="24" height="24" viewBox="0 0 24 24">
<title>cloud-lightning</title>
<path d="M19.199 17.88c0.795-0.161 1.523-0.474 2.158-0.902 0.66-0.445 1.218-1.013 1.65-1.664 0.431-0.651 0.737-1.387 0.889-2.168 0.147-0.752 0.15-1.545-0.011-2.339-0.148-0.731-0.425-1.407-0.803-2.006-0.391-0.619-0.889-1.155-1.464-1.587-0.514-0.387-1.090-0.691-1.705-0.898-0.605-0.203-1.248-0.313-1.909-0.316h-0.524c-0.311-0.884-0.751-1.693-1.293-2.412-0.718-0.953-1.613-1.745-2.623-2.34s-2.137-0.995-3.318-1.161c-1.138-0.16-2.325-0.104-3.503 0.201s-2.244 0.83-3.162 1.521c-0.953 0.716-1.745 1.611-2.34 2.621s-0.995 2.137-1.161 3.318c-0.16 1.138-0.104 2.325 0.201 3.503 0.293 1.133 0.789 2.161 1.442 3.055 0.677 0.928 1.521 1.708 2.476 2.31 0.143 0.090 0.289 0.176 0.437 0.258 0.483 0.268 1.092 0.093 1.36-0.39s0.093-1.092-0.39-1.359c-0.115-0.064-0.229-0.131-0.34-0.201-0.745-0.469-1.401-1.077-1.927-1.797-0.506-0.693-0.892-1.492-1.121-2.376-0.239-0.92-0.282-1.841-0.158-2.724 0.129-0.917 0.44-1.794 0.904-2.581s1.081-1.483 1.821-2.041c0.712-0.536 1.539-0.945 2.459-1.182s1.842-0.281 2.724-0.157c0.917 0.129 1.794 0.44 2.581 0.904s1.483 1.081 2.041 1.821c0.536 0.712 0.945 1.539 1.182 2.459 0.115 0.435 0.505 0.75 0.968 0.75h1.256c0.444 0.002 0.875 0.076 1.279 0.212 0.412 0.139 0.797 0.342 1.141 0.6 0.384 0.289 0.715 0.645 0.974 1.056 0.25 0.397 0.435 0.845 0.534 1.336 0.108 0.533 0.105 1.060 0.008 1.559-0.101 0.519-0.305 1.010-0.593 1.446s-0.661 0.815-1.1 1.11c-0.422 0.284-0.906 0.493-1.439 0.601-0.541 0.11-0.891 0.638-0.781 1.179s0.638 0.891 1.179 0.781zM12.168 10.445l-4 6c-0.306 0.46-0.182 1.080 0.277 1.387 0.172 0.115 0.367 0.169 0.555 0.168h4.131l-2.964 4.445c-0.306 0.46-0.182 1.080 0.277 1.387s1.080 0.182 1.387-0.277l4-6c0.106-0.156 0.169-0.348 0.169-0.555 0-0.552-0.448-1-1-1h-4.131l2.964-4.445c0.306-0.46 0.182-1.080-0.277-1.387s-1.080-0.182-1.387 0.277z"></path>
</svg>
