<!-- Generated by IcoMoon.io -->
<svg version="1.1" xmlns="http://www.w3.org/2000/svg" width="24" height="24" viewBox="0 0 24 24">
<title>codepen</title>
<path d="M5.256 12l-2.256 1.579v-3.159zM21 13.579l-2.256-1.579 2.256-1.579zM17 13.221l3.212 2.249-7.212 4.687v-4.137zM8.744 12l3.256-2.279 3.256 2.279-3.256 2.279zM3.788 15.469l3.212-2.248 4 2.8v4.137zM12.557 1.169c-0.159-0.107-0.351-0.169-0.557-0.169s-0.398 0.062-0.557 0.169l-9.988 6.492c-0.276 0.182-0.455 0.489-0.455 0.839v7c0.001 0.185 0.052 0.366 0.148 0.524 0.041 0.068 0.091 0.131 0.149 0.188 0.047 0.047 0.1 0.089 0.158 0.127l0.019 0.012 9.969 6.48c0.159 0.107 0.351 0.169 0.557 0.169s0.398-0.062 0.557-0.169l9.988-6.492c0.276-0.182 0.455-0.489 0.455-0.839v-7c-0.001-0.185-0.052-0.367-0.148-0.524-0.041-0.067-0.091-0.13-0.149-0.187-0.047-0.047-0.1-0.089-0.158-0.127l-0.019-0.012zM13 7.979v-4.136l7.212 4.688-3.212 2.248zM11 3.843v4.137l-4 2.8-3.212-2.249z"></path>
</svg>
