<!-- Generated by IcoMoon.io -->
<svg version="1.1" xmlns="http://www.w3.org/2000/svg" width="24" height="24" viewBox="0 0 24 24">
<title>corner-down-left</title>
<path d="M19 4v7c0 0.408-0.081 0.795-0.227 1.147-0.152 0.366-0.375 0.697-0.652 0.974s-0.608 0.5-0.974 0.652c-0.352 0.146-0.739 0.227-1.147 0.227h-9.586l3.293-3.293c0.391-0.391 0.391-1.024 0-1.414s-1.024-0.391-1.414 0l-5 5c-0.001 0.001-0.002 0.003-0.004 0.004-0.094 0.095-0.165 0.204-0.213 0.32-0.101 0.245-0.101 0.521 0 0.766 0.048 0.116 0.119 0.225 0.213 0.32 0.001 0.001 0.002 0.003 0.004 0.004l5 5c0.391 0.391 1.024 0.391 1.414 0s0.391-1.024 0-1.414l-3.293-3.293h9.586c0.675 0 1.322-0.134 1.912-0.379 0.613-0.254 1.163-0.625 1.623-1.085s0.832-1.011 1.085-1.623c0.246-0.591 0.38-1.238 0.38-1.913v-7c0-0.552-0.448-1-1-1s-1 0.448-1 1z"></path>
</svg>
