<!-- Generated by IcoMoon.io -->
<svg version="1.1" xmlns="http://www.w3.org/2000/svg" width="24" height="24" viewBox="0 0 24 24">
<title>corner-right-down</title>
<path d="M4 5h7c0.408 0 0.795 0.081 1.147 0.227 0.366 0.152 0.697 0.375 0.974 0.652s0.5 0.608 0.652 0.974c0.146 0.352 0.227 0.739 0.227 1.147v9.586l-3.293-3.293c-0.391-0.391-1.024-0.391-1.414 0s-0.391 1.024 0 1.414l5 5c0.096 0.096 0.207 0.168 0.325 0.217 0.12 0.049 0.247 0.075 0.374 0.076 0.133 0.001 0.266-0.024 0.39-0.076 0.118-0.049 0.229-0.121 0.325-0.217l5-5c0.391-0.391 0.391-1.024 0-1.414s-1.024-0.391-1.414 0l-3.293 3.293v-9.586c0-0.675-0.134-1.322-0.379-1.912-0.254-0.613-0.625-1.163-1.085-1.623s-1.011-0.832-1.623-1.085c-0.591-0.246-1.238-0.38-1.913-0.38h-7c-0.552 0-1 0.448-1 1s0.448 1 1 1z"></path>
</svg>
