<!-- Generated by IcoMoon.io -->
<svg version="1.1" xmlns="http://www.w3.org/2000/svg" width="24" height="24" viewBox="0 0 24 24">
<title>corner-up-right</title>
<path d="M5 20v-7c0-0.408 0.081-0.795 0.227-1.147 0.152-0.366 0.375-0.697 0.652-0.974s0.608-0.5 0.974-0.652c0.352-0.146 0.739-0.227 1.147-0.227h9.586l-3.293 3.293c-0.391 0.391-0.391 1.024 0 1.414s1.024 0.391 1.414 0l5-5c0.096-0.096 0.168-0.207 0.217-0.325 0.049-0.12 0.075-0.247 0.076-0.374 0.001-0.133-0.024-0.266-0.076-0.39-0.049-0.118-0.121-0.229-0.217-0.325l-5-5c-0.391-0.391-1.024-0.391-1.414 0s-0.391 1.024 0 1.414l3.293 3.293h-9.586c-0.675 0-1.322 0.134-1.912 0.379-0.613 0.254-1.163 0.625-1.624 1.085s-0.832 1.011-1.085 1.623c-0.245 0.591-0.379 1.238-0.379 1.913v7c0 0.552 0.448 1 1 1s1-0.448 1-1z"></path>
</svg>
