<!-- Generated by IcoMoon.io -->
<svg version="1.1" xmlns="http://www.w3.org/2000/svg" width="24" height="24" viewBox="0 0 24 24">
<title>crop</title>
<path d="M7.077 7.077l8.932-0.077c0.129 0 0.257 0.027 0.373 0.075 0.122 0.050 0.232 0.125 0.325 0.218s0.167 0.203 0.218 0.325c0.048 0.116 0.075 0.245 0.075 0.382v9h-9c-0.137 0-0.266-0.027-0.382-0.075-0.122-0.050-0.232-0.125-0.325-0.218s-0.167-0.203-0.218-0.325c-0.048-0.116-0.075-0.245-0.075-0.373zM1.009 7.13l4.068-0.035-0.077 8.896c0 0.413 0.081 0.801 0.228 1.156 0.152 0.368 0.375 0.698 0.651 0.974s0.606 0.499 0.974 0.651c0.354 0.147 0.742 0.228 1.147 0.228h9v4c0 0.552 0.448 1 1 1s1-0.448 1-1v-4h4c0.552 0 1-0.448 1-1s-0.448-1-1-1h-4v-9c0-0.405-0.081-0.793-0.228-1.148-0.152-0.368-0.375-0.698-0.651-0.974s-0.606-0.499-0.974-0.651c-0.354-0.146-0.742-0.227-1.156-0.227l-8.896 0.077 0.035-4.068c0.005-0.553-0.439-1.004-0.991-1.009s-1.004 0.439-1.009 0.991l-0.036 4.103-4.103 0.036c-0.552 0.005-0.996 0.456-0.991 1.009s0.456 0.996 1.009 0.991z"></path>
</svg>
