<!-- Generated by IcoMoon.io -->
<svg version="1.1" xmlns="http://www.w3.org/2000/svg" width="24" height="24" viewBox="0 0 24 24">
<title>database</title>
<path d="M20 5.002c-0.001 0.005-0.016 0.104-0.213 0.284-0.092 0.085-0.215 0.179-0.373 0.277-0.244 0.152-0.555 0.306-0.933 0.453-0.613 0.239-1.373 0.45-2.249 0.615-1.238 0.234-2.683 0.369-4.232 0.369s-2.994-0.135-4.232-0.368c-0.877-0.165-1.636-0.377-2.25-0.616-0.378-0.147-0.688-0.301-0.932-0.453-0.158-0.098-0.281-0.192-0.373-0.277-0.196-0.18-0.212-0.278-0.213-0.284 0-0.002 0.006-0.097 0.213-0.288 0.092-0.085 0.215-0.179 0.373-0.277 0.244-0.152 0.554-0.306 0.932-0.453 0.614-0.239 1.373-0.451 2.25-0.616 1.238-0.233 2.683-0.368 4.232-0.368s2.994 0.135 4.232 0.368c0.877 0.165 1.636 0.376 2.249 0.615 0.378 0.147 0.689 0.301 0.933 0.453 0.158 0.099 0.281 0.192 0.373 0.277 0.199 0.184 0.213 0.282 0.213 0.289zM20 14.532v4.471c0 0-0.002 0.017-0.017 0.049-0.024 0.048-0.079 0.132-0.199 0.242-0.093 0.085-0.216 0.179-0.374 0.277-0.243 0.151-0.553 0.304-0.929 0.451-0.609 0.237-1.363 0.447-2.235 0.61-1.239 0.233-2.687 0.368-4.246 0.368s-3.007-0.135-4.245-0.368c-0.872-0.164-1.626-0.373-2.235-0.61-0.377-0.147-0.686-0.299-0.929-0.451-0.158-0.099-0.281-0.192-0.374-0.277-0.12-0.11-0.176-0.194-0.199-0.242-0.016-0.032-0.018-0.052-0.018-0.052v-4.468c0.249 0.127 0.515 0.245 0.794 0.354 0.75 0.292 1.628 0.531 2.591 0.712 1.372 0.258 2.945 0.402 4.615 0.402s3.243-0.144 4.615-0.402c0.963-0.181 1.841-0.42 2.591-0.712 0.28-0.109 0.546-0.227 0.794-0.354zM20 7.527v4.463c0 0.004 0 0.008 0 0.013-0.189 0.266-0.203 0.278-0.217 0.291-0.093 0.085-0.216 0.179-0.374 0.277-0.243 0.151-0.553 0.304-0.929 0.451-0.609 0.237-1.363 0.447-2.235 0.61-1.238 0.233-2.686 0.368-4.245 0.368s-3.007-0.135-4.245-0.368c-0.872-0.164-1.626-0.373-2.235-0.61-0.377-0.147-0.686-0.299-0.929-0.451-0.158-0.099-0.281-0.192-0.374-0.277-0.12-0.11-0.176-0.194-0.199-0.242-0.016-0.032-0.018-0.049-0.018-0.049 0-0.006 0-0.012 0-0.017v-4.459c0.248 0.126 0.513 0.244 0.792 0.353 0.754 0.294 1.637 0.535 2.606 0.717 1.372 0.258 2.941 0.403 4.602 0.403s3.23-0.145 4.602-0.403c0.968-0.182 1.852-0.423 2.606-0.718 0.279-0.109 0.544-0.226 0.792-0.353zM2 5v14c0 0.058 0.002 0.116 0.007 0.174 0.023 0.273 0.101 0.528 0.215 0.761 0.159 0.323 0.387 0.599 0.642 0.833 0.201 0.184 0.427 0.351 0.669 0.502 0.371 0.231 0.797 0.436 1.261 0.617 0.75 0.292 1.628 0.531 2.591 0.712 1.372 0.257 2.945 0.401 4.615 0.401s3.243-0.144 4.615-0.402c0.963-0.181 1.841-0.42 2.591-0.712 0.463-0.18 0.889-0.385 1.261-0.617 0.242-0.151 0.469-0.318 0.669-0.502 0.255-0.234 0.483-0.51 0.642-0.833 0.114-0.233 0.192-0.488 0.215-0.761 0.005-0.057 0.007-0.115 0.007-0.173v-14c0-0.056-0.002-0.112-0.007-0.168-0.023-0.272-0.099-0.526-0.213-0.758-0.158-0.322-0.385-0.598-0.639-0.832-0.2-0.184-0.426-0.351-0.669-0.502-0.372-0.232-0.8-0.438-1.265-0.62-0.754-0.294-1.638-0.535-2.606-0.718-1.371-0.257-2.94-0.402-4.601-0.402s-3.23 0.145-4.602 0.403c-0.969 0.182-1.852 0.423-2.606 0.717-0.465 0.182-0.893 0.388-1.265 0.62-0.242 0.151-0.468 0.318-0.668 0.502-0.254 0.234-0.482 0.509-0.639 0.832-0.114 0.232-0.19 0.486-0.213 0.758-0.005 0.056-0.007 0.112-0.007 0.168z"></path>
</svg>
