<!-- Generated by IcoMoon.io -->
<svg version="1.1" xmlns="http://www.w3.org/2000/svg" width="24" height="24" viewBox="0 0 24 24">
<title>dollar-sign</title>
<path d="M11 11h-1.5c-0.34 0-0.663-0.068-0.956-0.189-0.305-0.126-0.581-0.312-0.812-0.543s-0.417-0.507-0.543-0.812c-0.121-0.293-0.189-0.616-0.189-0.956s0.068-0.663 0.189-0.956c0.126-0.305 0.312-0.581 0.543-0.812s0.507-0.417 0.812-0.543c0.293-0.121 0.616-0.189 0.956-0.189h1.5zM13 13h1.5c0.34 0 0.663 0.068 0.956 0.189 0.305 0.126 0.581 0.312 0.812 0.543s0.417 0.507 0.543 0.812c0.121 0.293 0.189 0.616 0.189 0.956s-0.068 0.663-0.189 0.956c-0.126 0.305-0.312 0.581-0.543 0.812s-0.507 0.417-0.812 0.543c-0.293 0.121-0.616 0.189-0.956 0.189h-1.5zM17 4h-4v-3c0-0.552-0.448-1-1-1s-1 0.448-1 1v3h-1.5c-0.608 0-1.19 0.121-1.721 0.341-0.552 0.229-1.047 0.563-1.461 0.977s-0.748 0.909-0.977 1.461c-0.22 0.531-0.341 1.113-0.341 1.721s0.121 1.19 0.341 1.721c0.228 0.551 0.563 1.047 0.977 1.461s0.909 0.748 1.461 0.977c0.531 0.22 1.113 0.341 1.721 0.341h1.5v5h-5c-0.552 0-1 0.448-1 1s0.448 1 1 1h5v3c0 0.552 0.448 1 1 1s1-0.448 1-1v-3h1.5c0.608 0 1.19-0.121 1.721-0.341 0.551-0.228 1.047-0.563 1.461-0.977s0.748-0.909 0.977-1.461c0.22-0.531 0.341-1.113 0.341-1.721s-0.121-1.19-0.341-1.721c-0.228-0.551-0.563-1.047-0.977-1.461s-0.909-0.748-1.461-0.977c-0.531-0.22-1.113-0.341-1.721-0.341h-1.5v-5h4c0.552 0 1-0.448 1-1s-0.448-1-1-1z"></path>
</svg>
