<!-- Generated by IcoMoon.io -->
<svg version="1.1" xmlns="http://www.w3.org/2000/svg" width="24" height="24" viewBox="0 0 24 24">
<title>download-cloud</title>
<path d="M11 12v6.586l-2.293-2.293c-0.391-0.391-1.024-0.391-1.414 0s-0.391 1.024 0 1.414l4 4c0.096 0.096 0.207 0.168 0.325 0.217 0.12 0.049 0.247 0.075 0.374 0.076 0.133 0.001 0.266-0.024 0.39-0.076 0.118-0.049 0.229-0.121 0.325-0.217l4-4c0.391-0.391 0.391-1.024 0-1.414s-1.024-0.391-1.414 0l-2.293 2.293v-6.586c0-0.552-0.448-1-1-1s-1 0.448-1 1zM21.455 18.908c0.663-0.466 1.205-1.045 1.616-1.692 0.426-0.672 0.71-1.416 0.844-2.186s0.119-1.566-0.055-2.343c-0.167-0.748-0.482-1.475-0.948-2.139-0.405-0.576-0.894-1.060-1.441-1.447-0.566-0.4-1.191-0.694-1.846-0.877-0.527-0.146-1.072-0.222-1.621-0.224h-0.523c-0.31-0.884-0.748-1.694-1.288-2.413-0.716-0.954-1.61-1.748-2.619-2.345s-2.135-0.998-3.316-1.167c-1.138-0.161-2.325-0.107-3.504 0.196s-2.245 0.826-3.164 1.516c-0.954 0.716-1.748 1.61-2.345 2.619s-0.998 2.135-1.167 3.316c-0.162 1.138-0.108 2.325 0.195 3.504 0.371 1.446 1.075 2.725 1.983 3.734 0.37 0.41 1.002 0.444 1.412 0.074s0.444-1.002 0.074-1.412c-0.692-0.769-1.242-1.76-1.533-2.893-0.236-0.92-0.278-1.842-0.152-2.724 0.131-0.917 0.443-1.793 0.908-2.58s1.084-1.483 1.825-2.039c0.713-0.535 1.541-0.942 2.461-1.178s1.842-0.278 2.725-0.152c0.917 0.131 1.793 0.443 2.58 0.908s1.482 1.083 2.038 1.824c0.535 0.713 0.942 1.541 1.178 2.461 0.114 0.435 0.504 0.751 0.968 0.751h1.256c0.37 0.001 0.737 0.052 1.090 0.151 0.439 0.123 0.855 0.319 1.23 0.584 0.362 0.256 0.688 0.578 0.96 0.964 0.313 0.445 0.521 0.929 0.632 1.425 0.116 0.516 0.126 1.048 0.036 1.562s-0.279 1.011-0.563 1.458c-0.272 0.429-0.632 0.814-1.077 1.127-0.452 0.318-0.56 0.941-0.243 1.393s0.941 0.56 1.393 0.243z"></path>
</svg>
