<!-- Generated by IcoMoon.io -->
<svg version="1.1" xmlns="http://www.w3.org/2000/svg" width="24" height="24" viewBox="0 0 24 24">
<title>edit-2</title>
<path d="M16.293 2.293l-13.5 13.5c-0.117 0.116-0.21 0.268-0.258 0.444l-1.5 5.5c-0.046 0.163-0.049 0.346 0 0.526 0.145 0.533 0.695 0.847 1.228 0.702l5.5-1.5c0.159-0.042 0.315-0.129 0.444-0.258l13.5-13.5c0.365-0.365 0.643-0.788 0.83-1.241 0.194-0.469 0.291-0.968 0.291-1.466s-0.097-0.997-0.291-1.466c-0.187-0.452-0.465-0.875-0.83-1.241s-0.788-0.643-1.241-0.83c-0.469-0.195-0.968-0.291-1.466-0.291s-0.997 0.097-1.466 0.291c-0.452 0.187-0.875 0.465-1.241 0.83zM17.707 3.707c0.176-0.176 0.378-0.308 0.592-0.397 0.223-0.092 0.462-0.139 0.701-0.139s0.478 0.047 0.701 0.139c0.214 0.089 0.415 0.22 0.592 0.397s0.308 0.378 0.397 0.592c0.092 0.223 0.138 0.462 0.138 0.701s-0.047 0.478-0.139 0.701c-0.089 0.214-0.22 0.415-0.397 0.592l-13.311 13.312-3.556 0.97 0.97-3.555z"></path>
</svg>
