<!-- Generated by IcoMoon.io -->
<svg version="1.1" xmlns="http://www.w3.org/2000/svg" width="24" height="24" viewBox="0 0 24 24">
<title>feather</title>
<path d="M18.111 15.792c0.069-0.053 0.13-0.115 0.183-0.184l2.653-2.661c0.669-0.669 1.176-1.443 1.519-2.269 0.355-0.858 0.533-1.771 0.533-2.683s-0.177-1.825-0.533-2.683c-0.342-0.826-0.849-1.6-1.519-2.269-0.669-0.669-1.443-1.176-2.269-1.519-0.858-0.355-1.771-0.533-2.683-0.533s-1.825 0.177-2.683 0.533c-0.826 0.342-1.6 0.849-2.269 1.519l-6.75 6.75c-0.195 0.195-0.293 0.451-0.293 0.707v8.086l-2.707 2.707c-0.391 0.391-0.391 1.024 0 1.414s1.024 0.391 1.414 0l2.707-2.707h8.086c0.277 0 0.527-0.112 0.708-0.294zM9.414 16h5.665l-1.994 2h-5.671zM17.073 14h-5.659l5.293-5.293c0.391-0.391 0.391-1.024 0-1.414s-1.024-0.391-1.414 0l-9.293 9.293v-5.672l6.457-6.457c0.481-0.481 1.032-0.842 1.62-1.085 0.611-0.253 1.264-0.38 1.917-0.38s1.306 0.127 1.917 0.38c0.588 0.244 1.14 0.605 1.62 1.085s0.842 1.032 1.085 1.62c0.253 0.611 0.38 1.264 0.38 1.917s-0.127 1.306-0.38 1.917c-0.244 0.588-0.605 1.14-1.085 1.62z"></path>
</svg>
