<!-- Generated by IcoMoon.io -->
<svg version="1.1" xmlns="http://www.w3.org/2000/svg" width="24" height="24" viewBox="0 0 24 24">
<title>figma</title>
<path d="M13 3h2.5c0.34 0 0.663 0.068 0.956 0.189 0.305 0.126 0.581 0.312 0.812 0.543s0.417 0.507 0.543 0.812c0.121 0.293 0.189 0.616 0.189 0.956s-0.068 0.663-0.189 0.956c-0.126 0.305-0.312 0.581-0.543 0.812s-0.507 0.417-0.812 0.543c-0.293 0.121-0.616 0.189-0.956 0.189h-2.5zM13 12.5c0-0.34 0.068-0.663 0.189-0.956 0.126-0.305 0.312-0.581 0.543-0.812s0.507-0.417 0.812-0.543c0.293-0.121 0.616-0.189 0.956-0.189s0.663 0.068 0.956 0.189c0.305 0.126 0.581 0.312 0.812 0.543s0.417 0.507 0.543 0.812c0.121 0.293 0.189 0.616 0.189 0.956s-0.068 0.663-0.189 0.956c-0.126 0.305-0.312 0.581-0.543 0.812s-0.507 0.417-0.812 0.543c-0.293 0.121-0.616 0.189-0.956 0.189s-0.663-0.068-0.956-0.189c-0.305-0.126-0.581-0.312-0.812-0.543s-0.417-0.507-0.543-0.812c-0.121-0.293-0.189-0.616-0.189-0.956zM11 8h-2.5c-0.34 0-0.663-0.068-0.956-0.189-0.305-0.126-0.581-0.312-0.812-0.543s-0.417-0.507-0.543-0.812c-0.121-0.293-0.189-0.616-0.189-0.956s0.068-0.663 0.189-0.956c0.126-0.305 0.312-0.581 0.543-0.812s0.507-0.417 0.812-0.543c0.293-0.121 0.616-0.189 0.956-0.189h2.5zM11 17v2.5c0 0.34-0.068 0.663-0.189 0.956-0.126 0.305-0.312 0.581-0.543 0.812s-0.507 0.417-0.812 0.543c-0.293 0.121-0.616 0.189-0.956 0.189s-0.663-0.068-0.956-0.189c-0.305-0.126-0.581-0.312-0.812-0.543s-0.417-0.507-0.543-0.812c-0.121-0.293-0.189-0.616-0.189-0.956s0.068-0.663 0.189-0.956c0.126-0.305 0.312-0.581 0.543-0.812s0.507-0.417 0.812-0.543c0.293-0.121 0.616-0.189 0.956-0.189zM4 12.5c0 0.608 0.121 1.19 0.341 1.721 0.228 0.551 0.563 1.047 0.977 1.461 0.112 0.112 0.23 0.218 0.353 0.318-0.123 0.1-0.241 0.206-0.353 0.318-0.414 0.414-0.748 0.909-0.977 1.461-0.22 0.531-0.341 1.113-0.341 1.721s0.121 1.19 0.341 1.721c0.228 0.551 0.563 1.047 0.977 1.461s0.909 0.748 1.461 0.977c0.531 0.22 1.113 0.341 1.721 0.341s1.19-0.121 1.721-0.341c0.551-0.228 1.047-0.563 1.461-0.977s0.748-0.909 0.977-1.461c0.22-0.531 0.341-1.113 0.341-1.721v-3.258c0.244 0.163 0.504 0.303 0.779 0.417 0.531 0.22 1.113 0.341 1.721 0.341s1.19-0.121 1.721-0.341c0.551-0.228 1.047-0.563 1.461-0.977s0.748-0.909 0.977-1.461c0.22-0.531 0.341-1.113 0.341-1.721s-0.121-1.19-0.341-1.721c-0.228-0.551-0.563-1.047-0.977-1.461-0.112-0.112-0.23-0.218-0.353-0.318 0.123-0.1 0.241-0.206 0.353-0.318 0.414-0.414 0.748-0.909 0.977-1.461 0.22-0.531 0.341-1.113 0.341-1.721s-0.121-1.19-0.341-1.721c-0.228-0.551-0.563-1.047-0.977-1.461s-0.909-0.748-1.461-0.977c-0.531-0.22-1.113-0.341-1.721-0.341h-7c-0.608 0-1.19 0.121-1.721 0.341-0.552 0.229-1.047 0.563-1.461 0.977s-0.748 0.909-0.977 1.461c-0.22 0.531-0.341 1.113-0.341 1.721s0.121 1.19 0.341 1.721c0.229 0.552 0.563 1.047 0.977 1.461 0.112 0.112 0.23 0.218 0.353 0.318-0.123 0.1-0.241 0.206-0.353 0.318-0.414 0.414-0.748 0.909-0.977 1.461-0.22 0.531-0.341 1.113-0.341 1.721zM6 12.5c0-0.34 0.068-0.663 0.189-0.956 0.126-0.305 0.312-0.581 0.543-0.812s0.507-0.417 0.812-0.543c0.293-0.121 0.616-0.189 0.956-0.189h2.5v5h-2.5c-0.34 0-0.663-0.068-0.956-0.189-0.305-0.126-0.581-0.312-0.812-0.543s-0.417-0.507-0.543-0.812c-0.121-0.293-0.189-0.616-0.189-0.956z"></path>
</svg>
