<!-- Generated by IcoMoon.io -->
<svg version="1.1" xmlns="http://www.w3.org/2000/svg" width="24" height="24" viewBox="0 0 24 24">
<title>flag</title>
<path d="M5 13.397v-9.859c0.059-0.029 0.126-0.060 0.203-0.092 0.487-0.201 1.369-0.446 2.797-0.446 0.398 0 0.778 0.041 1.151 0.113 0.245 0.047 0.488 0.108 0.732 0.179 0.168 0.049 0.337 0.104 0.506 0.163 0.408 0.141 0.811 0.302 1.24 0.474 0.298 0.119 0.609 0.244 0.926 0.362 0.132 0.049 0.267 0.098 0.403 0.145 0.194 0.067 0.393 0.132 0.597 0.191 0.295 0.086 0.6 0.163 0.917 0.224 0.482 0.093 0.989 0.149 1.528 0.149 1.292 0 2.273-0.173 3-0.397v9.859c-0.059 0.029-0.126 0.060-0.203 0.092-0.487 0.201-1.369 0.446-2.797 0.446-0.398 0-0.778-0.041-1.151-0.113-0.246-0.047-0.489-0.108-0.732-0.179-0.168-0.049-0.337-0.104-0.506-0.163-0.119-0.041-0.238-0.084-0.358-0.129-0.29-0.108-0.579-0.224-0.881-0.345-0.421-0.168-0.868-0.347-1.329-0.507-0.194-0.067-0.393-0.132-0.597-0.191-0.295-0.086-0.6-0.163-0.917-0.224-0.483-0.093-0.99-0.149-1.529-0.149-1.292 0-2.273 0.173-3 0.397zM5 22v-6.462c0.059-0.029 0.126-0.060 0.203-0.092 0.487-0.201 1.369-0.446 2.797-0.446 0.398 0 0.778 0.041 1.151 0.113 0.246 0.047 0.489 0.108 0.732 0.179 0.168 0.049 0.337 0.104 0.506 0.163 0.408 0.141 0.811 0.302 1.24 0.474 0.298 0.119 0.609 0.244 0.926 0.362 0.132 0.049 0.267 0.098 0.403 0.145 0.194 0.067 0.393 0.132 0.597 0.191 0.295 0.086 0.6 0.163 0.917 0.224 0.482 0.093 0.989 0.149 1.528 0.149 1.66 0 2.807-0.285 3.562-0.598 0.713-0.295 1.057-0.607 1.145-0.695 0.195-0.195 0.293-0.451 0.293-0.707v-12c0-0.552-0.448-1-1-1-0.265 0-0.506 0.103-0.685 0.271-0.026 0.021-0.183 0.144-0.519 0.283-0.486 0.201-1.368 0.446-2.796 0.446-0.398 0-0.778-0.041-1.151-0.113-0.246-0.047-0.489-0.108-0.732-0.179-0.168-0.049-0.337-0.104-0.506-0.163-0.119-0.041-0.238-0.084-0.358-0.129-0.29-0.108-0.579-0.224-0.881-0.345-0.421-0.168-0.868-0.347-1.329-0.507-0.194-0.067-0.393-0.132-0.597-0.191-0.295-0.086-0.6-0.163-0.917-0.224-0.483-0.093-0.99-0.149-1.529-0.149-1.66 0-2.807 0.285-3.562 0.598-0.713 0.295-1.057 0.607-1.145 0.695-0.195 0.195-0.293 0.451-0.293 0.707v19c0 0.552 0.448 1 1 1s1-0.448 1-1z"></path>
</svg>
