<!-- Generated by IcoMoon.io -->
<svg version="1.1" xmlns="http://www.w3.org/2000/svg" width="24" height="24" viewBox="0 0 24 24">
<title>frown</title>
<path d="M23 12c0-1.488-0.296-2.91-0.833-4.207-0.558-1.347-1.375-2.558-2.388-3.571s-2.224-1.831-3.571-2.388c-1.298-0.538-2.72-0.834-4.208-0.834s-2.91 0.296-4.207 0.833c-1.347 0.558-2.558 1.375-3.571 2.389s-1.831 2.224-2.389 3.571c-0.537 1.297-0.833 2.719-0.833 4.207s0.296 2.91 0.833 4.207c0.558 1.347 1.375 2.558 2.388 3.571s2.224 1.831 3.571 2.388c1.298 0.538 2.72 0.834 4.208 0.834s2.91-0.296 4.207-0.833c1.347-0.558 2.558-1.375 3.571-2.388s1.831-2.224 2.388-3.571c0.538-1.298 0.834-2.72 0.834-4.208zM21 12c0 1.221-0.243 2.383-0.681 3.442-0.456 1.101-1.124 2.092-1.955 2.922s-1.822 1.499-2.922 1.955c-1.059 0.438-2.221 0.681-3.442 0.681s-2.383-0.243-3.442-0.681c-1.101-0.456-2.092-1.124-2.922-1.955-0.831-0.831-1.499-1.822-1.955-2.922-0.438-1.059-0.681-2.221-0.681-3.442s0.243-2.383 0.681-3.442c0.456-1.101 1.124-2.092 1.955-2.922s1.822-1.499 2.922-1.955c1.059-0.438 2.221-0.681 3.442-0.681s2.383 0.243 3.442 0.681c1.101 0.456 2.092 1.124 2.922 1.955 0.831 0.831 1.499 1.822 1.955 2.922 0.438 1.059 0.681 2.221 0.681 3.442zM16.8 15.4c-0.030-0.041-0.344-0.452-0.908-0.923-0.337-0.281-0.772-0.59-1.297-0.853-0.383-0.191-0.816-0.359-1.296-0.473-0.403-0.095-0.837-0.151-1.299-0.151s-0.896 0.056-1.299 0.151c-0.48 0.113-0.914 0.281-1.296 0.473-0.525 0.263-0.96 0.572-1.297 0.853-0.564 0.471-0.878 0.882-0.908 0.923-0.331 0.442-0.242 1.069 0.2 1.4s1.065 0.242 1.397-0.196c0.005-0.006 0.068-0.087 0.184-0.21 0.1-0.105 0.237-0.239 0.408-0.382 0.243-0.203 0.549-0.419 0.91-0.6 0.262-0.131 0.55-0.241 0.862-0.315 0.261-0.061 0.541-0.097 0.839-0.097s0.578 0.036 0.839 0.098c0.312 0.074 0.6 0.184 0.862 0.315 0.36 0.18 0.667 0.397 0.91 0.6 0.383 0.319 0.591 0.589 0.592 0.591 0.332 0.439 0.957 0.527 1.397 0.196 0.442-0.331 0.531-0.958 0.2-1.4z"></path>
</svg>
