<!-- Generated by IcoMoon.io -->
<svg version="1.1" xmlns="http://www.w3.org/2000/svg" width="24" height="24" viewBox="0 0 24 24">
<title>git-commit</title>
<path d="M15 12c0 0.408-0.081 0.795-0.227 1.147-0.152 0.366-0.375 0.697-0.652 0.974s-0.608 0.5-0.974 0.652c-0.352 0.146-0.739 0.227-1.147 0.227s-0.795-0.081-1.147-0.227c-0.366-0.152-0.697-0.375-0.974-0.652s-0.5-0.608-0.652-0.974c-0.146-0.352-0.227-0.739-0.227-1.147s0.081-0.795 0.227-1.147c0.152-0.366 0.375-0.697 0.652-0.974s0.608-0.5 0.974-0.652c0.352-0.146 0.739-0.227 1.147-0.227s0.795 0.081 1.147 0.227c0.366 0.152 0.697 0.375 0.974 0.652s0.5 0.608 0.652 0.974c0.146 0.352 0.227 0.739 0.227 1.147zM17.010 13h5.95c0.552 0 1-0.448 1-1s-0.448-1-1-1h-5.95c-0.037 0-0.073 0.002-0.109 0.006-0.064-0.318-0.158-0.625-0.28-0.918-0.254-0.613-0.625-1.163-1.085-1.623s-1.011-0.832-1.623-1.085c-0.591-0.246-1.238-0.38-1.913-0.38s-1.322 0.134-1.912 0.379c-0.613 0.254-1.163 0.625-1.624 1.085s-0.832 1.011-1.085 1.623c-0.121 0.293-0.216 0.6-0.28 0.917-0.032-0.002-0.066-0.004-0.099-0.004h-5.95c-0.552 0-1 0.448-1 1s0.448 1 1 1h5.95c0.033 0 0.067-0.002 0.099-0.005 0.064 0.317 0.158 0.624 0.28 0.917 0.254 0.613 0.625 1.163 1.085 1.623s1.011 0.832 1.623 1.085c0.591 0.246 1.238 0.38 1.913 0.38s1.322-0.134 1.912-0.379c0.613-0.254 1.163-0.625 1.623-1.085s0.832-1.011 1.085-1.623c0.122-0.293 0.216-0.601 0.28-0.918 0.036 0.004 0.072 0.006 0.109 0.006z"></path>
</svg>
