<!-- Generated by IcoMoon.io -->
<svg version="1.1" xmlns="http://www.w3.org/2000/svg" width="24" height="24" viewBox="0 0 24 24">
<title>git-merge</title>
<path d="M20 18c0 0.273-0.054 0.53-0.151 0.765-0.101 0.244-0.25 0.464-0.435 0.65s-0.406 0.334-0.65 0.435c-0.234 0.096-0.491 0.15-0.764 0.15s-0.53-0.054-0.765-0.151c-0.244-0.101-0.464-0.25-0.65-0.435s-0.334-0.406-0.435-0.65c-0.096-0.234-0.15-0.491-0.15-0.764s0.054-0.53 0.151-0.765c0.101-0.244 0.25-0.464 0.435-0.65s0.406-0.334 0.65-0.435c0.234-0.096 0.491-0.15 0.764-0.15s0.53 0.054 0.765 0.151c0.244 0.101 0.464 0.25 0.65 0.435s0.334 0.406 0.435 0.65c0.096 0.234 0.15 0.491 0.15 0.764zM8 6c0 0.273-0.054 0.53-0.151 0.765-0.101 0.244-0.25 0.464-0.435 0.65s-0.406 0.334-0.65 0.435c-0.234 0.096-0.491 0.15-0.764 0.15s-0.53-0.054-0.765-0.151c-0.244-0.101-0.464-0.25-0.65-0.435s-0.334-0.406-0.435-0.65c-0.096-0.234-0.15-0.491-0.15-0.764s0.054-0.53 0.151-0.765c0.101-0.244 0.25-0.464 0.435-0.65s0.406-0.334 0.65-0.435c0.234-0.096 0.491-0.15 0.764-0.15s0.53 0.054 0.765 0.151c0.244 0.101 0.464 0.25 0.65 0.435s0.334 0.406 0.435 0.65c0.096 0.234 0.15 0.491 0.15 0.764zM7 21v-5.999c0.284 0.379 0.595 0.736 0.929 1.070 0.921 0.921 2.022 1.664 3.247 2.171 0.92 0.381 1.909 0.629 2.941 0.719 0.048 0.195 0.111 0.385 0.187 0.568 0.203 0.49 0.5 0.93 0.868 1.298s0.808 0.665 1.298 0.868c0.473 0.197 0.99 0.305 1.53 0.305s1.057-0.108 1.53-0.303c0.49-0.203 0.93-0.5 1.298-0.868s0.665-0.808 0.868-1.298c0.196-0.474 0.304-0.991 0.304-1.531s-0.108-1.057-0.303-1.53c-0.203-0.49-0.5-0.93-0.868-1.298s-0.808-0.665-1.298-0.868c-0.474-0.196-0.991-0.304-1.531-0.304s-1.057 0.108-1.53 0.303c-0.49 0.203-0.93 0.5-1.298 0.868s-0.665 0.808-0.868 1.298c-0.065 0.157-0.12 0.318-0.165 0.484-0.771-0.082-1.509-0.274-2.197-0.56-0.978-0.405-1.859-0.999-2.598-1.738s-1.333-1.62-1.738-2.598c-0.285-0.689-0.477-1.426-0.56-2.197 0.166-0.045 0.327-0.1 0.484-0.165 0.49-0.203 0.93-0.5 1.298-0.868s0.666-0.807 0.869-1.297c0.195-0.473 0.303-0.99 0.303-1.53s-0.108-1.057-0.303-1.53c-0.203-0.49-0.5-0.93-0.868-1.298s-0.809-0.666-1.299-0.869c-0.473-0.195-0.99-0.303-1.53-0.303s-1.057 0.108-1.53 0.303c-0.49 0.203-0.93 0.5-1.298 0.868s-0.666 0.809-0.869 1.299c-0.195 0.473-0.303 0.99-0.303 1.53s0.108 1.057 0.303 1.53c0.203 0.49 0.5 0.93 0.868 1.298s0.809 0.666 1.299 0.869c0.171 0.071 0.348 0.13 0.53 0.177v11.126c0 0.552 0.448 1 1 1s1-0.448 1-1z"></path>
</svg>
