<!-- Generated by IcoMoon.io -->
<svg version="1.1" xmlns="http://www.w3.org/2000/svg" width="24" height="24" viewBox="0 0 24 24">
<title>gitlab</title>
<path d="M23.238 15.199c0.261-0.17 0.492-0.446 0.635-0.763 0.087-0.195 0.141-0.406 0.156-0.624 0.015-0.212-0.007-0.429-0.082-0.681l-1.266-3.749-2.432-7.484c-0.068-0.229-0.195-0.443-0.397-0.637-0.13-0.118-0.279-0.21-0.436-0.272-0.162-0.064-0.333-0.097-0.504-0.1-0.178-0.003-0.358 0.028-0.529 0.093-0.166 0.063-0.321 0.157-0.447 0.272-0.165 0.147-0.296 0.334-0.378 0.547-0.006 0.015-0.012 0.033-0.018 0.052l-2.217 6.817h-6.647l-2.207-6.773c-0.068-0.229-0.195-0.443-0.397-0.637-0.13-0.119-0.278-0.21-0.436-0.272-0.162-0.064-0.333-0.098-0.504-0.1-0.178-0.003-0.358 0.027-0.529 0.092-0.166 0.063-0.321 0.157-0.447 0.273-0.166 0.146-0.296 0.334-0.379 0.546-0.006 0.016-0.012 0.034-0.018 0.052l-2.441 7.512-1.22 3.78c-0.106 0.329-0.117 0.676-0.038 1.004 0.050 0.206 0.135 0.405 0.256 0.586 0.117 0.176 0.265 0.333 0.446 0.466l10.65 7.74c0.346 0.248 0.818 0.26 1.176 0zM22.003 13.624l-10.003 7.27-9.964-7.242 3.072-9.48 1.891 5.808c0.137 0.42 0.525 0.687 0.951 0.69h8.1c0.442 0 0.817-0.287 0.951-0.691l1.886-5.804 1.892 5.824z"></path>
</svg>
