<!-- Generated by IcoMoon.io -->
<svg version="1.1" xmlns="http://www.w3.org/2000/svg" width="24" height="24" viewBox="0 0 24 24">
<title>globe</title>
<path d="M16.951 11c-0.128-1.602-0.494-3.195-1.102-4.72-0.413-1.035-0.936-2.037-1.572-2.99 0.4 0.104 0.788 0.235 1.164 0.391 1.101 0.456 2.092 1.124 2.922 1.955 0.831 0.831 1.499 1.822 1.955 2.922 0.317 0.766 0.532 1.585 0.626 2.442zM14.279 20.709c0.614-0.921 1.137-1.911 1.556-2.955 0.594-1.48 0.978-3.070 1.113-4.754h3.997c-0.095 0.857-0.309 1.676-0.626 2.442-0.456 1.101-1.124 2.092-1.955 2.922s-1.822 1.499-2.922 1.955c-0.375 0.155-0.763 0.286-1.162 0.39zM7.049 13c0.128 1.602 0.494 3.195 1.102 4.72 0.413 1.035 0.936 2.037 1.572 2.99-0.4-0.104-0.788-0.235-1.164-0.391-1.101-0.456-2.092-1.124-2.922-1.955-0.831-0.831-1.499-1.822-1.955-2.922-0.318-0.766-0.533-1.585-0.627-2.442zM9.721 3.291c-0.614 0.921-1.137 1.91-1.556 2.955-0.594 1.48-0.978 3.070-1.114 4.754h-3.996c0.095-0.857 0.309-1.676 0.626-2.442 0.456-1.101 1.124-2.092 1.955-2.922s1.822-1.499 2.922-1.955c0.375-0.155 0.763-0.286 1.162-0.39zM11.997 1c-1.487 0-2.908 0.296-4.204 0.833-1.347 0.558-2.558 1.375-3.571 2.389s-1.831 2.224-2.389 3.571c-0.537 1.297-0.833 2.719-0.833 4.207s0.296 2.91 0.833 4.207c0.558 1.347 1.375 2.558 2.388 3.571s2.224 1.831 3.571 2.388c1.296 0.537 2.716 0.833 4.203 0.833 0.001 0 0.003 0 0.004 0s0.002 0 0.003 0c1.487 0 2.907-0.296 4.204-0.833 1.347-0.558 2.558-1.375 3.571-2.388s1.831-2.224 2.388-3.571c0.539-1.297 0.835-2.719 0.835-4.207s-0.296-2.91-0.833-4.207c-0.558-1.347-1.375-2.558-2.388-3.571s-2.224-1.831-3.571-2.388c-1.297-0.537-2.717-0.833-4.204-0.834-0.001 0-0.003 0-0.004 0s-0.002 0-0.003 0zM14.945 13c-0.127 1.395-0.46 2.748-0.966 4.009-0.5 1.246-1.169 2.404-1.978 3.442-0.842-1.082-1.506-2.253-1.992-3.473-0.513-1.286-0.83-2.628-0.953-3.979zM11.999 3.549c0.842 1.082 1.506 2.253 1.992 3.473 0.513 1.286 0.83 2.628 0.953 3.979h-5.889c0.127-1.395 0.46-2.748 0.966-4.009 0.5-1.246 1.169-2.404 1.978-3.442z"></path>
</svg>
