<!-- Generated by IcoMoon.io -->
<svg version="1.1" xmlns="http://www.w3.org/2000/svg" width="24" height="24" viewBox="0 0 24 24">
<title>hard-drive</title>
<path d="M21 13v5c0 0.137-0.027 0.266-0.075 0.382-0.050 0.122-0.125 0.232-0.218 0.325s-0.203 0.167-0.325 0.218c-0.116 0.048-0.245 0.075-0.382 0.075h-16c-0.137 0-0.266-0.027-0.382-0.075-0.122-0.050-0.232-0.125-0.325-0.218s-0.167-0.203-0.218-0.325c-0.048-0.116-0.075-0.245-0.075-0.382v-5zM6.344 5.558c0.066-0.131 0.16-0.246 0.272-0.337 0.088-0.071 0.187-0.127 0.293-0.165 0.102-0.036 0.213-0.056 0.331-0.056h9.513c0.15 0.001 0.295 0.034 0.426 0.094 0.103 0.047 0.197 0.111 0.278 0.189 0.078 0.076 0.145 0.166 0.199 0.275l2.725 5.442h-16.762zM4.556 4.662l-3.45 6.89c-0.028 0.055-0.050 0.112-0.066 0.169-0.028 0.094-0.041 0.188-0.040 0.279v6c0 0.405 0.081 0.793 0.228 1.148 0.152 0.368 0.375 0.698 0.651 0.974s0.606 0.499 0.974 0.651c0.354 0.146 0.742 0.227 1.147 0.227h16c0.405 0 0.793-0.081 1.148-0.228 0.368-0.152 0.698-0.375 0.974-0.651s0.499-0.606 0.651-0.974c0.146-0.354 0.227-0.742 0.227-1.147v-6c0 0 0 0 0 0 0-0.151-0.033-0.293-0.091-0.417-0.005-0.010-0.010-0.021-0.015-0.031l-0.009-0.018-3.441-6.872c-0.154-0.309-0.357-0.584-0.596-0.816-0.247-0.239-0.531-0.431-0.836-0.571-0.389-0.177-0.813-0.272-1.245-0.275h-9.527c-0.349 0-0.685 0.060-0.999 0.171-0.325 0.115-0.622 0.284-0.884 0.496-0.331 0.268-0.605 0.606-0.801 0.995zM7 16c0-0.552-0.448-1-1-1s-1 0.448-1 1 0.448 1 1 1 1-0.448 1-1zM11 16c0-0.552-0.448-1-1-1s-1 0.448-1 1 0.448 1 1 1 1-0.448 1-1z"></path>
</svg>
