<!-- Generated by IcoMoon.io -->
<svg version="1.1" xmlns="http://www.w3.org/2000/svg" width="24" height="24" viewBox="0 0 24 24">
<title>headphones</title>
<path d="M20 19c0 0.137-0.027 0.266-0.075 0.382-0.050 0.122-0.125 0.232-0.218 0.325s-0.203 0.167-0.325 0.218c-0.116 0.048-0.245 0.075-0.382 0.075h-1c-0.137 0-0.266-0.027-0.382-0.075-0.122-0.050-0.232-0.125-0.325-0.218s-0.167-0.203-0.218-0.325c-0.048-0.116-0.075-0.245-0.075-0.382v-3c0-0.137 0.027-0.266 0.075-0.382 0.050-0.122 0.125-0.232 0.218-0.325s0.203-0.167 0.325-0.218c0.116-0.048 0.245-0.075 0.382-0.075h2v3zM4 19v-4h2c0.137 0 0.266 0.027 0.382 0.075 0.122 0.050 0.232 0.125 0.325 0.218s0.167 0.203 0.218 0.325c0.048 0.116 0.075 0.245 0.075 0.382v3c0 0.137-0.027 0.266-0.075 0.382-0.050 0.122-0.125 0.232-0.218 0.325s-0.203 0.167-0.325 0.218c-0.116 0.048-0.245 0.075-0.382 0.075h-1c-0.137 0-0.266-0.027-0.382-0.075-0.122-0.050-0.232-0.125-0.325-0.218s-0.167-0.203-0.218-0.325c-0.048-0.116-0.075-0.245-0.075-0.382zM2 19c0 0.405 0.081 0.793 0.228 1.148 0.152 0.368 0.375 0.698 0.651 0.974s0.606 0.499 0.974 0.651c0.354 0.146 0.742 0.227 1.147 0.227h1c0.405 0 0.793-0.081 1.148-0.228 0.368-0.152 0.698-0.375 0.974-0.651s0.499-0.606 0.651-0.974c0.146-0.354 0.227-0.742 0.227-1.147v-3c0-0.405-0.081-0.793-0.228-1.148-0.152-0.368-0.375-0.698-0.651-0.974s-0.606-0.499-0.974-0.651c-0.354-0.146-0.742-0.227-1.147-0.227h-2v-1c0-1.085 0.216-2.118 0.605-3.059 0.405-0.978 0.999-1.859 1.738-2.598s1.62-1.333 2.598-1.738c0.941-0.389 1.974-0.605 3.059-0.605s2.118 0.216 3.059 0.605c0.978 0.405 1.859 0.999 2.598 1.738s1.333 1.62 1.738 2.598c0.389 0.941 0.605 1.974 0.605 3.059v1h-2c-0.405 0-0.793 0.081-1.148 0.228-0.368 0.152-0.698 0.375-0.974 0.651s-0.499 0.606-0.651 0.974c-0.146 0.354-0.227 0.742-0.227 1.147v3c0 0.405 0.081 0.793 0.228 1.148 0.152 0.368 0.375 0.698 0.651 0.974s0.606 0.499 0.974 0.651c0.354 0.146 0.742 0.227 1.147 0.227h1c0.405 0 0.793-0.081 1.148-0.228 0.368-0.152 0.698-0.375 0.974-0.651s0.499-0.606 0.651-0.974c0.146-0.354 0.227-0.742 0.227-1.147v-7c0-1.353-0.269-2.645-0.758-3.824-0.507-1.224-1.25-2.325-2.171-3.247-0.921-0.921-2.022-1.664-3.247-2.171-1.179-0.489-2.471-0.758-3.824-0.758s-2.645 0.269-3.824 0.758c-1.225 0.507-2.326 1.25-3.247 2.171s-1.664 2.022-2.171 3.247c-0.489 1.179-0.758 2.471-0.758 3.824v6z"></path>
</svg>
