<!-- Generated by IcoMoon.io -->
<svg version="1.1" xmlns="http://www.w3.org/2000/svg" width="24" height="24" viewBox="0 0 24 24">
<title>image</title>
<path d="M11 8.5c0-0.337-0.067-0.66-0.19-0.956-0.127-0.307-0.313-0.582-0.543-0.811s-0.504-0.416-0.811-0.543c-0.296-0.123-0.619-0.19-0.956-0.19s-0.66 0.067-0.956 0.19c-0.307 0.127-0.582 0.312-0.812 0.542s-0.415 0.505-0.542 0.812c-0.123 0.296-0.19 0.619-0.19 0.956s0.067 0.66 0.19 0.956c0.127 0.307 0.313 0.582 0.543 0.811s0.505 0.415 0.811 0.543c0.296 0.123 0.619 0.19 0.956 0.19s0.66-0.067 0.956-0.19c0.307-0.127 0.582-0.313 0.811-0.543s0.415-0.505 0.543-0.811c0.123-0.296 0.19-0.619 0.19-0.956zM9 8.5c0 0.070-0.014 0.133-0.037 0.191-0.025 0.060-0.063 0.116-0.109 0.163s-0.103 0.084-0.163 0.109c-0.058 0.023-0.121 0.037-0.191 0.037s-0.133-0.014-0.191-0.037c-0.060-0.025-0.116-0.063-0.163-0.109s-0.084-0.103-0.109-0.163c-0.023-0.058-0.037-0.121-0.037-0.191s0.014-0.133 0.037-0.191c0.025-0.060 0.063-0.116 0.109-0.163s0.102-0.084 0.163-0.109c0.058-0.023 0.121-0.037 0.191-0.037s0.133 0.014 0.191 0.037c0.060 0.025 0.116 0.063 0.163 0.109s0.084 0.102 0.109 0.163c0.023 0.058 0.037 0.121 0.037 0.191zM7.414 20l8.586-8.586 4 4v3.586c0 0.137-0.027 0.266-0.075 0.382-0.050 0.122-0.125 0.232-0.218 0.325s-0.203 0.167-0.325 0.218c-0.116 0.048-0.245 0.075-0.382 0.075zM5.001 22h13.999c0.405 0 0.793-0.081 1.148-0.228 0.368-0.152 0.698-0.375 0.974-0.651s0.499-0.606 0.651-0.974c0.146-0.354 0.227-0.742 0.227-1.147v-14c0-0.405-0.081-0.793-0.228-1.148-0.152-0.368-0.375-0.698-0.651-0.974s-0.606-0.499-0.974-0.651c-0.354-0.146-0.742-0.227-1.147-0.227h-14c-0.405 0-0.793 0.081-1.148 0.228-0.367 0.152-0.697 0.375-0.973 0.651s-0.499 0.606-0.651 0.973c-0.147 0.355-0.228 0.743-0.228 1.148v14c0 0.405 0.081 0.793 0.228 1.148 0.152 0.368 0.375 0.698 0.651 0.974s0.606 0.499 0.974 0.651c0.354 0.146 0.742 0.227 1.146 0.227 0 0 0.001 0 0.001 0zM20 12.586l-3.293-3.293c-0.391-0.391-1.024-0.391-1.414 0l-10.644 10.644c-0.010-0.004-0.021-0.008-0.031-0.012-0.122-0.050-0.232-0.125-0.325-0.218s-0.167-0.203-0.218-0.325c-0.048-0.116-0.075-0.245-0.075-0.382v-14c0-0.137 0.027-0.266 0.075-0.382 0.050-0.122 0.125-0.232 0.218-0.325s0.203-0.167 0.325-0.218c0.116-0.048 0.245-0.075 0.382-0.075h14c0.137 0 0.266 0.027 0.382 0.075 0.122 0.050 0.232 0.125 0.325 0.218s0.167 0.203 0.218 0.325c0.048 0.116 0.075 0.245 0.075 0.382z"></path>
</svg>
