<!-- Generated by IcoMoon.io -->
<svg version="1.1" xmlns="http://www.w3.org/2000/svg" width="24" height="24" viewBox="0 0 24 24">
<title>instagram</title>
<path d="M7 1c-0.811 0-1.587 0.161-2.295 0.455-0.735 0.304-1.395 0.75-1.948 1.302s-0.998 1.213-1.302 1.948c-0.294 0.708-0.455 1.484-0.455 2.295v10c0 0.811 0.161 1.587 0.455 2.295 0.304 0.735 0.75 1.395 1.303 1.948s1.213 0.998 1.948 1.303c0.707 0.293 1.483 0.454 2.294 0.454h10c0.811 0 1.587-0.161 2.295-0.455 0.735-0.304 1.395-0.75 1.948-1.303s0.998-1.213 1.303-1.948c0.293-0.707 0.454-1.483 0.454-2.294v-10c0-0.811-0.161-1.587-0.455-2.295-0.304-0.735-0.75-1.395-1.303-1.948s-1.213-0.998-1.948-1.303c-0.707-0.293-1.483-0.454-2.294-0.454zM7 3h10c0.544 0 1.060 0.108 1.529 0.303 0.489 0.202 0.929 0.5 1.299 0.869s0.667 0.81 0.869 1.299c0.195 0.469 0.303 0.985 0.303 1.529v10c0 0.544-0.108 1.060-0.303 1.529-0.202 0.489-0.5 0.929-0.869 1.299s-0.81 0.667-1.299 0.869c-0.469 0.195-0.985 0.303-1.529 0.303h-10c-0.544 0-1.060-0.108-1.529-0.303-0.489-0.202-0.929-0.5-1.299-0.869s-0.667-0.81-0.869-1.299c-0.195-0.469-0.303-0.985-0.303-1.529v-10c0-0.544 0.108-1.060 0.303-1.529 0.202-0.489 0.5-0.929 0.869-1.299s0.81-0.667 1.299-0.869c0.469-0.195 0.985-0.303 1.529-0.303zM16.989 11.223c-0.15-0.972-0.571-1.857-1.194-2.567-0.383-0.437-0.842-0.808-1.362-1.092-0.503-0.275-1.061-0.465-1.647-0.552-0.464-0.074-0.97-0.077-1.477-0.002-0.668 0.099-1.288 0.327-1.836 0.655-0.569 0.341-1.059 0.789-1.446 1.312s-0.674 1.123-0.835 1.766c-0.155 0.62-0.193 1.279-0.094 1.947s0.327 1.288 0.655 1.836c0.341 0.569 0.789 1.059 1.312 1.446s1.122 0.674 1.765 0.836c0.62 0.155 1.279 0.193 1.947 0.094s1.288-0.327 1.836-0.655c0.569-0.341 1.059-0.789 1.446-1.312s0.674-1.122 0.836-1.765c0.155-0.62 0.193-1.279 0.094-1.947zM15.011 11.517c0.060 0.404 0.037 0.798-0.056 1.168-0.096 0.385-0.268 0.744-0.502 1.059s-0.528 0.584-0.868 0.788c-0.327 0.196-0.698 0.333-1.101 0.393s-0.798 0.037-1.168-0.056c-0.385-0.096-0.744-0.268-1.059-0.502s-0.584-0.528-0.788-0.868c-0.196-0.327-0.333-0.698-0.393-1.101s-0.037-0.798 0.056-1.168c0.096-0.385 0.268-0.744 0.502-1.059s0.528-0.584 0.868-0.788c0.327-0.196 0.698-0.333 1.101-0.393 0.313-0.046 0.615-0.042 0.87-0.002 0.37 0.055 0.704 0.17 1.003 0.333 0.31 0.169 0.585 0.391 0.815 0.654 0.375 0.428 0.63 0.963 0.72 1.543zM18.5 6.5c0-0.552-0.448-1-1-1s-1 0.448-1 1 0.448 1 1 1 1-0.448 1-1z"></path>
</svg>
