<!-- Generated by IcoMoon.io -->
<svg version="1.1" xmlns="http://www.w3.org/2000/svg" width="24" height="24" viewBox="0 0 24 24">
<title>key</title>
<path d="M19 5.414l1.586 1.586-2.086 2.086-1.586-1.586zM10.688 12.322c0.435 0.429 0.763 0.923 0.985 1.45 0.231 0.548 0.35 1.135 0.354 1.722s-0.106 1.175-0.33 1.727c-0.215 0.53-0.537 1.029-0.966 1.464s-0.924 0.763-1.451 0.986c-0.548 0.231-1.135 0.35-1.722 0.354-0.588 0.004-1.175-0.106-1.727-0.33-0.53-0.215-1.029-0.537-1.464-0.966l-0.042-0.042c-0.418-0.433-0.734-0.935-0.944-1.467-0.218-0.554-0.322-1.143-0.312-1.73s0.135-1.173 0.372-1.718c0.228-0.525 0.561-1.015 1.001-1.44 0.433-0.418 0.926-0.731 1.449-0.94 0.543-0.218 1.121-0.325 1.7-0.322 0.571 0.003 1.14 0.114 1.676 0.332 0.517 0.21 1.003 0.52 1.422 0.922zM20.293 1.293l-8.969 8.969c-0.413-0.292-0.85-0.53-1.305-0.715-0.774-0.315-1.596-0.475-2.418-0.479-0.833-0.005-1.668 0.15-2.455 0.466-0.759 0.304-1.472 0.757-2.094 1.358-0.632 0.61-1.115 1.32-1.446 2.081-0.344 0.79-0.523 1.635-0.537 2.481s0.135 1.696 0.451 2.498c0.304 0.773 0.762 1.498 1.38 2.137l0.062 0.062c0.625 0.617 1.346 1.083 2.116 1.395 0.798 0.324 1.647 0.483 2.493 0.478s1.693-0.176 2.487-0.511c0.765-0.323 1.48-0.798 2.097-1.424s1.083-1.346 1.395-2.116c0.324-0.798 0.483-1.647 0.478-2.493s-0.176-1.693-0.511-2.487c-0.197-0.467-0.451-0.916-0.762-1.335l2.745-2.744 2.293 2.293c0.391 0.391 1.024 0.391 1.414 0l3.5-3.5c0.391-0.391 0.391-1.024 0-1.414l-2.293-2.293 1.293-1.293c0.391-0.391 0.391-1.024 0-1.414s-1.024-0.391-1.414 0z"></path>
</svg>
