<!-- Generated by IcoMoon.io -->
<svg version="1.1" xmlns="http://www.w3.org/2000/svg" width="24" height="24" viewBox="0 0 24 24">
<title>life-buoy</title>
<path d="M23 12c0-1.488-0.296-2.91-0.833-4.207-0.558-1.347-1.375-2.558-2.388-3.571s-2.224-1.831-3.571-2.388c-1.298-0.538-2.72-0.834-4.208-0.834s-2.91 0.296-4.207 0.833c-1.347 0.558-2.558 1.375-3.571 2.389s-1.831 2.224-2.389 3.571c-0.537 1.297-0.833 2.719-0.833 4.207s0.296 2.91 0.833 4.207c0.558 1.347 1.375 2.558 2.388 3.571s2.224 1.831 3.571 2.388c1.298 0.538 2.72 0.834 4.208 0.834s2.91-0.296 4.207-0.833c1.347-0.558 2.558-1.375 3.571-2.388s1.831-2.224 2.388-3.571c0.538-1.298 0.834-2.72 0.834-4.208zM15 12c0 0.408-0.081 0.795-0.227 1.147-0.152 0.366-0.375 0.697-0.652 0.974s-0.608 0.5-0.974 0.652c-0.352 0.146-0.739 0.227-1.147 0.227s-0.795-0.081-1.147-0.227c-0.366-0.152-0.697-0.375-0.974-0.652s-0.5-0.608-0.652-0.974c-0.146-0.352-0.227-0.739-0.227-1.147s0.081-0.795 0.227-1.147c0.152-0.366 0.375-0.697 0.652-0.974s0.608-0.5 0.974-0.652c0.352-0.146 0.739-0.227 1.147-0.227s0.795 0.081 1.147 0.227c0.366 0.152 0.697 0.375 0.974 0.652s0.5 0.608 0.652 0.974c0.146 0.352 0.227 0.739 0.227 1.147zM14.757 7.828c-0.265-0.175-0.548-0.326-0.845-0.449-0.59-0.245-1.237-0.379-1.912-0.379s-1.322 0.134-1.912 0.379c-0.298 0.123-0.58 0.274-0.845 0.449l-2.86-2.86c0.657-0.526 1.389-0.961 2.176-1.287 1.058-0.438 2.22-0.681 3.441-0.681s2.383 0.243 3.442 0.681c0.788 0.326 1.519 0.761 2.176 1.287zM16.172 9.243l2.86-2.86c0.526 0.657 0.961 1.389 1.287 2.176 0.438 1.058 0.681 2.22 0.681 3.441s-0.243 2.383-0.681 3.442c-0.326 0.788-0.761 1.519-1.287 2.176l-2.86-2.86c0.175-0.265 0.326-0.548 0.449-0.845 0.245-0.591 0.379-1.238 0.379-1.913s-0.134-1.322-0.379-1.912c-0.123-0.297-0.274-0.58-0.449-0.845zM7.828 14.757l-2.86 2.86c-0.526-0.657-0.961-1.389-1.287-2.176-0.438-1.058-0.681-2.22-0.681-3.441s0.243-2.383 0.681-3.442c0.326-0.788 0.761-1.519 1.287-2.176l2.86 2.86c-0.175 0.266-0.326 0.548-0.449 0.846-0.245 0.59-0.379 1.237-0.379 1.912s0.134 1.322 0.379 1.912c0.123 0.297 0.274 0.58 0.449 0.845zM6.382 19.032l2.86-2.86c0.265 0.175 0.548 0.326 0.845 0.449 0.591 0.245 1.238 0.379 1.913 0.379s1.322-0.134 1.912-0.379c0.297-0.123 0.58-0.274 0.845-0.449l2.86 2.86c-0.657 0.526-1.389 0.961-2.176 1.287-1.058 0.438-2.22 0.681-3.441 0.681s-2.383-0.243-3.442-0.681c-0.788-0.326-1.519-0.761-2.176-1.287z"></path>
</svg>
