<!-- Generated by IcoMoon.io -->
<svg version="1.1" xmlns="http://www.w3.org/2000/svg" width="24" height="24" viewBox="0 0 24 24">
<title>linkedin</title>
<path d="M16 7c-0.946 0-1.851 0.188-2.677 0.53-0.857 0.355-1.628 0.875-2.273 1.52s-1.165 1.415-1.52 2.273c-0.342 0.826-0.53 1.731-0.53 2.677v7c0 0.552 0.448 1 1 1h4c0.552 0 1-0.448 1-1v-7c0-0.137 0.027-0.266 0.075-0.382 0.050-0.122 0.125-0.232 0.218-0.325s0.203-0.167 0.325-0.218c0.116-0.048 0.245-0.075 0.382-0.075s0.266 0.027 0.382 0.075c0.122 0.050 0.232 0.125 0.325 0.218s0.167 0.203 0.218 0.325c0.048 0.116 0.075 0.245 0.075 0.382v7c0 0.552 0.448 1 1 1h4c0.552 0 1-0.448 1-1v-7c0-0.946-0.188-1.851-0.53-2.677-0.355-0.857-0.875-1.628-1.52-2.273s-1.415-1.165-2.273-1.52c-0.826-0.342-1.731-0.53-2.677-0.53zM16 9c0.679 0 1.324 0.135 1.912 0.378 0.611 0.253 1.162 0.624 1.624 1.086s0.833 1.013 1.086 1.624c0.243 0.588 0.378 1.233 0.378 1.912v6h-2v-6c0-0.405-0.081-0.793-0.228-1.148-0.152-0.368-0.375-0.698-0.651-0.974s-0.606-0.499-0.974-0.651c-0.354-0.146-0.742-0.227-1.147-0.227s-0.793 0.081-1.148 0.228c-0.368 0.152-0.698 0.375-0.974 0.651s-0.499 0.606-0.651 0.974c-0.146 0.354-0.227 0.742-0.227 1.147v6h-2v-6c0-0.679 0.135-1.324 0.378-1.912 0.253-0.611 0.624-1.162 1.086-1.624s1.013-0.833 1.624-1.086c0.588-0.243 1.233-0.378 1.912-0.378zM2 8c-0.552 0-1 0.448-1 1v12c0 0.552 0.448 1 1 1h4c0.552 0 1-0.448 1-1v-12c0-0.552-0.448-1-1-1zM3 10h2v10h-2zM7 4c0-0.405-0.081-0.793-0.228-1.148-0.152-0.367-0.375-0.697-0.651-0.973s-0.606-0.499-0.973-0.651c-0.355-0.147-0.743-0.228-1.148-0.228s-0.793 0.081-1.148 0.228c-0.367 0.152-0.697 0.375-0.973 0.651s-0.499 0.606-0.651 0.973c-0.147 0.355-0.228 0.743-0.228 1.148s0.081 0.793 0.228 1.148c0.152 0.367 0.375 0.697 0.651 0.973s0.606 0.499 0.973 0.651c0.355 0.147 0.743 0.228 1.148 0.228s0.793-0.081 1.148-0.228c0.367-0.152 0.697-0.375 0.973-0.651s0.499-0.606 0.651-0.973c0.147-0.355 0.228-0.743 0.228-1.148zM5 4c0 0.137-0.027 0.266-0.075 0.382-0.051 0.122-0.125 0.232-0.218 0.325s-0.203 0.167-0.325 0.218c-0.116 0.048-0.245 0.075-0.382 0.075s-0.266-0.027-0.382-0.075c-0.122-0.051-0.232-0.125-0.325-0.218s-0.167-0.203-0.218-0.325c-0.048-0.116-0.075-0.245-0.075-0.382s0.027-0.266 0.075-0.382c0.051-0.122 0.125-0.232 0.218-0.325s0.203-0.167 0.325-0.218c0.116-0.048 0.245-0.075 0.382-0.075s0.266 0.027 0.382 0.075c0.122 0.051 0.232 0.125 0.325 0.218s0.167 0.203 0.218 0.325c0.048 0.116 0.075 0.245 0.075 0.382z"></path>
</svg>
