<!-- Generated by IcoMoon.io -->
<svg version="1.1" xmlns="http://www.w3.org/2000/svg" width="24" height="24" viewBox="0 0 24 24">
<title>log-out</title>
<path d="M9 20h-4c-0.137 0-0.266-0.027-0.382-0.075-0.122-0.050-0.232-0.125-0.325-0.218s-0.167-0.203-0.218-0.325c-0.048-0.116-0.075-0.245-0.075-0.382v-14c0-0.137 0.027-0.266 0.075-0.382 0.050-0.122 0.125-0.232 0.218-0.325s0.203-0.167 0.325-0.218c0.116-0.048 0.245-0.075 0.382-0.075h4c0.552 0 1-0.448 1-1s-0.448-1-1-1h-4c-0.405 0-0.793 0.081-1.148 0.228-0.367 0.152-0.697 0.375-0.973 0.651s-0.499 0.606-0.651 0.973c-0.147 0.355-0.228 0.743-0.228 1.148v14c0 0.405 0.081 0.793 0.228 1.148 0.152 0.368 0.375 0.698 0.651 0.974s0.606 0.499 0.974 0.651c0.354 0.146 0.742 0.227 1.147 0.227h4c0.552 0 1-0.448 1-1s-0.448-1-1-1zM18.586 11h-9.586c-0.552 0-1 0.448-1 1s0.448 1 1 1h9.586l-3.293 3.293c-0.391 0.391-0.391 1.024 0 1.414s1.024 0.391 1.414 0l5-5c0.096-0.096 0.168-0.207 0.217-0.325 0.049-0.12 0.075-0.247 0.076-0.374 0.001-0.133-0.024-0.266-0.076-0.39-0.049-0.118-0.121-0.229-0.217-0.325l-5-5c-0.391-0.391-1.024-0.391-1.414 0s-0.391 1.024 0 1.414z"></path>
</svg>
