<!-- Generated by IcoMoon.io -->
<svg version="1.1" xmlns="http://www.w3.org/2000/svg" width="24" height="24" viewBox="0 0 24 24">
<title>map-pin</title>
<path d="M22 10c0-1.353-0.269-2.645-0.758-3.824-0.507-1.224-1.25-2.325-2.171-3.247-0.921-0.921-2.022-1.664-3.247-2.171-1.179-0.489-2.471-0.758-3.824-0.758s-2.645 0.269-3.824 0.758c-1.225 0.507-2.326 1.25-3.247 2.171s-1.664 2.022-2.171 3.247c-0.489 1.179-0.758 2.471-0.758 3.824 0 0.569 0.053 1.128 0.15 1.676 0.274 1.548 0.899 3.004 1.682 4.32 0.859 1.443 1.923 2.744 2.969 3.845 0.877 0.923 1.75 1.715 2.496 2.343 0.528 0.444 0.994 0.808 1.356 1.079 0.222 0.167 0.406 0.299 0.54 0.394 0.157 0.111 0.253 0.175 0.253 0.175 0.331 0.217 0.765 0.229 1.109 0 0 0 0.097-0.065 0.253-0.175 0.134-0.095 0.317-0.227 0.54-0.394 0.362-0.271 0.828-0.635 1.356-1.079 0.746-0.628 1.619-1.42 2.496-2.343 1.046-1.101 2.11-2.402 2.969-3.845 0.783-1.316 1.408-2.772 1.682-4.32 0.096-0.548 0.149-1.107 0.149-1.676zM20 10c0 0.444-0.041 0.887-0.119 1.328-0.221 1.25-0.737 2.478-1.432 3.646-0.762 1.28-1.724 2.463-2.7 3.49-0.815 0.858-1.632 1.599-2.334 2.19-0.496 0.417-0.933 0.758-1.268 1.010-0.052 0.039-0.101 0.075-0.147 0.11-0.047-0.034-0.096-0.071-0.147-0.11-0.336-0.252-0.773-0.593-1.268-1.010-0.702-0.591-1.518-1.332-2.334-2.19-0.976-1.027-1.938-2.21-2.7-3.49-0.695-1.168-1.211-2.396-1.432-3.646-0.078-0.441-0.119-0.884-0.119-1.328 0-1.085 0.216-2.118 0.605-3.059 0.406-0.978 1-1.86 1.738-2.598s1.62-1.333 2.598-1.738c0.941-0.389 1.974-0.605 3.059-0.605s2.118 0.216 3.059 0.605c0.978 0.405 1.859 0.999 2.598 1.738s1.333 1.62 1.738 2.598c0.389 0.941 0.605 1.974 0.605 3.059zM16 10c0-0.54-0.108-1.057-0.303-1.53-0.203-0.49-0.5-0.93-0.868-1.298s-0.809-0.666-1.299-0.869c-0.473-0.195-0.99-0.303-1.53-0.303s-1.057 0.108-1.53 0.303c-0.49 0.203-0.93 0.5-1.298 0.868s-0.666 0.809-0.869 1.299c-0.195 0.473-0.303 0.99-0.303 1.53s0.108 1.057 0.303 1.53c0.203 0.49 0.5 0.93 0.868 1.298s0.808 0.665 1.298 0.868c0.474 0.196 0.991 0.304 1.531 0.304s1.057-0.108 1.53-0.303c0.49-0.203 0.93-0.5 1.298-0.868s0.665-0.808 0.868-1.298c0.196-0.474 0.304-0.991 0.304-1.531zM14 10c0 0.273-0.054 0.53-0.151 0.765-0.101 0.244-0.25 0.464-0.435 0.65s-0.406 0.334-0.65 0.435c-0.234 0.096-0.491 0.15-0.764 0.15s-0.53-0.054-0.765-0.151c-0.244-0.101-0.464-0.25-0.65-0.435s-0.334-0.406-0.435-0.65c-0.096-0.234-0.15-0.491-0.15-0.764s0.054-0.53 0.151-0.765c0.101-0.244 0.25-0.464 0.435-0.65s0.406-0.334 0.65-0.435c0.234-0.096 0.491-0.15 0.764-0.15s0.53 0.054 0.765 0.151c0.244 0.101 0.464 0.25 0.65 0.435s0.334 0.406 0.435 0.65c0.096 0.234 0.15 0.491 0.15 0.764z"></path>
</svg>
