<!-- Generated by IcoMoon.io -->
<svg version="1.1" xmlns="http://www.w3.org/2000/svg" width="24" height="24" viewBox="0 0 24 24">
<title>message-circle</title>
<path d="M22 11.497v-0.497c0-0.017-0.001-0.038-0.002-0.058-0.067-1.152-0.339-2.253-0.781-3.264-0.454-1.038-1.087-1.981-1.862-2.787-0.815-0.848-1.788-1.545-2.875-2.044-1.050-0.482-2.206-0.777-3.425-0.845-0.016-0.001-0.036-0.002-0.055-0.002h-0.489c-1.405-0.016-2.882 0.31-4.264 1.008-1.223 0.622-2.291 1.489-3.139 2.536-0.671 0.829-1.204 1.772-1.567 2.795-0.351 0.991-0.541 2.055-0.541 3.15-0.014 1.275 0.253 2.61 0.824 3.877l-1.772 5.317c-0.066 0.196-0.072 0.418 0 0.632 0.175 0.524 0.741 0.807 1.265 0.632l5.314-1.771c1.16 0.527 2.484 0.826 3.876 0.823 1.372-0.009 2.715-0.308 3.941-0.866 0.971-0.442 1.869-1.047 2.65-1.8 0.757-0.73 1.402-1.597 1.89-2.575 0.644-1.249 1.015-2.715 1.011-4.261zM20 11.503c0.003 1.225-0.292 2.375-0.789 3.339-0.398 0.795-0.907 1.478-1.501 2.052-0.615 0.593-1.323 1.070-2.090 1.42-0.97 0.442-2.036 0.679-3.126 0.687-1.221 0.003-2.371-0.292-3.335-0.789-0.249-0.129-0.528-0.142-0.775-0.060l-3.803 1.268 1.268-3.803c0.088-0.263 0.060-0.537-0.056-0.767-0.553-1.095-0.805-2.255-0.793-3.339 0-0.887 0.151-1.726 0.426-2.504 0.286-0.805 0.706-1.549 1.236-2.205 0.671-0.828 1.518-1.517 2.491-2.010 1.092-0.552 2.252-0.804 3.336-0.792h0.483c0.956 0.056 1.857 0.289 2.675 0.664 0.856 0.393 1.623 0.943 2.267 1.612 0.613 0.637 1.113 1.382 1.471 2.202 0.345 0.79 0.559 1.649 0.615 2.552z"></path>
</svg>
