<!-- Generated by IcoMoon.io -->
<svg version="1.1" xmlns="http://www.w3.org/2000/svg" width="24" height="24" viewBox="0 0 24 24">
<title>mic-off</title>
<path d="M12.516 13.93c-0.163 0.043-0.336 0.067-0.514 0.067-0.273 0-0.53-0.054-0.765-0.15-0.244-0.101-0.465-0.249-0.65-0.434s-0.334-0.405-0.435-0.649c-0.097-0.235-0.152-0.492-0.152-0.764v-0.586zM16 9.34v-5.34c0.001-0.539-0.106-1.056-0.302-1.529-0.203-0.49-0.499-0.931-0.867-1.299s-0.808-0.666-1.298-0.87c-0.472-0.196-0.99-0.304-1.53-0.305-0.497 0-0.975 0.090-1.417 0.257-0.457 0.173-0.873 0.427-1.232 0.745-0.321 0.284-0.596 0.619-0.813 0.994-0.213 0.368-0.371 0.773-0.46 1.203-0.113 0.541 0.234 1.070 0.775 1.183s1.070-0.234 1.183-0.775c0.046-0.218 0.125-0.423 0.232-0.608 0.109-0.189 0.248-0.357 0.409-0.5 0.18-0.159 0.388-0.286 0.614-0.372 0.218-0.083 0.456-0.128 0.707-0.128 0.273 0 0.53 0.055 0.764 0.152 0.244 0.101 0.464 0.25 0.649 0.435s0.333 0.406 0.434 0.65c0.098 0.236 0.152 0.493 0.152 0.767v5.34c0 0.552 0.448 1 1 1s1-0.448 1-1zM18 10v2c0 0.376-0.035 0.74-0.093 1.045-0.102 0.543 0.255 1.066 0.798 1.168s1.066-0.255 1.168-0.798c0.082-0.435 0.127-0.922 0.127-1.415v-2c0-0.552-0.448-1-1-1s-1 0.448-1 1zM8 24h8c0.552 0 1-0.448 1-1s-0.448-1-1-1h-3v-2.011c0.731-0.092 1.452-0.284 2.14-0.578 0.632-0.27 1.236-0.624 1.795-1.062l5.358 5.358c0.391 0.391 1.024 0.391 1.414 0s0.391-1.024 0-1.414l-5.838-5.838c-0.045-0.079-0.101-0.153-0.169-0.219-0.063-0.062-0.132-0.113-0.205-0.155l-15.788-15.788c-0.391-0.391-1.024-0.391-1.414 0-0.39 0.39-0.391 1.023 0 1.414l7.707 7.707v2.586c0 0.541 0.108 1.058 0.305 1.531 0.203 0.49 0.501 0.93 0.869 1.298s0.809 0.664 1.299 0.867c0.473 0.195 0.99 0.302 1.53 0.302 0.539 0 1.055-0.108 1.527-0.304 0.173-0.072 0.34-0.155 0.5-0.249l1.477 1.477c-0.364 0.263-0.75 0.479-1.151 0.65-0.658 0.28-1.357 0.438-2.062 0.473-0.093-0.030-0.192-0.045-0.294-0.045s-0.201 0.015-0.294 0.044c-0.664-0.032-1.323-0.174-1.948-0.426-0.708-0.285-1.375-0.711-1.957-1.281-0.567-0.555-0.998-1.193-1.297-1.875-0.311-0.709-0.478-1.467-0.501-2.231-0.003-0.074-0.004-0.149-0.003-0.224v-2.007c0-0.552-0.448-1-1-1s-1 0.448-1 1v1.993c-0.001 0.1 0 0.199 0.004 0.299 0.031 1.015 0.253 2.026 0.668 2.973 0.4 0.912 0.977 1.764 1.729 2.501 0.773 0.757 1.662 1.327 2.61 1.708 0.643 0.259 1.312 0.43 1.989 0.515v2.011h-3c-0.552 0-1 0.448-1 1s0.448 1 1 1z"></path>
</svg>
