<!-- Generated by IcoMoon.io -->
<svg version="1.1" xmlns="http://www.w3.org/2000/svg" width="24" height="24" viewBox="0 0 24 24">
<title>move</title>
<path d="M11 4.414v6.586h-6.586l1.293-1.293c0.391-0.391 0.391-1.024 0-1.414s-1.024-0.391-1.414 0l-3 3c-0.001 0.001-0.002 0.003-0.004 0.004-0.094 0.095-0.165 0.204-0.213 0.32-0.101 0.245-0.101 0.521 0 0.766 0.048 0.116 0.119 0.226 0.213 0.32 0.001 0.001 0.002 0.003 0.004 0.004l3 3c0.391 0.391 1.024 0.391 1.414 0s0.391-1.024 0-1.414l-1.293-1.293h6.586v6.586l-1.293-1.293c-0.391-0.391-1.024-0.391-1.414 0s-0.391 1.024 0 1.414l3 3c0.096 0.096 0.207 0.168 0.325 0.217 0.12 0.049 0.247 0.075 0.374 0.076 0.133 0.001 0.266-0.024 0.39-0.076 0.118-0.049 0.229-0.121 0.325-0.217l3-3c0.391-0.391 0.391-1.024 0-1.414s-1.024-0.391-1.414 0l-1.293 1.293v-6.586h6.586l-1.293 1.293c-0.391 0.391-0.391 1.024 0 1.414s1.024 0.391 1.414 0l3-3c0.096-0.096 0.168-0.207 0.217-0.325 0.049-0.12 0.075-0.247 0.076-0.374 0.001-0.133-0.024-0.266-0.076-0.39-0.049-0.118-0.121-0.229-0.217-0.325l-3-3c-0.391-0.391-1.024-0.391-1.414 0s-0.391 1.024 0 1.414l1.293 1.293h-6.586v-6.586l1.293 1.293c0.391 0.391 1.024 0.391 1.414 0s0.391-1.024 0-1.414l-3-3c-0.001-0.001-0.003-0.002-0.004-0.004-0.095-0.094-0.204-0.165-0.32-0.213-0.245-0.101-0.521-0.101-0.766 0-0.116 0.048-0.226 0.119-0.32 0.213-0.001 0.001-0.003 0.002-0.004 0.004l-3 3c-0.391 0.391-0.391 1.024 0 1.414s1.024 0.391 1.414 0z"></path>
</svg>
