<!-- Generated by IcoMoon.io -->
<svg version="1.1" xmlns="http://www.w3.org/2000/svg" width="24" height="24" viewBox="0 0 24 24">
<title>paperclip</title>
<path d="M20.733 10.343l-9.19 9.19c-0.481 0.481-1.032 0.842-1.62 1.085-0.611 0.253-1.264 0.38-1.917 0.38s-1.306-0.127-1.917-0.38c-0.588-0.244-1.14-0.605-1.62-1.085s-0.842-1.032-1.085-1.62c-0.253-0.611-0.38-1.264-0.38-1.917s0.127-1.306 0.38-1.917c0.244-0.588 0.605-1.14 1.085-1.62l9.19-9.19c0.289-0.289 0.62-0.505 0.972-0.651 0.367-0.152 0.758-0.228 1.151-0.228s0.784 0.076 1.151 0.228c0.352 0.146 0.683 0.362 0.972 0.651s0.505 0.62 0.651 0.972c0.152 0.367 0.228 0.758 0.228 1.151s-0.076 0.784-0.228 1.151c-0.146 0.352-0.362 0.683-0.651 0.972l-9.2 9.19c-0.099 0.095-0.209 0.167-0.326 0.215-0.122 0.050-0.252 0.076-0.384 0.076s-0.262-0.026-0.384-0.076c-0.117-0.048-0.227-0.12-0.324-0.217s-0.169-0.207-0.217-0.324c-0.050-0.122-0.076-0.252-0.076-0.384s0.026-0.262 0.076-0.384c0.048-0.117 0.12-0.227 0.217-0.324l8.49-8.48c0.391-0.39 0.391-1.023 0.001-1.414s-1.023-0.391-1.414-0.001l-8.49 8.48c-0.286 0.286-0.504 0.618-0.651 0.973-0.152 0.368-0.228 0.759-0.228 1.149s0.076 0.781 0.228 1.149c0.147 0.355 0.365 0.687 0.651 0.973s0.618 0.504 0.973 0.651c0.368 0.152 0.759 0.228 1.149 0.228s0.781-0.076 1.149-0.228c0.355-0.147 0.687-0.365 0.972-0.65l9.2-9.19c0.478-0.478 0.84-1.030 1.085-1.621 0.254-0.613 0.38-1.265 0.38-1.916s-0.127-1.303-0.38-1.916c-0.245-0.591-0.607-1.143-1.085-1.621s-1.030-0.84-1.621-1.085c-0.613-0.254-1.265-0.38-1.916-0.38s-1.303 0.127-1.916 0.38c-0.591 0.245-1.143 0.607-1.621 1.085l-9.19 9.19c-0.669 0.669-1.176 1.443-1.519 2.269-0.355 0.858-0.533 1.771-0.533 2.683s0.177 1.825 0.533 2.683c0.342 0.826 0.849 1.6 1.519 2.269 0.669 0.669 1.443 1.176 2.269 1.519 0.858 0.355 1.771 0.533 2.683 0.533s1.825-0.177 2.683-0.533c0.826-0.342 1.6-0.849 2.269-1.519l9.19-9.19c0.391-0.391 0.391-1.024 0-1.414s-1.024-0.391-1.414 0z"></path>
</svg>
