<!-- Generated by IcoMoon.io -->
<svg version="1.1" xmlns="http://www.w3.org/2000/svg" width="24" height="24" viewBox="0 0 24 24">
<title>pen-tool</title>
<path d="M18.707 13.707l0.293-0.293 1.586 1.586-5.586 5.586-1.586-1.586 0.293-0.293zM1.024 2.219c0.001 0.005 0.003 0.011 0.004 0.016l0.004 0.017 3.496 14.483c0.094 0.388 0.403 0.669 0.776 0.746l5.765 1.153c-0.141 0.359-0.067 0.783 0.224 1.073l3 3c0.391 0.391 1.024 0.391 1.414 0l7-7c0.391-0.391 0.391-1.024 0-1.414l-3-3c-0.29-0.29-0.714-0.365-1.073-0.224l-1.153-5.765c-0.078-0.392-0.376-0.684-0.746-0.776l-14.5-3.5c-0.029-0.007-0.059-0.013-0.088-0.017-0.144-0.022-0.285-0.011-0.418 0.026-0.136 0.039-0.262 0.105-0.37 0.195-0.092 0.077-0.171 0.171-0.231 0.279-0.044 0.078-0.078 0.163-0.1 0.254-0.007 0.028-0.012 0.056-0.016 0.083-0.020 0.128-0.015 0.255 0.012 0.371zM14 11c0-0.405-0.081-0.793-0.228-1.148-0.152-0.368-0.375-0.698-0.651-0.974s-0.606-0.499-0.974-0.651c-0.354-0.146-0.742-0.227-1.147-0.227s-0.793 0.081-1.148 0.228c-0.049 0.020-0.097 0.042-0.145 0.065l-4.487-4.487 10.425 2.516 1.27 6.349-4.243 4.243-6.349-1.27-2.517-10.424 4.487 4.487c-0.023 0.048-0.045 0.096-0.065 0.145-0.147 0.355-0.228 0.743-0.228 1.148s0.081 0.793 0.228 1.148c0.152 0.368 0.375 0.698 0.651 0.974s0.606 0.499 0.974 0.651c0.354 0.146 0.742 0.227 1.147 0.227s0.793-0.081 1.148-0.228c0.368-0.152 0.698-0.375 0.974-0.651s0.499-0.606 0.651-0.974c0.146-0.354 0.227-0.742 0.227-1.147zM12 11c0 0.137-0.027 0.266-0.075 0.382-0.050 0.122-0.125 0.232-0.218 0.325s-0.203 0.167-0.325 0.218c-0.116 0.048-0.245 0.075-0.382 0.075s-0.266-0.027-0.382-0.075c-0.122-0.050-0.232-0.125-0.325-0.218s-0.167-0.203-0.218-0.325c-0.048-0.116-0.075-0.245-0.075-0.382s0.027-0.266 0.075-0.382c0.048-0.116 0.118-0.222 0.205-0.312 0.004-0.004 0.008-0.008 0.012-0.013s0.008-0.008 0.013-0.012c0.090-0.087 0.196-0.157 0.312-0.205 0.117-0.049 0.246-0.076 0.383-0.076s0.266 0.027 0.382 0.075c0.122 0.050 0.232 0.125 0.325 0.218s0.167 0.203 0.218 0.325c0.048 0.116 0.075 0.245 0.075 0.382z"></path>
</svg>
