<!-- Generated by IcoMoon.io -->
<svg version="1.1" xmlns="http://www.w3.org/2000/svg" width="24" height="24" viewBox="0 0 24 24">
<title>percent</title>
<path d="M18.293 4.293l-14 14c-0.391 0.391-0.391 1.024 0 1.414s1.024 0.391 1.414 0l14-14c0.391-0.391 0.391-1.024 0-1.414s-1.024-0.391-1.414 0zM10 6.5c0-0.472-0.094-0.925-0.265-1.339-0.178-0.429-0.438-0.814-0.76-1.136s-0.707-0.582-1.136-0.76c-0.414-0.171-0.867-0.265-1.339-0.265s-0.925 0.094-1.339 0.265c-0.429 0.178-0.814 0.438-1.136 0.76s-0.582 0.707-0.76 1.136c-0.171 0.414-0.265 0.867-0.265 1.339s0.094 0.925 0.265 1.339c0.178 0.429 0.438 0.814 0.76 1.136s0.707 0.582 1.136 0.76c0.414 0.171 0.867 0.265 1.339 0.265s0.925-0.094 1.339-0.265c0.429-0.178 0.814-0.438 1.136-0.76s0.582-0.707 0.76-1.136c0.171-0.414 0.265-0.867 0.265-1.339zM8 6.5c0 0.205-0.041 0.398-0.113 0.573-0.076 0.183-0.187 0.349-0.326 0.488s-0.305 0.25-0.487 0.326c-0.176 0.072-0.369 0.113-0.574 0.113s-0.398-0.041-0.573-0.113c-0.183-0.076-0.349-0.187-0.488-0.326s-0.25-0.305-0.326-0.487c-0.072-0.176-0.113-0.369-0.113-0.574s0.041-0.398 0.113-0.573c0.076-0.183 0.187-0.349 0.326-0.488s0.305-0.25 0.487-0.326c0.176-0.072 0.369-0.113 0.574-0.113s0.398 0.041 0.573 0.113c0.183 0.076 0.349 0.187 0.488 0.326s0.25 0.305 0.326 0.487c0.072 0.176 0.113 0.369 0.113 0.574zM21 17.5c0-0.472-0.094-0.925-0.265-1.339-0.178-0.429-0.438-0.814-0.76-1.136s-0.707-0.582-1.136-0.76c-0.414-0.171-0.867-0.265-1.339-0.265s-0.925 0.094-1.339 0.265c-0.429 0.178-0.814 0.438-1.136 0.76s-0.582 0.707-0.76 1.136c-0.171 0.414-0.265 0.867-0.265 1.339s0.094 0.925 0.265 1.339c0.178 0.429 0.438 0.814 0.76 1.136s0.707 0.582 1.136 0.76c0.414 0.171 0.867 0.265 1.339 0.265s0.925-0.094 1.339-0.265c0.429-0.178 0.814-0.438 1.136-0.76s0.582-0.707 0.76-1.136c0.171-0.414 0.265-0.867 0.265-1.339zM19 17.5c0 0.205-0.041 0.398-0.113 0.573-0.076 0.183-0.187 0.348-0.326 0.487s-0.305 0.25-0.487 0.326c-0.176 0.073-0.369 0.114-0.574 0.114s-0.398-0.041-0.573-0.113c-0.183-0.076-0.348-0.187-0.487-0.326s-0.25-0.305-0.326-0.487c-0.073-0.176-0.114-0.369-0.114-0.574s0.041-0.398 0.113-0.573c0.076-0.183 0.187-0.348 0.326-0.487s0.305-0.25 0.487-0.326c0.176-0.073 0.369-0.114 0.574-0.114s0.398 0.041 0.573 0.113c0.183 0.076 0.348 0.187 0.487 0.326s0.25 0.305 0.326 0.487c0.073 0.176 0.114 0.369 0.114 0.574z"></path>
</svg>
