<!-- Generated by IcoMoon.io -->
<svg version="1.1" xmlns="http://www.w3.org/2000/svg" width="24" height="24" viewBox="0 0 24 24">
<title>phone</title>
<path d="M23 16.92c0.008-0.34-0.050-0.692-0.162-1.021-0.116-0.337-0.289-0.649-0.511-0.922-0.234-0.288-0.521-0.533-0.851-0.72-0.319-0.18-0.675-0.304-1.074-0.36-0.8-0.098-1.695-0.314-2.586-0.646-0.433-0.159-0.893-0.218-1.344-0.174-0.336 0.033-0.668 0.122-0.98 0.268-0.303 0.142-0.586 0.337-0.838 0.587l-0.72 0.72c-1.77-1.117-3.36-2.667-4.583-4.589l0.726-0.726c0.322-0.33 0.563-0.726 0.707-1.156 0.107-0.32 0.161-0.66 0.155-1.005-0.006-0.335-0.069-0.672-0.194-1.006-0.289-0.753-0.518-1.644-0.644-2.595-0.051-0.353-0.163-0.685-0.324-0.987-0.166-0.308-0.383-0.585-0.64-0.817-0.274-0.247-0.594-0.444-0.946-0.577-0.34-0.129-0.709-0.198-1.081-0.194h-2.996c-0.088 0-0.182 0.004-0.273 0.012-0.403 0.036-0.782 0.152-1.122 0.33-0.353 0.185-0.661 0.437-0.911 0.736s-0.442 0.649-0.561 1.029c-0.114 0.367-0.16 0.76-0.123 1.17 0.3 3.076 1.365 6.243 3.216 9.102 1.502 2.413 3.648 4.623 6.298 6.306 2.568 1.697 5.684 2.862 9.086 3.231 0.092 0.009 0.191 0.013 0.288 0.013 0.405-0.002 0.792-0.084 1.147-0.232 0.367-0.154 0.696-0.378 0.971-0.655s0.496-0.608 0.647-0.976c0.146-0.355 0.225-0.744 0.223-1.144zM21 16.92v3c0.001 0.141-0.026 0.27-0.074 0.387-0.050 0.122-0.124 0.233-0.216 0.326s-0.203 0.168-0.324 0.219c-0.116 0.049-0.245 0.076-0.382 0.077-0.036 0-0.068-0.002-0.088-0.004-3.060-0.333-5.873-1.388-8.174-2.909-2.428-1.543-4.359-3.538-5.702-5.694-1.697-2.62-2.655-5.481-2.924-8.238-0.012-0.13 0.004-0.26 0.041-0.38 0.039-0.127 0.103-0.244 0.187-0.345s0.187-0.185 0.304-0.246c0.112-0.058 0.237-0.097 0.374-0.109 0.034-0.003 0.064-0.004 0.084-0.004h3.004c0.14-0.001 0.261 0.022 0.373 0.064 0.116 0.044 0.222 0.109 0.314 0.192 0.086 0.078 0.159 0.171 0.215 0.275 0.054 0.101 0.092 0.213 0.109 0.333 0.141 1.072 0.408 2.118 0.756 3.025 0.039 0.105 0.060 0.216 0.061 0.325 0.002 0.113-0.016 0.225-0.052 0.333-0.049 0.145-0.131 0.281-0.242 0.395l-1.261 1.261c-0.324 0.324-0.379 0.814-0.162 1.201 1.584 2.785 3.839 4.957 6.381 6.378 0.397 0.222 0.882 0.144 1.195-0.166l1.27-1.27c0.081-0.080 0.174-0.144 0.273-0.19 0.102-0.048 0.212-0.078 0.325-0.089 0.152-0.015 0.31 0.005 0.459 0.060 1.022 0.381 2.070 0.636 3.034 0.754 0.111 0.016 0.229 0.057 0.333 0.116 0.108 0.061 0.204 0.143 0.283 0.239 0.075 0.092 0.133 0.197 0.172 0.31 0.038 0.11 0.057 0.228 0.054 0.372z"></path>
</svg>
