<!-- Generated by IcoMoon.io -->
<svg version="1.1" xmlns="http://www.w3.org/2000/svg" width="24" height="24" viewBox="0 0 24 24">
<title>pie-chart</title>
<path d="M20.289 15.501c-0.476 1.124-1.151 2.1-1.968 2.904-0.848 0.836-1.85 1.489-2.939 1.93s-2.262 0.671-3.453 0.662c-1.146-0.008-2.311-0.237-3.435-0.713s-2.1-1.151-2.904-1.968c-0.836-0.848-1.489-1.85-1.93-2.939-0.441-1.088-0.671-2.262-0.662-3.453 0.008-1.146 0.237-2.311 0.713-3.435 0.46-1.088 1.108-2.037 1.888-2.826 0.81-0.818 1.764-1.466 2.801-1.918 0.506-0.221 0.738-0.81 0.518-1.316s-0.81-0.738-1.316-0.518c-1.268 0.554-2.434 1.345-3.425 2.347-0.956 0.966-1.748 2.127-2.309 3.453-0.579 1.371-0.86 2.795-0.871 4.199-0.011 1.458 0.27 2.891 0.809 4.22s1.336 2.552 2.359 3.591c0.986 1 2.18 1.826 3.55 2.406s2.795 0.861 4.199 0.871c1.458 0.011 2.891-0.27 4.22-0.809s2.552-1.336 3.591-2.359c1-0.986 1.826-2.18 2.406-3.55 0.215-0.509-0.023-1.095-0.532-1.311s-1.095 0.023-1.311 0.532zM20.945 11h-7.945v-7.945c0.857 0.095 1.676 0.309 2.442 0.626 1.101 0.456 2.092 1.124 2.922 1.955 0.831 0.831 1.499 1.822 1.955 2.922 0.317 0.766 0.532 1.585 0.626 2.442zM23 12c0-1.488-0.296-2.91-0.833-4.207-0.558-1.347-1.375-2.558-2.388-3.571s-2.224-1.831-3.571-2.388c-1.298-0.538-2.72-0.834-4.208-0.834-0.552 0-1 0.448-1 1v10c0 0.552 0.448 1 1 1h10c0.552 0 1-0.448 1-1z"></path>
</svg>
