<!-- Generated by IcoMoon.io -->
<svg version="1.1" xmlns="http://www.w3.org/2000/svg" width="24" height="24" viewBox="0 0 24 24">
<title>power</title>
<path d="M17.653 7.347c0.767 0.768 1.345 1.65 1.735 2.591 0.405 0.978 0.608 2.022 0.608 3.066s-0.203 2.087-0.609 3.066c-0.39 0.941-0.968 1.824-1.735 2.591s-1.65 1.345-2.591 1.735c-0.978 0.405-2.022 0.608-3.066 0.608s-2.089-0.204-3.067-0.61c-0.941-0.39-1.824-0.968-2.591-1.735s-1.345-1.65-1.734-2.591c-0.405-0.978-0.608-2.021-0.608-3.065s0.203-2.087 0.608-3.065c0.39-0.941 0.967-1.823 1.734-2.591 0.39-0.391 0.39-1.024 0-1.414s-1.024-0.39-1.414 0c-0.956 0.956-1.679 2.060-2.168 3.239-0.507 1.224-0.76 2.527-0.76 3.83s0.253 2.606 0.76 3.83c0.488 1.179 1.212 2.283 2.168 3.24s2.060 1.68 3.24 2.169c1.224 0.507 2.528 0.761 3.831 0.761s2.607-0.253 3.831-0.76c1.18-0.488 2.284-1.212 3.24-2.168s1.68-2.060 2.169-3.24c0.507-1.224 0.761-2.528 0.761-3.831s-0.253-2.607-0.76-3.831c-0.488-1.18-1.212-2.284-2.168-3.24-0.39-0.391-1.024-0.391-1.414 0s-0.391 1.024 0 1.414zM11 2v10c0 0.552 0.448 1 1 1s1-0.448 1-1v-10c0-0.552-0.448-1-1-1s-1 0.448-1 1z"></path>
</svg>
