<!-- Generated by IcoMoon.io -->
<svg version="1.1" xmlns="http://www.w3.org/2000/svg" width="24" height="24" viewBox="0 0 24 24">
<title>radio</title>
<path d="M15 12c0-0.405-0.081-0.793-0.228-1.148-0.152-0.368-0.375-0.698-0.651-0.974s-0.606-0.499-0.974-0.651c-0.354-0.146-0.742-0.227-1.147-0.227s-0.793 0.081-1.148 0.228c-0.368 0.152-0.698 0.375-0.974 0.651s-0.499 0.606-0.651 0.974c-0.146 0.354-0.227 0.742-0.227 1.147s0.081 0.793 0.228 1.148c0.152 0.368 0.375 0.698 0.651 0.974s0.606 0.499 0.974 0.651c0.354 0.146 0.742 0.227 1.147 0.227s0.793-0.081 1.148-0.228c0.368-0.152 0.698-0.375 0.974-0.651s0.499-0.606 0.651-0.974c0.146-0.354 0.227-0.742 0.227-1.147zM13 12c0 0.137-0.027 0.266-0.075 0.382-0.050 0.122-0.125 0.232-0.218 0.325s-0.203 0.167-0.325 0.218c-0.116 0.048-0.245 0.075-0.382 0.075s-0.266-0.027-0.382-0.075c-0.122-0.050-0.232-0.125-0.325-0.218s-0.167-0.203-0.218-0.325c-0.048-0.116-0.075-0.245-0.075-0.382s0.027-0.266 0.075-0.382c0.050-0.122 0.125-0.232 0.218-0.325s0.203-0.167 0.325-0.218c0.116-0.048 0.245-0.075 0.382-0.075s0.266 0.027 0.382 0.075c0.122 0.050 0.232 0.125 0.325 0.218s0.167 0.203 0.218 0.325c0.048 0.116 0.075 0.245 0.075 0.382zM15.533 8.467c0.48 0.48 0.842 1.031 1.085 1.619 0.253 0.611 0.381 1.263 0.381 1.916s-0.126 1.305-0.379 1.916c-0.243 0.588-0.604 1.139-1.084 1.62-0.39 0.391-0.39 1.024 0.001 1.414s1.024 0.39 1.414-0.001c0.669-0.67 1.175-1.443 1.517-2.269 0.355-0.858 0.531-1.77 0.531-2.682s-0.178-1.824-0.534-2.681c-0.343-0.826-0.85-1.599-1.519-2.267-0.391-0.39-1.024-0.39-1.414 0.001s-0.39 1.024 0.001 1.414zM8.467 15.533c-0.48-0.48-0.842-1.031-1.085-1.619-0.254-0.611-0.381-1.263-0.382-1.916s0.126-1.305 0.379-1.916c0.243-0.588 0.604-1.139 1.084-1.62 0.39-0.391 0.39-1.024-0.001-1.414s-1.024-0.39-1.414 0.001c-0.669 0.67-1.175 1.443-1.517 2.269-0.355 0.857-0.531 1.769-0.531 2.681s0.178 1.824 0.534 2.681c0.343 0.826 0.85 1.599 1.519 2.267 0.391 0.39 1.024 0.39 1.414-0.001s0.39-1.024-0.001-1.414zM18.363 5.637c0.863 0.863 1.513 1.856 1.951 2.915 0.456 1.1 0.684 2.274 0.684 3.448s-0.228 2.348-0.684 3.448c-0.438 1.059-1.088 2.051-1.951 2.915-0.39 0.391-0.39 1.024 0 1.414s1.024 0.39 1.414 0c1.052-1.052 1.847-2.266 2.384-3.563 0.558-1.347 0.836-2.78 0.836-4.213s-0.278-2.867-0.836-4.214c-0.537-1.297-1.333-2.512-2.385-3.564-0.39-0.391-1.024-0.391-1.414 0s-0.391 1.024 0 1.414zM5.637 18.363c-0.863-0.863-1.513-1.856-1.951-2.915-0.456-1.1-0.684-2.274-0.684-3.448s0.228-2.348 0.684-3.448c0.439-1.059 1.088-2.052 1.951-2.915 0.39-0.391 0.39-1.024 0-1.414s-1.024-0.39-1.414 0c-1.052 1.052-1.848 2.266-2.385 3.563-0.557 1.347-0.836 2.781-0.836 4.214s0.278 2.867 0.836 4.214c0.537 1.297 1.333 2.512 2.385 3.564 0.39 0.391 1.024 0.391 1.414 0s0.391-1.024 0-1.414z"></path>
</svg>
