<!-- Generated by IcoMoon.io -->
<svg version="1.1" xmlns="http://www.w3.org/2000/svg" width="24" height="24" viewBox="0 0 24 24">
<title>refresh-ccw</title>
<path d="M21.433 8.666c-0.451-1.275-1.136-2.404-1.99-3.353-0.887-0.985-1.954-1.775-3.13-2.336s-2.461-0.894-3.785-0.964c-1.275-0.067-2.583 0.11-3.858 0.562-1.472 0.521-2.752 1.354-3.743 2.364l-2.927 2.75v-3.689c0-0.552-0.448-1-1-1s-1 0.448-1 1v6c0 0.552 0.448 1 1 1h6c0.552 0 1-0.448 1-1s-0.448-1-1-1h-3.476l2.83-2.659c0.777-0.792 1.797-1.46 2.983-1.88 1.023-0.362 2.069-0.503 3.086-0.45 1.057 0.056 2.086 0.322 3.029 0.772s1.797 1.082 2.505 1.869c0.681 0.757 1.229 1.659 1.591 2.682 0.184 0.521 0.756 0.793 1.276 0.609s0.793-0.756 0.609-1.276zM20.475 15l-2.8 2.631c-0.79 0.79-1.672 1.367-2.613 1.757-0.978 0.405-2.021 0.609-3.065 0.609s-2.088-0.202-3.066-0.607c-0.941-0.39-1.824-0.967-2.592-1.734-0.89-0.89-1.523-1.931-1.883-2.981-0.18-0.522-0.748-0.8-1.271-0.621s-0.8 0.748-0.621 1.271c0.46 1.339 1.257 2.642 2.361 3.745 0.957 0.956 2.061 1.679 3.241 2.168 1.225 0.507 2.528 0.76 3.831 0.759s2.606-0.254 3.831-0.761c1.179-0.489 2.283-1.213 3.217-2.148l2.955-2.776v3.688c0 0.552 0.448 1 1 1s1-0.448 1-1v-6c0-0.014 0-0.028-0.001-0.042-0.005-0.115-0.029-0.225-0.069-0.327-0.041-0.104-0.099-0.199-0.171-0.282-0.013-0.015-0.026-0.029-0.039-0.043-0.091-0.094-0.2-0.171-0.322-0.223-0.119-0.051-0.249-0.081-0.386-0.082-0.004 0-0.007 0-0.011 0h-6.001c-0.552 0-1 0.448-1 1s0.448 1 1 1z"></path>
</svg>
