<!-- Generated by IcoMoon.io -->
<svg version="1.1" xmlns="http://www.w3.org/2000/svg" width="24" height="24" viewBox="0 0 24 24">
<title>refresh-cw</title>
<path d="M4.453 9.334c0.362-1.023 0.91-1.925 1.591-2.682 0.708-0.787 1.562-1.42 2.505-1.869s1.971-0.716 3.029-0.772c1.017-0.054 2.063 0.088 3.086 0.45 1.186 0.42 2.206 1.088 2.983 1.88l2.829 2.659h-3.476c-0.552 0-1 0.448-1 1s0.448 1 1 1h6c0.004 0 0.007 0 0.011 0 0.137-0.001 0.268-0.031 0.386-0.082 0.122-0.053 0.231-0.129 0.322-0.223 0.013-0.014 0.027-0.028 0.039-0.043 0.072-0.083 0.13-0.179 0.171-0.282 0.041-0.102 0.065-0.212 0.069-0.327 0.002-0.015 0.002-0.029 0.002-0.043v-6c0-0.552-0.448-1-1-1s-1 0.448-1 1v3.689l-2.926-2.749c-0.992-1.010-2.271-1.843-3.743-2.364-1.275-0.451-2.583-0.629-3.858-0.562-1.324 0.070-2.609 0.403-3.785 0.964s-2.243 1.351-3.13 2.336c-0.854 0.949-1.539 2.077-1.99 3.353-0.184 0.521 0.088 1.092 0.609 1.276s1.092-0.088 1.276-0.609zM2 16.312l2.955 2.777c0.934 0.935 2.038 1.659 3.217 2.148 1.224 0.507 2.528 0.761 3.831 0.761s2.607-0.253 3.831-0.759c1.18-0.488 2.284-1.211 3.241-2.168 1.104-1.104 1.901-2.407 2.361-3.745 0.18-0.522-0.098-1.091-0.621-1.271s-1.091 0.098-1.271 0.621c-0.361 1.050-0.993 2.091-1.883 2.981-0.768 0.767-1.65 1.345-2.592 1.734-0.978 0.405-2.022 0.608-3.066 0.607s-2.087-0.204-3.065-0.609c-0.941-0.39-1.823-0.968-2.613-1.757l-2.8-2.632h3.475c0.552 0 1-0.448 1-1s-0.448-1-1-1h-6c-0.004 0-0.007 0-0.011 0-0.137 0.001-0.268 0.031-0.386 0.082-0.122 0.053-0.232 0.13-0.323 0.225-0.013 0.013-0.025 0.027-0.037 0.041-0.072 0.084-0.131 0.18-0.172 0.284-0.040 0.102-0.064 0.211-0.069 0.326-0.002 0.014-0.002 0.028-0.002 0.042v6c0 0.552 0.448 1 1 1s1-0.448 1-1z"></path>
</svg>
