<!-- Generated by IcoMoon.io -->
<svg version="1.1" xmlns="http://www.w3.org/2000/svg" width="24" height="24" viewBox="0 0 24 24">
<title>repeat</title>
<path d="M4 11v-2c0-0.408 0.081-0.795 0.227-1.147 0.152-0.366 0.375-0.697 0.652-0.974s0.608-0.5 0.974-0.652c0.352-0.146 0.739-0.227 1.147-0.227h11.586l-2.293 2.293c-0.391 0.391-0.391 1.024 0 1.414s1.024 0.391 1.414 0l4-4c0.096-0.096 0.168-0.207 0.217-0.325 0.049-0.12 0.075-0.247 0.076-0.374 0-0.005 0-0.011 0-0.016-0.001-0.127-0.026-0.255-0.076-0.374-0.049-0.118-0.121-0.229-0.217-0.325l-4-4c-0.391-0.391-1.024-0.391-1.414 0s-0.391 1.024 0 1.414l2.293 2.293h-11.586c-0.675 0-1.322 0.134-1.912 0.379-0.613 0.254-1.163 0.625-1.624 1.085s-0.831 1.011-1.085 1.624c-0.245 0.59-0.379 1.237-0.379 1.912v2c0 0.552 0.448 1 1 1s1-0.448 1-1zM20 13v2c0 0.408-0.081 0.795-0.227 1.147-0.152 0.366-0.375 0.697-0.652 0.974s-0.608 0.5-0.974 0.652c-0.352 0.146-0.739 0.227-1.147 0.227h-11.586l2.293-2.293c0.391-0.391 0.391-1.024 0-1.414s-1.024-0.391-1.414 0l-4 4c-0.096 0.096-0.169 0.207-0.217 0.325-0.050 0.119-0.075 0.245-0.076 0.372 0 0.007 0 0.014 0 0.020 0.001 0.127 0.026 0.253 0.075 0.372s0.121 0.229 0.217 0.325l4 4c0.391 0.391 1.024 0.391 1.414 0s0.391-1.024 0-1.414l-2.292-2.293h11.586c0.675 0 1.322-0.134 1.912-0.379 0.613-0.254 1.163-0.625 1.623-1.085s0.832-1.011 1.085-1.623c0.246-0.591 0.38-1.238 0.38-1.913v-2c0-0.552-0.448-1-1-1s-1 0.448-1 1z"></path>
</svg>
