<!-- Generated by IcoMoon.io -->
<svg version="1.1" xmlns="http://www.w3.org/2000/svg" width="24" height="24" viewBox="0 0 24 24">
<title>rotate-cw</title>
<path d="M19.547 14.667c-0.362 1.023-0.909 1.925-1.59 2.683-0.708 0.787-1.562 1.42-2.504 1.871s-1.971 0.717-3.028 0.773c-1.017 0.054-2.063-0.087-3.086-0.448s-1.925-0.909-2.683-1.59c-0.787-0.708-1.42-1.562-1.871-2.504s-0.717-1.971-0.773-3.028c-0.054-1.017 0.087-2.063 0.448-3.086s0.909-1.925 1.59-2.683c0.708-0.787 1.562-1.42 2.504-1.871s1.971-0.717 3.028-0.773c1.017-0.054 2.063 0.087 3.086 0.448 1.188 0.42 2.209 1.088 2.987 1.882l2.825 2.659h-3.48c-0.552 0-1 0.448-1 1s0.448 1 1 1h6c0.004 0 0.007 0 0.011 0 0.137-0.001 0.267-0.030 0.385-0.082 0.123-0.053 0.233-0.13 0.324-0.225 0.012-0.012 0.023-0.025 0.035-0.038 0.073-0.084 0.133-0.181 0.175-0.287 0.041-0.102 0.065-0.213 0.069-0.328 0.001-0.013 0.001-0.026 0.001-0.040v-6c0-0.552-0.448-1-1-1s-1 0.448-1 1v3.685l-2.916-2.745c-0.993-1.012-2.274-1.846-3.748-2.366-1.275-0.451-2.584-0.627-3.858-0.56-1.323 0.070-2.609 0.404-3.784 0.966s-2.244 1.352-3.13 2.337c-0.854 0.95-1.538 2.078-1.989 3.354s-0.627 2.584-0.56 3.858c0.070 1.323 0.404 2.609 0.966 3.784s1.352 2.243 2.338 3.129c0.949 0.854 2.078 1.538 3.354 1.988s2.584 0.627 3.858 0.56c1.323-0.070 2.609-0.404 3.784-0.966s2.243-1.352 3.129-2.338c0.854-0.949 1.538-2.078 1.988-3.354 0.184-0.521-0.089-1.092-0.61-1.276s-1.092 0.089-1.276 0.61z"></path>
</svg>
