<!-- Generated by IcoMoon.io -->
<svg version="1.1" xmlns="http://www.w3.org/2000/svg" width="24" height="24" viewBox="0 0 24 24">
<title>rotate-ccw</title>
<path d="M2.567 15.332c0.449 1.276 1.133 2.405 1.985 3.355 0.885 0.986 1.952 1.778 3.127 2.341s2.46 0.898 3.784 0.969c1.275 0.069 2.583-0.107 3.859-0.556s2.405-1.133 3.355-1.985c0.986-0.885 1.778-1.952 2.341-3.127s0.898-2.46 0.969-3.784c0.069-1.275-0.107-2.583-0.556-3.859s-1.133-2.405-1.985-3.355c-0.885-0.986-1.952-1.778-3.127-2.341s-2.46-0.898-3.784-0.969c-1.275-0.069-2.584 0.107-3.859 0.557-1.474 0.519-2.755 1.351-3.749 2.361l-2.927 2.75v-3.689c0-0.552-0.448-1-1-1s-1 0.448-1 1v6c0 0.014 0 0.028 0.001 0.042 0.005 0.115 0.029 0.225 0.069 0.326 0.041 0.105 0.1 0.2 0.172 0.284 0.012 0.014 0.024 0.027 0.037 0.041 0.091 0.095 0.201 0.172 0.323 0.225 0.119 0.051 0.249 0.081 0.386 0.082 0.004 0 0.007 0 0.011 0h6.001c0.552 0 1-0.448 1-1s-0.448-1-1-1h-3.476l2.829-2.659c0.779-0.792 1.8-1.459 2.987-1.877 1.024-0.361 2.069-0.5 3.086-0.445 1.057 0.057 2.086 0.325 3.028 0.776s1.795 1.085 2.502 1.873c0.68 0.758 1.227 1.66 1.588 2.684s0.5 2.069 0.445 3.086c-0.057 1.057-0.325 2.086-0.776 3.028s-1.085 1.795-1.873 2.502c-0.758 0.68-1.66 1.227-2.684 1.588s-2.069 0.5-3.086 0.445c-1.057-0.057-2.086-0.325-3.028-0.776s-1.795-1.085-2.502-1.873c-0.68-0.758-1.227-1.66-1.588-2.684-0.184-0.521-0.755-0.794-1.275-0.611s-0.794 0.755-0.611 1.275z"></path>
</svg>
