<!-- Generated by IcoMoon.io -->
<svg version="1.1" xmlns="http://www.w3.org/2000/svg" width="24" height="24" viewBox="0 0 24 24">
<title>rss</title>
<path d="M4 12c1.085 0 2.118 0.216 3.059 0.605 0.978 0.405 1.859 0.999 2.598 1.738s1.333 1.62 1.738 2.598c0.389 0.941 0.605 1.974 0.605 3.059 0 0.552 0.448 1 1 1s1-0.448 1-1c0-1.353-0.269-2.645-0.758-3.824-0.507-1.224-1.25-2.325-2.171-3.247s-2.022-1.664-3.247-2.171c-1.179-0.489-2.471-0.758-3.824-0.758-0.552 0-1 0.448-1 1s0.448 1 1 1zM4 5c2.034 0 3.97 0.404 5.736 1.136 1.835 0.76 3.487 1.874 4.871 3.258s2.498 3.036 3.258 4.871c0.731 1.765 1.135 3.701 1.135 5.735 0 0.552 0.448 1 1 1s1-0.448 1-1c0-2.301-0.458-4.497-1.288-6.501-0.862-2.081-2.125-3.953-3.691-5.519s-3.438-2.829-5.519-3.691c-2.005-0.831-4.201-1.289-6.502-1.289-0.552 0-1 0.448-1 1s0.448 1 1 1zM7 19c0-0.269-0.054-0.528-0.152-0.765-0.102-0.246-0.25-0.465-0.434-0.649s-0.404-0.332-0.649-0.434c-0.237-0.098-0.496-0.152-0.765-0.152s-0.528 0.054-0.765 0.152c-0.246 0.102-0.465 0.25-0.649 0.434s-0.332 0.404-0.434 0.649c-0.098 0.237-0.152 0.496-0.152 0.765s0.054 0.528 0.152 0.765c0.102 0.246 0.25 0.465 0.434 0.649s0.404 0.332 0.649 0.434c0.237 0.098 0.496 0.152 0.765 0.152s0.528-0.054 0.765-0.152c0.246-0.102 0.465-0.25 0.649-0.434s0.332-0.404 0.434-0.649c0.098-0.237 0.152-0.496 0.152-0.765z"></path>
</svg>
