<!-- Generated by IcoMoon.io -->
<svg version="1.1" xmlns="http://www.w3.org/2000/svg" width="24" height="24" viewBox="0 0 24 24">
<title>scissors</title>
<path d="M7.378 16.551c0.011 0.012 0.023 0.025 0.035 0.036s0.024 0.023 0.036 0.035c0.169 0.177 0.305 0.385 0.4 0.614 0.097 0.234 0.151 0.491 0.151 0.764s-0.054 0.53-0.151 0.765c-0.101 0.244-0.25 0.464-0.435 0.65s-0.406 0.334-0.65 0.435c-0.234 0.096-0.491 0.15-0.764 0.15s-0.53-0.054-0.765-0.151c-0.244-0.101-0.464-0.25-0.65-0.435s-0.334-0.406-0.435-0.65c-0.096-0.234-0.15-0.491-0.15-0.764s0.054-0.53 0.151-0.765c0.101-0.244 0.25-0.464 0.435-0.65s0.406-0.334 0.65-0.435c0.234-0.096 0.491-0.15 0.764-0.15s0.53 0.054 0.765 0.151c0.228 0.095 0.436 0.231 0.614 0.4zM13.764 15.188l5.53 5.52c0.391 0.39 1.024 0.39 1.414-0.001s0.39-1.024-0.001-1.414l-5.53-5.52c-0.391-0.39-1.024-0.39-1.414 0.001s-0.39 1.024 0.001 1.414zM7.449 7.378c-0.012 0.011-0.024 0.023-0.036 0.035s-0.024 0.024-0.035 0.036c-0.177 0.169-0.385 0.305-0.614 0.4-0.234 0.097-0.491 0.151-0.764 0.151s-0.53-0.054-0.765-0.151c-0.244-0.101-0.464-0.25-0.65-0.435s-0.334-0.406-0.435-0.65c-0.096-0.234-0.15-0.491-0.15-0.764s0.054-0.53 0.151-0.765c0.101-0.244 0.25-0.464 0.435-0.65s0.406-0.334 0.65-0.435c0.234-0.096 0.491-0.15 0.764-0.15s0.53 0.054 0.765 0.151c0.244 0.101 0.464 0.25 0.65 0.435s0.334 0.406 0.435 0.65c0.096 0.234 0.15 0.491 0.15 0.764s-0.054 0.53-0.151 0.765c-0.095 0.228-0.231 0.436-0.4 0.614zM8.032 9.446l2.554 2.554-2.554 2.554c-0.16-0.095-0.328-0.179-0.502-0.251-0.473-0.195-0.99-0.303-1.53-0.303s-1.057 0.108-1.53 0.303c-0.49 0.203-0.93 0.5-1.298 0.868s-0.666 0.809-0.869 1.299c-0.195 0.473-0.303 0.99-0.303 1.53s0.108 1.057 0.303 1.53c0.203 0.49 0.5 0.93 0.868 1.298s0.808 0.665 1.298 0.868c0.474 0.196 0.991 0.304 1.531 0.304s1.057-0.108 1.53-0.303c0.49-0.203 0.93-0.5 1.298-0.868s0.665-0.808 0.868-1.298c0.196-0.474 0.304-0.991 0.304-1.531s-0.108-1.057-0.303-1.53c-0.072-0.174-0.156-0.342-0.251-0.502l11.261-11.261c0.391-0.391 0.391-1.024 0-1.414s-1.024-0.391-1.414 0l-7.293 7.293-2.554-2.554c0.095-0.16 0.179-0.328 0.251-0.502 0.195-0.473 0.303-0.99 0.303-1.53s-0.108-1.057-0.303-1.53c-0.203-0.49-0.5-0.93-0.868-1.298s-0.809-0.666-1.299-0.869c-0.473-0.195-0.99-0.303-1.53-0.303s-1.057 0.108-1.53 0.303c-0.49 0.203-0.93 0.5-1.298 0.868s-0.666 0.809-0.869 1.299c-0.195 0.473-0.303 0.99-0.303 1.53s0.108 1.057 0.303 1.53c0.203 0.49 0.5 0.93 0.868 1.298s0.809 0.666 1.299 0.869c0.473 0.195 0.99 0.303 1.53 0.303s1.057-0.108 1.53-0.303c0.174-0.072 0.342-0.156 0.502-0.251z"></path>
</svg>
