<!-- Generated by IcoMoon.io -->
<svg version="1.1" xmlns="http://www.w3.org/2000/svg" width="24" height="24" viewBox="0 0 24 24">
<title>send</title>
<path d="M22.963 2.269c0.042-0.151 0.050-0.314 0.015-0.476-0.009-0.041-0.020-0.082-0.035-0.123-0.025-0.072-0.058-0.14-0.097-0.202-0.064-0.102-0.145-0.19-0.238-0.261-0.114-0.087-0.246-0.149-0.386-0.181-0.137-0.031-0.282-0.034-0.426-0.004-0.042 0.009-0.085 0.021-0.127 0.035l-0.021 0.007-19.978 6.992c-0.252 0.088-0.467 0.276-0.584 0.538-0.224 0.505 0.003 1.096 0.508 1.32l8.649 3.844 3.844 8.649c0.108 0.243 0.313 0.443 0.583 0.538 0.521 0.182 1.092-0.092 1.274-0.614l7-20c0.007-0.020 0.014-0.041 0.019-0.061zM10.779 11.807l-6.068-2.696 13.483-4.72zM19.609 5.806l-4.72 13.483-2.696-6.068z"></path>
</svg>
