<!-- Generated by IcoMoon.io -->
<svg version="1.1" xmlns="http://www.w3.org/2000/svg" width="24" height="24" viewBox="0 0 24 24">
<title>share-2</title>
<path d="M16.215 18.097c0.025-0.033 0.048-0.067 0.069-0.104 0.020-0.035 0.038-0.070 0.054-0.106 0.073-0.108 0.156-0.209 0.248-0.301 0.185-0.185 0.406-0.334 0.65-0.435 0.234-0.097 0.491-0.151 0.764-0.151s0.53 0.054 0.765 0.151c0.244 0.101 0.464 0.25 0.65 0.435s0.334 0.406 0.435 0.65c0.096 0.234 0.15 0.491 0.15 0.764s-0.054 0.53-0.151 0.765c-0.101 0.244-0.25 0.464-0.435 0.65s-0.406 0.334-0.65 0.435c-0.234 0.096-0.491 0.15-0.764 0.15s-0.53-0.054-0.765-0.151c-0.244-0.101-0.464-0.25-0.65-0.435s-0.334-0.406-0.435-0.65c-0.096-0.234-0.15-0.491-0.15-0.764s0.054-0.53 0.151-0.765c0.019-0.047 0.041-0.093 0.063-0.138zM16.301 6.056c-0.009-0.017-0.018-0.034-0.027-0.050-0.010-0.017-0.020-0.033-0.031-0.049-0.034-0.062-0.065-0.126-0.092-0.192-0.097-0.235-0.151-0.492-0.151-0.765s0.054-0.53 0.151-0.765c0.101-0.244 0.25-0.464 0.435-0.65s0.406-0.334 0.65-0.435c0.234-0.096 0.491-0.15 0.764-0.15s0.53 0.054 0.765 0.151c0.244 0.101 0.464 0.25 0.65 0.435s0.334 0.406 0.435 0.65c0.096 0.234 0.15 0.491 0.15 0.764s-0.054 0.53-0.151 0.765c-0.101 0.244-0.25 0.464-0.435 0.65s-0.406 0.334-0.65 0.435c-0.234 0.096-0.491 0.15-0.764 0.15s-0.53-0.054-0.765-0.151c-0.244-0.101-0.464-0.25-0.65-0.435-0.108-0.108-0.204-0.228-0.285-0.358zM7.699 10.944c0.009 0.017 0.018 0.034 0.027 0.050 0.010 0.017 0.020 0.033 0.031 0.049 0.034 0.062 0.065 0.126 0.092 0.192 0.097 0.235 0.151 0.492 0.151 0.765s-0.054 0.53-0.151 0.765c-0.027 0.066-0.058 0.13-0.092 0.192-0.011 0.016-0.021 0.033-0.031 0.050s-0.019 0.033-0.027 0.049c-0.081 0.13-0.177 0.25-0.285 0.358-0.185 0.185-0.406 0.334-0.65 0.435-0.234 0.097-0.491 0.151-0.764 0.151s-0.53-0.054-0.765-0.151c-0.244-0.101-0.464-0.25-0.65-0.435s-0.334-0.406-0.435-0.65c-0.096-0.234-0.15-0.491-0.15-0.764s0.054-0.53 0.151-0.765c0.101-0.244 0.25-0.464 0.435-0.65s0.406-0.334 0.65-0.435c0.234-0.096 0.491-0.15 0.764-0.15s0.53 0.054 0.765 0.151c0.244 0.101 0.464 0.25 0.65 0.435 0.108 0.108 0.204 0.228 0.285 0.358zM14.15 6.088l-5.308 3.097c-0.004-0.005-0.009-0.009-0.014-0.014-0.368-0.367-0.808-0.665-1.298-0.868-0.473-0.195-0.99-0.303-1.53-0.303s-1.057 0.108-1.53 0.303c-0.49 0.203-0.93 0.5-1.298 0.868s-0.666 0.809-0.869 1.299c-0.195 0.473-0.303 0.99-0.303 1.53s0.108 1.057 0.303 1.53c0.203 0.49 0.5 0.93 0.868 1.298s0.808 0.665 1.298 0.868c0.474 0.196 0.991 0.304 1.531 0.304s1.057-0.108 1.53-0.303c0.49-0.203 0.93-0.5 1.298-0.868 0.005-0.005 0.009-0.009 0.014-0.014l5.309 3.094c-0.098 0.347-0.151 0.713-0.151 1.091 0 0.54 0.108 1.057 0.303 1.53 0.203 0.49 0.5 0.93 0.868 1.298s0.808 0.665 1.298 0.868c0.474 0.196 0.991 0.304 1.531 0.304s1.057-0.108 1.53-0.303c0.49-0.203 0.93-0.5 1.298-0.868s0.665-0.808 0.868-1.298c0.196-0.474 0.304-0.991 0.304-1.531s-0.108-1.057-0.303-1.53c-0.203-0.49-0.5-0.93-0.868-1.298s-0.808-0.665-1.298-0.868c-0.474-0.196-0.991-0.304-1.531-0.304s-1.057 0.108-1.53 0.303c-0.49 0.203-0.93 0.5-1.298 0.868-0.003 0.003-0.007 0.007-0.010 0.010l-5.312-3.094c0.098-0.346 0.15-0.711 0.15-1.087s-0.052-0.741-0.15-1.088l5.308-3.098c0.004 0.005 0.009 0.009 0.014 0.014 0.368 0.368 0.808 0.665 1.298 0.868 0.473 0.196 0.99 0.304 1.53 0.304s1.057-0.108 1.53-0.303c0.49-0.203 0.93-0.5 1.298-0.868s0.665-0.808 0.868-1.298c0.196-0.474 0.304-0.991 0.304-1.531s-0.108-1.057-0.303-1.53c-0.203-0.49-0.5-0.93-0.868-1.298s-0.808-0.665-1.298-0.868c-0.474-0.196-0.991-0.304-1.531-0.304s-1.057 0.108-1.53 0.303c-0.49 0.203-0.93 0.5-1.298 0.868s-0.666 0.809-0.869 1.299c-0.195 0.473-0.303 0.99-0.303 1.53 0 0.376 0.052 0.741 0.15 1.088z"></path>
</svg>
