<!-- Generated by IcoMoon.io -->
<svg version="1.1" xmlns="http://www.w3.org/2000/svg" width="24" height="24" viewBox="0 0 24 24">
<title>shield</title>
<path d="M12 20.863c-0.38-0.215-0.972-0.57-1.655-1.049-0.679-0.476-1.442-1.068-2.175-1.761-0.849-0.803-1.641-1.725-2.22-2.739-0.079-0.137-0.153-0.276-0.223-0.417-0.248-0.496-0.441-1.009-0.566-1.536-0.104-0.442-0.161-0.895-0.161-1.361v-6.307l7-2.625 7 2.625v6.307c0 0.466-0.057 0.919-0.161 1.361-0.124 0.527-0.317 1.040-0.566 1.536-0.070 0.14-0.145 0.279-0.223 0.417-0.579 1.014-1.371 1.936-2.22 2.739-0.733 0.693-1.495 1.286-2.175 1.761-0.684 0.478-1.275 0.833-1.655 1.049zM12.447 22.894c0.028-0.014 1.041-0.522 2.355-1.442 0.74-0.518 1.583-1.171 2.402-1.947 0.945-0.894 1.878-1.967 2.582-3.2 0.096-0.168 0.188-0.34 0.276-0.515 0.309-0.618 0.559-1.276 0.723-1.971 0.138-0.582 0.215-1.19 0.215-1.819v-7c0-0.426-0.267-0.79-0.649-0.936l-8-3c-0.236-0.089-0.485-0.082-0.702 0l-8 3c-0.399 0.149-0.646 0.527-0.649 0.936v7c0 0.629 0.077 1.237 0.214 1.82 0.164 0.695 0.414 1.353 0.723 1.971 0.087 0.175 0.179 0.346 0.276 0.515 0.704 1.233 1.637 2.306 2.582 3.2 0.82 0.776 1.663 1.429 2.402 1.947 1.314 0.92 2.327 1.428 2.355 1.442 0.292 0.146 0.62 0.136 0.894 0z"></path>
</svg>
