<!-- Generated by IcoMoon.io -->
<svg version="1.1" xmlns="http://www.w3.org/2000/svg" width="24" height="24" viewBox="0 0 24 24">
<title>shield-off</title>
<path d="M20.645 14.296c0.241-0.776 0.358-1.567 0.355-2.3v-6.996c0-0.426-0.267-0.79-0.649-0.936l-8-3c-0.236-0.088-0.484-0.082-0.701 0l-3.16 1.18c-0.517 0.192-0.78 0.768-0.587 1.286s0.769 0.78 1.287 0.587l2.809-1.049 7.001 2.625v6.311c0.002 0.522-0.082 1.111-0.265 1.7-0.164 0.527 0.131 1.088 0.659 1.251s1.088-0.131 1.251-0.659zM5 6.414l11.231 11.231c-1.181 1.2-2.612 2.306-4.232 3.217-0.38-0.216-0.971-0.57-1.654-1.048-0.679-0.476-1.442-1.068-2.175-1.761-0.849-0.803-1.641-1.725-2.22-2.739-0.079-0.137-0.153-0.276-0.223-0.417-0.248-0.496-0.441-1.009-0.566-1.536-0.104-0.442-0.161-0.895-0.161-1.361zM0.293 1.707l2.824 2.825c-0.075 0.142-0.116 0.302-0.117 0.468v7c0 0.629 0.077 1.237 0.214 1.82 0.164 0.695 0.414 1.353 0.723 1.971 0.087 0.175 0.179 0.346 0.276 0.515 0.704 1.233 1.637 2.306 2.582 3.2 0.82 0.776 1.663 1.429 2.402 1.947 1.314 0.92 2.327 1.428 2.355 1.442 0.298 0.149 0.636 0.135 0.914-0.010 1.985-1.047 3.74-2.366 5.178-3.825l4.648 4.648c0.391 0.391 1.024 0.391 1.414 0s0.391-1.024 0-1.414l-21.999-22.001c-0.391-0.391-1.024-0.391-1.414 0-0.39 0.39-0.391 1.023 0 1.414z"></path>
</svg>
