<!-- Generated by IcoMoon.io -->
<svg version="1.1" xmlns="http://www.w3.org/2000/svg" width="24" height="24" viewBox="0 0 24 24">
<title>shopping-cart</title>
<path d="M11 21c0-0.269-0.054-0.528-0.152-0.765-0.102-0.246-0.25-0.465-0.434-0.649s-0.404-0.332-0.649-0.434c-0.237-0.098-0.496-0.152-0.765-0.152s-0.528 0.054-0.765 0.152c-0.246 0.102-0.465 0.25-0.649 0.434s-0.332 0.404-0.434 0.649c-0.098 0.237-0.152 0.496-0.152 0.765s0.054 0.528 0.152 0.765c0.102 0.246 0.25 0.465 0.434 0.649s0.404 0.332 0.649 0.434c0.237 0.098 0.496 0.152 0.765 0.152s0.528-0.054 0.765-0.152c0.246-0.102 0.465-0.25 0.649-0.434s0.332-0.404 0.434-0.649c0.098-0.237 0.152-0.496 0.152-0.765zM22 21c0-0.269-0.054-0.528-0.152-0.765-0.102-0.246-0.25-0.465-0.434-0.649s-0.404-0.332-0.649-0.434c-0.237-0.098-0.496-0.152-0.765-0.152s-0.528 0.054-0.765 0.152c-0.246 0.102-0.465 0.25-0.649 0.434s-0.332 0.404-0.434 0.649c-0.098 0.237-0.152 0.496-0.152 0.765s0.054 0.528 0.152 0.765c0.102 0.246 0.25 0.465 0.434 0.649s0.404 0.332 0.649 0.434c0.237 0.098 0.496 0.152 0.765 0.152s0.528-0.054 0.765-0.152c0.246-0.102 0.465-0.25 0.649-0.434s0.332-0.404 0.434-0.649c0.098-0.237 0.152-0.496 0.152-0.765zM7.221 7h14.57l-1.371 7.191c-0.023 0.113-0.064 0.218-0.119 0.313-0.057 0.097-0.129 0.183-0.213 0.256-0.092 0.079-0.198 0.142-0.312 0.183-0.11 0.040-0.23 0.061-0.376 0.058h-9.734c-0.115 0.002-0.227-0.016-0.331-0.050-0.107-0.035-0.206-0.087-0.295-0.153-0.097-0.073-0.181-0.163-0.245-0.265-0.062-0.099-0.108-0.211-0.134-0.338zM1 2h3.18l0.832 4.155c0.004 0.028 0.010 0.057 0.017 0.084l1.671 8.347c0.073 0.367 0.211 0.708 0.402 1.011 0.197 0.313 0.448 0.583 0.738 0.8 0.264 0.198 0.56 0.352 0.876 0.455 0.31 0.101 0.641 0.153 0.979 0.148h9.706c0.356 0.007 0.719-0.055 1.056-0.177 0.348-0.126 0.665-0.313 0.939-0.55 0.249-0.215 0.463-0.472 0.632-0.759 0.165-0.282 0.286-0.593 0.353-0.925l1.602-8.402c0.103-0.543-0.252-1.066-0.795-1.17-0.066-0.012-0.131-0.018-0.188-0.017h-16.18l-0.84-4.196c-0.094-0.462-0.497-0.804-0.98-0.804h-4c-0.552 0-1 0.448-1 1s0.448 1 1 1z"></path>
</svg>
