<!-- Generated by IcoMoon.io -->
<svg version="1.1" xmlns="http://www.w3.org/2000/svg" width="24" height="24" viewBox="0 0 24 24">
<title>shuffle</title>
<path d="M4.707 20.707l15.293-15.293v2.586c0 0.552 0.448 1 1 1s1-0.448 1-1v-5c0-0.003 0-0.005 0-0.008-0.001-0.132-0.028-0.258-0.075-0.374-0.101-0.245-0.297-0.441-0.543-0.543-0.115-0.047-0.241-0.074-0.373-0.075-0.003 0-0.006 0-0.009 0h-5c-0.552 0-1 0.448-1 1s0.448 1 1 1h2.586l-15.293 15.293c-0.391 0.391-0.391 1.024 0 1.414s1.024 0.391 1.414 0zM14.293 15.707l4.293 4.293h-2.586c-0.552 0-1 0.448-1 1s0.448 1 1 1h5c0.003 0 0.005 0 0.008 0 0.132-0.001 0.258-0.028 0.374-0.075 0.245-0.101 0.441-0.298 0.543-0.543 0.048-0.115 0.074-0.241 0.075-0.374 0-0.003 0-0.005 0-0.008v-5c0-0.552-0.448-1-1-1s-1 0.448-1 1v2.586l-4.293-4.293c-0.391-0.391-1.024-0.391-1.414 0s-0.391 1.024 0 1.414zM3.293 4.707l5 5c0.391 0.391 1.024 0.391 1.414 0s0.391-1.024 0-1.414l-5-5c-0.391-0.391-1.024-0.391-1.414 0s-0.391 1.024 0 1.414z"></path>
</svg>
