<!-- Generated by IcoMoon.io -->
<svg version="1.1" xmlns="http://www.w3.org/2000/svg" width="24" height="24" viewBox="0 0 24 24">
<title>slack</title>
<path d="M14.5 11c0.337 0 0.661-0.067 0.958-0.19 0.306-0.127 0.581-0.312 0.81-0.542s0.415-0.504 0.542-0.81c0.123-0.297 0.19-0.621 0.19-0.958v-5c0-0.337-0.067-0.661-0.19-0.958-0.127-0.306-0.312-0.581-0.542-0.81s-0.504-0.415-0.81-0.542c-0.297-0.123-0.621-0.19-0.958-0.19s-0.661 0.067-0.958 0.19c-0.306 0.127-0.581 0.312-0.81 0.542s-0.415 0.504-0.542 0.81c-0.123 0.297-0.19 0.621-0.19 0.958v5c0 0.337 0.067 0.661 0.19 0.958 0.127 0.306 0.312 0.581 0.542 0.81s0.504 0.415 0.81 0.542c0.297 0.123 0.621 0.19 0.958 0.19zM14.5 9c-0.071 0-0.135-0.014-0.193-0.038-0.060-0.025-0.115-0.062-0.162-0.108s-0.083-0.101-0.108-0.162c-0.023-0.057-0.037-0.121-0.037-0.192v-5c0-0.071 0.014-0.135 0.038-0.193 0.025-0.060 0.062-0.115 0.108-0.162s0.101-0.083 0.162-0.108c0.057-0.023 0.121-0.037 0.192-0.037s0.135 0.014 0.193 0.038c0.060 0.025 0.115 0.062 0.162 0.108s0.083 0.101 0.108 0.162c0.023 0.057 0.037 0.121 0.037 0.192v5c0 0.071-0.014 0.135-0.038 0.193-0.025 0.060-0.062 0.115-0.108 0.162s-0.101 0.083-0.162 0.108c-0.057 0.023-0.121 0.037-0.192 0.037zM20.5 11c0.337 0 0.661-0.067 0.958-0.19 0.306-0.127 0.581-0.312 0.81-0.542s0.415-0.504 0.542-0.81c0.123-0.297 0.19-0.621 0.19-0.958s-0.067-0.661-0.19-0.958c-0.127-0.306-0.312-0.581-0.542-0.81s-0.504-0.415-0.81-0.542c-0.297-0.123-0.621-0.19-0.958-0.19s-0.661 0.067-0.958 0.19c-0.306 0.127-0.581 0.312-0.81 0.542s-0.415 0.504-0.542 0.81c-0.123 0.297-0.19 0.621-0.19 0.958v1.5c0 0.552 0.448 1 1 1zM20.5 9h-0.5v-0.5c0-0.071 0.014-0.135 0.038-0.193 0.025-0.060 0.062-0.115 0.108-0.162s0.101-0.083 0.162-0.108c0.057-0.023 0.121-0.037 0.192-0.037s0.135 0.014 0.193 0.038c0.060 0.025 0.115 0.062 0.162 0.108s0.083 0.101 0.108 0.162c0.023 0.057 0.037 0.121 0.037 0.192s-0.014 0.135-0.038 0.193c-0.025 0.060-0.062 0.115-0.108 0.162s-0.101 0.083-0.162 0.108c-0.057 0.023-0.121 0.037-0.192 0.037zM9.5 13c-0.337 0-0.661 0.067-0.958 0.19-0.306 0.127-0.581 0.312-0.81 0.542s-0.415 0.504-0.542 0.81c-0.123 0.297-0.19 0.621-0.19 0.958v5c0 0.337 0.067 0.661 0.19 0.958 0.127 0.306 0.312 0.581 0.542 0.81s0.504 0.415 0.81 0.542c0.297 0.123 0.621 0.19 0.958 0.19s0.661-0.067 0.958-0.19c0.306-0.127 0.581-0.312 0.81-0.542s0.415-0.504 0.542-0.81c0.123-0.297 0.19-0.621 0.19-0.958v-5c0-0.337-0.067-0.661-0.19-0.958-0.127-0.306-0.312-0.581-0.542-0.81s-0.504-0.415-0.81-0.542c-0.297-0.123-0.621-0.19-0.958-0.19zM9.5 15c0.071 0 0.135 0.014 0.193 0.038 0.060 0.025 0.115 0.062 0.162 0.108s0.083 0.101 0.108 0.162c0.023 0.057 0.037 0.121 0.037 0.192v5c0 0.071-0.014 0.135-0.038 0.193-0.025 0.060-0.062 0.115-0.108 0.162s-0.101 0.083-0.162 0.108c-0.057 0.023-0.121 0.037-0.192 0.037s-0.135-0.014-0.193-0.038c-0.060-0.025-0.115-0.062-0.162-0.108s-0.083-0.101-0.108-0.162c-0.023-0.057-0.037-0.121-0.037-0.192v-5c0-0.071 0.014-0.135 0.038-0.193 0.025-0.060 0.062-0.115 0.108-0.162s0.101-0.083 0.162-0.108c0.057-0.023 0.121-0.037 0.192-0.037zM3.5 13c-0.337 0-0.661 0.067-0.958 0.19-0.306 0.127-0.581 0.312-0.81 0.542s-0.415 0.504-0.542 0.81c-0.123 0.297-0.19 0.621-0.19 0.958s0.067 0.661 0.19 0.958c0.127 0.306 0.312 0.581 0.542 0.81s0.504 0.415 0.81 0.542c0.297 0.123 0.621 0.19 0.958 0.19s0.661-0.067 0.958-0.19c0.306-0.127 0.581-0.312 0.81-0.542s0.415-0.504 0.542-0.81c0.123-0.297 0.19-0.621 0.19-0.958v-1.5c0-0.552-0.448-1-1-1zM3.5 15h0.5v0.5c0 0.071-0.014 0.135-0.038 0.193-0.025 0.060-0.062 0.115-0.108 0.162s-0.101 0.083-0.162 0.108c-0.057 0.023-0.121 0.037-0.192 0.037s-0.135-0.014-0.193-0.038c-0.060-0.025-0.115-0.062-0.162-0.108s-0.083-0.101-0.108-0.162c-0.023-0.057-0.037-0.121-0.037-0.192s0.014-0.135 0.038-0.193c0.025-0.060 0.062-0.115 0.108-0.162s0.101-0.083 0.162-0.108c0.057-0.023 0.121-0.037 0.192-0.037zM13 14.5c0 0.337 0.067 0.661 0.19 0.958 0.127 0.306 0.312 0.581 0.542 0.81s0.504 0.415 0.81 0.542c0.297 0.123 0.621 0.19 0.958 0.19h5c0.337 0 0.661-0.067 0.958-0.19 0.306-0.127 0.581-0.312 0.81-0.542s0.415-0.504 0.542-0.81c0.123-0.297 0.19-0.621 0.19-0.958s-0.067-0.661-0.19-0.958c-0.127-0.306-0.312-0.581-0.542-0.81s-0.504-0.415-0.81-0.542c-0.297-0.123-0.621-0.19-0.958-0.19h-5c-0.337 0-0.661 0.067-0.958 0.19-0.306 0.127-0.581 0.312-0.81 0.542s-0.415 0.504-0.542 0.81c-0.123 0.297-0.19 0.621-0.19 0.958zM15 14.5c0-0.071 0.014-0.135 0.038-0.193 0.025-0.060 0.062-0.115 0.108-0.162s0.101-0.083 0.162-0.108c0.057-0.023 0.121-0.037 0.192-0.037h5c0.071 0 0.135 0.014 0.193 0.038 0.060 0.025 0.115 0.062 0.162 0.108s0.083 0.101 0.108 0.162c0.023 0.057 0.037 0.121 0.037 0.192s-0.014 0.135-0.038 0.193c-0.025 0.060-0.062 0.115-0.108 0.162s-0.101 0.083-0.162 0.108c-0.057 0.023-0.121 0.037-0.192 0.037h-5c-0.071 0-0.135-0.014-0.193-0.038-0.060-0.025-0.115-0.062-0.162-0.108s-0.083-0.101-0.108-0.162c-0.023-0.057-0.037-0.121-0.037-0.192zM15.5 20c0.071 0 0.135 0.014 0.193 0.038 0.060 0.025 0.115 0.062 0.162 0.108s0.083 0.101 0.108 0.162c0.023 0.057 0.037 0.121 0.037 0.192s-0.014 0.135-0.038 0.193c-0.025 0.060-0.062 0.115-0.108 0.162s-0.101 0.083-0.162 0.108c-0.057 0.023-0.121 0.037-0.192 0.037s-0.135-0.014-0.193-0.038c-0.060-0.025-0.115-0.062-0.162-0.108s-0.083-0.101-0.108-0.162c-0.023-0.057-0.037-0.121-0.037-0.192v-0.5zM15.5 18h-1.5c-0.552 0-1 0.448-1 1v1.5c0 0.337 0.067 0.661 0.19 0.958 0.127 0.306 0.312 0.581 0.542 0.81s0.504 0.415 0.81 0.542c0.297 0.123 0.621 0.19 0.958 0.19s0.661-0.067 0.958-0.19c0.306-0.127 0.581-0.312 0.81-0.542s0.415-0.504 0.542-0.81c0.123-0.297 0.19-0.621 0.19-0.958s-0.067-0.661-0.19-0.958c-0.127-0.306-0.312-0.581-0.542-0.81s-0.504-0.415-0.81-0.542c-0.297-0.123-0.621-0.19-0.958-0.19zM9 9.5c0 0.071-0.014 0.135-0.038 0.193-0.025 0.060-0.062 0.115-0.108 0.162s-0.101 0.082-0.161 0.107c-0.058 0.024-0.122 0.038-0.193 0.038h-5c-0.071 0-0.135-0.014-0.193-0.038-0.060-0.025-0.115-0.062-0.162-0.108s-0.082-0.101-0.107-0.161c-0.024-0.058-0.038-0.122-0.038-0.193s0.014-0.135 0.038-0.193c0.025-0.060 0.062-0.115 0.108-0.162s0.101-0.083 0.162-0.108c0.057-0.023 0.121-0.037 0.192-0.037h5c0.071 0 0.135 0.014 0.193 0.038 0.060 0.025 0.115 0.062 0.162 0.108s0.083 0.101 0.108 0.162c0.023 0.057 0.037 0.121 0.037 0.192zM11 9.5c0-0.337-0.067-0.661-0.19-0.958-0.127-0.306-0.312-0.581-0.542-0.81s-0.504-0.415-0.81-0.542c-0.297-0.123-0.621-0.19-0.958-0.19h-5c-0.337 0-0.661 0.067-0.958 0.19-0.306 0.127-0.581 0.312-0.81 0.542s-0.415 0.504-0.542 0.81c-0.123 0.297-0.19 0.621-0.19 0.958s0.067 0.661 0.19 0.958c0.127 0.306 0.312 0.581 0.542 0.81s0.504 0.415 0.81 0.542c0.297 0.123 0.621 0.19 0.958 0.19h5c0.337 0 0.661-0.067 0.958-0.19 0.306-0.127 0.581-0.312 0.81-0.542s0.415-0.504 0.542-0.81c0.123-0.297 0.19-0.621 0.19-0.958zM8.5 4c-0.071 0-0.135-0.014-0.193-0.038-0.060-0.025-0.115-0.061-0.161-0.108s-0.083-0.101-0.108-0.161c-0.024-0.058-0.038-0.122-0.038-0.193s0.014-0.135 0.038-0.193c0.025-0.060 0.062-0.115 0.108-0.162s0.101-0.083 0.162-0.108c0.057-0.023 0.121-0.037 0.192-0.037s0.135 0.014 0.193 0.038c0.060 0.025 0.115 0.062 0.162 0.108s0.083 0.101 0.108 0.162c0.023 0.057 0.037 0.121 0.037 0.192v0.5zM8.5 6h1.5c0.552 0 1-0.448 1-1v-1.5c0-0.337-0.067-0.661-0.19-0.958-0.127-0.306-0.312-0.581-0.542-0.81s-0.504-0.415-0.81-0.542c-0.297-0.123-0.621-0.19-0.958-0.19s-0.661 0.067-0.958 0.19c-0.306 0.127-0.581 0.312-0.81 0.542s-0.415 0.504-0.542 0.81c-0.123 0.297-0.19 0.621-0.19 0.958s0.067 0.661 0.19 0.958c0.127 0.306 0.312 0.581 0.542 0.81s0.504 0.415 0.81 0.542c0.297 0.123 0.621 0.19 0.958 0.19z"></path>
</svg>
