<!-- Generated by IcoMoon.io -->
<svg version="1.1" xmlns="http://www.w3.org/2000/svg" width="24" height="24" viewBox="0 0 24 24">
<title>sunset</title>
<path d="M18 18c0-0.811-0.161-1.587-0.455-2.295-0.304-0.735-0.75-1.395-1.303-1.948-0.552-0.552-1.213-0.998-1.948-1.303-0.707-0.293-1.483-0.454-2.294-0.454s-1.587 0.161-2.295 0.455c-0.735 0.304-1.395 0.75-1.948 1.303s-0.998 1.213-1.303 1.948c-0.293 0.707-0.454 1.483-0.454 2.294 0 0.552 0.448 1 1 1s1-0.448 1-1c0-0.544 0.108-1.060 0.303-1.529 0.202-0.489 0.5-0.929 0.869-1.299s0.81-0.667 1.299-0.869c0.469-0.195 0.985-0.303 1.529-0.303s1.060 0.108 1.529 0.303c0.489 0.202 0.929 0.5 1.299 0.869s0.667 0.81 0.869 1.299c0.195 0.469 0.303 0.985 0.303 1.529 0 0.552 0.448 1 1 1s1-0.448 1-1zM3.513 10.927l1.42 1.42c0.391 0.391 1.024 0.391 1.414 0s0.391-1.024 0-1.414l-1.42-1.42c-0.391-0.391-1.024-0.391-1.414 0s-0.391 1.024 0 1.414zM1 19h2c0.552 0 1-0.448 1-1s-0.448-1-1-1h-2c-0.552 0-1 0.448-1 1s0.448 1 1 1zM21 19h2c0.552 0 1-0.448 1-1s-0.448-1-1-1h-2c-0.552 0-1 0.448-1 1s0.448 1 1 1zM19.067 12.347l1.42-1.42c0.391-0.391 0.391-1.024 0-1.414s-1.024-0.391-1.414 0l-1.42 1.42c-0.391 0.391-0.391 1.024 0 1.414s1.024 0.391 1.414 0zM23 21h-22c-0.552 0-1 0.448-1 1s0.448 1 1 1h22c0.552 0 1-0.448 1-1s-0.448-1-1-1zM15.293 4.293l-2.293 2.293v-4.586c0-0.552-0.448-1-1-1s-1 0.448-1 1v4.586l-2.293-2.293c-0.391-0.391-1.024-0.391-1.414 0s-0.391 1.024 0 1.414l4 4c0.002 0.002 0.004 0.004 0.006 0.006 0.095 0.093 0.203 0.163 0.318 0.211 0.12 0.050 0.249 0.075 0.377 0.076 0.004 0 0.008 0 0.011 0 0.128-0.001 0.257-0.026 0.377-0.076 0.116-0.048 0.224-0.118 0.318-0.211 0.002-0.002 0.004-0.004 0.006-0.006l4-4c0.391-0.391 0.391-1.024 0-1.414s-1.024-0.391-1.414 0z"></path>
</svg>
