<!-- Generated by IcoMoon.io -->
<svg version="1.1" xmlns="http://www.w3.org/2000/svg" width="24" height="24" viewBox="0 0 24 24">
<title>thermometer</title>
<path d="M13 14.76c0.002 0.329 0.161 0.646 0.453 0.837 0.349 0.228 0.686 0.554 0.958 0.96 0.264 0.396 0.437 0.823 0.523 1.26 0.090 0.454 0.088 0.919-0.001 1.368s-0.266 0.879-0.523 1.264c-0.247 0.37-0.57 0.699-0.966 0.964s-0.823 0.437-1.26 0.523c-0.454 0.090-0.919 0.088-1.368-0.001s-0.879-0.266-1.264-0.523c-0.37-0.247-0.699-0.57-0.964-0.966-0.264-0.396-0.437-0.823-0.523-1.26-0.090-0.454-0.088-0.919 0.001-1.368s0.266-0.879 0.523-1.264c0.247-0.37 0.57-0.699 0.966-0.964 0.27-0.18 0.445-0.485 0.445-0.83v-11.26c0-0.205 0.041-0.398 0.113-0.573 0.076-0.183 0.187-0.348 0.326-0.487s0.305-0.25 0.487-0.326c0.176-0.073 0.369-0.114 0.574-0.114s0.398 0.041 0.573 0.113c0.183 0.076 0.348 0.187 0.487 0.326s0.25 0.305 0.326 0.487c0.073 0.176 0.114 0.369 0.114 0.574zM15 14.256v-10.756c0-0.472-0.094-0.925-0.265-1.339-0.178-0.429-0.438-0.814-0.76-1.136s-0.707-0.582-1.136-0.76c-0.414-0.171-0.867-0.265-1.339-0.265s-0.925 0.094-1.339 0.265c-0.429 0.178-0.814 0.438-1.136 0.76s-0.582 0.707-0.76 1.136c-0.171 0.414-0.265 0.867-0.265 1.339v10.759c-0.421 0.347-0.781 0.747-1.073 1.185-0.405 0.606-0.682 1.282-0.821 1.985s-0.143 1.433-0.001 2.148c0.137 0.689 0.409 1.363 0.822 1.981s0.931 1.127 1.515 1.517c0.606 0.405 1.282 0.682 1.985 0.821s1.433 0.143 2.148 0.001c0.689-0.137 1.363-0.409 1.981-0.822s1.127-0.931 1.517-1.515c0.405-0.606 0.682-1.282 0.821-1.985 0.14-0.702 0.143-1.433 0.001-2.148-0.137-0.689-0.409-1.363-0.822-1.981-0.307-0.459-0.673-0.86-1.073-1.19z"></path>
</svg>
