<!-- Generated by IcoMoon.io -->
<svg version="1.1" xmlns="http://www.w3.org/2000/svg" width="24" height="24" viewBox="0 0 24 24">
<title>thumbs-up</title>
<path d="M6 12v9h-2c-0.137 0-0.266-0.027-0.382-0.075-0.122-0.050-0.232-0.125-0.325-0.218s-0.167-0.203-0.218-0.325c-0.048-0.116-0.075-0.245-0.075-0.382v-7c0-0.137 0.027-0.266 0.075-0.382 0.050-0.122 0.125-0.232 0.218-0.325s0.203-0.167 0.325-0.218c0.116-0.048 0.245-0.075 0.382-0.075zM15 8v-3c0-0.54-0.108-1.057-0.303-1.53-0.203-0.49-0.5-0.93-0.868-1.298s-0.809-0.666-1.299-0.869c-0.473-0.195-0.99-0.303-1.53-0.303-0.405 0-0.754 0.241-0.914 0.594l-3.736 8.406h-2.35c-0.405 0-0.793 0.081-1.148 0.228-0.368 0.152-0.698 0.375-0.974 0.651s-0.499 0.606-0.651 0.974c-0.146 0.354-0.227 0.742-0.227 1.147v7c0 0.405 0.081 0.793 0.228 1.148 0.152 0.368 0.375 0.698 0.651 0.974s0.606 0.499 0.974 0.651c0.354 0.146 0.742 0.227 1.147 0.227h14.28c0.369 0.004 0.737-0.063 1.077-0.191 0.351-0.132 0.67-0.328 0.944-0.573 0.256-0.229 0.472-0.502 0.638-0.807 0.162-0.298 0.275-0.627 0.33-0.976l1.38-9.002c0.061-0.401 0.039-0.797-0.053-1.17-0.095-0.387-0.266-0.746-0.498-1.060-0.231-0.314-0.524-0.584-0.865-0.79-0.329-0.199-0.7-0.336-1.1-0.397-0.165-0.025-0.333-0.037-0.492-0.034zM13 9c0 0.552 0.448 1 1 1h5.679c0.038-0.001 0.093 0.002 0.153 0.011 0.136 0.021 0.259 0.067 0.367 0.132 0.113 0.068 0.211 0.158 0.289 0.264s0.135 0.226 0.166 0.354c0.030 0.122 0.038 0.253 0.017 0.388l-1.38 8.998c-0.018 0.119-0.057 0.229-0.111 0.329-0.056 0.103-0.129 0.194-0.214 0.271-0.092 0.082-0.198 0.147-0.314 0.19-0.111 0.042-0.232 0.064-0.373 0.063h-10.279v-9.788l3.608-8.118c0.053 0.017 0.105 0.036 0.156 0.057 0.244 0.101 0.464 0.25 0.65 0.435s0.334 0.406 0.435 0.65c0.097 0.234 0.151 0.491 0.151 0.764z"></path>
</svg>
