<!-- Generated by IcoMoon.io -->
<svg version="1.1" xmlns="http://www.w3.org/2000/svg" width="24" height="24" viewBox="0 0 24 24">
<title>thumbs-down</title>
<path d="M18 12v-9h1.67c0.188-0.003 0.349 0.026 0.496 0.081 0.153 0.057 0.294 0.143 0.415 0.251 0.115 0.103 0.212 0.226 0.285 0.364 0.062 0.117 0.108 0.246 0.133 0.382v6.845c-0.026 0.147-0.076 0.282-0.144 0.403-0.080 0.143-0.185 0.269-0.311 0.372-0.119 0.098-0.256 0.175-0.403 0.227-0.143 0.050-0.297 0.076-0.458 0.074zM9 16v3c0 0.54 0.108 1.057 0.303 1.53 0.203 0.49 0.5 0.93 0.868 1.298s0.808 0.665 1.298 0.868c0.474 0.196 0.991 0.304 1.531 0.304 0.405 0 0.754-0.241 0.914-0.594l3.736-8.406h2.006c0.399 0.006 0.786-0.060 1.148-0.186 0.371-0.13 0.713-0.324 1.012-0.57 0.316-0.26 0.585-0.579 0.788-0.943 0.196-0.353 0.331-0.746 0.388-1.166 0.005-0.041 0.008-0.088 0.008-0.135v-7c0-0.042-0.003-0.089-0.009-0.137-0.055-0.395-0.178-0.768-0.358-1.106-0.185-0.347-0.428-0.656-0.717-0.914-0.305-0.273-0.661-0.49-1.052-0.636-0.378-0.141-0.788-0.214-1.194-0.207h-13.95c-0.369-0.004-0.737 0.063-1.077 0.191-0.351 0.132-0.67 0.328-0.944 0.573-0.255 0.228-0.472 0.501-0.638 0.806-0.162 0.298-0.275 0.628-0.329 0.976l-1.38 9.002c-0.061 0.401-0.039 0.797 0.053 1.17 0.095 0.387 0.266 0.746 0.498 1.060s0.524 0.584 0.865 0.79c0.329 0.199 0.7 0.337 1.1 0.397 0.164 0.026 0.332 0.038 0.491 0.035zM11 15c0-0.552-0.448-1-1-1h-5.679c-0.038 0.001-0.093-0.002-0.153-0.011-0.136-0.021-0.259-0.067-0.367-0.132-0.113-0.068-0.211-0.158-0.289-0.264s-0.135-0.226-0.166-0.354c-0.030-0.122-0.038-0.253-0.017-0.388l1.38-8.998c0.018-0.119 0.057-0.229 0.111-0.329 0.056-0.103 0.129-0.194 0.214-0.271 0.092-0.082 0.198-0.147 0.314-0.19 0.11-0.042 0.231-0.065 0.372-0.063h10.28v9.788l-3.608 8.118c-0.053-0.017-0.105-0.036-0.156-0.057-0.244-0.101-0.464-0.25-0.65-0.435-0.185-0.185-0.334-0.406-0.435-0.65-0.097-0.234-0.151-0.491-0.151-0.764z"></path>
</svg>
