<!-- Generated by IcoMoon.io -->
<svg version="1.1" xmlns="http://www.w3.org/2000/svg" width="24" height="24" viewBox="0 0 24 24">
<title>trending-up</title>
<path d="M17 7h3.586l-7.086 7.086-4.293-4.293c-0.391-0.391-1.024-0.391-1.414 0l-7.5 7.5c-0.391 0.391-0.391 1.024 0 1.414s1.024 0.391 1.414 0l6.793-6.793 4.293 4.293c0.391 0.391 1.024 0.391 1.414 0l7.793-7.793v3.586c0 0.552 0.448 1 1 1s1-0.448 1-1v-6c0-0.135-0.027-0.264-0.075-0.382-0.101-0.245-0.297-0.441-0.543-0.543-0.115-0.047-0.241-0.074-0.373-0.075-0.003 0-0.006 0-0.009 0h-6c-0.552 0-1 0.448-1 1s0.448 1 1 1z"></path>
</svg>
