<!-- Generated by IcoMoon.io -->
<svg version="1.1" xmlns="http://www.w3.org/2000/svg" width="24" height="24" viewBox="0 0 24 24">
<title>trending-down</title>
<path d="M17 19h6c0.003 0 0.005 0 0.008 0 0.132-0.001 0.258-0.028 0.374-0.075 0.245-0.101 0.441-0.298 0.543-0.543 0.048-0.115 0.074-0.241 0.075-0.374 0-0.003 0-0.005 0-0.008v-6c0-0.552-0.448-1-1-1s-1 0.448-1 1v3.586l-7.793-7.793c-0.391-0.391-1.024-0.391-1.414 0l-4.293 4.293-6.793-6.793c-0.391-0.391-1.024-0.391-1.414 0s-0.391 1.024 0 1.414l7.5 7.5c0.391 0.391 1.024 0.391 1.414 0l4.293-4.293 7.086 7.086h-3.586c-0.552 0-1 0.448-1 1s0.448 1 1 1z"></path>
</svg>
