<!-- Generated by IcoMoon.io -->
<svg version="1.1" xmlns="http://www.w3.org/2000/svg" width="24" height="24" viewBox="0 0 24 24">
<title>truck</title>
<path d="M15 15h-13v-11h13v4zM17 9h2.586l2.414 2.414v3.586h-5zM7 18.5c0 0.205-0.041 0.398-0.113 0.573-0.076 0.183-0.187 0.348-0.326 0.487s-0.305 0.25-0.487 0.326c-0.176 0.073-0.369 0.114-0.574 0.114s-0.398-0.041-0.573-0.113c-0.183-0.076-0.348-0.187-0.487-0.326s-0.25-0.305-0.326-0.487c-0.073-0.176-0.114-0.369-0.114-0.574s0.041-0.398 0.113-0.573c0.076-0.183 0.187-0.348 0.326-0.487s0.305-0.25 0.487-0.326c0.176-0.073 0.369-0.114 0.574-0.114s0.398 0.041 0.573 0.113c0.183 0.076 0.348 0.187 0.487 0.326s0.25 0.305 0.326 0.487c0.073 0.176 0.114 0.369 0.114 0.574zM22 18.5c0-0.472-0.094-0.925-0.265-1.339-0.023-0.054-0.046-0.108-0.072-0.161h1.337c0.552 0 1-0.448 1-1v-5c0-0.256-0.098-0.512-0.293-0.707l-3-3c-0.181-0.181-0.431-0.293-0.707-0.293h-3v-4c0-0.552-0.448-1-1-1h-15c-0.552 0-1 0.448-1 1v13c0 0.552 0.448 1 1 1h1.337c-0.025 0.053-0.049 0.107-0.072 0.161-0.171 0.414-0.265 0.867-0.265 1.339s0.094 0.925 0.265 1.339c0.178 0.429 0.438 0.814 0.76 1.136s0.707 0.582 1.136 0.76c0.414 0.171 0.867 0.265 1.339 0.265s0.925-0.094 1.339-0.265c0.429-0.178 0.814-0.438 1.136-0.76s0.582-0.707 0.76-1.136c0.171-0.414 0.265-0.867 0.265-1.339s-0.094-0.925-0.265-1.339c-0.023-0.054-0.047-0.108-0.072-0.161h6.674c-0.025 0.053-0.049 0.107-0.072 0.161-0.171 0.414-0.265 0.867-0.265 1.339s0.094 0.925 0.265 1.339c0.178 0.429 0.438 0.814 0.76 1.136s0.707 0.582 1.136 0.76c0.414 0.171 0.867 0.265 1.339 0.265s0.925-0.094 1.339-0.265c0.429-0.178 0.814-0.438 1.136-0.76s0.582-0.707 0.76-1.136c0.171-0.414 0.265-0.867 0.265-1.339zM20 18.5c0 0.205-0.041 0.398-0.113 0.573-0.076 0.183-0.187 0.348-0.326 0.487s-0.305 0.25-0.487 0.326c-0.176 0.073-0.369 0.114-0.574 0.114s-0.398-0.041-0.573-0.113c-0.183-0.076-0.348-0.187-0.487-0.326s-0.25-0.305-0.326-0.487c-0.073-0.176-0.114-0.369-0.114-0.574s0.041-0.398 0.113-0.573c0.076-0.183 0.187-0.348 0.326-0.487s0.305-0.25 0.487-0.326c0.176-0.073 0.369-0.114 0.574-0.114s0.398 0.041 0.573 0.113c0.183 0.076 0.348 0.187 0.487 0.326s0.25 0.305 0.326 0.487c0.073 0.176 0.114 0.369 0.114 0.574z"></path>
</svg>
