<!-- Generated by IcoMoon.io -->
<svg version="1.1" xmlns="http://www.w3.org/2000/svg" width="24" height="24" viewBox="0 0 24 24">
<title>tv</title>
<path d="M4 8h16c0.137 0 0.266 0.027 0.382 0.075 0.122 0.050 0.232 0.125 0.325 0.218s0.167 0.203 0.218 0.325c0.048 0.116 0.075 0.245 0.075 0.382v11c0 0.137-0.027 0.266-0.075 0.382-0.050 0.122-0.125 0.232-0.218 0.325s-0.203 0.167-0.325 0.218c-0.116 0.048-0.245 0.075-0.382 0.075h-16c-0.137 0-0.266-0.027-0.382-0.075-0.122-0.050-0.232-0.125-0.325-0.218s-0.167-0.203-0.218-0.325c-0.048-0.116-0.075-0.245-0.075-0.382v-11c0-0.137 0.027-0.266 0.075-0.382 0.050-0.122 0.125-0.232 0.218-0.325s0.203-0.167 0.325-0.218c0.116-0.048 0.245-0.075 0.382-0.075zM16.293 1.293l-4.293 4.293-4.293-4.293c-0.391-0.391-1.024-0.391-1.414 0s-0.391 1.024 0 1.414l3.293 3.293h-5.586c-0.405 0-0.793 0.081-1.148 0.228-0.367 0.152-0.697 0.375-0.973 0.651s-0.499 0.606-0.651 0.973c-0.147 0.355-0.228 0.743-0.228 1.148v11c0 0.405 0.081 0.793 0.228 1.148 0.152 0.368 0.375 0.698 0.651 0.974s0.606 0.499 0.974 0.651c0.354 0.146 0.742 0.227 1.147 0.227h16c0.405 0 0.793-0.081 1.148-0.228 0.368-0.152 0.698-0.375 0.974-0.651s0.499-0.606 0.651-0.974c0.146-0.354 0.227-0.742 0.227-1.147v-11c0-0.405-0.081-0.793-0.228-1.148-0.152-0.368-0.375-0.698-0.651-0.974s-0.606-0.499-0.974-0.651c-0.354-0.146-0.742-0.227-1.147-0.227h-5.586l3.293-3.293c0.391-0.391 0.391-1.024 0-1.414s-1.024-0.391-1.414 0z"></path>
</svg>
