<!-- Generated by IcoMoon.io -->
<svg version="1.1" xmlns="http://www.w3.org/2000/svg" width="24" height="24" viewBox="0 0 24 24">
<title>umbrella</title>
<path d="M23.995 11.905c-0.155-1.623-0.626-3.142-1.347-4.501-0.749-1.411-1.766-2.646-2.976-3.646s-2.616-1.765-4.143-2.233c-1.47-0.451-3.051-0.626-4.674-0.471-1.499 0.144-2.909 0.556-4.187 1.188-1.321 0.653-2.498 1.539-3.483 2.602-0.888 0.957-1.621 2.058-2.163 3.261-0.533 1.18-0.883 2.458-1.017 3.795-0.055 0.55 0.346 1.040 0.895 1.095 0.035 0.004 0.070 0.005 0.1 0.005h10v6c0 0.54 0.108 1.057 0.303 1.53 0.203 0.49 0.5 0.93 0.868 1.298s0.808 0.665 1.298 0.868c0.474 0.196 0.991 0.304 1.531 0.304s1.057-0.108 1.53-0.303c0.49-0.203 0.93-0.5 1.298-0.868s0.665-0.808 0.868-1.298c0.196-0.474 0.304-0.991 0.304-1.531 0-0.552-0.448-1-1-1s-1 0.448-1 1c0 0.273-0.054 0.53-0.151 0.765-0.101 0.244-0.25 0.464-0.435 0.65s-0.406 0.334-0.65 0.435c-0.234 0.096-0.491 0.15-0.764 0.15s-0.53-0.054-0.765-0.151c-0.244-0.101-0.464-0.25-0.65-0.435-0.185-0.185-0.334-0.406-0.435-0.65-0.096-0.234-0.15-0.491-0.15-0.764v-6h10c0.552 0 1-0.448 1-1 0-0.033-0.002-0.067-0.005-0.095zM21.84 11h-19.674c0.153-0.721 0.382-1.415 0.678-2.072 0.454-1.005 1.066-1.925 1.807-2.724 0.823-0.887 1.804-1.626 2.903-2.169 1.062-0.525 2.237-0.869 3.49-0.989 1.357-0.13 2.674 0.017 3.898 0.392 1.272 0.39 2.445 1.028 3.456 1.863s1.86 1.866 2.483 3.041c0.435 0.821 0.762 1.712 0.958 2.658z"></path>
</svg>
