<!-- Generated by IcoMoon.io -->
<svg version="1.1" xmlns="http://www.w3.org/2000/svg" width="24" height="24" viewBox="0 0 24 24">
<title>underline</title>
<path d="M5 3v7c0 0.946 0.188 1.851 0.53 2.677 0.355 0.857 0.875 1.628 1.52 2.273s1.415 1.165 2.273 1.52c0.826 0.342 1.731 0.53 2.677 0.53s1.851-0.188 2.677-0.53c0.857-0.355 1.628-0.875 2.273-1.52s1.165-1.415 1.52-2.273c0.342-0.826 0.53-1.731 0.53-2.677v-7c0-0.552-0.448-1-1-1s-1 0.448-1 1v7c0 0.679-0.135 1.324-0.378 1.912-0.253 0.611-0.624 1.162-1.086 1.624s-1.013 0.833-1.624 1.086c-0.588 0.243-1.233 0.378-1.912 0.378s-1.324-0.135-1.912-0.378c-0.611-0.253-1.162-0.624-1.624-1.086s-0.833-1.013-1.086-1.624c-0.243-0.588-0.378-1.233-0.378-1.912v-7c0-0.552-0.448-1-1-1s-1 0.448-1 1zM4 22h16c0.552 0 1-0.448 1-1s-0.448-1-1-1h-16c-0.552 0-1 0.448-1 1s0.448 1 1 1z"></path>
</svg>
