<!-- Generated by IcoMoon.io -->
<svg version="1.1" xmlns="http://www.w3.org/2000/svg" width="24" height="24" viewBox="0 0 24 24">
<title>users</title>
<path d="M18 21v-2c0-0.675-0.134-1.322-0.379-1.912-0.254-0.613-0.625-1.163-1.085-1.623s-1.011-0.832-1.623-1.085c-0.591-0.246-1.238-0.38-1.913-0.38h-8c-0.675 0-1.322 0.134-1.912 0.379-0.613 0.254-1.163 0.625-1.623 1.085s-0.832 1.011-1.085 1.623c-0.246 0.591-0.38 1.238-0.38 1.913v2c0 0.552 0.448 1 1 1s1-0.448 1-1v-2c0-0.408 0.081-0.795 0.227-1.147 0.152-0.366 0.375-0.697 0.652-0.974s0.608-0.5 0.974-0.652c0.352-0.146 0.739-0.227 1.147-0.227h8c0.408 0 0.795 0.081 1.147 0.227 0.366 0.152 0.697 0.375 0.974 0.652s0.5 0.608 0.652 0.974c0.146 0.352 0.227 0.739 0.227 1.147v2c0 0.552 0.448 1 1 1s1-0.448 1-1zM14 7c0-0.675-0.134-1.322-0.379-1.912-0.254-0.613-0.625-1.163-1.085-1.623s-1.011-0.832-1.623-1.085c-0.591-0.246-1.238-0.38-1.913-0.38s-1.322 0.134-1.912 0.379c-0.613 0.254-1.163 0.625-1.624 1.085s-0.831 1.011-1.085 1.624c-0.245 0.59-0.379 1.237-0.379 1.912s0.134 1.322 0.379 1.912c0.254 0.613 0.625 1.163 1.085 1.623s1.011 0.832 1.623 1.085c0.591 0.246 1.238 0.38 1.913 0.38s1.322-0.134 1.912-0.379c0.613-0.254 1.163-0.625 1.623-1.085s0.832-1.011 1.085-1.623c0.246-0.591 0.38-1.238 0.38-1.913zM12 7c0 0.408-0.081 0.795-0.227 1.147-0.152 0.366-0.375 0.697-0.652 0.974s-0.608 0.5-0.974 0.652c-0.352 0.146-0.739 0.227-1.147 0.227s-0.795-0.081-1.147-0.227c-0.366-0.152-0.697-0.374-0.974-0.652s-0.5-0.608-0.652-0.974c-0.146-0.352-0.227-0.739-0.227-1.147s0.081-0.795 0.227-1.147c0.152-0.366 0.375-0.697 0.652-0.974s0.608-0.5 0.974-0.652c0.352-0.146 0.739-0.227 1.147-0.227s0.795 0.081 1.147 0.227c0.366 0.152 0.697 0.375 0.974 0.652s0.5 0.608 0.652 0.974c0.146 0.352 0.227 0.739 0.227 1.147zM24 21v-2c0-0.611-0.111-1.198-0.314-1.742-0.21-0.562-0.517-1.075-0.902-1.519-0.652-0.753-1.528-1.311-2.529-1.576-0.534-0.141-1.081 0.177-1.222 0.711s0.177 1.081 0.711 1.222c0.607 0.161 1.136 0.498 1.528 0.952 0.232 0.267 0.415 0.575 0.54 0.909 0.121 0.324 0.188 0.675 0.188 1.043v2c0 0.552 0.448 1 1 1s1-0.448 1-1zM15.752 4.099c0.395 0.101 0.75 0.276 1.055 0.504 0.317 0.238 0.582 0.536 0.782 0.873s0.334 0.713 0.39 1.106c0.054 0.377 0.036 0.772-0.065 1.167-0.087 0.34-0.228 0.649-0.41 0.922-0.189 0.282-0.424 0.529-0.695 0.731-0.314 0.235-0.675 0.41-1.063 0.511-0.534 0.14-0.854 0.687-0.713 1.221s0.687 0.854 1.221 0.713c0.637-0.167 1.232-0.455 1.753-0.844 0.448-0.335 0.842-0.746 1.159-1.22 0.307-0.459 0.542-0.976 0.686-1.538 0.168-0.654 0.198-1.314 0.107-1.947-0.094-0.656-0.317-1.282-0.649-1.842s-0.773-1.056-1.303-1.454c-0.511-0.383-1.104-0.674-1.759-0.842-0.535-0.137-1.080 0.186-1.217 0.721s0.186 1.080 0.721 1.217z"></path>
</svg>
