<!-- Generated by IcoMoon.io -->
<svg version="1.1" xmlns="http://www.w3.org/2000/svg" width="24" height="24" viewBox="0 0 24 24">
<title>video-off</title>
<path d="M10.66 6h3.34c0.137 0 0.266 0.027 0.382 0.075 0.122 0.050 0.232 0.125 0.325 0.218s0.167 0.203 0.218 0.325c0.048 0.116 0.075 0.245 0.075 0.382v3.34c0 0.276 0.112 0.526 0.293 0.707l1 1c0.351 0.351 0.898 0.387 1.293 0.103l4.414-3.192v8.042c0 0.552 0.448 1 1 1s1-0.448 1-1v-10c0.001-0.201-0.061-0.408-0.19-0.586-0.324-0.447-0.949-0.548-1.396-0.224l-5.309 3.841-0.105-0.105v-2.926c0-0.405-0.081-0.793-0.228-1.148-0.152-0.368-0.375-0.698-0.651-0.974s-0.606-0.499-0.974-0.651c-0.354-0.146-0.742-0.227-1.147-0.227h-3.34c-0.552 0-1 0.448-1 1s0.448 1 1 1zM4.586 6l10.414 10.414v0.586c0 0.137-0.027 0.266-0.075 0.382-0.050 0.122-0.125 0.232-0.218 0.325s-0.203 0.167-0.325 0.218c-0.116 0.048-0.245 0.075-0.382 0.075h-11c-0.137 0-0.266-0.027-0.382-0.075-0.122-0.050-0.232-0.125-0.325-0.218s-0.167-0.203-0.218-0.325c-0.048-0.116-0.075-0.245-0.075-0.382v-10c0-0.137 0.027-0.266 0.075-0.382 0.050-0.122 0.125-0.232 0.218-0.325s0.203-0.167 0.325-0.218c0.116-0.048 0.245-0.075 0.382-0.075zM0.293 1.707l2.318 2.318c-0.265 0.034-0.519 0.103-0.759 0.203-0.367 0.152-0.697 0.375-0.973 0.651s-0.499 0.606-0.651 0.973c-0.147 0.355-0.228 0.743-0.228 1.148v10c0 0.405 0.081 0.793 0.228 1.148 0.152 0.368 0.375 0.698 0.651 0.974s0.606 0.499 0.974 0.651c0.354 0.146 0.742 0.227 1.147 0.227h11c0.405 0 0.793-0.081 1.148-0.228 0.368-0.152 0.698-0.375 0.974-0.651 0.269-0.269 0.488-0.589 0.64-0.946l5.532 5.532c0.391 0.391 1.024 0.391 1.414 0s0.391-1.024 0-1.414l-22.001-22c-0.391-0.391-1.024-0.391-1.414 0-0.39 0.39-0.391 1.023 0 1.414z"></path>
</svg>
