<!-- Generated by IcoMoon.io -->
<svg version="1.1" xmlns="http://www.w3.org/2000/svg" width="24" height="24" viewBox="0 0 24 24">
<title>voicemail</title>
<path d="M9 11.5c0 0.476-0.094 0.927-0.265 1.338-0.177 0.428-0.437 0.813-0.76 1.137s-0.709 0.583-1.137 0.76c-0.411 0.171-0.862 0.265-1.338 0.265s-0.927-0.094-1.338-0.265c-0.428-0.177-0.813-0.437-1.137-0.76s-0.583-0.709-0.76-1.137c-0.171-0.411-0.265-0.862-0.265-1.338s0.094-0.927 0.265-1.338c0.177-0.428 0.437-0.813 0.76-1.137s0.709-0.583 1.137-0.76c0.411-0.171 0.862-0.265 1.338-0.265s0.927 0.094 1.338 0.265c0.428 0.177 0.813 0.437 1.137 0.76s0.583 0.709 0.76 1.137c0.171 0.411 0.265 0.862 0.265 1.338zM22 11.5c0 0.476-0.094 0.927-0.265 1.338-0.177 0.428-0.437 0.813-0.76 1.137s-0.709 0.583-1.137 0.76c-0.411 0.171-0.862 0.265-1.338 0.265s-0.927-0.094-1.338-0.265c-0.428-0.177-0.813-0.437-1.137-0.76s-0.583-0.709-0.76-1.137c-0.171-0.411-0.265-0.862-0.265-1.338s0.094-0.927 0.265-1.338c0.177-0.428 0.437-0.813 0.76-1.137s0.709-0.583 1.137-0.76c0.411-0.171 0.862-0.265 1.338-0.265s0.927 0.094 1.338 0.265c0.428 0.177 0.813 0.437 1.137 0.76s0.583 0.709 0.76 1.137c0.171 0.411 0.265 0.862 0.265 1.338zM5.5 17h13c0.743 0 1.454-0.148 2.104-0.417 0.674-0.279 1.279-0.688 1.786-1.194s0.915-1.112 1.194-1.786c0.268-0.649 0.416-1.36 0.416-2.103s-0.148-1.454-0.417-2.104c-0.279-0.674-0.688-1.279-1.194-1.786s-1.112-0.915-1.786-1.194c-0.649-0.268-1.36-0.416-2.103-0.416s-1.454 0.148-2.104 0.417c-0.674 0.279-1.279 0.688-1.786 1.194s-0.915 1.112-1.194 1.786c-0.268 0.649-0.416 1.36-0.416 2.103s0.148 1.454 0.417 2.104c0.211 0.509 0.495 0.979 0.84 1.396h-4.514c0.345-0.418 0.63-0.888 0.84-1.396 0.269-0.65 0.417-1.361 0.417-2.104s-0.148-1.454-0.417-2.104c-0.279-0.674-0.688-1.279-1.194-1.786s-1.112-0.914-1.785-1.193c-0.65-0.269-1.361-0.417-2.104-0.417s-1.454 0.148-2.104 0.417c-0.673 0.279-1.279 0.688-1.785 1.194s-0.915 1.112-1.194 1.785c-0.269 0.65-0.417 1.361-0.417 2.104s0.148 1.454 0.417 2.104c0.279 0.674 0.688 1.279 1.194 1.786s1.112 0.915 1.786 1.194c0.649 0.268 1.36 0.416 2.103 0.416z"></path>
</svg>
