<!-- Generated by IcoMoon.io -->
<svg version="1.1" xmlns="http://www.w3.org/2000/svg" width="24" height="24" viewBox="0 0 24 24">
<title>volume-2</title>
<path d="M10 7.081v9.839l-3.375-2.7c-0.17-0.137-0.388-0.22-0.625-0.22h-3v-4h3c0.218 0.001 0.439-0.071 0.625-0.219zM10.375 4.219l-4.726 3.781h-3.649c-0.552 0-1 0.448-1 1v6c0 0.552 0.448 1 1 1h3.649l4.726 3.781c0.431 0.345 1.061 0.275 1.406-0.156 0.148-0.185 0.22-0.407 0.219-0.625v-14c0-0.552-0.448-1-1-1-0.237 0-0.455 0.083-0.625 0.219zM18.363 5.637c0.863 0.863 1.513 1.856 1.951 2.915 0.456 1.1 0.684 2.274 0.684 3.448s-0.228 2.348-0.684 3.448c-0.438 1.059-1.088 2.051-1.951 2.915-0.39 0.391-0.39 1.024 0 1.414s1.024 0.39 1.414 0c1.052-1.052 1.847-2.266 2.384-3.563 0.558-1.347 0.836-2.78 0.836-4.213s-0.278-2.867-0.836-4.214c-0.537-1.297-1.333-2.512-2.385-3.564-0.39-0.391-1.024-0.391-1.414 0s-0.391 1.024 0 1.414zM14.833 9.167c0.384 0.384 0.673 0.826 0.867 1.295 0.202 0.489 0.304 1.010 0.304 1.533 0 0.522-0.102 1.044-0.304 1.533-0.195 0.47-0.483 0.911-0.867 1.295-0.39 0.391-0.39 1.024 0 1.414s1.024 0.39 1.414 0c0.573-0.573 1.007-1.236 1.301-1.944 0.304-0.735 0.456-1.517 0.456-2.298s-0.152-1.563-0.456-2.298c-0.293-0.708-0.727-1.371-1.301-1.944-0.39-0.391-1.024-0.391-1.414 0s-0.391 1.024 0 1.414z"></path>
</svg>
