<!-- Generated by IcoMoon.io -->
<svg version="1.1" xmlns="http://www.w3.org/2000/svg" width="24" height="24" viewBox="0 0 24 24">
<title>wifi-off</title>
<path d="M16.281 11.959c0.789 0.385 1.498 0.857 2.064 1.347 0.418 0.361 1.049 0.316 1.411-0.102s0.316-1.049-0.102-1.411c-0.703-0.609-1.559-1.175-2.496-1.633-0.496-0.242-1.095-0.036-1.337 0.46s-0.036 1.095 0.46 1.337zM10.79 6.047c1.973-0.159 3.885 0.071 5.662 0.625 1.847 0.576 3.552 1.502 5.030 2.708 0.148 0.121 0.293 0.244 0.436 0.37 0.414 0.365 1.046 0.325 1.411-0.089s0.325-1.046-0.089-1.411c-0.162-0.143-0.327-0.282-0.494-0.419-1.673-1.365-3.604-2.415-5.699-3.068-2.018-0.629-4.186-0.889-6.418-0.709-0.55 0.044-0.96 0.526-0.916 1.076s0.527 0.961 1.077 0.916zM9.109 16.925c0.488-0.347 1.016-0.593 1.558-0.743 0.561-0.155 1.141-0.208 1.715-0.163 0.891 0.070 1.765 0.378 2.523 0.909 0.233 0.163 0.512 0.213 0.77 0.162l6.617 6.617c0.391 0.391 1.024 0.391 1.414 0s0.391-1.024 0-1.414l-12.75-12.75c-0.050-0.063-0.106-0.12-0.169-0.169l-9.080-9.081c-0.391-0.391-1.024-0.391-1.414 0-0.39 0.39-0.391 1.023 0 1.414l4.088 4.088c-1.257 0.629-2.49 1.453-3.623 2.455-0.414 0.366-0.453 0.998-0.087 1.412s0.998 0.453 1.411 0.087c1.191-1.053 2.499-1.877 3.802-2.451l2.323 2.323c-1.358 0.457-2.671 1.177-3.849 2.161-0.424 0.354-0.48 0.985-0.126 1.409s0.985 0.48 1.409 0.126c1.27-1.062 2.724-1.75 4.188-2.074l2.789 2.789c-0.026-0.002-0.052-0.005-0.078-0.007-0.802-0.063-1.616 0.011-2.405 0.229-0.765 0.211-1.504 0.557-2.184 1.040-0.45 0.32-0.556 0.944-0.236 1.394s0.944 0.556 1.394 0.236zM13 20c0-0.552-0.448-1-1-1s-1 0.448-1 1 0.448 1 1 1 1-0.448 1-1z"></path>
</svg>
