<!-- Generated by IcoMoon.io -->
<svg version="1.1" xmlns="http://www.w3.org/2000/svg" width="24" height="24" viewBox="0 0 24 24">
<title>wifi</title>
<path d="M5.64 13.318c0.965-0.804 2.035-1.394 3.155-1.777 1.158-0.396 2.372-0.57 3.579-0.527 1.095 0.039 2.183 0.257 3.219 0.65 1.015 0.385 1.98 0.939 2.852 1.658 0.426 0.351 1.056 0.291 1.408-0.135s0.291-1.056-0.135-1.408c-1.042-0.86-2.198-1.523-3.415-1.985-1.241-0.471-2.545-0.732-3.857-0.779-1.447-0.052-2.904 0.157-4.297 0.634-1.347 0.461-2.632 1.17-3.788 2.133-0.424 0.353-0.482 0.984-0.128 1.408s0.984 0.482 1.408 0.128zM2.081 9.75c1.444-1.273 3.062-2.217 4.765-2.838 1.764-0.643 3.621-0.942 5.471-0.899 1.743 0.040 3.48 0.382 5.126 1.022 1.604 0.624 3.122 1.531 4.478 2.717 0.416 0.364 1.047 0.322 1.411-0.094s0.322-1.047-0.094-1.411c-1.533-1.342-3.253-2.369-5.070-3.076-1.864-0.725-3.831-1.113-5.805-1.158-2.095-0.048-4.201 0.29-6.203 1.020-1.933 0.706-3.768 1.777-5.401 3.217-0.415 0.365-0.454 0.997-0.089 1.411s0.997 0.454 1.411 0.089zM9.109 16.925c0.488-0.347 1.016-0.593 1.558-0.743 0.561-0.155 1.141-0.208 1.715-0.163 0.891 0.070 1.765 0.378 2.523 0.909 0.452 0.317 1.076 0.207 1.393-0.245s0.207-1.076-0.245-1.393c-1.053-0.738-2.269-1.167-3.514-1.265-0.802-0.063-1.616 0.011-2.405 0.229-0.765 0.211-1.504 0.557-2.184 1.040-0.45 0.32-0.556 0.944-0.236 1.394s0.944 0.556 1.394 0.236zM13 20c0-0.552-0.448-1-1-1s-1 0.448-1 1 0.448 1 1 1 1-0.448 1-1z"></path>
</svg>
