<!-- Generated by IcoMoon.io -->
<svg version="1.1" xmlns="http://www.w3.org/2000/svg" width="24" height="24" viewBox="0 0 24 24">
<title>wind</title>
<path d="M10.299 5.295c0.097-0.097 0.207-0.169 0.323-0.218 0.121-0.051 0.252-0.077 0.383-0.077s0.262 0.025 0.384 0.075c0.117 0.048 0.227 0.119 0.324 0.216s0.169 0.207 0.218 0.323c0.051 0.121 0.077 0.252 0.077 0.383s-0.025 0.262-0.075 0.384c-0.048 0.117-0.119 0.227-0.216 0.324-0.096 0.096-0.204 0.168-0.319 0.216-0.119 0.051-0.248 0.077-0.378 0.079h-9.020c-0.552 0-1 0.448-1 1s0.448 1 1 1h9.043c0.386-0.004 0.772-0.083 1.135-0.236 0.35-0.148 0.677-0.365 0.959-0.648 0.285-0.287 0.502-0.619 0.648-0.974 0.151-0.368 0.226-0.76 0.225-1.15s-0.080-0.782-0.233-1.149c-0.148-0.354-0.367-0.685-0.653-0.97s-0.619-0.502-0.974-0.648c-0.369-0.151-0.76-0.226-1.15-0.225s-0.781 0.078-1.148 0.232c-0.355 0.148-0.686 0.366-0.971 0.653-0.39 0.392-0.388 1.025 0.004 1.414s1.025 0.387 1.414-0.004zM11.881 20.115c0.285 0.287 0.616 0.505 0.97 0.653 0.367 0.153 0.758 0.23 1.148 0.232s0.781-0.073 1.15-0.225c0.355-0.146 0.687-0.362 0.974-0.648s0.505-0.616 0.653-0.97c0.153-0.367 0.23-0.758 0.232-1.148s-0.073-0.781-0.225-1.15c-0.146-0.355-0.362-0.687-0.648-0.974-0.282-0.284-0.609-0.5-0.959-0.648-0.363-0.153-0.749-0.232-1.135-0.236l-12.041-0.001c-0.552 0-1 0.448-1 1s0.448 1 1 1h12.020c0.13 0.002 0.259 0.028 0.379 0.079 0.115 0.049 0.223 0.12 0.319 0.216 0.097 0.097 0.168 0.208 0.216 0.324 0.050 0.122 0.075 0.252 0.075 0.384s-0.026 0.262-0.077 0.383c-0.049 0.116-0.121 0.226-0.218 0.323s-0.208 0.168-0.324 0.216c-0.122 0.050-0.253 0.075-0.385 0.075s-0.262-0.026-0.383-0.077c-0.116-0.049-0.226-0.121-0.323-0.218-0.389-0.392-1.023-0.394-1.414-0.004s-0.394 1.023-0.004 1.414zM18.436 8.438c0.145-0.145 0.31-0.252 0.486-0.325 0.183-0.075 0.379-0.113 0.575-0.113s0.392 0.039 0.575 0.115c0.175 0.073 0.34 0.181 0.485 0.326s0.252 0.31 0.325 0.486c0.075 0.183 0.113 0.379 0.113 0.575s-0.039 0.392-0.115 0.575c-0.073 0.175-0.181 0.34-0.326 0.485s-0.309 0.252-0.484 0.324c-0.181 0.075-0.376 0.114-0.572 0.114h-17.498c-0.552 0-1 0.448-1 1s0.448 1 1 1h17.502c0.453-0.001 0.908-0.089 1.335-0.266 0.412-0.171 0.797-0.423 1.131-0.756s0.588-0.72 0.76-1.133c0.178-0.429 0.267-0.885 0.268-1.34s-0.087-0.912-0.264-1.341c-0.171-0.414-0.424-0.801-0.757-1.135s-0.72-0.588-1.133-0.76c-0.431-0.179-0.887-0.268-1.342-0.269s-0.912 0.087-1.341 0.264c-0.414 0.171-0.801 0.424-1.135 0.757-0.391 0.39-0.392 1.023-0.002 1.414s1.023 0.392 1.414 0.002z"></path>
</svg>
