<!-- Generated by IcoMoon.io -->
<svg version="1.1" xmlns="http://www.w3.org/2000/svg" width="24" height="24" viewBox="0 0 24 24">
<title>youtube</title>
<path d="M21.563 6.637c0.287 1.529 0.448 3.295 0.437 5.125 0.019 1.528-0.123 3.267-0.437 5.021-0.057 0.208-0.15 0.403-0.272 0.575-0.116 0.164-0.259 0.307-0.423 0.423-0.159 0.112-0.339 0.2-0.526 0.253-0.101 0.027-0.252 0.057-0.457 0.088-0.226 0.034-0.496 0.066-0.802 0.095-0.751 0.071-1.677 0.122-2.618 0.158-0.742 0.028-1.485 0.047-2.147 0.060-0.53 0.010-1.007 0.016-1.389 0.020-0.574 0.005-0.929 0.005-0.929 0.005s-0.355 0-0.928-0.005c-0.382-0.004-0.859-0.010-1.389-0.020-0.662-0.013-1.406-0.032-2.147-0.060-0.941-0.036-1.867-0.087-2.618-0.158-0.307-0.029-0.577-0.061-0.802-0.095-0.205-0.031-0.355-0.061-0.446-0.085-0.205-0.057-0.396-0.148-0.566-0.268-0.164-0.116-0.308-0.258-0.424-0.422-0.105-0.148-0.189-0.316-0.246-0.501-0.286-1.526-0.445-3.286-0.434-5.11-0.021-1.54 0.121-3.292 0.437-5.060 0.057-0.208 0.15-0.403 0.272-0.575 0.116-0.164 0.259-0.307 0.423-0.423 0.159-0.112 0.339-0.2 0.526-0.253 0.101-0.027 0.252-0.057 0.457-0.088 0.226-0.034 0.496-0.066 0.802-0.095 0.751-0.071 1.677-0.122 2.618-0.158 0.742-0.028 1.485-0.047 2.147-0.060 1.327-0.024 2.318-0.024 2.318-0.024s0.992 0 2.318 0.023c0.663 0.012 1.406 0.029 2.148 0.055 0.944 0.033 1.874 0.080 2.629 0.145 0.307 0.026 0.578 0.055 0.805 0.087 0.205 0.028 0.358 0.056 0.422 0.071 0.219 0.063 0.421 0.165 0.598 0.299 0.16 0.121 0.299 0.268 0.409 0.435 0.103 0.155 0.183 0.33 0.234 0.522zM23.51 6.177c-0.106-0.425-0.281-0.816-0.512-1.165-0.238-0.36-0.534-0.672-0.871-0.927-0.373-0.282-0.796-0.494-1.249-0.625-0.238-0.059-0.465-0.098-0.704-0.131-0.272-0.038-0.579-0.070-0.907-0.098-0.804-0.069-1.774-0.117-2.731-0.151-0.757-0.026-1.513-0.044-2.183-0.056-1.342-0.024-2.353-0.024-2.353-0.024s-0.367 0-0.948 0.006c-0.387 0.004-0.871 0.010-1.408 0.020-0.671 0.013-1.428 0.032-2.186 0.061-0.955 0.037-1.923 0.089-2.728 0.165-0.33 0.031-0.639 0.067-0.914 0.108-0.241 0.037-0.473 0.080-0.674 0.134-0.435 0.123-0.822 0.31-1.163 0.551-0.353 0.249-0.656 0.554-0.901 0.899-0.27 0.381-0.469 0.811-0.587 1.268-0.006 0.024-0.011 0.049-0.015 0.071-0.343 1.898-0.499 3.793-0.476 5.481-0.012 1.924 0.161 3.831 0.477 5.502 0.006 0.031 0.013 0.062 0.021 0.088 0.12 0.421 0.308 0.807 0.55 1.149 0.25 0.353 0.556 0.655 0.902 0.899 0.357 0.252 0.757 0.442 1.181 0.561 0.212 0.057 0.444 0.1 0.686 0.137 0.274 0.041 0.584 0.077 0.913 0.108 0.805 0.076 1.774 0.128 2.729 0.165 0.758 0.029 1.514 0.048 2.186 0.061 1.343 0.026 2.355 0.026 2.355 0.026s1.012 0 2.356-0.026c0.671-0.013 1.428-0.032 2.186-0.061 0.955-0.037 1.924-0.089 2.729-0.165 0.33-0.031 0.639-0.067 0.913-0.108 0.241-0.036 0.473-0.080 0.675-0.134 0.435-0.123 0.821-0.31 1.163-0.551 0.353-0.249 0.656-0.554 0.9-0.899 0.27-0.381 0.47-0.811 0.587-1.268 0.006-0.025 0.012-0.050 0.015-0.071 0.34-1.884 0.496-3.765 0.476-5.44 0.012-1.925-0.161-3.833-0.477-5.504-0.004-0.020-0.008-0.040-0.012-0.057zM10.75 13.301v-3.102l2.727 1.551zM10.244 15.889l5.75-3.27c0.48-0.273 0.648-0.884 0.375-1.364-0.093-0.164-0.226-0.292-0.375-0.375l-5.75-3.27c-0.48-0.273-1.091-0.105-1.364 0.375-0.090 0.158-0.132 0.33-0.131 0.494v6.54c0 0.552 0.448 1 1 1 0.182 0 0.352-0.049 0.494-0.131z"></path>
</svg>
