<?xml version="1.0" standalone="no"?>
<!DOCTYPE svg PUBLIC "-//W3C//DTD SVG 1.1//EN" "http://www.w3.org/Graphics/SVG/1.1/DTD/svg11.dtd" >
<svg>
<metadata>
Created by FontForge 20110222 at Tue Aug 18 17:42:47 2015
 By www-data
(c)2009 Kai Bernau and Commercial Type.
</metadata>
<defs>
<font id="LyonText-Regular" horiz-adv-x="600" >
  <font-face 
    font-family="Lyon Text Regular"
    font-weight="400"
    font-stretch="normal"
    units-per-em="1000"
    panose-1="2 0 5 3 7 0 0 2 0 4"
    ascent="760"
    descent="-240"
    x-height="470"
    cap-height="664"
    bbox="-169 -267 1235 1098"
    underline-thickness="50"
    underline-position="-50"
    stemh="43"
    stemv="85"
    unicode-range="U+0020-FB04"
  />
<missing-glyph horiz-adv-x="500" 
 />
    <glyph glyph-name="f_b" unicode="fb" horiz-adv-x="849" 
d="M33 0v34l63 21v365h-72v41l71 20c10 162 102 265 235 265c34 0 61 -8 82 -19l64 19v-340c18 25 66 77 147 77c93 0 190 -64 190 -227c0 -155 -130 -272 -266 -272c-56 0 -95 9 -119 19l-37 16v640c-22 25 -53 45 -87 45c-68 0 -123 -35 -123 -190v-44h136v-51h-136v-364
l90 -21v-34h-238zM578 416c-48 0 -85 -29 -102 -45v-303s44 -40 103 -40c73 0 146 66 146 198c0 116 -61 190 -147 190z" />
    <glyph glyph-name="f_f" unicode="ff" horiz-adv-x="628" 
d="M324 0v34l57 21v368h-200v-368l57 -21v-34h-205v34l63 21v365h-72v41l73 20c3 133 123 238 238 238c52 0 92 -21 112 -47c40 48 94 74 145 74c79 0 128 -47 128 -90c0 -26 -20 -52 -52 -52c-13 0 -24 4 -24 4l-24 83s-18 12 -46 12c-61 0 -108 -44 -108 -154v-79h136v-47
h-136v-368l90 -21v-34h-232zM381 470c0 42 6 80 18 114l-27 73c-11 7 -29 19 -60 19c-62 0 -131 -39 -131 -201v-5h200z" />
    <glyph glyph-name="f_f_b" unicode="ffb" horiz-adv-x="1134" 
d="M324 34l57 21v368h-200v-368l57 -21v-34h-205v34l63 21v365h-72v41l73 20c3 133 123 238 238 238c52 0 92 -21 112 -47c42 48 101 74 168 74c34 0 61 -8 82 -19l64 19v-340c18 25 66 77 147 77c93 0 190 -64 190 -227c0 -155 -130 -272 -266 -272c-56 0 -95 9 -119 19
l-37 16v640c-22 25 -53 45 -87 45c-68 0 -123 -35 -123 -190v-44h136v-47h-136v-368l90 -21v-34h-232v34zM863 416c-48 0 -85 -29 -102 -45v-303s44 -40 103 -40c73 0 146 66 146 198c0 116 -61 190 -147 190zM381 470c0 43 6 81 17 115l-26 72c-11 7 -29 19 -60 19
c-62 0 -131 -39 -131 -201v-5h200z" />
    <glyph glyph-name="f_f_h" unicode="ffh" horiz-adv-x="1151" 
d="M621 0v34l55 22v603c-22 25 -53 45 -87 45c-68 0 -123 -35 -123 -190v-44h136v-47h-136v-368l64 -21v-34h-206v34l57 21v368h-200v-368l57 -21v-34h-205v34l63 21v365h-72v41l73 20c3 133 123 238 238 238c52 0 92 -21 112 -47c42 48 101 74 168 74c35 0 62 -8 83 -19
l63 19v-354c17 21 80 91 163 91c93 0 136 -40 136 -168v-261l65 -21v-33h-207v34l57 20v253c-4 70 -25 109 -92 109c-65 0 -122 -55 -122 -57v-305l66 -20v-34h-206zM381 470c0 43 6 81 17 115l-26 72c-11 7 -29 19 -60 19c-62 0 -131 -39 -131 -201v-5h200z" />
    <glyph glyph-name="f_f_i" unicode="ffi" horiz-adv-x="855" 
d="M619 0v34l55 21v368h-208v-368l66 -21v-34h-214v34l63 21v368h-200v-368l57 -21v-34h-205v34l63 21v365h-72v41l73 20c3 133 123 238 238 238c54 0 94 -22 114 -49c44 49 106 76 168 76c78 0 134 -46 134 -92c0 -28 -21 -50 -55 -50c-14 0 -25 4 -25 4l-24 82
s-21 14 -55 14c-65 0 -126 -40 -126 -211v-23h231l60 13v-428l75 -21v-34h-213zM381 479c-1 39 5 75 17 107l-26 71c-11 7 -29 19 -60 19c-62 0 -131 -39 -131 -201v-5h200v9z" />
    <glyph glyph-name="f_f_j" unicode="ffj" horiz-adv-x="843" 
d="M381 55v368h-200v-368l57 -21v-34h-205v34l63 21v365h-72v41l73 20c3 133 123 238 238 238c54 0 94 -22 114 -49c44 49 106 76 168 76c78 0 134 -46 134 -92c0 -28 -21 -50 -55 -50c-14 0 -25 4 -25 4l-24 82s-21 14 -55 14c-65 0 -126 -40 -126 -211v-23h231l60 13v-457
c0 -66 -8 -126 -31 -173c-28 -58 -82 -96 -141 -104l-5 29c67 22 94 100 94 248v397h-208v-368l90 -21v-34h-238v34zM181 475v-5h200v9c-1 39 5 75 17 107l-26 71c-11 7 -29 19 -60 19c-62 0 -131 -39 -131 -201z" />
    <glyph glyph-name="f_f_k" unicode="ffk" horiz-adv-x="1105" 
d="M621 0v34l55 22v603c-22 25 -53 45 -87 45c-68 0 -123 -35 -123 -190v-44h136v-47h-136v-368l64 -21v-34h-206v34l57 21v368h-200v-368l57 -21v-34h-205v34l63 21v365h-72v41l73 20c3 133 123 238 238 238c52 0 92 -21 112 -47c42 48 101 74 168 74c35 0 62 -8 83 -19
l63 19v-692l66 -20v-34h-206zM1041 -17c-30 -1 -61 16 -103 70l-172 225v2l36 11l140 128l-61 20v31h202v-28l-67 -17l-162 -137l239 -283s-15 -21 -52 -22zM381 470c0 43 6 81 17 115l-26 72c-11 7 -29 19 -60 19c-62 0 -131 -39 -131 -201v-5h200z" />
    <glyph glyph-name="f_f_l" unicode="ffl" horiz-adv-x="869" 
d="M619 0v34l58 21v368h-211v-368l67 -21v-34h-209v34l57 21v368h-200v-368l57 -21v-34h-205v34l63 21v365h-72v41l73 20c3 133 123 238 238 238c53 0 92 -21 113 -47c40 47 96 74 156 74c40 0 70 -8 92 -20l65 20v-691l74 -21v-34h-216zM466 514v-44h211v188
c-22 26 -53 46 -88 46c-72 0 -123 -35 -123 -190zM381 475c0 40 6 77 17 109l-26 73c-11 7 -29 19 -60 19c-62 0 -131 -39 -131 -201v-5h200v5z" />
    <glyph glyph-name="f_h" unicode="fh" horiz-adv-x="866" 
d="M336 0v34l55 22v603c-22 25 -53 45 -87 45c-68 0 -123 -35 -123 -190v-44h136v-51h-136v-364l64 -21v-34h-212v34l63 21v365h-72v41l71 20c10 162 102 265 235 265c35 0 62 -8 83 -19l63 19v-354c17 21 80 91 163 91c93 0 136 -40 136 -168v-261l65 -21v-33h-207v34
l57 20v253c-4 70 -25 109 -92 109c-65 0 -122 -55 -122 -57v-305l66 -20v-34h-206z" />
    <glyph glyph-name="f_i" unicode="fi" horiz-adv-x="570" 
d="M334 0v34l55 21v368h-208v-368l66 -21v-34h-214v34l63 21v365h-72v41l71 20c11 164 116 265 237 265c78 0 134 -46 134 -92c0 -28 -21 -50 -55 -50c-14 0 -25 4 -25 4l-24 82s-21 14 -55 14c-65 0 -126 -40 -126 -211v-23h231l60 13v-428l75 -21v-34h-213z" />
    <glyph glyph-name="f_j" unicode="fj" horiz-adv-x="558" 
d="M300 -251l-5 29c67 22 94 100 94 248v397h-208v-368l90 -21v-34h-238v34l63 21v365h-72v41l71 20c11 164 116 265 237 265c78 0 134 -46 134 -92c0 -28 -21 -50 -55 -50c-14 0 -25 4 -25 4l-24 82s-21 14 -55 14c-65 0 -126 -40 -126 -211v-23h231l60 13v-457
c0 -66 -8 -126 -31 -173c-28 -58 -82 -96 -141 -104z" />
    <glyph glyph-name="f_k" unicode="fk" horiz-adv-x="820" 
d="M336 0v34l55 22v603c-22 25 -53 45 -87 45c-68 0 -123 -35 -123 -190v-44h136v-51h-136v-364l64 -21v-34h-212v34l63 21v365h-72v41l71 20c10 162 102 265 235 265c35 0 62 -8 83 -19l63 19v-692l66 -20v-34h-206zM756 -17c-30 -1 -61 16 -103 70l-172 225v2l36 11
l140 128l-61 20v31h202v-28l-67 -17l-162 -137l239 -283s-15 -21 -52 -22z" />
    <glyph glyph-name="f_l" unicode="fl" horiz-adv-x="584" 
d="M334 0v34l58 21v368h-211v-368l66 -21v-34h-214v34l63 21v365h-72v41l71 20c10 162 102 265 235 265c35 0 62 -8 82 -19l64 19v-691l74 -21v-34h-216zM181 514v-44h211v188c-22 26 -53 46 -88 46c-68 0 -123 -35 -123 -190z" />
    <glyph glyph-name=".notdef" horiz-adv-x="500" 
 />
    <glyph glyph-name="eth" unicode="&#xf0;" horiz-adv-x="542" 
d="M111 539l-19 33l121 69c-40 35 -84 66 -129 94l15 26c62 -26 118 -56 166 -90l118 68l19 -33l-104 -60c132 -104 202 -238 202 -380c0 -166 -100 -282 -232 -282c-151 0 -232 113 -232 242c0 143 112 256 232 256c40 0 66 -10 91 -27c-29 61 -69 113 -116 159zM409 230
c0 65 -11 123 -30 176c-31 22 -60 38 -111 38c-83 0 -141 -66 -141 -183c0 -110 46 -233 153 -233c80 0 129 75 129 202z" />
    <glyph glyph-name="Lslash" unicode="&#x141;" horiz-adv-x="594" 
d="M49 252v41l85 24v288l-85 27v32h284v-32l-102 -26v-262l220 63v-41l-220 -63v-256h220l81 152h37l-36 -199h-484v33l85 23v220z" />
    <glyph glyph-name="lslash" unicode="&#x142;" horiz-adv-x="279" 
d="M10 277v50l82 46v287l-64 19v32l149 35v-326l90 51v-50l-90 -51v-316l68 -20v-34h-216v34l63 21v268z" />
    <glyph glyph-name="Scaron" unicode="&#x160;" horiz-adv-x="517" 
d="M51 33l-13 177h38l55 -144c21 -17 57 -40 116 -40c77 0 134 48 134 124c0 51 -24 97 -96 127l-102 43c-88 38 -136 88 -136 172c0 108 98 192 235 192c63 0 124 -22 155 -41l6 -165h-34l-52 136c-6 4 -37 28 -88 28c-78 0 -128 -54 -128 -112c0 -59 32 -90 85 -114
l119 -54c98 -44 133 -100 133 -174c0 -125 -127 -207 -239 -207c-65 0 -141 21 -188 52zM394 865h45l-111 -129h-97l-111 129h47l114 -78z" />
    <glyph glyph-name="scaron" unicode="&#x161;" horiz-adv-x="418" 
d="M192 -19c-51 0 -97 19 -130 39l-16 140h33l51 -110c15 -13 36 -30 82 -30c51 0 86 30 86 76c0 37 -21 67 -97 101l-40 18c-69 31 -103 67 -103 131c0 77 81 139 172 139c37 0 79 -11 118 -32l5 -119h-30l-41 87c-12 10 -32 25 -67 25c-48 0 -76 -31 -76 -69
c0 -40 21 -65 81 -92l43 -19c89 -39 118 -83 118 -137c0 -83 -92 -148 -189 -148zM296 756h47l-101 -205h-57l-101 205h49l82 -131z" />
    <glyph glyph-name="Yacute" unicode="&#xdd;" horiz-adv-x="630" 
d="M557 602l-193 -322v-224l94 -23v-33h-286v33l95 23v206l-196 344l-64 26v32h251v-32l-75 -26l155 -286h4l158 277l-94 33v34h217v-32zM381 875h93v-20l-120 -119h-52z" />
    <glyph glyph-name="yacute" unicode="&#xfd;" horiz-adv-x="498" 
d="M400 415l-69 25v30h168v-31l-46 -20l-222 -554c-31 -79 -55 -118 -106 -118c-33 0 -62 23 -62 56c0 32 22 50 50 50c24 0 38 -15 49 -36h2l59 138l-177 465l-47 19v31h217v-31l-73 -19l124 -350h3zM308 756h80v-19l-99 -186h-41z" />
    <glyph glyph-name="Thorn" unicode="&#xde;" horiz-adv-x="603" 
d="M49 0v33l85 23v550l-85 26v32h267v-32l-85 -26v-93l37 1c202 2 305 -59 305 -163c0 -144 -163 -197 -296 -188v32c117 9 193 49 193 141c0 81 -70 144 -239 144v-424l85 -24v-32h-267z" />
    <glyph glyph-name="thorn" unicode="&#xfe;" horiz-adv-x="532" 
d="M79 -184v844l-62 19v32l147 35v-337c23 27 72 74 145 74c99 0 187 -64 187 -227c0 -155 -126 -272 -267 -272c-23 0 -45 4 -65 10v-176l91 -27v-31h-239v34zM263 416c-45 0 -81 -24 -99 -41v-312c9 -9 39 -35 98 -35c73 0 146 66 146 198c0 115 -59 190 -145 190z" />
    <glyph glyph-name="Zcaron" unicode="&#x17d;" horiz-adv-x="620" 
d="M31 0v25l417 593h-291l-64 -139h-36l21 191l75 -6h439v-3l-430 -614h311l82 152h37l-37 -204l-78 5h-446zM423 865h45l-111 -129h-97l-111 129h47l114 -78z" />
    <glyph glyph-name="zcaron" unicode="&#x17e;" horiz-adv-x="454" 
d="M329 0h-301v34l273 393h-177l-44 -105h-31v154l74 -6h300v-15l-286 -412h192l57 118h32l-14 -165zM308 756h47l-101 -205h-57l-101 205h49l82 -131z" />
    <glyph glyph-name="onehalf" unicode="&#xbd;" horiz-adv-x="946" 
d="M224 667v-347l100 -10v-34h-288v34l104 11v271h-110v30l188 45h6zM223 -86l-44 31l539 782l44 -29zM592 0v32l45 38c119 100 170 139 170 195c0 39 -33 73 -78 73c-48 0 -78 -24 -110 -59l-25 24c40 54 86 98 164 98c73 0 128 -40 129 -112c1 -73 -61 -114 -163 -196
l-36 -29h224v-64h-320z" />
    <glyph glyph-name="onequarter" unicode="&#xbc;" horiz-adv-x="905" 
d="M224 667v-347l100 -10v-34h-288v34l104 11v271h-110v30l188 45h6zM223 -86l-44 31l539 782l44 -29zM508 92v23l249 279l30 -2v-249h99v-51h-99v-92h-78v92h-201zM576 143h133v149z" />
    <glyph glyph-name="threequarters" unicode="&#xbe;" horiz-adv-x="931" 
d="M163 258c-87 0 -127 35 -127 70c0 25 19 41 48 45l49 -68c13 -4 27 -7 54 -7c49 0 94 23 94 75c0 51 -49 86 -149 81v33l17 5c82 24 106 55 106 88c0 27 -24 44 -59 44c-58 0 -90 -26 -125 -58l-23 23c52 58 103 88 175 88c69 0 118 -31 118 -79c0 -43 -52 -80 -104 -99
v-3c92 -10 128 -56 128 -100c0 -77 -96 -138 -202 -138zM251 -86l-44 31l539 782l44 -29zM534 92v23l249 279l30 -2v-249h99v-51h-99v-92h-78v92h-201zM602 143h133v149z" />
    <glyph glyph-name="brokenbar" unicode="&#xa6;" horiz-adv-x="248" 
d="M153 313h-58v420h58v-420zM153 -202h-58v421h58v-421z" />
    <glyph glyph-name="minus" unicode="&#x2212;" horiz-adv-x="558" 
d="M516 208h-474v58h474v-58z" />
    <glyph glyph-name="multiply" unicode="&#xd7;" horiz-adv-x="558" 
d="M458 12l-183 184l-180 -184l-41 41l183 184l-183 183l43 43l182 -183l183 188l40 -41l-183 -187l183 -185z" />
    <glyph glyph-name="space" unicode=" " horiz-adv-x="198" 
 />
    <glyph glyph-name="exclam" unicode="!" horiz-adv-x="285" 
d="M94 695h97l-25 -502h-47zM142 -7c-33 0 -62 29 -62 63s29 62 62 62c35 0 63 -28 63 -62s-28 -63 -63 -63z" />
    <glyph glyph-name="quotedbl" unicode="&#x22;" horiz-adv-x="471" 
d="M122 505l-37 288h114l-48 -288h-29zM309 505l-37 288h114l-48 -288h-29z" />
    <glyph glyph-name="numbersign" unicode="#" horiz-adv-x="593" 
d="M82 383v58h110l27 153h58l-27 -153h147l27 153h58l-27 -153h106v-58h-117l-30 -174h103v-58h-114l-26 -151h-58l26 151h-147l-26 -151h-58l26 151h-102v58h113l30 174h-99zM239 383l-30 -174h147l30 174h-147z" />
    <glyph glyph-name="dollar" unicode="$" horiz-adv-x="580" 
d="M275 -125v114h-1c-65 0 -150 21 -197 50l-13 166h38l55 -136c22 -15 60 -36 118 -37v252l-51 13c-103 28 -145 87 -145 163c0 84 72 170 196 186v138h41v-135h1c63 0 133 -22 164 -39l6 -155h-34l-51 127c-5 3 -38 23 -86 26v-237l61 -16c98 -27 143 -83 143 -158
c0 -106 -107 -186 -204 -204v-118h-41zM329 271l-13 3v-239c63 11 111 53 111 121c0 54 -21 98 -98 115zM164 492c0 -48 22 -86 96 -105l15 -4v223c-65 -11 -111 -56 -111 -114z" />
    <glyph glyph-name="percent" unicode="%" horiz-adv-x="894" 
d="M216 605c109 0 161 -89 161 -177c0 -110 -75 -188 -167 -188c-94 0 -160 69 -160 175c0 111 75 190 166 190zM182 -50l470 680h59l-470 -680h-59zM209 564c-60 0 -85 -72 -85 -131c0 -75 30 -152 95 -152c58 0 84 70 84 132c0 84 -39 151 -94 151zM685 346
c109 0 161 -89 161 -177c0 -110 -75 -188 -167 -188c-94 0 -160 69 -160 175c0 111 75 190 166 190zM678 305c-60 0 -85 -72 -85 -131c0 -75 30 -152 95 -152c58 0 84 70 84 132c0 84 -39 151 -94 151z" />
    <glyph glyph-name="ampersand" unicode="&#x26;" horiz-adv-x="762" 
d="M737 439l-89 -23l-95 -182c-13 -25 -28 -50 -44 -75c51 -62 88 -100 131 -103c55 -4 79 52 79 52l23 -15s-53 -108 -141 -106c-60 2 -94 33 -147 99c-55 -61 -122 -106 -204 -106c-151 0 -215 95 -215 189c0 103 97 170 167 212c-53 55 -79 88 -78 145
c1 103 92 155 183 155c92 0 152 -44 152 -114s-50 -114 -148 -169c25 -27 56 -60 93 -105c30 -37 55 -70 78 -99c12 21 24 44 37 71l72 152l-72 22v31h218v-31zM347 221c-48 58 -88 100 -120 134c-52 -35 -102 -79 -102 -152c0 -74 55 -150 163 -150c55 0 100 21 140 65
c-22 29 -49 63 -81 103zM205 552c0 -51 24 -70 82 -129c59 44 88 84 88 132c0 54 -33 89 -85 89c-38 0 -85 -27 -85 -92z" />
    <glyph glyph-name="quotesingle" unicode="'" horiz-adv-x="284" 
d="M122 505l-37 288h114l-48 -288h-29z" />
    <glyph glyph-name="parenleft" unicode="(" horiz-adv-x="343" 
d="M337 -180h-55c-117 124 -191 278 -191 453c0 179 78 335 196 459h54c-110 -141 -165 -268 -165 -459c0 -182 52 -312 161 -453z" />
    <glyph glyph-name="parenright" unicode=")" horiz-adv-x="343" 
d="M5 732h55c117 -124 191 -278 191 -453c0 -179 -78 -335 -196 -459h-54c110 141 165 268 165 459c0 182 -52 312 -161 453z" />
    <glyph glyph-name="asterisk" unicode="*" horiz-adv-x="411" 
d="M373 515l-130 -8l15 -130l-25 -6l-45 124l-120 -55l-13 21l104 81l-88 96l15 18l109 -71l65 113l21 -8l-34 -126l127 -25z" />
    <glyph glyph-name="plus" unicode="+" horiz-adv-x="558" 
d="M516 208h-206v-208h-62v208h-206v58h206v208h62v-208h206v-58z" />
    <glyph glyph-name="comma" unicode="," horiz-adv-x="270" 
d="M45 -179c62 42 89 99 89 144c0 51 -25 84 -75 96c-9 41 5 92 57 92c46 0 93 -36 93 -125s-60 -186 -145 -232c0 0 -17 21 -19 25z" />
    <glyph glyph-name="hyphen" unicode="-" horiz-adv-x="343" 
d="M39 230v77h265v-77h-265z" />
    <glyph glyph-name="period" unicode="." horiz-adv-x="260" 
d="M129 -4c-37 0 -69 32 -69 70c0 37 32 69 69 69c38 0 70 -32 70 -69c0 -38 -32 -70 -70 -70z" />
    <glyph glyph-name="slash" unicode="/" horiz-adv-x="504" 
d="M74 -203l-48 21l403 925l48 -21z" />
    <glyph glyph-name="zero" unicode="0" horiz-adv-x="640" 
d="M159 269c0 -103 41 -245 173 -245c86 0 149 79 149 204c0 136 -69 241 -170 241c-82 0 -152 -76 -152 -200zM324 -19c-155 0 -265 103 -265 266c0 140 119 267 260 267c162 0 262 -116 262 -267c0 -141 -114 -266 -257 -266z" />
    <glyph glyph-name="one" unicode="1" horiz-adv-x="412" 
d="M261 508v-455l117 -16v-37h-326v37l122 15v372h-130v42l213 42h4z" />
    <glyph glyph-name="two" unicode="2" horiz-adv-x="439" 
d="M189 134l-60 -62h271v-72h-371v26l36 39c119 129 192 191 192 276c0 60 -39 104 -97 104c-39 0 -68 -21 -100 -58l-25 18c40 61 85 109 171 109c90 0 140 -57 140 -128c0 -84 -65 -156 -157 -252z" />
    <glyph glyph-name="three" unicode="3" horiz-adv-x="422" 
d="M107 -204c-40 0 -85 21 -85 61c0 22 16 37 41 44l71 -62c94 0 154 68 154 147c0 89 -80 155 -191 147v44l37 18c88 43 130 104 130 154c0 62 -39 95 -94 95c-37 0 -71 -20 -103 -58l-25 20c40 60 85 108 171 108c90 0 141 -57 141 -130c0 -72 -57 -118 -112 -162l-29 -24
v-3c82 -14 161 -72 161 -175c0 -126 -143 -224 -267 -224z" />
    <glyph glyph-name="four" unicode="4" horiz-adv-x="554" 
d="M321 -195v210h-312v30l374 468h23v-440h139v-58h-139v-210h-85zM85 73h236v303z" />
    <glyph glyph-name="five" unicode="5" horiz-adv-x="418" 
d="M77 -204c-37 0 -85 19 -85 61c0 22 16 37 41 44l71 -62c97 15 153 82 153 174c0 73 -38 154 -209 264l94 224h231v-83h-224l-32 -79c163 -83 227 -178 227 -290c0 -146 -159 -253 -267 -253z" />
    <glyph glyph-name="six" unicode="6" horiz-adv-x="573" 
d="M560 667c-128 -46 -309 -163 -375 -319c41 36 92 61 143 61c118 0 192 -79 192 -198c0 -111 -86 -231 -227 -231c-130 0 -234 75 -234 231c0 252 247 424 493 489zM282 349c-27 0 -75 -10 -111 -41c-8 -27 -12 -55 -12 -83c0 -138 63 -204 145 -204c63 0 117 42 117 152
s-57 176 -139 176z" />
    <glyph glyph-name="seven" unicode="7" horiz-adv-x="510" 
d="M95 -205l-70 29l375 589h-350v88h438v-9l-316 -552z" />
    <glyph glyph-name="eight" unicode="8" horiz-adv-x="512" 
d="M45 146c0 96 75 142 151 185l-37 30c-44 35 -88 82 -88 148c0 94 85 172 204 172c101 0 176 -62 176 -147c0 -83 -72 -150 -130 -188l20 -15c69 -54 125 -100 125 -177c0 -108 -99 -174 -208 -174c-125 0 -213 68 -213 166zM252 286l-28 22c-64 -51 -88 -89 -88 -154
c0 -61 41 -134 124 -134c85 0 120 53 120 100c0 70 -62 113 -128 166zM157 534c0 -49 34 -87 91 -130l45 -36c39 38 71 94 71 151c0 78 -45 122 -104 122c-57 0 -103 -42 -103 -107z" />
    <glyph glyph-name="nine" unicode="9" horiz-adv-x="573" 
d="M43 -175c119 48 282 150 344 308c-40 -33 -88 -53 -136 -53c-118 0 -198 82 -198 201c0 111 86 231 227 231c130 0 234 -86 234 -231c0 -246 -217 -424 -463 -489zM292 140c31 0 79 11 109 36c7 29 11 59 11 91c0 138 -61 204 -143 204c-63 0 -120 -42 -120 -152
s64 -179 143 -179z" />
    <glyph glyph-name="colon" unicode=":" horiz-adv-x="261" 
d="M138 -4c-37 0 -69 32 -69 70c0 37 32 69 69 69c38 0 70 -32 70 -69c0 -38 -32 -70 -70 -70zM141 337c-38 0 -70 32 -70 70c0 37 32 69 70 69c37 0 69 -32 69 -69c0 -38 -32 -70 -69 -70z" />
    <glyph glyph-name="semicolon" unicode=";" horiz-adv-x="266" 
d="M145 337c-38 0 -70 32 -70 70c0 37 32 69 70 69c37 0 69 -32 69 -69c0 -38 -32 -70 -69 -70zM55 -179c62 42 89 99 89 144c0 51 -25 84 -75 96c-9 41 5 92 57 92c46 0 93 -36 93 -125s-60 -186 -145 -232c0 0 -17 21 -19 25z" />
    <glyph glyph-name="less" unicode="&#x3c;" horiz-adv-x="558" 
d="M514 418l-400 -183l400 -180v-69l-472 220v59l472 220v-67z" />
    <glyph glyph-name="equal" unicode="=" horiz-adv-x="558" 
d="M42 293v55h474v-55h-474zM42 147v55h474v-55h-474z" />
    <glyph glyph-name="greater" unicode="&#x3e;" horiz-adv-x="558" 
d="M43 53l400 183l-400 180v69l472 -220v-59l-472 -220v67z" />
    <glyph glyph-name="question" unicode="?" horiz-adv-x="406" 
d="M92 591v104l29 -5c98 -17 235 -112 235 -243c0 -60 -31 -102 -98 -127l-82 -30l4 -97h-45l-23 163l116 41c57 20 76 42 76 75c0 55 -81 103 -188 116zM152 -7c-33 0 -62 29 -62 63s29 62 62 62c35 0 63 -28 63 -62s-28 -63 -63 -63z" />
    <glyph glyph-name="at" unicode="@" horiz-adv-x="956" 
d="M535 150l13 41h-6l-23 -34c-38 -56 -96 -149 -170 -149c-56 0 -82 38 -83 87c-3 178 190 366 309 366c32 0 57 -12 71 -24l9 36h59l-97 -320c-25 -81 -5 -109 27 -109c71 0 196 109 196 280c0 166 -126 295 -303 295c-213 0 -389 -184 -389 -428
c0 -211 144 -327 338 -327c77 0 118 12 143 18v-25s-87 -33 -190 -33c-228 0 -369 149 -369 348c0 275 247 484 485 484c225 0 346 -154 346 -321c0 -191 -157 -327 -281 -327c-72 0 -115 45 -85 142zM392 77c55 0 187 210 207 274l11 35c-17 21 -38 36 -64 36
c-84 0 -186 -170 -186 -298c0 -26 10 -47 32 -47z" />
    <glyph glyph-name="A" unicode="A" horiz-adv-x="674" 
d="M3 0v32l58 23l243 614l34 5l35 10l230 -629l68 -22v-33h-257v33l85 23l-61 175h-244l-58 -163l96 -35v-33h-229zM317 574l-101 -283h201l-99 283h-1z" />
    <glyph glyph-name="B" unicode="B" horiz-adv-x="639" 
d="M49 0v33l85 23v550l-85 26v32l231 3c175 2 269 -50 269 -151c0 -106 -93 -147 -193 -156v-2c117 -6 225 -55 225 -174c0 -117 -108 -191 -287 -188zM332 331h-101v-251c13 -27 50 -48 104 -48c71 0 144 48 144 144c0 89 -65 141 -147 155zM231 633v-261
c93 1 220 16 220 133c0 91 -76 130 -220 128z" />
    <glyph glyph-name="C" unicode="C" horiz-adv-x="716" 
d="M395 -25c-254 0 -346 175 -346 334c0 212 162 372 379 372c94 0 157 -25 209 -54l6 -167h-37l-55 134c-30 20 -73 38 -132 38c-145 0 -260 -115 -260 -288c0 -206 118 -319 268 -319c62 0 111 26 137 45l75 141h37l-26 -168c-81 -42 -158 -68 -255 -68z" />
    <glyph glyph-name="D" unicode="D" horiz-adv-x="773" 
d="M231 627v-534c5 -48 77 -55 121 -54c168 4 261 130 261 280c0 244 -178 319 -382 308zM49 0v33l85 23v550l-85 26v32l300 4c240 3 370 -136 370 -325c0 -202 -157 -349 -417 -346z" />
    <glyph glyph-name="E" unicode="E" horiz-adv-x="632" 
d="M361 321h-130v-274h234l81 132h37l-32 -179h-502v33l85 23v549l-85 27v32h411l87 4v-177h-36l-54 128h-226v-252h130l29 82h32v-204h-35z" />
    <glyph glyph-name="F" unicode="F" horiz-adv-x="577" 
d="M362 319h-131v-263l102 -19v-37h-284v33l85 23v549l-85 27v32h410l88 4v-177h-36l-55 128h-225v-254h131l28 82h32v-204h-36z" />
    <glyph glyph-name="G" unicode="G" horiz-adv-x="752" 
d="M407 -25c-262 0 -357 166 -357 338c0 195 170 368 394 368c84 0 148 -22 203 -54l6 -162h-39l-56 132c-28 18 -68 35 -133 35c-169 0 -266 -145 -266 -303c0 -203 132 -304 275 -304c64 0 99 13 119 22v204l-93 26v28h246v-33l-57 -16v-207l-31 -17
c-39 -22 -121 -57 -211 -57z" />
    <glyph glyph-name="H" unicode="H" horiz-adv-x="793" 
d="M477 0v33l85 23v267h-331v-267l85 -24v-32h-267v33l85 23v550l-85 26v32h267v-32l-85 -26v-236h331v236l-85 26v32h267v-32l-85 -26v-550l85 -24v-32h-267z" />
    <glyph glyph-name="I" unicode="I" horiz-adv-x="354" 
d="M49 0v33l85 23v550l-85 26v32h267v-32l-85 -26v-550l85 -24v-32h-267z" />
    <glyph glyph-name="J" unicode="J" horiz-adv-x="346" 
d="M235 606v-555c0 -142 -37 -254 -219 -269l-6 34c120 25 128 108 128 223v568l-93 21v36h275v-32z" />
    <glyph glyph-name="K" unicode="K" horiz-adv-x="681" 
d="M49 0v33l85 23v550l-85 26v32h267v-32l-85 -26v-550l85 -24v-32h-267zM518 0l-279 359v4l28 13l224 230l-70 29v29h209v-32l-81 -26l-212 -220l259 -334l75 -20v-32h-153z" />
    <glyph glyph-name="L" unicode="L" horiz-adv-x="594" 
d="M231 47h220l81 152h37l-36 -199h-484v33l85 23v549l-85 27v32h284v-32l-102 -26v-559z" />
    <glyph glyph-name="M" unicode="M" horiz-adv-x="913" 
d="M46 0v32l85 24l3 550l-84 26v32h199l220 -495l184 447l4 48h209v-32l-85 -26l3 -550l85 -24v-32h-271v33l89 23l3 530l-210 -499l-18 -53h-36l-19 53l-221 486v-503l110 -37v-33h-250z" />
    <glyph glyph-name="N" unicode="N" horiz-adv-x="777" 
d="M660 -11h-23l-438 534v-453l107 -37v-33h-247v33l85 23v540l-95 36v32h160l394 -482v410l-107 39v33h247v-33l-85 -25v-489z" />
    <glyph glyph-name="O" unicode="O" horiz-adv-x="786" 
d="M404 17c156 0 225 161 225 295c0 171 -103 327 -245 327c-161 0 -227 -156 -227 -288c0 -151 80 -334 247 -334zM392 681c237 0 340 -174 340 -344c0 -225 -145 -362 -339 -362c-195 0 -339 137 -339 343c0 225 145 363 338 363z" />
    <glyph glyph-name="P" unicode="P" horiz-adv-x="597" 
d="M277 314c117 9 193 61 193 157c0 84 -70 160 -239 160v-575l127 -23v-33h-309v33l85 23v550l-85 26v32l219 2c202 2 305 -71 305 -179c0 -150 -163 -215 -296 -206v33z" />
    <glyph glyph-name="Q" unicode="Q" horiz-adv-x="786" 
d="M392 681c237 0 340 -172 340 -340c0 -199 -117 -335 -281 -360c114 -82 206 -142 327 -142c68 0 127 21 185 60l20 -22c-38 -38 -98 -105 -244 -105c-159 0 -287 96 -441 217c-145 38 -244 164 -244 334c0 222 145 358 338 358zM384 639c-161 0 -227 -156 -227 -288
c0 -151 80 -334 247 -334c156 0 225 161 225 295c0 171 -103 327 -245 327z" />
    <glyph glyph-name="R" unicode="R" horiz-adv-x="666" 
d="M49 0v33l85 23v550l-85 26v32l230 3c191 2 283 -63 283 -164c0 -88 -62 -143 -151 -172l195 -275l87 -23v-33h-162l-175 247c-26 39 -39 58 -39 58l-86 -5v-244l85 -24v-32h-267zM231 632v-289h83c81 9 144 62 144 140c0 98 -84 153 -227 149z" />
    <glyph glyph-name="S" unicode="S" horiz-adv-x="517" 
d="M51 33l-13 177h38l55 -144c21 -17 57 -40 116 -40c77 0 134 48 134 124c0 51 -24 97 -96 127l-102 43c-88 38 -136 88 -136 172c0 108 98 192 235 192c63 0 124 -22 155 -41l6 -165h-34l-52 136c-6 4 -37 28 -88 28c-78 0 -128 -54 -128 -112c0 -59 32 -90 85 -114
l119 -54c98 -44 133 -100 133 -174c0 -125 -127 -207 -239 -207c-65 0 -141 21 -188 52z" />
    <glyph glyph-name="T" unicode="T" horiz-adv-x="647" 
d="M107 664h433l67 8l10 -181h-36l-54 128h-155v-563l94 -23v-33h-286v33l95 23v563h-155l-54 -128h-36l9 181z" />
    <glyph glyph-name="U" unicode="U" horiz-adv-x="739" 
d="M377 -24c-215 0 -270 116 -270 278v352l-85 26v32h270v-32l-85 -26v-327c0 -136 38 -246 179 -246c136 0 197 75 195 241l-3 323l-116 35v32h263v-32l-85 -26v-352c-2 -188 -132 -278 -263 -278z" />
    <glyph glyph-name="V" unicode="V" horiz-adv-x="655" 
d="M307 -12l-244 618l-64 26v32h255v-32l-85 -26l180 -475h2l174 466l-108 33v34h239v-32l-66 -30l-241 -614h-42z" />
    <glyph glyph-name="W" unicode="W" horiz-adv-x="968" 
d="M645 -7l-160 469l-164 -469h-73l-186 613l-63 26v32h255v-32l-86 -26l140 -511l151 444l-22 67l-86 26v32h270v-34l-84 -24l163 -504l140 495l-104 33v34h233v-32l-66 -30l-184 -609h-74z" />
    <glyph glyph-name="X" unicode="X" horiz-adv-x="713" 
d="M19 0v33l75 22l225 280l-188 271l-75 26v32h274v-32l-85 -26l141 -201h2l147 192l-102 33v34h253v-32l-75 -26l-197 -241l210 -309l70 -23v-33h-270v33l85 23l-161 241h-2l-175 -239l85 -25v-33h-237z" />
    <glyph glyph-name="Y" unicode="Y" horiz-adv-x="630" 
d="M557 602l-193 -322v-224l94 -23v-33h-286v33l95 23v206l-196 344l-64 26v32h251v-32l-75 -26l155 -286h4l158 277l-94 33v34h217v-32z" />
    <glyph glyph-name="Z" unicode="Z" horiz-adv-x="620" 
d="M31 0v25l417 593h-291l-64 -139h-36l21 191l75 -6h439v-3l-430 -614h311l82 152h37l-37 -204l-78 5h-446z" />
    <glyph glyph-name="bracketleft" unicode="[" horiz-adv-x="355" 
d="M310 -181h-182v914h182v-39h-100v-836h100v-39z" />
    <glyph glyph-name="backslash" unicode="\" horiz-adv-x="504" 
d="M477 -182l-48 -21l-403 925l48 21z" />
    <glyph glyph-name="bracketright" unicode="]" horiz-adv-x="355" 
d="M45 733h182v-914h-182v39h100v836h-100v39z" />
    <glyph glyph-name="asciicircum" unicode="^" horiz-adv-x="424" 
d="M76 468h-46l152 288h60l152 -288h-49l-136 216z" />
    <glyph glyph-name="underscore" unicode="_" horiz-adv-x="408" 
d="M4 -205v59h400v-59h-400z" />
    <glyph glyph-name="grave" unicode="`" horiz-adv-x="400" 
d="M228 551l-100 186v19h80l61 -205h-41z" />
    <glyph glyph-name="a" unicode="a" horiz-adv-x="502" 
d="M169 -15c-53 0 -120 37 -120 117s58 116 161 143l103 27v52c-2 77 -42 117 -95 117c-30 0 -55 -13 -63 -18l-4 -99s-25 -3 -40 -3c-32 0 -48 16 -48 43c0 46 88 119 191 119c101 0 145 -46 145 -145v-270c0 -20 5 -27 33 -27h50v-28s-58 -25 -95 -25c-51 0 -72 35 -72 78
h-3c-56 -53 -80 -81 -143 -81zM222 53c48 0 79 36 91 54v132l-96 -32c-47 -16 -77 -35 -77 -77c0 -51 39 -77 82 -77z" />
    <glyph glyph-name="b" unicode="b" horiz-adv-x="546" 
d="M244 -16c-56 0 -95 9 -119 19l-37 16v641l-62 19v32l147 35v-340c18 25 66 77 147 77c93 0 190 -64 190 -227c0 -155 -130 -272 -266 -272zM277 419c-48 0 -87 -31 -104 -48v-303s44 -40 103 -40c73 0 148 69 148 201c0 116 -61 190 -147 190z" />
    <glyph glyph-name="c" unicode="c" horiz-adv-x="469" 
d="M250 -16c-113 0 -215 80 -215 234c0 162 130 265 251 265c82 0 145 -44 145 -100c0 -29 -18 -55 -53 -55c-18 0 -34 3 -34 3l-15 93c-3 2 -21 16 -60 16c-83 0 -146 -77 -146 -183c0 -111 72 -203 173 -203c72 0 117 63 117 63l20 -13s-44 -120 -183 -120z" />
    <glyph glyph-name="d" unicode="d" horiz-adv-x="570" 
d="M281 688v31l175 27v-688l81 -20v-33l-134 -19l-24 68c-38 -37 -79 -70 -141 -70c-141 0 -202 116 -202 225c0 163 106 274 249 274c37 0 65 -5 86 -10v199zM288 52c34 0 62 12 83 26v297s-38 66 -109 66c-78 0 -142 -65 -142 -181c0 -98 39 -208 168 -208z" />
    <glyph glyph-name="e" unicode="e" horiz-adv-x="501" 
d="M255 -16c-166 0 -219 147 -219 233c0 149 96 266 236 266c111 0 176 -75 176 -212h-331v-10c0 -124 71 -201 175 -201c85 0 139 75 139 75l20 -12s-47 -139 -196 -139zM250 439c-63 0 -113 -55 -128 -129h226c-1 68 -32 129 -98 129z" />
    <glyph glyph-name="f" unicode="f" horiz-adv-x="343" 
d="M33 0v34l63 21v365h-72v41l71 20v4c0 145 103 261 212 261c79 0 128 -46 128 -90c0 -26 -19 -52 -52 -52c-13 0 -24 4 -24 4l-24 83s-18 12 -46 12c-56 0 -108 -39 -108 -154v-79h136v-51h-136v-364l90 -21v-34h-238z" />
    <glyph glyph-name="g" unicode="g" horiz-adv-x="517" 
d="M498 412l-114 6l-1 -3c25 -21 51 -58 51 -111c0 -109 -99 -179 -199 -179c-25 0 -49 4 -72 12c-23 -18 -35 -35 -35 -50c0 -14 14 -33 37 -34l189 -11c99 -6 143 -50 143 -112c0 -83 -107 -185 -293 -185c-95 0 -181 40 -181 113c0 37 25 79 73 105l24 13v2l-71 68
c20 51 42 76 79 107c-46 28 -79 77 -79 147c0 109 85 183 192 183c46 0 78 -11 118 -25l139 15v-61zM247 168c53 0 96 47 96 123c0 107 -48 153 -108 153c-59 0 -94 -44 -94 -120c0 -98 41 -156 106 -156zM345 -39l-189 12c-15 -16 -43 -53 -43 -89c0 -37 33 -89 138 -89
c123 0 174 59 174 105c0 35 -23 57 -80 61z" />
    <glyph glyph-name="h" unicode="h" horiz-adv-x="564" 
d="M331 0v34l57 20v253c-4 70 -25 109 -92 109c-65 0 -122 -55 -122 -57v-305l66 -20v-34h-214v34l63 22v611l-67 26v27l152 26v-354c17 21 80 91 163 91c93 0 136 -40 136 -168v-261l65 -21v-33h-207z" />
    <glyph glyph-name="i" unicode="i" horiz-adv-x="279" 
d="M31 0v34l67 22v342l-59 21v35l142 29v-428l75 -21v-34h-225zM133 624c-33 0 -62 28 -62 61s29 61 62 61c32 0 61 -28 61 -61s-29 -61 -61 -61z" />
    <glyph glyph-name="j" unicode="j" horiz-adv-x="261" 
d="M2 -251l-5 29c67 22 94 100 94 248v366l-59 27v35l143 29v-457c0 -66 -9 -126 -32 -173c-28 -58 -82 -96 -141 -104zM126 624c-32 0 -61 28 -61 61s29 61 61 61c33 0 62 -28 62 -61s-29 -61 -62 -61z" />
    <glyph glyph-name="k" unicode="k" horiz-adv-x="521" 
d="M92 56v604l-66 26v27l151 33v-692l66 -20v-34h-214v34zM457 -17c-30 -1 -61 16 -103 70l-172 225v2l36 11l140 128l-61 20v31h202v-28l-67 -17l-162 -137l239 -283s-15 -21 -52 -22z" />
    <glyph glyph-name="l" unicode="l" horiz-adv-x="279" 
d="M29 0v34l63 21v605l-64 19v32l149 35v-692l68 -20v-34h-216z" />
    <glyph glyph-name="m" unicode="m" horiz-adv-x="869" 
d="M637 0v34l57 20v253c-4 70 -25 109 -92 109c-59 0 -107 -41 -122 -57v-305l65 -21v-33h-207v34l57 20v253c-4 70 -25 109 -92 109c-65 0 -122 -55 -122 -57v-305l66 -20v-34h-214v34l63 21v337l-67 16v27l123 48h5l22 -91h1c17 20 80 91 164 91c87 0 118 -36 127 -99h2
c10 13 78 99 171 99c92 0 135 -40 135 -168v-261l65 -21v-33h-207z" />
    <glyph glyph-name="n" unicode="n" horiz-adv-x="570" 
d="M33 0v34l63 21v337l-67 16v27l123 48h5l22 -91h1c17 20 80 91 164 91c93 0 136 -40 136 -168v-261l65 -21v-33h-207v34l57 20v253c-4 70 -25 109 -92 109c-65 0 -122 -55 -122 -57v-305l66 -20v-34h-214z" />
    <glyph glyph-name="o" unicode="o" horiz-adv-x="536" 
d="M127 261c0 -110 46 -233 153 -233c80 0 129 81 129 183c0 147 -62 231 -152 231c-82 0 -130 -79 -130 -181zM268 -16c-151 0 -232 113 -232 242c0 143 102 259 232 259c142 0 232 -89 232 -240c0 -145 -100 -261 -232 -261z" />
    <glyph glyph-name="p" unicode="p" horiz-adv-x="532" 
d="M16 -240v34l63 22v576l-67 16v27l123 48h5l19 -80c20 25 72 80 150 80c99 0 187 -64 187 -227c0 -155 -132 -272 -267 -272c-23 0 -45 4 -65 10v-176l91 -27v-31h-239zM265 418c-46 0 -82 -25 -101 -42v-313c9 -9 39 -35 98 -35c73 0 148 68 148 200
c0 115 -59 190 -145 190z" />
    <glyph glyph-name="q" unicode="q" horiz-adv-x="529" 
d="M273 -240v31l98 28v219c-34 -30 -78 -54 -125 -54c-134 0 -210 110 -210 242c0 157 125 257 247 257c68 0 106 -24 117 -32l46 34h10v-669l63 -22v-34h-246zM297 48c29 0 54 10 74 22v324c-16 17 -50 46 -103 46c-91 0 -143 -87 -143 -188c0 -89 46 -204 172 -204z" />
    <glyph glyph-name="r" unicode="r" horiz-adv-x="376" 
d="M33 0v34l63 22v336l-67 13v30l136 48h5l6 -125h2l32 43c48 65 73 84 106 84c32 0 49 -20 49 -50c0 -26 -15 -48 -32 -69l-77 26c-22 -18 -46 -38 -76 -76v-264l88 -17v-35h-235z" />
    <glyph glyph-name="s" unicode="s" horiz-adv-x="418" 
d="M192 -19c-51 0 -97 19 -130 39l-16 140h33l51 -110c15 -13 36 -30 82 -30c51 0 86 30 86 76c0 37 -21 67 -97 101l-40 18c-69 31 -103 67 -103 131c0 77 81 139 172 139c37 0 79 -11 118 -32l5 -119h-30l-41 87c-12 10 -32 25 -67 25c-48 0 -76 -31 -76 -69
c0 -40 21 -65 81 -92l43 -19c89 -39 118 -83 118 -137c0 -83 -92 -148 -189 -148z" />
    <glyph glyph-name="t" unicode="t" horiz-adv-x="332" 
d="M186 -11c-79 0 -102 47 -101 109l3 322h-70v42l73 18l44 119h34v-129h134v-53h-132v-279c0 -80 29 -86 67 -86c32 0 75 7 75 7l6 -25s-57 -45 -133 -45z" />
    <glyph glyph-name="u" unicode="u" horiz-adv-x="553" 
d="M412 -15l-29 81c-8 -9 -73 -83 -167 -83c-89 0 -133 65 -133 178v246l-69 20v37l154 15v-309c3 -83 38 -119 105 -119c61 0 106 47 106 47v309l-81 18v37l166 15v-419l81 -20v-33z" />
    <glyph glyph-name="v" unicode="v" horiz-adv-x="501" 
d="M274 -18h-53l-176 438l-46 19v31h213v-31l-73 -19l116 -315c4 -11 9 -28 9 -28h2s6 17 10 28l121 310l-71 24v31h170v-31l-46 -19z" />
    <glyph glyph-name="w" unicode="w" horiz-adv-x="739" 
d="M411 478l118 -357c6 -17 10 -33 10 -33h2s4 16 9 33l87 293l-74 25v31h173v-31l-46 -19l-136 -436h-60l-113 324c-6 16 -11 36 -11 36h-1s-6 -20 -11 -36l-110 -324h-64l-135 436l-46 19v31h213v-31l-73 -19l83 -299c5 -17 9 -33 9 -33h2s4 16 10 33l116 357h48z" />
    <glyph glyph-name="x" unicode="x" horiz-adv-x="514" 
d="M504 0h-227v34l57 20l-96 149h-2l-105 -149l56 -20v-34h-177v34l62 19l141 187l-126 181l-60 18v31h220v-31l-57 -11l82 -133h2l96 133l-53 11v31h164v-31l-56 -11l-128 -168l142 -206l65 -21v-33z" />
    <glyph glyph-name="y" unicode="y" horiz-adv-x="498" 
d="M400 415l-69 25v30h168v-31l-46 -20l-222 -554c-31 -79 -55 -118 -106 -118c-33 0 -62 23 -62 56c0 32 22 50 50 50c24 0 38 -15 49 -36h2l59 138l-177 465l-47 19v31h217v-31l-73 -19l124 -350h3z" />
    <glyph glyph-name="z" unicode="z" horiz-adv-x="454" 
d="M329 0h-301v34l273 393h-177l-44 -105h-31v154l74 -6h300v-15l-286 -412h192l57 118h32l-14 -165z" />
    <glyph glyph-name="braceleft" unicode="{" horiz-adv-x="355" 
d="M145 277v-2c56 -22 81 -49 85 -115l10 -176c6 -113 26 -133 100 -133v-32h-15c-141 0 -174 62 -173 175l1 174c0 52 -27 83 -70 84l-38 1v46l38 1c43 1 70 32 70 84l-1 174c-1 113 32 175 173 175h15v-32c-74 0 -94 -20 -100 -133l-10 -176c-4 -66 -29 -93 -85 -115z" />
    <glyph glyph-name="bar" unicode="|" horiz-adv-x="248" 
d="M153 -202h-58v935h58v-935z" />
    <glyph glyph-name="braceright" unicode="}" horiz-adv-x="355" 
d="M210 275v2c-56 22 -81 49 -85 115l-10 176c-6 113 -26 133 -100 133v32h15c141 0 174 -62 173 -175l-1 -174c0 -52 27 -83 70 -84l38 -1v-46l-38 -1c-43 -1 -70 -32 -70 -84l1 -174c1 -113 -32 -175 -173 -175h-15v32c74 0 94 20 100 133l10 176c4 66 29 93 85 115z" />
    <glyph glyph-name="asciitilde" unicode="~" horiz-adv-x="424" 
d="M64 207l-31 13l5 14c36 102 102 115 162 87l59 -27c71 -32 87 -9 112 48l30 -12l-6 -17c-39 -110 -97 -121 -169 -88l-61 28c-63 29 -78 6 -101 -46z" />
    <glyph glyph-name="Adieresis" unicode="&#xc4;" horiz-adv-x="674" 
d="M3 0v32l58 23l243 614l34 5l35 10l230 -629l68 -22v-33h-257v33l85 23l-61 175h-244l-58 -163l96 -35v-33h-229zM317 574l-101 -283h201l-99 283h-1zM226 761c-31 0 -56 25 -56 56s25 57 56 57s57 -26 57 -57s-26 -56 -57 -56zM447 761c-31 0 -57 25 -57 56s26 57 57 57
s57 -26 57 -57s-26 -56 -57 -56z" />
    <glyph glyph-name="Aring" unicode="&#xc5;" horiz-adv-x="674" 
d="M3 0v32l58 23l243 614l34 5l35 10l230 -629l68 -22v-33h-257v33l85 23l-61 175h-244l-58 -163l96 -35v-33h-229zM317 574l-101 -283h201l-99 283h-1zM220 827c0 65 52 114 117 114c66 0 117 -48 117 -114c0 -65 -52 -114 -117 -114c-66 0 -117 48 -117 114zM266 827
c0 -43 32 -73 71 -73s71 30 71 73s-32 73 -71 73s-71 -30 -71 -73z" />
    <glyph glyph-name="Ccedilla" unicode="&#xc7;" horiz-adv-x="716" 
d="M296 -265l-5 29c39 12 91 28 91 73c0 37 -37 52 -53 58l50 81c-242 7 -330 177 -330 333c0 212 162 372 379 372c94 0 157 -25 209 -54l6 -167h-37l-55 134c-30 20 -73 38 -132 38c-145 0 -260 -115 -260 -288c0 -206 118 -319 268 -319c62 0 111 26 137 45l75 141h37
l-26 -168c-75 -39 -146 -64 -233 -67l-27 -47c44 -3 75 -29 75 -68c0 -84 -109 -115 -169 -126z" />
    <glyph glyph-name="Eacute" unicode="&#xc9;" horiz-adv-x="632" 
d="M361 321h-130v-274h234l81 132h37l-32 -179h-502v33l85 23v549l-85 27v32h411l87 4v-177h-36l-54 128h-226v-252h130l29 82h32v-204h-35zM380 875h93v-20l-120 -119h-52z" />
    <glyph glyph-name="Ntilde" unicode="&#xd1;" horiz-adv-x="777" 
d="M660 -11h-23l-438 534v-453l107 -37v-33h-247v33l85 23v540l-95 36v32h160l394 -482v410l-107 39v33h247v-33l-85 -25v-489zM438 754l-42 18c-68 29 -89 38 -117 -29l-30 13l5 13c39 97 82 108 148 81l52 -21c52 -21 75 -22 104 47l30 -13l-5 -13
c-40 -104 -79 -124 -145 -96z" />
    <glyph glyph-name="Odieresis" unicode="&#xd6;" horiz-adv-x="786" 
d="M404 17c156 0 225 161 225 295c0 171 -103 327 -245 327c-161 0 -227 -156 -227 -288c0 -151 80 -334 247 -334zM392 681c237 0 340 -174 340 -344c0 -225 -145 -362 -339 -362c-195 0 -339 137 -339 343c0 225 145 363 338 363zM282 761c-31 0 -56 25 -56 56
s25 57 56 57s57 -26 57 -57s-26 -56 -57 -56zM503 761c-31 0 -57 25 -57 56s26 57 57 57s57 -26 57 -57s-26 -56 -57 -56z" />
    <glyph glyph-name="Udieresis" unicode="&#xdc;" horiz-adv-x="739" 
d="M377 -24c-215 0 -270 116 -270 278v352l-85 26v32h270v-32l-85 -26v-327c0 -136 38 -246 179 -246c136 0 197 75 195 241l-3 323l-116 35v32h263v-32l-85 -26v-352c-2 -188 -132 -278 -263 -278zM272 761c-31 0 -56 25 -56 56s25 57 56 57s57 -26 57 -57s-26 -56 -57 -56
zM493 761c-31 0 -57 25 -57 56s26 57 57 57s57 -26 57 -57s-26 -56 -57 -56z" />
    <glyph glyph-name="aacute" unicode="&#xe1;" horiz-adv-x="502" 
d="M169 -15c-53 0 -120 37 -120 117s58 116 161 143l103 27v52c-2 77 -42 117 -95 117c-30 0 -55 -13 -63 -18l-4 -99s-25 -3 -40 -3c-32 0 -48 16 -48 43c0 46 88 119 191 119c101 0 145 -46 145 -145v-270c0 -20 5 -27 33 -27h50v-28s-58 -25 -95 -25c-51 0 -72 35 -72 78
h-3c-56 -53 -80 -81 -143 -81zM222 53c48 0 79 36 91 54v132l-96 -32c-47 -16 -77 -35 -77 -77c0 -51 39 -77 82 -77zM278 756h80v-19l-99 -186h-41z" />
    <glyph glyph-name="agrave" unicode="&#xe0;" horiz-adv-x="502" 
d="M169 -15c-53 0 -120 37 -120 117s58 116 161 143l103 27v52c-2 77 -42 117 -95 117c-30 0 -55 -13 -63 -18l-4 -99s-25 -3 -40 -3c-32 0 -48 16 -48 43c0 46 88 119 191 119c101 0 145 -46 145 -145v-270c0 -20 5 -27 33 -27h50v-28s-58 -25 -95 -25c-51 0 -72 35 -72 78
h-3c-56 -53 -80 -81 -143 -81zM222 53c48 0 79 36 91 54v132l-96 -32c-47 -16 -77 -35 -77 -77c0 -51 39 -77 82 -77zM228 551l-100 186v19h80l61 -205h-41z" />
    <glyph glyph-name="acircumflex" unicode="&#xe2;" horiz-adv-x="502" 
d="M169 -15c-53 0 -120 37 -120 117s58 116 161 143l103 27v52c-2 77 -42 117 -95 117c-30 0 -55 -13 -63 -18l-4 -99s-25 -3 -40 -3c-32 0 -48 16 -48 43c0 46 88 119 191 119c101 0 145 -46 145 -145v-270c0 -20 5 -27 33 -27h50v-28s-58 -25 -95 -25c-51 0 -72 35 -72 78
h-3c-56 -53 -80 -81 -143 -81zM222 53c48 0 79 36 91 54v132l-96 -32c-47 -16 -77 -35 -77 -77c0 -51 39 -77 82 -77zM164 551h-47l101 205h57l101 -205h-49l-83 131z" />
    <glyph glyph-name="adieresis" unicode="&#xe4;" horiz-adv-x="502" 
d="M169 -15c-53 0 -120 37 -120 117s58 116 161 143l103 27v52c-2 77 -42 117 -95 117c-30 0 -55 -13 -63 -18l-4 -99s-25 -3 -40 -3c-32 0 -48 16 -48 43c0 46 88 119 191 119c101 0 145 -46 145 -145v-270c0 -20 5 -27 33 -27h50v-28s-58 -25 -95 -25c-51 0 -72 35 -72 78
h-3c-56 -53 -80 -81 -143 -81zM222 53c48 0 79 36 91 54v132l-96 -32c-47 -16 -77 -35 -77 -77c0 -51 39 -77 82 -77zM146 606c-31 0 -56 25 -56 56s25 57 56 57s57 -26 57 -57s-26 -56 -57 -56zM343 606c-31 0 -57 25 -57 56s26 57 57 57s57 -26 57 -57s-26 -56 -57 -56z
" />
    <glyph glyph-name="atilde" unicode="&#xe3;" horiz-adv-x="502" 
d="M169 -15c-53 0 -120 37 -120 117s58 116 161 143l103 27v52c-2 77 -42 117 -95 117c-30 0 -55 -13 -63 -18l-4 -99s-25 -3 -40 -3c-32 0 -48 16 -48 43c0 46 88 119 191 119c101 0 145 -46 145 -145v-270c0 -20 5 -27 33 -27h50v-28s-58 -25 -95 -25c-51 0 -72 35 -72 78
h-3c-56 -53 -80 -81 -143 -81zM222 53c48 0 79 36 91 54v132l-96 -32c-47 -16 -77 -35 -77 -77c0 -51 39 -77 82 -77zM258 605l-39 23c-64 38 -86 34 -114 -33l-30 13l5 13c39 97 91 118 154 83l48 -27c49 -28 73 -18 102 51l30 -13l-5 -13c-40 -104 -88 -134 -151 -97z" />
    <glyph glyph-name="aring" unicode="&#xe5;" horiz-adv-x="502" 
d="M169 -15c-53 0 -120 37 -120 117s58 116 161 143l103 27v52c-2 77 -42 117 -95 117c-30 0 -55 -13 -63 -18l-4 -99s-25 -3 -40 -3c-32 0 -48 16 -48 43c0 46 88 119 191 119c101 0 145 -46 145 -145v-270c0 -20 5 -27 33 -27h50v-28s-58 -25 -95 -25c-51 0 -72 35 -72 78
h-3c-56 -53 -80 -81 -143 -81zM222 53c48 0 79 36 91 54v132l-96 -32c-47 -16 -77 -35 -77 -77c0 -51 39 -77 82 -77zM128 674c0 65 52 114 117 114c66 0 117 -48 117 -114c0 -65 -52 -114 -117 -114c-66 0 -117 48 -117 114zM174 674c0 -43 32 -73 71 -73s71 30 71 73
s-32 73 -71 73s-71 -30 -71 -73z" />
    <glyph glyph-name="ccedilla" unicode="&#xe7;" horiz-adv-x="469" 
d="M135 -252l-5 29c39 12 91 28 91 73c0 37 -37 52 -53 58l49 79c-99 13 -182 92 -182 231c0 162 130 265 251 265c82 0 145 -44 145 -100c0 -29 -18 -55 -53 -55c-18 0 -34 3 -34 3l-15 93c-3 2 -21 16 -60 16c-83 0 -146 -77 -146 -183c0 -111 72 -203 173 -203
c72 0 117 63 117 63l20 -13s-44 -117 -179 -120l-25 -42c41 -4 71 -29 71 -70c0 -82 -105 -113 -165 -124z" />
    <glyph glyph-name="eacute" unicode="&#xe9;" horiz-adv-x="501" 
d="M255 -16c-166 0 -219 147 -219 233c0 149 96 266 236 266c111 0 176 -75 176 -212h-331v-10c0 -124 71 -201 175 -201c85 0 139 75 139 75l20 -12s-47 -139 -196 -139zM250 439c-63 0 -113 -55 -128 -129h226c-1 68 -32 129 -98 129zM297 756h80v-19l-99 -186h-41z" />
    <glyph glyph-name="egrave" unicode="&#xe8;" horiz-adv-x="501" 
d="M255 -16c-166 0 -219 147 -219 233c0 149 96 266 236 266c111 0 176 -75 176 -212h-331v-10c0 -124 71 -201 175 -201c85 0 139 75 139 75l20 -12s-47 -139 -196 -139zM250 439c-63 0 -113 -55 -128 -129h226c-1 68 -32 129 -98 129zM243 551l-100 186v19h80l61 -205h-41
z" />
    <glyph glyph-name="ecircumflex" unicode="&#xea;" horiz-adv-x="501" 
d="M255 -16c-166 0 -219 147 -219 233c0 149 96 266 236 266c111 0 176 -75 176 -212h-331v-10c0 -124 71 -201 175 -201c85 0 139 75 139 75l20 -12s-47 -139 -196 -139zM250 439c-63 0 -113 -55 -128 -129h226c-1 68 -32 129 -98 129zM171 551h-47l101 205h57l101 -205
h-49l-83 131z" />
    <glyph glyph-name="edieresis" unicode="&#xeb;" horiz-adv-x="501" 
d="M255 -16c-166 0 -219 147 -219 233c0 149 96 266 236 266c111 0 176 -75 176 -212h-331v-10c0 -124 71 -201 175 -201c85 0 139 75 139 75l20 -12s-47 -139 -196 -139zM250 439c-63 0 -113 -55 -128 -129h226c-1 68 -32 129 -98 129zM163 606c-31 0 -56 25 -56 56
s25 57 56 57s57 -26 57 -57s-26 -56 -57 -56zM360 606c-31 0 -57 25 -57 56s26 57 57 57s57 -26 57 -57s-26 -56 -57 -56z" />
    <glyph glyph-name="iacute" unicode="&#xed;" horiz-adv-x="279" 
d="M31 0v34l67 22v342l-59 21v35l142 29v-428l75 -21v-34h-225zM177 756h80v-19l-99 -186h-41z" />
    <glyph glyph-name="igrave" unicode="&#xec;" horiz-adv-x="279" 
d="M31 0v34l67 22v342l-59 21v35l142 29v-428l75 -21v-34h-225zM118 551l-100 186v19h80l61 -205h-41z" />
    <glyph glyph-name="icircumflex" unicode="&#xee;" horiz-adv-x="279" 
d="M31 0v34l67 22v342l-59 21v35l142 29v-428l75 -21v-34h-225zM54 551h-47l101 205h57l101 -205h-49l-83 131z" />
    <glyph glyph-name="idieresis" unicode="&#xef;" horiz-adv-x="279" 
d="M49 606c-31 0 -56 25 -56 56s25 57 56 57s57 -26 57 -57s-26 -56 -57 -56zM226 606c-31 0 -57 25 -57 56s26 57 57 57s57 -26 57 -57s-26 -56 -57 -56zM31 0v34l67 22v342l-59 21v35l142 29v-428l75 -21v-34h-225z" />
    <glyph glyph-name="ntilde" unicode="&#xf1;" horiz-adv-x="570" 
d="M33 0v34l63 21v337l-67 16v27l123 48h5l22 -91h1c17 20 80 91 164 91c93 0 136 -40 136 -168v-261l65 -21v-33h-207v34l57 20v253c-4 70 -25 109 -92 109c-65 0 -122 -55 -122 -57v-305l66 -20v-34h-214zM291 605l-39 23c-64 38 -86 34 -114 -33l-30 13l5 13
c39 97 91 118 154 83l48 -27c49 -28 73 -18 102 51l30 -13l-5 -13c-40 -104 -88 -134 -151 -97z" />
    <glyph glyph-name="oacute" unicode="&#xf3;" horiz-adv-x="536" 
d="M127 261c0 -110 46 -233 153 -233c80 0 129 81 129 183c0 147 -62 231 -152 231c-82 0 -130 -79 -130 -181zM268 -16c-151 0 -232 113 -232 242c0 143 102 259 232 259c142 0 232 -89 232 -240c0 -145 -100 -261 -232 -261zM306 756h80v-19l-99 -186h-41z" />
    <glyph glyph-name="ograve" unicode="&#xf2;" horiz-adv-x="536" 
d="M127 261c0 -110 46 -233 153 -233c80 0 129 81 129 183c0 147 -62 231 -152 231c-82 0 -130 -79 -130 -181zM268 -16c-151 0 -232 113 -232 242c0 143 102 259 232 259c142 0 232 -89 232 -240c0 -145 -100 -261 -232 -261zM246 551l-100 186v19h80l61 -205h-41z" />
    <glyph glyph-name="ocircumflex" unicode="&#xf4;" horiz-adv-x="536" 
d="M127 261c0 -110 46 -233 153 -233c80 0 129 81 129 183c0 147 -62 231 -152 231c-82 0 -130 -79 -130 -181zM268 -16c-151 0 -232 113 -232 242c0 143 102 259 232 259c142 0 232 -89 232 -240c0 -145 -100 -261 -232 -261zM185 551h-47l101 205h57l101 -205h-49l-83 131
z" />
    <glyph glyph-name="odieresis" unicode="&#xf6;" horiz-adv-x="536" 
d="M127 261c0 -110 46 -233 153 -233c80 0 129 81 129 183c0 147 -62 231 -152 231c-82 0 -130 -79 -130 -181zM268 -16c-151 0 -232 113 -232 242c0 143 102 259 232 259c142 0 232 -89 232 -240c0 -145 -100 -261 -232 -261zM166 606c-31 0 -56 25 -56 56s25 57 56 57
s57 -26 57 -57s-26 -56 -57 -56zM363 606c-31 0 -57 25 -57 56s26 57 57 57s57 -26 57 -57s-26 -56 -57 -56z" />
    <glyph glyph-name="otilde" unicode="&#xf5;" horiz-adv-x="536" 
d="M127 261c0 -110 46 -233 153 -233c80 0 129 81 129 183c0 147 -62 231 -152 231c-82 0 -130 -79 -130 -181zM268 -16c-151 0 -232 113 -232 242c0 143 102 259 232 259c142 0 232 -89 232 -240c0 -145 -100 -261 -232 -261zM293 605l-39 23c-64 38 -86 34 -114 -33
l-30 13l5 13c39 97 91 118 154 83l48 -27c49 -28 73 -18 102 51l30 -13l-5 -13c-40 -104 -88 -134 -151 -97z" />
    <glyph glyph-name="uacute" unicode="&#xfa;" horiz-adv-x="553" 
d="M412 -15l-29 81c-8 -9 -73 -83 -167 -83c-89 0 -133 65 -133 178v246l-69 20v37l154 15v-309c3 -83 38 -119 105 -119c61 0 106 47 106 47v309l-81 18v37l166 15v-419l81 -20v-33zM310 756h80v-19l-99 -186h-41z" />
    <glyph glyph-name="ugrave" unicode="&#xf9;" horiz-adv-x="553" 
d="M412 -15l-29 81c-8 -9 -73 -83 -167 -83c-89 0 -133 65 -133 178v246l-69 20v37l154 15v-309c3 -83 38 -119 105 -119c61 0 106 47 106 47v309l-81 18v37l166 15v-419l81 -20v-33zM272 551l-100 186v19h80l61 -205h-41z" />
    <glyph glyph-name="ucircumflex" unicode="&#xfb;" horiz-adv-x="553" 
d="M412 -15l-29 81c-8 -9 -73 -83 -167 -83c-89 0 -133 65 -133 178v246l-69 20v37l154 15v-309c3 -83 38 -119 105 -119c61 0 106 47 106 47v309l-81 18v37l166 15v-419l81 -20v-33zM184 551h-47l101 205h57l101 -205h-49l-83 131z" />
    <glyph glyph-name="udieresis" unicode="&#xfc;" horiz-adv-x="553" 
d="M412 -15l-29 81c-8 -9 -73 -83 -167 -83c-89 0 -133 65 -133 178v246l-69 20v37l154 15v-309c3 -83 38 -119 105 -119c61 0 106 47 106 47v309l-81 18v37l166 15v-419l81 -20v-33zM170 606c-31 0 -56 25 -56 56s25 57 56 57s57 -26 57 -57s-26 -56 -57 -56zM367 606
c-31 0 -57 25 -57 56s26 57 57 57s57 -26 57 -57s-26 -56 -57 -56z" />
    <glyph glyph-name="dagger" unicode="&#x2020;" horiz-adv-x="296" 
d="M15 570v54l108 -4l-5 113h59l-5 -113l109 4v-54l-110 4l6 -275l-59 -1l5 276z" />
    <glyph glyph-name="degree" unicode="&#xb0;" horiz-adv-x="297" 
d="M0 603c0 82 66 148 149 148c82 0 148 -66 148 -148c0 -83 -66 -149 -148 -149c-83 0 -149 66 -149 149zM52 603c0 -58 41 -103 97 -103s97 45 97 103s-41 103 -97 103s-97 -45 -97 -103z" />
    <glyph glyph-name="cent" unicode="&#xa2;" horiz-adv-x="469" 
d="M208 -125l9 112c-101 15 -182 90 -182 231c0 147 113 246 225 262l12 132h41l-12 -129c78 -3 136 -46 136 -100c0 -27 -13 -47 -51 -47c-15 0 -31 3 -31 3l-10 85c-10 5 -23 14 -47 17l-34 -386c12 -2 24 -3 37 -3c67 0 119 65 119 65l20 -13s-44 -119 -182 -120l-9 -109
h-41zM123 257c0 -83 36 -156 101 -188l33 372c-75 -11 -134 -86 -134 -184z" />
    <glyph glyph-name="sterling" unicode="&#xa3;" horiz-adv-x="632" 
d="M123 255v44h122l30 112c44 163 173 242 229 242c48 0 100 -35 100 -96c0 -21 -24 -42 -66 -46c-12 71 -36 99 -65 99c-30 0 -62 -37 -96 -163l-40 -148h192v-44h-204l-3 -14c-30 -110 -84 -177 -139 -215c37 -17 75 -39 108 -62l50 -35c89 -61 129 -87 167 -87
c49 0 38 83 36 131c33 0 70 -6 70 -45c0 -43 -48 -130 -156 -130c-97 0 -192 84 -278 150l-60 46c-25 -9 -48 -13 -67 -13c-44 0 -53 18 -53 33c0 24 37 42 64 42c25 0 54 -6 83 -16c30 26 45 65 58 110l28 105h-110z" />
    <glyph glyph-name="section" unicode="&#xa7;" horiz-adv-x="571" 
d="M297 -100c0 49 -42 112 -82 179l-68 114c-38 63 -69 126 -69 181c0 159 218 292 315 292c46 0 71 -26 71 -55c0 -23 -18 -44 -44 -44l-76 40c-25 -3 -56 -11 -85 -26c-3 -9 -7 -18 -7 -37c0 -48 44 -107 83 -173l68 -114c38 -64 68 -129 68 -183
c0 -158 -211 -290 -314 -290c-46 0 -69 27 -69 55c0 23 16 43 43 43l75 -39c25 2 56 11 84 26c3 7 7 15 7 31zM153 414c0 -62 32 -123 70 -190l53 -94c51 -92 73 -132 73 -176c0 -16 -3 -30 -5 -41h4c28 31 47 71 47 123c0 62 -30 122 -68 190l-53 94
c-52 91 -74 132 -73 176c0 16 3 30 5 41h-5c-28 -31 -48 -71 -48 -123z" />
    <glyph glyph-name="bullet" unicode="&#x2022;" horiz-adv-x="339" 
d="M169 179c-49 0 -92 43 -92 93s43 92 92 92c51 0 93 -42 93 -92s-42 -93 -93 -93z" />
    <glyph glyph-name="paragraph" unicode="&#xb6;" horiz-adv-x="539" 
d="M251 -206c-97 0 -161 67 -161 131c0 47 29 69 64 69c30 0 53 -21 58 -54l-31 -70v-6c15 -20 43 -35 80 -35c76 0 116 59 116 162v633h-53v-420h-57c-127 0 -230 103 -230 230s103 230 230 230h252v-33l-85 -25v-604c0 -148 -89 -208 -183 -208z" />
    <glyph glyph-name="germandbls" unicode="&#xdf;" horiz-adv-x="609" 
d="M33 0v31l65 22v367h-72v41l71 20c9 131 80 265 243 265c109 0 184 -53 184 -130c0 -73 -50 -105 -116 -150c-44 -30 -59 -53 -59 -82c0 -38 25 -56 62 -77l65 -37c72 -41 96 -80 96 -135c0 -87 -96 -154 -189 -154c-41 0 -88 12 -130 39l2 133h28l38 -102s27 -28 83 -28
c47 0 85 24 85 78c0 46 -28 78 -88 109l-51 28c-48 26 -83 62 -83 117c0 49 35 82 66 105c62 44 100 78 100 138c0 66 -49 106 -112 106c-84 0 -138 -63 -138 -176v-528h-150z" />
    <glyph glyph-name="registered" unicode="&#xae;" horiz-adv-x="407" 
d="M6 560c0 109 90 194 199 194s196 -85 196 -194s-90 -193 -199 -193s-196 83 -196 193zM37 560c0 -94 73 -167 166 -167c94 0 167 72 167 167c0 94 -73 167 -167 167s-166 -73 -166 -167zM101 464v16l28 7v157l-28 8v15h85c68 0 107 -17 107 -55c0 -30 -23 -46 -52 -56v-1
l50 -69l31 -6v-16h-68l-30 43l-29 40h-21v-60l26 -7v-16h-99zM174 648v-80h32c18 3 39 18 39 39c0 28 -24 43 -71 41z" />
    <glyph glyph-name="copyright" unicode="&#xa9;" horiz-adv-x="811" 
d="M60 327c0 193 154 346 345 346s346 -153 346 -346s-155 -345 -346 -345s-345 152 -345 345zM93 327c0 -175 140 -315 312 -315s312 140 312 315s-140 315 -312 315s-312 -140 -312 -315zM409 132c-143 0 -195 101 -195 185c0 120 89 205 209 205c55 0 90 -20 121 -32
l2 -102h-25l-33 72c-18 15 -40 28 -77 28c-63 0 -119 -47 -119 -159c0 -100 55 -161 134 -161c28 0 54 10 72 25l36 76h25l-8 -101c-47 -19 -84 -36 -142 -36z" />
    <glyph glyph-name="trademark" unicode="&#x2122;" horiz-adv-x="834" 
d="M359 322v29l38 9v263l-38 10v31h144l84 -227h3l83 227h134v-31l-38 -10v-263l40 -9v-29h-150v30l43 9v266h-4l-94 -252l-11 -30h-41l-10 28l-98 254h-4v-263l52 -14v-28h-133zM34 664h291l5 -108h-27l-27 75h-62v-270l45 -10v-29h-158v29l46 10v270h-63l-27 -75h-27z" />
    <glyph glyph-name="acute" unicode="&#xb4;" horiz-adv-x="400" 
d="M191 756h80v-19l-99 -186h-41z" />
    <glyph glyph-name="dieresis" unicode="&#xa8;" horiz-adv-x="400" 
d="M101 606c-31 0 -56 25 -56 56s25 57 56 57s57 -26 57 -57s-26 -56 -57 -56zM298 606c-31 0 -57 25 -57 56s26 57 57 57s57 -26 57 -57s-26 -56 -57 -56z" />
    <glyph glyph-name="notequal" unicode="&#x2260;" horiz-adv-x="558" 
d="M42 293v55h296l99 110h61l-100 -110h118v-55h-167l-82 -91h249v-55h-299l-99 -110h-58l98 110h-116v55h166l81 91h-247z" />
    <glyph glyph-name="AE" unicode="&#xc6;" horiz-adv-x="959" 
d="M688 315h-130v-268h234l81 132h37l-32 -179h-498v33l85 23v259h-189l-133 -247l97 -35v-33h-236v32l64 29l314 537l-99 34v32h504l87 4v-177h-36l-54 128h-226v-258h130l29 82h32v-204h-35zM465 619h-10l-153 -259h163v259z" />
    <glyph glyph-name="Oslash" unicode="&#xd8;" horiz-adv-x="786" 
d="M75 -35l78 102c-62 60 -99 146 -99 251c0 225 145 363 338 363c78 0 142 -19 192 -51l56 74h57l-77 -101c76 -66 112 -167 112 -266c0 -225 -145 -362 -339 -362c-79 0 -150 23 -206 63l-55 -73h-57zM626 312c0 86 -20 165 -58 223l-334 -436c39 -48 94 -80 170 -80
c154 0 222 159 222 293zM385 637c-161 0 -225 -159 -225 -286c0 -73 14 -151 48 -212l331 433c-39 41 -91 65 -154 65z" />
    <glyph glyph-name="plusminus" unicode="&#xb1;" horiz-adv-x="557" 
d="M516 338h-206v-208h-62v208h-206v58h206v208h62v-208h206v-58zM516 0h-474v58h474v-58z" />
    <glyph glyph-name="lessequal" unicode="&#x2264;" horiz-adv-x="558" 
d="M514 458l-384 -143l384 -142v-67l-472 180v59l472 180v-67zM514 0h-472v58h472v-58z" />
    <glyph glyph-name="greaterequal" unicode="&#x2265;" horiz-adv-x="558" 
d="M426 315l-384 143v67l472 -180v-59l-472 -180v67zM514 0h-472v58h472v-58z" />
    <glyph glyph-name="yen" unicode="&#xa5;" horiz-adv-x="610" 
d="M82 248v44h174l-172 286l-64 26v32h251v-32l-75 -26l131 -238h4l136 229l-94 33v34h217v-32l-66 -30l-172 -282h175v-44h-177v-75h177v-44h-177v-73l97 -23v-33h-284v33l98 23v73h-179v44h179v75h-179z" />
    <glyph glyph-name="ordfeminine" unicode="&#xaa;" horiz-adv-x="427" 
d="M140 235c-45 0 -100 32 -100 95c0 65 48 92 132 113l86 22v37c-1 58 -33 93 -77 93c-24 0 -44 -9 -50 -13l-3 -79c-2 -2 -22 -5 -36 -5c-27 0 -40 13 -40 37c0 39 74 96 161 96c86 0 121 -39 121 -121v-203c0 -19 6 -24 28 -24h40v-24s-49 -22 -81 -22
c-44 0 -60 28 -61 63h-6c-42 -39 -63 -65 -114 -65zM183 293c40 0 65 25 75 37v107l-75 -23c-39 -13 -63 -29 -63 -60c0 -40 31 -61 63 -61z" />
    <glyph glyph-name="ordmasculine" unicode="&#xba;" horiz-adv-x="454" 
d="M115 447c1 -88 38 -178 122 -176c65 1 103 66 102 149c-1 110 -51 176 -122 175c-66 -1 -103 -65 -102 -148zM227 232c-126 0 -193 90 -193 194c0 114 85 207 193 207c118 0 193 -73 193 -193c0 -115 -84 -208 -193 -208z" />
    <glyph glyph-name="ae" unicode="&#xe6;" horiz-adv-x="758" 
d="M169 -15c-53 0 -120 37 -120 117c0 76 44 118 158 139l114 21v62c-2 77 -46 117 -99 117c-30 0 -59 -13 -67 -18l-4 -99s-25 -3 -40 -3c-32 0 -48 16 -48 43c0 45 92 119 195 119c66 0 108 -30 130 -79c26 44 93 80 160 80c92 0 154 -61 159 -183l-300 -55v-41
c5 -84 61 -145 143 -145c77 0 138 75 138 75l20 -12s-55 -139 -194 -139c-72 0 -139 40 -172 107c-51 -61 -96 -106 -173 -106zM221 53c59 0 97 50 109 69c-6 19 -9 40 -9 63v45l-94 -20c-58 -13 -87 -39 -87 -80c0 -51 36 -77 81 -77zM521 440c-58 0 -113 -62 -114 -160
l200 40c-1 68 -37 120 -86 120z" />
    <glyph glyph-name="oslash" unicode="&#xf8;" horiz-adv-x="536" 
d="M83 -43h-51l71 95c-43 44 -67 107 -67 174c0 143 102 259 232 259c51 0 96 -13 132 -37l54 71h51l-73 -97c43 -42 68 -103 68 -177c0 -145 -100 -261 -232 -261c-52 0 -97 16 -134 41zM278 27c80 0 132 83 132 194c0 58 -9 104 -25 138l-213 -284c23 -29 57 -48 106 -48z
M126 253c0 -48 6 -98 24 -139l212 283c-26 32 -62 47 -104 47c-82 0 -132 -82 -132 -191z" />
    <glyph glyph-name="questiondown" unicode="&#xbf;" horiz-adv-x="406" 
d="M314 -21v-104l-29 5c-98 17 -235 112 -235 243c0 60 31 102 98 127l82 30l-4 97h45l23 -163l-116 -41c-57 -20 -76 -42 -76 -75c0 -55 81 -103 188 -116zM254 577c33 0 62 -29 62 -63s-29 -62 -62 -62c-35 0 -63 28 -63 62s28 63 63 63z" />
    <glyph glyph-name="exclamdown" unicode="&#xa1;" horiz-adv-x="285" 
d="M191 -125h-97l25 502h47zM143 577c33 0 62 -29 62 -63s-29 -62 -62 -62c-35 0 -63 28 -63 62s28 63 63 63z" />
    <glyph glyph-name="logicalnot" unicode="&#xac;" horiz-adv-x="558" 
d="M42 266h474v-206h-62v148h-412v58z" />
    <glyph glyph-name="florin" unicode="&#x192;" horiz-adv-x="456" 
d="M37 273l6 44h91c43 161 150 287 261 287c48 0 67 -28 67 -54s-20 -50 -31 -64c-31 33 -59 64 -94 64c-31 0 -68 -22 -118 -233h130l-10 -44h-130l-6 -31l-47 -227c-50 -241 -176 -275 -221 -275c-25 0 -66 19 -66 57c0 18 12 41 25 50c26 -24 62 -58 90 -58
c37 0 54 55 73 150l66 334h-86z" />
    <glyph glyph-name="approxequal" unicode="&#x2248;" horiz-adv-x="558" 
d="M90 277l-45 18c29 62 64 99 123 99c23 0 50 -5 76 -11l66 -16c30 -7 62 -16 88 -16c34 0 51 22 71 59l45 -18c-29 -63 -64 -97 -124 -97c-30 0 -66 7 -98 15l-65 17c-23 6 -45 12 -66 12c-34 0 -52 -26 -71 -62zM90 117l-45 18c29 62 64 99 123 99c23 0 50 -5 76 -11
l66 -16c30 -7 62 -16 88 -16c34 0 51 22 71 59l45 -18c-29 -63 -64 -97 -124 -97c-30 0 -66 7 -98 15l-65 17c-23 6 -45 12 -66 12c-34 0 -52 -26 -71 -62z" />
    <glyph glyph-name="guillemotleft" unicode="&#xab;" horiz-adv-x="609" 
d="M272 461l28 -25l-140 -206l139 -196l-27 -26l-202 214v17zM491 461l28 -25l-140 -206l139 -196l-27 -26l-202 214v17z" />
    <glyph glyph-name="guillemotright" unicode="&#xbb;" horiz-adv-x="608" 
d="M118 8l-28 25l139 206l-138 196l27 26l202 -214v-17zM336 8l-28 25l139 206l-138 196l27 26l202 -214v-17z" />
    <glyph glyph-name="ellipsis" unicode="&#x2026;" horiz-adv-x="707" 
d="M120 -4c-37 0 -69 32 -69 70c0 37 32 69 69 69c38 0 70 -32 70 -69c0 -38 -32 -70 -70 -70zM353 -4c-37 0 -69 32 -69 70c0 37 32 69 69 69c38 0 70 -32 70 -69c0 -38 -32 -70 -70 -70zM586 -4c-37 0 -69 32 -69 70c0 37 32 69 69 69c38 0 70 -32 70 -69
c0 -38 -32 -70 -70 -70z" />
    <glyph glyph-name="Agrave" unicode="&#xc0;" horiz-adv-x="674" 
d="M3 0v32l58 23l243 614l34 5l35 10l230 -629l68 -22v-33h-257v33l85 23l-61 175h-244l-58 -163l96 -35v-33h-229zM317 574l-101 -283h201l-99 283h-1zM195 875h93l79 -139h-52l-120 119v20z" />
    <glyph glyph-name="Atilde" unicode="&#xc3;" horiz-adv-x="674" 
d="M3 0v32l58 23l243 614l34 5l35 10l230 -629l68 -22v-33h-257v33l85 23l-61 175h-244l-58 -163l96 -35v-33h-229zM317 574l-101 -283h201l-99 283h-1zM357 754l-42 18c-68 29 -89 38 -117 -29l-30 13l5 13c39 97 82 108 148 81l52 -21c52 -21 75 -22 104 47l30 -13l-5 -13
c-40 -104 -79 -124 -145 -96z" />
    <glyph glyph-name="Otilde" unicode="&#xd5;" horiz-adv-x="786" 
d="M404 17c156 0 225 161 225 295c0 171 -103 327 -245 327c-161 0 -227 -156 -227 -288c0 -151 80 -334 247 -334zM392 681c237 0 340 -174 340 -344c0 -225 -145 -362 -339 -362c-195 0 -339 137 -339 343c0 225 145 363 338 363zM413 754l-42 18c-68 29 -89 38 -117 -29
l-30 13l5 13c39 97 82 108 148 81l52 -21c52 -21 75 -22 104 47l30 -13l-5 -13c-40 -104 -79 -124 -145 -96z" />
    <glyph glyph-name="OE" unicode="&#x152;" horiz-adv-x="1021" 
d="M940 0h-307c-93 0 -119 -5 -221 -5c-227 0 -358 141 -358 326c0 208 151 349 369 349c82 0 107 -6 287 -6h139l87 4v-177h-36l-54 128h-226v-252h130l29 82h32v-204h-35l-26 76h-130v-274h234l81 132h37zM527 158v458s-58 8 -119 8c-149 0 -248 -105 -248 -277
c0 -146 74 -308 244 -308c97 0 123 27 123 119z" />
    <glyph glyph-name="oe" unicode="&#x153;" horiz-adv-x="878" 
d="M632 -16c-101 0 -154 54 -181 115c-36 -70 -100 -115 -183 -115c-151 0 -232 113 -232 242c0 143 102 259 232 259c97 0 162 -42 194 -116c37 69 100 114 187 114c111 0 176 -75 176 -212h-331v-10c0 -124 71 -201 175 -201c85 0 139 75 139 75l20 -12
s-47 -139 -196 -139zM280 28c80 0 128 81 128 183c0 135 -61 231 -151 231c-82 0 -129 -79 -129 -181c0 -98 45 -233 152 -233zM627 439c-63 0 -113 -55 -128 -129h226c-1 68 -32 129 -98 129z" />
    <glyph glyph-name="endash" unicode="&#x2013;" horiz-adv-x="408" 
d="M4 267v51h400v-51h-400z" />
    <glyph glyph-name="emdash" unicode="&#x2014;" horiz-adv-x="808" 
d="M4 267v51h800v-51h-800z" />
    <glyph glyph-name="quotedblleft" unicode="&#x201c;" horiz-adv-x="509" 
d="M213 791c-49 -36 -77 -85 -77 -127c0 -36 22 -66 74 -77c9 -54 -15 -86 -60 -86c-38 0 -81 33 -81 109c0 89 54 165 125 206c0 0 17 -22 19 -25zM431 791c-49 -36 -77 -85 -77 -127c0 -36 22 -66 74 -77c9 -54 -15 -86 -60 -86c-38 0 -81 33 -81 109c0 89 54 165 125 206
c0 0 17 -22 19 -25z" />
    <glyph glyph-name="quotedblright" unicode="&#x201d;" horiz-adv-x="509" 
d="M78 508c49 36 77 85 77 127c0 36 -22 66 -74 77c-9 54 15 86 60 86c38 0 81 -33 81 -109c0 -89 -54 -165 -125 -206c0 0 -17 22 -19 25zM296 508c49 36 77 85 77 127c0 36 -22 66 -74 77c-9 54 15 86 60 86c38 0 81 -33 81 -109c0 -89 -54 -165 -125 -206
c0 0 -17 22 -19 25z" />
    <glyph glyph-name="quoteleft" unicode="&#x2018;" horiz-adv-x="291" 
d="M213 791c-49 -36 -77 -85 -77 -127c0 -36 22 -66 74 -77c9 -54 -15 -86 -60 -86c-38 0 -81 33 -81 109c0 89 54 165 125 206c0 0 17 -22 19 -25z" />
    <glyph glyph-name="quoteright" unicode="&#x2019;" horiz-adv-x="291" 
d="M78 508c49 36 77 85 77 127c0 36 -22 66 -74 77c-9 54 15 86 60 86c38 0 81 -33 81 -109c0 -89 -54 -165 -125 -206c0 0 -17 22 -19 25z" />
    <glyph glyph-name="divide" unicode="&#xf7;" horiz-adv-x="558" 
d="M516 208h-474v58h474v-58zM278 -4c-37 0 -69 32 -69 70c0 37 32 69 69 69c38 0 70 -32 70 -69c0 -38 -32 -70 -70 -70zM279 338c-37 0 -69 32 -69 70c0 37 32 69 69 69c38 0 70 -32 70 -69c0 -38 -32 -70 -70 -70z" />
    <glyph glyph-name="ydieresis" unicode="&#xff;" horiz-adv-x="498" 
d="M400 415l-69 25v30h168v-31l-46 -20l-222 -554c-31 -79 -55 -118 -106 -118c-33 0 -62 23 -62 56c0 32 22 50 50 50c24 0 38 -15 49 -36h2l59 138l-177 465l-47 19v31h217v-31l-73 -19l124 -350h3zM176 606c-31 0 -56 25 -56 56s25 57 56 57s57 -26 57 -57
s-26 -56 -57 -56zM373 606c-31 0 -57 25 -57 56s26 57 57 57s57 -26 57 -57s-26 -56 -57 -56z" />
    <glyph glyph-name="Ydieresis" unicode="&#x178;" horiz-adv-x="630" 
d="M557 602l-193 -322v-224l94 -23v-33h-286v33l95 23v206l-196 344l-64 26v32h251v-32l-75 -26l155 -286h4l158 277l-94 33v34h217v-32zM224 761c-31 0 -56 25 -56 56s25 57 56 57s57 -26 57 -57s-26 -56 -57 -56zM445 761c-31 0 -57 25 -57 56s26 57 57 57s57 -26 57 -57
s-26 -56 -57 -56z" />
    <glyph glyph-name="fraction" unicode="&#x2044;" horiz-adv-x="245" 
d="M-125 -86l-44 31l539 782l44 -29z" />
    <glyph glyph-name="Euro" unicode="&#x20ac;" horiz-adv-x="639" 
d="M38 327l5 44h75c41 150 172 233 310 233c66 0 148 -33 148 -83c0 -24 -16 -47 -47 -69c-44 74 -87 104 -153 104c-84 0 -153 -74 -173 -185h250l-5 -44h-250v-22c0 -19 1 -36 3 -53h236l-5 -44h-224c26 -109 99 -167 197 -167c51 0 105 18 146 54l20 -22
c-50 -64 -116 -96 -197 -96c-157 0 -243 102 -263 231h-89l5 44h79v20c0 19 1 37 3 55h-71z" />
    <glyph glyph-name="guilsinglleft" unicode="&#x2039;" horiz-adv-x="390" 
d="M272 461l28 -25l-140 -206l139 -196l-27 -26l-202 214v17z" />
    <glyph glyph-name="guilsinglright" unicode="&#x203a;" horiz-adv-x="390" 
d="M118 8l-28 25l139 206l-138 196l27 26l202 -214v-17z" />
    <glyph glyph-name="daggerdbl" unicode="&#x2021;" horiz-adv-x="296" 
d="M15 570v54l108 -4l-5 113h59l-5 -113l109 4v-54l-110 4v-112l110 4v-54l-109 4l5 -117l-59 -1l5 118l-108 -4v54l109 -4v112z" />
    <glyph glyph-name="periodcentered" unicode="&#xb7;" horiz-adv-x="339" 
d="M169 202c-37 0 -69 32 -69 70c0 37 32 69 69 69c38 0 70 -32 70 -69c0 -38 -32 -70 -70 -70z" />
    <glyph glyph-name="quotesinglbase" unicode="&#x201a;" horiz-adv-x="301" 
d="M69 -114c49 36 77 85 77 127c0 36 -22 66 -74 77c-9 54 15 86 60 86c38 0 81 -33 81 -109c0 -89 -54 -165 -125 -206c0 0 -17 22 -19 25z" />
    <glyph glyph-name="quotedblbase" unicode="&#x201e;" horiz-adv-x="519" 
d="M69 -114c49 36 77 85 77 127c0 36 -22 66 -74 77c-9 54 15 86 60 86c38 0 81 -33 81 -109c0 -89 -54 -165 -125 -206c0 0 -17 22 -19 25zM287 -114c49 36 77 85 77 127c0 36 -22 66 -74 77c-9 54 15 86 60 86c38 0 81 -33 81 -109c0 -89 -54 -165 -125 -206
c0 0 -17 22 -19 25z" />
    <glyph glyph-name="perthousand" unicode="&#x2030;" horiz-adv-x="1285" 
d="M216 605c109 0 161 -89 161 -177c0 -110 -75 -188 -167 -188c-94 0 -160 69 -160 175c0 111 75 190 166 190zM209 564c-60 0 -85 -72 -85 -131c0 -75 30 -152 95 -152c58 0 84 70 84 132c0 84 -39 151 -94 151zM685 346c109 0 161 -89 161 -177
c0 -110 -75 -188 -167 -188c-94 0 -160 69 -160 175c0 111 75 190 166 190zM678 305c-60 0 -85 -72 -85 -131c0 -75 30 -152 95 -152c58 0 84 70 84 132c0 84 -39 151 -94 151zM1074 346c109 0 161 -89 161 -177c0 -110 -75 -188 -167 -188c-94 0 -160 69 -160 175
c0 111 75 190 166 190zM1067 305c-60 0 -85 -72 -85 -131c0 -75 30 -152 95 -152c58 0 84 70 84 132c0 84 -39 151 -94 151zM182 -50l470 680h59l-470 -680h-59z" />
    <glyph glyph-name="Acircumflex" unicode="&#xc2;" horiz-adv-x="674" 
d="M3 0v32l58 23l243 614l34 5l35 10l230 -629l68 -22v-33h-257v33l85 23l-61 175h-244l-58 -163l96 -35v-33h-229zM317 574l-101 -283h201l-99 283h-1zM223 736h-45l111 129h97l111 -129h-47l-114 78z" />
    <glyph glyph-name="Ecircumflex" unicode="&#xca;" horiz-adv-x="632" 
d="M361 321h-130v-274h234l81 132h37l-32 -179h-502v33l85 23v549l-85 27v32h411l87 4v-177h-36l-54 128h-226v-252h130l29 82h32v-204h-35zM220 736h-45l111 129h97l111 -129h-47l-114 78z" />
    <glyph glyph-name="Aacute" unicode="&#xc1;" horiz-adv-x="674" 
d="M3 0v32l58 23l243 614l34 5l35 10l230 -629l68 -22v-33h-257v33l85 23l-61 175h-244l-58 -163l96 -35v-33h-229zM317 574l-101 -283h201l-99 283h-1zM383 875h93v-20l-120 -119h-52z" />
    <glyph glyph-name="Edieresis" unicode="&#xcb;" horiz-adv-x="632" 
d="M361 321h-130v-274h234l81 132h37l-32 -179h-502v33l85 23v549l-85 27v32h411l87 4v-177h-36l-54 128h-226v-252h130l29 82h32v-204h-35zM223 761c-31 0 -56 25 -56 56s25 57 56 57s57 -26 57 -57s-26 -56 -57 -56zM444 761c-31 0 -57 25 -57 56s26 57 57 57
s57 -26 57 -57s-26 -56 -57 -56z" />
    <glyph glyph-name="Egrave" unicode="&#xc8;" horiz-adv-x="632" 
d="M361 321h-130v-274h234l81 132h37l-32 -179h-502v33l85 23v549l-85 27v32h411l87 4v-177h-36l-54 128h-226v-252h130l29 82h32v-204h-35zM192 875h93l79 -139h-52l-120 119v20z" />
    <glyph glyph-name="Iacute" unicode="&#xcd;" horiz-adv-x="354" 
d="M49 0v33l85 23v550l-85 26v32h267v-32l-85 -26v-550l85 -24v-32h-267zM228 875h93v-20l-120 -119h-52z" />
    <glyph glyph-name="Icircumflex" unicode="&#xce;" horiz-adv-x="354" 
d="M49 0v33l85 23v550l-85 26v32h267v-32l-85 -26v-550l85 -24v-32h-267zM68 736h-45l111 129h97l111 -129h-47l-114 78z" />
    <glyph glyph-name="Idieresis" unicode="&#xcf;" horiz-adv-x="354" 
d="M49 0v33l85 23v550l-85 26v32h267v-32l-85 -26v-550l85 -24v-32h-267zM71 761c-31 0 -56 25 -56 56s25 57 56 57s57 -26 57 -57s-26 -56 -57 -56zM292 761c-31 0 -57 25 -57 56s26 57 57 57s57 -26 57 -57s-26 -56 -57 -56z" />
    <glyph glyph-name="Igrave" unicode="&#xcc;" horiz-adv-x="354" 
d="M49 0v33l85 23v550l-85 26v32h267v-32l-85 -26v-550l85 -24v-32h-267zM40 875h93l79 -139h-52l-120 119v20z" />
    <glyph glyph-name="Oacute" unicode="&#xd3;" horiz-adv-x="786" 
d="M404 17c156 0 225 161 225 295c0 171 -103 327 -245 327c-161 0 -227 -156 -227 -288c0 -151 80 -334 247 -334zM392 681c237 0 340 -174 340 -344c0 -225 -145 -362 -339 -362c-195 0 -339 137 -339 343c0 225 145 363 338 363zM439 875h93v-20l-120 -119h-52z" />
    <glyph glyph-name="Ocircumflex" unicode="&#xd4;" horiz-adv-x="786" 
d="M404 17c156 0 225 161 225 295c0 171 -103 327 -245 327c-161 0 -227 -156 -227 -288c0 -151 80 -334 247 -334zM392 681c237 0 340 -174 340 -344c0 -225 -145 -362 -339 -362c-195 0 -339 137 -339 343c0 225 145 363 338 363zM279 736h-45l111 129h97l111 -129h-47
l-114 78z" />
    <glyph glyph-name="Ograve" unicode="&#xd2;" horiz-adv-x="786" 
d="M404 17c156 0 225 161 225 295c0 171 -103 327 -245 327c-161 0 -227 -156 -227 -288c0 -151 80 -334 247 -334zM392 681c237 0 340 -174 340 -344c0 -225 -145 -362 -339 -362c-195 0 -339 137 -339 343c0 225 145 363 338 363zM251 875h93l79 -139h-52l-120 119v20z
" />
    <glyph glyph-name="Uacute" unicode="&#xda;" horiz-adv-x="739" 
d="M377 -24c-215 0 -270 116 -270 278v352l-85 26v32h270v-32l-85 -26v-327c0 -136 38 -246 179 -246c136 0 197 75 195 241l-3 323l-116 35v32h263v-32l-85 -26v-352c-2 -188 -132 -278 -263 -278zM429 875h93v-20l-120 -119h-52z" />
    <glyph glyph-name="Ucircumflex" unicode="&#xdb;" horiz-adv-x="739" 
d="M377 -24c-215 0 -270 116 -270 278v352l-85 26v32h270v-32l-85 -26v-327c0 -136 38 -246 179 -246c136 0 197 75 195 241l-3 323l-116 35v32h263v-32l-85 -26v-352c-2 -188 -132 -278 -263 -278zM269 736h-45l111 129h97l111 -129h-47l-114 78z" />
    <glyph glyph-name="Ugrave" unicode="&#xd9;" horiz-adv-x="739" 
d="M377 -24c-215 0 -270 116 -270 278v352l-85 26v32h270v-32l-85 -26v-327c0 -136 38 -246 179 -246c136 0 197 75 195 241l-3 323l-116 35v32h263v-32l-85 -26v-352c-2 -188 -132 -278 -263 -278zM241 875h93l79 -139h-52l-120 119v20z" />
    <glyph glyph-name="dotlessi" unicode="&#x131;" horiz-adv-x="279" 
d="M31 0v34l67 22v342l-59 21v35l142 29v-428l75 -21v-34h-225z" />
    <glyph glyph-name="circumflex" unicode="&#x2c6;" horiz-adv-x="400" 
d="M117 551h-47l101 205h57l101 -205h-49l-83 131z" />
    <glyph glyph-name="tilde" unicode="&#x2dc;" horiz-adv-x="400" 
d="M213 605l-39 23c-64 38 -86 34 -114 -33l-30 13l5 13c39 97 91 118 154 83l48 -27c49 -28 73 -18 102 51l30 -13l-5 -13c-40 -104 -88 -134 -151 -97z" />
    <glyph glyph-name="macron" unicode="&#xaf;" horiz-adv-x="400" 
d="M55 627v60h290v-60h-290z" />
    <glyph glyph-name="breve" unicode="&#x2d8;" horiz-adv-x="400" 
d="M195 567c-84 0 -120 65 -124 162h36c8 -52 38 -101 97 -101c51 0 81 49 89 101h35c-4 -97 -36 -162 -133 -162z" />
    <glyph glyph-name="dotaccent" unicode="&#x2d9;" horiz-adv-x="400" 
d="M200 589c-34 0 -62 28 -62 62s28 62 62 62s62 -28 62 -62s-28 -62 -62 -62z" />
    <glyph glyph-name="ring" unicode="&#x2da;" horiz-adv-x="400" 
d="M83 674c0 65 52 114 117 114c66 0 117 -48 117 -114c0 -65 -52 -114 -117 -114c-66 0 -117 48 -117 114zM129 674c0 -43 32 -73 71 -73s71 30 71 73s-32 73 -71 73s-71 -30 -71 -73z" />
    <glyph glyph-name="cedilla" unicode="&#xb8;" horiz-adv-x="400" 
d="M122 -257l-5 29c39 12 91 28 91 73c0 37 -37 52 -53 58l63 101h38l-40 -67c41 -4 71 -29 71 -70c0 -82 -105 -113 -165 -124z" />
    <glyph glyph-name="hungarumlaut" unicode="&#x2dd;" horiz-adv-x="400" 
d="M117 756h78v-19l-89 -186h-41zM259 756h78v-19l-89 -186h-41z" />
    <glyph glyph-name="ogonek" unicode="&#x2db;" horiz-adv-x="400" 
d="M222 0h42c-73 -75 -103 -105 -103 -141c0 -28 12 -50 52 -50c32 0 53 9 88 46l17 -17c-29 -45 -69 -97 -140 -97c-59 0 -96 37 -96 85c0 63 48 101 140 174z" />
    <glyph glyph-name="caron" unicode="&#x2c7;" horiz-adv-x="400" 
d="M282 756h47l-101 -205h-57l-101 205h49l82 -131z" />
    <glyph glyph-name="space_uni0326" horiz-adv-x="400" 
d="M121 -267l-8 27c67 21 92 46 92 73c0 29 -31 44 -64 47v2c5 36 32 55 68 55c45 0 69 -31 69 -71c0 -63 -55 -107 -157 -133z" />
    <glyph glyph-name="caron.alt" horiz-adv-x="400" 
d="M186 536h-29l15 210h89v-8z" />
    <glyph glyph-name="space_uni0326.alt" horiz-adv-x="400" 
d="M286 793l8 -27c-67 -21 -92 -46 -92 -73c0 -29 31 -44 64 -47v-2c-5 -36 -32 -55 -68 -55c-45 0 -69 31 -69 71c0 63 55 107 157 133z" />
    <glyph glyph-name="grave.uc" horiz-adv-x="400" 
d="M92 875h93l79 -139h-52l-120 119v20z" />
    <glyph glyph-name="dieresis.uc" horiz-adv-x="400" 
d="M89 761c-31 0 -56 25 -56 56s25 57 56 57s57 -26 57 -57s-26 -56 -57 -56zM310 761c-31 0 -57 25 -57 56s26 57 57 57s57 -26 57 -57s-26 -56 -57 -56z" />
    <glyph glyph-name="macron.uc" horiz-adv-x="400" 
d="M55 782v60h290v-60h-290z" />
    <glyph glyph-name="acute.uc" horiz-adv-x="400" 
d="M215 875h93v-20l-120 -119h-52z" />
    <glyph glyph-name="circumflex.uc" horiz-adv-x="400" 
d="M85 736h-45l111 129h97l111 -129h-47l-114 78z" />
    <glyph glyph-name="caron.uc" horiz-adv-x="400" 
d="M314 865h45l-111 -129h-97l-111 129h47l114 -78z" />
    <glyph glyph-name="breve.uc" horiz-adv-x="400" 
d="M195 732c-103 0 -139 68 -135 133h29c10 -42 46 -69 111 -69c66 0 101 27 111 69h29c5 -65 -41 -133 -145 -133z" />
    <glyph glyph-name="dotaccent.uc" horiz-adv-x="400" 
d="M200 755c-34 0 -62 28 -62 62s28 62 62 62s62 -28 62 -62s-28 -62 -62 -62z" />
    <glyph glyph-name="ring.uc" horiz-adv-x="400" 
d="M83 817c0 65 52 114 117 114c66 0 117 -48 117 -114c0 -65 -52 -114 -117 -114c-66 0 -117 48 -117 114zM129 817c0 -43 32 -73 71 -73s71 30 71 73s-32 73 -71 73s-71 -30 -71 -73z" />
    <glyph glyph-name="tilde.uc" horiz-adv-x="400" 
d="M219 754l-42 18c-68 29 -89 38 -117 -29l-30 13l5 13c39 97 82 108 148 81l52 -21c52 -21 75 -22 104 47l30 -13l-5 -13c-40 -104 -79 -124 -145 -96z" />
    <glyph glyph-name="hungarumlaut.uc" horiz-adv-x="400" 
d="M143 875h80v-19l-104 -120h-52zM284 875h80v-19l-104 -120h-52z" />
    <glyph glyph-name="cedilla.uc" horiz-adv-x="400" 
d="M122 -257l-5 29c39 12 91 28 91 73c0 37 -37 52 -53 58l63 101h38l-40 -67c44 -3 75 -29 75 -68c0 -84 -109 -115 -169 -126z" />
    <glyph glyph-name="Dcroat" unicode="&#x110;" horiz-adv-x="773" 
d="M49 0v33l85 23v250h-99v45h99v255l-85 26v32l300 4c240 3 370 -136 370 -325c0 -202 -157 -349 -417 -346zM406 306h-175v-213c5 -48 77 -55 121 -54c168 4 261 130 261 280c0 244 -178 319 -382 308v-276h175v-45z" />
    <glyph glyph-name="Eng" unicode="&#x14a;" horiz-adv-x="777" 
d="M658 606v-595c0 -142 -37 -254 -219 -269l-6 34c136 25 151 114 151 208v69l-385 470v-453l107 -37v-33h-247v33l85 23v540l-95 36v32h160l394 -482v410l-107 39v33h247v-33z" />
    <glyph glyph-name="IJ" unicode="&#x132;" horiz-adv-x="690" 
d="M49 0v33l85 23v550l-85 26v32h267v-32l-85 -26v-550l85 -24v-32h-267zM579 606v-555c0 -142 -37 -254 -219 -269l-6 34c120 25 128 108 128 223v568l-93 21v36h275v-32z" />
    <glyph glyph-name="uni0237" unicode="&#x237;" horiz-adv-x="261" 
d="M2 -251l-5 29c67 22 94 100 94 248v366l-59 27v35l143 29v-457c0 -66 -9 -126 -32 -173c-28 -58 -82 -96 -141 -104z" />
    <glyph glyph-name="dcroat" unicode="&#x111;" horiz-adv-x="570" 
d="M281 688v31l175 27v-149h86v-47h-86v-492l81 -20v-33l-134 -19l-24 68c-38 -37 -79 -70 -141 -70c-141 0 -202 116 -202 225c0 163 106 274 249 274c37 0 65 -5 86 -10v77h-194v47h194v75zM288 52c34 0 62 12 83 26v297s-38 66 -109 66c-78 0 -142 -65 -142 -181
c0 -98 39 -208 168 -208z" />
    <glyph glyph-name="eng" unicode="&#x14b;" horiz-adv-x="570" 
d="M396 26v281c-4 70 -26 109 -93 109c-65 0 -122 -55 -122 -57v-305l66 -20v-34h-214v34l63 21v337l-67 16v27l123 48h5l22 -91h1c17 20 80 91 164 91c93 0 136 -40 136 -168v-289c0 -66 -9 -126 -32 -173c-28 -58 -82 -96 -141 -104l-5 29c67 22 94 100 94 248z" />
    <glyph glyph-name="ij" unicode="&#x133;" horiz-adv-x="540" 
d="M31 0v34l67 22v342l-59 21v35l142 29v-428l75 -21v-34h-225zM133 624c-33 0 -62 28 -62 61s29 61 62 61c32 0 61 -28 61 -61s-29 -61 -61 -61zM281 -251l-5 29c67 22 94 100 94 248v366l-59 27v35l143 29v-457c0 -66 -9 -126 -32 -173c-28 -58 -82 -96 -141 -104z
M405 624c-32 0 -61 28 -61 61s29 61 61 61c33 0 62 -28 62 -61s-29 -61 -62 -61z" />
    <glyph glyph-name="Abreve" unicode="&#x102;" horiz-adv-x="674" 
d="M3 0v32l58 23l243 614l34 5l35 10l230 -629l68 -22v-33h-257v33l85 23l-61 175h-244l-58 -163l96 -35v-33h-229zM317 574l-101 -283h201l-99 283h-1zM331 732c-103 0 -139 68 -135 133h29c10 -42 46 -69 111 -69c66 0 101 27 111 69h29c5 -65 -41 -133 -145 -133z" />
    <glyph glyph-name="Amacron" unicode="&#x100;" horiz-adv-x="674" 
d="M3 0v32l58 23l243 614l34 5l35 10l230 -629l68 -22v-33h-257v33l85 23l-61 175h-244l-58 -163l96 -35v-33h-229zM317 574l-101 -283h201l-99 283h-1zM192 782v60h290v-60h-290z" />
    <glyph glyph-name="Aogonek" unicode="&#x104;" horiz-adv-x="674" 
d="M3 0v32l58 23l243 614l34 5l35 10l230 -629l68 -22v-33h-125c-92 -53 -109 -102 -109 -130c0 -38 21 -61 55 -61c33 0 51 10 87 46l17 -17c-29 -45 -69 -97 -140 -97c-58 0 -93 38 -93 89c0 59 53 106 146 195l-72 206h-243l-58 -163l96 -35v-33h-229zM317 574l-101 -283
h200l-98 283h-1z" />
    <glyph glyph-name="Aringacute" unicode="&#x1fa;" horiz-adv-x="674" 
d="M220 818c0 65 52 114 117 114c66 0 117 -48 117 -114c0 -65 -52 -114 -117 -114c-66 0 -117 48 -117 114zM266 818c0 -43 32 -73 71 -73s71 30 71 73s-32 73 -71 73s-71 -30 -71 -73zM390 1098h93v-20l-120 -119h-52zM3 0v32l58 23l243 614l34 5l35 10l230 -629l68 -22
v-33h-257v33l85 23l-61 175h-244l-58 -163l96 -35v-33h-229zM317 574l-101 -283h201l-99 283h-1z" />
    <glyph glyph-name="AEacute" unicode="&#x1fc;" horiz-adv-x="959" 
d="M688 315h-130v-268h234l81 132h37l-32 -179h-498v33l85 23v259h-189l-133 -247l97 -35v-33h-236v32l64 29l314 537l-99 34v32h504l87 4v-177h-36l-54 128h-226v-258h130l29 82h32v-204h-35zM465 619h-10l-153 -259h163v259zM557 875h93v-20l-120 -119h-52z" />
    <glyph glyph-name="Cacute" unicode="&#x106;" horiz-adv-x="716" 
d="M395 -25c-254 0 -346 175 -346 334c0 212 162 372 379 372c94 0 157 -25 209 -54l6 -167h-37l-55 134c-30 20 -73 38 -132 38c-145 0 -260 -115 -260 -288c0 -206 118 -319 268 -319c62 0 111 26 137 45l75 141h37l-26 -168c-81 -42 -158 -68 -255 -68zM464 875h93v-20
l-120 -119h-52z" />
    <glyph glyph-name="Ccaron" unicode="&#x10c;" horiz-adv-x="716" 
d="M395 -25c-254 0 -346 175 -346 334c0 212 162 372 379 372c94 0 157 -25 209 -54l6 -167h-37l-55 134c-30 20 -73 38 -132 38c-145 0 -260 -115 -260 -288c0 -206 118 -319 268 -319c62 0 111 26 137 45l75 141h37l-26 -168c-81 -42 -158 -68 -255 -68zM530 865h45
l-111 -129h-97l-111 129h47l114 -78z" />
    <glyph glyph-name="Ccircumflex" unicode="&#x108;" horiz-adv-x="716" 
d="M395 -25c-254 0 -346 175 -346 334c0 212 162 372 379 372c94 0 157 -25 209 -54l6 -167h-37l-55 134c-30 20 -73 38 -132 38c-145 0 -260 -115 -260 -288c0 -206 118 -319 268 -319c62 0 111 26 137 45l75 141h37l-26 -168c-81 -42 -158 -68 -255 -68zM304 736h-45
l111 129h97l111 -129h-47l-114 78z" />
    <glyph glyph-name="Cdotaccent" unicode="&#x10a;" horiz-adv-x="716" 
d="M395 -25c-254 0 -346 175 -346 334c0 212 162 372 379 372c94 0 157 -25 209 -54l6 -167h-37l-55 134c-30 20 -73 38 -132 38c-145 0 -260 -115 -260 -288c0 -206 118 -319 268 -319c62 0 111 26 137 45l75 141h37l-26 -168c-81 -42 -158 -68 -255 -68zM418 755
c-34 0 -62 28 -62 62s28 62 62 62s62 -28 62 -62s-28 -62 -62 -62z" />
    <glyph glyph-name="Dcaron" unicode="&#x10e;" horiz-adv-x="773" 
d="M231 627v-534c5 -48 77 -55 121 -54c168 4 261 130 261 280c0 244 -178 319 -382 308zM49 0v33l85 23v550l-85 26v32l300 4c240 3 370 -136 370 -325c0 -202 -157 -349 -417 -346zM468 865h45l-111 -129h-97l-111 129h47l114 -78z" />
    <glyph glyph-name="Ebreve" unicode="&#x114;" horiz-adv-x="632" 
d="M361 321h-130v-274h234l81 132h37l-32 -179h-502v33l85 23v549l-85 27v32h411l87 4v-177h-36l-54 128h-226v-252h130l29 82h32v-204h-35zM328 732c-103 0 -139 68 -135 133h29c10 -42 46 -69 111 -69c66 0 101 27 111 69h29c5 -65 -41 -133 -145 -133z" />
    <glyph glyph-name="Ecaron" unicode="&#x11a;" horiz-adv-x="632" 
d="M361 321h-130v-274h234l81 132h37l-32 -179h-502v33l85 23v549l-85 27v32h411l87 4v-177h-36l-54 128h-226v-252h130l29 82h32v-204h-35zM446 865h45l-111 -129h-97l-111 129h47l114 -78z" />
    <glyph glyph-name="Edotaccent" unicode="&#x116;" horiz-adv-x="632" 
d="M361 321h-130v-274h234l81 132h37l-32 -179h-502v33l85 23v549l-85 27v32h411l87 4v-177h-36l-54 128h-226v-252h130l29 82h32v-204h-35zM334 755c-34 0 -62 28 -62 62s28 62 62 62s62 -28 62 -62s-28 -62 -62 -62z" />
    <glyph glyph-name="Emacron" unicode="&#x112;" horiz-adv-x="632" 
d="M361 321h-130v-274h234l81 132h37l-32 -179h-502v33l85 23v549l-85 27v32h411l87 4v-177h-36l-54 128h-226v-252h130l29 82h32v-204h-35zM189 782v60h290v-60h-290z" />
    <glyph glyph-name="Eogonek" unicode="&#x118;" horiz-adv-x="632" 
d="M436 0h-387v33l85 23v549l-85 27v32h411l87 4v-177h-36l-54 128h-226v-252h130l29 82h32v-204h-35l-26 76h-130v-274h234l81 132h37l-32 -179h-73c-73 -75 -103 -105 -103 -141c0 -28 12 -50 52 -50c32 0 53 9 88 46l17 -17c-29 -45 -69 -97 -140 -97
c-59 0 -96 37 -96 85c0 63 48 101 140 174z" />
    <glyph glyph-name="Gbreve" unicode="&#x11e;" horiz-adv-x="752" 
d="M407 -25c-262 0 -357 166 -357 338c0 195 170 368 394 368c84 0 148 -22 203 -54l6 -162h-39l-56 132c-28 18 -68 35 -133 35c-169 0 -266 -145 -266 -303c0 -203 132 -304 275 -304c64 0 99 13 119 22v204l-93 26v28h246v-33l-57 -16v-207l-31 -17
c-39 -22 -121 -57 -211 -57zM418 732c-103 0 -139 68 -135 133h29c10 -42 46 -69 111 -69c66 0 101 27 111 69h29c5 -65 -41 -133 -145 -133z" />
    <glyph glyph-name="Gcircumflex" unicode="&#x11c;" horiz-adv-x="752" 
d="M407 -25c-262 0 -357 166 -357 338c0 195 170 368 394 368c84 0 148 -22 203 -54l6 -162h-39l-56 132c-28 18 -68 35 -133 35c-169 0 -266 -145 -266 -303c0 -203 132 -304 275 -304c64 0 99 13 119 22v204l-93 26v28h246v-33l-57 -16v-207l-31 -17
c-39 -22 -121 -57 -211 -57zM310 736h-45l111 129h97l111 -129h-47l-114 78z" />
    <glyph glyph-name="Gcommaaccent" unicode="&#x122;" horiz-adv-x="752" 
d="M407 -25c-262 0 -357 166 -357 338c0 195 170 368 394 368c84 0 148 -22 203 -54l6 -162h-39l-56 132c-28 18 -68 35 -133 35c-169 0 -266 -145 -266 -303c0 -203 132 -304 275 -304c64 0 99 13 119 22v204l-93 26v28h246v-33l-57 -16v-207l-31 -17
c-39 -22 -121 -57 -211 -57zM334 -267l-8 27c67 21 92 46 92 73c0 29 -31 44 -64 47v2c5 36 32 55 68 55c45 0 69 -31 69 -71c0 -63 -55 -107 -157 -133z" />
    <glyph glyph-name="Gdotaccent" unicode="&#x120;" horiz-adv-x="752" 
d="M407 -25c-262 0 -357 166 -357 338c0 195 170 368 394 368c84 0 148 -22 203 -54l6 -162h-39l-56 132c-28 18 -68 35 -133 35c-169 0 -266 -145 -266 -303c0 -203 132 -304 275 -304c64 0 99 13 119 22v204l-93 26v28h246v-33l-57 -16v-207l-31 -17
c-39 -22 -121 -57 -211 -57zM424 755c-34 0 -62 28 -62 62s28 62 62 62s62 -28 62 -62s-28 -62 -62 -62z" />
    <glyph glyph-name="Hbar" unicode="&#x126;" horiz-adv-x="793" 
d="M477 0v33l85 23v267h-331v-267l85 -24v-32h-267v33l85 23v420h-100v42h100v88l-85 26v32h267v-32l-85 -26v-88h331v88l-85 26v32h267v-32l-85 -26v-88h100v-42h-100v-420l85 -24v-32h-267zM231 476v-106h331v106h-331z" />
    <glyph glyph-name="Hcircumflex" unicode="&#x124;" horiz-adv-x="793" 
d="M477 0v33l85 23v267h-331v-267l85 -24v-32h-267v33l85 23v550l-85 26v32h267v-32l-85 -26v-236h331v236l-85 26v32h267v-32l-85 -26v-550l85 -24v-32h-267zM282 736h-45l111 129h97l111 -129h-47l-114 78z" />
    <glyph glyph-name="Idotaccent" unicode="&#x130;" horiz-adv-x="354" 
d="M49 0v33l85 23v550l-85 26v32h267v-32l-85 -26v-550l85 -24v-32h-267zM182 755c-34 0 -62 28 -62 62s28 62 62 62s62 -28 62 -62s-28 -62 -62 -62z" />
    <glyph glyph-name="Ibreve" unicode="&#x12c;" horiz-adv-x="354" 
d="M49 0v33l85 23v550l-85 26v32h267v-32l-85 -26v-550l85 -24v-32h-267zM177 732c-103 0 -139 68 -135 133h29c10 -42 46 -69 111 -69c66 0 101 27 111 69h29c5 -65 -41 -133 -145 -133z" />
    <glyph glyph-name="Imacron" unicode="&#x12a;" horiz-adv-x="354" 
d="M49 0v33l85 23v550l-85 26v32h267v-32l-85 -26v-550l85 -24v-32h-267zM37 782v60h290v-60h-290z" />
    <glyph glyph-name="Iogonek" unicode="&#x12e;" horiz-adv-x="354" 
d="M49 0v33l85 23v550l-85 26v32h267v-32l-85 -26v-550l85 -24v-32h-115c-46 -80 -58 -105 -58 -141c0 -28 15 -50 52 -50c32 0 53 9 88 46l17 -17c-29 -45 -69 -97 -140 -97c-59 0 -96 37 -96 85c0 55 40 102 94 174h-109z" />
    <glyph glyph-name="Itilde" unicode="&#x128;" horiz-adv-x="354" 
d="M202 754l-42 18c-68 29 -89 38 -117 -29l-30 13l5 13c39 97 82 108 148 81l52 -21c52 -21 75 -22 104 47l30 -13l-5 -13c-40 -104 -79 -124 -145 -96zM49 0v33l85 23v550l-85 26v32h267v-32l-85 -26v-550l85 -24v-32h-267z" />
    <glyph glyph-name="Jcircumflex" unicode="&#x134;" horiz-adv-x="346" 
d="M235 606v-555c0 -142 -37 -254 -219 -269l-6 34c120 25 128 108 128 223v568l-93 21v36h275v-32zM71 736h-45l111 129h97l111 -129h-47l-114 78z" />
    <glyph glyph-name="Kcommaaccent" unicode="&#x136;" horiz-adv-x="681" 
d="M49 0v33l85 23v550l-85 26v32h267v-32l-85 -26v-550l85 -24v-32h-267zM518 0l-279 359v4l28 13l224 230l-70 29v29h209v-32l-81 -26l-212 -220l259 -334l75 -20v-32h-153zM284 -267l-8 27c67 21 92 46 92 73c0 29 -31 44 -64 47v2c5 36 32 55 68 55c45 0 69 -31 69 -71
c0 -63 -55 -107 -157 -133z" />
    <glyph glyph-name="Lacute" unicode="&#x139;" horiz-adv-x="594" 
d="M231 47h220l81 152h37l-36 -199h-484v33l85 23v549l-85 27v32h284v-32l-102 -26v-559zM237 875h93v-20l-120 -119h-52z" />
    <glyph glyph-name="Lcaron" unicode="&#x13d;" horiz-adv-x="594" 
d="M231 47h220l81 152h37l-36 -199h-484v33l85 23v549l-85 27v32h284v-32l-102 -26v-559zM436 474h-29l15 210h89v-8z" />
    <glyph glyph-name="Lcommaaccent" unicode="&#x13b;" horiz-adv-x="594" 
d="M231 47h220l81 152h37l-36 -199h-484v33l85 23v549l-85 27v32h284v-32l-102 -26v-559zM235 -267l-8 27c67 21 92 46 92 73c0 29 -31 44 -64 47v2c5 36 32 55 68 55c45 0 69 -31 69 -71c0 -63 -55 -107 -157 -133z" />
    <glyph glyph-name="Ldot" unicode="&#x13f;" horiz-adv-x="594" 
d="M231 47h220l81 152h37l-36 -199h-484v33l85 23v549l-85 27v32h284v-32l-102 -26v-559zM483 316c-35 0 -65 30 -65 66c0 35 30 65 65 65c36 0 66 -30 66 -65c0 -36 -30 -66 -66 -66z" />
    <glyph glyph-name="Nacute" unicode="&#x143;" horiz-adv-x="777" 
d="M660 -11h-23l-438 534v-453l107 -37v-33h-247v33l85 23v540l-95 36v32h160l394 -482v410l-107 39v33h247v-33l-85 -25v-489zM451 875h93v-20l-120 -119h-52z" />
    <glyph glyph-name="Ncaron" unicode="&#x147;" horiz-adv-x="777" 
d="M660 -11h-23l-438 534v-453l107 -37v-33h-247v33l85 23v540l-95 36v32h160l394 -482v410l-107 39v33h247v-33l-85 -25v-489zM530 865h45l-111 -129h-97l-111 129h47l114 -78z" />
    <glyph glyph-name="Ncommaaccent" unicode="&#x145;" horiz-adv-x="777" 
d="M660 -11h-23l-438 534v-453l107 -37v-33h-247v33l85 23v540l-95 36v32h160l394 -482v410l-107 39v33h247v-33l-85 -25v-489zM328 -267l-8 27c67 21 92 46 92 73c0 29 -31 44 -64 47v2c5 36 32 55 68 55c45 0 69 -31 69 -71c0 -63 -55 -107 -157 -133z" />
    <glyph glyph-name="Obreve" unicode="&#x14e;" horiz-adv-x="786" 
d="M404 17c156 0 225 161 225 295c0 171 -103 327 -245 327c-161 0 -227 -156 -227 -288c0 -151 80 -334 247 -334zM392 681c237 0 340 -174 340 -344c0 -225 -145 -362 -339 -362c-195 0 -339 137 -339 343c0 225 145 363 338 363zM387 732c-103 0 -139 68 -135 133h29
c10 -42 46 -69 111 -69c66 0 101 27 111 69h29c5 -65 -41 -133 -145 -133z" />
    <glyph glyph-name="Ohungarumlaut" unicode="&#x150;" horiz-adv-x="786" 
d="M404 17c156 0 225 161 225 295c0 171 -103 327 -245 327c-161 0 -227 -156 -227 -288c0 -151 80 -334 247 -334zM392 681c237 0 340 -174 340 -344c0 -225 -145 -362 -339 -362c-195 0 -339 137 -339 343c0 225 145 363 338 363zM358 875h80v-19l-104 -120h-52zM499 875
h80v-19l-104 -120h-52z" />
    <glyph glyph-name="Omacron" unicode="&#x14c;" horiz-adv-x="786" 
d="M404 17c156 0 225 161 225 295c0 171 -103 327 -245 327c-161 0 -227 -156 -227 -288c0 -151 80 -334 247 -334zM392 681c237 0 340 -174 340 -344c0 -225 -145 -362 -339 -362c-195 0 -339 137 -339 343c0 225 145 363 338 363zM248 782v60h290v-60h-290z" />
    <glyph glyph-name="Oslashacute" unicode="&#x1fe;" horiz-adv-x="786" 
d="M75 -35l78 102c-62 60 -99 146 -99 251c0 225 145 363 338 363c78 0 142 -19 192 -51l56 74h57l-77 -101c76 -66 112 -167 112 -266c0 -225 -145 -362 -339 -362c-79 0 -150 23 -206 63l-55 -73h-57zM626 312c0 86 -20 165 -58 223l-334 -436c39 -48 94 -80 170 -80
c154 0 222 159 222 293zM385 637c-161 0 -225 -159 -225 -286c0 -73 14 -151 48 -212l331 433c-39 41 -91 65 -154 65zM439 875h93v-20l-120 -119h-52z" />
    <glyph glyph-name="Racute" unicode="&#x154;" horiz-adv-x="666" 
d="M49 0v33l85 23v550l-85 26v32l230 3c191 2 283 -63 283 -164c0 -88 -62 -143 -151 -172l195 -275l87 -23v-33h-162l-175 247c-26 39 -39 58 -39 58l-86 -5v-244l85 -24v-32h-267zM231 632v-289h83c81 9 144 62 144 140c0 98 -84 153 -227 149zM361 875h93v-20l-120 -119
h-52z" />
    <glyph glyph-name="Rcaron" unicode="&#x158;" horiz-adv-x="666" 
d="M49 0v33l85 23v550l-85 26v32l230 3c191 2 283 -63 283 -164c0 -88 -62 -143 -151 -172l195 -275l87 -23v-33h-162l-175 247c-26 39 -39 58 -39 58l-86 -5v-244l85 -24v-32h-267zM231 632v-289h83c81 9 144 62 144 140c0 98 -84 153 -227 149zM427 865h45l-111 -129h-97
l-111 129h47l114 -78z" />
    <glyph glyph-name="Rcommaaccent" unicode="&#x156;" horiz-adv-x="666" 
d="M49 0v33l85 23v550l-85 26v32l230 3c191 2 283 -63 283 -164c0 -88 -62 -143 -151 -172l195 -275l87 -23v-33h-162l-175 247c-26 39 -39 58 -39 58l-86 -5v-244l85 -24v-32h-267zM231 632v-289h83c81 9 144 62 144 140c0 98 -84 153 -227 149zM291 -267l-8 27
c67 21 92 46 92 73c0 29 -31 44 -64 47v2c5 36 32 55 68 55c45 0 69 -31 69 -71c0 -63 -55 -107 -157 -133z" />
    <glyph glyph-name="Sacute" unicode="&#x15a;" horiz-adv-x="517" 
d="M51 33l-13 177h38l55 -144c21 -17 57 -40 116 -40c77 0 134 48 134 124c0 51 -24 97 -96 127l-102 43c-88 38 -136 88 -136 172c0 108 98 192 235 192c63 0 124 -22 155 -41l6 -165h-34l-52 136c-6 4 -37 28 -88 28c-78 0 -128 -54 -128 -112c0 -59 32 -90 85 -114
l119 -54c98 -44 133 -100 133 -174c0 -125 -127 -207 -239 -207c-65 0 -141 21 -188 52zM296 875h93v-20l-120 -119h-52z" />
    <glyph glyph-name="Scedilla" unicode="&#x15e;" horiz-adv-x="517" 
d="M154 -257l-5 29c39 12 91 28 91 73c0 37 -37 52 -53 58l48 78c-64 1 -138 21 -184 52l-13 177h38l55 -144c21 -17 57 -40 116 -40c77 0 134 48 134 124c0 51 -24 97 -96 127l-102 43c-88 38 -136 88 -136 172c0 108 98 192 235 192c63 0 124 -22 155 -41l6 -165h-34
l-52 136c-6 4 -37 28 -88 28c-78 0 -128 -54 -128 -112c0 -59 32 -90 85 -114l119 -54c98 -44 133 -100 133 -174c0 -112 -101 -188 -202 -204l-28 -47c41 -4 71 -29 71 -70c0 -82 -105 -113 -165 -124z" />
    <glyph glyph-name="Scircumflex" unicode="&#x15c;" horiz-adv-x="517" 
d="M51 33l-13 177h38l55 -144c21 -17 57 -40 116 -40c77 0 134 48 134 124c0 51 -24 97 -96 127l-102 43c-88 38 -136 88 -136 172c0 108 98 192 235 192c63 0 124 -22 155 -41l6 -165h-34l-52 136c-6 4 -37 28 -88 28c-78 0 -128 -54 -128 -112c0 -59 32 -90 85 -114
l119 -54c98 -44 133 -100 133 -174c0 -125 -127 -207 -239 -207c-65 0 -141 21 -188 52zM168 736h-45l111 129h97l111 -129h-47l-114 78z" />
    <glyph glyph-name="Scommaaccent" unicode="&#x218;" horiz-adv-x="517" 
d="M51 33l-13 177h38l55 -144c21 -17 57 -40 116 -40c77 0 134 48 134 124c0 51 -24 97 -96 127l-102 43c-88 38 -136 88 -136 172c0 108 98 192 235 192c63 0 124 -22 155 -41l6 -165h-34l-52 136c-6 4 -37 28 -88 28c-78 0 -128 -54 -128 -112c0 -59 32 -90 85 -114
l119 -54c98 -44 133 -100 133 -174c0 -125 -127 -207 -239 -207c-65 0 -141 21 -188 52zM164 -267l-8 27c67 21 92 46 92 73c0 29 -31 44 -64 47v2c5 36 32 55 68 55c45 0 69 -31 69 -71c0 -63 -55 -107 -157 -133z" />
    <glyph glyph-name="Tcaron" unicode="&#x164;" horiz-adv-x="647" 
d="M107 664h433l67 8l10 -181h-36l-54 128h-155v-563l94 -23v-33h-286v33l95 23v563h-155l-54 -128h-36l9 181zM435 865h45l-111 -129h-97l-111 129h47l114 -78z" />
    <glyph glyph-name="Tcommaaccent" unicode="&#x162;" horiz-adv-x="647" 
d="M107 664h433l67 8l10 -181h-36l-54 128h-155v-563l94 -23v-33h-286v33l95 23v563h-155l-54 -128h-36l9 181zM233 -267l-8 27c67 21 92 46 92 73c0 29 -31 44 -64 47v2c5 36 32 55 68 55c45 0 69 -31 69 -71c0 -63 -55 -107 -157 -133z" />
    <glyph glyph-name="Tbar" unicode="&#x166;" horiz-adv-x="647" 
d="M105 348v44h170v227h-155l-54 -128h-36l9 181l68 -8h433l67 8l10 -181h-36l-54 128h-155v-227h168v-44h-168v-292l95 -23v-33h-287v33l95 23v292h-170z" />
    <glyph glyph-name="Ubreve" unicode="&#x16c;" horiz-adv-x="739" 
d="M377 -24c-215 0 -270 116 -270 278v352l-85 26v32h270v-32l-85 -26v-327c0 -136 38 -246 179 -246c136 0 197 75 195 241l-3 323l-116 35v32h263v-32l-85 -26v-352c-2 -188 -132 -278 -263 -278zM377 732c-103 0 -139 68 -135 133h29c10 -42 46 -69 111 -69
c66 0 101 27 111 69h29c5 -65 -41 -133 -145 -133z" />
    <glyph glyph-name="Uhungarumlaut" unicode="&#x170;" horiz-adv-x="739" 
d="M377 -24c-215 0 -270 116 -270 278v352l-85 26v32h270v-32l-85 -26v-327c0 -136 38 -246 179 -246c136 0 197 75 195 241l-3 323l-116 35v32h263v-32l-85 -26v-352c-2 -188 -132 -278 -263 -278zM348 875h80v-19l-104 -120h-52zM489 875h80v-19l-104 -120h-52z" />
    <glyph glyph-name="Umacron" unicode="&#x16a;" horiz-adv-x="739" 
d="M377 -24c-215 0 -270 116 -270 278v352l-85 26v32h270v-32l-85 -26v-327c0 -136 38 -246 179 -246c136 0 197 75 195 241l-3 323l-116 35v32h263v-32l-85 -26v-352c-2 -188 -132 -278 -263 -278zM238 782v60h290v-60h-290z" />
    <glyph glyph-name="Uogonek" unicode="&#x172;" horiz-adv-x="739" 
d="M640 254c-2 -164 -101 -253 -213 -273c-59 -61 -83 -89 -83 -122c0 -28 12 -50 52 -50c32 0 53 9 88 46l17 -17c-29 -45 -69 -97 -140 -97c-59 0 -96 37 -96 85c0 56 37 92 109 150c-213 1 -267 116 -267 278v352l-85 26v32h270v-32l-85 -26v-327
c0 -136 38 -246 179 -246c136 0 197 75 195 241l-3 323l-116 35v32h263v-32l-85 -26v-352z" />
    <glyph glyph-name="Uring" unicode="&#x16e;" horiz-adv-x="739" 
d="M377 -24c-215 0 -270 116 -270 278v352l-85 26v32h270v-32l-85 -26v-327c0 -136 38 -246 179 -246c136 0 197 75 195 241l-3 323l-116 35v32h263v-32l-85 -26v-352c-2 -188 -132 -278 -263 -278zM266 817c0 65 52 114 117 114c66 0 117 -48 117 -114
c0 -65 -52 -114 -117 -114c-66 0 -117 48 -117 114zM312 817c0 -43 32 -73 71 -73s71 30 71 73s-32 73 -71 73s-71 -30 -71 -73z" />
    <glyph glyph-name="Utilde" unicode="&#x168;" horiz-adv-x="739" 
d="M377 -24c-215 0 -270 116 -270 278v352l-85 26v32h270v-32l-85 -26v-327c0 -136 38 -246 179 -246c136 0 197 75 195 241l-3 323l-116 35v32h263v-32l-85 -26v-352c-2 -188 -132 -278 -263 -278zM403 754l-42 18c-68 29 -89 38 -117 -29l-30 13l5 13c39 97 82 108 148 81
l52 -21c52 -21 75 -22 104 47l30 -13l-5 -13c-40 -104 -79 -124 -145 -96z" />
    <glyph glyph-name="Wacute" unicode="&#x1e82;" horiz-adv-x="968" 
d="M645 -7l-160 469l-164 -469h-73l-186 613l-63 26v32h255v-32l-86 -26l140 -511l151 444l-22 67l-86 26v32h270v-34l-84 -24l163 -504l140 495l-104 33v34h233v-32l-66 -30l-184 -609h-74zM542 875h93v-20l-120 -119h-52z" />
    <glyph glyph-name="Wcircumflex" unicode="&#x174;" horiz-adv-x="968" 
d="M645 -7l-160 469l-164 -469h-73l-186 613l-63 26v32h255v-32l-86 -26l140 -511l151 444l-22 67l-86 26v32h270v-34l-84 -24l163 -504l140 495l-104 33v34h233v-32l-66 -30l-184 -609h-74zM382 736h-45l111 129h97l111 -129h-47l-114 78z" />
    <glyph glyph-name="Wdieresis" unicode="&#x1e84;" horiz-adv-x="968" 
d="M645 -7l-160 469l-164 -469h-73l-186 613l-63 26v32h255v-32l-86 -26l140 -511l151 444l-22 67l-86 26v32h270v-34l-84 -24l163 -504l140 495l-104 33v34h233v-32l-66 -30l-184 -609h-74zM385 761c-31 0 -56 25 -56 56s25 57 56 57s57 -26 57 -57s-26 -56 -57 -56z
M606 761c-31 0 -57 25 -57 56s26 57 57 57s57 -26 57 -57s-26 -56 -57 -56z" />
    <glyph glyph-name="Wgrave" unicode="&#x1e80;" horiz-adv-x="968" 
d="M645 -7l-160 469l-164 -469h-73l-186 613l-63 26v32h255v-32l-86 -26l140 -511l151 444l-22 67l-86 26v32h270v-34l-84 -24l163 -504l140 495l-104 33v34h233v-32l-66 -30l-184 -609h-74zM354 875h93l79 -139h-52l-120 119v20z" />
    <glyph glyph-name="Ycircumflex" unicode="&#x176;" horiz-adv-x="630" 
d="M557 602l-193 -322v-224l94 -23v-33h-286v33l95 23v206l-196 344l-64 26v32h251v-32l-75 -26l155 -286h4l158 277l-94 33v34h217v-32zM221 736h-45l111 129h97l111 -129h-47l-114 78z" />
    <glyph glyph-name="Ygrave" unicode="&#x1ef2;" horiz-adv-x="630" 
d="M557 602l-193 -322v-224l94 -23v-33h-286v33l95 23v206l-196 344l-64 26v32h251v-32l-75 -26l155 -286h4l158 277l-94 33v34h217v-32zM193 875h93l79 -139h-52l-120 119v20z" />
    <glyph glyph-name="Zacute" unicode="&#x179;" horiz-adv-x="620" 
d="M31 0v25l417 593h-291l-64 -139h-36l21 191l75 -6h439v-3l-430 -614h311l82 152h37l-37 -204l-78 5h-446zM357 875h93v-20l-120 -119h-52z" />
    <glyph glyph-name="Zdotaccent" unicode="&#x17b;" horiz-adv-x="620" 
d="M31 0v25l417 593h-291l-64 -139h-36l21 191l75 -6h439v-3l-430 -614h311l82 152h37l-37 -204l-78 5h-446zM311 755c-34 0 -62 28 -62 62s28 62 62 62s62 -28 62 -62s-28 -62 -62 -62z" />
    <glyph glyph-name="abreve" unicode="&#x103;" horiz-adv-x="502" 
d="M169 -15c-53 0 -120 37 -120 117s58 116 161 143l103 27v52c-2 77 -42 117 -95 117c-30 0 -55 -13 -63 -18l-4 -99s-25 -3 -40 -3c-32 0 -48 16 -48 43c0 46 88 119 191 119c101 0 145 -46 145 -145v-270c0 -20 5 -27 33 -27h50v-28s-58 -25 -95 -25c-51 0 -72 35 -72 78
h-3c-56 -53 -80 -81 -143 -81zM222 53c48 0 79 36 91 54v132l-96 -32c-47 -16 -77 -35 -77 -77c0 -51 39 -77 82 -77zM241 567c-84 0 -120 65 -124 162h36c8 -52 38 -101 97 -101c51 0 81 49 89 101h35c-4 -97 -36 -162 -133 -162z" />
    <glyph glyph-name="amacron" unicode="&#x101;" horiz-adv-x="502" 
d="M169 -15c-53 0 -120 37 -120 117s58 116 161 143l103 27v52c-2 77 -42 117 -95 117c-30 0 -55 -13 -63 -18l-4 -99s-25 -3 -40 -3c-32 0 -48 16 -48 43c0 46 88 119 191 119c101 0 145 -46 145 -145v-270c0 -20 5 -27 33 -27h50v-28s-58 -25 -95 -25c-51 0 -72 35 -72 78
h-3c-56 -53 -80 -81 -143 -81zM222 53c48 0 79 36 91 54v132l-96 -32c-47 -16 -77 -35 -77 -77c0 -51 39 -77 82 -77zM100 627v60h290v-60h-290z" />
    <glyph glyph-name="aogonek" unicode="&#x105;" horiz-adv-x="502" 
d="M482 41v-24c-124 -78 -158 -122 -158 -158c0 -28 14 -50 52 -50c32 0 53 9 88 46l17 -17c-29 -45 -69 -97 -140 -97c-59 0 -96 37 -96 88c0 53 39 100 146 158v2c-50 0 -74 24 -76 77h-3c-56 -53 -80 -81 -143 -81c-53 0 -120 37 -120 117s58 116 161 143l103 27v52
c-2 77 -42 117 -95 117c-30 0 -55 -13 -63 -18l-4 -99s-25 -3 -40 -3c-32 0 -48 16 -48 43c0 46 88 119 191 119c101 0 145 -46 145 -145v-270c0 -20 5 -27 33 -27h50zM222 53c48 0 79 36 91 54v132l-96 -32c-47 -16 -77 -35 -77 -77c0 -51 39 -77 82 -77z" />
    <glyph glyph-name="aringacute" unicode="&#x1fb;" horiz-adv-x="502" 
d="M169 -15c-53 0 -120 37 -120 117s58 116 161 143l103 27v52c-2 77 -42 117 -95 117c-30 0 -55 -13 -63 -18l-4 -99s-25 -3 -40 -3c-32 0 -48 16 -48 43c0 46 88 119 191 119c101 0 145 -46 145 -145v-270c0 -20 5 -27 33 -27h50v-28s-58 -25 -95 -25c-51 0 -72 35 -72 78
h-3c-56 -53 -80 -81 -143 -81zM222 53c48 0 79 36 91 54v132l-96 -32c-47 -16 -77 -35 -77 -77c0 -51 39 -77 82 -77zM128 644c0 65 52 114 117 114c66 0 117 -48 117 -114c0 -65 -52 -114 -117 -114c-66 0 -117 48 -117 114zM174 644c0 -43 32 -73 71 -73s71 30 71 73
s-32 73 -71 73s-71 -30 -71 -73zM298 951h93v-20l-120 -119h-52z" />
    <glyph glyph-name="aeacute" unicode="&#x1fd;" horiz-adv-x="758" 
d="M169 -15c-53 0 -120 37 -120 117c0 76 44 118 158 139l114 21v62c-2 77 -46 117 -99 117c-30 0 -59 -13 -67 -18l-4 -99s-25 -3 -40 -3c-32 0 -48 16 -48 43c0 45 92 119 195 119c66 0 108 -30 130 -79c26 44 93 80 160 80c92 0 154 -61 159 -183l-300 -55v-41
c5 -84 61 -145 143 -145c77 0 138 75 138 75l20 -12s-55 -139 -194 -139c-72 0 -139 40 -172 107c-51 -61 -96 -106 -173 -106zM221 53c59 0 97 50 109 69c-6 19 -9 40 -9 63v45l-94 -20c-58 -13 -87 -39 -87 -80c0 -51 36 -77 81 -77zM521 440c-58 0 -113 -62 -114 -160
l200 40c-1 68 -37 120 -86 120zM425 756h80v-19l-99 -186h-41z" />
    <glyph glyph-name="cacute" unicode="&#x107;" horiz-adv-x="469" 
d="M250 -16c-113 0 -215 80 -215 234c0 162 130 265 251 265c82 0 145 -44 145 -100c0 -29 -18 -55 -53 -55c-18 0 -34 3 -34 3l-15 93c-3 2 -21 16 -60 16c-83 0 -146 -77 -146 -183c0 -111 72 -203 173 -203c72 0 117 63 117 63l20 -13s-44 -120 -183 -120zM295 756h80
v-19l-99 -186h-41z" />
    <glyph glyph-name="ccaron" unicode="&#x10d;" horiz-adv-x="469" 
d="M250 -16c-113 0 -215 80 -215 234c0 162 130 265 251 265c82 0 145 -44 145 -100c0 -29 -18 -55 -53 -55c-18 0 -34 3 -34 3l-15 93c-3 2 -21 16 -60 16c-83 0 -146 -77 -146 -183c0 -111 72 -203 173 -203c72 0 117 63 117 63l20 -13s-44 -120 -183 -120zM345 756h47
l-101 -205h-57l-101 205h49l82 -131z" />
    <glyph glyph-name="ccircumflex" unicode="&#x109;" horiz-adv-x="469" 
d="M250 -16c-113 0 -215 80 -215 234c0 162 130 265 251 265c82 0 145 -44 145 -100c0 -29 -18 -55 -53 -55c-18 0 -34 3 -34 3l-15 93c-3 2 -21 16 -60 16c-83 0 -146 -77 -146 -183c0 -111 72 -203 173 -203c72 0 117 63 117 63l20 -13s-44 -120 -183 -120zM181 551h-47
l101 205h57l101 -205h-49l-83 131z" />
    <glyph glyph-name="cdotaccent" unicode="&#x10b;" horiz-adv-x="469" 
d="M250 -16c-113 0 -215 80 -215 234c0 162 130 265 251 265c82 0 145 -44 145 -100c0 -29 -18 -55 -53 -55c-18 0 -34 3 -34 3l-15 93c-3 2 -21 16 -60 16c-83 0 -146 -77 -146 -183c0 -111 72 -203 173 -203c72 0 117 63 117 63l20 -13s-44 -120 -183 -120zM262 589
c-34 0 -62 28 -62 62s28 62 62 62s62 -28 62 -62s-28 -62 -62 -62z" />
    <glyph glyph-name="dcaron" unicode="&#x10f;" horiz-adv-x="570" 
d="M281 688v31l175 27v-688l81 -20v-33l-134 -19l-24 68c-38 -37 -79 -70 -141 -70c-141 0 -202 116 -202 225c0 163 106 274 249 274c37 0 65 -5 86 -10v199zM288 52c34 0 62 12 83 26v297s-38 66 -109 66c-78 0 -142 -65 -142 -181c0 -98 39 -208 168 -208zM560 535h-29
l15 210h89v-8z" />
    <glyph glyph-name="ebreve" unicode="&#x115;" horiz-adv-x="501" 
d="M255 -16c-166 0 -219 147 -219 233c0 149 96 266 236 266c111 0 176 -75 176 -212h-331v-10c0 -124 71 -201 175 -201c85 0 139 75 139 75l20 -12s-47 -139 -196 -139zM250 439c-63 0 -113 -55 -128 -129h226c-1 68 -32 129 -98 129zM261 567c-84 0 -120 65 -124 162h36
c8 -52 38 -101 97 -101c51 0 81 49 89 101h35c-4 -97 -36 -162 -133 -162z" />
    <glyph glyph-name="ecaron" unicode="&#x11b;" horiz-adv-x="501" 
d="M255 -16c-166 0 -219 147 -219 233c0 149 96 266 236 266c111 0 176 -75 176 -212h-331v-10c0 -124 71 -201 175 -201c85 0 139 75 139 75l20 -12s-47 -139 -196 -139zM250 439c-63 0 -113 -55 -128 -129h226c-1 68 -32 129 -98 129zM348 756h47l-101 -205h-57l-101 205
h49l82 -131z" />
    <glyph glyph-name="edotaccent" unicode="&#x117;" horiz-adv-x="501" 
d="M255 -16c-166 0 -219 147 -219 233c0 149 96 266 236 266c111 0 176 -75 176 -212h-331v-10c0 -124 71 -201 175 -201c85 0 139 75 139 75l20 -12s-47 -139 -196 -139zM250 439c-63 0 -113 -55 -128 -129h226c-1 68 -32 129 -98 129zM265 589c-34 0 -62 28 -62 62
s28 62 62 62s62 -28 62 -62s-28 -62 -62 -62z" />
    <glyph glyph-name="emacron" unicode="&#x113;" horiz-adv-x="501" 
d="M255 -16c-166 0 -219 147 -219 233c0 149 96 266 236 266c111 0 176 -75 176 -212h-331v-10c0 -124 71 -201 175 -201c85 0 139 75 139 75l20 -12s-47 -139 -196 -139zM250 439c-63 0 -113 -55 -128 -129h226c-1 68 -32 129 -98 129zM120 627v60h290v-60h-290z" />
    <glyph glyph-name="eogonek" unicode="&#x119;" horiz-adv-x="501" 
d="M255 -16c-166 0 -219 147 -219 233c0 149 96 266 236 266c111 0 176 -75 176 -212h-331v-10c0 -124 71 -201 175 -201c85 0 139 75 139 75l20 -12s-14 -41 -50 -78c-105 -109 -146 -143 -146 -186c0 -28 12 -50 52 -50c32 0 53 9 88 46l17 -17c-29 -45 -69 -97 -140 -97
c-59 0 -96 37 -96 85c0 60 43 97 126 163c-15 -3 -30 -5 -47 -5zM250 439c-63 0 -113 -55 -128 -129h226c-1 68 -32 129 -98 129z" />
    <glyph glyph-name="gbreve" unicode="&#x11f;" horiz-adv-x="517" 
d="M498 412l-114 6l-1 -3c25 -21 51 -58 51 -111c0 -109 -99 -179 -199 -179c-25 0 -49 4 -72 12c-23 -18 -35 -35 -35 -50c0 -14 14 -33 37 -34l189 -11c99 -6 143 -50 143 -112c0 -83 -107 -185 -293 -185c-95 0 -181 40 -181 113c0 37 25 79 73 105l24 13v2l-71 68
c20 51 42 76 79 107c-46 28 -79 77 -79 147c0 109 85 183 192 183c46 0 78 -11 118 -25l139 15v-61zM247 168c53 0 96 47 96 123c0 107 -48 153 -108 153c-59 0 -94 -44 -94 -120c0 -98 41 -156 106 -156zM345 -39l-189 12c-15 -16 -43 -53 -43 -89c0 -37 33 -89 138 -89
c123 0 174 59 174 105c0 35 -23 57 -80 61zM245 567c-84 0 -120 65 -124 162h36c8 -52 38 -101 97 -101c51 0 81 49 89 101h35c-4 -97 -36 -162 -133 -162z" />
    <glyph glyph-name="gcircumflex" unicode="&#x11d;" horiz-adv-x="517" 
d="M498 412l-114 6l-1 -3c25 -21 51 -58 51 -111c0 -109 -99 -179 -199 -179c-25 0 -49 4 -72 12c-23 -18 -35 -35 -35 -50c0 -14 14 -33 37 -34l189 -11c99 -6 143 -50 143 -112c0 -83 -107 -185 -293 -185c-95 0 -181 40 -181 113c0 37 25 79 73 105l24 13v2l-71 68
c20 51 42 76 79 107c-46 28 -79 77 -79 147c0 109 85 183 192 183c46 0 78 -11 118 -25l139 15v-61zM247 168c53 0 96 47 96 123c0 107 -48 153 -108 153c-59 0 -94 -44 -94 -120c0 -98 41 -156 106 -156zM345 -39l-189 12c-15 -16 -43 -53 -43 -89c0 -37 33 -89 138 -89
c123 0 174 59 174 105c0 35 -23 57 -80 61zM168 551h-47l101 205h57l101 -205h-49l-83 131z" />
    <glyph glyph-name="gcommaaccent" unicode="&#x123;" horiz-adv-x="517" 
d="M498 412l-114 6l-1 -3c25 -21 51 -58 51 -111c0 -109 -99 -179 -199 -179c-25 0 -49 4 -72 12c-23 -18 -35 -35 -35 -50c0 -14 14 -33 37 -34l189 -11c99 -6 143 -50 143 -112c0 -83 -107 -185 -293 -185c-95 0 -181 40 -181 113c0 37 25 79 73 105l24 13v2l-71 68
c20 51 42 76 79 107c-46 28 -79 77 -79 147c0 109 85 183 192 183c46 0 78 -11 118 -25l139 15v-61zM247 168c53 0 96 47 96 123c0 107 -48 153 -108 153c-59 0 -94 -44 -94 -120c0 -98 41 -156 106 -156zM345 -39l-189 12c-15 -16 -43 -53 -43 -89c0 -37 33 -89 138 -89
c123 0 174 59 174 105c0 35 -23 57 -80 61zM325 793l8 -27c-67 -21 -92 -46 -92 -73c0 -29 31 -44 64 -47v-2c-5 -36 -32 -55 -68 -55c-45 0 -69 31 -69 71c0 63 55 107 157 133z" />
    <glyph glyph-name="gdotaccent" unicode="&#x121;" horiz-adv-x="517" 
d="M498 412l-114 6l-1 -3c25 -21 51 -58 51 -111c0 -109 -99 -179 -199 -179c-25 0 -49 4 -72 12c-23 -18 -35 -35 -35 -50c0 -14 14 -33 37 -34l189 -11c99 -6 143 -50 143 -112c0 -83 -107 -185 -293 -185c-95 0 -181 40 -181 113c0 37 25 79 73 105l24 13v2l-71 68
c20 51 42 76 79 107c-46 28 -79 77 -79 147c0 109 85 183 192 183c46 0 78 -11 118 -25l139 15v-61zM247 168c53 0 96 47 96 123c0 107 -48 153 -108 153c-59 0 -94 -44 -94 -120c0 -98 41 -156 106 -156zM345 -39l-189 12c-15 -16 -43 -53 -43 -89c0 -37 33 -89 138 -89
c123 0 174 59 174 105c0 35 -23 57 -80 61zM249 589c-34 0 -62 28 -62 62s28 62 62 62s62 -28 62 -62s-28 -62 -62 -62z" />
    <glyph glyph-name="hbar" unicode="&#x127;" horiz-adv-x="564" 
d="M3 550v47h86v70l-67 26v27l152 26v-149h194v-47h-194v-158c17 21 80 91 163 91c93 0 136 -40 136 -168v-261l65 -21v-33h-207v34l57 20v253c-4 70 -25 109 -92 109c-65 0 -122 -55 -122 -57v-305l66 -20v-34h-214v34l63 22v494h-86z" />
    <glyph glyph-name="hcircumflex" unicode="&#x125;" horiz-adv-x="564" 
d="M331 0v34l57 20v253c-4 70 -25 109 -92 109c-65 0 -122 -55 -122 -57v-305l66 -20v-34h-214v34l63 22v611l-67 26v27l152 26v-354c17 21 80 91 163 91c93 0 136 -40 136 -168v-261l65 -21v-33h-207zM172 816h-45l111 129h97l111 -129h-47l-114 78z" />
    <glyph glyph-name="ibreve" unicode="&#x12d;" horiz-adv-x="279" 
d="M31 0v34l67 22v342l-59 21v35l142 29v-428l75 -21v-34h-225zM139 567c-84 0 -120 65 -124 162h36c8 -52 38 -101 97 -101c51 0 81 49 89 101h35c-4 -97 -36 -162 -133 -162z" />
    <glyph glyph-name="imacron" unicode="&#x12b;" horiz-adv-x="279" 
d="M4 627v60h250v-60h-250zM31 0v34l67 22v342l-59 21v35l142 29v-428l75 -21v-34h-225z" />
    <glyph glyph-name="iogonek" unicode="&#x12f;" horiz-adv-x="279" 
d="M31 0v34l67 22v342l-59 21v35l142 29v-428l75 -21v-34h-96c-46 -80 -63 -105 -63 -141c0 -28 15 -50 52 -50c32 0 49 9 84 46l17 -17c-29 -45 -65 -97 -136 -97c-59 0 -96 37 -96 85c0 55 45 102 99 174h-86zM133 624c-33 0 -62 28 -62 61s29 61 62 61
c32 0 61 -28 61 -61s-29 -61 -61 -61z" />
    <glyph glyph-name="itilde" unicode="&#x129;" horiz-adv-x="279" 
d="M134 613l-19 11c-53 32 -79 38 -107 -29l-30 13l5 13c39 97 96 108 158 73l25 -14c36 -21 66 -21 95 48l30 -13l-5 -13c-40 -104 -87 -127 -152 -89zM31 0v34l67 22v342l-59 21v35l142 29v-428l75 -21v-34h-225z" />
    <glyph glyph-name="idotaccent" horiz-adv-x="279" 
d="M31 0v34l67 22v342l-59 21v35l142 29v-428l75 -21v-34h-225zM133 624c-33 0 -62 28 -62 61s29 61 62 61c32 0 61 -28 61 -61s-29 -61 -61 -61z" />
    <glyph glyph-name="jcircumflex" unicode="&#x135;" horiz-adv-x="261" 
d="M2 -251l-5 29c67 22 94 100 94 248v366l-59 27v35l143 29v-457c0 -66 -9 -126 -32 -173c-28 -58 -82 -96 -141 -104zM51 551h-47l101 205h57l101 -205h-49l-83 131z" />
    <glyph glyph-name="kcommaaccent" unicode="&#x137;" horiz-adv-x="521" 
d="M92 56v604l-66 26v27l151 33v-692l66 -20v-34h-214v34zM457 -17c-30 -1 -61 16 -103 70l-172 225v2l36 11l140 128l-61 20v31h202v-28l-67 -17l-162 -137l239 -283s-15 -21 -52 -22zM193 -267l-8 27c67 21 92 46 92 73c0 29 -31 44 -64 47v2c5 36 32 55 68 55
c45 0 69 -31 69 -71c0 -63 -55 -107 -157 -133z" />
    <glyph glyph-name="kgreenlandic" unicode="&#x138;" horiz-adv-x="523" 
d="M96 55v337l-67 16v27l147 48h5v-429l66 -20v-34h-214v34zM459 -17c-30 -1 -61 15 -103 66l-172 213v2l37 11l139 144l-61 20v31h202v-28l-67 -17l-161 -154l238 -267s-15 -20 -52 -21z" />
    <glyph glyph-name="lacute" unicode="&#x13a;" horiz-adv-x="279" 
d="M29 0v34l63 21v605l-64 19v32l149 35v-692l68 -20v-34h-216zM182 941h93v-20l-120 -119h-52z" />
    <glyph glyph-name="lcaron" unicode="&#x13e;" horiz-adv-x="279" 
d="M29 0v34l63 21v605l-64 19v32l149 35v-692l68 -20v-34h-216zM279 536h-29l15 210h89v-8z" />
    <glyph glyph-name="lcommaaccent" unicode="&#x13c;" horiz-adv-x="279" 
d="M29 0v34l63 21v605l-64 19v32l149 35v-692l68 -20v-34h-216zM46 -267l-8 27c67 21 92 46 92 73c0 29 -31 44 -64 47v2c5 36 32 55 68 55c45 0 69 -31 69 -71c0 -63 -55 -107 -157 -133z" />
    <glyph glyph-name="ldot" unicode="&#x140;" horiz-adv-x="343" 
d="M307 301c-35 0 -65 30 -65 66c0 35 30 65 65 65c36 0 66 -30 66 -65c0 -36 -30 -66 -66 -66zM29 0v34l63 21v605l-64 19v32l149 35v-692l68 -20v-34h-216z" />
    <glyph glyph-name="nacute" unicode="&#x144;" horiz-adv-x="570" 
d="M33 0v34l63 21v337l-67 16v27l123 48h5l22 -91h1c17 20 80 91 164 91c93 0 136 -40 136 -168v-261l65 -21v-33h-207v34l57 20v253c-4 70 -25 109 -92 109c-65 0 -122 -55 -122 -57v-305l66 -20v-34h-214zM319 756h80v-19l-99 -186h-41z" />
    <glyph glyph-name="napostrophe" unicode="&#x149;" horiz-adv-x="570" 
d="M33 0v34l63 21v337l-67 16v27l123 48h5l22 -91h1c17 20 80 91 164 91c93 0 136 -40 136 -168v-261l65 -21v-33h-207v34l57 20v253c-4 70 -25 109 -92 109c-65 0 -122 -55 -122 -57v-305l66 -20v-34h-214zM-20 540l-8 27c67 21 92 46 92 73c0 29 -31 44 -64 47v2
c5 36 32 55 68 55c45 0 69 -31 69 -71c0 -63 -55 -107 -157 -133z" />
    <glyph glyph-name="ncaron" unicode="&#x148;" horiz-adv-x="570" 
d="M33 0v34l63 21v337l-67 16v27l123 48h5l22 -91h1c17 20 80 91 164 91c93 0 136 -40 136 -168v-261l65 -21v-33h-207v34l57 20v253c-4 70 -25 109 -92 109c-65 0 -122 -55 -122 -57v-305l66 -20v-34h-214zM366 756h47l-101 -205h-57l-101 205h49l82 -131z" />
    <glyph glyph-name="ncommaaccent" unicode="&#x146;" horiz-adv-x="570" 
d="M33 0v34l63 21v337l-67 16v27l123 48h5l22 -91h1c17 20 80 91 164 91c93 0 136 -40 136 -168v-261l65 -21v-33h-207v34l57 20v253c-4 70 -25 109 -92 109c-65 0 -122 -55 -122 -57v-305l66 -20v-34h-214zM203 -267l-8 27c67 21 92 46 92 73c0 29 -31 44 -64 47v2
c5 36 32 55 68 55c45 0 69 -31 69 -71c0 -63 -55 -107 -157 -133z" />
    <glyph glyph-name="obreve" unicode="&#x14f;" horiz-adv-x="536" 
d="M127 261c0 -110 46 -233 153 -233c80 0 129 81 129 183c0 147 -62 231 -152 231c-82 0 -130 -79 -130 -181zM268 -16c-151 0 -232 113 -232 242c0 143 102 259 232 259c142 0 232 -89 232 -240c0 -145 -100 -261 -232 -261zM264 567c-84 0 -120 65 -124 162h36
c8 -52 38 -101 97 -101c51 0 81 49 89 101h35c-4 -97 -36 -162 -133 -162z" />
    <glyph glyph-name="ohungarumlaut" unicode="&#x151;" horiz-adv-x="536" 
d="M127 261c0 -110 46 -233 153 -233c80 0 129 81 129 183c0 147 -62 231 -152 231c-82 0 -130 -79 -130 -181zM268 -16c-151 0 -232 113 -232 242c0 143 102 259 232 259c142 0 232 -89 232 -240c0 -145 -100 -261 -232 -261zM223 756h78v-19l-89 -186h-41zM365 756h78v-19
l-89 -186h-41z" />
    <glyph glyph-name="omacron" unicode="&#x14d;" horiz-adv-x="536" 
d="M127 261c0 -110 46 -233 153 -233c80 0 129 81 129 183c0 147 -62 231 -152 231c-82 0 -130 -79 -130 -181zM268 -16c-151 0 -232 113 -232 242c0 143 102 259 232 259c142 0 232 -89 232 -240c0 -145 -100 -261 -232 -261zM123 627v60h290v-60h-290z" />
    <glyph glyph-name="oslashacute" unicode="&#x1ff;" horiz-adv-x="536" 
d="M83 -43h-51l71 95c-43 44 -67 107 -67 174c0 143 102 259 232 259c51 0 96 -13 132 -37l54 71h51l-73 -97c43 -42 68 -103 68 -177c0 -145 -100 -261 -232 -261c-52 0 -97 16 -134 41zM278 27c80 0 132 83 132 194c0 58 -9 104 -25 138l-213 -284c23 -29 57 -48 106 -48z
M126 253c0 -48 6 -98 24 -139l212 283c-26 32 -62 47 -104 47c-82 0 -132 -82 -132 -191zM301 756h80v-19l-99 -186h-41z" />
    <glyph glyph-name="racute" unicode="&#x155;" horiz-adv-x="376" 
d="M33 0v34l63 22v336l-67 13v30l136 48h5l6 -125h2l32 43c48 65 73 84 106 84c32 0 49 -20 49 -50c0 -26 -15 -48 -32 -69l-77 26c-22 -18 -46 -38 -76 -76v-264l88 -17v-35h-235zM240 756h80v-19l-99 -186h-41z" />
    <glyph glyph-name="rcaron" unicode="&#x159;" horiz-adv-x="376" 
d="M33 0v34l63 22v336l-67 13v30l136 48h5l6 -125h2l32 43c48 65 73 84 106 84c32 0 49 -20 49 -50c0 -26 -15 -48 -32 -69l-77 26c-22 -18 -46 -38 -76 -76v-264l88 -17v-35h-235zM290 756h47l-101 -205h-57l-101 205h49l82 -131z" />
    <glyph glyph-name="rcommaaccent" unicode="&#x157;" horiz-adv-x="376" 
d="M33 0v34l63 22v336l-67 13v30l136 48h5l6 -125h2l32 43c48 65 73 84 106 84c32 0 49 -20 49 -50c0 -26 -15 -48 -32 -69l-77 26c-22 -18 -46 -38 -76 -76v-264l88 -17v-35h-235zM45 -267l-8 27c67 21 92 46 92 73c0 29 -31 44 -64 47v2c5 36 32 55 68 55
c45 0 69 -31 69 -71c0 -63 -55 -107 -157 -133z" />
    <glyph glyph-name="sacute" unicode="&#x15b;" horiz-adv-x="418" 
d="M192 -19c-51 0 -97 19 -130 39l-16 140h33l51 -110c15 -13 36 -30 82 -30c51 0 86 30 86 76c0 37 -21 67 -97 101l-40 18c-69 31 -103 67 -103 131c0 77 81 139 172 139c37 0 79 -11 118 -32l5 -119h-30l-41 87c-12 10 -32 25 -67 25c-48 0 -76 -31 -76 -69
c0 -40 21 -65 81 -92l43 -19c89 -39 118 -83 118 -137c0 -83 -92 -148 -189 -148zM246 756h80v-19l-99 -186h-41z" />
    <glyph glyph-name="scedilla" unicode="&#x15f;" horiz-adv-x="418" 
d="M113 -252l-5 29c39 12 91 28 91 73c0 37 -37 52 -53 58l45 73c-51 0 -96 19 -129 39l-16 140h33l51 -110c15 -13 36 -30 82 -30c51 0 86 30 86 76c0 37 -21 67 -97 101l-40 18c-69 31 -103 67 -103 131c0 77 81 139 172 139c37 0 79 -11 118 -32l5 -119h-30l-41 87
c-12 10 -32 25 -67 25c-48 0 -76 -31 -76 -69c0 -40 21 -65 81 -92l43 -19c89 -39 118 -83 118 -137c0 -72 -68 -129 -149 -144l-25 -43c41 -4 71 -29 71 -70c0 -82 -105 -113 -165 -124z" />
    <glyph glyph-name="scircumflex" unicode="&#x15d;" horiz-adv-x="418" 
d="M192 -19c-51 0 -97 19 -130 39l-16 140h33l51 -110c15 -13 36 -30 82 -30c51 0 86 30 86 76c0 37 -21 67 -97 101l-40 18c-69 31 -103 67 -103 131c0 77 81 139 172 139c37 0 79 -11 118 -32l5 -119h-30l-41 87c-12 10 -32 25 -67 25c-48 0 -76 -31 -76 -69
c0 -40 21 -65 81 -92l43 -19c89 -39 118 -83 118 -137c0 -83 -92 -148 -189 -148zM132 551h-47l101 205h57l101 -205h-49l-83 131z" />
    <glyph glyph-name="scommaaccent" unicode="&#x219;" horiz-adv-x="418" 
d="M192 -19c-51 0 -97 19 -130 39l-16 140h33l51 -110c15 -13 36 -30 82 -30c51 0 86 30 86 76c0 37 -21 67 -97 101l-40 18c-69 31 -103 67 -103 131c0 77 81 139 172 139c37 0 79 -11 118 -32l5 -119h-30l-41 87c-12 10 -32 25 -67 25c-48 0 -76 -31 -76 -69
c0 -40 21 -65 81 -92l43 -19c89 -39 118 -83 118 -137c0 -83 -92 -148 -189 -148zM123 -267l-8 27c67 21 92 46 92 73c0 29 -31 44 -64 47v2c5 36 32 55 68 55c45 0 69 -31 69 -71c0 -63 -55 -107 -157 -133z" />
    <glyph glyph-name="tbar" unicode="&#x167;" horiz-adv-x="332" 
d="M18 270v50h69l1 100h-70v42l73 18l44 119h34v-129h134v-53h-132v-97h132v-50h-132v-132c0 -80 29 -86 67 -86c32 0 75 7 75 7l6 -25s-57 -45 -133 -45c-79 0 -102 47 -101 109l1 172h-68z" />
    <glyph glyph-name="tcaron" unicode="&#x165;" horiz-adv-x="332" 
d="M186 -11c-79 0 -102 47 -101 109l3 322h-70v42l73 18l44 119h34v-129h134v-53h-132v-279c0 -80 29 -86 67 -86c32 0 75 7 75 7l6 -25s-57 -45 -133 -45zM286 539h-29l15 210h89v-8z" />
    <glyph glyph-name="tcommaaccent" unicode="&#x163;" horiz-adv-x="332" 
d="M186 -11c-79 0 -102 47 -101 109l3 322h-70v42l73 18l44 119h34v-129h134v-53h-132v-279c0 -80 29 -86 67 -86c32 0 75 7 75 7l6 -25s-57 -45 -133 -45zM94 -267l-8 27c67 21 92 46 92 73c0 29 -31 44 -64 47v2c5 36 32 55 68 55c45 0 69 -31 69 -71
c0 -63 -55 -107 -157 -133z" />
    <glyph glyph-name="ubreve" unicode="&#x16d;" horiz-adv-x="553" 
d="M412 -15l-29 81c-8 -9 -73 -83 -167 -83c-89 0 -133 65 -133 178v246l-69 20v37l154 15v-309c3 -83 38 -119 105 -119c61 0 106 47 106 47v309l-81 18v37l166 15v-419l81 -20v-33zM269 567c-84 0 -120 65 -124 162h36c8 -52 38 -101 97 -101c51 0 81 49 89 101h35
c-4 -97 -36 -162 -133 -162z" />
    <glyph glyph-name="uhungarumlaut" unicode="&#x171;" horiz-adv-x="553" 
d="M412 -15l-29 81c-8 -9 -73 -83 -167 -83c-89 0 -133 65 -133 178v246l-69 20v37l154 15v-309c3 -83 38 -119 105 -119c61 0 106 47 106 47v309l-81 18v37l166 15v-419l81 -20v-33zM228 756h78v-19l-89 -186h-41zM370 756h78v-19l-89 -186h-41z" />
    <glyph glyph-name="umacron" unicode="&#x16b;" horiz-adv-x="553" 
d="M412 -15l-29 81c-8 -9 -73 -83 -167 -83c-89 0 -133 65 -133 178v246l-69 20v37l154 15v-309c3 -83 38 -119 105 -119c61 0 106 47 106 47v309l-81 18v37l166 15v-419l81 -20v-33zM128 627v60h290v-60h-290z" />
    <glyph glyph-name="uogonek" unicode="&#x173;" horiz-adv-x="553" 
d="M545 5l-80 -12c-68 -70 -96 -99 -96 -134c0 -28 12 -50 52 -50c32 0 53 9 88 46l17 -17c-29 -45 -69 -97 -140 -97c-59 0 -96 37 -96 85c0 59 42 96 122 160l-29 80c-8 -9 -73 -83 -167 -83c-89 0 -133 65 -133 178v246l-69 20v37l154 15v-309c3 -83 38 -119 105 -119
c61 0 106 47 106 47v309l-81 18v37l166 15v-419l81 -20v-33z" />
    <glyph glyph-name="uring" unicode="&#x16f;" horiz-adv-x="553" 
d="M412 -15l-29 81c-8 -9 -73 -83 -167 -83c-89 0 -133 65 -133 178v246l-69 20v37l154 15v-309c3 -83 38 -119 105 -119c61 0 106 47 106 47v309l-81 18v37l166 15v-419l81 -20v-33zM156 674c0 65 52 114 117 114c66 0 117 -48 117 -114c0 -65 -52 -114 -117 -114
c-66 0 -117 48 -117 114zM202 674c0 -43 32 -73 71 -73s71 30 71 73s-32 73 -71 73s-71 -30 -71 -73z" />
    <glyph glyph-name="utilde" unicode="&#x169;" horiz-adv-x="553" 
d="M412 -15l-29 81c-8 -9 -73 -83 -167 -83c-89 0 -133 65 -133 178v246l-69 20v37l154 15v-309c3 -83 38 -119 105 -119c61 0 106 47 106 47v309l-81 18v37l166 15v-419l81 -20v-33zM286 605l-39 23c-64 38 -86 34 -114 -33l-30 13l5 13c39 97 91 118 154 83l48 -27
c49 -28 73 -18 102 51l30 -13l-5 -13c-40 -104 -88 -134 -151 -97z" />
    <glyph glyph-name="wacute" unicode="&#x1e83;" horiz-adv-x="739" 
d="M411 478l118 -357c6 -17 10 -33 10 -33h2s4 16 9 33l87 293l-74 25v31h173v-31l-46 -19l-136 -436h-60l-113 324c-6 16 -11 36 -11 36h-1s-6 -20 -11 -36l-110 -324h-64l-135 436l-46 19v31h213v-31l-73 -19l83 -299c5 -17 9 -33 9 -33h2s4 16 10 33l116 357h48zM418 756
h80v-19l-99 -186h-41z" />
    <glyph glyph-name="wcircumflex" unicode="&#x175;" horiz-adv-x="739" 
d="M411 478l118 -357c6 -17 10 -33 10 -33h2s4 16 9 33l87 293l-74 25v31h173v-31l-46 -19l-136 -436h-60l-113 324c-6 16 -11 36 -11 36h-1s-6 -20 -11 -36l-110 -324h-64l-135 436l-46 19v31h213v-31l-73 -19l83 -299c5 -17 9 -33 9 -33h2s4 16 10 33l116 357h48zM304 551
h-47l101 205h57l101 -205h-49l-83 131z" />
    <glyph glyph-name="wdieresis" unicode="&#x1e85;" horiz-adv-x="739" 
d="M411 478l118 -357c6 -17 10 -33 10 -33h2s4 16 9 33l87 293l-74 25v31h173v-31l-46 -19l-136 -436h-60l-113 324c-6 16 -11 36 -11 36h-1s-6 -20 -11 -36l-110 -324h-64l-135 436l-46 19v31h213v-31l-73 -19l83 -299c5 -17 9 -33 9 -33h2s4 16 10 33l116 357h48zM286 606
c-31 0 -56 25 -56 56s25 57 56 57s57 -26 57 -57s-26 -56 -57 -56zM483 606c-31 0 -57 25 -57 56s26 57 57 57s57 -26 57 -57s-26 -56 -57 -56z" />
    <glyph glyph-name="wgrave" unicode="&#x1e81;" horiz-adv-x="739" 
d="M411 478l118 -357c6 -17 10 -33 10 -33h2s4 16 9 33l87 293l-74 25v31h173v-31l-46 -19l-136 -436h-60l-113 324c-6 16 -11 36 -11 36h-1s-6 -20 -11 -36l-110 -324h-64l-135 436l-46 19v31h213v-31l-73 -19l83 -299c5 -17 9 -33 9 -33h2s4 16 10 33l116 357h48zM368 551
l-100 186v19h80l61 -205h-41z" />
    <glyph glyph-name="ycircumflex" unicode="&#x177;" horiz-adv-x="498" 
d="M400 415l-69 25v30h168v-31l-46 -20l-222 -554c-31 -79 -55 -118 -106 -118c-33 0 -62 23 -62 56c0 32 22 50 50 50c24 0 38 -15 49 -36h2l59 138l-177 465l-47 19v31h217v-31l-73 -19l124 -350h3zM194 551h-47l101 205h57l101 -205h-49l-83 131z" />
    <glyph glyph-name="ygrave" unicode="&#x1ef3;" horiz-adv-x="498" 
d="M400 415l-69 25v30h168v-31l-46 -20l-222 -554c-31 -79 -55 -118 -106 -118c-33 0 -62 23 -62 56c0 32 22 50 50 50c24 0 38 -15 49 -36h2l59 138l-177 465l-47 19v31h217v-31l-73 -19l124 -350h3zM258 551l-100 186v19h80l61 -205h-41z" />
    <glyph glyph-name="zacute" unicode="&#x17a;" horiz-adv-x="454" 
d="M329 0h-301v34l273 393h-177l-44 -105h-31v154l74 -6h300v-15l-286 -412h192l57 118h32l-14 -165zM258 756h80v-19l-99 -186h-41z" />
    <glyph glyph-name="zdotaccent" unicode="&#x17c;" horiz-adv-x="454" 
d="M329 0h-301v34l273 393h-177l-44 -105h-31v154l74 -6h300v-15l-286 -412h192l57 118h32l-14 -165zM225 589c-34 0 -62 28 -62 62s28 62 62 62s62 -28 62 -62s-28 -62 -62 -62z" />
    <glyph glyph-name="oneeighth" unicode="&#x215b;" horiz-adv-x="968" 
d="M224 667v-347l100 -10v-34h-288v34l104 11v271h-110v30l188 45h6zM223 -86l-44 31l539 782l44 -29zM751 -18c-93 0 -163 40 -163 101c0 52 39 78 101 105v2c-52 24 -79 52 -79 96c0 67 62 115 158 115c92 0 139 -45 139 -93c0 -44 -44 -74 -88 -93v-2
c75 -30 103 -54 103 -106c0 -71 -72 -125 -171 -125zM765 16c56 0 85 30 85 63s-19 49 -91 80l-40 17c-40 -23 -52 -51 -52 -80c0 -51 41 -80 98 -80zM789 226c29 19 43 43 43 73c0 40 -26 69 -74 69c-49 0 -74 -28 -74 -57c0 -28 12 -45 78 -73z" />
    <glyph glyph-name="onethird" unicode="&#x2153;" horiz-adv-x="951" 
d="M224 667v-347l100 -10v-34h-288v34l104 11v271h-110v30l188 45h6zM223 -86l-44 31l539 782l44 -29zM718 -18c-87 0 -127 35 -127 70c0 25 19 41 48 45l49 -68c13 -4 27 -7 54 -7c49 0 94 23 94 75c0 51 -49 86 -149 81v33l17 5c82 24 106 55 106 88c0 27 -24 44 -59 44
c-58 0 -90 -26 -125 -58l-23 23c52 58 103 88 175 88c69 0 118 -31 118 -79c0 -43 -52 -80 -104 -99v-3c92 -10 128 -56 128 -100c0 -77 -96 -138 -202 -138z" />
    <glyph glyph-name="threeeighths" unicode="&#x215c;" horiz-adv-x="980" 
d="M163 258c-87 0 -127 35 -127 70c0 25 19 41 48 45l49 -68c13 -4 27 -7 54 -7c49 0 94 23 94 75c0 51 -49 86 -149 81v33l17 5c82 24 106 55 106 88c0 27 -24 44 -59 44c-58 0 -90 -26 -125 -58l-23 23c52 58 103 88 175 88c69 0 118 -31 118 -79c0 -43 -52 -80 -104 -99
v-3c92 -10 128 -56 128 -100c0 -77 -96 -138 -202 -138zM241 -86l-44 31l539 782l44 -29zM763 -18c-93 0 -163 40 -163 101c0 52 39 78 101 105v2c-52 24 -79 52 -79 96c0 67 62 115 158 115c92 0 139 -45 139 -93c0 -44 -44 -74 -88 -93v-2c75 -30 103 -54 103 -106
c0 -71 -72 -125 -171 -125zM777 16c56 0 85 30 85 63s-19 49 -91 80l-40 17c-40 -23 -52 -51 -52 -80c0 -51 41 -80 98 -80zM801 226c29 19 43 43 43 73c0 40 -26 69 -74 69c-49 0 -74 -28 -74 -57c0 -28 12 -45 78 -73z" />
    <glyph glyph-name="fiveeighths" unicode="&#x215d;" horiz-adv-x="975" 
d="M157 258c-71 0 -118 26 -118 69c0 26 25 42 51 44l50 -65c7 -4 18 -8 38 -8c69 0 104 33 104 80c0 58 -52 85 -110 85c-51 0 -83 -15 -98 -25h-11v227h267v-65h-225v-88c23 10 53 17 93 17c83 0 155 -37 155 -126c0 -93 -106 -145 -196 -145zM231 -86l-44 31l539 782
l44 -29zM758 -18c-93 0 -163 40 -163 101c0 52 39 78 101 105v2c-52 24 -79 52 -79 96c0 67 62 115 158 115c92 0 139 -45 139 -93c0 -44 -44 -74 -88 -93v-2c75 -30 103 -54 103 -106c0 -71 -72 -125 -171 -125zM772 16c56 0 85 30 85 63s-19 49 -91 80l-40 17
c-40 -23 -52 -51 -52 -80c0 -51 41 -80 98 -80zM796 226c29 19 43 43 43 73c0 40 -26 69 -74 69c-49 0 -74 -28 -74 -57c0 -28 12 -45 78 -73z" />
    <glyph glyph-name="twothirds" unicode="&#x2154;" horiz-adv-x="974" 
d="M29 276v32l45 38c119 100 170 139 170 195c0 39 -33 73 -78 73c-48 0 -78 -24 -110 -59l-25 24c40 54 86 98 164 98c73 0 128 -40 129 -112c1 -73 -61 -114 -163 -196l-36 -29h224v-64h-320zM258 -86l-44 31l539 782l44 -29zM741 -18c-87 0 -127 35 -127 70
c0 25 19 41 48 45l49 -68c13 -4 27 -7 54 -7c49 0 94 23 94 75c0 51 -49 86 -149 81v33l17 5c82 24 106 55 106 88c0 27 -24 44 -59 44c-58 0 -90 -26 -125 -58l-23 23c52 58 103 88 175 88c69 0 118 -31 118 -79c0 -43 -52 -80 -104 -99v-3c92 -10 128 -56 128 -100
c0 -77 -96 -138 -202 -138z" />
    <glyph glyph-name="seveneighths" unicode="&#x215e;" horiz-adv-x="920" 
d="M53 276l216 320h-241v69h316v-12l-217 -377h-74zM146 -86l-44 31l539 782l44 -29zM703 -18c-93 0 -163 40 -163 101c0 52 39 78 101 105v2c-52 24 -79 52 -79 96c0 67 62 115 158 115c92 0 139 -45 139 -93c0 -44 -44 -74 -88 -93v-2c75 -30 103 -54 103 -106
c0 -71 -72 -125 -171 -125zM717 16c56 0 85 30 85 63s-19 49 -91 80l-40 17c-40 -23 -52 -51 -52 -80c0 -51 41 -80 98 -80zM741 226c29 19 43 43 43 73c0 40 -26 69 -74 69c-49 0 -74 -28 -74 -57c0 -28 12 -45 78 -73z" />
    <glyph glyph-name="Pcircle" unicode="&#x24c5;" horiz-adv-x="811" 
d="M60 327c0 193 154 346 345 346s346 -153 346 -346s-155 -345 -346 -345s-345 152 -345 345zM93 327c0 -175 140 -315 312 -315s312 140 312 315s-140 315 -312 315s-312 -140 -312 -315zM412 310c74 5 113 34 113 90c0 52 -46 90 -147 90v-310l78 -14v-27h-200v27l53 14
v296l-53 15v27h146c127 1 198 -43 198 -111c0 -87 -100 -126 -188 -122v25z" />
    <glyph glyph-name="dollar.lin" horiz-adv-x="521" 
d="M240 -125v120h-1c-65 0 -150 21 -197 51l-13 169h38l55 -138c22 -16 60 -37 118 -38v258l-54 14c-103 26 -147 86 -147 164c0 102 87 174 201 189v120h41v-117h1c63 0 133 -22 164 -40l6 -158h-34l-51 130c-5 3 -38 23 -86 26v-242l64 -17c98 -28 145 -86 145 -162
c0 -111 -108 -188 -209 -205v-124h-41zM293 284l-12 3v-245c63 11 110 55 110 124c0 47 -22 99 -98 118zM131 509c0 -49 20 -90 94 -110l15 -4v228c-65 -10 -109 -55 -109 -114z" />
    <glyph glyph-name="Euro.lin" horiz-adv-x="639" 
d="M38 362l5 44h74c41 173 181 276 330 276c83 0 161 -46 161 -92c0 -25 -16 -48 -47 -70c-43 72 -85 114 -163 114c-89 0 -172 -92 -193 -228h248l-5 -44h-248v-23c0 -22 1 -43 3 -62h234l-5 -44h-223c26 -128 102 -189 211 -189c54 0 108 18 151 59l23 -23
c-53 -72 -121 -103 -206 -103c-171 0 -257 115 -277 256h-89l5 44h79v25c0 21 1 40 4 60h-72z" />
    <glyph glyph-name="sterling.lin" horiz-adv-x="632" 
d="M124 260v44h119l37 166c43 194 155 259 230 259c52 0 110 -40 110 -101c0 -21 -34 -47 -76 -51c-12 71 -36 109 -71 109c-28 0 -55 -26 -86 -163l-50 -219h193v-44h-203l-1 -7c-25 -111 -83 -180 -144 -221c43 -17 84 -36 111 -51l34 -18c118 -63 144 -74 166 -74
c49 0 51 89 41 135c46 3 77 -9 77 -46c0 -45 -56 -138 -161 -138c-93 0 -177 60 -266 114l-71 43c-31 -11 -59 -16 -79 -16c-33 0 -49 16 -49 42c0 23 24 44 58 44c26 0 61 -8 96 -20c34 29 63 72 77 134l17 79h-109z" />
    <glyph glyph-name="yen.lin" horiz-adv-x="610" 
d="M80 258v44h179l-175 304l-64 26v32h251v-32l-75 -26l131 -258h4l136 249l-94 33v34h217v-32l-66 -30l-173 -298v-2h178v-44h-178v-75h178v-44h-178v-83l95 -23v-33h-282v33l96 23v83h-180v44h180v75h-180z" />
    <glyph glyph-name="florin.lin" horiz-adv-x="456" 
d="M37 273l6 44h89l8 38c36 179 151 324 270 324c48 0 67 -28 67 -54s-20 -50 -31 -64c-31 33 -59 64 -94 64c-34 0 -75 -26 -134 -308h131l-10 -44h-130l-53 -258c-50 -241 -176 -275 -221 -275c-25 0 -66 19 -66 57c0 18 12 41 25 50c26 -24 62 -58 90 -58
c37 0 54 55 73 150l66 334h-86z" />
    <glyph glyph-name="zero.lin" horiz-adv-x="659" 
d="M329 681c185 0 266 -172 266 -341c0 -222 -114 -358 -266 -358s-265 136 -265 340c0 222 113 359 265 359zM325 637c-115 0 -161 -158 -161 -284c0 -144 56 -329 174 -329c110 0 158 158 158 291c0 164 -73 322 -171 322z" />
    <glyph glyph-name="one.lin" horiz-adv-x="432" 
d="M272 682v-625l113 -20v-37h-320v37l116 19v519l-118 -31l-12 41l211 97h10z" />
    <glyph glyph-name="two.lin" horiz-adv-x="505" 
d="M227 170l-95 -88h344v-82h-437v49l44 45c159 163 281 251 279 377c-1 85 -66 131 -129 131c-59 0 -103 -38 -151 -98l-32 22c50 89 117 155 215 155c120 0 190 -77 192 -173c3 -128 -103 -220 -230 -338z" />
    <glyph glyph-name="three.lin" horiz-adv-x="496" 
d="M226 28c73 0 137 50 137 131c0 103 -104 157 -225 157v46c101 36 186 88 186 161c0 49 -36 86 -95 86c-45 0 -97 -29 -149 -78l-26 29c55 67 117 121 206 121c97 0 157 -57 157 -136c0 -87 -82 -129 -158 -174v-3c90 -13 192 -73 192 -174c0 -119 -132 -210 -256 -210
c-86 0 -147 37 -147 89c0 36 28 52 59 54l71 -92c10 -3 22 -7 48 -7z" />
    <glyph glyph-name="four.lin" horiz-adv-x="579" 
d="M413 661v-414h137v-66h-137v-125l85 -24v-32h-261v33l85 23v125h-279v38l338 450zM114 247h208v280z" />
    <glyph glyph-name="five.lin" horiz-adv-x="500" 
d="M422 576h-304v-176c34 16 74 26 114 26c133 0 225 -79 225 -204c0 -144 -142 -238 -264 -238c-81 0 -147 37 -147 89c0 36 28 52 59 54l72 -93c13 -3 27 -5 42 -5c90 0 149 61 149 158c0 85 -57 160 -164 160c-42 0 -79 -8 -122 -33h-7v350h347v-88z" />
    <glyph glyph-name="six.lin" horiz-adv-x="586" 
d="M496 667c-103 -36 -267 -129 -319 -305c36 29 86 59 158 59c104 0 200 -78 200 -210c0 -151 -126 -231 -230 -231c-150 0 -242 105 -242 251c0 300 257 435 424 471zM292 360c-57 0 -97 -22 -125 -42c-4 -24 -6 -48 -6 -74c0 -123 51 -220 158 -220c74 0 122 66 122 149
c0 109 -61 187 -149 187z" />
    <glyph glyph-name="seven.lin" horiz-adv-x="464" 
d="M154 0h-83l295 576h-346v88h429v-13z" />
    <glyph glyph-name="eight.lin" horiz-adv-x="537" 
d="M48 154c0 94 83 135 152 178l-12 8c-72 45 -114 93 -114 167c0 96 90 174 217 174c103 0 179 -57 179 -144s-72 -148 -135 -190h1c97 -60 150 -108 150 -183c0 -114 -101 -184 -224 -184s-214 71 -214 174zM270 289l-40 24c-64 -51 -87 -88 -87 -151
c0 -60 43 -143 138 -143c86 0 118 63 118 111c0 72 -56 114 -129 159zM159 528c0 -57 29 -90 77 -119l64 -40c41 37 81 92 81 159c0 74 -46 112 -109 112c-65 0 -113 -46 -113 -112z" />
    <glyph glyph-name="nine.lin" horiz-adv-x="585" 
d="M91 5c91 34 260 116 314 294c-33 -29 -75 -58 -141 -58c-120 0 -216 78 -216 210c0 151 126 231 230 231c150 0 243 -114 243 -255c0 -291 -247 -417 -421 -457zM302 302c47 0 86 21 113 41c4 24 7 48 7 75c0 131 -48 221 -155 221c-74 0 -125 -67 -125 -160
c0 -99 61 -177 160 -177z" />
    <glyph glyph-name="percent.lin" horiz-adv-x="896" 
d="M243 681c109 0 163 -89 163 -177c0 -110 -77 -188 -169 -188c-94 0 -162 69 -162 175c0 111 77 190 168 190zM155 -50l531 765h62l-531 -765h-62zM236 640c-59 0 -83 -72 -83 -131c0 -75 29 -152 93 -152c57 0 82 70 82 132c0 84 -38 151 -92 151zM660 346
c109 0 163 -89 163 -177c0 -110 -77 -188 -169 -188c-94 0 -162 69 -162 175c0 111 77 190 168 190zM653 305c-59 0 -83 -72 -83 -131c0 -75 29 -152 93 -152c57 0 82 70 82 132c0 84 -38 151 -92 151z" />
    <glyph glyph-name="perthousand.lin" horiz-adv-x="1299" 
d="M243 681c109 0 163 -89 163 -177c0 -110 -77 -188 -169 -188c-94 0 -162 69 -162 175c0 111 77 190 168 190zM155 -50l531 765h62l-531 -765h-62zM236 640c-59 0 -83 -72 -83 -131c0 -75 29 -152 93 -152c57 0 82 70 82 132c0 84 -38 151 -92 151zM660 346
c109 0 163 -89 163 -177c0 -110 -77 -188 -169 -188c-94 0 -162 69 -162 175c0 111 77 190 168 190zM653 305c-59 0 -83 -72 -83 -131c0 -75 29 -152 93 -152c57 0 82 70 82 132c0 84 -38 151 -92 151zM1063 346c109 0 163 -89 163 -177c0 -110 -77 -188 -169 -188
c-94 0 -162 69 -162 175c0 111 77 190 168 190zM1056 305c-59 0 -83 -72 -83 -131c0 -75 29 -152 93 -152c57 0 82 70 82 132c0 84 -38 151 -92 151z" />
    <glyph glyph-name="plus.lin" horiz-adv-x="558" 
d="M516 268h-206v-208h-62v208h-206v58h206v208h62v-208h206v-58z" />
    <glyph glyph-name="minus.lin" horiz-adv-x="558" 
d="M516 268h-474v58h474v-58z" />
    <glyph glyph-name="multiply.lin" horiz-adv-x="558" 
d="M458 72l-183 184l-180 -184l-41 41l183 184l-183 183l43 43l182 -183l183 188l40 -41l-183 -187l183 -185z" />
    <glyph glyph-name="divide.lin" horiz-adv-x="558" 
d="M516 268h-474v58h474v-58zM278 56c-37 0 -69 32 -69 70c0 37 32 69 69 69c38 0 70 -32 70 -69c0 -38 -32 -70 -70 -70zM279 398c-37 0 -69 32 -69 70c0 37 32 69 69 69c38 0 70 -32 70 -69c0 -38 -32 -70 -70 -70z" />
    <glyph glyph-name="equal.lin" horiz-adv-x="558" 
d="M42 353v55h474v-55h-474zM42 207v55h474v-55h-474z" />
    <glyph glyph-name="less.lin" horiz-adv-x="558" 
d="M514 478l-400 -183l400 -180v-69l-472 220v59l472 220v-67z" />
    <glyph glyph-name="greater.lin" horiz-adv-x="558" 
d="M43 113l400 183l-400 180v69l472 -220v-59l-472 -220v67z" />
    <glyph glyph-name="plusminus.lin" horiz-adv-x="557" 
d="M516 399h-206v-208h-62v208h-206v58h206v208h62v-208h206v-58zM516 0h-474v58h474v-58z" />
    <glyph glyph-name="notequal.lin" horiz-adv-x="558" 
d="M42 353v55h296l99 110h61l-100 -110h118v-55h-167l-82 -91h249v-55h-299l-99 -110h-58l98 110h-116v55h166l81 91h-247z" />
    <glyph glyph-name="approxequal.lin" horiz-adv-x="558" 
d="M90 337l-45 18c29 62 64 99 123 99c23 0 50 -5 76 -11l66 -16c30 -7 62 -16 88 -16c34 0 51 22 71 59l45 -18c-29 -63 -64 -97 -124 -97c-30 0 -66 7 -98 15l-65 17c-23 6 -45 12 -66 12c-34 0 -52 -26 -71 -62zM90 177l-45 18c29 62 64 99 123 99c23 0 50 -5 76 -11
l66 -16c30 -7 62 -16 88 -16c34 0 51 22 71 59l45 -18c-29 -63 -64 -97 -124 -97c-30 0 -66 7 -98 15l-65 17c-23 6 -45 12 -66 12c-34 0 -52 -26 -71 -62z" />
    <glyph glyph-name="lessequal.lin" horiz-adv-x="558" 
d="M514 518l-384 -143l384 -142v-67l-472 180v59l472 180v-67zM514 0h-472v58h472v-58z" />
    <glyph glyph-name="greaterequal.lin" horiz-adv-x="558" 
d="M426 375l-384 143v67l472 -180v-59l-472 -180v67zM514 0h-472v58h472v-58z" />
    <glyph glyph-name="numbersign.lin" horiz-adv-x="593" 
d="M82 423v58h110l27 153h58l-27 -153h147l27 153h58l-27 -153h106v-58h-117l-30 -174h103v-58h-114l-26 -151h-58l26 151h-147l-26 -151h-58l26 151h-102v58h113l30 174h-99zM239 423l-30 -174h147l30 174h-147z" />
    <glyph glyph-name="ordfeminine.lin" horiz-adv-x="427" 
d="M140 288c-45 0 -100 32 -100 95c0 65 48 92 132 113l86 22v37c-1 58 -33 93 -77 93c-24 0 -44 -9 -50 -13l-3 -79c-2 -2 -22 -5 -36 -5c-27 0 -40 13 -40 37c0 39 74 96 161 96c86 0 121 -39 121 -121v-203c0 -19 6 -24 28 -24h40v-24s-49 -22 -81 -22
c-44 0 -60 28 -61 63h-6c-41 -39 -63 -65 -114 -65zM183 346c40 0 65 25 75 37v107l-75 -23c-39 -13 -63 -29 -63 -60c0 -40 31 -61 63 -61z" />
    <glyph glyph-name="ordmasculine.lin" horiz-adv-x="454" 
d="M115 498c1 -88 38 -178 122 -176c65 1 103 66 102 149c-1 110 -51 176 -122 175c-66 -1 -103 -65 -102 -148zM227 283c-126 0 -193 90 -193 194c0 114 85 207 193 207c118 0 193 -73 193 -193c0 -115 -84 -208 -193 -208z" />
    <glyph glyph-name="dollar.tab" 
d="M287 -125v114h-1c-65 0 -150 21 -197 50l-13 166h38l55 -136c22 -15 60 -36 118 -37v252l-51 13c-103 28 -145 87 -145 163c0 84 72 170 196 186v138h41v-135h1c63 0 133 -22 164 -39l6 -155h-34l-51 127c-5 3 -38 23 -86 26v-237l61 -16c98 -27 143 -83 143 -158
c0 -106 -107 -186 -204 -204v-118h-41zM341 271l-13 3v-239c63 11 111 53 111 121c0 54 -21 98 -98 115zM176 492c0 -48 22 -86 96 -105l15 -4v223c-65 -11 -111 -56 -111 -114z" />
    <glyph glyph-name="Euro.tab" 
d="M38 327l5 44h70c41 150 172 233 310 233c66 0 148 -33 148 -83c0 -24 -16 -47 -47 -69c-44 74 -87 104 -153 104c-84 0 -153 -74 -173 -185h250l-5 -44h-250v-22c0 -19 1 -36 3 -53h236l-5 -44h-224c26 -109 99 -167 197 -167c51 0 105 18 146 54l20 -22
c-50 -64 -116 -96 -197 -96c-157 0 -243 102 -263 231h-84l5 44h74v20c0 19 1 37 3 55h-66z" />
    <glyph glyph-name="sterling.tab" 
d="M110 255v44h131l30 112c44 164 173 242 229 242c48 0 100 -35 100 -96c0 -21 -24 -42 -66 -46c-12 71 -36 99 -65 99c-30 0 -60 -38 -96 -163l-40 -148h168v-44h-180l-3 -14c-30 -110 -88 -178 -145 -217c44 -16 88 -35 117 -50l51 -26c90 -46 117 -65 144 -65
c31 0 41 48 32 133c40 0 70 -9 70 -46c0 -48 -51 -130 -150 -130c-90 0 -180 52 -265 116l-52 39c-25 -10 -48 -14 -65 -14c-31 0 -48 13 -48 38c0 24 23 37 50 37c17 0 47 -8 81 -19c25 19 46 51 65 120l26 98h-119z" />
    <glyph glyph-name="yen.tab" 
d="M85 248v44h171l-169 286l-64 26v32h251v-32l-75 -26l126 -229h4l131 220l-94 33v34h217v-32l-66 -30l-169 -281v-1h172v-44h-172v-75h172v-44h-172v-73l97 -23v-33h-284v33l98 23v73h-174v44h174v75h-174z" />
    <glyph glyph-name="florin.tab" 
d="M106 273l6 44h131c43 161 150 287 261 287c48 0 67 -28 67 -54s-20 -50 -31 -64c-31 33 -59 64 -94 64c-31 0 -68 -22 -118 -233h150l-10 -44h-150l-6 -31l-47 -227c-50 -241 -176 -275 -221 -275c-25 0 -66 19 -66 57c0 18 12 41 25 50c26 -24 62 -58 90 -58
c37 0 54 55 73 150l66 334h-126z" />
    <glyph glyph-name="zero.tab" 
d="M153 264c0 -116 45 -240 166 -240c71 0 128 75 128 208c0 146 -73 237 -163 237c-76 0 -131 -90 -131 -205zM304 -19c-148 0 -250 103 -250 266c0 140 112 267 245 267c155 0 247 -113 247 -267c0 -141 -107 -266 -242 -266z" />
    <glyph glyph-name="one.tab" 
d="M367 508v-450l141 -16v-42h-386v42l158 15v367h-150v42l233 42h4z" />
    <glyph glyph-name="two.tab" 
d="M276 128l-66 -56h283v-72h-401v25l42 36c161 138 231 200 231 277c0 60 -41 105 -103 105c-50 0 -95 -30 -131 -71l-28 20c53 80 112 122 192 122c101 0 157 -64 157 -139c0 -84 -72 -158 -176 -247z" />
    <glyph glyph-name="three.tab" 
d="M197 -204c-54 0 -100 21 -100 61c0 22 17 37 43 44l74 -62c101 0 169 65 169 147c0 89 -90 155 -208 147v42l43 22c95 48 136 102 136 162c0 52 -39 85 -99 85c-41 0 -89 -21 -121 -66l-28 20c40 65 109 116 189 116c105 0 150 -64 150 -121c0 -70 -40 -115 -115 -171
l-31 -23v-3c88 -12 172 -71 172 -176c0 -126 -155 -224 -274 -224z" />
    <glyph glyph-name="four.tab" 
d="M335 -195v210h-312v30l374 468h23v-440h139v-58h-139v-210h-85zM99 73h236v303z" />
    <glyph glyph-name="five.tab" 
d="M166 -204c-39 0 -90 20 -90 65c0 24 17 40 43 47l76 -69c101 11 173 78 173 168c0 74 -33 151 -239 270l94 224h261v-83h-254l-31 -78c199 -91 256 -192 256 -286c0 -143 -152 -258 -289 -258z" />
    <glyph glyph-name="six.tab" 
d="M551 659c-152 -60 -293 -174 -352 -308c42 37 91 56 148 56c77 0 174 -60 174 -192c0 -140 -107 -235 -224 -235c-123 0 -227 80 -227 238c0 224 219 405 471 476zM284 349c-26 0 -66 -9 -100 -38c-9 -31 -14 -62 -14 -93c0 -126 68 -197 130 -197c76 0 122 57 122 149
c0 118 -62 179 -138 179z" />
    <glyph glyph-name="seven.tab" 
d="M163 -205l-70 29l375 589h-370v88h458v-9l-316 -552z" />
    <glyph glyph-name="eight.tab" 
d="M84 151c0 71 51 119 155 179l-37 28c-45 33 -92 85 -92 151c0 94 90 172 209 172c101 0 181 -62 181 -147c0 -83 -76 -148 -134 -187l19 -13c71 -51 130 -103 130 -175c0 -113 -104 -179 -213 -179c-125 0 -218 68 -218 171zM298 286l-30 22c-65 -51 -93 -89 -93 -155
c0 -55 38 -133 129 -133c85 0 125 53 125 105c0 65 -63 110 -131 161zM196 540c0 -55 35 -95 94 -136l48 -35c39 37 75 93 75 150c0 78 -50 122 -109 122c-57 0 -108 -42 -108 -101z" />
    <glyph glyph-name="nine.tab" 
d="M65 -171c125 53 277 152 335 304c-34 -30 -77 -53 -130 -53c-119 0 -196 89 -196 200c0 115 79 232 223 232c124 0 229 -88 229 -233c0 -241 -209 -417 -453 -484zM312 140c31 0 72 12 101 37c7 27 11 57 11 88c0 140 -64 206 -139 206c-65 0 -115 -50 -115 -156
s61 -175 142 -175z" />
    <glyph glyph-name="cent.tab" 
d="M272 -125l9 112c-101 15 -182 90 -182 231c0 147 113 246 225 262l12 132h41l-12 -129c78 -3 136 -46 136 -100c0 -27 -13 -47 -51 -47c-15 0 -31 3 -31 3l-10 85c-10 5 -23 14 -47 17l-34 -386c12 -2 24 -3 37 -3c67 0 119 65 119 65l20 -13s-44 -119 -182 -120l-9 -109
h-41zM187 257c0 -83 36 -156 101 -188l33 372c-75 -11 -134 -86 -134 -184z" />
    <glyph glyph-name="percent.tab" horiz-adv-x="900" 
d="M226 605c103 0 153 -89 153 -177c0 -110 -71 -188 -159 -188c-89 0 -152 69 -152 175c0 111 71 190 158 190zM184 -50l470 680h59l-470 -680h-59zM219 564c-57 0 -81 -72 -81 -131c0 -75 29 -152 91 -152c55 0 80 70 80 132c0 84 -38 151 -90 151zM679 346
c103 0 153 -89 153 -177c0 -110 -72 -188 -159 -188c-89 0 -152 69 -152 175c0 111 71 190 158 190zM672 305c-57 0 -81 -72 -81 -131c0 -75 29 -152 91 -152c55 0 79 70 79 132c0 84 -37 151 -89 151z" />
    <glyph glyph-name="perthousand.tab" horiz-adv-x="1200" 
d="M182 605c103 0 153 -89 153 -177c0 -110 -72 -188 -159 -188c-89 0 -152 69 -152 175c0 111 71 190 158 190zM140 -50l470 680h59l-470 -680h-59zM175 564c-57 0 -81 -72 -81 -131c0 -75 29 -152 91 -152c55 0 79 70 79 132c0 84 -37 151 -89 151zM635 346
c103 0 153 -89 153 -177c0 -110 -72 -188 -159 -188c-89 0 -152 69 -152 175c0 111 71 190 158 190zM628 305c-57 0 -81 -72 -81 -131c0 -75 29 -152 91 -152c55 0 79 70 79 132c0 84 -37 151 -89 151zM1004 346c104 0 153 -89 153 -177c0 -110 -71 -188 -158 -188
c-90 0 -152 69 -152 175c0 111 71 190 157 190zM998 305c-57 0 -81 -72 -81 -131c0 -75 28 -152 90 -152c55 0 80 70 80 132c0 84 -37 151 -89 151z" />
    <glyph glyph-name="plus.tab" 
d="M537 208h-206v-208h-62v208h-206v58h206v208h62v-208h206v-58z" />
    <glyph glyph-name="minus.tab" 
d="M537 208h-474v58h474v-58z" />
    <glyph glyph-name="multiply.tab" 
d="M481 12l-183 184l-180 -184l-41 41l183 184l-183 183l43 43l182 -183l183 188l40 -41l-183 -187l183 -185z" />
    <glyph glyph-name="divide.tab" 
d="M537 208h-474v58h474v-58zM299 -4c-37 0 -69 32 -69 70c0 37 32 69 69 69c38 0 70 -32 70 -69c0 -38 -32 -70 -70 -70zM300 338c-37 0 -69 32 -69 70c0 37 32 69 69 69c38 0 70 -32 70 -69c0 -38 -32 -70 -70 -70z" />
    <glyph glyph-name="equal.tab" 
d="M63 293v55h474v-55h-474zM63 147v55h474v-55h-474z" />
    <glyph glyph-name="less.tab" 
d="M535 418l-400 -183l400 -180v-69l-472 220v59l472 220v-67z" />
    <glyph glyph-name="greater.tab" 
d="M64 53l400 183l-400 180v69l472 -220v-59l-472 -220v67z" />
    <glyph glyph-name="plusminus.tab" 
d="M537 338h-206v-208h-62v208h-206v58h206v208h62v-208h206v-58zM537 0h-474v58h474v-58z" />
    <glyph glyph-name="notequal.tab" 
d="M63 293v55h296l99 110h61l-100 -110h118v-55h-167l-82 -91h249v-55h-299l-99 -110h-58l98 110h-116v55h166l81 91h-247z" />
    <glyph glyph-name="approxequal.tab" 
d="M111 277l-45 18c29 62 64 99 123 99c23 0 50 -5 76 -11l66 -16c30 -7 62 -16 88 -16c34 0 51 22 71 59l45 -18c-29 -63 -64 -97 -124 -97c-30 0 -66 7 -98 15l-65 17c-23 6 -45 12 -66 12c-34 0 -52 -26 -71 -62zM111 117l-45 18c29 62 64 99 123 99c23 0 50 -5 76 -11
l66 -16c30 -7 62 -16 88 -16c34 0 51 22 71 59l45 -18c-29 -63 -64 -97 -124 -97c-30 0 -66 7 -98 15l-65 17c-23 6 -45 12 -66 12c-34 0 -52 -26 -71 -62z" />
    <glyph glyph-name="lessequal.tab" 
d="M535 458l-384 -143l384 -142v-67l-472 180v59l472 180v-67zM535 0h-472v58h472v-58z" />
    <glyph glyph-name="greaterequal.tab" 
d="M447 315l-384 143v67l472 -180v-59l-472 -180v67zM535 0h-472v58h472v-58z" />
    <glyph glyph-name="parenleft.tab" horiz-adv-x="300" 
d="M341 -180h-55c-117 124 -191 278 -191 453c0 179 78 335 196 459h54c-110 -141 -165 -268 -165 -459c0 -182 52 -312 161 -453z" />
    <glyph glyph-name="parenright.tab" horiz-adv-x="300" 
d="M-41 732h55c117 -124 191 -278 191 -453c0 -179 -78 -335 -196 -459h-54c110 141 165 268 165 459c0 182 -52 312 -161 453z" />
    <glyph glyph-name="bracketleft.tab" horiz-adv-x="300" 
d="M287 -181h-182v914h182v-39h-100v-836h100v-39z" />
    <glyph glyph-name="bracketright.tab" horiz-adv-x="300" 
d="M13 733h182v-914h-182v39h100v836h-100v39z" />
    <glyph glyph-name="braceleft.tab" horiz-adv-x="300" 
d="M128 277v-2c56 -22 81 -49 85 -115l10 -176c6 -113 26 -133 100 -133v-32h-15c-141 0 -174 62 -173 175l1 174c0 52 -27 83 -70 84l-38 1v46l38 1c43 1 70 32 70 84l-1 174c-1 113 32 175 173 175h15v-32c-74 0 -94 -20 -100 -133l-10 -176c-4 -66 -29 -93 -85 -115z" />
    <glyph glyph-name="braceright.tab" horiz-adv-x="300" 
d="M177 275v2c-56 22 -81 49 -85 115l-10 176c-6 113 -26 133 -100 133v32h15c141 0 174 -62 173 -175l-1 -174c0 -52 27 -83 70 -84l38 -1v-46l-38 -1c-43 -1 -70 -32 -70 -84l1 -174c1 -113 -32 -175 -173 -175h-15v32c74 0 94 20 100 133l10 176c4 66 29 93 85 115z" />
    <glyph glyph-name="numbersign.tab" 
d="M86 383v58h110l27 153h58l-27 -153h147l27 153h58l-27 -153h106v-58h-117l-30 -174h103v-58h-114l-26 -151h-58l26 151h-147l-26 -151h-58l26 151h-102v58h113l30 174h-99zM243 383l-30 -174h147l30 174h-147z" />
    <glyph glyph-name="period.tab" horiz-adv-x="300" 
d="M149 -4c-37 0 -69 32 -69 70c0 37 32 69 69 69c38 0 70 -32 70 -69c0 -38 -32 -70 -70 -70z" />
    <glyph glyph-name="comma.tab" horiz-adv-x="300" 
d="M58 -179c62 42 89 99 89 144c0 51 -25 84 -75 96c-9 41 5 92 57 92c46 0 93 -36 93 -125s-60 -186 -145 -232c0 0 -17 21 -19 25z" />
    <glyph glyph-name="colon.tab" horiz-adv-x="300" 
d="M148 -4c-37 0 -69 32 -69 70c0 37 32 69 69 69c38 0 70 -32 70 -69c0 -38 -32 -70 -70 -70zM151 337c-38 0 -70 32 -70 70c0 37 32 69 70 69c37 0 69 -32 69 -69c0 -38 -32 -70 -69 -70z" />
    <glyph glyph-name="semicolon.tab" horiz-adv-x="300" 
d="M160 337c-38 0 -70 32 -70 70c0 37 32 69 70 69c37 0 69 -32 69 -69c0 -38 -32 -70 -69 -70zM70 -179c62 42 89 99 89 144c0 51 -25 84 -75 96c-9 41 5 92 57 92c46 0 93 -36 93 -125s-60 -186 -145 -232c0 0 -17 21 -19 25z" />
    <glyph glyph-name="space.tab" horiz-adv-x="300" 
 />
    <glyph glyph-name="dollar.lintab" 
d="M281 -125v120h-1c-65 0 -150 21 -197 51l-13 169h38l55 -138c22 -16 60 -37 118 -38v258l-54 14c-103 26 -147 86 -147 164c0 102 87 174 201 189v120h41v-117h1c63 0 133 -22 164 -40l6 -158h-34l-51 130c-5 3 -38 23 -86 26v-242l64 -17c98 -28 145 -86 145 -162
c0 -111 -108 -188 -209 -205v-124h-41zM334 284l-12 3v-245c63 11 110 55 110 124c0 47 -22 99 -98 118zM172 509c0 -49 20 -90 94 -110l15 -4v228c-65 -10 -109 -55 -109 -114z" />
    <glyph glyph-name="Euro.lintab" 
d="M51 362l5 44h55c40 165 173 276 314 276c66 0 147 -37 147 -93c0 -27 -11 -47 -51 -72c-46 83 -96 111 -143 111c-75 0 -159 -88 -180 -222h229l-6 -44h-228v-23c0 -22 1 -43 3 -62h215l-6 -44h-203c27 -142 109 -189 189 -189c56 0 112 20 155 61l21 -25
c-53 -72 -121 -103 -199 -103c-148 0 -244 98 -265 256h-68l5 44h59v25c0 20 1 40 4 60h-52z" />
    <glyph glyph-name="sterling.lintab" 
d="M93 260v44h122l28 166c31 186 138 259 211 259c51 0 111 -40 111 -95c0 -29 -21 -47 -70 -57c-15 71 -41 109 -75 109c-27 0 -52 -26 -75 -163l-37 -219h176v-44h-183l-1 -7c-19 -111 -81 -182 -141 -224c43 -17 86 -38 114 -52l27 -14c118 -63 146 -76 167 -76
c48 0 43 91 31 137c45 3 77 -9 77 -46c0 -48 -47 -138 -150 -138c-90 0 -178 55 -265 116l-60 42c-26 -12 -49 -17 -62 -17c-31 0 -48 16 -48 41c0 24 24 40 51 40c21 0 51 -8 82 -19c34 29 61 73 72 138l13 79h-115z" />
    <glyph glyph-name="yen.lintab" 
d="M75 258v44h179l-175 304l-64 26v32h251v-32l-75 -26l131 -258h4l136 249l-94 33v34h217v-32l-66 -30l-173 -298v-2h178v-44h-178v-75h178v-44h-178v-83l95 -23v-33h-282v33l96 23v83h-180v44h180v75h-180z" />
    <glyph glyph-name="florin.lintab" 
d="M73 273l6 44h139l8 38c36 179 151 324 270 324c48 0 67 -28 67 -54s-20 -50 -31 -64c-31 33 -59 64 -94 64c-34 0 -75 -26 -134 -308h156l-10 -44h-155l-53 -258c-50 -241 -176 -275 -221 -275c-25 0 -66 19 -66 57c0 18 12 41 25 50c26 -24 62 -58 90 -58
c37 0 54 55 73 150l66 334h-136z" />
    <glyph glyph-name="zero.lintab" 
d="M456 310c0 197 -74 329 -165 329c-85 0 -147 -115 -147 -284c0 -197 68 -329 164 -329c89 0 148 117 148 284zM299 681c166 0 256 -164 256 -341c0 -222 -109 -358 -256 -358s-255 136 -255 340c0 222 108 359 255 359z" />
    <glyph glyph-name="one.lintab" 
d="M365 682v-621l163 -18v-43h-420v43l166 17v521l-165 -13l-7 40l253 74h10z" />
    <glyph glyph-name="two.lintab" 
d="M257 170l-95 -88h344v-82h-437v49l44 45c159 163 281 251 279 377c-1 85 -66 131 -129 131c-59 0 -103 -38 -151 -98l-32 22c50 89 117 155 215 155c120 0 190 -77 192 -173c3 -128 -103 -220 -230 -338z" />
    <glyph glyph-name="three.lintab" 
d="M272 28c73 0 137 50 137 131c0 103 -104 157 -225 157v46c101 36 186 88 186 161c0 49 -36 86 -95 86c-45 0 -97 -29 -149 -78l-26 29c55 67 117 121 206 121c97 0 157 -57 157 -136c0 -87 -82 -129 -158 -174v-3c90 -13 192 -73 192 -174c0 -119 -132 -210 -256 -210
c-86 0 -147 37 -147 89c0 36 28 52 59 54l71 -92c10 -3 22 -7 48 -7z" />
    <glyph glyph-name="four.lintab" 
d="M410 661v-414h137v-66h-137v-125l85 -24v-32h-259v33l85 23v125h-281v38l338 450zM112 247h209v282z" />
    <glyph glyph-name="five.lintab" 
d="M465 576h-294v-176c34 16 80 26 104 26c133 0 225 -79 225 -204c0 -144 -132 -238 -254 -238c-81 0 -147 37 -147 89c0 36 28 52 59 54l72 -93c13 -3 27 -5 42 -5c90 0 139 61 139 158c0 85 -57 160 -164 160c-33 0 -74 -11 -112 -33h-7v350h337v-88z" />
    <glyph glyph-name="six.lintab" 
d="M498 663c-103 -36 -260 -126 -310 -302c34 30 77 60 153 60c100 0 196 -78 196 -210c0 -151 -126 -231 -227 -231c-148 0 -235 108 -235 251c0 300 247 431 414 467zM297 360c-60 0 -92 -22 -118 -42c-4 -23 -6 -48 -6 -74c0 -123 53 -220 150 -220c72 0 120 66 120 149
c0 109 -61 187 -146 187z" />
    <glyph glyph-name="seven.lintab" 
d="M235 0h-83l295 576h-346v88h429v-13z" />
    <glyph glyph-name="eight.lintab" 
d="M82 154c0 94 83 135 152 178l-12 8c-72 45 -114 93 -114 167c0 96 90 174 217 174c103 0 179 -57 179 -144s-72 -148 -135 -190h1c97 -60 150 -108 150 -183c0 -114 -101 -184 -224 -184s-214 71 -214 174zM304 289l-40 24c-64 -51 -87 -88 -87 -151
c0 -60 43 -143 138 -143c86 0 118 63 118 111c0 72 -56 114 -129 159zM193 528c0 -57 29 -90 77 -119l64 -40c41 37 81 92 81 159c0 74 -46 112 -109 112c-65 0 -113 -46 -113 -112z" />
    <glyph glyph-name="nine.lintab" 
d="M110 9c92 34 254 114 305 292c-48 -43 -84 -60 -139 -60c-113 0 -209 78 -209 210c0 151 126 231 228 231c142 0 235 -114 235 -255c0 -291 -237 -413 -411 -453zM314 302c37 0 74 16 111 42c4 23 6 48 6 74c0 127 -52 221 -148 221c-71 0 -122 -67 -122 -160
c0 -99 61 -177 153 -177z" />
    <glyph glyph-name="percent.lintab" horiz-adv-x="900" 
d="M251 681c103 0 155 -89 155 -177c0 -110 -73 -188 -161 -188c-89 0 -154 69 -154 175c0 111 73 190 160 190zM157 -50l531 765h61l-531 -765h-61zM244 640c-57 0 -81 -72 -81 -131c0 -75 29 -152 91 -152c55 0 80 70 80 132c0 84 -38 151 -90 151zM654 346
c103 0 155 -89 155 -177c0 -110 -74 -188 -161 -188c-89 0 -154 69 -154 175c0 111 73 190 160 190zM647 305c-57 0 -81 -72 -81 -131c0 -75 29 -152 91 -152c55 0 79 70 79 132c0 84 -37 151 -89 151z" />
    <glyph glyph-name="perthousand.lintab" horiz-adv-x="1200" 
d="M212 681c103 0 154 -89 154 -177c0 -110 -72 -188 -160 -188c-89 0 -153 69 -153 175c0 111 72 190 159 190zM117 -50l531 765h61l-531 -765h-61zM205 640c-57 0 -80 -72 -80 -131c0 -75 28 -152 90 -152c55 0 79 70 79 132c0 84 -37 151 -89 151zM613 346
c103 0 154 -89 154 -177c0 -110 -73 -188 -160 -188c-89 0 -153 69 -153 175c0 111 72 190 159 190zM606 305c-57 0 -80 -72 -80 -131c0 -75 28 -152 90 -152c55 0 78 70 78 132c0 84 -36 151 -88 151zM993 346c103 0 154 -89 154 -177c0 -110 -73 -188 -160 -188
c-89 0 -153 69 -153 175c0 111 72 190 159 190zM986 305c-57 0 -80 -72 -80 -131c0 -75 28 -152 90 -152c55 0 78 70 78 132c0 84 -36 151 -88 151z" />
    <glyph glyph-name="numbersign.lintab" 
d="M75 423v58h110l27 153h58l-27 -153h147l27 153h58l-27 -153h106v-58h-117l-30 -174h103v-58h-114l-26 -151h-58l26 151h-147l-26 -151h-58l26 151h-102v58h113l30 174h-99zM232 423l-30 -174h147l30 174h-147z" />
    <glyph glyph-name="plus.lintab" 
d="M537 278h-206v-208h-62v208h-206v58h206v208h62v-208h206v-58z" />
    <glyph glyph-name="minus.lintab" 
d="M537 278h-474v58h474v-58z" />
    <glyph glyph-name="multiply.lintab" 
d="M481 82l-183 184l-180 -184l-41 41l183 184l-183 183l43 43l182 -183l183 188l40 -41l-183 -187l183 -185z" />
    <glyph glyph-name="divide.lintab" 
d="M537 278h-474v58h474v-58zM299 66c-37 0 -69 32 -69 70c0 37 32 69 69 69c38 0 70 -32 70 -69c0 -38 -32 -70 -70 -70zM300 408c-37 0 -69 32 -69 70c0 37 32 69 69 69c38 0 70 -32 70 -69c0 -38 -32 -70 -70 -70z" />
    <glyph glyph-name="equal.lintab" 
d="M63 363v55h474v-55h-474zM63 217v55h474v-55h-474z" />
    <glyph glyph-name="less.lintab" 
d="M535 488l-400 -183l400 -180v-69l-472 220v59l472 220v-67z" />
    <glyph glyph-name="greater.lintab" 
d="M64 123l400 183l-400 180v69l472 -220v-59l-472 -220v67z" />
    <glyph glyph-name="plusminus.lintab" 
d="M537 399h-206v-208h-62v208h-206v58h206v208h62v-208h206v-58zM537 0h-474v58h474v-58z" />
    <glyph glyph-name="notequal.lintab" 
d="M63 363v55h296l99 110h61l-100 -110h118v-55h-167l-82 -91h249v-55h-299l-99 -110h-58l98 110h-116v55h166l81 91h-247z" />
    <glyph glyph-name="approxequal.lintab" 
d="M111 347l-45 18c29 62 64 99 123 99c23 0 50 -5 76 -11l66 -16c30 -7 62 -16 88 -16c34 0 51 22 71 59l45 -18c-29 -63 -64 -97 -124 -97c-30 0 -66 7 -98 15l-65 17c-23 6 -45 12 -66 12c-34 0 -52 -26 -71 -62zM111 187l-45 18c29 62 64 99 123 99c23 0 50 -5 76 -11
l66 -16c30 -7 62 -16 88 -16c34 0 51 22 71 59l45 -18c-29 -63 -64 -97 -124 -97c-30 0 -66 7 -98 15l-65 17c-23 6 -45 12 -66 12c-34 0 -52 -26 -71 -62z" />
    <glyph glyph-name="lessequal.lintab" 
d="M535 518l-384 -143l384 -142v-67l-472 180v59l472 180v-67zM535 0h-472v58h472v-58z" />
    <glyph glyph-name="greaterequal.lintab" 
d="M447 375l-384 143v67l472 -180v-59l-472 -180v67zM535 0h-472v58h472v-58z" />
    <glyph glyph-name="parenleft.uctab" horiz-adv-x="300" 
d="M336 -140h-55c-117 124 -191 278 -191 453c0 179 78 335 196 459h54c-110 -141 -165 -268 -165 -459c0 -182 52 -312 161 -453z" />
    <glyph glyph-name="parenright.uctab" horiz-adv-x="300" 
d="M-36 772h55c117 -124 191 -278 191 -453c0 -179 -78 -335 -196 -459h-54c110 141 165 268 165 459c0 182 -52 312 -161 453z" />
    <glyph glyph-name="bracketleft.uctab" horiz-adv-x="300" 
d="M280 -141h-182v914h182v-39h-100v-836h100v-39z" />
    <glyph glyph-name="bracketright.uctab" horiz-adv-x="300" 
d="M15 773h182v-914h-182v39h100v836h-100v39z" />
    <glyph glyph-name="braceleft.uctab" horiz-adv-x="300" 
d="M120 317v-2c56 -22 81 -49 85 -115l10 -176c6 -113 26 -133 100 -133v-32h-15c-141 0 -174 62 -173 175l1 174c0 52 -27 83 -70 84l-38 1v46l38 1c43 1 70 32 70 84l-1 174c-1 113 32 175 173 175h15v-32c-74 0 -94 -20 -100 -133l-10 -176c-4 -66 -29 -93 -85 -115z" />
    <glyph glyph-name="braceright.uctab" horiz-adv-x="300" 
d="M180 315v2c-56 22 -81 49 -85 115l-10 176c-6 113 -26 133 -100 133v32h15c141 0 174 -62 173 -175l-1 -174c0 -52 27 -83 70 -84l38 -1v-46l-38 -1c-43 -1 -70 -32 -70 -84l1 -174c1 -113 -32 -175 -173 -175h-15v32c74 0 94 20 100 133l10 176c4 66 29 93 85 115z" />
    <glyph glyph-name="zero.num" horiz-adv-x="510" 
d="M265 298c73 -1 105 69 105 144c2 111 -50 196 -122 196c-78 0 -107 -83 -108 -146c-1 -95 42 -193 125 -194zM255 258c-121 0 -206 93 -206 205c0 122 89 214 205 214c138 0 207 -107 207 -207c0 -120 -90 -212 -206 -212z" />
    <glyph glyph-name="one.num" horiz-adv-x="353" 
d="M229 667v-347l100 -10v-34h-288v34l104 11v271h-110v30l188 45h6z" />
    <glyph glyph-name="two.num" horiz-adv-x="383" 
d="M29 276v32l45 38c119 100 170 139 170 195c0 39 -33 73 -78 73c-48 0 -78 -24 -110 -59l-25 24c40 54 86 98 164 98c73 0 128 -40 129 -112c1 -73 -61 -114 -163 -196l-36 -29h224v-64h-320z" />
    <glyph glyph-name="three.num" horiz-adv-x="396" 
d="M163 258c-87 0 -127 35 -127 70c0 25 19 41 48 45l49 -68c13 -4 27 -7 54 -7c49 0 94 23 94 75c0 51 -49 86 -149 81v33l17 5c82 24 106 55 106 88c0 27 -24 44 -59 44c-58 0 -90 -26 -125 -58l-23 23c52 58 103 88 175 88c69 0 118 -31 118 -79c0 -43 -52 -80 -104 -99
v-3c92 -10 128 -56 128 -100c0 -77 -96 -138 -202 -138z" />
    <glyph glyph-name="four.num" horiz-adv-x="412" 
d="M15 368v23l249 279l30 -2v-249h99v-51h-99v-92h-78v92h-201zM83 419h133v149z" />
    <glyph glyph-name="five.num" horiz-adv-x="399" 
d="M157 258c-71 0 -118 26 -118 69c0 26 25 42 51 44l50 -65c7 -4 18 -8 38 -8c69 0 104 33 104 80c0 58 -52 85 -110 85c-51 0 -83 -15 -98 -25h-11v227h267v-65h-225v-88c23 10 53 17 93 17c83 0 155 -37 155 -126c0 -93 -106 -145 -196 -145z" />
    <glyph glyph-name="six.num" horiz-adv-x="442" 
d="M223 258c-111 0 -174 70 -174 177c0 167 173 234 309 252l10 -33c-96 -25 -193 -61 -223 -159c24 18 59 36 110 36c80 0 143 -50 143 -124c0 -91 -89 -149 -175 -149zM233 296c53 0 80 38 80 93c0 58 -33 102 -91 102c-38 0 -66 -16 -85 -29c-1 -12 -2 -24 -2 -37
c0 -72 33 -129 98 -129z" />
    <glyph glyph-name="seven.num" horiz-adv-x="366" 
d="M65 276l216 320h-241v69h316v-12l-217 -377h-74z" />
    <glyph glyph-name="eight.num" horiz-adv-x="424" 
d="M207 258c-93 0 -163 40 -163 101c0 52 39 78 101 105v2c-52 24 -79 52 -79 96c0 67 62 115 158 115c92 0 139 -45 139 -93c0 -44 -44 -74 -88 -93v-2c75 -30 103 -54 103 -106c0 -71 -72 -125 -171 -125zM221 292c56 0 85 30 85 63s-19 49 -91 80l-40 17
c-40 -23 -52 -51 -52 -80c0 -51 41 -80 98 -80zM245 502c29 19 43 43 43 73c0 40 -26 69 -74 69c-49 0 -74 -28 -74 -57c0 -28 12 -45 78 -73z" />
    <glyph glyph-name="nine.num" horiz-adv-x="442" 
d="M219 677c111 0 174 -73 174 -180c0 -171 -170 -231 -319 -249l-10 33c106 25 205 57 234 159c-24 -18 -59 -36 -111 -36c-80 0 -143 50 -143 124c0 91 89 149 175 149zM209 639c-53 0 -80 -38 -80 -93c0 -58 32 -99 85 -99c43 0 72 12 91 26c1 11 2 22 2 34
c0 78 -33 132 -98 132z" />
    <glyph glyph-name="zero.den" horiz-adv-x="510" 
d="M265 22c73 -1 105 69 105 144c2 111 -50 196 -122 196c-78 0 -107 -83 -108 -146c-1 -95 42 -193 125 -194zM255 -18c-121 0 -206 93 -206 205c0 122 89 214 205 214c138 0 207 -107 207 -207c0 -120 -90 -212 -206 -212z" />
    <glyph glyph-name="one.den" horiz-adv-x="353" 
d="M229 391v-347l100 -10v-34h-288v34l104 11v271h-110v30l188 45h6z" />
    <glyph glyph-name="two.den" horiz-adv-x="383" 
d="M29 0v32l45 38c119 100 170 139 170 195c0 39 -33 73 -78 73c-48 0 -78 -24 -110 -59l-25 24c40 54 86 98 164 98c73 0 128 -40 129 -112c1 -73 -61 -114 -163 -196l-36 -29h224v-64h-320z" />
    <glyph glyph-name="three.den" horiz-adv-x="396" 
d="M163 -18c-87 0 -127 35 -127 70c0 25 19 41 48 45l49 -68c13 -4 27 -7 54 -7c49 0 94 23 94 75c0 51 -49 86 -149 81v33l17 5c82 24 106 55 106 88c0 27 -24 44 -59 44c-58 0 -90 -26 -125 -58l-23 23c52 58 103 88 175 88c69 0 118 -31 118 -79c0 -43 -52 -80 -104 -99
v-3c92 -10 128 -56 128 -100c0 -77 -96 -138 -202 -138z" />
    <glyph glyph-name="four.den" horiz-adv-x="412" 
d="M15 92v23l249 279l30 -2v-249h99v-51h-99v-92h-78v92h-201zM83 143h133v149z" />
    <glyph glyph-name="five.den" horiz-adv-x="399" 
d="M157 -18c-71 0 -118 26 -118 69c0 26 25 42 51 44l50 -65c7 -4 18 -8 38 -8c69 0 104 33 104 80c0 58 -52 85 -110 85c-51 0 -83 -15 -98 -25h-11v227h267v-65h-225v-88c23 10 53 17 93 17c83 0 155 -37 155 -126c0 -93 -106 -145 -196 -145z" />
    <glyph glyph-name="six.den" horiz-adv-x="442" 
d="M223 -18c-111 0 -174 70 -174 177c0 167 173 234 309 252l10 -33c-96 -25 -193 -61 -223 -159c24 18 59 36 110 36c80 0 143 -50 143 -124c0 -91 -89 -149 -175 -149zM233 20c53 0 80 38 80 93c0 58 -33 102 -91 102c-38 0 -66 -16 -85 -29c-1 -12 -2 -24 -2 -37
c0 -72 33 -129 98 -129z" />
    <glyph glyph-name="seven.den" horiz-adv-x="396" 
d="M95 0l216 320h-241v69h316v-12l-217 -377h-74z" />
    <glyph glyph-name="eight.den" horiz-adv-x="424" 
d="M207 -18c-93 0 -163 40 -163 101c0 52 39 78 101 105v2c-52 24 -79 52 -79 96c0 67 62 115 158 115c92 0 139 -45 139 -93c0 -44 -44 -74 -88 -93v-2c75 -30 103 -54 103 -106c0 -71 -72 -125 -171 -125zM221 16c56 0 85 30 85 63s-19 49 -91 80l-40 17
c-40 -23 -52 -51 -52 -80c0 -51 41 -80 98 -80zM245 226c29 19 43 43 43 73c0 40 -26 69 -74 69c-49 0 -74 -28 -74 -57c0 -28 12 -45 78 -73z" />
    <glyph glyph-name="nine.den" horiz-adv-x="442" 
d="M219 401c111 0 174 -73 174 -180c0 -171 -170 -231 -319 -249l-10 33c106 25 205 57 234 159c-24 -18 -59 -36 -111 -36c-80 0 -143 50 -143 124c0 91 89 149 175 149zM209 363c-53 0 -80 -38 -80 -93c0 -58 32 -99 85 -99c43 0 72 12 91 26c1 11 2 22 2 34
c0 78 -33 132 -98 132z" />
    <glyph glyph-name="zero.sub" horiz-adv-x="510" 
d="M265 -108c73 -1 105 69 105 144c2 111 -50 196 -122 196c-78 0 -107 -83 -108 -146c-1 -95 42 -193 125 -194zM255 -148c-121 0 -206 93 -206 205c0 122 89 214 205 214c138 0 207 -107 207 -207c0 -120 -90 -212 -206 -212z" />
    <glyph glyph-name="one.sub" horiz-adv-x="353" 
d="M229 261v-347l100 -10v-34h-288v34l104 11v271h-110v30l188 45h6z" />
    <glyph glyph-name="two.sub" horiz-adv-x="383" 
d="M29 -130v32l45 38c119 100 170 139 170 195c0 39 -33 73 -78 73c-48 0 -78 -24 -110 -59l-25 24c40 54 86 98 164 98c73 0 128 -40 129 -112c1 -73 -61 -114 -163 -196l-36 -29h224v-64h-320z" />
    <glyph glyph-name="three.sub" horiz-adv-x="396" 
d="M163 -148c-87 0 -127 35 -127 70c0 25 19 41 48 45l49 -68c13 -4 27 -7 54 -7c49 0 94 23 94 75c0 51 -49 86 -149 81v33l17 5c82 24 106 55 106 88c0 27 -24 44 -59 44c-58 0 -90 -26 -125 -58l-23 23c52 58 103 88 175 88c69 0 118 -31 118 -79c0 -43 -52 -80 -104 -99
v-3c92 -10 128 -56 128 -100c0 -77 -96 -138 -202 -138z" />
    <glyph glyph-name="four.sub" horiz-adv-x="412" 
d="M15 -38v23l249 279l30 -2v-249h99v-51h-99v-92h-78v92h-201zM83 13h133v149z" />
    <glyph glyph-name="five.sub" horiz-adv-x="399" 
d="M157 -148c-71 0 -118 26 -118 69c0 26 25 42 51 44l50 -65c7 -4 18 -8 38 -8c69 0 104 33 104 80c0 58 -52 85 -110 85c-51 0 -83 -15 -98 -25h-11v227h267v-65h-225v-88c23 10 53 17 93 17c83 0 155 -37 155 -126c0 -93 -106 -145 -196 -145z" />
    <glyph glyph-name="six.sub" horiz-adv-x="442" 
d="M223 -148c-111 0 -174 70 -174 177c0 167 173 234 309 252l10 -33c-96 -25 -193 -61 -223 -159c24 18 59 36 110 36c80 0 143 -50 143 -124c0 -91 -89 -149 -175 -149zM233 -110c53 0 80 38 80 93c0 58 -33 102 -91 102c-38 0 -66 -16 -85 -29c-1 -12 -2 -24 -2 -37
c0 -72 33 -129 98 -129z" />
    <glyph glyph-name="seven.sub" horiz-adv-x="396" 
d="M95 -130l216 320h-241v69h316v-12l-217 -377h-74z" />
    <glyph glyph-name="eight.sub" horiz-adv-x="424" 
d="M207 -148c-93 0 -163 40 -163 101c0 52 39 78 101 105v2c-52 24 -79 52 -79 96c0 67 62 115 158 115c92 0 139 -45 139 -93c0 -44 -44 -74 -88 -93v-2c75 -30 103 -54 103 -106c0 -71 -72 -125 -171 -125zM221 -114c56 0 85 30 85 63s-19 49 -91 80l-40 17
c-40 -23 -52 -51 -52 -80c0 -51 41 -80 98 -80zM245 96c29 19 43 43 43 73c0 40 -26 69 -74 69c-49 0 -74 -28 -74 -57c0 -28 12 -45 78 -73z" />
    <glyph glyph-name="nine.sub" horiz-adv-x="442" 
d="M219 271c111 0 174 -73 174 -180c0 -171 -170 -231 -319 -249l-10 33c106 25 205 58 234 159c-24 -18 -59 -36 -111 -36c-80 0 -143 50 -143 124c0 91 89 149 175 149zM209 233c-53 0 -80 -38 -80 -93c0 -58 32 -99 85 -99c43 0 72 12 91 26c1 11 2 22 2 34
c0 78 -33 132 -98 132z" />
    <glyph glyph-name="plus.sub" horiz-adv-x="442" 
d="M192 -107v153h-151v54h151v153h58v-153h151v-54h-151v-153h-58z" />
    <glyph glyph-name="minus.sub" horiz-adv-x="442" 
d="M401 46h-360v54h360v-54z" />
    <glyph glyph-name="zero.sup" horiz-adv-x="510" 
d="M265 332c73 -1 105 69 105 144c2 111 -50 196 -122 196c-78 0 -107 -83 -108 -146c-1 -95 42 -193 125 -194zM255 292c-121 0 -206 93 -206 205c0 122 89 214 205 214c138 0 207 -107 207 -207c0 -120 -90 -212 -206 -212z" />
    <glyph glyph-name="one.sup" horiz-adv-x="353" 
d="M229 701v-347l100 -10v-34h-288v34l104 11v271h-110v30l188 45h6z" />
    <glyph glyph-name="two.sup" horiz-adv-x="383" 
d="M29 310v32l45 38c119 100 170 139 170 195c0 39 -33 73 -78 73c-48 0 -78 -24 -110 -59l-25 24c40 54 86 98 164 98c73 0 128 -40 129 -112c1 -73 -61 -114 -163 -196l-36 -29h224v-64h-320z" />
    <glyph glyph-name="three.sup" horiz-adv-x="396" 
d="M163 292c-87 0 -127 35 -127 70c0 25 19 41 48 45l49 -68c13 -4 27 -7 54 -7c49 0 94 23 94 75c0 51 -49 86 -149 81v33l17 5c82 24 106 55 106 88c0 27 -24 44 -59 44c-58 0 -90 -26 -125 -58l-23 23c52 58 103 88 175 88c69 0 118 -31 118 -79c0 -43 -52 -80 -104 -99
v-3c92 -10 128 -56 128 -100c0 -77 -96 -138 -202 -138z" />
    <glyph glyph-name="four.sup" horiz-adv-x="412" 
d="M15 402v23l249 279l30 -2v-249h99v-51h-99v-92h-78v92h-201zM83 453h133v149z" />
    <glyph glyph-name="five.sup" horiz-adv-x="399" 
d="M157 292c-71 0 -118 26 -118 69c0 26 25 42 51 44l50 -65c7 -4 18 -8 38 -8c69 0 104 33 104 80c0 58 -52 85 -110 85c-51 0 -83 -15 -98 -25h-11v227h267v-65h-225v-88c23 10 53 17 93 17c83 0 155 -37 155 -126c0 -93 -106 -145 -196 -145z" />
    <glyph glyph-name="six.sup" horiz-adv-x="442" 
d="M223 292c-111 0 -174 70 -174 177c0 167 173 234 309 252l10 -33c-96 -25 -193 -61 -223 -159c24 18 59 36 110 36c80 0 143 -50 143 -124c0 -91 -89 -149 -175 -149zM233 330c53 0 80 38 80 93c0 58 -33 102 -91 102c-38 0 -66 -16 -85 -29c-1 -12 -2 -24 -2 -37
c0 -72 33 -129 98 -129z" />
    <glyph glyph-name="seven.sup" horiz-adv-x="366" 
d="M65 310l216 320h-241v69h316v-12l-217 -377h-74z" />
    <glyph glyph-name="eight.sup" horiz-adv-x="424" 
d="M207 292c-93 0 -163 40 -163 101c0 52 39 78 101 105v2c-52 24 -79 52 -79 96c0 67 62 115 158 115c92 0 139 -45 139 -93c0 -44 -44 -74 -88 -93v-2c75 -30 103 -54 103 -106c0 -71 -72 -125 -171 -125zM221 326c56 0 85 30 85 63s-19 49 -91 80l-40 17
c-40 -23 -52 -51 -52 -80c0 -51 41 -80 98 -80zM245 536c29 19 43 43 43 73c0 40 -26 69 -74 69c-49 0 -74 -28 -74 -57c0 -28 12 -45 78 -73z" />
    <glyph glyph-name="nine.sup" horiz-adv-x="442" 
d="M219 711c111 0 174 -73 174 -180c0 -171 -170 -231 -319 -249l-10 33c106 25 205 57 234 159c-24 -18 -59 -36 -111 -36c-80 0 -143 50 -143 124c0 91 89 149 175 149zM209 673c-53 0 -80 -38 -80 -93c0 -58 32 -99 85 -99c43 0 72 12 91 26c1 11 2 22 2 34
c0 78 -33 132 -98 132z" />
    <glyph glyph-name="plus.sup" horiz-adv-x="442" 
d="M192 333v153h-151v54h151v153h58v-153h151v-54h-151v-153h-58z" />
    <glyph glyph-name="minus.sup" horiz-adv-x="442" 
d="M401 486h-360v54h360v-54z" />
    <glyph glyph-name="a.ord" horiz-adv-x="427" 
d="M146 244c-44 0 -98 31 -98 93c0 63 47 90 129 110l84 22v36c-1 57 -32 91 -75 91c-23 0 -43 -9 -49 -13l-3 -77c-2 -2 -21 -5 -35 -5c-26 0 -39 13 -39 36c0 38 72 94 157 94c84 0 119 -38 119 -118v-199c0 -18 5 -23 27 -23h39v-24s-48 -21 -79 -21c-43 0 -59 27 -60 62
h-5c-41 -38 -61 -64 -112 -64zM188 301c39 0 63 24 73 36v104l-73 -22c-38 -13 -62 -28 -62 -59c0 -39 31 -59 62 -59z" />
    <glyph glyph-name="b.ord" horiz-adv-x="462" 
d="M207 243c-45 0 -79 8 -99 17l-29 11v480l-51 14v28l125 26v-246c15 21 54 58 118 58c75 0 153 -50 153 -175c0 -122 -106 -213 -217 -213zM233 576c-37 0 -67 -21 -80 -32v-236s34 -29 80 -29c58 0 116 52 116 152c0 89 -48 145 -116 145z" />
    <glyph glyph-name="c.ord" horiz-adv-x="398" 
d="M211 243c-93 0 -173 66 -173 182c0 127 104 207 203 207c67 0 117 -37 117 -81c0 -26 -15 -46 -44 -46c-15 0 -29 3 -29 3l-12 77c-2 1 -16 11 -46 11c-66 0 -114 -61 -114 -135c0 -90 58 -156 138 -156c57 0 93 46 93 46l16 -13c-4 -13 -40 -95 -149 -95z" />
    <glyph glyph-name="d.ord" horiz-adv-x="481" 
d="M234 772v27l148 20v-515l65 -15v-28l-112 -16l-20 53c-30 -29 -63 -55 -115 -55c-110 0 -162 85 -162 177c0 128 88 211 203 211c29 0 51 -4 67 -8v135zM244 301c26 0 48 8 64 17v228c-6 12 -36 49 -86 49c-60 0 -110 -47 -110 -134c0 -83 33 -160 132 -160z" />
    <glyph glyph-name="e.ord" horiz-adv-x="425" 
d="M216 243c-134 0 -178 109 -178 181c0 121 81 208 192 208c92 0 143 -65 144 -170h-266c1 -98 58 -154 141 -154c67 0 111 54 111 54l16 -12c-3 -10 -42 -107 -160 -107zM212 594c-50 0 -90 -41 -101 -98h178c-1 51 -25 98 -77 98z" />
    <glyph glyph-name="f.ord" horiz-adv-x="299" 
d="M35 255v29l51 15v281h-57v34l56 15v3c0 107 82 192 174 192c65 0 104 -38 104 -74c0 -23 -15 -43 -43 -43c-11 0 -20 4 -20 4l-20 68c-1 1 -15 8 -36 8c-45 0 -84 -30 -84 -113v-53h108v-43h-108v-279l72 -16v-28h-197z" />
    <glyph glyph-name="g.ord" horiz-adv-x="438" 
d="M414 573l-92 5l-1 -2c20 -16 41 -42 41 -83c0 -81 -79 -135 -162 -135c-20 0 -39 3 -57 9c-18 -12 -29 -26 -29 -37c0 -13 11 -22 31 -23l150 -7c81 -5 116 -41 116 -90c0 -64 -97 -140 -237 -140c-79 0 -147 33 -147 89c0 27 23 57 61 75l18 8v4l-57 48
c15 36 34 60 65 85c-39 22 -66 60 -66 113c0 82 70 139 157 139c37 0 63 -8 96 -20l113 13v-51zM211 394c42 1 74 38 73 95c-1 74 -38 111 -85 109c-47 0 -74 -36 -73 -92c1 -70 34 -114 85 -112zM289 229l-155 9c-12 -11 -30 -33 -30 -55c0 -31 28 -67 111 -67
c96 0 136 41 136 73c0 24 -18 38 -62 40z" />
    <glyph glyph-name="h.ord" horiz-adv-x="479" 
d="M277 255v30l46 14v191c-3 54 -21 84 -74 84c-45 0 -84 -28 -93 -37v-238l52 -15v-29h-178v29l51 16v455l-54 19v25l129 20v-256c16 19 65 69 130 69c75 0 111 -33 111 -129v-204l52 -15v-29h-172z" />
    <glyph glyph-name="i.ord" horiz-adv-x="251" 
d="M37 255v30l53 15v261l-47 15v30l120 26v-333l59 -14v-30h-185zM122 723c-28 0 -52 24 -52 52c0 27 24 51 52 51s52 -24 52 -51c0 -28 -24 -52 -52 -52z" />
    <glyph glyph-name="j.ord" horiz-adv-x="219" 
d="M9 78l-5 26c52 18 75 74 75 191v262l-48 19v30l121 26v-334c0 -57 -8 -104 -27 -140c-26 -52 -73 -75 -116 -80zM110 723c-28 0 -51 24 -51 52c0 27 24 51 51 51c29 0 53 -24 53 -51c0 -28 -24 -52 -53 -52z" />
    <glyph glyph-name="k.ord" horiz-adv-x="446" 
d="M83 300v451l-53 19v24l128 25v-520l52 -15v-29h-177v29zM382 242c-27 -1 -52 14 -85 55l-135 172v3l35 11l105 95l-51 16v27h168v-25l-55 -14l-125 -103l188 -217s-12 -19 -45 -20z" />
    <glyph glyph-name="l.ord" horiz-adv-x="248" 
d="M33 255v29l50 15v443l-51 14v28l126 26v-511l54 -15v-29h-179z" />
    <glyph glyph-name="m.ord" horiz-adv-x="724" 
d="M523 255v30l46 14v192c-3 53 -20 83 -73 83c-44 0 -80 -26 -94 -38v-237l51 -15v-29h-171v30l45 14v192c-2 53 -19 83 -73 83c-46 0 -87 -32 -94 -39v-236l52 -15v-29h-177v30l51 14v258l-54 12v25l105 38h4l15 -73h3c14 17 63 73 132 73c68 0 95 -25 103 -74h5
c15 19 65 74 134 74c71 0 110 -28 110 -127v-206l52 -15v-29h-172z" />
    <glyph glyph-name="n.ord" horiz-adv-x="483" 
d="M35 255v29l51 15v258l-54 12v25l105 38h4l15 -73h3c14 18 64 73 133 73c74 0 110 -33 110 -129v-204l52 -15v-29h-172v30l45 14v191c-2 54 -20 84 -73 84c-47 0 -87 -32 -94 -40v-235l52 -15v-29h-177z" />
    <glyph glyph-name="o.ord" horiz-adv-x="454" 
d="M118 452c1 -86 37 -174 119 -172c63 1 100 64 99 145c-1 108 -49 172 -119 171c-64 -1 -100 -63 -99 -144zM227 242c-123 0 -189 88 -189 189c0 112 83 202 189 202c115 0 189 -71 189 -188c0 -113 -82 -203 -189 -203z" />
    <glyph glyph-name="p.ord" horiz-adv-x="454" 
d="M23 85v30l51 15v427l-54 12v25l104 38h4l14 -68h1c19 24 57 67 121 67c80 0 152 -50 152 -175c0 -122 -106 -213 -216 -213c-19 0 -36 3 -52 7v-119l75 -18v-28h-200zM225 575c-35 0 -62 -17 -77 -28v-240c8 -9 33 -27 77 -27c57 0 116 51 116 150c0 88 -47 145 -116 145
z" />
    <glyph glyph-name="q.ord" horiz-adv-x="451" 
d="M228 85v28l80 19v153c-27 -23 -63 -42 -102 -42c-105 0 -168 82 -168 187c0 124 102 201 201 201c54 0 85 -17 95 -26l41 28h7v-503l51 -15v-30h-205zM250 298c23 0 42 7 58 15v246c-13 14 -41 35 -81 35c-70 0 -111 -60 -111 -138c0 -77 38 -158 134 -158z" />
    <glyph glyph-name="r.ord" horiz-adv-x="327" 
d="M35 255v29l51 16v257l-54 10v27l113 38h5l6 -92h2l23 27c37 47 58 66 86 66c27 0 42 -18 42 -45c0 -25 -15 -44 -28 -57l-65 26c-16 -11 -34 -24 -56 -47v-213l71 -12v-30h-196z" />
    <glyph glyph-name="s.ord" horiz-adv-x="360" 
d="M167 240c-43 0 -79 14 -109 31l-12 112h26l43 -84c16 -15 32 -25 63 -25c43 0 70 22 70 55c0 28 -17 50 -76 75l-34 15c-56 25 -82 54 -82 103c0 62 65 111 140 111c31 0 66 -9 98 -27l5 -95h-25l-31 66c-12 11 -29 22 -57 22c-38 0 -60 -22 -60 -51c0 -28 16 -46 64 -66
l36 -16c71 -31 95 -63 95 -107c0 -66 -74 -119 -154 -119z" />
    <glyph glyph-name="t.ord" horiz-adv-x="288" 
d="M159 246c-64 0 -83 36 -82 87l2 247h-56v34l58 15l41 95h28v-103h107v-44h-105v-213c0 -59 24 -64 54 -64c25 0 58 5 58 5l5 -24s-47 -35 -110 -35z" />
    <glyph glyph-name="u.ord" horiz-adv-x="471" 
d="M343 243l-25 65c-12 -14 -62 -66 -133 -66c-70 0 -109 45 -109 134v194l-55 14v31l130 14v-239c2 -61 29 -90 82 -90c44 0 76 28 82 34v236l-64 13v31l139 13v-323l63 -14v-29z" />
    <glyph glyph-name="v.ord" horiz-adv-x="427" 
d="M235 243h-48l-140 337l-37 13v28h177v-28l-59 -13l91 -236c3 -7 7 -19 7 -19h2s4 12 7 19l95 231l-56 18v28h139v-28l-37 -13z" />
    <glyph glyph-name="w.ord" horiz-adv-x="622" 
d="M348 626l93 -270c5 -12 8 -24 8 -24h2s3 12 7 24l69 217l-59 20v28h142v-28l-38 -13l-110 -336h-53l-89 237c-4 12 -8 27 -8 27h-1l-9 -27l-87 -237h-57l-108 336l-38 13v28h178v-28l-59 -13l65 -224c4 -12 7 -25 7 -25h2s3 13 8 25l94 270h41z" />
    <glyph glyph-name="x.ord" horiz-adv-x="438" 
d="M420 255h-188v29l45 14l-75 111h-2l-81 -110l44 -15v-29h-144v29l49 14l112 143l-101 140l-47 12v28h182v-28l-45 -8l65 -100h1l75 99l-42 9v28h134v-28l-45 -9l-102 -129l113 -157l52 -14v-29z" />
    <glyph glyph-name="y.ord" horiz-adv-x="424" 
d="M333 575l-55 18v28h136v-28l-37 -14l-170 -407c-28 -68 -48 -98 -92 -98c-29 0 -50 20 -50 46c0 30 21 45 44 45c20 0 31 -12 41 -31h1l39 85l-143 361l-37 13v28h179v-28l-58 -13l97 -260h5z" />
    <glyph glyph-name="z.ord" horiz-adv-x="390" 
d="M278 255h-245v29l217 301h-138l-37 -84h-26l1 125l61 -5h244v-14l-228 -315h151l46 92h27l-12 -132z" />
    <glyph glyph-name="egrave.ord" horiz-adv-x="425" 
d="M216 243c-134 0 -178 109 -178 181c0 121 81 208 192 208c92 0 143 -65 144 -170h-266c1 -98 58 -154 141 -154c67 0 111 54 111 54l16 -12c-3 -10 -42 -107 -160 -107zM212 594c-50 0 -90 -41 -101 -98h178c-1 51 -25 98 -77 98zM126 837h63l50 -156h-34l-79 142v14z
" />
    <glyph glyph-name="uacute.ord" horiz-adv-x="471" 
d="M343 243l-25 65c-12 -14 -62 -66 -133 -66c-70 0 -109 45 -109 134v194l-55 14v31l130 14v-239c2 -61 29 -90 82 -90c44 0 76 28 82 34v236l-64 13v31l139 13v-323l63 -14v-29zM257 837h64v-14l-79 -142h-33z" />
    <glyph glyph-name="second" unicode="&#x2033;" horiz-adv-x="466" 
d="M83 502l39 244h90v-8l-95 -236h-34zM262 502l39 244h90v-8l-95 -236h-34z" />
    <glyph glyph-name="minute" unicode="&#x2032;" horiz-adv-x="287" 
d="M83 502l39 244h90v-8l-95 -236h-34z" />
    <glyph glyph-name="bullet.alt" horiz-adv-x="333" 
d="M23 577c0 36 29 53 54 53c46 0 64 -35 90 -71h14c42 43 53 59 88 59c32 0 52 -27 52 -58c0 -35 -26 -62 -59 -62c-31 0 -50 23 -81 45h-6c-6 -10 -12 -23 -12 -40c0 -32 21 -49 60 -71c37 -21 65 -50 65 -87c0 -33 -23 -59 -66 -59c-5 -7 -16 -23 -42 -23
c-22 0 -37 10 -55 37c-18 25 -29 56 -57 56c-29 0 -41 -22 -40 -40h-12c-4 5 -6 14 -6 27c0 34 28 56 62 56c59 0 70 -64 102 -64c20 0 27 12 27 26c0 43 -75 57 -75 123c0 20 10 41 21 63l-5 1c-29 -12 -50 -21 -66 -21c-33 0 -53 20 -53 50zM180 728c27 0 54 -20 54 -45
c0 -32 -40 -71 -49 -81h-18c-6 10 -40 49 -40 77c0 26 22 49 53 49z" />
    <glyph glyph-name="Q.short" horiz-adv-x="786" 
d="M392 681c237 0 340 -172 340 -340c0 -202 -120 -337 -287 -360c92 -72 165 -127 245 -127c41 0 62 8 100 28l15 -23c-37 -26 -79 -60 -164 -60c-111 0 -201 70 -341 190c-146 37 -246 164 -246 334c0 222 145 358 338 358zM384 639c-161 0 -227 -156 -227 -288
c0 -151 80 -334 247 -334c156 0 225 161 225 295c0 171 -103 327 -245 327z" />
    <glyph glyph-name="f.short" horiz-adv-x="343" 
d="M33 0v34l63 21v365h-72v41l71 20v37c0 139 96 228 186 228c50 0 92 -30 92 -72c0 -32 -27 -48 -57 -48h-11l-34 77c-1 1 -6 3 -14 3c-29 0 -81 -32 -79 -127l2 -109h137v-51h-136v-364l90 -24v-31h-238z" />
    <glyph glyph-name="f_f.short" horiz-adv-x="628" 
d="M324 0v34l57 21v368h-200v-368l57 -21v-34h-205v34l63 21v365h-72v41l73 20c3 133 123 238 238 238c47 0 83 -17 105 -39c35 44 81 66 125 66c52 0 93 -30 93 -72c0 -32 -27 -48 -57 -48h-11l-34 77c-1 1 -5 3 -14 3c-29 0 -81 -30 -79 -127l2 -109h137v-47h-136v-368
l90 -24v-31h-232zM181 475v-5h200v7c0 43 5 81 15 114l-24 66c-11 7 -29 19 -60 19c-62 0 -131 -39 -131 -201z" />
    <glyph glyph-name="i.ger" horiz-adv-x="279" 
d="M31 0v34l67 22v342l-59 21v35l142 29v-428l75 -21v-34h-225zM133 601c-33 0 -62 28 -62 61s29 61 62 61c32 0 61 -28 61 -61s-29 -61 -61 -61z" />
    <glyph glyph-name="j.ger" horiz-adv-x="261" 
d="M2 -251l-5 29c67 22 94 100 94 248v366l-59 27v35l143 29v-457c0 -66 -9 -126 -32 -173c-28 -58 -82 -96 -141 -104zM127 601c-33 0 -62 28 -62 61s29 61 62 61c32 0 61 -28 61 -61s-29 -61 -61 -61z" />
    <glyph glyph-name="questiondown.uc" horiz-adv-x="406" 
d="M314 86v-104l-29 5c-98 17 -235 112 -235 243c0 60 31 102 98 127l82 30l1 97h45l18 -163l-116 -41c-57 -20 -76 -42 -76 -75c0 -55 81 -103 188 -116zM254 684c33 0 62 -29 62 -63s-29 -62 -62 -62c-35 0 -63 28 -63 62s28 63 63 63z" />
    <glyph glyph-name="exclamdown.uc" horiz-adv-x="285" 
d="M191 -18h-97l25 502h47zM143 684c33 0 62 -29 62 -63s-29 -62 -62 -62c-35 0 -63 28 -63 62s28 63 63 63z" />
    <glyph glyph-name="hyphen.uc" horiz-adv-x="343" 
d="M39 270v77h265v-77h-265z" />
    <glyph glyph-name="endash.uc" horiz-adv-x="408" 
d="M4 322v51h400v-51h-400z" />
    <glyph glyph-name="emdash.uc" horiz-adv-x="808" 
d="M4 322v51h800v-51h-800z" />
    <glyph glyph-name="guilsinglleft.uc" horiz-adv-x="390" 
d="M272 501l28 -25l-140 -206l139 -196l-27 -26l-202 214v17z" />
    <glyph glyph-name="guilsinglright.uc" horiz-adv-x="390" 
d="M118 48l-28 25l139 206l-138 196l27 26l202 -214v-17z" />
    <glyph glyph-name="guillemotleft.uc" horiz-adv-x="609" 
d="M272 501l28 -25l-140 -206l139 -196l-27 -26l-202 214v17zM491 501l28 -25l-140 -206l139 -196l-27 -26l-202 214v17z" />
    <glyph glyph-name="guillemotright.uc" horiz-adv-x="608" 
d="M118 48l-28 25l139 206l-138 196l27 26l202 -214v-17zM336 48l-28 25l139 206l-138 196l27 26l202 -214v-17z" />
    <glyph glyph-name="parenleft.uc" horiz-adv-x="343" 
d="M337 -140h-55c-117 124 -191 278 -191 453c0 179 78 335 196 459h54c-110 -141 -165 -268 -165 -459c0 -182 52 -312 161 -453z" />
    <glyph glyph-name="parenright.uc" horiz-adv-x="343" 
d="M5 772h55c117 -124 191 -278 191 -453c0 -179 -78 -335 -196 -459h-54c110 141 165 268 165 459c0 182 -52 312 -161 453z" />
    <glyph glyph-name="bracketleft.uc" horiz-adv-x="355" 
d="M310 -141h-182v914h182v-39h-100v-836h100v-39z" />
    <glyph glyph-name="bracketright.uc" horiz-adv-x="355" 
d="M45 773h182v-914h-182v39h100v836h-100v39z" />
    <glyph glyph-name="braceleft.uc" horiz-adv-x="355" 
d="M145 317v-2c56 -22 81 -49 85 -115l10 -176c6 -113 26 -133 100 -133v-32h-15c-141 0 -174 62 -173 175l1 174c0 52 -27 83 -70 84l-38 1v46l38 1c43 1 70 32 70 84l-1 174c-1 113 32 175 173 175h15v-32c-74 0 -94 -20 -100 -133l-10 -176c-4 -66 -29 -93 -85 -115z" />
    <glyph glyph-name="braceright.uc" horiz-adv-x="355" 
d="M210 315v2c-56 22 -81 49 -85 115l-10 176c-6 113 -26 133 -100 133v32h15c141 0 174 -62 173 -175l-1 -174c0 -52 27 -83 70 -84l38 -1v-46l-38 -1c-43 -1 -70 -32 -70 -84l1 -174c1 -113 -32 -175 -173 -175h-15v32c74 0 94 20 100 133l10 176c4 66 29 93 85 115z" />
    <glyph glyph-name="slash.uc" horiz-adv-x="504" 
d="M74 -163l-48 21l403 925l48 -21z" />
    <glyph glyph-name="backslash.uc" horiz-adv-x="504" 
d="M477 -142l-48 -21l-403 925l48 21z" />
    <glyph glyph-name="bar.uc" horiz-adv-x="248" 
d="M153 -161l-58 -1v935h58v-934z" />
    <glyph glyph-name="at.uc" horiz-adv-x="956" 
d="M535 220l13 41h-6l-23 -34c-38 -56 -96 -149 -170 -149c-56 0 -82 38 -83 87c-3 178 190 366 309 366c32 0 57 -12 71 -24l9 36h59l-97 -320c-25 -81 -5 -109 27 -109c71 0 196 109 196 280c0 166 -126 295 -303 295c-213 0 -389 -184 -389 -428
c0 -211 144 -327 338 -327c77 0 118 12 143 18v-25s-87 -33 -190 -33c-228 0 -369 149 -369 348c0 275 247 484 485 484c225 0 346 -154 346 -321c0 -191 -157 -327 -281 -327c-72 0 -115 45 -85 142zM392 147c55 0 187 210 207 274l11 35c-17 21 -38 36 -64 36
c-84 0 -186 -170 -186 -298c0 -26 10 -47 32 -47z" />
    <glyph glyph-name="A.sc" horiz-adv-x="621" 
d="M17 0v33l53 16l207 475l33 6l34 10l203 -493l61 -13v-34h-234v34l76 15l-51 127h-220l-49 -122l88 -20v-34h-201zM289 446l-90 -222h180l-89 222h-1z" />
    <glyph glyph-name="B.sc" horiz-adv-x="546" 
d="M42 0v34l71 19v418l-71 21v33l211 2c127 1 223 -35 223 -118c0 -80 -84 -112 -160 -126v-2c103 2 195 -48 195 -130c0 -103 -105 -154 -241 -153zM290 254h-88v-193c14 -14 44 -30 96 -30c65 0 120 38 120 108c0 67 -57 107 -128 115zM202 494v-205c126 6 180 41 180 111
c0 59 -44 98 -180 94z" />
    <glyph glyph-name="C.sc" horiz-adv-x="617" 
d="M337 -23c-210 0 -287 143 -287 264c0 172 128 294 308 294c79 0 131 -25 177 -41l5 -146h-31l-54 111c-26 20 -58 35 -113 35c-107 0 -196 -74 -196 -236c0 -143 87 -237 219 -237c40 0 77 16 102 33l60 116h31l-13 -147c-69 -26 -125 -46 -208 -46z" />
    <glyph glyph-name="D.sc" horiz-adv-x="653" 
d="M202 489v-422c22 -21 56 -29 100 -28c139 3 208 109 208 209c0 197 -127 242 -308 241zM42 0v34l71 19v418l-71 21v33l232 2c198 2 329 -101 329 -250c0 -168 -123 -281 -358 -279z" />
    <glyph glyph-name="E.sc" horiz-adv-x="559" 
d="M328 247h-126v-203h215l73 117h34l-33 -161h-449v34l71 19v418l-71 21v33h375l74 4v-148h-32l-46 103h-211v-195h126l28 74h28v-182h-32z" />
    <glyph glyph-name="F.sc" horiz-adv-x="508" 
d="M316 242h-114v-192l87 -11v-39h-247v34l71 19v418l-71 21v33h355l75 4v-153h-30l-47 108h-193v-203h114l25 73h27v-183h-31z" />
    <glyph glyph-name="G.sc" horiz-adv-x="637" 
d="M345 -18c-209 0 -295 127 -295 265c0 158 132 293 325 293c60 0 124 -21 164 -41l4 -142h-32l-49 104c-22 17 -58 36 -105 36c-141 0 -212 -96 -212 -243c0 -141 102 -226 228 -226c32 0 65 10 85 20v141l-80 16v29h214v-31l-48 -12v-158l-28 -13
c-34 -16 -99 -38 -171 -38z" />
    <glyph glyph-name="H.sc" horiz-adv-x="681" 
d="M409 0v34l71 19v192h-278v-192l70 -19v-34h-230v34l71 19v418l-71 21v33h230v-33l-70 -21v-181h278v181l-71 21v33h230v-33l-71 -21v-418l71 -19v-34h-230z" />
    <glyph glyph-name="I.sc" horiz-adv-x="314" 
d="M42 0v34l71 19v418l-71 21v33h230v-33l-70 -21v-418l70 -19v-34h-230z" />
    <glyph glyph-name="J.sc" horiz-adv-x="316" 
d="M209 471v-390c0 -153 -40 -243 -229 -270l-7 30c116 21 148 115 148 226v404l-82 21v33h241v-33z" />
    <glyph glyph-name="K.sc" horiz-adv-x="606" 
d="M42 0v34l71 19v418l-71 21v33h230v-33l-70 -21v-418l70 -19v-34h-230zM448 0l-240 274v8l30 12l203 179l-63 20v32h191v-32l-69 -20l-197 -175l220 -250l68 -14v-34h-143z" />
    <glyph glyph-name="L.sc" horiz-adv-x="513" 
d="M202 44h181l78 140h31l-33 -184h-417v34l71 19v418l-71 21v33h246v-33l-86 -20v-428z" />
    <glyph glyph-name="M.sc" horiz-adv-x="793" 
d="M35 0v34l70 19l14 418l-74 21v33h172l184 -367l155 332l7 35h184v-33l-70 -21l8 -418l71 -19v-34h-236v35l77 18l-3 411l-185 -390l-17 -43h-31l-18 43l-179 352l-8 -370l95 -27v-29h-216z" />
    <glyph glyph-name="N.sc" horiz-adv-x="669" 
d="M562 1l-28 -10l-368 410v-340l90 -28v-33h-211v34l71 19v409l-74 30v33h134l333 -374v311l-91 31v32h211v-33l-70 -21v-387z" />
    <glyph glyph-name="O.sc" horiz-adv-x="643" 
d="M343 23c83 0 151 70 151 213c0 145 -76 265 -191 265c-99 0 -156 -84 -156 -209c0 -117 55 -269 196 -269zM322 540c159 0 271 -110 271 -274c0 -163 -112 -285 -271 -285c-160 0 -272 109 -272 272c0 164 112 287 272 287z" />
    <glyph glyph-name="P.sc" horiz-adv-x="521" 
d="M244 244c99 7 157 51 157 126c0 70 -63 121 -199 121v-438l105 -19v-34h-265v34l71 19v418l-71 21v33l192 1c172 1 261 -55 261 -146c0 -118 -133 -171 -251 -165v29z" />
    <glyph glyph-name="Q.sc" horiz-adv-x="643" 
d="M50 253c0 164 112 287 272 287c159 0 271 -110 271 -274c0 -125 -82 -240 -204 -271c91 -69 181 -136 272 -136c59 0 109 15 158 41l15 -17c-33 -28 -91 -83 -211 -83c-118 0 -228 93 -354 191c-131 21 -219 124 -219 262zM303 501c-99 0 -156 -84 -156 -209
c0 -117 55 -269 196 -269c83 0 151 70 151 213c0 145 -76 265 -191 265z" />
    <glyph glyph-name="R.sc" horiz-adv-x="587" 
d="M42 0v34l71 19v418l-71 21v33l201 2c153 1 247 -43 247 -137c0 -81 -84 -127 -139 -145v-2l152 -196l69 -13v-34h-146l-131 169c-31 38 -41 56 -41 56h-52v-172l70 -19v-34h-230zM202 491v-226h76c64 9 118 46 118 112c0 79 -72 116 -194 114z" />
    <glyph glyph-name="S.sc" horiz-adv-x="465" 
d="M52 22l-12 154h34l54 -121c24 -17 55 -30 103 -30c69 0 113 34 113 96c0 40 -21 72 -83 91l-86 27c-95 27 -124 77 -124 144c0 85 89 157 202 157c61 0 120 -17 148 -28l5 -144h-29l-46 101c-19 17 -48 31 -90 31c-65 0 -109 -36 -109 -86c0 -46 17 -69 81 -88l71 -23
c116 -35 143 -80 143 -144c0 -100 -94 -175 -212 -175c-59 0 -120 16 -163 38z" />
    <glyph glyph-name="T.sc" horiz-adv-x="566" 
d="M101 525h364l63 5l8 -158h-31l-53 112h-125v-431l79 -19v-34h-246v34l79 19v431h-124l-54 -112h-31l7 158z" />
    <glyph glyph-name="U.sc" horiz-adv-x="668" 
d="M335 -18c-154 0 -229 68 -229 228v261l-71 21v33h231v-33l-71 -20v-253c0 -136 59 -178 148 -178c101 0 165 47 165 182l-1 240l-87 30v32h213v-33l-71 -23l-2 -259c-1 -148 -92 -228 -225 -228z" />
    <glyph glyph-name="V.sc" horiz-adv-x="590" 
d="M275 -9l-210 484l-55 18v32h226v-32l-73 -19l152 -364l151 357l-92 25v33h206v-32l-57 -21l-207 -481h-41z" />
    <glyph glyph-name="W.sc" horiz-adv-x="864" 
d="M228 -7l-160 482l-55 18v32h225v-32l-76 -18l123 -383l123 325l-22 58l-63 18v32h242v-33l-84 -17l142 -382l118 373l-88 26v33h198v-32l-58 -22l-158 -478h-66l-137 361l-137 -361h-67z" />
    <glyph glyph-name="X.sc" horiz-adv-x="622" 
d="M213 475l120 -156h2l123 153l-82 20v33h212v-33l-64 -17l-164 -190l186 -237l56 -14v-34h-241v35l73 14l-140 180h-2l-142 -176l70 -19v-34h-202v35l64 14l183 214l-167 212l-59 17v33h245v-33z" />
    <glyph glyph-name="Y.sc" horiz-adv-x="550" 
d="M483 472l-164 -268v-151l79 -19v-34h-246v34l79 19v131l-165 291l-56 18v32h220v-31l-64 -18l126 -233h1l136 227l-81 23v32h192v-31z" />
    <glyph glyph-name="Z.sc" horiz-adv-x="552" 
d="M36 0v27l345 455h-234l-55 -122h-30l15 170l64 -5h377v-7l-359 -473h251l76 128h31l-34 -177l-67 4h-380z" />
    <glyph glyph-name="Oslash.sc" horiz-adv-x="643" 
d="M62 -33l67 86c-50 47 -79 117 -79 200c0 164 112 287 272 287c59 0 111 -16 154 -43l49 62h45l-65 -83c55 -48 88 -122 88 -210c0 -163 -112 -285 -271 -285c-64 0 -121 18 -165 49l-49 -63h-46zM343 23c83 0 151 70 151 213c0 65 -16 124 -43 171l-245 -314
c31 -42 76 -70 137 -70zM147 292c0 -55 11 -117 38 -167l245 313c-32 39 -76 63 -127 63c-99 0 -156 -84 -156 -209z" />
    <glyph glyph-name="AE.sc" horiz-adv-x="830" 
d="M602 241h-113v-197h199l73 117h34l-33 -161h-428v34l70 17v191h-161l-114 -188l86 -19v-35h-205v33l52 16l274 421l-89 23v32h440l75 4v-148h-32l-46 103h-195v-204h113l26 73h27v-182h-30zM404 483h-9l-128 -203h137v203z" />
    <glyph glyph-name="OE.sc" horiz-adv-x="882" 
d="M814 0h-282c-65 0 -110 -9 -180 -9c-190 0 -302 102 -302 263c0 166 130 278 316 278c71 0 98 -7 197 -7h173l78 4l-1 -148h-31l-46 103h-199l3 -196h114l26 73h25v-182h-28l-23 70h-114v-205h201l71 117h35zM456 119v343c-18 17 -63 33 -115 33
c-109 0 -196 -71 -196 -214c0 -130 64 -254 203 -254c83 0 108 37 108 92z" />
    <glyph glyph-name="Eth.sc" horiz-adv-x="653" 
d="M42 0v34l71 19v187h-90v39h90v192l-71 21v33l232 2c198 2 329 -101 329 -250c0 -168 -123 -281 -358 -279zM340 240h-138v-173c22 -21 56 -29 100 -28c139 3 208 109 208 209c0 197 -127 242 -308 241v-210h138v-39z" />
    <glyph glyph-name="Dcroat.sc" horiz-adv-x="653" 
d="M42 0v34l71 19v187h-90v39h90v192l-71 21v33l232 2c198 2 329 -101 329 -250c0 -168 -123 -281 -358 -279zM340 240h-138v-173c22 -21 56 -29 100 -28c139 3 208 109 208 209c0 197 -127 242 -308 241v-210h138v-39z" />
    <glyph glyph-name="Eng.sc" horiz-adv-x="669" 
d="M559 471v-390c0 -153 -40 -243 -229 -270l-7 30c123 19 165 97 173 192l-330 368v-340l90 -28v-33h-211v34l71 19v409l-74 30v33h134l333 -374v311l-91 31v32h211v-33z" />
    <glyph glyph-name="IJ.sc" horiz-adv-x="630" 
d="M42 0v34l71 19v418l-71 21v33h230v-33l-70 -21v-418l70 -19v-34h-230zM523 471v-390c0 -153 -40 -243 -229 -270l-7 30c116 21 148 115 148 226v404l-82 21v33h241v-33z" />
    <glyph glyph-name="uni0237.sc" horiz-adv-x="316" 
d="M209 471v-390c0 -153 -40 -243 -229 -270l-7 30c116 21 148 115 148 226v404l-82 21v33h241v-33z" />
    <glyph glyph-name="Aacute.sc" horiz-adv-x="621" 
d="M17 0v33l53 16l207 475l33 6l34 10l203 -493l61 -13v-34h-234v34l76 15l-51 127h-220l-49 -122l88 -20v-34h-201zM289 446l-90 -222h180l-89 222h-1zM349 796h80v-19l-99 -186h-41z" />
    <glyph glyph-name="Abreve.sc" horiz-adv-x="621" 
d="M17 0v33l53 16l207 475l33 6l34 10l203 -493l61 -13v-34h-234v34l76 15l-51 127h-220l-49 -122l88 -20v-34h-201zM289 446l-90 -222h180l-89 222h-1zM312 607c-84 0 -120 65 -124 162h36c8 -52 38 -101 97 -101c51 0 81 49 89 101h35c-4 -97 -36 -162 -133 -162z" />
    <glyph glyph-name="Acircumflex.sc" horiz-adv-x="621" 
d="M17 0v33l53 16l207 475l33 6l34 10l203 -493l61 -13v-34h-234v34l76 15l-51 127h-220l-49 -122l88 -20v-34h-201zM289 446l-90 -222h180l-89 222h-1zM235 591h-47l101 205h57l101 -205h-49l-83 131z" />
    <glyph glyph-name="Adieresis.sc" horiz-adv-x="621" 
d="M17 0v33l53 16l207 475l33 6l34 10l203 -493l61 -13v-34h-234v34l76 15l-51 127h-220l-49 -122l88 -20v-34h-201zM289 446l-90 -222h180l-89 222h-1zM217 646c-31 0 -56 25 -56 56s25 57 56 57s57 -26 57 -57s-26 -56 -57 -56zM414 646c-31 0 -57 25 -57 56s26 57 57 57
s57 -26 57 -57s-26 -56 -57 -56z" />
    <glyph glyph-name="Agrave.sc" horiz-adv-x="621" 
d="M17 0v33l53 16l207 475l33 6l34 10l203 -493l61 -13v-34h-234v34l76 15l-51 127h-220l-49 -122l88 -20v-34h-201zM289 446l-90 -222h180l-89 222h-1zM299 591l-100 186v19h80l61 -205h-41z" />
    <glyph glyph-name="Amacron.sc" horiz-adv-x="621" 
d="M17 0v33l53 16l207 475l33 6l34 10l203 -493l61 -13v-34h-234v34l76 15l-51 127h-220l-49 -122l88 -20v-34h-201zM289 446l-90 -222h180l-89 222h-1zM171 667v60h290v-60h-290z" />
    <glyph glyph-name="Aogonek.sc" horiz-adv-x="621" 
d="M17 0v33l53 16l207 475l33 6l34 10l203 -493l61 -13v-34h-116c-92 -53 -109 -102 -109 -130c0 -38 21 -61 55 -61c33 0 51 10 87 46l17 -17c-29 -45 -69 -97 -140 -97c-58 0 -93 38 -93 89c0 59 54 108 149 198l-59 148h-220l-49 -122l88 -20v-34h-201zM289 446l-90 -222
h180l-89 222h-1z" />
    <glyph glyph-name="Aring.sc" horiz-adv-x="621" 
d="M17 0v33l53 16l207 475l33 6l34 10l203 -493l61 -13v-34h-234v34l76 15l-51 127h-220l-49 -122l88 -20v-34h-201zM289 446l-90 -222h180l-89 222h-1zM199 724c0 65 52 114 117 114c66 0 117 -48 117 -114c0 -65 -52 -114 -117 -114c-66 0 -117 48 -117 114zM245 724
c0 -43 32 -73 71 -73s71 30 71 73s-32 73 -71 73s-71 -30 -71 -73z" />
    <glyph glyph-name="Aringacute.sc" horiz-adv-x="621" 
d="M17 0v33l53 16l207 475l33 6l34 10l203 -493l61 -13v-34h-234v34l76 15l-51 127h-220l-49 -122l88 -20v-34h-201zM289 446l-90 -222h180l-89 222h-1zM197 692c0 65 52 114 117 114c66 0 117 -48 117 -114c0 -65 -52 -114 -117 -114c-66 0 -117 48 -117 114zM243 692
c0 -43 32 -73 71 -73s71 30 71 73s-32 73 -71 73s-71 -30 -71 -73zM376 987h93v-20l-120 -119h-52z" />
    <glyph glyph-name="AEacute.sc" horiz-adv-x="830" 
d="M602 241h-113v-197h199l73 117h34l-33 -161h-428v34l70 17v191h-161l-114 -188l86 -19v-35h-205v33l52 16l274 421l-89 23v32h440l75 4v-148h-32l-46 103h-195v-204h113l26 73h27v-182h-30zM404 483h-9l-128 -203h137v203zM489 796h80v-19l-99 -186h-41z" />
    <glyph glyph-name="Atilde.sc" horiz-adv-x="621" 
d="M17 0v33l53 16l207 475l33 6l34 10l203 -493l61 -13v-34h-234v34l76 15l-51 127h-220l-49 -122l88 -20v-34h-201zM289 446l-90 -222h180l-89 222h-1zM329 645l-39 23c-64 38 -86 34 -114 -33l-30 13l5 13c39 97 91 118 154 83l48 -27c49 -28 73 -18 102 51l30 -13l-5 -13
c-40 -104 -88 -134 -151 -97z" />
    <glyph glyph-name="Cacute.sc" horiz-adv-x="617" 
d="M337 -23c-210 0 -287 143 -287 264c0 172 128 294 308 294c79 0 131 -25 177 -41l5 -146h-31l-54 111c-26 20 -58 35 -113 35c-107 0 -196 -74 -196 -236c0 -143 87 -237 219 -237c40 0 77 16 102 33l60 116h31l-13 -147c-69 -26 -125 -46 -208 -46zM375 796h80v-19
l-99 -186h-41z" />
    <glyph glyph-name="Ccaron.sc" horiz-adv-x="617" 
d="M337 -23c-210 0 -287 143 -287 264c0 172 128 294 308 294c79 0 131 -25 177 -41l5 -146h-31l-54 111c-26 20 -58 35 -113 35c-107 0 -196 -74 -196 -236c0 -143 87 -237 219 -237c40 0 77 16 102 33l60 116h31l-13 -147c-69 -26 -125 -46 -208 -46zM425 796h47
l-101 -205h-57l-101 205h49l82 -131z" />
    <glyph glyph-name="Ccedilla.sc" horiz-adv-x="617" 
d="M337 -23c-210 0 -287 143 -287 264c0 172 128 294 308 294c79 0 131 -25 177 -41l5 -146h-31l-54 111c-26 20 -58 35 -113 35c-107 0 -196 -74 -196 -236c0 -143 87 -237 219 -237c40 0 77 16 102 33l60 116h31l-13 -147c-56 -21 -104 -38 -164 -44l-25 -42
c41 -4 71 -29 71 -70c0 -82 -105 -113 -165 -124l-5 29c39 12 91 28 91 73c0 37 -37 52 -53 58l46 74h-4z" />
    <glyph glyph-name="Ccircumflex.sc" horiz-adv-x="617" 
d="M337 -23c-210 0 -287 143 -287 264c0 172 128 294 308 294c79 0 131 -25 177 -41l5 -146h-31l-54 111c-26 20 -58 35 -113 35c-107 0 -196 -74 -196 -236c0 -143 87 -237 219 -237c40 0 77 16 102 33l60 116h31l-13 -147c-69 -26 -125 -46 -208 -46zM261 591h-47l101 205
h57l101 -205h-49l-83 131z" />
    <glyph glyph-name="Cdotaccent.sc" horiz-adv-x="617" 
d="M337 -23c-210 0 -287 143 -287 264c0 172 128 294 308 294c79 0 131 -25 177 -41l5 -146h-31l-54 111c-26 20 -58 35 -113 35c-107 0 -196 -74 -196 -236c0 -143 87 -237 219 -237c40 0 77 16 102 33l60 116h31l-13 -147c-69 -26 -125 -46 -208 -46zM342 629
c-34 0 -62 28 -62 62s28 62 62 62s62 -28 62 -62s-28 -62 -62 -62z" />
    <glyph glyph-name="Dcaron.sc" horiz-adv-x="653" 
d="M202 489v-422c22 -21 56 -29 100 -28c139 3 208 109 208 209c0 197 -127 242 -308 241zM42 0v34l71 19v418l-71 21v33l232 2c198 2 329 -101 329 -250c0 -168 -123 -281 -358 -279zM379 796h47l-101 -205h-57l-101 205h49l82 -131z" />
    <glyph glyph-name="Eacute.sc" horiz-adv-x="559" 
d="M328 247h-126v-203h215l73 117h34l-33 -161h-449v34l71 19v418l-71 21v33h375l74 4v-148h-32l-46 103h-211v-195h126l28 74h28v-182h-32zM328 796h80v-19l-99 -186h-41z" />
    <glyph glyph-name="Ebreve.sc" horiz-adv-x="559" 
d="M328 247h-126v-203h215l73 117h34l-33 -161h-449v34l71 19v418l-71 21v33h375l74 4v-148h-32l-46 103h-211v-195h126l28 74h28v-182h-32zM291 607c-84 0 -120 65 -124 162h36c8 -52 38 -101 97 -101c51 0 81 49 89 101h35c-4 -97 -36 -162 -133 -162z" />
    <glyph glyph-name="Ecaron.sc" horiz-adv-x="559" 
d="M328 247h-126v-203h215l73 117h34l-33 -161h-449v34l71 19v418l-71 21v33h375l74 4v-148h-32l-46 103h-211v-195h126l28 74h28v-182h-32zM378 796h47l-101 -205h-57l-101 205h49l82 -131z" />
    <glyph glyph-name="Ecircumflex.sc" horiz-adv-x="559" 
d="M328 247h-126v-203h215l73 117h34l-33 -161h-449v34l71 19v418l-71 21v33h375l74 4v-148h-32l-46 103h-211v-195h126l28 74h28v-182h-32zM213 591h-47l101 205h57l101 -205h-49l-83 131z" />
    <glyph glyph-name="Edieresis.sc" horiz-adv-x="559" 
d="M328 247h-126v-203h215l73 117h34l-33 -161h-449v34l71 19v418l-71 21v33h375l74 4v-148h-32l-46 103h-211v-195h126l28 74h28v-182h-32zM194 646c-31 0 -56 25 -56 56s25 57 56 57s57 -26 57 -57s-26 -56 -57 -56zM391 646c-31 0 -57 25 -57 56s26 57 57 57
s57 -26 57 -57s-26 -56 -57 -56z" />
    <glyph glyph-name="Edotaccent.sc" horiz-adv-x="559" 
d="M328 247h-126v-203h215l73 117h34l-33 -161h-449v34l71 19v418l-71 21v33h375l74 4v-148h-32l-46 103h-211v-195h126l28 74h28v-182h-32zM295 629c-34 0 -62 28 -62 62s28 62 62 62s62 -28 62 -62s-28 -62 -62 -62z" />
    <glyph glyph-name="Egrave.sc" horiz-adv-x="559" 
d="M328 247h-126v-203h215l73 117h34l-33 -161h-449v34l71 19v418l-71 21v33h375l74 4v-148h-32l-46 103h-211v-195h126l28 74h28v-182h-32zM278 591l-100 186v19h80l61 -205h-41z" />
    <glyph glyph-name="Emacron.sc" horiz-adv-x="559" 
d="M328 247h-126v-203h215l73 117h34l-33 -161h-449v34l71 19v418l-71 21v33h375l74 4v-148h-32l-46 103h-211v-195h126l28 74h28v-182h-32zM147 667v60h290v-60h-290z" />
    <glyph glyph-name="Eogonek.sc" horiz-adv-x="559" 
d="M371 0h-329v34l71 19v418l-71 21v33h375l74 4v-148h-32l-46 103h-211v-195h126l28 74h28v-182h-32l-24 66h-126v-203h215l73 117h34l-33 -161h-78c-73 -75 -103 -105 -103 -141c0 -28 12 -50 52 -50c32 0 53 9 88 46l17 -17c-29 -45 -69 -97 -140 -97
c-59 0 -96 37 -96 85c0 63 48 101 140 174z" />
    <glyph glyph-name="Gbreve.sc" horiz-adv-x="637" 
d="M345 -18c-209 0 -295 127 -295 265c0 158 132 293 325 293c60 0 124 -21 164 -41l4 -142h-32l-49 104c-22 17 -58 36 -105 36c-141 0 -212 -96 -212 -243c0 -141 102 -226 228 -226c32 0 65 10 85 20v141l-80 16v29h214v-31l-48 -12v-158l-28 -13
c-34 -16 -99 -38 -171 -38zM343 607c-84 0 -120 65 -124 162h36c8 -52 38 -101 97 -101c51 0 81 49 89 101h35c-4 -97 -36 -162 -133 -162z" />
    <glyph glyph-name="Gcircumflex.sc" horiz-adv-x="637" 
d="M345 -18c-209 0 -295 127 -295 265c0 158 132 293 325 293c60 0 124 -21 164 -41l4 -142h-32l-49 104c-22 17 -58 36 -105 36c-141 0 -212 -96 -212 -243c0 -141 102 -226 228 -226c32 0 65 10 85 20v141l-80 16v29h214v-31l-48 -12v-158l-28 -13
c-34 -16 -99 -38 -171 -38zM266 591h-47l101 205h57l101 -205h-49l-83 131z" />
    <glyph glyph-name="Gcommaaccent.sc" horiz-adv-x="637" 
d="M345 -18c-209 0 -295 127 -295 265c0 158 132 293 325 293c60 0 124 -21 164 -41l4 -142h-32l-49 104c-22 17 -58 36 -105 36c-141 0 -212 -96 -212 -243c0 -141 102 -226 228 -226c32 0 65 10 85 20v141l-80 16v29h214v-31l-48 -12v-158l-28 -13
c-34 -16 -99 -38 -171 -38zM257 -267l-8 27c67 21 92 46 92 73c0 29 -31 44 -64 47v2c5 36 32 55 68 55c45 0 69 -31 69 -71c0 -63 -55 -107 -157 -133z" />
    <glyph glyph-name="Gdotaccent.sc" horiz-adv-x="637" 
d="M345 -18c-209 0 -295 127 -295 265c0 158 132 293 325 293c60 0 124 -21 164 -41l4 -142h-32l-49 104c-22 17 -58 36 -105 36c-141 0 -212 -96 -212 -243c0 -141 102 -226 228 -226c32 0 65 10 85 20v141l-80 16v29h214v-31l-48 -12v-158l-28 -13
c-34 -16 -99 -38 -171 -38zM347 629c-34 0 -62 28 -62 62s28 62 62 62s62 -28 62 -62s-28 -62 -62 -62z" />
    <glyph glyph-name="Hbar.sc" horiz-adv-x="681" 
d="M409 0v34l71 19v192h-278v-192l70 -19v-34h-230v34l71 19v318h-81v41h81v59l-71 21v33h230v-33l-70 -21v-59h278v59l-71 21v33h230v-33l-71 -21v-59h81v-41h-81v-318l71 -19v-34h-230zM202 371v-81h278v81h-278z" />
    <glyph glyph-name="Hcircumflex.sc" horiz-adv-x="681" 
d="M409 0v34l71 19v192h-278v-192l70 -19v-34h-230v34l71 19v418l-71 21v33h230v-33l-70 -21v-181h278v181l-71 21v33h230v-33l-71 -21v-418l71 -19v-34h-230zM259 591h-47l101 205h57l101 -205h-49l-83 131z" />
    <glyph glyph-name="Idotaccent.sc" horiz-adv-x="314" 
d="M42 0v34l71 19v418l-71 21v33h230v-33l-70 -21v-418l70 -19v-34h-230zM158 634c-34 0 -62 28 -62 62s28 62 62 62s62 -28 62 -62s-28 -62 -62 -62z" />
    <glyph glyph-name="Iacute.sc" horiz-adv-x="314" 
d="M42 0v34l71 19v418l-71 21v33h230v-33l-70 -21v-418l70 -19v-34h-230zM190 796h80v-19l-99 -186h-41z" />
    <glyph glyph-name="Ibreve.sc" horiz-adv-x="314" 
d="M42 0v34l71 19v418l-71 21v33h230v-33l-70 -21v-418l70 -19v-34h-230zM153 607c-84 0 -120 65 -124 162h36c8 -52 38 -101 97 -101c51 0 81 49 89 101h35c-4 -97 -36 -162 -133 -162z" />
    <glyph glyph-name="Icircumflex.sc" horiz-adv-x="314" 
d="M42 0v34l71 19v418l-71 21v33h230v-33l-70 -21v-418l70 -19v-34h-230zM76 591h-47l101 205h57l101 -205h-49l-83 131z" />
    <glyph glyph-name="Idieresis.sc" horiz-adv-x="314" 
d="M64 646c-31 0 -56 25 -56 56s25 57 56 57s57 -26 57 -57s-26 -56 -57 -56zM249 646c-31 0 -57 25 -57 56s26 57 57 57s57 -26 57 -57s-26 -56 -57 -56zM42 0v34l71 19v418l-71 21v33h230v-33l-70 -21v-418l70 -19v-34h-230z" />
    <glyph glyph-name="Igrave.sc" horiz-adv-x="314" 
d="M42 0v34l71 19v418l-71 21v33h230v-33l-70 -21v-418l70 -19v-34h-230zM140 591l-100 186v19h80l61 -205h-41z" />
    <glyph glyph-name="Imacron.sc" horiz-adv-x="314" 
d="M42 0v34l71 19v418l-71 21v33h230v-33l-70 -21v-418l70 -19v-34h-230zM41 667v60h232v-60h-232z" />
    <glyph glyph-name="Iogonek.sc" horiz-adv-x="314" 
d="M42 0v34l71 19v418l-71 21v33h230v-33l-70 -21v-418l70 -19v-34h-96c-46 -80 -58 -105 -58 -141c0 -28 15 -50 52 -50c32 0 53 9 88 46l17 -17c-29 -45 -69 -97 -140 -97c-59 0 -96 37 -96 85c0 55 40 102 94 174h-91z" />
    <glyph glyph-name="Itilde.sc" horiz-adv-x="314" 
d="M42 0v34l71 19v418l-71 21v33h230v-33l-70 -21v-418l70 -19v-34h-230zM170 645l-39 23c-64 38 -86 34 -114 -33l-30 13l5 13c39 97 91 118 154 83l48 -27c49 -28 73 -18 102 51l30 -13l-5 -13c-40 -104 -88 -134 -151 -97z" />
    <glyph glyph-name="Jcircumflex.sc" horiz-adv-x="316" 
d="M209 471v-390c0 -153 -40 -243 -229 -270l-7 30c116 21 148 115 148 226v404l-82 21v33h241v-33zM87 591h-47l101 205h57l101 -205h-49l-83 131z" />
    <glyph glyph-name="Kcommaaccent.sc" horiz-adv-x="606" 
d="M42 0v34l71 19v418l-71 21v33h230v-33l-70 -21v-418l70 -19v-34h-230zM448 0l-240 274v8l30 12l203 179l-63 20v32h191v-32l-69 -20l-197 -175l220 -250l68 -14v-34h-143zM246 -267l-8 27c67 21 92 46 92 73c0 29 -31 44 -64 47v2c5 36 32 55 68 55c45 0 69 -31 69 -71
c0 -63 -55 -107 -157 -133z" />
    <glyph glyph-name="Lacute.sc" horiz-adv-x="513" 
d="M202 44h181l78 140h31l-33 -184h-417v34l71 19v418l-71 21v33h246v-33l-86 -20v-428zM200 796h80v-19l-99 -186h-41z" />
    <glyph glyph-name="Lcaron.sc" horiz-adv-x="513" 
d="M202 44h181l78 140h31l-33 -184h-417v34l71 19v418l-71 21v33h246v-33l-86 -20v-428zM388 325h-29l15 210h89v-8z" />
    <glyph glyph-name="Lcommaaccent.sc" horiz-adv-x="513" 
d="M202 44h181l78 140h31l-33 -184h-417v34l71 19v418l-71 21v33h246v-33l-86 -20v-428zM187 -267l-8 27c67 21 92 46 92 73c0 29 -31 44 -64 47v2c5 36 32 55 68 55c45 0 69 -31 69 -71c0 -63 -55 -107 -157 -133z" />
    <glyph glyph-name="Ldot.sc" horiz-adv-x="513" 
d="M202 44h181l75 121h31l-30 -165h-417v34l71 19v418l-71 21v33h246v-33l-86 -20v-428zM416 252c-30 0 -56 26 -56 57c0 30 26 56 56 56c31 0 57 -26 57 -56c0 -31 -26 -57 -57 -57z" />
    <glyph glyph-name="Lslash.sc" horiz-adv-x="513" 
d="M42 199v37l71 18v217l-71 21v33h246v-33l-86 -20v-195l188 49v-37l-188 -49v-196h181l78 140h31l-33 -184h-417v34l71 19v164z" />
    <glyph glyph-name="Nacute.sc" horiz-adv-x="669" 
d="M562 1l-28 -10l-368 410v-340l90 -28v-33h-211v34l71 19v409l-74 30v33h134l333 -374v311l-91 31v32h211v-33l-70 -21v-387zM374 796h80v-19l-99 -186h-41z" />
    <glyph glyph-name="Ncaron.sc" horiz-adv-x="669" 
d="M562 1l-28 -10l-368 410v-340l90 -28v-33h-211v34l71 19v409l-74 30v33h134l333 -374v311l-91 31v32h211v-33l-70 -21v-387zM424 796h47l-101 -205h-57l-101 205h49l82 -131z" />
    <glyph glyph-name="Ncommaaccent.sc" horiz-adv-x="669" 
d="M562 1l-28 -10l-368 410v-340l90 -28v-33h-211v34l71 19v409l-74 30v33h134l333 -374v311l-91 31v32h211v-33l-70 -21v-387zM269 -267l-8 27c67 21 92 46 92 73c0 29 -31 44 -64 47v2c5 36 32 55 68 55c45 0 69 -31 69 -71c0 -63 -55 -107 -157 -133z" />
    <glyph glyph-name="Ntilde.sc" horiz-adv-x="669" 
d="M562 1l-28 -10l-368 410v-340l90 -28v-33h-211v34l71 19v409l-74 30v33h134l333 -374v311l-91 31v32h211v-33l-70 -21v-387zM354 645l-39 23c-64 38 -86 34 -114 -33l-30 13l5 13c39 97 91 118 154 83l48 -27c49 -28 73 -18 102 51l30 -13l-5 -13
c-40 -104 -88 -134 -151 -97z" />
    <glyph glyph-name="Oacute.sc" horiz-adv-x="643" 
d="M343 23c83 0 151 70 151 213c0 145 -76 265 -191 265c-99 0 -156 -84 -156 -209c0 -117 55 -269 196 -269zM322 540c159 0 271 -110 271 -274c0 -163 -112 -285 -271 -285c-160 0 -272 109 -272 272c0 164 112 287 272 287zM354 796h80v-19l-99 -186h-41z" />
    <glyph glyph-name="Obreve.sc" horiz-adv-x="643" 
d="M343 23c83 0 151 70 151 213c0 145 -76 265 -191 265c-99 0 -156 -84 -156 -209c0 -117 55 -269 196 -269zM322 540c159 0 271 -110 271 -274c0 -163 -112 -285 -271 -285c-160 0 -272 109 -272 272c0 164 112 287 272 287zM317 607c-84 0 -120 65 -124 162h36
c8 -52 38 -101 97 -101c51 0 81 49 89 101h35c-4 -97 -36 -162 -133 -162z" />
    <glyph glyph-name="Ocircumflex.sc" horiz-adv-x="643" 
d="M343 23c83 0 151 70 151 213c0 145 -76 265 -191 265c-99 0 -156 -84 -156 -209c0 -117 55 -269 196 -269zM322 540c159 0 271 -110 271 -274c0 -163 -112 -285 -271 -285c-160 0 -272 109 -272 272c0 164 112 287 272 287zM240 591h-47l101 205h57l101 -205h-49l-83 131
z" />
    <glyph glyph-name="Odieresis.sc" horiz-adv-x="643" 
d="M343 23c83 0 151 70 151 213c0 145 -76 265 -191 265c-99 0 -156 -84 -156 -209c0 -117 55 -269 196 -269zM322 540c159 0 271 -110 271 -274c0 -163 -112 -285 -271 -285c-160 0 -272 109 -272 272c0 164 112 287 272 287zM222 646c-31 0 -56 25 -56 56s25 57 56 57
s57 -26 57 -57s-26 -56 -57 -56zM419 646c-31 0 -57 25 -57 56s26 57 57 57s57 -26 57 -57s-26 -56 -57 -56z" />
    <glyph glyph-name="Ograve.sc" horiz-adv-x="643" 
d="M343 23c83 0 151 70 151 213c0 145 -76 265 -191 265c-99 0 -156 -84 -156 -209c0 -117 55 -269 196 -269zM322 540c159 0 271 -110 271 -274c0 -163 -112 -285 -271 -285c-160 0 -272 109 -272 272c0 164 112 287 272 287zM304 591l-100 186v19h80l61 -205h-41z" />
    <glyph glyph-name="Ohungarumlaut.sc" horiz-adv-x="643" 
d="M343 23c83 0 151 70 151 213c0 145 -76 265 -191 265c-99 0 -156 -84 -156 -209c0 -117 55 -269 196 -269zM322 540c159 0 271 -110 271 -274c0 -163 -112 -285 -271 -285c-160 0 -272 109 -272 272c0 164 112 287 272 287zM276 796h78v-19l-89 -186h-41zM418 796h78v-19
l-89 -186h-41z" />
    <glyph glyph-name="Omacron.sc" horiz-adv-x="643" 
d="M343 23c83 0 151 70 151 213c0 145 -76 265 -191 265c-99 0 -156 -84 -156 -209c0 -117 55 -269 196 -269zM322 540c159 0 271 -110 271 -274c0 -163 -112 -285 -271 -285c-160 0 -272 109 -272 272c0 164 112 287 272 287zM176 667v60h290v-60h-290z" />
    <glyph glyph-name="Otilde.sc" horiz-adv-x="643" 
d="M343 23c83 0 151 70 151 213c0 145 -76 265 -191 265c-99 0 -156 -84 -156 -209c0 -117 55 -269 196 -269zM322 540c159 0 271 -110 271 -274c0 -163 -112 -285 -271 -285c-160 0 -272 109 -272 272c0 164 112 287 272 287zM334 645l-39 23c-64 38 -86 34 -114 -33
l-30 13l5 13c39 97 91 118 154 83l48 -27c49 -28 73 -18 102 51l30 -13l-5 -13c-40 -104 -88 -134 -151 -97z" />
    <glyph glyph-name="Oslashacute.sc" horiz-adv-x="643" 
d="M62 -33l67 86c-50 47 -79 117 -79 200c0 164 112 287 272 287c59 0 111 -16 154 -43l49 62h45l-65 -83c55 -48 88 -122 88 -210c0 -163 -112 -285 -271 -285c-64 0 -121 18 -165 49l-49 -63h-46zM343 23c83 0 151 70 151 213c0 65 -16 124 -43 171l-245 -314
c31 -42 76 -70 137 -70zM147 292c0 -55 11 -117 38 -167l245 313c-32 39 -76 63 -127 63c-99 0 -156 -84 -156 -209zM354 796h80v-19l-99 -186h-41z" />
    <glyph glyph-name="Racute.sc" horiz-adv-x="587" 
d="M42 0v34l71 19v418l-71 21v33l201 2c153 1 247 -43 247 -137c0 -81 -84 -127 -139 -145v-2l152 -196l69 -13v-34h-146l-131 169c-31 38 -41 56 -41 56h-52v-172l70 -19v-34h-230zM202 491v-226h76c64 9 118 46 118 112c0 79 -72 116 -194 114zM312 796h80v-19l-99 -186
h-41z" />
    <glyph glyph-name="Rcaron.sc" horiz-adv-x="587" 
d="M42 0v34l71 19v418l-71 21v33l201 2c153 1 247 -43 247 -137c0 -81 -84 -127 -139 -145v-2l152 -196l69 -13v-34h-146l-131 169c-31 38 -41 56 -41 56h-52v-172l70 -19v-34h-230zM202 491v-226h76c64 9 118 46 118 112c0 79 -72 116 -194 114zM362 796h47l-101 -205h-57
l-101 205h49l82 -131z" />
    <glyph glyph-name="Rcommaaccent.sc" horiz-adv-x="587" 
d="M42 0v34l71 19v418l-71 21v33l201 2c153 1 247 -43 247 -137c0 -81 -84 -127 -139 -145v-2l152 -196l69 -13v-34h-146l-131 169c-31 38 -41 56 -41 56h-52v-172l70 -19v-34h-230zM202 491v-226h76c64 9 118 46 118 112c0 79 -72 116 -194 114zM223 -267l-8 27
c67 21 92 46 92 73c0 29 -31 44 -64 47v2c5 36 32 55 68 55c45 0 69 -31 69 -71c0 -63 -55 -107 -157 -133z" />
    <glyph glyph-name="Sacute.sc" horiz-adv-x="465" 
d="M52 22l-12 154h34l54 -121c24 -17 55 -30 103 -30c69 0 113 34 113 96c0 40 -21 72 -83 91l-86 27c-95 27 -124 77 -124 144c0 85 89 157 202 157c61 0 120 -17 148 -28l5 -144h-29l-46 101c-19 17 -48 31 -90 31c-65 0 -109 -36 -109 -86c0 -46 17 -69 81 -88l71 -23
c116 -35 143 -80 143 -144c0 -100 -94 -175 -212 -175c-59 0 -120 16 -163 38zM266 796h80v-19l-99 -186h-41z" />
    <glyph glyph-name="Scaron.sc" horiz-adv-x="465" 
d="M52 22l-12 154h34l54 -121c24 -17 55 -30 103 -30c69 0 113 34 113 96c0 40 -21 72 -83 91l-86 27c-95 27 -124 77 -124 144c0 85 89 157 202 157c61 0 120 -17 148 -28l5 -144h-29l-46 101c-19 17 -48 31 -90 31c-65 0 -109 -36 -109 -86c0 -46 17 -69 81 -88l71 -23
c116 -35 143 -80 143 -144c0 -100 -94 -175 -212 -175c-59 0 -120 16 -163 38zM316 796h47l-101 -205h-57l-101 205h49l82 -131z" />
    </font>
</defs>
</svg>
