<?xml version="1.0" standalone="no"?>
<!DOCTYPE svg PUBLIC "-//W3C//DTD SVG 1.1//EN" "http://www.w3.org/Graphics/SVG/1.1/DTD/svg11.dtd" >
<svg>
<metadata>
Created by FontForge 20110222 at Tue Aug 18 17:43:13 2015
 By www-data
(c)2009 Kai Bernau and Commercial Type.
</metadata>
<defs>
<font id="LyonText-RegularItalic" horiz-adv-x="600" >
  <font-face 
    font-family="Lyon Text Regular"
    font-weight="400"
    font-style="italic"
    font-stretch="normal"
    units-per-em="1000"
    panose-1="2 0 5 3 7 0 0 9 0 4"
    ascent="760"
    descent="-240"
    x-height="484"
    cap-height="664"
    bbox="-180 -267 1232 1097"
    underline-thickness="50"
    underline-position="-50"
    slope="-12"
    stemh="30"
    stemv="89"
    unicode-range="U+0020-FB04"
  />
<missing-glyph horiz-adv-x="500" 
 />
    <glyph glyph-name="f_b" unicode="fb" horiz-adv-x="796" 
d="M472 -15c-50 0 -96 18 -139 66l-9 10l144 595c-29 26 -65 37 -92 37c-29 0 -86 -26 -136 -234h94l-10 -44h-94l-84 -400c-50 -241 -176 -275 -221 -275c-25 0 -66 19 -66 57c0 18 12 41 25 50c26 -24 62 -58 90 -58c37 0 54 55 73 150l96 476h-86l6 44h91
c61 229 224 287 269 287c30 0 56 -9 71 -22l76 22l-111 -452h5c45 87 129 191 208 191c57 0 93 -47 93 -124c0 -146 -133 -376 -293 -376zM423 133l-13 -52c8 -25 33 -62 74 -62c91 0 188 194 188 327c0 55 -27 67 -46 67c-80 0 -180 -186 -203 -280z" />
    <glyph glyph-name="f_f" unicode="ff" horiz-adv-x="603" 
d="M57 415l6 44h92c58 176 206 243 284 243c44 0 85 -24 108 -48c52 57 114 92 177 92c48 0 87 -28 87 -54s-20 -50 -31 -64c-31 33 -79 64 -120 64c-26 0 -79 -22 -133 -233h129l-10 -44h-129c-3 -10 -5 -20 -7 -31l-70 -334c-50 -241 -176 -275 -221 -275
c-25 0 -66 19 -66 57c0 18 12 41 25 50c26 -24 62 -58 90 -58c37 0 54 55 73 150l89 441h-200l-10 -46l-74 -354c-50 -241 -176 -275 -221 -275c-25 0 -66 19 -66 57c0 18 12 41 25 50c26 -24 62 -58 90 -58c37 0 54 55 73 150l95 468c0 2 1 5 1 8h-86zM441 459
c14 51 35 98 62 139c-23 25 -67 57 -104 57c-39 0 -104 -19 -157 -196h199z" />
    <glyph glyph-name="f_f_b" unicode="ffb" horiz-adv-x="1083" 
d="M759 -15c-50 0 -96 18 -139 66l-9 10l144 595c-29 26 -65 37 -92 37c-29 0 -86 -26 -136 -234h94l-10 -44h-94l-77 -365c-50 -241 -176 -275 -221 -275c-25 0 -66 19 -66 57c0 18 12 41 25 50c26 -24 62 -58 90 -58c37 0 54 55 73 150l89 441h-200l-10 -46l-74 -354
c-50 -241 -176 -275 -221 -275c-25 0 -66 19 -66 57c0 18 12 41 25 50c26 -24 62 -58 90 -58c37 0 54 55 73 150l95 468c0 2 1 5 1 8h-86l6 44h92c58 176 206 243 284 243c44 0 85 -24 107 -47c65 68 137 91 164 91c30 0 56 -9 71 -22l76 22l-111 -452h5
c45 87 129 191 208 191c57 0 93 -47 93 -124c0 -146 -133 -376 -293 -376zM710 133l-13 -52c8 -25 33 -62 74 -62c91 0 188 194 188 327c0 55 -27 67 -46 67c-80 0 -180 -186 -203 -280zM399 655c-39 0 -105 -18 -157 -196h198c15 56 38 102 62 139c-23 26 -66 57 -103 57z
" />
    <glyph glyph-name="f_f_h" unicode="ffh" horiz-adv-x="1110" 
d="M858 746l-119 -485h4c65 101 153 223 247 223c44 0 64 -29 45 -106l-79 -316l3 -1c44 13 84 57 108 98l20 -6c-26 -78 -112 -164 -161 -164c-46 0 -64 37 -47 102l75 280c6 23 2 40 -19 40c-81 0 -215 -229 -241 -359l-9 -45l-75 -21l-13 13l158 657
c-29 26 -65 37 -92 37c-29 0 -86 -26 -136 -234h94l-10 -44h-94l-77 -365c-50 -241 -176 -275 -221 -275c-25 0 -66 19 -66 57c0 18 12 41 25 50c26 -24 62 -58 90 -58c37 0 54 55 73 150l89 441h-200l-10 -46l-74 -354c-50 -241 -176 -275 -221 -275c-25 0 -66 19 -66 57
c0 18 12 41 25 50c26 -24 62 -58 90 -58c37 0 54 55 73 150l95 468c0 2 1 5 1 8h-86l6 44h92c58 176 206 243 284 243c44 0 85 -24 107 -47c65 68 137 91 164 91c31 0 57 -9 72 -23zM399 655c-39 0 -105 -18 -157 -196h198c15 56 38 102 62 139c-23 26 -66 57 -103 57z" />
    <glyph glyph-name="f_f_i" unicode="ffi" horiz-adv-x="869" 
d="M57 415l6 44h92c58 176 206 243 284 243c50 0 96 -31 116 -57c61 61 136 101 209 101c48 0 87 -28 87 -54s-20 -50 -31 -64c-31 33 -79 64 -120 64c-25 0 -113 -31 -172 -233h224l25 26h34l-99 -423l3 -1c44 13 85 57 109 98l20 -6c-26 -78 -113 -164 -162 -164
c-45 0 -62 37 -46 101l79 325h-198c-3 -10 -5 -21 -7 -31l-70 -334c-50 -241 -176 -275 -221 -275c-25 0 -66 19 -66 57c0 18 12 41 25 50c26 -24 62 -58 90 -58c37 0 54 55 73 150l89 441h-200l-10 -46l-74 -354c-50 -241 -176 -275 -221 -275c-25 0 -66 19 -66 57
c0 18 12 41 25 50c26 -24 62 -58 90 -58c37 0 54 55 73 150l95 468c0 2 1 5 1 8h-86zM399 655c-39 0 -105 -18 -157 -196h199c15 46 38 92 68 132c-21 26 -69 64 -110 64z" />
    <glyph glyph-name="f_f_j" unicode="ffj" horiz-adv-x="829" 
d="M178 -118c26 -24 62 -58 90 -58c37 0 54 55 73 150l89 441h-200l-10 -46l-74 -354c-50 -241 -176 -275 -221 -275c-25 0 -66 19 -66 57c0 18 12 41 25 50c26 -24 62 -58 90 -58c37 0 54 55 73 150l95 468c0 2 1 5 1 8h-86l6 44h92c58 176 206 243 284 243
c50 0 96 -31 116 -57c61 61 136 101 209 101c48 0 87 -28 87 -54s-20 -50 -31 -64c-31 33 -79 64 -120 64c-25 0 -113 -31 -172 -233h224l25 26h34l-83 -401c-33 -159 -129 -274 -221 -274c-25 0 -68 17 -68 53c0 22 13 45 27 54c25 -24 60 -58 88 -58c37 0 53 52 76 150
l85 406h-198c-3 -10 -5 -21 -7 -31l-70 -334c-50 -241 -176 -275 -221 -275c-25 0 -66 19 -66 57c0 18 12 41 25 50zM399 655c-39 0 -105 -18 -157 -196h199c15 46 38 92 68 132c-21 26 -69 64 -110 64z" />
    <glyph glyph-name="f_f_k" unicode="ffk" horiz-adv-x="1056" 
d="M978 -40c-47 0 -65 15 -109 60l-148 149c-12 -31 -21 -62 -26 -90l-13 -73l-73 -20l-13 13l159 657c-29 26 -65 37 -92 37c-29 0 -86 -26 -136 -234h94l-10 -44h-94l-77 -365c-50 -241 -176 -275 -221 -275c-25 0 -66 19 -66 57c0 18 12 41 25 50c26 -24 62 -58 90 -58
c37 0 54 55 73 150l89 441h-200l-10 -46l-74 -354c-50 -241 -176 -275 -221 -275c-25 0 -66 19 -66 57c0 18 12 41 25 50c26 -24 62 -58 90 -58c37 0 54 55 73 150l95 468c0 2 1 5 1 8h-86l6 44h92c58 176 206 243 284 243c44 0 85 -24 107 -47c65 68 137 91 164 91
c30 0 56 -9 71 -22l75 22l-110 -461h5c63 110 129 199 211 199c50 0 78 -36 78 -80c0 -104 -125 -187 -235 -223l213 -204v-5c-6 -5 -22 -12 -40 -12zM399 655c-39 0 -105 -18 -157 -196h198c15 56 38 102 62 139c-23 26 -66 57 -103 57zM926 415c-62 0 -151 -118 -200 -234
c152 42 234 136 234 196c0 25 -14 38 -34 38z" />
    <glyph glyph-name="f_f_l" unicode="ffl" horiz-adv-x="846" 
d="M57 415l6 44h92c58 176 206 243 284 243c44 0 85 -24 107 -47c65 68 137 91 164 91c30 0 57 -9 71 -23l74 23l-162 -684l3 -1c44 13 85 57 109 98l20 -6c-26 -78 -113 -164 -162 -164c-45 0 -62 37 -46 101l79 325h-179l-77 -365c-50 -241 -176 -275 -221 -275
c-25 0 -66 19 -66 57c0 18 12 41 25 50c26 -24 62 -58 90 -58c37 0 54 55 73 150l89 441h-200l-10 -46l-74 -354c-50 -241 -176 -275 -221 -275c-25 0 -66 19 -66 57c0 18 12 41 25 50c26 -24 62 -58 90 -58c37 0 54 55 73 150l95 468c0 2 1 5 1 8h-86zM663 693
c-29 0 -86 -26 -136 -234h180l49 197c-30 26 -66 37 -93 37zM399 655c-39 0 -105 -18 -157 -196h198c15 56 38 102 62 139c-23 26 -66 57 -103 57z" />
    <glyph glyph-name="f_h" unicode="fh" horiz-adv-x="820" 
d="M568 746l-119 -485h4c65 101 153 223 247 223c44 0 64 -29 45 -106l-79 -316l3 -1c44 13 84 57 108 98l20 -6c-26 -78 -112 -164 -161 -164c-46 0 -64 37 -47 102l75 280c6 23 2 40 -19 40c-81 0 -215 -229 -241 -359l-9 -45l-75 -21l-13 13l159 659
c-29 25 -64 35 -90 35c-29 0 -86 -26 -136 -234h94l-10 -44h-94l-84 -400c-50 -241 -176 -275 -221 -275c-25 0 -66 19 -66 57c0 18 12 41 25 50c26 -24 62 -58 90 -58c37 0 54 55 73 150l96 476h-86l6 44h91c61 229 224 287 269 287c30 0 57 -9 71 -22z" />
    <glyph glyph-name="f_i" unicode="fi" horiz-adv-x="581" 
d="M57 415l6 44h91c47 151 190 287 323 287c48 0 87 -28 87 -54s-20 -50 -31 -64c-31 33 -79 64 -120 64c-25 0 -113 -31 -172 -233h209l25 26h34l-99 -423l3 -1c44 13 85 57 109 98l20 -6c-26 -78 -113 -164 -162 -164c-45 0 -62 37 -46 101l79 325h-183
c-3 -10 -5 -21 -7 -31l-77 -369c-50 -241 -176 -275 -221 -275c-25 0 -66 19 -66 57c0 18 12 41 25 50c26 -24 62 -58 90 -58c37 0 54 55 73 150l96 476h-86z" />
    <glyph glyph-name="f_j" unicode="fj" horiz-adv-x="582" 
d="M336 -26l92 441h-198c-3 -10 -5 -21 -7 -31l-77 -369c-50 -241 -176 -275 -221 -275c-25 0 -66 19 -66 57c0 18 12 41 25 50c26 -24 62 -58 90 -58c37 0 54 55 73 150l96 476h-86l6 44h91c47 151 190 287 323 287c48 0 87 -28 87 -54s-20 -50 -31 -64
c-31 33 -79 64 -120 64c-25 0 -113 -31 -172 -233h224l25 26h34l-90 -436c-37 -158 -129 -274 -221 -274c-25 0 -68 17 -68 53c0 22 13 45 27 54c25 -24 60 -58 88 -58c37 0 53 52 76 150z" />
    <glyph glyph-name="f_k" unicode="fk" horiz-adv-x="768" 
d="M690 -40c-47 0 -65 15 -109 60l-148 149c-12 -31 -21 -62 -26 -90l-13 -73l-73 -20l-13 13l159 658c-29 25 -65 36 -91 36c-29 0 -86 -26 -136 -234h94l-10 -44h-94l-84 -400c-50 -241 -176 -275 -221 -275c-25 0 -66 19 -66 57c0 18 12 41 25 50c26 -24 62 -58 90 -58
c37 0 54 55 73 150l96 476h-86l6 44h91c61 229 224 287 269 287c30 0 56 -9 71 -22l74 22l-110 -461h5c63 110 129 199 211 199c50 0 78 -36 78 -80c0 -104 -125 -187 -235 -223l213 -204v-5c-6 -5 -22 -12 -40 -12zM638 415c-62 0 -151 -118 -200 -234
c152 42 234 136 234 196c0 25 -14 38 -34 38z" />
    <glyph glyph-name="f_l" unicode="fl" horiz-adv-x="559" 
d="M538 153c-26 -78 -113 -164 -162 -164c-45 0 -62 37 -46 101l79 325h-179l-84 -400c-50 -241 -176 -275 -221 -275c-25 0 -66 19 -66 57c0 18 12 41 25 50c26 -24 62 -58 90 -58c37 0 54 55 73 150l96 476h-86l6 44h91c61 229 224 287 269 287c30 0 57 -9 71 -23l74 23
l-162 -684l3 -1c44 13 85 57 109 98zM376 693c-29 0 -86 -26 -136 -234h180l49 197c-30 26 -66 37 -93 37z" />
    <glyph glyph-name=".notdef" horiz-adv-x="500" 
 />
    <glyph glyph-name="eth" unicode="&#xf0;" horiz-adv-x="477" 
d="M141 550l-14 32l127 67c-20 28 -44 56 -73 86l19 26c41 -25 77 -53 107 -84l123 66l14 -32l-112 -60c78 -91 112 -199 112 -301c0 -175 -109 -361 -269 -361c-97 0 -141 82 -141 174c0 141 99 320 265 320c15 0 29 -5 42 -11c-12 48 -32 97 -67 149zM179 19
c88 0 176 184 176 322v11c-2 70 -21 103 -62 103c-92 0 -170 -196 -170 -318c0 -45 6 -118 56 -118z" />
    <glyph glyph-name="Lslash" unicode="&#x141;" horiz-adv-x="584" 
d="M39 251l9 44l90 24l57 286l-75 27l6 32h271l-6 -32l-103 -26l-51 -261l236 64l-9 -44l-236 -63l-49 -255h212l93 152h35l-53 -199h-470l7 33l83 23l43 219z" />
    <glyph glyph-name="lslash" unicode="&#x142;" horiz-adv-x="268" 
d="M1 277l12 50l96 47l73 299l-59 24l7 22l147 27l-78 -328l106 53l-12 -50l-106 -52l-72 -307l3 -1c44 13 85 57 109 98l20 -6c-26 -78 -113 -164 -162 -164c-45 0 -62 37 -46 101l57 234z" />
    <glyph glyph-name="Scaron" unicode="&#x160;" horiz-adv-x="517" 
d="M40 218h38l19 -156c34 -20 67 -39 122 -39c78 0 147 39 150 140c-1 53 -26 89 -107 139l-31 19c-73 45 -117 89 -117 166c0 107 104 192 237 192c61 0 121 -16 159 -25l-45 -184h-39v139c-26 18 -58 31 -103 31c-73 0 -125 -54 -125 -111c0 -49 12 -78 82 -123l34 -22
c98 -64 147 -105 147 -186c0 -127 -125 -215 -258 -215c-77 0 -150 26 -190 38zM463 865h53l-116 -129h-76l-65 129h46l64 -80z" />
    <glyph glyph-name="scaron" unicode="&#x161;" horiz-adv-x="344" 
d="M283 137c0 -65 -83 -151 -173 -151c-61 0 -105 38 -105 68c0 32 18 53 18 53h1c60 -38 104 -64 142 -64c24 0 44 15 44 44s-17 56 -29 72l-51 71c-40 55 -50 75 -50 103c0 83 109 153 170 153c47 0 87 -23 87 -50s-14 -51 -19 -58l-3 -1c-39 25 -82 52 -120 52
c-24 0 -44 -15 -44 -44c0 -25 10 -44 28 -70l56 -79c34 -49 48 -67 48 -99zM367 756h44l-139 -205h-56l-51 205h42l49 -142z" />
    <glyph glyph-name="Yacute" unicode="&#xdd;" horiz-adv-x="627" 
d="M619 610l-254 -344l-42 -210l86 -23l-7 -33h-272l7 33l94 23l39 197l-127 357l-55 22l6 32h241l-6 -32l-88 -21l99 -303h3l212 298l-85 26l7 32h206l-6 -32zM479 875h93v-20l-135 -119h-52z" />
    <glyph glyph-name="yacute" unicode="&#xfd;" horiz-adv-x="469" 
d="M50 296h-24c3 103 56 188 117 188c68 0 111 -99 111 -254c0 -88 -13 -180 -35 -237h4c71 81 142 183 166 306c2 66 -14 118 -35 165c17 9 32 15 48 15c27 0 55 -17 55 -75c0 -273 -390 -662 -528 -662c-35 0 -66 21 -66 60c0 28 23 55 58 55c32 0 48 -23 58 -63h3
c159 63 193 280 193 414c0 111 -25 196 -59 196c-26 0 -52 -33 -66 -108zM365 756h71v-19l-124 -186h-46z" />
    <glyph glyph-name="HT" horiz-adv-x="0" 
 />
    <glyph glyph-name="Thorn" unicode="&#xde;" horiz-adv-x="578" 
d="M-4 0l7 33l83 23l109 550l-75 26l6 32h254l-5 -32l-88 -26l-19 -93l37 1c167 2 261 -65 261 -153c0 -153 -193 -204 -323 -197l7 31c140 7 215 65 215 153c0 68 -60 132 -203 132l-83 -424l76 -24l-6 -32h-253z" />
    <glyph glyph-name="thorn" unicode="&#xfe;" horiz-adv-x="506" 
d="M-26 -188l208 861l-59 24l7 22l150 27l-111 -452h5c45 87 129 191 208 191c57 0 93 -47 93 -124c0 -146 -133 -376 -293 -376c-29 0 -56 6 -83 20l-49 -206h135l-9 -39h-290l3 22s46 7 85 30zM133 133l-13 -52c8 -25 33 -62 74 -62c91 0 188 194 188 327
c0 55 -27 67 -46 67c-80 0 -180 -186 -203 -280z" />
    <glyph glyph-name="Zcaron" unicode="&#x17d;" horiz-adv-x="598" 
d="M-15 0v25l505 593h-272l-77 -139h-34l43 191l70 -6h411v-10l-515 -607h292l93 152h35l-60 -204l-73 5h-418zM481 865h53l-116 -129h-76l-65 129h46l64 -80z" />
    <glyph glyph-name="zcaron" unicode="&#x17e;" horiz-adv-x="454" 
d="M440 486l36 -27l-333 -339l136 -50c60 -22 84 -14 112 20l20 -6c-24 -55 -48 -101 -115 -101c-18 0 -37 4 -71 18l-143 57l-56 -65l-37 27l336 343l-118 44c-46 17 -74 14 -83 -1c-9 -16 1 -41 42 -72c-20 -28 -36 -47 -56 -47c-27 0 -45 20 -45 55c0 52 69 144 142 144
c25 0 45 -5 71 -15l108 -45zM422 756h44l-139 -205h-56l-51 205h42l49 -142z" />
    <glyph glyph-name="onehalf" unicode="&#xbd;" horiz-adv-x="915" 
d="M45 276l7 33l96 16l53 267h-103l3 34l184 41h6l-67 -343l86 -15l-7 -33h-258zM177 -87l-38 32l603 781l39 -31zM526 0l5 33l58 41c132 93 191 146 191 195c0 43 -26 72 -72 72c-40 0 -71 -25 -103 -58l-24 24c37 47 79 94 154 94c66 0 121 -41 121 -107
c0 -61 -28 -102 -175 -200l-48 -32h213l-12 -62h-308z" />
    <glyph glyph-name="onequarter" unicode="&#xbc;" horiz-adv-x="889" 
d="M45 276l7 33l96 16l53 267h-103l3 34l184 41h6l-67 -343l86 -15l-7 -33h-258zM173 -87l-38 32l603 781l39 -31zM659 0l18 92h-188l4 25l287 277l30 -3l-51 -250h92l-8 -49h-93l-17 -92h-74zM564 141h122l29 146z" />
    <glyph glyph-name="threequarters" unicode="&#xbe;" horiz-adv-x="899" 
d="M189 258c-91 0 -142 34 -142 72c0 23 18 39 43 53c26 -58 65 -86 120 -86c48 0 79 32 79 78c0 59 -47 84 -130 79l6 30l23 9c85 32 111 58 111 90c0 25 -24 43 -52 43c-46 0 -74 -17 -117 -59l-24 23c58 66 102 87 165 87c65 0 107 -29 107 -76s-57 -77 -116 -106v-3
c74 -7 107 -49 107 -91c0 -87 -100 -143 -180 -143zM203 -87l-38 32l603 781l39 -31zM669 0l18 92h-188l4 25l287 277l30 -3l-51 -250h92l-8 -49h-93l-17 -92h-74zM574 141h122l29 146z" />
    <glyph glyph-name="brokenbar" unicode="&#xa6;" horiz-adv-x="248" 
d="M164 313h-52l83 420h52zM61 -202h-52l83 421h52z" />
    <glyph glyph-name="minus" unicode="&#x2212;" horiz-adv-x="558" 
d="M513 208h-474v58h474v-58z" />
    <glyph glyph-name="multiply" unicode="&#xd7;" horiz-adv-x="558" 
d="M455 12l-183 184l-180 -184l-41 41l183 184l-183 183l43 43l182 -183l183 188l40 -41l-183 -187l183 -185z" />
    <glyph glyph-name="space" unicode=" " horiz-adv-x="192" 
 />
    <glyph glyph-name="exclam" unicode="!" horiz-adv-x="290" 
d="M183 695h98l-125 -502h-45zM110 -4c-33 0 -61 28 -61 61s28 61 61 61s61 -28 61 -61s-28 -61 -61 -61z" />
    <glyph glyph-name="quotedbl" unicode="&#x22;" horiz-adv-x="393" 
d="M125 505l23 288h112l-106 -288h-29zM309 505l22 288h112l-106 -288h-28z" />
    <glyph glyph-name="numbersign" unicode="#" horiz-adv-x="593" 
d="M103 383l12 58h107l58 153h56l-57 -153h144l58 153h56l-57 -153h105l-12 -58h-115l-65 -174h102l-12 -58h-112l-56 -151h-56l56 151h-144l-56 -151h-57l56 151h-101l12 58h111l65 174h-98zM257 383l-65 -174h145l65 174h-145z" />
    <glyph glyph-name="dollar" unicode="$" horiz-adv-x="580" 
d="M97 205h36l24 -139c13 -9 52 -32 104 -37l53 266l-22 13c-69 37 -117 79 -115 156c2 88 86 168 206 182l27 138h40l-27 -135c60 -1 118 -19 147 -27l-28 -167h-31l-25 120c-22 20 -44 30 -71 34l-47 -236c107 -59 156 -102 154 -187c-3 -104 -112 -180 -229 -194
l-23 -117h-39l22 114c-66 0 -142 27 -179 39zM429 157c2 47 -20 82 -80 119l-49 -246c61 6 126 43 129 127zM261 507c-1 -49 7 -74 72 -114l42 217c-69 -6 -112 -54 -114 -103z" />
    <glyph glyph-name="percent" unicode="%" horiz-adv-x="894" 
d="M110 -50l598 680h64l-598 -680h-64zM252 566c-65 0 -124 -86 -124 -191c0 -55 25 -95 69 -95c61 0 124 77 124 190c0 56 -25 96 -69 96zM193 241c-85 0 -139 66 -139 150c0 109 97 214 203 214c84 0 138 -66 138 -150c0 -111 -94 -214 -202 -214zM692 308
c-65 0 -124 -86 -124 -191c0 -55 25 -95 69 -95c61 0 124 77 124 190c0 56 -25 96 -69 96zM633 -17c-85 0 -139 66 -139 150c0 109 97 214 203 214c84 0 138 -66 138 -150c0 -111 -94 -214 -202 -214z" />
    <glyph glyph-name="ampersand" unicode="&#x26;" horiz-adv-x="1010" 
d="M564 687l-399 -511c36 -78 114 -125 214 -125c185 0 312 184 333 393c-31 18 -58 37 -92 37c-45 0 -64 -36 -64 -63c0 -45 40 -65 64 -82c-21 -24 -37 -44 -64 -44c-15 0 -48 11 -48 82c0 65 58 181 174 177c47 -2 83 -26 113 -45c78 -51 96 -61 119 -62
c21 -1 29 14 30 43c1 34 -14 77 -26 100c12 7 25 9 38 9c40 -1 54 -34 54 -58c0 -86 -80 -162 -153 -159c-39 1 -70 20 -111 45c-20 -257 -171 -457 -393 -457c-173 0 -274 108 -274 264c0 161 113 319 238 319c21 0 46 -10 69 -32c113 159 132 199 132 199h16zM142 286
c0 -27 3 -52 10 -75l163 210c9 26 -6 66 -50 66c-47 0 -123 -55 -123 -201z" />
    <glyph glyph-name="quotesingle" unicode="'" horiz-adv-x="210" 
d="M125 505l23 288h112l-106 -288h-29z" />
    <glyph glyph-name="parenleft" unicode="(" horiz-adv-x="331" 
d="M227 -180h-49c-87 124 -130 278 -91 475c31 157 133 313 269 437h55c-132 -141 -210 -268 -246 -447c-38 -194 -13 -324 62 -465z" />
    <glyph glyph-name="parenright" unicode=")" horiz-adv-x="331" 
d="M107 732h49c87 -124 130 -278 91 -475c-31 -157 -133 -313 -269 -437h-55c132 141 210 268 246 447c38 194 13 324 -62 465z" />
    <glyph glyph-name="asterisk" unicode="*" horiz-adv-x="394" 
d="M413 515l-130 -8l15 -130l-25 -6l-45 124l-120 -55l-13 21l104 81l-88 96l15 18l109 -71l65 113l21 -8l-34 -126l127 -25z" />
    <glyph glyph-name="plus" unicode="+" horiz-adv-x="558" 
d="M513 208h-206v-208h-62v208h-206v58h206v208h62v-208h206v-58z" />
    <glyph glyph-name="comma" unicode="," horiz-adv-x="270" 
d="M-27 -159c83 35 117 100 117 149c0 37 -19 66 -58 84c0 38 18 80 66 80c43 0 79 -35 79 -102c0 -101 -84 -207 -190 -240c0 0 -13 24 -14 29z" />
    <glyph glyph-name="hyphen" unicode="-" horiz-adv-x="343" 
d="M40 230l16 77h252l-15 -77h-253z" />
    <glyph glyph-name="period" unicode="." horiz-adv-x="260" 
d="M100 -4c-37 0 -69 32 -69 70c0 37 32 69 69 69c38 0 70 -32 70 -69c0 -38 -32 -70 -70 -70z" />
    <glyph glyph-name="slash" unicode="/" horiz-adv-x="486" 
d="M-34 -203l-47 23l566 925l46 -23z" />
    <glyph glyph-name="zero" unicode="0" horiz-adv-x="626" 
d="M351 469c-104 0 -197 -126 -197 -284c0 -83 30 -161 125 -161s193 113 193 281c0 97 -43 164 -121 164zM272 -15c-113 0 -217 79 -217 228c0 152 139 297 299 297c131 0 217 -104 217 -226c0 -157 -135 -299 -299 -299z" />
    <glyph glyph-name="one" unicode="1" horiz-adv-x="417" 
d="M316 508l-90 -455l106 -16l-7 -37h-310l7 37l118 15l73 372h-128l4 42l223 42h4z" />
    <glyph glyph-name="two" unicode="2" horiz-adv-x="447" 
d="M160 109l-39 -29h270l-15 -80h-376v24l97 83c173 147 201 188 201 240c0 57 -39 96 -92 96c-42 0 -76 -26 -110 -63l-26 25c41 58 93 109 168 109c94 0 145 -60 145 -133c0 -85 -53 -147 -223 -272z" />
    <glyph glyph-name="three" unicode="3" horiz-adv-x="402" 
d="M-4 -235l-14 34c74 29 242 102 242 224c0 67 -44 124 -137 124h-8l8 50l47 20c60 26 134 76 134 141c0 48 -32 85 -86 85c-40 0 -69 -24 -107 -62l-25 24c37 54 90 109 164 109c78 0 139 -44 139 -123c0 -81 -67 -131 -155 -180l-10 -6c71 -18 128 -75 128 -158
c0 -139 -155 -230 -320 -282z" />
    <glyph glyph-name="four" unicode="4" horiz-adv-x="570" 
d="M250 -195l42 220h-307l5 30l454 451h22l-81 -413h150l-11 -68h-152l-42 -220h-80zM82 93h223l52 273z" />
    <glyph glyph-name="five" unicode="5" horiz-adv-x="407" 
d="M198 56c0 77 -21 139 -138 256l87 176l245 13l-16 -83l-230 -12l-14 -30c112 -110 159 -181 159 -288c0 -174 -166 -270 -324 -323l-14 34c87 36 245 108 245 257z" />
    <glyph glyph-name="six" unicode="6" horiz-adv-x="565" 
d="M600 667c-134 -54 -325 -166 -408 -326h2c38 39 91 68 146 68c73 0 163 -46 163 -176c0 -113 -85 -253 -259 -253c-110 0 -189 83 -189 206c0 304 325 452 538 514zM304 363c-41 0 -81 -18 -131 -63c-15 -39 -23 -81 -23 -125c0 -107 39 -155 104 -155
c85 0 155 88 155 215c0 75 -38 128 -105 128z" />
    <glyph glyph-name="seven" unicode="7" horiz-adv-x="490" 
d="M31 -205l-59 29l409 589h-324l17 88h416l-1 -9l-362 -544z" />
    <glyph glyph-name="eight" unicode="8" horiz-adv-x="512" 
d="M35 115c0 119 107 178 182 218l-26 26c-37 37 -56 69 -56 128c0 88 93 192 208 192c99 0 163 -57 163 -136c0 -87 -100 -153 -169 -194l20 -19c48 -47 85 -83 85 -143c0 -125 -118 -207 -224 -207c-115 0 -183 53 -183 135zM264 287l-24 23c-75 -55 -116 -107 -116 -180
c0 -53 31 -110 104 -110c90 0 125 72 125 123c0 57 -43 97 -89 144zM222 519c0 -47 22 -78 61 -116l29 -29c54 44 107 102 107 172c0 54 -31 91 -84 91c-50 0 -113 -41 -113 -118z" />
    <glyph glyph-name="nine" unicode="9" horiz-adv-x="565" 
d="M-45 -175c162 59 324 164 405 304h-1c-37 -30 -81 -50 -130 -50c-70 0 -167 47 -167 188c0 105 94 245 263 245c104 0 185 -83 185 -198c0 -303 -316 -463 -548 -525zM263 126c43 0 81 15 123 56c18 44 29 92 29 142c0 92 -30 148 -104 148c-80 0 -155 -88 -155 -210
c0 -83 40 -136 107 -136z" />
    <glyph glyph-name="colon" unicode=":" horiz-adv-x="260" 
d="M100 -4c-37 0 -69 32 -69 70c0 37 32 69 69 69c38 0 70 -32 70 -69c0 -38 -32 -70 -70 -70zM165 331c-37 0 -69 32 -69 70c0 37 32 69 69 69c38 0 70 -32 70 -69c0 -38 -32 -70 -70 -70z" />
    <glyph glyph-name="semicolon" unicode=";" horiz-adv-x="266" 
d="M-16 -188l-14 29c83 35 117 100 117 149c0 37 -19 66 -58 84c0 38 18 80 66 80c43 0 79 -35 79 -102c0 -101 -84 -207 -190 -240zM162 331c-37 0 -69 32 -69 70c0 37 32 69 69 69c38 0 70 -32 70 -69c0 -38 -32 -70 -70 -70z" />
    <glyph glyph-name="less" unicode="&#x3c;" horiz-adv-x="558" 
d="M511 421l-403 -185l403 -182v-68l-472 220v59l472 220v-64z" />
    <glyph glyph-name="equal" unicode="=" horiz-adv-x="558" 
d="M39 293v55h474v-55h-474zM39 147v55h474v-55h-474z" />
    <glyph glyph-name="greater" unicode="&#x3e;" horiz-adv-x="558" 
d="M40 52l403 184l-403 181v68l472 -220v-59l-472 -220v66z" />
    <glyph glyph-name="question" unicode="?" horiz-adv-x="399" 
d="M156 585l14 103l32 -11c86 -30 192 -116 192 -238c0 -78 -37 -125 -105 -138l-106 -19l-28 -89h-46l31 169l126 19c59 9 80 35 80 73c0 57 -74 96 -167 124zM110 -4c-33 0 -61 28 -61 61s28 61 61 61s61 -28 61 -61s-28 -61 -61 -61z" />
    <glyph glyph-name="at" unicode="@" horiz-adv-x="926" 
d="M530 150l13 41h-6c-10 -13 -25 -39 -44 -66c-37 -54 -88 -117 -149 -117c-56 0 -82 38 -83 87c-3 178 190 366 309 366c32 0 57 -12 71 -24l9 36h59l-97 -320c-25 -81 -5 -109 27 -109c71 0 196 109 196 280c0 166 -126 295 -303 295c-213 0 -389 -184 -389 -428
c0 -211 144 -327 338 -327c77 0 118 12 143 18v-25s-87 -33 -190 -33c-228 0 -369 149 -369 348c0 275 247 484 485 484c225 0 346 -154 346 -321c0 -191 -157 -327 -281 -327c-72 0 -115 45 -85 142zM387 77c55 0 187 210 207 274l11 35c-17 21 -38 36 -64 36
c-84 0 -186 -170 -186 -298c0 -26 10 -47 32 -47z" />
    <glyph glyph-name="A" unicode="A" horiz-adv-x="674" 
d="M-41 0l6 32l58 23l353 609l33 5l35 10l91 -627l62 -20l-6 -32h-239l7 33l85 23l-26 180h-232l-94 -176l89 -27l-7 -33h-215zM369 579l-151 -283h192l-40 283h-1z" />
    <glyph glyph-name="B" unicode="B" horiz-adv-x="602" 
d="M238 -3l-242 3l7 33l84 23l108 550l-75 26l6 32l214 1c164 1 227 -69 227 -143c0 -90 -100 -156 -201 -167v-2c92 -12 189 -57 189 -159c0 -130 -128 -199 -317 -197zM455 183c0 115 -110 150 -221 153l-53 -269c30 -22 67 -30 101 -30c84 0 173 40 173 146zM293 628
l-51 -255h77c89 9 151 58 151 140c0 87 -70 119 -177 115z" />
    <glyph glyph-name="C" unicode="C" horiz-adv-x="705" 
d="M361 -17c-168 0 -305 96 -305 307c0 180 149 389 429 389c77 0 130 -23 183 -53l-17 -178h-35l-28 145c-27 22 -66 43 -127 43c-181 0 -296 -190 -295 -353c1 -176 84 -257 208 -257c55 0 94 15 123 31l99 153h36l-54 -180c-51 -16 -118 -47 -217 -47z" />
    <glyph glyph-name="D" unicode="D" horiz-adv-x="743" 
d="M301 629l-101 -511c-13 -67 35 -81 90 -80c229 3 328 166 329 334c1 172 -125 257 -318 257zM5 0l7 33l84 23l108 550l-75 26l6 32l206 2c237 3 379 -105 379 -297c0 -225 -201 -374 -430 -372z" />
    <glyph glyph-name="E" unicode="E" horiz-adv-x="603" 
d="M365 321h-134l-53 -274h242l88 132h36l-46 -179h-502l6 33l86 23l108 549l-76 27l6 32h399l74 4l-43 -177h-34l-9 128h-223l-49 -252h133l45 82h30l-41 -204h-33z" />
    <glyph glyph-name="F" unicode="F" horiz-adv-x="582" 
d="M370 319h-139l-52 -263l93 -19l-7 -37h-269l6 33l85 23l108 549l-75 27l6 32h398l76 4l-40 -177h-34l-10 128h-227l-50 -254h140l42 82h31l-43 -218h-30z" />
    <glyph glyph-name="G" unicode="G" horiz-adv-x="706" 
d="M374 26c52 0 110 19 124 92l24 124l-85 20l6 29h234l-7 -33l-56 -16l-40 -203c-46 -15 -102 -56 -213 -56c-168 0 -305 96 -305 308c0 188 163 388 426 388c78 0 130 -23 182 -52l-17 -173h-35l-29 141c-28 21 -69 41 -127 41c-178 0 -294 -190 -293 -353
c1 -176 87 -257 211 -257z" />
    <glyph glyph-name="H" unicode="H" horiz-adv-x="763" 
d="M402 0l6 33l86 23l52 267h-315l-52 -267l76 -24l-6 -32h-253l7 33l83 23l109 550l-75 26l6 32h254l-5 -32l-88 -26l-47 -236h315l47 236l-75 26l6 32h254l-6 -32l-86 -26l-109 -550l76 -24l-6 -32h-254z" />
    <glyph glyph-name="I" unicode="I" horiz-adv-x="355" 
d="M-4 0l7 33l83 23l109 550l-75 26l6 32h253l-6 -32l-86 -26l-109 -550l76 -24l-6 -32h-252z" />
    <glyph glyph-name="J" unicode="J" horiz-adv-x="346" 
d="M312 606l-109 -555c-32 -160 -100 -252 -261 -269l-5 31c119 46 148 111 171 226l113 568l-86 21l7 36h262l-6 -32z" />
    <glyph glyph-name="K" unicode="K" horiz-adv-x="660" 
d="M-4 0l6 33l85 23l108 550l-75 26l6 32h254l-6 -32l-86 -26l-109 -550l76 -24l-6 -32h-253zM617 22l-9 -32c-169 0 -174 49 -350 355l1 9l37 17l258 242l-75 19l6 32h216l-5 -32l-77 -22l-271 -244c171 -277 190 -324 269 -344z" />
    <glyph glyph-name="L" unicode="L" horiz-adv-x="584" 
d="M179 47h212l93 152h35l-53 -199h-470l7 33l83 23l109 549l-75 27l6 32h271l-6 -32l-103 -26z" />
    <glyph glyph-name="M" unicode="M" horiz-adv-x="881" 
d="M-26 0l7 33l83 23l139 550l-74 26l6 32h189l98 -486l276 486h193l-6 -32l-86 -26l-79 -550l76 -24l-6 -32h-257l7 33l88 23l81 533l-288 -502l-28 -53h-36l-7 53l-106 496l-126 -523l98 -27l-7 -33h-235z" />
    <glyph glyph-name="N" unicode="N" horiz-adv-x="742" 
d="M571 -11h-35l-300 557l-95 -483l111 -30l-7 -33h-249l6 33l84 23l107 540l-82 36l5 32h164l266 -496l85 433l-112 30l7 33h250l-7 -33l-85 -25l-92 -470z" />
    <glyph glyph-name="O" unicode="O" horiz-adv-x="737" 
d="M459 679c130 0 251 -107 251 -282c0 -198 -151 -418 -406 -418c-129 0 -251 107 -251 283c0 191 140 417 406 417zM610 416c0 124 -53 219 -170 219c-144 0 -287 -184 -287 -394c0 -122 51 -218 168 -218c178 0 289 230 289 393z" />
    <glyph glyph-name="P" unicode="P" horiz-adv-x="577" 
d="M273 300l9 35c94 2 204 35 204 160c0 79 -54 138 -192 133l-115 -572l115 -23l-6 -33h-292l5 33l86 23l108 550l-76 26l6 32h246c115 -4 221 -54 221 -169c0 -140 -170 -201 -319 -195z" />
    <glyph glyph-name="Q" unicode="Q" horiz-adv-x="736" 
d="M459 679c130 0 251 -107 251 -282c0 -176 -129 -377 -343 -408c109 -90 172 -150 312 -150c46 0 104 21 168 60l14 -22c-44 -38 -122 -105 -222 -105c-155 0 -265 98 -404 225c-99 32 -182 129 -182 265c0 191 140 417 406 417zM610 416c0 124 -53 219 -170 219
c-144 0 -287 -184 -287 -394c0 -122 51 -218 168 -218c178 0 289 230 289 393z" />
    <glyph glyph-name="R" unicode="R" horiz-adv-x="659" 
d="M-4 0l6 33l85 23l108 550l-75 26l7 32h236c131 0 224 -55 224 -147c0 -120 -114 -167 -199 -183c129 -246 156 -297 232 -313l-8 -30c-166 0 -172 53 -310 323h-72l-51 -258l104 -26l-5 -30h-282zM292 629l-55 -277c165 -6 244 59 244 152c0 77 -56 131 -189 125z" />
    <glyph glyph-name="S" unicode="S" horiz-adv-x="517" 
d="M40 218h38l19 -156c34 -20 67 -39 122 -39c78 0 147 39 150 140c-1 53 -26 89 -107 139l-31 19c-73 45 -117 89 -117 166c0 107 104 192 237 192c61 0 121 -16 159 -25l-45 -184h-39v139c-26 18 -58 31 -103 31c-73 0 -125 -54 -125 -111c0 -49 12 -78 82 -123l34 -22
c98 -64 147 -105 147 -186c0 -127 -125 -215 -258 -215c-77 0 -150 26 -190 38z" />
    <glyph glyph-name="T" unicode="T" horiz-adv-x="647" 
d="M183 664h422l65 8l-41 -181h-34l-11 128h-158l-110 -563l84 -23l-7 -33h-271l7 33l95 23l110 563h-147l-62 -128h-34l30 181z" />
    <glyph glyph-name="U" unicode="U" horiz-adv-x="720" 
d="M314 -24c-151 0 -253 85 -210 304l66 326l-76 26l6 32h257l-6 -32l-86 -26l-69 -347c-29 -147 30 -226 141 -226c93 0 188 56 222 247l58 324l-108 28l6 32h250l-6 -32l-85 -26l-63 -336c-37 -197 -161 -294 -297 -294z" />
    <glyph glyph-name="V" unicode="V" horiz-adv-x="641" 
d="M237 -12l-111 621l-57 23l6 32h241l-6 -32l-86 -26l79 -488h1l264 488l-104 24l7 34h230l-6 -32l-63 -21l-355 -623h-40z" />
    <glyph glyph-name="W" unicode="W" horiz-adv-x="921" 
d="M550 -7l-59 469l-249 -469h-54l-61 616l-58 23l7 32h242l-7 -32l-87 -26l39 -485l219 419l-8 66l-77 26l7 32h256l-7 -34l-84 -24l53 -482l224 481l-103 25l6 34h232l-7 -32l-64 -21l-305 -618h-55z" />
    <glyph glyph-name="X" unicode="X" horiz-adv-x="733" 
d="M-4 0l7 33l73 22l262 280l-125 271l-66 26l6 32h259l-6 -32l-87 -26l92 -205h2l169 196l-80 33l7 34h230l-6 -32l-76 -26l-227 -246l139 -304l63 -23l-7 -33h-253l7 33l84 23l-106 239h-2l-204 -237l76 -25l-7 -33h-224z" />
    <glyph glyph-name="Y" unicode="Y" horiz-adv-x="627" 
d="M619 610l-254 -344l-42 -210l86 -23l-7 -33h-272l7 33l94 23l39 197l-127 357l-55 22l6 32h241l-6 -32l-88 -21l99 -303h3l212 298l-85 26l7 32h206l-6 -32z" />
    <glyph glyph-name="Z" unicode="Z" horiz-adv-x="598" 
d="M-15 0v25l505 593h-272l-77 -139h-34l43 191l70 -6h411v-10l-515 -607h292l93 152h35l-60 -204l-73 5h-418z" />
    <glyph glyph-name="bracketleft" unicode="[" horiz-adv-x="340" 
d="M199 -181h-174l181 914h173l-7 -39h-95l-165 -836h95z" />
    <glyph glyph-name="backslash" unicode="\" horiz-adv-x="469" 
d="M380 -191l-48 -10l-202 927l50 11z" />
    <glyph glyph-name="bracketright" unicode="]" horiz-adv-x="340" 
d="M132 733h173l-181 -914h-172l8 39h95l165 836h-96z" />
    <glyph glyph-name="asciicircum" unicode="^" horiz-adv-x="420" 
d="M113 468h-47l196 288h59l90 -288h-44l-87 225z" />
    <glyph glyph-name="underscore" unicode="_" horiz-adv-x="408" 
d="M-70 -205l12 59h379l-11 -59h-380z" />
    <glyph glyph-name="grave" unicode="`" horiz-adv-x="400" 
d="M143 756h72l41 -205h-44l-69 186v19z" />
    <glyph glyph-name="a" unicode="a" horiz-adv-x="536" 
d="M428 491h61l-114 -429l3 -1c44 13 85 58 108 98l20 -6c-30 -85 -113 -164 -158 -164c-46 0 -67 35 -42 113l30 103h-3c-47 -64 -127 -219 -227 -219c-51 0 -80 41 -81 94c-3 186 184 396 323 396c29 0 54 -8 71 -19zM153 61c63 0 198 213 224 297l12 38
c-18 23 -41 40 -69 40c-76 0 -200 -171 -200 -324c0 -29 8 -51 33 -51z" />
    <glyph glyph-name="b" unicode="b" horiz-adv-x="506" 
d="M182 -15c-50 0 -96 18 -139 66l-9 10l148 612l-59 24l7 22l150 27l-111 -452h5c45 87 129 191 208 191c57 0 93 -47 93 -124c0 -146 -133 -376 -293 -376zM133 133l-13 -52c8 -25 33 -62 74 -62c91 0 188 194 188 327c0 55 -27 67 -46 67c-80 0 -180 -186 -203 -280z" />
    <glyph glyph-name="c" unicode="c" horiz-adv-x="412" 
d="M263 429c-70 0 -134 -174 -134 -277c0 -73 28 -100 65 -100c40 0 114 50 156 111l18 -12c-29 -57 -124 -165 -210 -165c-74 0 -122 63 -122 142c0 97 48 219 157 300c36 27 91 57 127 57c50 0 94 -24 94 -50c0 -31 -25 -68 -28 -68c-35 24 -84 62 -123 62z" />
    <glyph glyph-name="d" unicode="d" horiz-adv-x="555" 
d="M322 485c30 0 60 -11 82 -23l52 211l-59 24l7 22l147 27l-163 -684l3 -1c44 13 85 57 109 98l20 -6c-26 -78 -113 -164 -162 -164c-46 0 -62 34 -41 113l24 92h-3c-44 -53 -117 -208 -213 -208c-56 0 -94 38 -94 116c0 170 131 383 291 383zM380 361l8 35
c-16 28 -49 57 -77 57c-96 0 -183 -196 -183 -318c0 -64 17 -77 38 -77c61 0 188 193 214 303z" />
    <glyph glyph-name="e" unicode="e" horiz-adv-x="404" 
d="M155 -11c-86 0 -121 73 -121 144c0 130 64 229 144 292c40 32 93 60 137 60c60 0 83 -27 83 -70c0 -89 -123 -166 -272 -185c-3 -19 -5 -39 -5 -59c0 -74 21 -117 68 -117s98 42 124 80l20 -12c-19 -42 -86 -133 -178 -133zM291 448c-52 0 -128 -84 -158 -190
c82 11 182 90 182 160c0 18 -9 30 -24 30z" />
    <glyph glyph-name="f" unicode="f" horiz-adv-x="316" 
d="M57 415l6 44h91c45 161 164 287 283 287c48 0 87 -28 87 -54s-20 -50 -31 -64c-31 33 -79 64 -120 64c-26 0 -79 -22 -133 -233h129l-10 -44h-129c-3 -10 -5 -20 -7 -31l-77 -369c-50 -241 -176 -275 -221 -275c-25 0 -66 19 -66 57c0 18 12 41 25 50
c26 -24 62 -58 90 -58c37 0 54 55 73 150l96 476h-86z" />
    <glyph glyph-name="g" unicode="g" horiz-adv-x="420" 
d="M263 484c24 0 44 -4 72 -10l124 5l-13 -67l-92 24v-3c9 -11 25 -41 25 -75c0 -104 -92 -231 -215 -230c-5 0 -11 0 -16 1c-21 -16 -27 -27 -27 -40c0 -17 11 -27 35 -39l155 -77c53 -26 69 -54 70 -86c0 -74 -108 -147 -262 -147c-122 0 -204 42 -203 99
c1 63 96 103 207 130v2l-9 4c-29 15 -61 37 -61 74c0 43 41 73 66 86v2c-46 19 -74 66 -75 117c-1 102 77 230 219 230zM229 -80l-69 33c-96 -26 -155 -46 -154 -92c0 -48 68 -81 162 -82c89 -1 136 37 136 71c1 21 -12 40 -75 70zM253 452c-67 1 -129 -128 -129 -222
c0 -39 13 -70 44 -70c69 -2 132 132 132 225c0 36 -15 67 -47 67z" />
    <glyph glyph-name="h" unicode="h" horiz-adv-x="532" 
d="M280 746l-119 -485h4c65 101 153 223 247 223c44 0 64 -29 45 -106l-79 -316l3 -1c44 13 84 57 108 98l20 -6c-26 -78 -112 -164 -161 -164c-46 0 -64 37 -47 102l75 280c6 23 2 40 -19 40c-81 0 -215 -229 -241 -359l-9 -45l-75 -21l-13 13l163 674l-59 24l7 22z" />
    <glyph glyph-name="i" unicode="i" horiz-adv-x="293" 
d="M135 396l-85 19v5s56 65 121 65c38 0 56 -31 39 -104l-74 -319l3 -1c44 13 85 57 109 98l20 -6c-26 -78 -113 -164 -162 -164c-45 0 -62 37 -46 101zM170 680c0 29 24 53 53 53s53 -24 53 -53s-24 -53 -53 -53s-53 24 -53 53z" />
    <glyph glyph-name="j" unicode="j" horiz-adv-x="261" 
d="M39 -61l108 457l-86 19v5s56 65 115 65c44 0 66 -30 46 -112l-86 -359c-37 -158 -129 -274 -221 -274c-25 0 -68 17 -68 53c0 22 13 45 27 54c25 -24 60 -58 88 -58c37 0 53 52 77 150zM182 680c0 29 24 53 53 53s53 -24 53 -53s-24 -53 -53 -53s-53 24 -53 53z" />
    <glyph glyph-name="k" unicode="k" horiz-adv-x="479" 
d="M401 -40c-47 0 -65 15 -109 60l-148 149c-12 -31 -21 -62 -26 -90l-13 -73l-73 -20l-13 13l163 674l-59 24l7 22l149 27l-110 -461h5c63 110 129 199 211 199c50 0 78 -36 78 -80c0 -104 -125 -187 -235 -223l213 -204v-5c-6 -5 -22 -12 -40 -12zM349 415
c-62 0 -151 -118 -200 -234c152 42 234 136 234 196c0 25 -14 38 -34 38z" />
    <glyph glyph-name="l" unicode="l" horiz-adv-x="268" 
d="M247 153c-26 -78 -113 -164 -162 -164c-45 0 -62 37 -46 101l143 583l-59 24l7 22l147 27l-162 -684l3 -1c44 13 85 57 109 98z" />
    <glyph glyph-name="m" unicode="m" horiz-adv-x="807" 
d="M34 -1l105 401l-85 15v5s55 65 110 65c56 0 66 -46 44 -122l-27 -93h4c69 99 149 214 239 214c55 0 65 -45 43 -121l-27 -93h4c68 99 148 214 243 214c44 0 64 -29 45 -106l-80 -316l4 -1c44 13 83 57 108 98l20 -6c-26 -79 -114 -164 -161 -164c-49 0 -64 37 -47 102
l75 280c6 23 2 40 -18 40c-86 0 -212 -225 -242 -359l-10 -45l-75 -21l-13 13l100 373c5 22 1 39 -19 39c-86 0 -212 -225 -242 -359l-10 -45l-75 -21z" />
    <glyph glyph-name="n" unicode="n" horiz-adv-x="548" 
d="M34 -1l105 401l-85 15v5s55 65 110 65c56 0 65 -46 44 -122l-27 -93h4c68 99 149 214 243 214c44 0 64 -29 45 -106l-80 -316l3 -1c45 13 84 57 109 98l20 -6c-26 -79 -114 -164 -161 -164c-48 0 -64 37 -47 102l75 280c6 23 3 40 -18 40c-86 0 -213 -225 -242 -359
l-10 -45l-75 -21z" />
    <glyph glyph-name="o" unicode="o" horiz-adv-x="477" 
d="M123 137c0 -45 6 -118 55 -118c89 0 174 184 174 312c0 28 1 124 -59 124c-92 0 -170 -200 -170 -318zM303 485c102 0 140 -86 140 -167c0 -145 -100 -329 -268 -329c-97 0 -141 82 -141 174c0 141 100 322 269 322z" />
    <glyph glyph-name="p" unicode="p" horiz-adv-x="498" 
d="M-4 -188l135 568c-31 -17 -64 -38 -99 -60l-12 20c33 26 75 56 121 82l23 94h61l-15 -60c41 17 82 28 120 28c105 0 142 -62 142 -134c0 -168 -139 -364 -283 -364c-26 0 -48 9 -67 21l-50 -208h135l-9 -39h-290l3 22s46 7 85 30zM204 18c87 0 176 184 176 308
c0 64 -27 105 -99 105c-19 0 -39 -4 -60 -10l-85 -356c13 -25 39 -47 68 -47z" />
    <glyph glyph-name="q" unicode="q" horiz-adv-x="484" 
d="M237 -188l80 331c7 28 13 51 13 51h-3c-42 -53 -117 -208 -213 -208c-56 0 -94 38 -94 116c0 170 131 383 291 383c39 0 77 -18 100 -33l8 34h60l-166 -687h94l-6 -39h-253l3 22s40 4 86 30zM155 58c61 0 187 193 214 303l8 35c-16 28 -49 57 -77 57
c-96 0 -183 -196 -183 -318c0 -64 17 -77 38 -77z" />
    <glyph glyph-name="r" unicode="r" horiz-adv-x="406" 
d="M30 -1l30 118c42 167 66 283 66 283l-80 15v5s53 65 110 65c52 0 55 -49 38 -109l-53 -180h14c84 191 136 289 218 289c27 0 48 -16 48 -47c0 -42 -34 -84 -50 -98h-34c17 29 12 60 -10 62c-43 -21 -97 -113 -146 -217c-25 -53 -38 -80 -66 -178l-72 -21z" />
    <glyph glyph-name="s" unicode="s" horiz-adv-x="344" 
d="M283 137c0 -65 -83 -151 -173 -151c-61 0 -105 38 -105 68c0 32 18 53 18 53h1c60 -38 104 -64 142 -64c24 0 44 15 44 44s-17 56 -29 72l-51 71c-40 55 -50 75 -50 103c0 83 109 153 170 153c47 0 87 -23 87 -50s-14 -51 -19 -58l-3 -1c-39 25 -82 52 -120 52
c-24 0 -44 -15 -44 -44c0 -25 10 -44 28 -70l56 -79c34 -49 48 -67 48 -99z" />
    <glyph glyph-name="t" unicode="t" horiz-adv-x="340" 
d="M42 415l6 44h85l46 124h62l-30 -124h131l-6 -44h-134l-82 -345l4 -3c52 19 117 76 144 115l20 -7c-34 -77 -149 -187 -207 -187c-36 0 -57 36 -45 87l84 340h-78z" />
    <glyph glyph-name="u" unicode="u" horiz-adv-x="539" 
d="M135 400l-86 15v5s54 65 120 65c44 0 56 -37 40 -103l-71 -292c-5 -22 0 -30 13 -30c73 0 219 245 234 315l20 89l74 21l13 -13l-100 -410l3 -1c44 13 85 57 109 98l20 -6c-26 -78 -113 -164 -162 -164c-46 0 -59 37 -42 105l31 123h-3c-69 -83 -145 -230 -250 -230
c-38 0 -61 29 -40 115z" />
    <glyph glyph-name="v" unicode="v" horiz-adv-x="445" 
d="M184 396l14 -319h3c99 99 167 208 168 275c1 47 -26 67 -69 67c-13 0 -34 -4 -48 -8v12c43 41 77 62 110 62c47 0 73 -29 73 -83c0 -113 -97 -224 -196 -335l-72 -81h-9l-34 14l-18 396c-11 13 -31 21 -53 21c-12 0 -31 -2 -44 -6v12c39 41 69 62 105 62
c43 0 67 -28 70 -89z" />
    <glyph glyph-name="w" unicode="w" horiz-adv-x="656" 
d="M410 396l7 -316h5c105 93 158 209 158 277c0 42 -27 62 -70 62c-13 0 -34 -4 -48 -8v13c42 41 76 61 106 61c46 0 76 -29 77 -89c2 -105 -93 -222 -191 -332l-70 -78h-9l-31 14l-2 206h-2c-38 -44 -79 -98 -136 -165l-47 -55h-9l-34 14l-9 396c-11 13 -31 21 -52 21
c-12 0 -31 -2 -44 -6v13c39 41 69 61 105 61c43 0 69 -28 70 -89l7 -316h5c76 85 141 178 141 178l-1 132c-10 16 -34 27 -61 27c-13 0 -34 -2 -48 -6v13c42 41 75 61 106 61c50 0 76 -28 77 -89z" />
    <glyph glyph-name="x" unicode="x" horiz-adv-x="509" 
d="M303 -11c-25 0 -35 17 -42 44l-37 149l-49 -72c-62 -91 -91 -124 -133 -124c-27 0 -52 18 -51 56c0 23 14 43 14 43l38 -11c52 -15 62 -15 147 118l23 36l-32 131c-8 34 -15 45 -29 45c-20 0 -50 -33 -64 -108h-24c3 104 57 188 117 188c45 0 60 -29 75 -94l21 -92
l71 101c36 52 77 86 108 85c26 -1 44 -17 44 -46c0 -42 -34 -84 -58 -98h-19c9 26 9 60 -12 60c-15 0 -33 -21 -62 -60c-25 -33 -51 -72 -61 -89l44 -190h4c44 13 86 57 110 98l20 -6c-26 -78 -113 -164 -163 -164z" />
    <glyph glyph-name="y" unicode="y" horiz-adv-x="469" 
d="M50 296h-24c3 103 56 188 117 188c68 0 111 -99 111 -254c0 -88 -13 -180 -35 -237h4c71 81 142 183 166 306c2 66 -14 118 -35 165c17 9 32 15 48 15c27 0 55 -17 55 -75c0 -273 -390 -662 -528 -662c-35 0 -66 21 -66 60c0 28 23 55 58 55c32 0 48 -23 58 -63h3
c159 63 193 280 193 414c0 111 -25 196 -59 196c-26 0 -52 -33 -66 -108z" />
    <glyph glyph-name="z" unicode="z" horiz-adv-x="454" 
d="M440 486l36 -27l-333 -339l136 -50c60 -22 84 -14 112 20l20 -6c-24 -55 -48 -101 -115 -101c-18 0 -37 4 -71 18l-143 57l-56 -65l-37 27l336 343l-118 44c-46 17 -74 14 -83 -1c-9 -16 1 -41 42 -72c-20 -28 -36 -47 -56 -47c-27 0 -45 20 -45 55c0 52 69 144 142 144
c25 0 45 -5 71 -15l108 -45z" />
    <glyph glyph-name="braceleft" unicode="{" horiz-adv-x="355" 
d="M132 293v-2c48 -19 68 -53 55 -130l-29 -177c-16 -113 -1 -133 69 -133l-6 -32h-14c-134 0 -154 62 -124 200l34 159c13 61 -7 92 -48 93l-36 1l9 46l35 1c52 1 75 29 83 73l33 185c16 94 60 156 194 156h15l-7 -32c-70 0 -96 -19 -122 -133l-36 -157
c-17 -73 -44 -108 -105 -118z" />
    <glyph glyph-name="bar" unicode="|" horiz-adv-x="248" 
d="M63 -201l-54 -1l186 935h52z" />
    <glyph glyph-name="braceright" unicode="}" horiz-adv-x="355" 
d="M210 259v2c-48 19 -68 53 -55 130l29 177c16 113 1 133 -69 133l6 32h14c134 0 154 -62 124 -200l-34 -159c-13 -61 7 -92 48 -93l36 -1l-9 -46l-35 -1c-52 -1 -75 -29 -83 -73l-33 -185c-16 -94 -60 -156 -194 -156h-15l7 32c70 0 96 19 122 133l36 157
c17 73 44 108 105 118z" />
    <glyph glyph-name="asciitilde" unicode="~" horiz-adv-x="424" 
d="M72 212l-29 13l5 14c36 102 101 109 162 82l61 -27c71 -32 87 -9 112 48l28 -12l-6 -17c-39 -110 -97 -115 -169 -83l-63 28c-63 28 -78 6 -101 -46z" />
    <glyph glyph-name="Adieresis" unicode="&#xc4;" horiz-adv-x="674" 
d="M-41 0l6 32l58 23l353 609l33 5l35 10l91 -627l62 -20l-6 -32h-239l7 33l85 23l-26 180h-232l-94 -176l89 -27l-7 -33h-215zM369 579l-151 -283h192l-40 283h-1zM317 761c-31 0 -56 25 -56 56s25 57 56 57s57 -26 57 -57s-26 -56 -57 -56zM538 761c-31 0 -57 25 -57 56
s26 57 57 57s57 -26 57 -57s-26 -56 -57 -56z" />
    <glyph glyph-name="Aring" unicode="&#xc5;" horiz-adv-x="674" 
d="M-41 0l6 32l58 23l353 609l33 5l35 10l91 -627l62 -20l-6 -32h-239l7 33l85 23l-26 180h-232l-94 -176l89 -27l-7 -33h-215zM369 579l-151 -283h192l-40 283h-1zM311 817c0 65 52 114 117 114c66 0 117 -48 117 -114c0 -65 -52 -114 -117 -114c-66 0 -117 48 -117 114z
M357 817c0 -43 32 -73 71 -73s71 30 71 73s-32 73 -71 73s-71 -30 -71 -73z" />
    <glyph glyph-name="Ccedilla" unicode="&#xc7;" horiz-adv-x="705" 
d="M221 -257v26c40 12 102 36 102 83c0 33 -27 45 -40 51l63 80c-161 6 -290 102 -290 307c0 180 149 389 429 389c77 0 130 -23 183 -53l-17 -178h-35l-28 145c-27 22 -66 43 -127 43c-181 0 -296 -190 -295 -353c1 -176 84 -257 208 -257c55 0 94 15 123 31l99 153h36
l-54 -180c-47 -15 -108 -42 -195 -46l-35 -47c23 -10 49 -28 49 -64c0 -86 -109 -117 -176 -130z" />
    <glyph glyph-name="Eacute" unicode="&#xc9;" horiz-adv-x="603" 
d="M365 321h-134l-53 -274h242l88 132h36l-46 -179h-502l6 33l86 23l108 549l-76 27l6 32h399l74 4l-43 -177h-34l-9 128h-223l-49 -252h133l45 82h30l-41 -204h-33zM465 875h93v-20l-135 -119h-52z" />
    <glyph glyph-name="Ntilde" unicode="&#xd1;" horiz-adv-x="742" 
d="M571 -11h-35l-300 557l-95 -483l111 -30l-7 -33h-249l6 33l84 23l107 540l-82 36l5 32h164l266 -496l85 433l-112 30l7 33h250l-7 -33l-85 -25l-92 -470zM466 769l-25 12c-72 35 -82 15 -105 -37l-29 13l5 14c36 102 94 109 165 75l23 -11c81 -39 93 -18 118 39l28 -12
l-6 -17c-39 -110 -93 -119 -174 -76z" />
    <glyph glyph-name="Odieresis" unicode="&#xd6;" horiz-adv-x="737" 
d="M459 679c130 0 251 -107 251 -282c0 -198 -151 -418 -406 -418c-129 0 -251 107 -251 283c0 191 140 417 406 417zM610 416c0 124 -53 219 -170 219c-144 0 -287 -184 -287 -394c0 -122 51 -218 168 -218c178 0 289 230 289 393zM376 761c-31 0 -56 25 -56 56
s25 57 56 57s57 -26 57 -57s-26 -56 -57 -56zM597 761c-31 0 -57 25 -57 56s26 57 57 57s57 -26 57 -57s-26 -56 -57 -56z" />
    <glyph glyph-name="Udieresis" unicode="&#xdc;" horiz-adv-x="720" 
d="M314 -24c-151 0 -253 85 -210 304l66 326l-76 26l6 32h257l-6 -32l-86 -26l-69 -347c-29 -147 30 -226 141 -226c93 0 188 56 222 247l58 324l-108 28l6 32h250l-6 -32l-85 -26l-63 -336c-37 -197 -161 -294 -297 -294zM359 761c-31 0 -56 25 -56 56s25 57 56 57
s57 -26 57 -57s-26 -56 -57 -56zM580 761c-31 0 -57 25 -57 56s26 57 57 57s57 -26 57 -57s-26 -56 -57 -56z" />
    <glyph glyph-name="aacute" unicode="&#xe1;" horiz-adv-x="536" 
d="M428 491h61l-114 -429l3 -1c44 13 85 58 108 98l20 -6c-30 -85 -113 -164 -158 -164c-46 0 -67 35 -42 113l30 103h-3c-47 -64 -127 -219 -227 -219c-51 0 -80 41 -81 94c-3 186 184 396 323 396c29 0 54 -8 71 -19zM153 61c63 0 198 213 224 297l12 38
c-18 23 -41 40 -69 40c-76 0 -200 -171 -200 -324c0 -29 8 -51 33 -51zM441 756h71v-19l-124 -186h-46z" />
    <glyph glyph-name="agrave" unicode="&#xe0;" horiz-adv-x="536" 
d="M428 491h61l-114 -429l3 -1c44 13 85 58 108 98l20 -6c-30 -85 -113 -164 -158 -164c-46 0 -67 35 -42 113l30 103h-3c-47 -64 -127 -219 -227 -219c-51 0 -80 41 -81 94c-3 186 184 396 323 396c29 0 54 -8 71 -19zM153 61c63 0 198 213 224 297l12 38
c-18 23 -41 40 -69 40c-76 0 -200 -171 -200 -324c0 -29 8 -51 33 -51zM290 756h72l41 -205h-44l-69 186v19z" />
    <glyph glyph-name="acircumflex" unicode="&#xe2;" horiz-adv-x="536" 
d="M428 491h61l-114 -429l3 -1c44 13 85 58 108 98l20 -6c-30 -85 -113 -164 -158 -164c-46 0 -67 35 -42 113l30 103h-3c-47 -64 -127 -219 -227 -219c-51 0 -80 41 -81 94c-3 186 184 396 323 396c29 0 54 -8 71 -19zM153 61c63 0 198 213 224 297l12 38
c-18 23 -41 40 -69 40c-76 0 -200 -171 -200 -324c0 -29 8 -51 33 -51zM292 551h-44l139 205h56l51 -205h-42l-49 141z" />
    <glyph glyph-name="adieresis" unicode="&#xe4;" horiz-adv-x="536" 
d="M428 491h61l-114 -429l3 -1c44 13 85 58 108 98l20 -6c-30 -85 -113 -164 -158 -164c-46 0 -67 35 -42 113l30 103h-3c-47 -64 -127 -219 -227 -219c-51 0 -80 41 -81 94c-3 186 184 396 323 396c29 0 54 -8 71 -19zM153 61c63 0 198 213 224 297l12 38
c-18 23 -41 40 -69 40c-76 0 -200 -171 -200 -324c0 -29 8 -51 33 -51zM226 644c0 28 22 50 50 50s51 -22 51 -50s-23 -49 -51 -49s-50 21 -50 49zM396 644c0 28 22 50 50 50s51 -22 51 -50s-23 -49 -51 -49s-50 21 -50 49z" />
    <glyph glyph-name="atilde" unicode="&#xe3;" horiz-adv-x="536" 
d="M428 491h61l-114 -429l3 -1c44 13 85 58 108 98l20 -6c-30 -85 -113 -164 -158 -164c-46 0 -67 35 -42 113l30 103h-3c-47 -64 -127 -219 -227 -219c-51 0 -80 41 -81 94c-3 186 184 396 323 396c29 0 54 -8 71 -19zM153 61c63 0 198 213 224 297l12 38
c-18 23 -41 40 -69 40c-76 0 -200 -171 -200 -324c0 -29 8 -51 33 -51zM374 621l-25 12c-72 35 -82 15 -105 -37l-29 13l5 14c36 102 94 109 165 75l23 -11c81 -39 93 -18 118 39l28 -12l-6 -17c-39 -110 -93 -119 -174 -76z" />
    <glyph glyph-name="aring" unicode="&#xe5;" horiz-adv-x="536" 
d="M428 491h61l-114 -429l3 -1c44 13 85 58 108 98l20 -6c-30 -85 -113 -164 -158 -164c-46 0 -67 35 -42 113l30 103h-3c-47 -64 -127 -219 -227 -219c-51 0 -80 41 -81 94c-3 186 184 396 323 396c29 0 54 -8 71 -19zM153 61c63 0 198 213 224 297l12 38
c-18 23 -41 40 -69 40c-76 0 -200 -171 -200 -324c0 -29 8 -51 33 -51zM283 674c0 65 52 114 117 114c66 0 117 -48 117 -114c0 -65 -52 -114 -117 -114c-66 0 -117 48 -117 114zM329 674c0 -43 32 -73 71 -73s71 30 71 73s-32 73 -71 73s-71 -30 -71 -73z" />
    <glyph glyph-name="ccedilla" unicode="&#xe7;" horiz-adv-x="412" 
d="M25 -257v26c40 12 102 36 102 83c0 33 -27 45 -40 51l65 83c-71 3 -116 65 -116 142c0 97 48 219 157 300c36 27 91 57 127 57c50 0 94 -24 94 -50c0 -31 -25 -68 -28 -68c-35 24 -84 62 -123 62c-70 0 -134 -174 -134 -277c0 -73 28 -100 65 -100c40 0 114 50 156 111
l18 -12c-25 -49 -99 -136 -174 -159l-42 -55c23 -10 49 -28 49 -64c0 -86 -109 -117 -176 -130z" />
    <glyph glyph-name="eacute" unicode="&#xe9;" horiz-adv-x="404" 
d="M155 -11c-86 0 -121 73 -121 144c0 130 64 229 144 292c40 32 93 60 137 60c60 0 83 -27 83 -70c0 -89 -123 -166 -272 -185c-3 -19 -5 -39 -5 -59c0 -74 21 -117 68 -117s98 42 124 80l20 -12c-19 -42 -86 -133 -178 -133zM291 448c-52 0 -128 -84 -158 -190
c82 11 182 90 182 160c0 18 -9 30 -24 30zM377 756h71v-19l-124 -186h-46z" />
    <glyph glyph-name="egrave" unicode="&#xe8;" horiz-adv-x="404" 
d="M155 -11c-86 0 -121 73 -121 144c0 130 64 229 144 292c40 32 93 60 137 60c60 0 83 -27 83 -70c0 -89 -123 -166 -272 -185c-3 -19 -5 -39 -5 -59c0 -74 21 -117 68 -117s98 42 124 80l20 -12c-19 -42 -86 -133 -178 -133zM291 448c-52 0 -128 -84 -158 -190
c82 11 182 90 182 160c0 18 -9 30 -24 30zM218 756h72l41 -205h-44l-69 186v19z" />
    <glyph glyph-name="ecircumflex" unicode="&#xea;" horiz-adv-x="404" 
d="M155 -11c-86 0 -121 73 -121 144c0 130 64 229 144 292c40 32 93 60 137 60c60 0 83 -27 83 -70c0 -89 -123 -166 -272 -185c-3 -19 -5 -39 -5 -59c0 -74 21 -117 68 -117s98 42 124 80l20 -12c-19 -42 -86 -133 -178 -133zM291 448c-52 0 -128 -84 -158 -190
c82 11 182 90 182 160c0 18 -9 30 -24 30zM222 551h-44l139 205h56l51 -205h-42l-49 141z" />
    <glyph glyph-name="edieresis" unicode="&#xeb;" horiz-adv-x="404" 
d="M155 -11c-86 0 -121 73 -121 144c0 130 64 229 144 292c40 32 93 60 137 60c60 0 83 -27 83 -70c0 -89 -123 -166 -272 -185c-3 -19 -5 -39 -5 -59c0 -74 21 -117 68 -117s98 42 124 80l20 -12c-19 -42 -86 -133 -178 -133zM291 448c-52 0 -128 -84 -158 -190
c82 11 182 90 182 160c0 18 -9 30 -24 30zM190 644c0 28 22 50 50 50s51 -22 51 -50s-23 -49 -51 -49s-50 21 -50 49zM360 644c0 28 22 50 50 50s51 -22 51 -50s-23 -49 -51 -49s-50 21 -50 49z" />
    <glyph glyph-name="iacute" unicode="&#xed;" horiz-adv-x="293" 
d="M139 61c44 13 85 57 109 98l20 -6c-26 -78 -113 -164 -162 -164c-45 0 -62 37 -46 101l75 306l-85 19v5s56 65 121 65c38 0 56 -31 39 -104l-74 -319zM269 756h71v-19l-124 -186h-46z" />
    <glyph glyph-name="igrave" unicode="&#xec;" horiz-adv-x="293" 
d="M139 61c44 13 85 57 109 98l20 -6c-26 -78 -113 -164 -162 -164c-45 0 -62 37 -46 101l75 306l-85 19v5s56 65 121 65c38 0 56 -31 39 -104l-74 -319zM110 756h72l41 -205h-44l-69 186v19z" />
    <glyph glyph-name="icircumflex" unicode="&#xee;" horiz-adv-x="293" 
d="M139 61c44 13 85 57 109 98l20 -6c-26 -78 -113 -164 -162 -164c-45 0 -62 37 -46 101l75 306l-85 19v5s56 65 121 65c38 0 56 -31 39 -104l-74 -319zM114 551h-44l139 205h56l51 -205h-42l-49 141z" />
    <glyph glyph-name="idieresis" unicode="&#xef;" horiz-adv-x="293" 
d="M125 595c-28 0 -50 21 -50 49s22 50 50 50s51 -22 51 -50s-23 -49 -51 -49zM295 595c-28 0 -50 21 -50 49s22 50 50 50s51 -22 51 -50s-23 -49 -51 -49zM139 61c44 13 85 57 109 98l20 -6c-26 -78 -113 -164 -162 -164c-45 0 -62 37 -46 101l75 306l-85 19v5
s56 65 121 65c38 0 56 -31 39 -104l-74 -319z" />
    <glyph glyph-name="ntilde" unicode="&#xf1;" horiz-adv-x="548" 
d="M34 -1l105 401l-85 15v5s55 65 110 65c56 0 65 -46 44 -122l-27 -93h4c68 99 149 214 243 214c44 0 64 -29 45 -106l-80 -316l3 -1c45 13 84 57 109 98l20 -6c-26 -79 -114 -164 -161 -164c-48 0 -64 37 -47 102l75 280c6 23 3 40 -18 40c-86 0 -213 -225 -242 -359
l-10 -45l-75 -21zM350 621l-25 12c-72 35 -82 15 -105 -37l-29 13l5 14c36 102 94 109 165 75l23 -11c81 -39 93 -18 118 39l28 -12l-6 -17c-39 -110 -93 -119 -174 -76z" />
    <glyph glyph-name="oacute" unicode="&#xf3;" horiz-adv-x="477" 
d="M123 137c0 -45 6 -118 55 -118c89 0 174 184 174 312c0 28 1 124 -59 124c-92 0 -170 -200 -170 -318zM303 485c102 0 140 -86 140 -167c0 -145 -100 -329 -268 -329c-97 0 -141 82 -141 174c0 141 100 322 269 322zM374 756h71v-19l-124 -186h-46z" />
    <glyph glyph-name="ograve" unicode="&#xf2;" horiz-adv-x="477" 
d="M123 137c0 -45 6 -118 55 -118c89 0 174 184 174 312c0 28 1 124 -59 124c-92 0 -170 -200 -170 -318zM303 485c102 0 140 -86 140 -167c0 -145 -100 -329 -268 -329c-97 0 -141 82 -141 174c0 141 100 322 269 322zM215 756h72l41 -205h-44l-69 186v19z" />
    <glyph glyph-name="ocircumflex" unicode="&#xf4;" horiz-adv-x="477" 
d="M123 137c0 -45 6 -118 55 -118c89 0 174 184 174 312c0 28 1 124 -59 124c-92 0 -170 -200 -170 -318zM303 485c102 0 140 -86 140 -167c0 -145 -100 -329 -268 -329c-97 0 -141 82 -141 174c0 141 100 322 269 322zM219 551h-44l139 205h56l51 -205h-42l-49 141z" />
    <glyph glyph-name="odieresis" unicode="&#xf6;" horiz-adv-x="477" 
d="M123 137c0 -45 6 -118 55 -118c89 0 174 184 174 312c0 28 1 124 -59 124c-92 0 -170 -200 -170 -318zM303 485c102 0 140 -86 140 -167c0 -145 -100 -329 -268 -329c-97 0 -141 82 -141 174c0 141 100 322 269 322zM186 644c0 28 22 50 50 50s51 -22 51 -50
s-23 -49 -51 -49s-50 21 -50 49zM356 644c0 28 22 50 50 50s51 -22 51 -50s-23 -49 -51 -49s-50 21 -50 49z" />
    <glyph glyph-name="otilde" unicode="&#xf5;" horiz-adv-x="477" 
d="M303 485c102 0 140 -86 140 -167c0 -145 -100 -329 -268 -329c-97 0 -141 82 -141 174c0 141 100 322 269 322zM123 137c0 -45 6 -118 55 -118c89 0 174 184 174 312c0 28 1 124 -59 124c-92 0 -170 -200 -170 -318zM314 621l-25 12c-72 35 -82 15 -105 -37l-29 13l5 14
c36 102 94 109 165 75l23 -11c81 -39 93 -18 118 39l28 -12l-6 -17c-39 -110 -93 -119 -174 -76z" />
    <glyph glyph-name="uacute" unicode="&#xfa;" horiz-adv-x="539" 
d="M135 400l-86 15v5s54 65 120 65c44 0 56 -37 40 -103l-71 -292c-5 -22 0 -30 13 -30c73 0 219 245 234 315l20 89l74 21l13 -13l-100 -410l3 -1c44 13 85 57 109 98l20 -6c-26 -78 -113 -164 -162 -164c-46 0 -59 37 -42 105l31 123h-3c-69 -83 -145 -230 -250 -230
c-38 0 -61 29 -40 115zM401 756h71v-19l-124 -186h-46z" />
    <glyph glyph-name="ugrave" unicode="&#xf9;" horiz-adv-x="539" 
d="M135 400l-86 15v5s54 65 120 65c44 0 56 -37 40 -103l-71 -292c-5 -22 0 -30 13 -30c73 0 219 245 234 315l20 89l74 21l13 -13l-100 -410l3 -1c44 13 85 57 109 98l20 -6c-26 -78 -113 -164 -162 -164c-46 0 -59 37 -42 105l31 123h-3c-69 -83 -145 -230 -250 -230
c-38 0 -61 29 -40 115zM241 756h72l41 -205h-44l-69 186v19z" />
    <glyph glyph-name="ucircumflex" unicode="&#xfb;" horiz-adv-x="539" 
d="M135 400l-86 15v5s54 65 120 65c44 0 56 -37 40 -103l-71 -292c-5 -22 0 -30 13 -30c73 0 219 245 234 315l20 89l74 21l13 -13l-100 -410l3 -1c44 13 85 57 109 98l20 -6c-26 -78 -113 -164 -162 -164c-46 0 -59 37 -42 105l31 123h-3c-69 -83 -145 -230 -250 -230
c-38 0 -61 29 -40 115zM245 551h-44l139 205h56l51 -205h-42l-49 141z" />
    <glyph glyph-name="udieresis" unicode="&#xfc;" horiz-adv-x="539" 
d="M135 400l-86 15v5s54 65 120 65c44 0 56 -37 40 -103l-71 -292c-5 -22 0 -30 13 -30c73 0 219 245 234 315l20 89l74 21l13 -13l-100 -410l3 -1c44 13 85 57 109 98l20 -6c-26 -78 -113 -164 -162 -164c-46 0 -59 37 -42 105l31 123h-3c-69 -83 -145 -230 -250 -230
c-38 0 -61 29 -40 115zM213 644c0 28 22 50 50 50s51 -22 51 -50s-23 -49 -51 -49s-50 21 -50 49zM383 644c0 28 22 50 50 50s51 -22 51 -50s-23 -49 -51 -49s-50 21 -50 49z" />
    <glyph glyph-name="dagger" unicode="&#x2020;" horiz-adv-x="305" 
d="M81 570l10 54l104 -4l19 113h57l-27 -113l107 4l-10 -54l-107 4l-50 -275l-57 -1l60 276z" />
    <glyph glyph-name="degree" unicode="&#xb0;" horiz-adv-x="341" 
d="M69 603c0 82 68 148 151 148c84 0 146 -66 146 -148c0 -83 -68 -149 -150 -149c-85 0 -147 66 -147 149zM121 603c0 -58 41 -103 97 -103s97 45 97 103s-41 103 -97 103s-97 -45 -97 -103z" />
    <glyph glyph-name="cent" unicode="&#xa2;" horiz-adv-x="415" 
d="M122 -125l32 114c-70 4 -115 65 -115 142c0 97 48 216 157 297c26 20 64 41 96 51l37 133h40l-36 -127c46 -3 84 -26 84 -50c0 -31 -28 -69 -31 -69c-26 26 -48 47 -70 58l-104 -373c42 12 104 61 141 115l18 -12c-25 -49 -100 -136 -175 -159l-33 -120h-41zM129 154
c0 -67 18 -93 43 -102l106 380c-83 -7 -149 -162 -149 -278z" />
    <glyph glyph-name="sterling" unicode="&#xa3;" horiz-adv-x="644" 
d="M93 255l7 44h119l30 112c44 163 173 242 229 242c48 0 100 -35 100 -96c0 -21 -24 -42 -66 -46c-12 71 -36 99 -65 99c-30 0 -63 -37 -97 -163l-40 -148h196l-7 -44h-201l-3 -14c-30 -110 -84 -177 -139 -215c38 -17 75 -39 108 -62l50 -35c76 -53 126 -87 167 -87
c49 0 40 88 35 132c33 0 71 -7 71 -46c0 -43 -48 -130 -156 -130c-97 0 -196 88 -277 150l-60 46c-25 -9 -48 -13 -67 -13c-44 0 -53 18 -53 33c0 24 37 42 64 42c25 0 54 -6 83 -17c30 27 45 66 58 111l28 105h-114z" />
    <glyph glyph-name="section" unicode="&#xa7;" horiz-adv-x="525" 
d="M217 -76c0 44 -25 98 -47 155l-44 114c-19 50 -33 100 -33 146c0 174 267 327 371 327c44 0 66 -25 66 -51c0 -24 -20 -47 -48 -47c0 0 -23 36 -76 36c-24 0 -56 -8 -89 -24c-7 -11 -15 -23 -15 -54c0 -44 25 -98 47 -155l44 -114c19 -50 33 -100 33 -146
c0 -174 -267 -327 -371 -327c-44 0 -66 25 -66 51c0 24 20 47 48 47c0 0 23 -36 76 -36c24 0 56 8 88 24c7 11 16 23 16 54zM175 366c0 -45 16 -94 33 -142l34 -94c29 -80 36 -113 36 -152c0 -26 -9 -50 -15 -65h3c44 40 78 96 78 171c0 45 -16 94 -33 142l-34 94
c-29 80 -36 113 -36 152c0 26 9 50 15 65h-3c-44 -40 -78 -96 -78 -171z" />
    <glyph glyph-name="bullet" unicode="&#x2022;" horiz-adv-x="339" 
d="M161 179c-49 0 -92 43 -92 93s43 92 92 92c51 0 93 -42 93 -92s-42 -93 -93 -93z" />
    <glyph glyph-name="paragraph" unicode="&#xb6;" horiz-adv-x="588" 
d="M174 -208c-84 0 -162 45 -162 148c0 71 52 128 128 128c45 0 67 -33 67 -65c0 -34 -26 -63 -64 -66l-67 39h-7c-6 -7 -7 -21 -7 -37c0 -67 42 -110 120 -110c92 0 139 59 162 173l123 622h-53l-83 -420h-57c-113 0 -187 88 -188 187c-2 156 149 273 279 273h252l-6 -30
l-91 -28l-118 -597c-30 -155 -110 -217 -228 -217z" />
    <glyph glyph-name="germandbls" unicode="&#xdf;" horiz-adv-x="496" 
d="M528 632c0 -141 -188 -148 -188 -229c0 -23 7 -40 25 -75l31 -57c36 -67 50 -103 50 -138c0 -68 -86 -147 -171 -147c-52 0 -84 24 -84 62c0 19 10 39 10 39c54 -33 89 -45 125 -45c34 0 52 22 52 48c0 28 -12 50 -28 79l-42 77c-33 60 -42 82 -42 112
c0 132 190 129 190 251c0 48 -33 75 -78 75c-51 0 -153 -56 -196 -315l-60 -354c-41 -243 -176 -275 -221 -275c-25 0 -66 19 -66 57c0 18 12 41 25 50c26 -24 62 -58 90 -58c37 0 57 55 73 150l70 411c41 243 240 396 316 396c86 0 119 -61 119 -114z" />
    <glyph glyph-name="registered" unicode="&#xae;" horiz-adv-x="400" 
d="M65 560c0 109 90 194 199 194s196 -85 196 -194s-90 -193 -199 -193s-196 83 -196 193zM96 560c0 -94 73 -167 166 -167c94 0 167 72 167 167c0 94 -73 167 -167 167s-166 -73 -166 -167zM148 464l4 15l28 7l32 160l-27 6l4 15h85c58 0 89 -18 89 -51
c0 -35 -38 -52 -64 -60c44 -73 39 -71 71 -78l-4 -16c-55 0 -65 2 -108 85h-24l-12 -62l23 -7l-3 -14h-94zM254 648l-16 -80h35c29 8 43 25 43 44c0 22 -19 38 -62 36z" />
    <glyph glyph-name="copyright" unicode="&#xa9;" horiz-adv-x="813" 
d="M66 327c8 193 168 346 359 346s340 -153 332 -346c-6 -193 -167 -345 -358 -345s-339 152 -333 345zM100 327c-6 -175 129 -316 301 -316s315 141 321 316c8 175 -127 316 -299 316s-315 -141 -323 -316zM399 132c-100 0 -184 56 -184 171c0 104 93 219 245 219
c48 0 88 -14 118 -26l-14 -108h-28l-16 81c-22 11 -53 19 -83 19c-93 0 -145 -76 -145 -172c0 -88 58 -149 125 -149c17 0 33 3 47 8l59 94h29l-29 -114c-30 -10 -64 -23 -124 -23z" />
    <glyph glyph-name="trademark" unicode="&#x2122;" horiz-adv-x="833" 
d="M360 322l6 29l39 9l53 263l-35 10l6 31h141l37 -227h3l127 227h131l-6 -31l-39 -10l-53 -263l37 -9l-6 -29h-147l6 30l44 9l54 266h-4l-143 -252l-16 -30h-41l-4 28l-44 254h-4l-54 -263l49 -14l-6 -28h-131zM111 664h285l-17 -108h-27l-11 75h-60l-55 -270l42 -10
l-6 -29h-155l6 29l47 10l55 270h-62l-42 -75h-26z" />
    <glyph glyph-name="acute" unicode="&#xb4;" horiz-adv-x="400" 
d="M214 756h71v-19l-124 -186h-46z" />
    <glyph glyph-name="dieresis" unicode="&#xa8;" horiz-adv-x="400" 
d="M64 644c0 28 22 50 50 50s51 -22 51 -50s-23 -49 -51 -49s-50 21 -50 49zM234 644c0 28 22 50 50 50s51 -22 51 -50s-23 -49 -51 -49s-50 21 -50 49z" />
    <glyph glyph-name="notequal" unicode="&#x2260;" horiz-adv-x="558" 
d="M42 293v55h296l99 110h61l-100 -110h118v-55h-167l-82 -91h249v-55h-299l-99 -110h-58l98 110h-116v55h166l81 91h-247z" />
    <glyph glyph-name="AE" unicode="&#xc6;" horiz-adv-x="920" 
d="M685 320l-137 1l-53 -274h242l88 132h36l-46 -179h-502l6 33l86 23l52 265h-176l-179 -261l86 -27l-7 -33h-222l6 32l57 23l406 551h-1l-86 26l6 32h494l74 4l-41 -177h-34l-11 128h-222l-49 -252h133l45 82h30l-41 -204l-30 -1zM516 619h-20l-182 -252h152z" />
    <glyph glyph-name="Oslash" unicode="&#xd8;" horiz-adv-x="737" 
d="M93 -50h-51l86 111c-45 50 -75 118 -75 201c0 191 140 417 406 417c40 0 82 -12 119 -35l61 79h51l-79 -102c57 -49 99 -126 99 -224c0 -198 -151 -418 -406 -418c-52 0 -104 20 -147 54zM610 423c0 63 -12 114 -36 150l-382 -495c26 -35 68 -55 129 -55
c178 0 289 226 289 400zM153 229c0 -43 5 -81 17 -112l376 486c-25 21 -58 32 -99 32c-153 0 -294 -179 -294 -406z" />
    <glyph glyph-name="plusminus" unicode="&#xb1;" horiz-adv-x="557" 
d="M515 338h-206v-208h-62v208h-206v58h206v208h62v-208h206v-58zM515 0h-474v56h474v-56z" />
    <glyph glyph-name="lessequal" unicode="&#x2264;" horiz-adv-x="558" 
d="M511 460l-386 -144l386 -143v-67l-472 180v59l472 180v-65zM511 0h-472v56h472v-56z" />
    <glyph glyph-name="greaterequal" unicode="&#x2265;" horiz-adv-x="558" 
d="M425 314l-386 143v68l472 -180v-59l-472 -180v65zM511 0h-472v56h472v-56z" />
    <glyph glyph-name="yen" unicode="&#xa5;" horiz-adv-x="617" 
d="M62 248l9 44h196l-125 290l-55 22l6 32h241l-6 -32l-88 -21l103 -245h3l196 240l-85 26l7 32h206l-6 -32l-58 -22l-240 -290h202l-9 -44h-203l-16 -75h204l-9 -45h-204l-14 -72l86 -23l-7 -33h-272l7 33l94 23l14 72h-200l8 45h201l15 75h-201z" />
    <glyph glyph-name="ordfeminine" unicode="&#xaa;" horiz-adv-x="454" 
d="M379 636h55l-93 -337l3 -1c35 10 67 42 86 74l17 -7c-25 -66 -94 -131 -134 -131c-37 0 -56 28 -34 92l23 75h-3c-38 -51 -103 -170 -185 -170c-42 0 -67 33 -67 76c-3 152 152 318 267 318c22 0 43 -6 57 -14zM155 298c50 0 158 154 180 226l11 36c-15 19 -33 31 -55 31
c-61 0 -161 -139 -161 -255c0 -21 6 -38 25 -38z" />
    <glyph glyph-name="ordmasculine" unicode="&#xba;" horiz-adv-x="409" 
d="M135 349c0 -36 5 -89 44 -89c71 0 140 153 140 253c0 26 0 92 -47 92c-74 0 -137 -163 -137 -256zM280 632c85 0 119 -68 119 -139c0 -117 -83 -260 -223 -260c-82 0 -119 66 -119 144c0 115 82 255 223 255z" />
    <glyph glyph-name="ae" unicode="&#xe6;" horiz-adv-x="610" 
d="M361 -11c-56 0 -100 25 -115 84c-41 -45 -83 -84 -144 -84c-40 0 -99 21 -99 99c0 63 55 99 120 119l137 42l6 27c14 83 -5 162 -60 162c-21 0 -38 -8 -52 -20c-12 -46 -19 -100 -19 -100s-19 -5 -31 -5c-20 0 -42 2 -42 34c0 50 94 135 172 138c74 -2 109 -49 114 -100
h2c49 74 113 100 165 100c61 0 89 -27 89 -70c0 -95 -129 -155 -272 -196c-3 -18 -5 -37 -5 -56c-2 -63 15 -109 69 -109c44 0 96 40 123 80l20 -12c-25 -57 -97 -133 -178 -133zM252 212l1 5l-68 -23c-69 -23 -92 -54 -93 -89c-1 -32 18 -60 49 -60c49 0 87 53 100 75
c-1 26 3 57 11 92zM486 446c-50 0 -118 -84 -146 -194c106 35 179 83 179 158c0 26 -11 36 -33 36z" />
    <glyph glyph-name="oslash" unicode="&#xf8;" horiz-adv-x="477" 
d="M38 -50h-45l75 99c-22 31 -34 71 -34 114c0 141 100 322 269 322c28 0 53 -9 73 -24l49 65h45l-68 -90c27 -32 41 -76 41 -118c0 -145 -100 -329 -268 -329c-32 0 -60 12 -83 33zM357 343c0 10 0 21 -1 31l-231 -308c9 -32 26 -47 53 -47c89 0 179 191 179 324zM118 131
v-15l228 304c-9 21 -26 35 -53 35c-92 0 -175 -206 -175 -324z" />
    <glyph glyph-name="questiondown" unicode="&#xbf;" horiz-adv-x="422" 
d="M273 -15l-14 -103l-32 11c-86 30 -192 116 -192 238c0 78 37 125 105 138l106 19l28 89h46l-31 -169l-126 -19c-59 -9 -80 -35 -80 -73c0 -57 74 -96 167 -124zM319 577c33 0 61 -28 61 -61s-28 -61 -61 -61s-61 28 -61 61s28 61 61 61z" />
    <glyph glyph-name="exclamdown" unicode="&#xa1;" horiz-adv-x="285" 
d="M122 -125h-92l122 502h45zM198 574c33 0 61 -28 61 -61s-28 -61 -61 -61s-61 28 -61 61s28 61 61 61z" />
    <glyph glyph-name="florin" unicode="&#x192;" horiz-adv-x="456" 
d="M70 273l6 44h91c43 161 150 287 261 287c48 0 67 -28 67 -54s-20 -50 -31 -64c-31 33 -59 64 -94 64c-31 0 -68 -22 -118 -233h130l-10 -44h-130l-6 -31l-47 -227c-50 -241 -176 -275 -221 -275c-25 0 -66 19 -66 57c0 18 12 41 25 50c26 -24 62 -58 90 -58
c37 0 54 55 73 150l66 334h-86z" />
    <glyph glyph-name="approxequal" unicode="&#x2248;" horiz-adv-x="558" 
d="M94 277l-45 18c29 62 64 99 123 99c23 0 50 -5 76 -11l66 -16c30 -7 62 -16 88 -16c34 0 51 22 71 59l45 -18c-29 -63 -64 -97 -124 -97c-30 0 -66 7 -98 15l-65 17c-23 6 -45 12 -66 12c-34 0 -52 -26 -71 -62zM84 117l-45 18c29 62 64 99 123 99c23 0 50 -5 76 -11
l66 -16c30 -7 62 -16 88 -16c34 0 51 22 71 59l45 -18c-29 -63 -64 -97 -124 -97c-30 0 -66 7 -98 15l-65 17c-23 6 -45 12 -66 12c-34 0 -52 -26 -71 -62z" />
    <glyph glyph-name="guillemotleft" unicode="&#xab;" horiz-adv-x="623" 
d="M347 461l23 -26l-197 -204l129 -197l-27 -22l-196 211v20zM558 461l23 -26l-197 -204l129 -197l-27 -22l-196 211v20z" />
    <glyph glyph-name="guillemotright" unicode="&#xbb;" horiz-adv-x="622" 
d="M65 12l-23 26l196 203l-128 198l27 22l196 -211v-20zM275 12l-23 26l196 203l-128 198l27 22l196 -211v-20z" />
    <glyph glyph-name="ellipsis" unicode="&#x2026;" horiz-adv-x="780" 
d="M100 -4c-37 0 -69 32 -69 70c0 37 32 69 69 69c38 0 70 -32 70 -69c0 -38 -32 -70 -70 -70zM360 -4c-37 0 -69 32 -69 70c0 37 32 69 69 69c38 0 70 -32 70 -69c0 -38 -32 -70 -70 -70zM620 -4c-37 0 -69 32 -69 70c0 37 32 69 69 69c38 0 70 -32 70 -69
c0 -38 -32 -70 -70 -70z" />
    <glyph glyph-name="Agrave" unicode="&#xc0;" horiz-adv-x="674" 
d="M-41 0l6 32l58 23l353 609l33 5l35 10l91 -627l62 -20l-6 -32h-239l7 33l85 23l-26 180h-232l-94 -176l89 -27l-7 -33h-215zM369 579l-151 -283h192l-40 283h-1zM299 875h93l49 -139h-52l-90 119v20z" />
    <glyph glyph-name="Atilde" unicode="&#xc3;" horiz-adv-x="674" 
d="M-41 0l6 32l58 23l353 609l33 5l35 10l91 -627l62 -20l-6 -32h-239l7 33l85 23l-26 180h-232l-94 -176l89 -27l-7 -33h-215zM369 579l-151 -283h192l-40 283h-1zM417 769l-25 12c-72 35 -82 15 -105 -37l-29 13l5 14c36 102 94 109 165 75l23 -11c81 -39 93 -18 118 39
l28 -12l-6 -17c-39 -110 -93 -119 -174 -76z" />
    <glyph glyph-name="Otilde" unicode="&#xd5;" horiz-adv-x="737" 
d="M459 679c130 0 251 -107 251 -282c0 -198 -151 -418 -406 -418c-129 0 -251 107 -251 283c0 191 140 417 406 417zM610 416c0 124 -53 219 -170 219c-144 0 -287 -184 -287 -394c0 -122 51 -218 168 -218c178 0 289 230 289 393zM476 769l-25 12c-72 35 -82 15 -105 -37
l-29 13l5 14c36 102 94 109 165 75l23 -11c81 -39 93 -18 118 39l28 -12l-6 -17c-39 -110 -93 -119 -174 -76z" />
    <glyph glyph-name="OE" unicode="&#x152;" horiz-adv-x="972" 
d="M866 0h-316c-89 0 -110 -1 -225 -3c-151 -3 -270 102 -270 275c0 200 183 398 392 398c113 0 136 -6 307 -6h140l74 4l-43 -177h-34l-9 128h-223l-49 -252h134l43 82h30l-39 -204h-30l-11 76h-136l-54 -274h241l90 132h35zM481 158l90 458s-54 13 -124 13
c-173 0 -288 -189 -288 -383c-2 -99 42 -210 177 -210c100 0 126 30 145 122z" />
    <glyph glyph-name="oe" unicode="&#x153;" horiz-adv-x="702" 
d="M448 -11c-59 0 -89 42 -103 86c-42 -51 -98 -86 -170 -86c-97 0 -141 82 -141 174c0 141 100 322 269 322c76 0 110 -56 121 -116c52 68 122 116 189 116c60 0 83 -27 83 -70c0 -88 -131 -165 -278 -185c-4 -19 -6 -39 -6 -59c0 -74 28 -117 75 -117s98 42 124 80l20 -12
c-19 -42 -91 -133 -183 -133zM293 455c-92 0 -170 -200 -170 -318c0 -45 6 -118 55 -118c89 0 174 184 174 312c0 28 1 124 -59 124zM587 447c-53 0 -132 -83 -162 -188c81 12 188 89 188 158c0 18 -9 30 -26 30z" />
    <glyph glyph-name="endash" unicode="&#x2013;" horiz-adv-x="408" 
d="M12 259l12 59h380l-12 -59h-380z" />
    <glyph glyph-name="emdash" unicode="&#x2014;" horiz-adv-x="808" 
d="M20 259l12 59h760l-11 -59h-761z" />
    <glyph glyph-name="quotedblleft" unicode="&#x201c;" horiz-adv-x="509" 
d="M320 779c-58 -30 -97 -81 -97 -125c0 -31 19 -62 62 -76c0 -49 -25 -77 -62 -77s-75 28 -75 94c0 100 73 179 157 212c0 0 13 -24 15 -28zM538 779c-58 -30 -97 -81 -97 -125c0 -31 19 -62 62 -76c0 -49 -25 -77 -62 -77s-75 28 -75 94c0 100 73 179 157 212
c0 0 13 -24 15 -28z" />
    <glyph glyph-name="quotedblright" unicode="&#x201d;" horiz-adv-x="511" 
d="M125 522c58 30 97 81 97 125c0 31 -19 62 -62 76c0 49 25 77 62 77s75 -28 75 -94c0 -100 -73 -179 -157 -212c0 0 -13 24 -15 28zM343 522c58 30 97 81 97 125c0 31 -19 62 -62 76c0 49 25 77 62 77s75 -28 75 -94c0 -100 -73 -179 -157 -212c0 0 -13 24 -15 28z" />
    <glyph glyph-name="quoteleft" unicode="&#x2018;" horiz-adv-x="291" 
d="M320 779c-58 -30 -97 -81 -97 -125c0 -31 19 -62 62 -76c0 -49 -25 -77 -62 -77s-75 28 -75 94c0 100 73 179 157 212c0 0 13 -24 15 -28z" />
    <glyph glyph-name="quoteright" unicode="&#x2019;" horiz-adv-x="291" 
d="M123 522c58 30 97 81 97 125c0 31 -19 62 -62 76c0 49 25 77 62 77s75 -28 75 -94c0 -100 -73 -179 -157 -212c0 0 -13 24 -15 28z" />
    <glyph glyph-name="divide" unicode="&#xf7;" horiz-adv-x="558" 
d="M513 208h-474v58h474v-58zM275 -4c-37 0 -69 32 -69 70c0 37 32 69 69 69c38 0 70 -32 70 -69c0 -38 -32 -70 -70 -70zM276 338c-37 0 -69 32 -69 70c0 37 32 69 69 69c38 0 70 -32 70 -69c0 -38 -32 -70 -70 -70z" />
    <glyph glyph-name="ydieresis" unicode="&#xff;" horiz-adv-x="469" 
d="M50 296h-24c3 103 56 188 117 188c68 0 111 -99 111 -254c0 -88 -13 -180 -35 -237h4c71 81 142 183 166 306c2 66 -14 118 -35 165c17 9 32 15 48 15c27 0 55 -17 55 -75c0 -273 -390 -662 -528 -662c-35 0 -66 21 -66 60c0 28 23 55 58 55c32 0 48 -23 58 -63h3
c159 63 193 280 193 414c0 111 -25 196 -59 196c-26 0 -52 -33 -66 -108zM177 644c0 28 22 50 50 50s51 -22 51 -50s-23 -49 -51 -49s-50 21 -50 49zM347 644c0 28 22 50 50 50s51 -22 51 -50s-23 -49 -51 -49s-50 21 -50 49z" />
    <glyph glyph-name="Ydieresis" unicode="&#x178;" horiz-adv-x="627" 
d="M619 610l-254 -344l-42 -210l86 -23l-7 -33h-272l7 33l94 23l39 197l-127 357l-55 22l6 32h241l-6 -32l-88 -21l99 -303h3l212 298l-85 26l7 32h206l-6 -32zM325 761c-31 0 -56 25 -56 56s25 57 56 57s57 -26 57 -57s-26 -56 -57 -56zM546 761c-31 0 -57 25 -57 56
s26 57 57 57s57 -26 57 -57s-26 -56 -57 -56z" />
    <glyph glyph-name="fraction" unicode="&#x2044;" horiz-adv-x="235" 
d="M-142 -87l-38 32l603 781l39 -31z" />
    <glyph glyph-name="Euro" unicode="&#x20ac;" horiz-adv-x="586" 
d="M55 327l12 44h74c63 164 203 233 301 233c67 0 140 -39 140 -85c0 -25 -13 -39 -41 -68c-37 50 -89 102 -151 102c-69 0 -129 -81 -162 -182h239l-12 -44h-239c-6 -25 -10 -50 -13 -75h231l-12 -44h-221v-3c0 -97 46 -163 127 -163c74 0 113 37 164 85l22 -23
c-69 -75 -116 -127 -225 -127c-127 0 -180 112 -180 203c0 9 0 19 1 28h-88l12 44h79c3 26 7 51 14 75h-72z" />
    <glyph glyph-name="guilsinglleft" unicode="&#x2039;" horiz-adv-x="412" 
d="M347 461l23 -26l-197 -204l129 -197l-27 -22l-196 211v20z" />
    <glyph glyph-name="guilsinglright" unicode="&#x203a;" horiz-adv-x="412" 
d="M65 12l-23 26l196 203l-128 198l27 22l196 -211v-20z" />
    <glyph glyph-name="daggerdbl" unicode="&#x2021;" horiz-adv-x="305" 
d="M81 570l10 54l104 -4l19 113h57l-27 -113l107 4l-10 -54l-107 4l-23 -112l109 4l-11 -54l-106 4l-19 -117l-57 -1l27 118l-104 -4l11 54l103 -4l23 112z" />
    <glyph glyph-name="periodcentered" unicode="&#xb7;" horiz-adv-x="260" 
d="M131 202c-37 0 -69 32 -69 70c0 37 32 69 69 69c38 0 70 -32 70 -69c0 -38 -32 -70 -70 -70z" />
    <glyph glyph-name="quotesinglbase" unicode="&#x201a;" horiz-adv-x="291" 
d="M1 -112c58 30 107 85 107 135c0 31 -19 62 -62 76c0 49 25 77 62 77s75 -28 75 -94c0 -105 -83 -189 -167 -222c0 0 -13 24 -15 28z" />
    <glyph glyph-name="quotedblbase" unicode="&#x201e;" horiz-adv-x="509" 
d="M1 -112c58 30 107 85 107 135c0 31 -19 62 -62 76c0 49 25 77 62 77s75 -28 75 -94c0 -105 -83 -189 -167 -222c0 0 -13 24 -15 28zM219 -112c58 30 107 85 107 135c0 31 -19 62 -62 76c0 49 25 77 62 77s75 -28 75 -94c0 -105 -83 -189 -167 -222c0 0 -13 24 -15 28z
" />
    <glyph glyph-name="perthousand" unicode="&#x2030;" horiz-adv-x="1291" 
d="M252 566c-65 0 -124 -86 -124 -191c0 -55 25 -95 69 -95c61 0 124 77 124 190c0 56 -25 96 -69 96zM193 241c-85 0 -139 66 -139 150c0 109 97 214 203 214c84 0 138 -66 138 -150c0 -111 -94 -214 -202 -214zM692 308c-65 0 -124 -86 -124 -191c0 -55 25 -95 69 -95
c61 0 124 77 124 190c0 56 -25 96 -69 96zM633 -17c-85 0 -139 66 -139 150c0 109 97 214 203 214c84 0 138 -66 138 -150c0 -111 -94 -214 -202 -214zM1089 308c-65 0 -124 -86 -124 -191c0 -55 25 -95 69 -95c61 0 124 77 124 190c0 56 -25 96 -69 96zM1030 -17
c-85 0 -139 66 -139 150c0 109 97 214 203 214c84 0 138 -66 138 -150c0 -111 -94 -214 -202 -214zM110 -50l598 680h64l-598 -680h-64z" />
    <glyph glyph-name="Acircumflex" unicode="&#xc2;" horiz-adv-x="674" 
d="M-41 0l6 32l58 23l353 609l33 5l35 10l91 -627l62 -20l-6 -32h-239l7 33l85 23l-26 180h-232l-94 -176l89 -27l-7 -33h-215zM369 579l-151 -283h192l-40 283h-1zM334 736h-53l116 129h76l65 -129h-46l-65 79z" />
    <glyph glyph-name="Ecircumflex" unicode="&#xca;" horiz-adv-x="603" 
d="M365 321h-134l-53 -274h242l88 132h36l-46 -179h-502l6 33l86 23l108 549l-76 27l6 32h399l74 4l-43 -177h-34l-9 128h-223l-49 -252h133l45 82h30l-41 -204h-33zM320 736h-53l116 129h76l65 -129h-46l-65 79z" />
    <glyph glyph-name="Aacute" unicode="&#xc1;" horiz-adv-x="674" 
d="M-41 0l6 32l58 23l353 609l33 5l35 10l91 -627l62 -20l-6 -32h-239l7 33l85 23l-26 180h-232l-94 -176l89 -27l-7 -33h-215zM369 579l-151 -283h192l-40 283h-1zM471 875h93v-20l-135 -119h-52z" />
    <glyph glyph-name="Edieresis" unicode="&#xcb;" horiz-adv-x="603" 
d="M365 321h-134l-53 -274h242l88 132h36l-46 -179h-502l6 33l86 23l108 549l-76 27l6 32h399l74 4l-43 -177h-34l-9 128h-223l-49 -252h133l45 82h30l-41 -204h-33zM302 761c-31 0 -56 25 -56 56s25 57 56 57s57 -26 57 -57s-26 -56 -57 -56zM523 761c-31 0 -57 25 -57 56
s26 57 57 57s57 -26 57 -57s-26 -56 -57 -56z" />
    <glyph glyph-name="Egrave" unicode="&#xc8;" horiz-adv-x="603" 
d="M365 321h-134l-53 -274h242l88 132h36l-46 -179h-502l6 33l86 23l108 549l-76 27l6 32h399l74 4l-43 -177h-34l-9 128h-223l-49 -252h133l45 82h30l-41 -204h-33zM293 875h93l49 -139h-52l-90 119v20z" />
    <glyph glyph-name="Iacute" unicode="&#xcd;" horiz-adv-x="355" 
d="M-4 0l7 33l83 23l109 550l-75 26l6 32h253l-6 -32l-86 -26l-109 -550l76 -24l-6 -32h-252zM328 875h93v-20l-135 -119h-52z" />
    <glyph glyph-name="Icircumflex" unicode="&#xce;" horiz-adv-x="355" 
d="M-4 0l7 33l83 23l109 550l-75 26l6 32h253l-6 -32l-86 -26l-109 -550l76 -24l-6 -32h-252zM191 736h-53l116 129h76l65 -129h-46l-65 79z" />
    <glyph glyph-name="Idieresis" unicode="&#xcf;" horiz-adv-x="355" 
d="M-4 0l7 33l83 23l109 550l-75 26l6 32h253l-6 -32l-86 -26l-109 -550l76 -24l-6 -32h-252zM175 761c-31 0 -56 25 -56 56s25 57 56 57s57 -26 57 -57s-26 -56 -57 -56zM396 761c-31 0 -57 25 -57 56s26 57 57 57s57 -26 57 -57s-26 -56 -57 -56z" />
    <glyph glyph-name="Igrave" unicode="&#xcc;" horiz-adv-x="355" 
d="M-4 0l7 33l83 23l109 550l-75 26l6 32h253l-6 -32l-86 -26l-109 -550l76 -24l-6 -32h-252zM156 875h93l49 -139h-52l-90 119v20z" />
    <glyph glyph-name="Oacute" unicode="&#xd3;" horiz-adv-x="737" 
d="M459 679c130 0 251 -107 251 -282c0 -198 -151 -418 -406 -418c-129 0 -251 107 -251 283c0 191 140 417 406 417zM610 416c0 124 -53 219 -170 219c-144 0 -287 -184 -287 -394c0 -122 51 -218 168 -218c178 0 289 230 289 393zM530 875h93v-20l-135 -119h-52z" />
    <glyph glyph-name="Ocircumflex" unicode="&#xd4;" horiz-adv-x="737" 
d="M459 679c130 0 251 -107 251 -282c0 -198 -151 -418 -406 -418c-129 0 -251 107 -251 283c0 191 140 417 406 417zM610 416c0 124 -53 219 -170 219c-144 0 -287 -184 -287 -394c0 -122 51 -218 168 -218c178 0 289 230 289 393zM393 736h-53l116 129h76l65 -129h-46
l-65 79z" />
    <glyph glyph-name="Ograve" unicode="&#xd2;" horiz-adv-x="737" 
d="M459 679c130 0 251 -107 251 -282c0 -198 -151 -418 -406 -418c-129 0 -251 107 -251 283c0 191 140 417 406 417zM610 416c0 124 -53 219 -170 219c-144 0 -287 -184 -287 -394c0 -122 51 -218 168 -218c178 0 289 230 289 393zM358 875h93l49 -139h-52l-90 119v20z" />
    <glyph glyph-name="Uacute" unicode="&#xda;" horiz-adv-x="720" 
d="M314 -24c-151 0 -253 85 -210 304l66 326l-76 26l6 32h257l-6 -32l-86 -26l-69 -347c-29 -147 30 -226 141 -226c93 0 188 56 222 247l58 324l-108 28l6 32h250l-6 -32l-85 -26l-63 -336c-37 -197 -161 -294 -297 -294zM513 875h93v-20l-135 -119h-52z" />
    <glyph glyph-name="Ucircumflex" unicode="&#xdb;" horiz-adv-x="720" 
d="M314 -24c-151 0 -253 85 -210 304l66 326l-76 26l6 32h257l-6 -32l-86 -26l-69 -347c-29 -147 30 -226 141 -226c93 0 188 56 222 247l58 324l-108 28l6 32h250l-6 -32l-85 -26l-63 -336c-37 -197 -161 -294 -297 -294zM376 736h-53l116 129h76l65 -129h-46l-65 79z" />
    <glyph glyph-name="Ugrave" unicode="&#xd9;" horiz-adv-x="720" 
d="M314 -24c-151 0 -253 85 -210 304l66 326l-76 26l6 32h257l-6 -32l-86 -26l-69 -347c-29 -147 30 -226 141 -226c93 0 188 56 222 247l58 324l-108 28l6 32h250l-6 -32l-85 -26l-63 -336c-37 -197 -161 -294 -297 -294zM341 875h93l49 -139h-52l-90 119v20z" />
    <glyph glyph-name="dotlessi" unicode="&#x131;" horiz-adv-x="293" 
d="M139 61c44 13 85 57 109 98l20 -6c-26 -78 -113 -164 -162 -164c-45 0 -62 37 -46 101l75 306l-85 19v5s56 65 121 65c38 0 56 -31 39 -104l-74 -319z" />
    <glyph glyph-name="circumflex" unicode="&#x2c6;" horiz-adv-x="400" 
d="M120 551h-44l139 205h56l51 -205h-42l-49 141z" />
    <glyph glyph-name="tilde" unicode="&#x2dc;" horiz-adv-x="400" 
d="M189 621l-25 12c-72 35 -82 15 -105 -37l-29 13l5 14c36 102 94 109 165 75l23 -11c81 -39 93 -18 118 39l28 -12l-6 -17c-39 -110 -93 -119 -174 -76z" />
    <glyph glyph-name="macron" unicode="&#xaf;" horiz-adv-x="400" 
d="M52 627l13 60h282l-13 -60h-282z" />
    <glyph glyph-name="breve" unicode="&#x2d8;" horiz-adv-x="400" 
d="M176 566c-70 0 -107 61 -98 163h35c5 -69 30 -102 76 -102c48 0 85 50 101 102h34c-21 -96 -67 -163 -148 -163z" />
    <glyph glyph-name="dotaccent" unicode="&#x2d9;" horiz-adv-x="400" 
d="M147 651c0 29 24 53 53 53s53 -24 53 -53s-24 -53 -53 -53s-53 24 -53 53z" />
    <glyph glyph-name="ring" unicode="&#x2da;" horiz-adv-x="400" 
d="M83 674c0 65 52 114 117 114c66 0 117 -48 117 -114c0 -65 -52 -114 -117 -114c-66 0 -117 48 -117 114zM129 674c0 -43 32 -73 71 -73s71 30 71 73s-32 73 -71 73s-71 -30 -71 -73z" />
    <glyph glyph-name="cedilla" unicode="&#xb8;" horiz-adv-x="400" 
d="M111 -257v26c40 12 102 36 102 83c0 33 -27 45 -40 51l80 101h36l-51 -67c23 -10 49 -28 49 -64c0 -86 -109 -117 -176 -130z" />
    <glyph glyph-name="hungarumlaut" unicode="&#x2dd;" horiz-adv-x="400" 
d="M134 756h71v-19l-114 -186h-46zM284 756h71v-19l-114 -186h-46z" />
    <glyph glyph-name="ogonek" unicode="&#x2db;" horiz-adv-x="400" 
d="M256 0h39c-96 -85 -127 -113 -127 -156c0 -20 11 -36 40 -36c30 0 52 12 93 47l14 -17c-40 -45 -85 -97 -152 -97c-50 0 -78 28 -78 70c0 69 62 111 171 189z" />
    <glyph glyph-name="caron" unicode="&#x2c7;" horiz-adv-x="400" 
d="M277 756h44l-139 -205h-56l-51 205h42l49 -142z" />
    <glyph glyph-name="space_uni0326" horiz-adv-x="400" 
d="M106 -267l-8 27c70 26 98 52 98 81c0 22 -17 34 -46 38c2 31 26 58 61 58c40 0 65 -29 65 -65c0 -63 -72 -112 -170 -139z" />
    <glyph glyph-name="caron.alt" horiz-adv-x="400" 
d="M175 536h-28l45 210h89v-8z" />
    <glyph glyph-name="space_uni0326.alt" horiz-adv-x="400" 
d="M305 794l8 -27c-70 -26 -98 -52 -98 -81c0 -22 17 -34 46 -38c-2 -31 -26 -58 -61 -58c-40 0 -65 29 -65 65c0 63 72 112 170 139z" />
    <glyph glyph-name="grave.uc" horiz-adv-x="400" 
d="M197 875h93l49 -139h-52l-90 119v20z" />
    <glyph glyph-name="dieresis.uc" horiz-adv-x="400" 
d="M164 761c-31 0 -56 25 -56 56s25 57 56 57s57 -26 57 -57s-26 -56 -57 -56zM385 761c-31 0 -57 25 -57 56s26 57 57 57s57 -26 57 -57s-26 -56 -57 -56z" />
    <glyph glyph-name="macron.uc" horiz-adv-x="400" 
d="M138 782l13 60h282l-13 -60h-282z" />
    <glyph glyph-name="acute.uc" horiz-adv-x="400" 
d="M305 875h93v-20l-135 -119h-52z" />
    <glyph glyph-name="circumflex.uc" horiz-adv-x="400" 
d="M210 736h-53l116 129h76l65 -129h-46l-65 79z" />
    <glyph glyph-name="caron.uc" horiz-adv-x="400" 
d="M381 865h53l-116 -129h-76l-65 129h46l64 -80z" />
    <glyph glyph-name="breve.uc" horiz-adv-x="400" 
d="M280 732c-63 0 -100 49 -100 133h41c9 -49 33 -72 72 -72c38 0 70 32 89 72h38c-23 -80 -68 -133 -140 -133z" />
    <glyph glyph-name="dotaccent.uc" horiz-adv-x="400" 
d="M213 817c0 34 28 62 62 62s62 -28 62 -62s-28 -62 -62 -62s-62 28 -62 62z" />
    <glyph glyph-name="ring.uc" horiz-adv-x="400" 
d="M158 817c0 65 52 114 117 114c66 0 117 -48 117 -114c0 -65 -52 -114 -117 -114c-66 0 -117 48 -117 114zM204 817c0 -43 32 -73 71 -73s71 30 71 73s-32 73 -71 73s-71 -30 -71 -73z" />
    <glyph glyph-name="tilde.uc" horiz-adv-x="400" 
d="M264 769l-25 12c-72 35 -82 15 -105 -37l-29 13l5 14c36 102 94 109 165 75l23 -11c81 -39 93 -18 118 39l28 -12l-6 -17c-39 -110 -93 -119 -174 -76z" />
    <glyph glyph-name="hungarumlaut.uc" horiz-adv-x="400" 
d="M349 875h80v-19l-94 -120h-52zM208 875h80v-19l-94 -120h-52z" />
    <glyph glyph-name="Dcroat" unicode="&#x110;" horiz-adv-x="743" 
d="M5 0l7 33l84 23l49 250h-98l9 45h98l50 255l-75 26l6 32l206 2c237 3 379 -105 379 -297c0 -225 -201 -374 -430 -372zM410 306h-173l-37 -188c-13 -67 35 -81 90 -80c229 3 328 166 329 334c1 172 -125 257 -318 257l-55 -278h173z" />
    <glyph glyph-name="Eng" unicode="&#x14a;" horiz-adv-x="742" 
d="M684 606l-99 -499l-11 -56c-32 -160 -100 -252 -261 -269l-5 31c137 49 164 111 189 226l3 16l-264 491l-95 -483l111 -30l-7 -33h-249l6 33l84 23l107 540l-82 36l5 32h164l266 -496l85 433l-112 30l7 33h250l-7 -33z" />
    <glyph glyph-name="IJ" unicode="&#x132;" horiz-adv-x="686" 
d="M-4 0l7 33l83 23l109 550l-75 26l6 32h253l-6 -32l-86 -26l-109 -550l76 -24l-6 -32h-252zM652 606l-109 -555c-32 -160 -100 -252 -261 -269l-5 31c119 46 148 111 171 226l113 568l-86 21l7 36h262l-6 -32z" />
    <glyph glyph-name="uni0237" unicode="&#x237;" horiz-adv-x="261" 
d="M39 -61l108 457l-86 19v5s56 65 115 65c44 0 66 -30 46 -112l-86 -359c-37 -158 -129 -274 -221 -274c-25 0 -68 17 -68 53c0 22 13 45 27 54c25 -24 60 -58 88 -58c37 0 53 52 77 150z" />
    <glyph glyph-name="dcroat" unicode="&#x111;" horiz-adv-x="555" 
d="M246 553l10 44h181l19 76l-59 24l7 22l147 27l-36 -149h86l-10 -44h-86l-117 -491l3 -1c44 13 85 57 109 98l20 -6c-26 -78 -113 -164 -162 -164c-46 0 -62 34 -41 113l24 92h-3c-44 -53 -117 -208 -213 -208c-56 0 -94 38 -94 116c0 170 131 383 291 383
c30 0 60 -11 82 -23l23 91h-181zM380 361l8 35c-16 28 -49 57 -77 57c-96 0 -183 -196 -183 -318c0 -64 17 -77 38 -77c61 0 188 193 214 303z" />
    <glyph glyph-name="eng" unicode="&#x14b;" horiz-adv-x="511" 
d="M289 -61l103 432c6 23 3 40 -18 40c-86 0 -213 -225 -242 -359l-10 -45l-75 -21l-13 13l105 401l-85 15v5s55 65 110 65c56 0 65 -46 44 -122l-27 -93h4c68 99 149 214 243 214c44 0 64 -29 45 -106l-87 -364c-38 -158 -129 -274 -221 -274c-25 0 -68 17 -68 53
c0 22 13 45 27 54c25 -24 60 -58 88 -58c37 0 54 52 77 150z" />
    <glyph glyph-name="ij" unicode="&#x133;" horiz-adv-x="537" 
d="M135 396l-85 19v5s56 65 121 65c38 0 56 -31 39 -104l-74 -319l3 -1c44 13 85 57 109 98l20 -6c-26 -78 -113 -164 -162 -164c-45 0 -62 37 -46 101zM170 680c0 29 24 53 53 53s53 -24 53 -53s-24 -53 -53 -53s-53 24 -53 53zM315 -61l108 457l-86 19v5s56 65 115 65
c44 0 66 -30 46 -112l-86 -359c-37 -158 -129 -274 -221 -274c-25 0 -68 17 -68 53c0 22 13 45 27 54c25 -24 60 -58 88 -58c37 0 53 52 77 150zM458 680c0 29 24 53 53 53s53 -24 53 -53s-24 -53 -53 -53s-53 24 -53 53z" />
    <glyph glyph-name="Abreve" unicode="&#x102;" horiz-adv-x="674" 
d="M-41 0l6 32l58 23l353 609l33 5l35 10l91 -627l62 -20l-6 -32h-239l7 33l85 23l-26 180h-232l-94 -176l89 -27l-7 -33h-215zM369 579l-151 -283h192l-40 283h-1zM412 732c-63 0 -100 49 -100 133h41c9 -49 33 -72 72 -72c38 0 70 32 89 72h38c-23 -80 -68 -133 -140 -133
z" />
    <glyph glyph-name="Amacron" unicode="&#x100;" horiz-adv-x="674" 
d="M-41 0l6 32l58 23l353 609l33 5l35 10l91 -627l62 -20l-6 -32h-239l7 33l85 23l-26 180h-232l-94 -176l89 -27l-7 -33h-215zM369 579l-151 -283h192l-40 283h-1zM273 782l13 60h282l-13 -60h-282z" />
    <glyph glyph-name="Aogonek" unicode="&#x104;" horiz-adv-x="674" 
d="M-41 0l6 32l58 23l353 609l33 5l35 10l91 -627l62 -20l-6 -32h-124c-104 -74 -126 -109 -126 -153c0 -24 15 -38 40 -38s52 9 92 46l14 -17c-38 -45 -85 -97 -157 -97c-45 0 -73 23 -73 72c0 62 76 129 190 220l-29 203h-232l-94 -176l89 -27l-7 -33h-215zM369 579
l-151 -283h192l-40 283h-1z" />
    <glyph glyph-name="Aringacute" unicode="&#x1fa;" horiz-adv-x="674" 
d="M-41 0l6 32l58 23l353 609l33 5l35 10l91 -627l62 -20l-6 -32h-239l7 33l85 23l-26 180h-232l-94 -176l89 -27l-7 -33h-215zM369 579l-151 -283h192l-40 283h-1zM313 817c0 65 52 114 117 114c66 0 117 -48 117 -114c0 -65 -52 -114 -117 -114c-66 0 -117 48 -117 114z
M359 817c0 -43 32 -73 71 -73s71 30 71 73s-32 73 -71 73s-71 -30 -71 -73zM511 1097h93v-20l-135 -119h-52z" />
    <glyph glyph-name="AEacute" unicode="&#x1fc;" horiz-adv-x="920" 
d="M685 320l-137 1l-53 -274h242l88 132h36l-46 -179h-502l6 33l86 23l52 265h-176l-179 -261l86 -27l-7 -33h-222l6 32l57 23l406 551h-1l-86 26l6 32h494l74 4l-41 -177h-34l-11 128h-222l-49 -252h133l45 82h30l-41 -204l-30 -1zM516 619h-20l-182 -252h152zM649 875h93
v-20l-135 -119h-52z" />
    <glyph glyph-name="Cacute" unicode="&#x106;" horiz-adv-x="705" 
d="M361 -17c-168 0 -305 96 -305 307c0 180 149 389 429 389c77 0 130 -23 183 -53l-17 -178h-35l-28 145c-27 22 -66 43 -127 43c-181 0 -296 -190 -295 -353c1 -176 84 -257 208 -257c55 0 94 15 123 31l99 153h36l-54 -180c-51 -16 -118 -47 -217 -47zM545 875h93v-20
l-135 -119h-52z" />
    <glyph glyph-name="Ccaron" unicode="&#x10c;" horiz-adv-x="705" 
d="M361 -17c-168 0 -305 96 -305 307c0 180 149 389 429 389c77 0 130 -23 183 -53l-17 -178h-35l-28 145c-27 22 -66 43 -127 43c-181 0 -296 -190 -295 -353c1 -176 84 -257 208 -257c55 0 94 15 123 31l99 153h36l-54 -180c-51 -16 -118 -47 -217 -47zM588 865h53
l-116 -129h-76l-65 129h46l64 -80z" />
    <glyph glyph-name="Ccircumflex" unicode="&#x108;" horiz-adv-x="705" 
d="M361 -17c-168 0 -305 96 -305 307c0 180 149 389 429 389c77 0 130 -23 183 -53l-17 -178h-35l-28 145c-27 22 -66 43 -127 43c-181 0 -296 -190 -295 -353c1 -176 84 -257 208 -257c55 0 94 15 123 31l99 153h36l-54 -180c-51 -16 -118 -47 -217 -47zM407 736h-53
l116 129h76l65 -129h-46l-65 79z" />
    <glyph glyph-name="Cdotaccent" unicode="&#x10a;" horiz-adv-x="705" 
d="M361 -17c-168 0 -305 96 -305 307c0 180 149 389 429 389c77 0 130 -23 183 -53l-17 -178h-35l-28 145c-27 22 -66 43 -127 43c-181 0 -296 -190 -295 -353c1 -176 84 -257 208 -257c55 0 94 15 123 31l99 153h36l-54 -180c-51 -16 -118 -47 -217 -47zM440 817
c0 34 28 62 62 62s62 -28 62 -62s-28 -62 -62 -62s-62 28 -62 62z" />
    <glyph glyph-name="Dcaron" unicode="&#x10e;" horiz-adv-x="743" 
d="M301 629l-101 -511c-13 -67 35 -81 90 -80c229 3 328 166 329 334c1 172 -125 257 -318 257zM5 0l7 33l84 23l108 550l-75 26l6 32l206 2c237 3 379 -105 379 -297c0 -225 -201 -374 -430 -372zM500 865h53l-116 -129h-76l-65 129h46l64 -80z" />
    <glyph glyph-name="Ebreve" unicode="&#x114;" horiz-adv-x="603" 
d="M365 321h-134l-53 -274h242l88 132h36l-46 -179h-502l6 33l86 23l108 549l-76 27l6 32h399l74 4l-43 -177h-34l-9 128h-223l-49 -252h133l45 82h30l-41 -204h-33zM397 732c-63 0 -100 49 -100 133h41c9 -49 33 -72 72 -72c38 0 70 32 89 72h38
c-23 -80 -68 -133 -140 -133z" />
    <glyph glyph-name="Ecaron" unicode="&#x11a;" horiz-adv-x="603" 
d="M365 321h-134l-53 -274h242l88 132h36l-46 -179h-502l6 33l86 23l108 549l-76 27l6 32h399l74 4l-43 -177h-34l-9 128h-223l-49 -252h133l45 82h30l-41 -204h-33zM498 865h53l-116 -129h-76l-65 129h46l64 -80z" />
    <glyph glyph-name="Edotaccent" unicode="&#x116;" horiz-adv-x="603" 
d="M365 321h-134l-53 -274h242l88 132h36l-46 -179h-502l6 33l86 23l108 549l-76 27l6 32h399l74 4l-43 -177h-34l-9 128h-223l-49 -252h133l45 82h30l-41 -204h-33zM361 817c0 34 28 62 62 62s62 -28 62 -62s-28 -62 -62 -62s-62 28 -62 62z" />
    <glyph glyph-name="Emacron" unicode="&#x112;" horiz-adv-x="603" 
d="M365 321h-134l-53 -274h242l88 132h36l-46 -179h-502l6 33l86 23l108 549l-76 27l6 32h399l74 4l-43 -177h-34l-9 128h-223l-49 -252h133l45 82h30l-41 -204h-33zM265 782l13 60h282l-13 -60h-282z" />
    <glyph glyph-name="Eogonek" unicode="&#x118;" horiz-adv-x="603" 
d="M397 0h-401l6 33l86 23l108 549l-76 27l6 32h399l74 4l-43 -177h-34l-9 128h-223l-49 -252h133l45 82h30l-41 -204h-33l-10 76h-134l-53 -274h242l88 132h36l-46 -179h-62c-96 -85 -127 -113 -127 -156c0 -20 11 -36 40 -36c30 0 52 12 93 47l14 -17
c-40 -45 -85 -97 -152 -97c-50 0 -78 28 -78 70c0 69 62 111 171 189z" />
    <glyph glyph-name="Gbreve" unicode="&#x11e;" horiz-adv-x="706" 
d="M374 26c52 0 110 19 124 92l24 124l-85 20l6 29h234l-7 -33l-56 -16l-40 -203c-46 -15 -102 -56 -213 -56c-168 0 -305 96 -305 308c0 188 163 388 426 388c78 0 130 -23 182 -52l-17 -173h-35l-29 141c-28 21 -69 41 -127 41c-178 0 -294 -190 -293 -353
c1 -176 87 -257 211 -257zM476 732c-63 0 -100 49 -100 133h41c9 -49 33 -72 72 -72c38 0 70 32 89 72h38c-23 -80 -68 -133 -140 -133z" />
    <glyph glyph-name="Gcircumflex" unicode="&#x11c;" horiz-adv-x="706" 
d="M374 26c52 0 110 19 124 92l24 124l-85 20l6 29h234l-7 -33l-56 -16l-40 -203c-46 -15 -102 -56 -213 -56c-168 0 -305 96 -305 308c0 188 163 388 426 388c78 0 130 -23 182 -52l-17 -173h-35l-29 141c-28 21 -69 41 -127 41c-178 0 -294 -190 -293 -353
c1 -176 87 -257 211 -257zM398 736h-53l116 129h76l65 -129h-46l-65 79z" />
    <glyph glyph-name="Gcommaaccent" unicode="&#x122;" horiz-adv-x="706" 
d="M374 26c52 0 110 19 124 92l24 124l-85 20l6 29h234l-7 -33l-56 -16l-40 -203c-46 -15 -102 -56 -213 -56c-168 0 -305 96 -305 308c0 188 163 388 426 388c78 0 130 -23 182 -52l-17 -173h-35l-29 141c-28 21 -69 41 -127 41c-178 0 -294 -190 -293 -353
c1 -176 87 -257 211 -257zM203 -267l-8 27c70 26 98 52 98 81c0 22 -17 34 -46 38c2 31 26 58 61 58c40 0 65 -29 65 -65c0 -63 -72 -112 -170 -139z" />
    <glyph glyph-name="Gdotaccent" unicode="&#x120;" horiz-adv-x="706" 
d="M374 26c52 0 110 19 124 92l24 124l-85 20l6 29h234l-7 -33l-56 -16l-40 -203c-46 -15 -102 -56 -213 -56c-168 0 -305 96 -305 308c0 188 163 388 426 388c78 0 130 -23 182 -52l-17 -173h-35l-29 141c-28 21 -69 41 -127 41c-178 0 -294 -190 -293 -353
c1 -176 87 -257 211 -257zM430 817c0 34 28 62 62 62s62 -28 62 -62s-28 -62 -62 -62s-62 28 -62 62z" />
    <glyph glyph-name="Hbar" unicode="&#x126;" horiz-adv-x="763" 
d="M72 477l9 41h96l18 88l-75 26l6 32h254l-5 -32l-88 -26l-18 -88h315l18 88l-75 26l6 32h254l-6 -32l-86 -26l-18 -88h95l-9 -41h-94l-83 -421l76 -24l-6 -32h-254l6 33l86 23l52 267h-315l-52 -267l76 -24l-6 -32h-253l7 33l83 23l83 421h-97zM240 370h315l21 107h-315z
" />
    <glyph glyph-name="Hcircumflex" unicode="&#x124;" horiz-adv-x="763" 
d="M402 0l6 33l86 23l52 267h-315l-52 -267l76 -24l-6 -32h-253l7 33l83 23l109 550l-75 26l6 32h254l-5 -32l-88 -26l-47 -236h315l47 236l-75 26l6 32h254l-6 -32l-86 -26l-109 -550l76 -24l-6 -32h-254zM395 736h-53l116 129h76l65 -129h-46l-65 79z" />
    <glyph glyph-name="Idotaccent" unicode="&#x130;" horiz-adv-x="355" 
d="M-4 0l7 33l83 23l109 550l-75 26l6 32h253l-6 -32l-86 -26l-109 -550l76 -24l-6 -32h-252zM211 817c0 34 28 62 62 62s62 -28 62 -62s-28 -62 -62 -62s-62 28 -62 62z" />
    <glyph glyph-name="Ibreve" unicode="&#x12c;" horiz-adv-x="355" 
d="M-4 0l7 33l83 23l109 550l-75 26l6 32h253l-6 -32l-86 -26l-109 -550l76 -24l-6 -32h-252zM269 732c-63 0 -100 49 -100 133h41c9 -49 33 -72 72 -72c38 0 70 32 89 72h38c-23 -80 -68 -133 -140 -133z" />
    <glyph glyph-name="Imacron" unicode="&#x12a;" horiz-adv-x="355" 
d="M-4 0l7 33l83 23l109 550l-75 26l6 32h253l-6 -32l-86 -26l-109 -550l76 -24l-6 -32h-252zM138 782l13 60h282l-13 -60h-282z" />
    <glyph glyph-name="Iogonek" unicode="&#x12e;" horiz-adv-x="355" 
d="M-4 0l7 33l83 23l109 550l-75 26l6 32h253l-6 -32l-86 -26l-109 -550l76 -24l-6 -32h-104c-60 -78 -85 -110 -85 -151c0 -22 12 -40 43 -40c30 0 52 9 92 46l14 -17c-38 -45 -85 -97 -152 -97c-50 0 -80 31 -80 71c0 72 61 111 125 188h-105z" />
    <glyph glyph-name="Itilde" unicode="&#x128;" horiz-adv-x="355" 
d="M-4 0l7 33l83 23l109 550l-75 26l6 32h253l-6 -32l-86 -26l-109 -550l76 -24l-6 -32h-252zM274 769l-25 12c-72 35 -82 15 -105 -37l-29 13l5 14c36 102 94 109 165 75l23 -11c81 -39 93 -18 118 39l28 -12l-6 -17c-39 -110 -93 -119 -174 -76z" />
    <glyph glyph-name="Jcircumflex" unicode="&#x134;" horiz-adv-x="346" 
d="M312 606l-109 -555c-32 -160 -100 -252 -261 -269l-5 31c119 46 148 111 171 226l113 568l-86 21l7 36h262l-6 -32zM217 736h-53l116 129h76l65 -129h-46l-65 79z" />
    <glyph glyph-name="Kcommaaccent" unicode="&#x136;" horiz-adv-x="660" 
d="M-4 0l6 33l85 23l108 550l-75 26l6 32h254l-6 -32l-86 -26l-109 -550l76 -24l-6 -32h-253zM617 22l-9 -32c-169 0 -174 49 -350 355l1 9l37 17l258 242l-75 19l6 32h216l-5 -32l-77 -22l-271 -244c171 -277 190 -324 269 -344zM223 -267l-8 27c70 26 98 52 98 81
c0 22 -17 34 -46 38c2 31 26 58 61 58c40 0 65 -29 65 -65c0 -63 -72 -112 -170 -139z" />
    <glyph glyph-name="Lacute" unicode="&#x139;" horiz-adv-x="584" 
d="M179 47h212l93 152h35l-53 -199h-470l7 33l83 23l109 549l-75 27l6 32h271l-6 -32l-103 -26zM331 875h93v-20l-135 -119h-52z" />
    <glyph glyph-name="Lcaron" unicode="&#x13d;" horiz-adv-x="584" 
d="M179 47h212l93 152h35l-53 -199h-470l7 33l83 23l109 549l-75 27l6 32h271l-6 -32l-103 -26zM480 463h-28l45 210h89v-8z" />
    <glyph glyph-name="Lcommaaccent" unicode="&#x13b;" horiz-adv-x="584" 
d="M179 47h212l93 152h35l-53 -199h-470l7 33l83 23l109 549l-75 27l6 32h271l-6 -32l-103 -26zM134 -267l-8 27c70 26 98 52 98 81c0 22 -17 34 -46 38c2 31 26 58 61 58c40 0 65 -29 65 -65c0 -63 -72 -112 -170 -139z" />
    <glyph glyph-name="Ldot" unicode="&#x13f;" horiz-adv-x="584" 
d="M497 316c-35 0 -65 30 -65 66c0 35 30 65 65 65c36 0 66 -30 66 -65c0 -36 -30 -66 -66 -66zM179 47h212l93 152h35l-53 -199h-470l7 33l83 23l109 549l-75 27l6 32h271l-6 -32l-103 -26z" />
    <glyph glyph-name="Nacute" unicode="&#x143;" horiz-adv-x="742" 
d="M571 -11h-35l-300 557l-95 -483l111 -30l-7 -33h-249l6 33l84 23l107 540l-82 36l5 32h164l266 -496l85 433l-112 30l7 33h250l-7 -33l-85 -25l-92 -470zM504 875h93v-20l-135 -119h-52z" />
    <glyph glyph-name="Ncaron" unicode="&#x147;" horiz-adv-x="742" 
d="M571 -11h-35l-300 557l-95 -483l111 -30l-7 -33h-249l6 33l84 23l107 540l-82 36l5 32h164l266 -496l85 433l-112 30l7 33h250l-7 -33l-85 -25l-92 -470zM563 865h53l-116 -129h-76l-65 129h46l64 -80z" />
    <glyph glyph-name="Ncommaaccent" unicode="&#x145;" horiz-adv-x="742" 
d="M571 -11h-35l-300 557l-95 -483l111 -30l-7 -33h-249l6 33l84 23l107 540l-82 36l5 32h164l266 -496l85 433l-112 30l7 33h250l-7 -33l-85 -25l-92 -470zM229 -267l-8 27c70 26 98 52 98 81c0 22 -17 34 -46 38c2 31 26 58 61 58c40 0 65 -29 65 -65
c0 -63 -72 -112 -170 -139z" />
    <glyph glyph-name="Obreve" unicode="&#x14e;" horiz-adv-x="737" 
d="M459 679c130 0 251 -107 251 -282c0 -198 -151 -418 -406 -418c-129 0 -251 107 -251 283c0 191 140 417 406 417zM610 416c0 124 -53 219 -170 219c-144 0 -287 -184 -287 -394c0 -122 51 -218 168 -218c178 0 289 230 289 393zM471 732c-63 0 -100 49 -100 133h41
c9 -49 33 -72 72 -72c38 0 70 32 89 72h38c-23 -80 -68 -133 -140 -133z" />
    <glyph glyph-name="Ohungarumlaut" unicode="&#x150;" horiz-adv-x="737" 
d="M459 679c130 0 251 -107 251 -282c0 -198 -151 -418 -406 -418c-129 0 -251 107 -251 283c0 191 140 417 406 417zM610 416c0 124 -53 219 -170 219c-144 0 -287 -184 -287 -394c0 -122 51 -218 168 -218c178 0 289 230 289 393zM570 875h80v-19l-94 -120h-52zM429 875
h80v-19l-94 -120h-52z" />
    <glyph glyph-name="Omacron" unicode="&#x14c;" horiz-adv-x="737" 
d="M459 679c130 0 251 -107 251 -282c0 -198 -151 -418 -406 -418c-129 0 -251 107 -251 283c0 191 140 417 406 417zM610 416c0 124 -53 219 -170 219c-144 0 -287 -184 -287 -394c0 -122 51 -218 168 -218c178 0 289 230 289 393zM339 782l13 60h282l-13 -60h-282z" />
    <glyph glyph-name="Oslashacute" unicode="&#x1fe;" horiz-adv-x="737" 
d="M93 -50h-51l86 111c-45 50 -75 118 -75 201c0 191 140 417 406 417c40 0 82 -12 119 -35l61 79h51l-79 -102c57 -49 99 -126 99 -224c0 -198 -151 -418 -406 -418c-52 0 -104 20 -147 54zM610 423c0 63 -12 114 -36 150l-382 -495c26 -35 68 -55 129 -55
c178 0 289 226 289 400zM153 229c0 -43 5 -81 17 -112l376 486c-25 21 -58 32 -99 32c-153 0 -294 -179 -294 -406zM530 875h93v-20l-135 -119h-52z" />
    <glyph glyph-name="Racute" unicode="&#x154;" horiz-adv-x="659" 
d="M-4 0l6 33l85 23l108 550l-75 26l7 32h236c131 0 224 -55 224 -147c0 -120 -114 -167 -199 -183c129 -246 156 -297 232 -313l-8 -30c-166 0 -172 53 -310 323h-72l-51 -258l104 -26l-5 -30h-282zM292 629l-55 -277c165 -6 244 59 244 152c0 77 -56 131 -189 125z
M441 875h93v-20l-135 -119h-52z" />
    <glyph glyph-name="Rcaron" unicode="&#x158;" horiz-adv-x="659" 
d="M-4 0l6 33l85 23l108 550l-75 26l7 32h236c131 0 224 -55 224 -147c0 -120 -114 -167 -199 -183c129 -246 156 -297 232 -313l-8 -30c-166 0 -172 53 -310 323h-72l-51 -258l104 -26l-5 -30h-282zM292 629l-55 -277c165 -6 244 59 244 152c0 77 -56 131 -189 125z
M484 865h53l-116 -129h-76l-65 129h46l64 -80z" />
    <glyph glyph-name="Rcommaaccent" unicode="&#x156;" horiz-adv-x="659" 
d="M-4 0l6 33l85 23l108 550l-75 26l7 32h236c131 0 224 -55 224 -147c0 -120 -114 -167 -199 -183c129 -246 156 -297 232 -313l-8 -30c-166 0 -172 53 -310 323h-72l-51 -258l104 -26l-5 -30h-282zM292 629l-55 -277c165 -6 244 59 244 152c0 77 -56 131 -189 125z
M227 -267l-8 27c70 26 98 52 98 81c0 22 -17 34 -46 38c2 31 26 58 61 58c40 0 65 -29 65 -65c0 -63 -72 -112 -170 -139z" />
    <glyph glyph-name="Sacute" unicode="&#x15a;" horiz-adv-x="517" 
d="M40 218h38l19 -156c34 -20 67 -39 122 -39c78 0 147 39 150 140c-1 53 -26 89 -107 139l-31 19c-73 45 -117 89 -117 166c0 107 104 192 237 192c61 0 121 -16 159 -25l-45 -184h-39v139c-26 18 -58 31 -103 31c-73 0 -125 -54 -125 -111c0 -49 12 -78 82 -123l34 -22
c98 -64 147 -105 147 -186c0 -127 -125 -215 -258 -215c-77 0 -150 26 -190 38zM397 875h93v-20l-135 -119h-52z" />
    <glyph glyph-name="Scedilla" unicode="&#x15e;" horiz-adv-x="517" 
d="M62 -257v26c40 12 102 36 102 83c0 33 -27 45 -40 51l63 80c-71 3 -137 27 -174 38l27 197h38l19 -156c34 -20 67 -39 122 -39c78 0 147 39 150 140c-1 53 -26 89 -107 139l-31 19c-73 45 -117 89 -117 166c0 107 104 192 237 192c61 0 121 -16 159 -25l-45 -184h-39v139
c-26 18 -58 31 -103 31c-73 0 -125 -54 -125 -111c0 -49 12 -78 82 -123l34 -22c98 -64 147 -105 147 -186c0 -120 -112 -205 -237 -214l-35 -47c23 -10 49 -28 49 -64c0 -86 -109 -117 -176 -130z" />
    <glyph glyph-name="Scircumflex" unicode="&#x15c;" horiz-adv-x="517" 
d="M40 218h38l19 -156c34 -20 67 -39 122 -39c78 0 147 39 150 140c-1 53 -26 89 -107 139l-31 19c-73 45 -117 89 -117 166c0 107 104 192 237 192c61 0 121 -16 159 -25l-45 -184h-39v139c-26 18 -58 31 -103 31c-73 0 -125 -54 -125 -111c0 -49 12 -78 82 -123l34 -22
c98 -64 147 -105 147 -186c0 -127 -125 -215 -258 -215c-77 0 -150 26 -190 38zM283 736h-53l116 129h76l65 -129h-46l-65 79z" />
    <glyph glyph-name="Scommaaccent" unicode="&#x218;" horiz-adv-x="517" 
d="M40 218h38l19 -156c34 -20 67 -39 122 -39c78 0 147 39 150 140c-1 53 -26 89 -107 139l-31 19c-73 45 -117 89 -117 166c0 107 104 192 237 192c61 0 121 -16 159 -25l-45 -184h-39v139c-26 18 -58 31 -103 31c-73 0 -125 -54 -125 -111c0 -49 12 -78 82 -123l34 -22
c98 -64 147 -105 147 -186c0 -127 -125 -215 -258 -215c-77 0 -150 26 -190 38zM82 -267l-8 27c70 26 98 52 98 81c0 22 -17 34 -46 38c2 31 26 58 61 58c40 0 65 -29 65 -65c0 -63 -72 -112 -170 -139z" />
    <glyph glyph-name="Tcaron" unicode="&#x164;" horiz-adv-x="647" 
d="M183 664h422l65 8l-41 -181h-34l-11 128h-158l-110 -563l84 -23l-7 -33h-271l7 33l95 23l110 563h-147l-62 -128h-34l30 181zM510 865h53l-116 -129h-76l-65 129h46l64 -80z" />
    <glyph glyph-name="Tcommaaccent" unicode="&#x162;" horiz-adv-x="647" 
d="M183 664h422l65 8l-41 -181h-34l-11 128h-158l-110 -563l84 -23l-7 -33h-271l7 33l95 23l110 563h-147l-62 -128h-34l30 181zM135 -267l-8 27c70 26 98 52 98 81c0 22 -17 34 -46 38c2 31 26 58 61 58c40 0 65 -29 65 -65c0 -63 -72 -112 -170 -139z" />
    <glyph glyph-name="Tbar" unicode="&#x166;" horiz-adv-x="647" 
d="M183 664h422l65 8l-41 -181h-34l-11 128h-158l-45 -227h167l-9 -44h-166l-57 -292l84 -23l-7 -33h-271l7 33l95 23l57 292h-158l9 44h157l45 227h-147l-62 -128h-34l30 181z" />
    <glyph glyph-name="Ubreve" unicode="&#x16c;" horiz-adv-x="720" 
d="M314 -24c-151 0 -253 85 -210 304l66 326l-76 26l6 32h257l-6 -32l-86 -26l-69 -347c-29 -147 30 -226 141 -226c93 0 188 56 222 247l58 324l-108 28l6 32h250l-6 -32l-85 -26l-63 -336c-37 -197 -161 -294 -297 -294zM454 732c-63 0 -100 49 -100 133h41
c9 -49 33 -72 72 -72c38 0 70 32 89 72h38c-23 -80 -68 -133 -140 -133z" />
    <glyph glyph-name="Uhungarumlaut" unicode="&#x170;" horiz-adv-x="720" 
d="M314 -24c-151 0 -253 85 -210 304l66 326l-76 26l6 32h257l-6 -32l-86 -26l-69 -347c-29 -147 30 -226 141 -226c93 0 188 56 222 247l58 324l-108 28l6 32h250l-6 -32l-85 -26l-63 -336c-37 -197 -161 -294 -297 -294zM553 875h80v-19l-94 -120h-52zM412 875h80v-19
l-94 -120h-52z" />
    <glyph glyph-name="Umacron" unicode="&#x16a;" horiz-adv-x="720" 
d="M314 -24c-151 0 -253 85 -210 304l66 326l-76 26l6 32h257l-6 -32l-86 -26l-69 -347c-29 -147 30 -226 141 -226c93 0 188 56 222 247l58 324l-108 28l6 32h250l-6 -32l-85 -26l-63 -336c-37 -197 -161 -294 -297 -294zM322 782l13 60h282l-13 -60h-282z" />
    <glyph glyph-name="Uogonek" unicode="&#x172;" horiz-adv-x="720" 
d="M611 270c-35 -185 -146 -282 -272 -293c-76 -67 -101 -94 -101 -133c0 -20 11 -36 40 -36c30 0 52 12 93 47l14 -17c-40 -45 -85 -97 -152 -97c-50 0 -78 28 -78 70c0 62 49 102 138 166c-140 7 -230 94 -189 303l66 326l-76 26l6 32h257l-6 -32l-86 -26l-69 -347
c-29 -147 30 -226 141 -226c93 0 188 56 222 247l58 324l-108 28l6 32h250l-6 -32l-85 -26z" />
    <glyph glyph-name="Uring" unicode="&#x16e;" horiz-adv-x="720" 
d="M314 -24c-151 0 -253 85 -210 304l66 326l-76 26l6 32h257l-6 -32l-86 -26l-69 -347c-29 -147 30 -226 141 -226c93 0 188 56 222 247l58 324l-108 28l6 32h250l-6 -32l-85 -26l-63 -336c-37 -197 -161 -294 -297 -294zM335 817c0 65 52 114 117 114
c66 0 117 -48 117 -114c0 -65 -52 -114 -117 -114c-66 0 -117 48 -117 114zM381 817c0 -43 32 -73 71 -73s71 30 71 73s-32 73 -71 73s-71 -30 -71 -73z" />
    <glyph glyph-name="Utilde" unicode="&#x168;" horiz-adv-x="720" 
d="M314 -24c-151 0 -253 85 -210 304l66 326l-76 26l6 32h257l-6 -32l-86 -26l-69 -347c-29 -147 30 -226 141 -226c93 0 188 56 222 247l58 324l-108 28l6 32h250l-6 -32l-85 -26l-63 -336c-37 -197 -161 -294 -297 -294zM459 769l-25 12c-72 35 -82 15 -105 -37l-29 13
l5 14c36 102 94 109 165 75l23 -11c81 -39 93 -18 118 39l28 -12l-6 -17c-39 -110 -93 -119 -174 -76z" />
    <glyph glyph-name="Wacute" unicode="&#x1e82;" horiz-adv-x="921" 
d="M550 -7l-59 469l-249 -469h-54l-61 616l-58 23l7 32h242l-7 -32l-87 -26l39 -485l219 419l-8 66l-77 26l7 32h256l-7 -34l-84 -24l53 -482l224 481l-103 25l6 34h232l-7 -32l-64 -21l-305 -618h-55zM610 875h93v-20l-135 -119h-52z" />
    <glyph glyph-name="Wcircumflex" unicode="&#x174;" horiz-adv-x="921" 
d="M550 -7l-59 469l-249 -469h-54l-61 616l-58 23l7 32h242l-7 -32l-87 -26l39 -485l219 419l-8 66l-77 26l7 32h256l-7 -34l-84 -24l53 -482l224 481l-103 25l6 34h232l-7 -32l-64 -21l-305 -618h-55zM473 736h-53l116 129h76l65 -129h-46l-65 79z" />
    <glyph glyph-name="Wdieresis" unicode="&#x1e84;" horiz-adv-x="921" 
d="M550 -7l-59 469l-249 -469h-54l-61 616l-58 23l7 32h242l-7 -32l-87 -26l39 -485l219 419l-8 66l-77 26l7 32h256l-7 -34l-84 -24l53 -482l224 481l-103 25l6 34h232l-7 -32l-64 -21l-305 -618h-55zM457 761c-31 0 -56 25 -56 56s25 57 56 57s57 -26 57 -57
s-26 -56 -57 -56zM678 761c-31 0 -57 25 -57 56s26 57 57 57s57 -26 57 -57s-26 -56 -57 -56z" />
    <glyph glyph-name="Wgrave" unicode="&#x1e80;" horiz-adv-x="921" 
d="M550 -7l-59 469l-249 -469h-54l-61 616l-58 23l7 32h242l-7 -32l-87 -26l39 -485l219 419l-8 66l-77 26l7 32h256l-7 -34l-84 -24l53 -482l224 481l-103 25l6 34h232l-7 -32l-64 -21l-305 -618h-55zM438 875h93l49 -139h-52l-90 119v20z" />
    <glyph glyph-name="Ycircumflex" unicode="&#x176;" horiz-adv-x="627" 
d="M619 610l-254 -344l-42 -210l86 -23l-7 -33h-272l7 33l94 23l39 197l-127 357l-55 22l6 32h241l-6 -32l-88 -21l99 -303h3l212 298l-85 26l7 32h206l-6 -32zM342 736h-53l116 129h76l65 -129h-46l-65 79z" />
    <glyph glyph-name="Ygrave" unicode="&#x1ef2;" horiz-adv-x="627" 
d="M619 610l-254 -344l-42 -210l86 -23l-7 -33h-272l7 33l94 23l39 197l-127 357l-55 22l6 32h241l-6 -32l-88 -21l99 -303h3l212 298l-85 26l7 32h206l-6 -32zM307 875h93l49 -139h-52l-90 119v20z" />
    <glyph glyph-name="Zacute" unicode="&#x179;" horiz-adv-x="598" 
d="M-15 0v25l505 593h-272l-77 -139h-34l43 191l70 -6h411v-10l-515 -607h292l93 152h35l-60 -204l-73 5h-418zM438 875h93v-20l-135 -119h-52z" />
    <glyph glyph-name="Zdotaccent" unicode="&#x17b;" horiz-adv-x="598" 
d="M-15 0v25l505 593h-272l-77 -139h-34l43 191l70 -6h411v-10l-515 -607h292l93 152h35l-60 -204l-73 5h-418zM334 817c0 34 28 62 62 62s62 -28 62 -62s-28 -62 -62 -62s-62 28 -62 62z" />
    <glyph glyph-name="abreve" unicode="&#x103;" horiz-adv-x="536" 
d="M428 491h61l-114 -429l3 -1c44 13 85 58 108 98l20 -6c-30 -85 -113 -164 -158 -164c-46 0 -67 35 -42 113l30 103h-3c-47 -64 -127 -219 -227 -219c-51 0 -80 41 -81 94c-3 186 184 396 323 396c29 0 54 -8 71 -19zM153 61c63 0 198 213 224 297l12 38
c-18 23 -41 40 -69 40c-76 0 -200 -171 -200 -324c0 -29 8 -51 33 -51zM363 566c-70 0 -107 61 -98 163h35c5 -69 30 -102 76 -102c48 0 85 50 101 102h34c-21 -96 -67 -163 -148 -163z" />
    <glyph glyph-name="amacron" unicode="&#x101;" horiz-adv-x="536" 
d="M428 491h61l-114 -429l3 -1c44 13 85 58 108 98l20 -6c-30 -85 -113 -164 -158 -164c-46 0 -67 35 -42 113l30 103h-3c-47 -64 -127 -219 -227 -219c-51 0 -80 41 -81 94c-3 186 184 396 323 396c29 0 54 -8 71 -19zM153 61c63 0 198 213 224 297l12 38
c-18 23 -41 40 -69 40c-76 0 -200 -171 -200 -324c0 -29 8 -51 33 -51zM236 627l13 60h282l-13 -60h-282z" />
    <glyph glyph-name="aogonek" unicode="&#x105;" horiz-adv-x="536" 
d="M348 -8h-5c-40 4 -58 36 -37 110l30 103h-3c-47 -64 -127 -219 -227 -219c-51 0 -80 41 -81 94c-3 186 184 396 323 396c29 0 54 -8 71 -19l9 34h61l-114 -429l3 -1c44 13 85 58 108 98l20 -6c-11 -30 -29 -69 -77 -117l-78 -79c-55 -55 -82 -81 -82 -114
c0 -25 17 -40 42 -40c31 0 53 16 86 55l18 -13c-33 -51 -81 -104 -145 -104c-42 0 -78 28 -78 77c0 59 57 98 156 171v3zM153 61c63 0 198 213 224 297l12 38c-18 23 -41 40 -69 40c-76 0 -200 -171 -200 -324c0 -29 8 -51 33 -51z" />
    <glyph glyph-name="aringacute" unicode="&#x1fb;" horiz-adv-x="536" 
d="M428 491h61l-114 -429l3 -1c44 13 85 58 108 98l20 -6c-30 -85 -113 -164 -158 -164c-46 0 -67 35 -42 113l30 103h-3c-47 -64 -127 -219 -227 -219c-51 0 -80 41 -81 94c-3 186 184 396 323 396c29 0 54 -8 71 -19zM153 61c63 0 198 213 224 297l12 38
c-18 23 -41 40 -69 40c-76 0 -200 -171 -200 -324c0 -29 8 -51 33 -51zM269 674c0 65 52 114 117 114c66 0 117 -48 117 -114c0 -65 -52 -114 -117 -114c-66 0 -117 48 -117 114zM315 674c0 -43 32 -73 71 -73s71 30 71 73s-32 73 -71 73s-71 -30 -71 -73zM476 981h93v-20
l-135 -119h-52z" />
    <glyph glyph-name="aeacute" unicode="&#x1fd;" horiz-adv-x="610" 
d="M361 -11c-56 0 -100 25 -115 84c-41 -45 -83 -84 -144 -84c-40 0 -99 21 -99 99c0 63 55 99 120 119l137 42l6 27c14 83 -5 162 -60 162c-21 0 -38 -8 -52 -20c-12 -46 -19 -100 -19 -100s-19 -5 -31 -5c-20 0 -42 2 -42 34c0 50 94 135 172 138c74 -2 109 -49 114 -100
h2c49 74 113 100 165 100c61 0 89 -27 89 -70c0 -95 -129 -155 -272 -196c-3 -18 -5 -37 -5 -56c-2 -63 15 -109 69 -109c44 0 96 40 123 80l20 -12c-25 -57 -97 -133 -178 -133zM252 212l1 5l-68 -23c-69 -23 -92 -54 -93 -89c-1 -32 18 -60 49 -60c49 0 87 53 100 75
c-1 26 3 57 11 92zM486 446c-50 0 -118 -84 -146 -194c106 35 179 83 179 158c0 26 -11 36 -33 36zM455 756h71v-19l-124 -186h-46z" />
    <glyph glyph-name="cacute" unicode="&#x107;" horiz-adv-x="412" 
d="M263 429c-70 0 -134 -174 -134 -277c0 -73 28 -100 65 -100c40 0 114 50 156 111l18 -12c-29 -57 -124 -165 -210 -165c-74 0 -122 63 -122 142c0 97 48 219 157 300c36 27 91 57 127 57c50 0 94 -24 94 -50c0 -31 -25 -68 -28 -68c-35 24 -84 62 -123 62zM378 756h71
v-19l-124 -186h-46z" />
    <glyph glyph-name="ccaron" unicode="&#x10d;" horiz-adv-x="412" 
d="M263 429c-70 0 -134 -174 -134 -277c0 -73 28 -100 65 -100c40 0 114 50 156 111l18 -12c-29 -57 -124 -165 -210 -165c-74 0 -122 63 -122 142c0 97 48 219 157 300c36 27 91 57 127 57c50 0 94 -24 94 -50c0 -31 -25 -68 -28 -68c-35 24 -84 62 -123 62zM426 756h44
l-139 -205h-56l-51 205h42l49 -142z" />
    <glyph glyph-name="ccircumflex" unicode="&#x109;" horiz-adv-x="412" 
d="M263 429c-70 0 -134 -174 -134 -277c0 -73 28 -100 65 -100c40 0 114 50 156 111l18 -12c-29 -57 -124 -165 -210 -165c-74 0 -122 63 -122 142c0 97 48 219 157 300c36 27 91 57 127 57c50 0 94 -24 94 -50c0 -31 -25 -68 -28 -68c-35 24 -84 62 -123 62zM223 551h-44
l139 205h56l51 -205h-42l-49 141z" />
    <glyph glyph-name="cdotaccent" unicode="&#x10b;" horiz-adv-x="412" 
d="M263 429c-70 0 -134 -174 -134 -277c0 -73 28 -100 65 -100c40 0 114 50 156 111l18 -12c-29 -57 -124 -165 -210 -165c-74 0 -122 63 -122 142c0 97 48 219 157 300c36 27 91 57 127 57c50 0 94 -24 94 -50c0 -31 -25 -68 -28 -68c-35 24 -84 62 -123 62zM274 651
c0 29 24 53 53 53s53 -24 53 -53s-24 -53 -53 -53s-53 24 -53 53z" />
    <glyph glyph-name="dcaron" unicode="&#x10f;" horiz-adv-x="555" 
d="M322 485c30 0 60 -11 82 -23l52 211l-59 24l7 22l147 27l-163 -684l3 -1c44 13 85 57 109 98l20 -6c-26 -78 -113 -164 -162 -164c-46 0 -62 34 -41 113l24 92h-3c-44 -53 -117 -208 -213 -208c-56 0 -94 38 -94 116c0 170 131 383 291 383zM380 361l8 35
c-16 28 -49 57 -77 57c-96 0 -183 -196 -183 -318c0 -64 17 -77 38 -77c61 0 188 193 214 303zM613 536h-28l45 210h89v-8z" />
    <glyph glyph-name="ebreve" unicode="&#x115;" horiz-adv-x="404" 
d="M155 -11c-86 0 -121 73 -121 144c0 130 64 229 144 292c40 32 93 60 137 60c60 0 83 -27 83 -70c0 -89 -123 -166 -272 -185c-3 -19 -5 -39 -5 -59c0 -74 21 -117 68 -117s98 42 124 80l20 -12c-19 -42 -86 -133 -178 -133zM291 448c-52 0 -128 -84 -158 -190
c82 11 182 90 182 160c0 18 -9 30 -24 30zM307 566c-70 0 -107 61 -98 163h35c5 -69 30 -102 76 -102c48 0 85 50 101 102h34c-21 -96 -67 -163 -148 -163z" />
    <glyph glyph-name="ecaron" unicode="&#x11b;" horiz-adv-x="404" 
d="M155 -11c-86 0 -121 73 -121 144c0 130 64 229 144 292c40 32 93 60 137 60c60 0 83 -27 83 -70c0 -89 -123 -166 -272 -185c-3 -19 -5 -39 -5 -59c0 -74 21 -117 68 -117s98 42 124 80l20 -12c-19 -42 -86 -133 -178 -133zM291 448c-52 0 -128 -84 -158 -190
c82 11 182 90 182 160c0 18 -9 30 -24 30zM426 756h44l-139 -205h-56l-51 205h42l49 -142z" />
    <glyph glyph-name="edotaccent" unicode="&#x117;" horiz-adv-x="404" 
d="M155 -11c-86 0 -121 73 -121 144c0 130 64 229 144 292c40 32 93 60 137 60c60 0 83 -27 83 -70c0 -89 -123 -166 -272 -185c-3 -19 -5 -39 -5 -59c0 -74 21 -117 68 -117s98 42 124 80l20 -12c-19 -42 -86 -133 -178 -133zM291 448c-52 0 -128 -84 -158 -190
c82 11 182 90 182 160c0 18 -9 30 -24 30zM273 651c0 29 24 53 53 53s53 -24 53 -53s-24 -53 -53 -53s-53 24 -53 53z" />
    <glyph glyph-name="emacron" unicode="&#x113;" horiz-adv-x="404" 
d="M155 -11c-86 0 -121 73 -121 144c0 130 64 229 144 292c40 32 93 60 137 60c60 0 83 -27 83 -70c0 -89 -123 -166 -272 -185c-3 -19 -5 -39 -5 -59c0 -74 21 -117 68 -117s98 42 124 80l20 -12c-19 -42 -86 -133 -178 -133zM291 448c-52 0 -128 -84 -158 -190
c82 11 182 90 182 160c0 18 -9 30 -24 30zM180 627l13 60h282l-13 -60h-282z" />
    <glyph glyph-name="eogonek" unicode="&#x119;" horiz-adv-x="404" 
d="M189 -10v3c-9 -2 -21 -4 -34 -4c-86 0 -121 73 -121 144c0 130 64 229 144 292c40 32 93 60 137 60c60 0 83 -27 83 -70c0 -89 -123 -166 -272 -185c-3 -19 -5 -39 -5 -59c0 -74 21 -118 72 -118c49 0 94 43 120 81l20 -12c-12 -24 -31 -54 -67 -90l-82 -84
c-50 -52 -73 -76 -73 -104c0 -25 15 -41 40 -41c29 0 51 13 87 55l18 -15c-33 -49 -81 -102 -145 -102c-42 0 -78 32 -78 77c0 64 54 98 156 172zM291 448c-52 0 -128 -84 -158 -190c82 11 182 90 182 160c0 18 -9 30 -24 30z" />
    <glyph glyph-name="gbreve" unicode="&#x11f;" horiz-adv-x="420" 
d="M263 484c24 0 44 -4 72 -10l124 5l-13 -67l-92 24v-3c9 -11 25 -41 25 -75c0 -104 -92 -231 -215 -230c-5 0 -11 0 -16 1c-21 -16 -27 -27 -27 -40c0 -17 11 -27 35 -39l155 -77c53 -26 69 -54 70 -86c0 -74 -108 -147 -262 -147c-122 0 -204 42 -203 99
c1 63 96 103 207 130v2l-9 4c-29 15 -61 37 -61 74c0 43 41 73 66 86v2c-46 19 -74 66 -75 117c-1 102 77 230 219 230zM229 -80l-69 33c-96 -26 -155 -46 -154 -92c0 -48 68 -81 162 -82c89 -1 136 37 136 71c1 21 -12 40 -75 70zM253 452c-67 1 -129 -128 -129 -222
c0 -39 13 -70 44 -70c69 -2 132 132 132 225c0 36 -15 67 -47 67zM273 566c-70 0 -107 61 -98 163h35c5 -69 30 -102 76 -102c48 0 85 50 101 102h34c-21 -96 -67 -163 -148 -163z" />
    <glyph glyph-name="gcircumflex" unicode="&#x11d;" horiz-adv-x="420" 
d="M263 484c24 0 44 -4 72 -10l124 5l-13 -67l-92 24v-3c9 -11 25 -41 25 -75c0 -104 -92 -231 -215 -230c-5 0 -11 0 -16 1c-21 -16 -27 -27 -27 -40c0 -17 11 -27 35 -39l155 -77c53 -26 69 -54 70 -86c0 -74 -108 -147 -262 -147c-122 0 -204 42 -203 99
c1 63 96 103 207 130v2l-9 4c-29 15 -61 37 -61 74c0 43 41 73 66 86v2c-46 19 -74 66 -75 117c-1 102 77 230 219 230zM229 -80l-69 33c-96 -26 -155 -46 -154 -92c0 -48 68 -81 162 -82c89 -1 136 37 136 71c1 21 -12 40 -75 70zM253 452c-67 1 -129 -128 -129 -222
c0 -39 13 -70 44 -70c69 -2 132 132 132 225c0 36 -15 67 -47 67zM188 551h-44l139 205h56l51 -205h-42l-49 141z" />
    <glyph glyph-name="gcommaaccent" unicode="&#x123;" horiz-adv-x="420" 
d="M263 484c24 0 44 -4 72 -10l124 5l-13 -67l-92 24v-3c9 -11 25 -41 25 -75c0 -104 -92 -231 -215 -230c-5 0 -11 0 -16 1c-21 -16 -27 -27 -27 -40c0 -17 11 -27 35 -39l155 -77c53 -26 69 -54 70 -86c0 -74 -108 -147 -262 -147c-122 0 -204 42 -203 99
c1 63 96 103 207 130v2l-9 4c-29 15 -61 37 -61 74c0 43 41 73 66 86v2c-46 19 -74 66 -75 117c-1 102 77 230 219 230zM229 -80l-69 33c-96 -26 -155 -46 -154 -92c0 -48 68 -81 162 -82c89 -1 136 37 136 71c1 21 -12 40 -75 70zM253 452c-67 1 -129 -128 -129 -222
c0 -39 13 -70 44 -70c69 -2 132 132 132 225c0 36 -15 67 -47 67zM390 794l8 -27c-70 -26 -98 -52 -98 -81c0 -22 17 -34 46 -38c-2 -31 -26 -58 -61 -58c-40 0 -65 29 -65 65c0 63 72 112 170 139z" />
    <glyph glyph-name="gdotaccent" unicode="&#x121;" horiz-adv-x="420" 
d="M263 484c24 0 44 -4 72 -10l124 5l-13 -67l-92 24v-3c9 -11 25 -41 25 -75c0 -104 -92 -231 -215 -230c-5 0 -11 0 -16 1c-21 -16 -27 -27 -27 -40c0 -17 11 -27 35 -39l155 -77c53 -26 69 -54 70 -86c0 -74 -108 -147 -262 -147c-122 0 -204 42 -203 99
c1 63 96 103 207 130v2l-9 4c-29 15 -61 37 -61 74c0 43 41 73 66 86v2c-46 19 -74 66 -75 117c-1 102 77 230 219 230zM229 -80l-69 33c-96 -26 -155 -46 -154 -92c0 -48 68 -81 162 -82c89 -1 136 37 136 71c1 21 -12 40 -75 70zM253 452c-67 1 -129 -128 -129 -222
c0 -39 13 -70 44 -70c69 -2 132 132 132 225c0 36 -15 67 -47 67zM239 651c0 29 24 53 53 53s53 -24 53 -53s-24 -53 -53 -53s-53 24 -53 53z" />
    <glyph glyph-name="hbar" unicode="&#x127;" horiz-adv-x="532" 
d="M280 746l-37 -149h178l-11 -47h-178l-71 -289h4c65 101 153 223 247 223c44 0 64 -29 45 -106l-79 -316l3 -1c44 13 84 57 108 98l20 -6c-26 -78 -112 -164 -161 -164c-46 0 -64 37 -47 102l75 280c6 23 2 40 -19 40c-81 0 -215 -229 -241 -359l-9 -45l-75 -21l-13 13
l133 551h-87l11 47h88l18 76l-59 24l7 22z" />
    <glyph glyph-name="hcircumflex" unicode="&#x125;" horiz-adv-x="532" 
d="M280 746l-119 -485h4c65 101 153 223 247 223c44 0 64 -29 45 -106l-79 -316l3 -1c44 13 84 57 108 98l20 -6c-26 -78 -112 -164 -161 -164c-46 0 -64 37 -47 102l75 280c6 23 2 40 -19 40c-81 0 -215 -229 -241 -359l-9 -45l-75 -21l-13 13l163 674l-59 24l7 22z
M312 816h-53l116 129h76l65 -129h-46l-65 79z" />
    <glyph glyph-name="ibreve" unicode="&#x12d;" horiz-adv-x="293" 
d="M139 61c44 13 85 57 109 98l20 -6c-26 -78 -113 -164 -162 -164c-45 0 -62 37 -46 101l75 306l-85 19v5s56 65 121 65c38 0 56 -31 39 -104l-74 -319zM194 566c-70 0 -107 61 -98 163h35c5 -69 30 -102 76 -102c48 0 85 50 101 102h34c-21 -96 -67 -163 -148 -163z" />
    <glyph glyph-name="imacron" unicode="&#x12b;" horiz-adv-x="293" 
d="M82 627l13 60h242l-13 -60h-242zM139 61c44 13 85 57 109 98l20 -6c-26 -78 -113 -164 -162 -164c-45 0 -62 37 -46 101l75 306l-85 19v5s56 65 121 65c38 0 56 -31 39 -104l-74 -319z" />
    <glyph glyph-name="iogonek" unicode="&#x12f;" horiz-adv-x="293" 
d="M136 62l3 -1c44 13 85 58 108 98l20 -6c-11 -30 -29 -69 -77 -117l-78 -79c-55 -55 -82 -81 -82 -114c0 -25 17 -40 42 -40c31 0 53 16 86 55l18 -13c-33 -51 -81 -104 -145 -104c-42 0 -78 28 -78 77c0 59 57 98 153 169v3h-5c-41 3 -56 39 -41 100l75 306l-85 19v5
s56 65 121 65c38 0 56 -31 39 -104zM170 680c0 29 24 53 53 53s53 -24 53 -53s-24 -53 -53 -53s-53 24 -53 53z" />
    <glyph glyph-name="itilde" unicode="&#x129;" horiz-adv-x="293" 
d="M139 61c44 13 85 57 109 98l20 -6c-26 -78 -113 -164 -162 -164c-45 0 -62 37 -46 101l75 306l-85 19v5s56 65 121 65c38 0 56 -31 39 -104l-74 -319zM349 726l28 -12l-6 -17c-39 -110 -91 -115 -174 -76l-15 7c-72 34 -79 20 -102 -32l-29 13l5 14c36 102 89 104 160 71
l15 -7c81 -38 93 -18 118 39z" />
    <glyph glyph-name="idotaccent" horiz-adv-x="293" 
d="M135 396l-85 19v5s56 65 121 65c38 0 56 -31 39 -104l-74 -319l3 -1c44 13 85 57 109 98l20 -6c-26 -78 -113 -164 -162 -164c-45 0 -62 37 -46 101zM170 680c0 29 24 53 53 53s53 -24 53 -53s-24 -53 -53 -53s-53 24 -53 53z" />
    <glyph glyph-name="jcircumflex" unicode="&#x135;" horiz-adv-x="261" 
d="M39 -61l108 457l-86 19v5s56 65 115 65c44 0 66 -30 46 -112l-86 -359c-37 -158 -129 -274 -221 -274c-25 0 -68 17 -68 53c0 22 13 45 27 54c25 -24 60 -58 88 -58c37 0 53 52 77 150zM119 551h-44l139 205h56l51 -205h-42l-49 141z" />
    <glyph glyph-name="kcommaaccent" unicode="&#x137;" horiz-adv-x="479" 
d="M401 -40c-47 0 -65 15 -109 60l-148 149c-12 -31 -21 -62 -26 -90l-13 -73l-73 -20l-13 13l163 674l-59 24l7 22l149 27l-110 -461h5c63 110 129 199 211 199c50 0 78 -36 78 -80c0 -104 -125 -187 -235 -223l213 -204v-5c-6 -5 -22 -12 -40 -12zM349 415
c-62 0 -151 -118 -200 -234c152 42 234 136 234 196c0 25 -14 38 -34 38zM72 -267l-8 27c70 26 98 52 98 81c0 22 -17 34 -46 38c2 31 26 58 61 58c40 0 65 -29 65 -65c0 -63 -72 -112 -170 -139z" />
    <glyph glyph-name="kgreenlandic" unicode="&#x138;" horiz-adv-x="504" 
d="M139 400l-85 15v5s55 65 110 65c56 0 64 -45 44 -122l-27 -93h4c70 108 150 214 222 214c55 0 81 -36 81 -80c0 -104 -125 -187 -235 -223l213 -204v-5c-6 -5 -22 -12 -40 -12c-47 0 -65 15 -109 60l-146 148c-17 -38 -31 -78 -39 -116l-10 -45l-75 -21l-13 13zM374 415
c-50 0 -140 -108 -197 -234c150 43 231 137 231 196c0 25 -13 38 -34 38z" />
    <glyph glyph-name="lacute" unicode="&#x13a;" horiz-adv-x="268" 
d="M247 153c-26 -78 -113 -164 -162 -164c-45 0 -62 37 -46 101l143 583l-59 24l7 22l147 27l-162 -684l3 -1c44 13 85 57 109 98zM324 943h93v-20l-135 -119h-52z" />
    <glyph glyph-name="lcaron" unicode="&#x13e;" horiz-adv-x="268" 
d="M247 153c-26 -78 -113 -164 -162 -164c-45 0 -62 37 -46 101l143 583l-59 24l7 22l147 27l-162 -684l3 -1c44 13 85 57 109 98zM339 536h-28l45 210h89v-8z" />
    <glyph glyph-name="lcommaaccent" unicode="&#x13c;" horiz-adv-x="268" 
d="M247 153c-26 -78 -113 -164 -162 -164c-45 0 -62 37 -46 101l143 583l-59 24l7 22l147 27l-162 -684l3 -1c44 13 85 57 109 98zM-46 -267l-8 27c70 26 98 52 98 81c0 22 -17 34 -46 38c2 31 26 58 61 58c40 0 65 -29 65 -65c0 -63 -72 -112 -170 -139z" />
    <glyph glyph-name="ldot" unicode="&#x140;" horiz-adv-x="328" 
d="M312 301c-35 0 -65 30 -65 66c0 35 30 65 65 65c36 0 66 -30 66 -65c0 -36 -30 -66 -66 -66zM247 153c-26 -78 -113 -164 -162 -164c-45 0 -62 37 -46 101l143 583l-59 24l7 22l147 27l-162 -684l3 -1c44 13 85 57 109 98z" />
    <glyph glyph-name="nacute" unicode="&#x144;" horiz-adv-x="548" 
d="M34 -1l105 401l-85 15v5s55 65 110 65c56 0 65 -46 44 -122l-27 -93h4c68 99 149 214 243 214c44 0 64 -29 45 -106l-80 -316l3 -1c45 13 84 57 109 98l20 -6c-26 -79 -114 -164 -161 -164c-48 0 -64 37 -47 102l75 280c6 23 3 40 -18 40c-86 0 -213 -225 -242 -359
l-10 -45l-75 -21zM409 756h71v-19l-124 -186h-46z" />
    <glyph glyph-name="napostrophe" unicode="&#x149;" horiz-adv-x="548" 
d="M34 -1l105 401l-85 15v5s55 65 110 65c56 0 65 -46 44 -122l-27 -93h4c68 99 149 214 243 214c44 0 64 -29 45 -106l-80 -316l3 -1c45 13 84 57 109 98l20 -6c-26 -79 -114 -164 -161 -164c-48 0 -64 37 -47 102l75 280c6 23 3 40 -18 40c-86 0 -213 -225 -242 -359
l-10 -45l-75 -21zM60 542l-8 27c70 26 98 52 98 81c0 22 -17 34 -46 38c2 31 26 58 61 58c40 0 65 -29 65 -65c0 -63 -72 -112 -170 -139z" />
    <glyph glyph-name="ncaron" unicode="&#x148;" horiz-adv-x="548" 
d="M34 -1l105 401l-85 15v5s55 65 110 65c56 0 65 -46 44 -122l-27 -93h4c68 99 149 214 243 214c44 0 64 -29 45 -106l-80 -316l3 -1c45 13 84 57 109 98l20 -6c-26 -79 -114 -164 -161 -164c-48 0 -64 37 -47 102l75 280c6 23 3 40 -18 40c-86 0 -213 -225 -242 -359
l-10 -45l-75 -21zM457 756h44l-139 -205h-56l-51 205h42l49 -142z" />
    <glyph glyph-name="ncommaaccent" unicode="&#x146;" horiz-adv-x="548" 
d="M34 -1l105 401l-85 15v5s55 65 110 65c56 0 65 -46 44 -122l-27 -93h4c68 99 149 214 243 214c44 0 64 -29 45 -106l-80 -316l3 -1c45 13 84 57 109 98l20 -6c-26 -79 -114 -164 -161 -164c-48 0 -64 37 -47 102l75 280c6 23 3 40 -18 40c-86 0 -213 -225 -242 -359
l-10 -45l-75 -21zM102 -267l-8 27c70 26 98 52 98 81c0 22 -17 34 -46 38c2 31 26 58 61 58c40 0 65 -29 65 -65c0 -63 -72 -112 -170 -139z" />
    <glyph glyph-name="obreve" unicode="&#x14f;" horiz-adv-x="477" 
d="M123 137c0 -45 6 -118 55 -118c89 0 174 184 174 312c0 28 1 124 -59 124c-92 0 -170 -200 -170 -318zM303 485c102 0 140 -86 140 -167c0 -145 -100 -329 -268 -329c-97 0 -141 82 -141 174c0 141 100 322 269 322zM303 566c-70 0 -107 61 -98 163h35
c5 -69 30 -102 76 -102c48 0 85 50 101 102h34c-21 -96 -67 -163 -148 -163z" />
    <glyph glyph-name="ohungarumlaut" unicode="&#x151;" horiz-adv-x="477" 
d="M123 137c0 -45 6 -118 55 -118c89 0 174 184 174 312c0 28 1 124 -59 124c-92 0 -170 -200 -170 -318zM303 485c102 0 140 -86 140 -167c0 -145 -100 -329 -268 -329c-97 0 -141 82 -141 174c0 141 100 322 269 322zM287 756h71v-19l-114 -186h-46zM437 756h71v-19
l-114 -186h-46z" />
    <glyph glyph-name="omacron" unicode="&#x14d;" horiz-adv-x="477" 
d="M123 137c0 -45 6 -118 55 -118c89 0 174 184 174 312c0 28 1 124 -59 124c-92 0 -170 -200 -170 -318zM303 485c102 0 140 -86 140 -167c0 -145 -100 -329 -268 -329c-97 0 -141 82 -141 174c0 141 100 322 269 322zM176 627l13 60h282l-13 -60h-282z" />
    <glyph glyph-name="oslashacute" unicode="&#x1ff;" horiz-adv-x="477" 
d="M38 -50h-45l75 99c-22 31 -34 71 -34 114c0 141 100 322 269 322c28 0 53 -9 73 -24l49 65h45l-68 -90c27 -32 41 -76 41 -118c0 -145 -100 -329 -268 -329c-32 0 -60 12 -83 33zM357 343c0 10 0 21 -1 31l-231 -308c9 -32 26 -47 53 -47c89 0 179 191 179 324zM118 131
v-15l228 304c-9 21 -26 35 -53 35c-92 0 -175 -206 -175 -324zM374 756h71v-19l-124 -186h-46z" />
    <glyph glyph-name="racute" unicode="&#x155;" horiz-adv-x="406" 
d="M30 -1l30 118c42 167 66 283 66 283l-80 15v5s53 65 110 65c52 0 55 -49 38 -109l-53 -180h14c84 191 136 289 218 289c27 0 48 -16 48 -47c0 -42 -34 -84 -50 -98h-34c17 29 12 60 -10 62c-43 -21 -97 -113 -146 -217c-25 -53 -38 -80 -66 -178l-72 -21zM336 756h71v-19
l-124 -186h-46z" />
    <glyph glyph-name="rcaron" unicode="&#x159;" horiz-adv-x="406" 
d="M30 -1l30 118c42 167 66 283 66 283l-80 15v5s53 65 110 65c52 0 55 -49 38 -109l-53 -180h14c84 191 136 289 218 289c27 0 48 -16 48 -47c0 -42 -34 -84 -50 -98h-34c17 29 12 60 -10 62c-43 -21 -97 -113 -146 -217c-25 -53 -38 -80 -66 -178l-72 -21zM389 756h44
l-139 -205h-56l-51 205h42l49 -142z" />
    <glyph glyph-name="rcommaaccent" unicode="&#x157;" horiz-adv-x="406" 
d="M30 -1l30 118c42 167 66 283 66 283l-80 15v5s53 65 110 65c52 0 55 -49 38 -109l-53 -180h14c84 191 136 289 218 289c27 0 48 -16 48 -47c0 -42 -34 -84 -50 -98h-34c17 29 12 60 -10 62c-43 -21 -97 -113 -146 -217c-25 -53 -38 -80 -66 -178l-72 -21zM-64 -267l-8 27
c70 26 98 52 98 81c0 22 -17 34 -46 38c2 31 26 58 61 58c40 0 65 -29 65 -65c0 -63 -72 -112 -170 -139z" />
    <glyph glyph-name="sacute" unicode="&#x15b;" horiz-adv-x="344" 
d="M283 137c0 -65 -83 -151 -173 -151c-61 0 -105 38 -105 68c0 32 18 53 18 53h1c60 -38 104 -64 142 -64c24 0 44 15 44 44s-17 56 -29 72l-51 71c-40 55 -50 75 -50 103c0 83 109 153 170 153c47 0 87 -23 87 -50s-14 -51 -19 -58l-3 -1c-39 25 -82 52 -120 52
c-24 0 -44 -15 -44 -44c0 -25 10 -44 28 -70l56 -79c34 -49 48 -67 48 -99zM319 756h71v-19l-124 -186h-46z" />
    <glyph glyph-name="scedilla" unicode="&#x15f;" horiz-adv-x="344" 
d="M-34 -257v26c40 12 102 36 102 83c0 33 -27 45 -40 51l66 84c-53 5 -89 39 -89 67c0 32 18 53 18 53h1c60 -38 104 -64 142 -64c24 0 44 15 44 44s-17 56 -29 72l-51 71c-40 55 -50 75 -50 103c0 83 109 153 170 153c47 0 87 -23 87 -50s-14 -51 -19 -58l-3 -1
c-39 25 -82 52 -120 52c-24 0 -44 -15 -44 -44c0 -25 10 -44 28 -70l56 -79c34 -49 48 -67 48 -99c0 -60 -71 -137 -152 -149l-38 -51c23 -10 49 -28 49 -64c0 -86 -109 -117 -176 -130z" />
    <glyph glyph-name="scircumflex" unicode="&#x15d;" horiz-adv-x="344" 
d="M283 137c0 -65 -83 -151 -173 -151c-61 0 -105 38 -105 68c0 32 18 53 18 53h1c60 -38 104 -64 142 -64c24 0 44 15 44 44s-17 56 -29 72l-51 71c-40 55 -50 75 -50 103c0 83 109 153 170 153c47 0 87 -23 87 -50s-14 -51 -19 -58l-3 -1c-39 25 -82 52 -120 52
c-24 0 -44 -15 -44 -44c0 -25 10 -44 28 -70l56 -79c34 -49 48 -67 48 -99zM164 551h-44l139 205h56l51 -205h-42l-49 141z" />
    <glyph glyph-name="scommaaccent" unicode="&#x219;" horiz-adv-x="344" 
d="M283 137c0 -65 -83 -151 -173 -151c-61 0 -105 38 -105 68c0 32 18 53 18 53h1c60 -38 104 -64 142 -64c24 0 44 15 44 44s-17 56 -29 72l-51 71c-40 55 -50 75 -50 103c0 83 109 153 170 153c47 0 87 -23 87 -50s-14 -51 -19 -58l-3 -1c-39 25 -82 52 -120 52
c-24 0 -44 -15 -44 -44c0 -25 10 -44 28 -70l56 -79c34 -49 48 -67 48 -99zM-9 -267l-8 27c70 26 98 52 98 81c0 22 -17 34 -46 38c2 31 26 58 61 58c40 0 65 -29 65 -65c0 -63 -72 -112 -170 -139z" />
    <glyph glyph-name="tbar" unicode="&#x167;" horiz-adv-x="340" 
d="M42 415l6 44h85l46 124h62l-30 -124h131l-6 -44h-134l-20 -83h140l-7 -43h-143l-52 -219l4 -3c52 19 117 76 144 115l20 -7c-34 -77 -149 -187 -207 -187c-36 0 -57 36 -45 87l53 214h-65l6 43h69l21 83h-78z" />
    <glyph glyph-name="tcaron" unicode="&#x165;" horiz-adv-x="340" 
d="M42 415l6 44h85l46 124h62l-30 -124h131l-6 -44h-134l-82 -345l4 -3c52 19 117 76 144 115l20 -7c-34 -77 -149 -187 -207 -187c-36 0 -57 36 -45 87l84 340h-78zM349 542h-28l45 210h89v-8z" />
    <glyph glyph-name="tcommaaccent" unicode="&#x163;" horiz-adv-x="340" 
d="M42 415l6 44h85l46 124h62l-30 -124h131l-6 -44h-134l-82 -345l4 -3c52 19 117 76 144 115l20 -7c-34 -77 -149 -187 -207 -187c-36 0 -57 36 -45 87l84 340h-78zM-41 -267l-8 27c70 26 98 52 98 81c0 22 -17 34 -46 38c2 31 26 58 61 58c40 0 65 -29 65 -65
c0 -63 -72 -112 -170 -139z" />
    <glyph glyph-name="ubreve" unicode="&#x16d;" horiz-adv-x="539" 
d="M135 400l-86 15v5s54 65 120 65c44 0 56 -37 40 -103l-71 -292c-5 -22 0 -30 13 -30c73 0 219 245 234 315l20 89l74 21l13 -13l-100 -410l3 -1c44 13 85 57 109 98l20 -6c-26 -78 -113 -164 -162 -164c-46 0 -59 37 -42 105l31 123h-3c-69 -83 -145 -230 -250 -230
c-38 0 -61 29 -40 115zM330 566c-70 0 -107 61 -98 163h35c5 -69 30 -102 76 -102c48 0 85 50 101 102h34c-21 -96 -67 -163 -148 -163z" />
    <glyph glyph-name="uhungarumlaut" unicode="&#x171;" horiz-adv-x="539" 
d="M135 400l-86 15v5s54 65 120 65c44 0 56 -37 40 -103l-71 -292c-5 -22 0 -30 13 -30c73 0 219 245 234 315l20 89l74 21l13 -13l-100 -410l3 -1c44 13 85 57 109 98l20 -6c-26 -78 -113 -164 -162 -164c-46 0 -59 37 -42 105l31 123h-3c-69 -83 -145 -230 -250 -230
c-38 0 -61 29 -40 115zM313 756h71v-19l-114 -186h-46zM463 756h71v-19l-114 -186h-46z" />
    <glyph glyph-name="umacron" unicode="&#x16b;" horiz-adv-x="539" 
d="M135 400l-86 15v5s54 65 120 65c44 0 56 -37 40 -103l-71 -292c-5 -22 0 -30 13 -30c73 0 219 245 234 315l20 89l74 21l13 -13l-100 -410l3 -1c44 13 85 57 109 98l20 -6c-26 -78 -113 -164 -162 -164c-46 0 -59 37 -42 105l31 123h-3c-69 -83 -145 -230 -250 -230
c-38 0 -61 29 -40 115zM203 627l13 60h282l-13 -60h-282z" />
    <glyph glyph-name="uogonek" unicode="&#x173;" horiz-adv-x="539" 
d="M362 -13v3h-9c-39 5 -49 41 -33 104l31 123h-3c-69 -83 -145 -230 -250 -230c-38 0 -61 29 -40 115l77 298l-86 15v5s54 65 120 65c44 0 56 -37 40 -103l-71 -292c-5 -22 0 -30 13 -30c73 0 219 245 234 315l20 89l74 21l13 -13l-100 -410l3 -1c44 13 85 58 108 98l20 -6
c-11 -30 -29 -69 -77 -117l-78 -79c-55 -55 -82 -81 -82 -114c0 -25 17 -40 42 -40c31 0 53 16 86 55l18 -15c-33 -49 -81 -102 -145 -102c-42 0 -78 28 -78 77c0 59 57 98 153 169z" />
    <glyph glyph-name="uring" unicode="&#x16f;" horiz-adv-x="539" 
d="M135 400l-86 15v5s54 65 120 65c44 0 56 -37 40 -103l-71 -292c-5 -22 0 -30 13 -30c73 0 219 245 234 315l20 89l74 21l13 -13l-100 -410l3 -1c44 13 85 57 109 98l20 -6c-26 -78 -113 -164 -162 -164c-46 0 -59 37 -42 105l31 123h-3c-69 -83 -145 -230 -250 -230
c-38 0 -61 29 -40 115zM237 674c0 65 52 114 117 114c66 0 117 -48 117 -114c0 -65 -52 -114 -117 -114c-66 0 -117 48 -117 114zM283 674c0 -43 32 -73 71 -73s71 30 71 73s-32 73 -71 73s-71 -30 -71 -73z" />
    <glyph glyph-name="utilde" unicode="&#x169;" horiz-adv-x="539" 
d="M135 400l-86 15v5s54 65 120 65c44 0 56 -37 40 -103l-71 -292c-5 -22 0 -30 13 -30c73 0 219 245 234 315l20 89l74 21l13 -13l-100 -410l3 -1c44 13 85 57 109 98l20 -6c-26 -78 -113 -164 -162 -164c-46 0 -59 37 -42 105l31 123h-3c-69 -83 -145 -230 -250 -230
c-38 0 -61 29 -40 115zM341 621l-25 12c-72 35 -82 15 -105 -37l-29 13l5 14c36 102 94 109 165 75l23 -11c81 -39 93 -18 118 39l28 -12l-6 -17c-39 -110 -93 -119 -174 -76z" />
    <glyph glyph-name="wacute" unicode="&#x1e83;" horiz-adv-x="656" 
d="M410 396l7 -316h5c105 93 158 209 158 277c0 42 -27 62 -70 62c-13 0 -34 -4 -48 -8v13c42 41 76 61 106 61c46 0 76 -29 77 -89c2 -105 -93 -222 -191 -332l-70 -78h-9l-31 14l-2 206h-2c-38 -44 -79 -98 -136 -165l-47 -55h-9l-34 14l-9 396c-11 13 -31 21 -52 21
c-12 0 -31 -2 -44 -6v13c39 41 69 61 105 61c43 0 69 -28 70 -89l7 -316h5c76 85 141 178 141 178l-1 132c-10 16 -34 27 -61 27c-13 0 -34 -2 -48 -6v13c42 41 75 61 106 61c50 0 76 -28 77 -89zM454 756h71v-19l-124 -186h-46z" />
    <glyph glyph-name="wcircumflex" unicode="&#x175;" horiz-adv-x="656" 
d="M410 396l7 -316h5c105 93 158 209 158 277c0 42 -27 62 -70 62c-13 0 -34 -4 -48 -8v13c42 41 76 61 106 61c46 0 76 -29 77 -89c2 -105 -93 -222 -191 -332l-70 -78h-9l-31 14l-2 206h-2c-38 -44 -79 -98 -136 -165l-47 -55h-9l-34 14l-9 396c-11 13 -31 21 -52 21
c-12 0 -31 -2 -44 -6v13c39 41 69 61 105 61c43 0 69 -28 70 -89l7 -316h5c76 85 141 178 141 178l-1 132c-10 16 -34 27 -61 27c-13 0 -34 -2 -48 -6v13c42 41 75 61 106 61c50 0 76 -28 77 -89zM299 551h-44l139 205h56l51 -205h-42l-49 141z" />
    <glyph glyph-name="wdieresis" unicode="&#x1e85;" horiz-adv-x="656" 
d="M410 396l7 -316h5c105 93 158 209 158 277c0 42 -27 62 -70 62c-13 0 -34 -4 -48 -8v13c42 41 76 61 106 61c46 0 76 -29 77 -89c2 -105 -93 -222 -191 -332l-70 -78h-9l-31 14l-2 206h-2c-38 -44 -79 -98 -136 -165l-47 -55h-9l-34 14l-9 396c-11 13 -31 21 -52 21
c-12 0 -31 -2 -44 -6v13c39 41 69 61 105 61c43 0 69 -28 70 -89l7 -316h5c76 85 141 178 141 178l-1 132c-10 16 -34 27 -61 27c-13 0 -34 -2 -48 -6v13c42 41 75 61 106 61c50 0 76 -28 77 -89zM266 644c0 28 22 50 50 50s51 -22 51 -50s-23 -49 -51 -49s-50 21 -50 49z
M436 644c0 28 22 50 50 50s51 -22 51 -50s-23 -49 -51 -49s-50 21 -50 49z" />
    <glyph glyph-name="wgrave" unicode="&#x1e81;" horiz-adv-x="656" 
d="M410 396l7 -316h5c105 93 158 209 158 277c0 42 -27 62 -70 62c-13 0 -34 -4 -48 -8v13c42 41 76 61 106 61c46 0 76 -29 77 -89c2 -105 -93 -222 -191 -332l-70 -78h-9l-31 14l-2 206h-2c-38 -44 -79 -98 -136 -165l-47 -55h-9l-34 14l-9 396c-11 13 -31 21 -52 21
c-12 0 -31 -2 -44 -6v13c39 41 69 61 105 61c43 0 69 -28 70 -89l7 -316h5c76 85 141 178 141 178l-1 132c-10 16 -34 27 -61 27c-13 0 -34 -2 -48 -6v13c42 41 75 61 106 61c50 0 76 -28 77 -89zM295 756h72l41 -205h-44l-69 186v19z" />
    <glyph glyph-name="ycircumflex" unicode="&#x177;" horiz-adv-x="469" 
d="M50 296h-24c3 103 56 188 117 188c68 0 111 -99 111 -254c0 -88 -13 -180 -35 -237h4c71 81 142 183 166 306c2 66 -14 118 -35 165c17 9 32 15 48 15c27 0 55 -17 55 -75c0 -273 -390 -662 -528 -662c-35 0 -66 21 -66 60c0 28 23 55 58 55c32 0 48 -23 58 -63h3
c159 63 193 280 193 414c0 111 -25 196 -59 196c-26 0 -52 -33 -66 -108zM210 551h-44l139 205h56l51 -205h-42l-49 141z" />
    <glyph glyph-name="ygrave" unicode="&#x1ef3;" horiz-adv-x="469" 
d="M50 296h-24c3 103 56 188 117 188c68 0 111 -99 111 -254c0 -88 -13 -180 -35 -237h4c71 81 142 183 166 306c2 66 -14 118 -35 165c17 9 32 15 48 15c27 0 55 -17 55 -75c0 -273 -390 -662 -528 -662c-35 0 -66 21 -66 60c0 28 23 55 58 55c32 0 48 -23 58 -63h3
c159 63 193 280 193 414c0 111 -25 196 -59 196c-26 0 -52 -33 -66 -108zM206 756h72l41 -205h-44l-69 186v19z" />
    <glyph glyph-name="zacute" unicode="&#x17a;" horiz-adv-x="454" 
d="M440 486l36 -27l-333 -339l136 -50c60 -22 84 -14 112 20l20 -6c-24 -55 -48 -101 -115 -101c-18 0 -37 4 -71 18l-143 57l-56 -65l-37 27l336 343l-118 44c-46 17 -74 14 -83 -1c-9 -16 1 -41 42 -72c-20 -28 -36 -47 -56 -47c-27 0 -45 20 -45 55c0 52 69 144 142 144
c25 0 45 -5 71 -15l108 -45zM374 756h71v-19l-124 -186h-46z" />
    <glyph glyph-name="zdotaccent" unicode="&#x17c;" horiz-adv-x="454" 
d="M440 486l36 -27l-333 -339l136 -50c60 -22 84 -14 112 20l20 -6c-24 -55 -48 -101 -115 -101c-18 0 -37 4 -71 18l-143 57l-56 -65l-37 27l336 343l-118 44c-46 17 -74 14 -83 -1c-9 -16 1 -41 42 -72c-20 -28 -36 -47 -56 -47c-27 0 -45 20 -45 55c0 52 69 144 142 144
c25 0 45 -5 71 -15l108 -45zM269 651c0 29 24 53 53 53s53 -24 53 -53s-24 -53 -53 -53s-53 24 -53 53z" />
    <glyph glyph-name="f_f_h.alt" horiz-adv-x="1070" 
d="M178 -118c26 -24 62 -58 90 -58c37 0 54 55 73 150l89 441h-200l-10 -46l-74 -354c-50 -241 -176 -275 -221 -275c-25 0 -66 19 -66 57c0 18 12 41 25 50c26 -24 62 -58 90 -58c37 0 54 55 73 150l95 468c0 2 1 5 1 8h-86l6 44h92c58 176 206 243 284 243
c44 0 85 -24 107 -47c65 68 137 91 164 91c31 0 57 -9 72 -23l75 23l-118 -481h4c67 116 149 219 233 219c46 0 68 -30 68 -92c0 -178 -122 -402 -241 -402c-19 0 -36 14 -36 34c0 15 7 27 15 38c41 -20 64 -24 79 -20c16 20 92 219 92 331c0 19 -10 32 -32 32
c-82 0 -201 -222 -228 -352l-9 -46l-75 -21l-13 13l159 658c-30 25 -66 36 -92 36c-29 0 -86 -26 -136 -234h94l-10 -44h-94l-77 -365c-50 -241 -176 -275 -221 -275c-25 0 -66 19 -66 57c0 18 12 41 25 50zM399 655c-39 0 -105 -18 -157 -196h198c15 56 38 102 62 139
c-23 26 -66 57 -103 57z" />
    <glyph glyph-name="f_h.alt" horiz-adv-x="781" 
d="M307 -1l159 659c-29 25 -64 35 -90 35c-29 0 -86 -26 -136 -234h129l-10 -44h-129l-84 -400c-50 -241 -176 -275 -221 -275c-25 0 -66 19 -66 57c0 18 12 41 25 50c26 -24 62 -58 90 -58c37 0 54 55 73 150l96 476h-86l6 44h91c61 229 224 287 269 287c30 0 57 -9 71 -22
l74 22l-118 -481h4c67 116 149 219 233 219c46 0 68 -30 68 -92c0 -178 -122 -402 -241 -402c-19 0 -36 14 -36 34c0 15 7 27 15 38c41 -20 64 -24 79 -20c16 20 92 219 92 331c0 19 -10 32 -32 32c-82 0 -201 -222 -228 -352l-9 -46l-75 -21z" />
    <glyph glyph-name="oneeighth" unicode="&#x215b;" horiz-adv-x="933" 
d="M45 276l7 33l96 16l53 267h-103l3 34l184 41h6l-67 -343l86 -15l-7 -33h-258zM173 -87l-38 32l603 781l39 -31zM689 -18c-88 0 -150 39 -150 98c0 57 55 90 124 113c-43 28 -60 57 -60 97c0 54 54 111 148 111c88 0 131 -47 131 -87c0 -51 -49 -84 -110 -105
c57 -35 86 -63 86 -106c0 -64 -67 -121 -169 -121zM699 16c53 0 88 24 88 62c0 23 -16 45 -68 78l-32 20c-45 -17 -75 -42 -75 -81c0 -36 19 -79 87 -79zM747 226c44 19 63 46 63 81c0 37 -20 61 -64 61c-40 0 -75 -24 -75 -59c0 -24 12 -46 64 -76z" />
    <glyph glyph-name="onethird" unicode="&#x2153;" horiz-adv-x="898" 
d="M45 276l7 33l96 16l53 267h-103l3 34l184 41h6l-67 -343l86 -15l-7 -33h-258zM173 -87l-38 32l603 781l39 -31zM661 -18c-91 0 -142 34 -142 72c0 23 18 39 43 53c26 -58 65 -86 120 -86c48 0 79 32 79 78c0 59 -47 84 -130 79l6 30l23 9c85 32 111 58 111 90
c0 25 -24 43 -52 43c-46 0 -74 -17 -117 -59l-24 23c58 66 102 87 165 87c65 0 107 -29 107 -76s-57 -77 -116 -106v-3c74 -7 107 -49 107 -91c0 -87 -100 -143 -180 -143z" />
    <glyph glyph-name="threeeighths" unicode="&#x215c;" horiz-adv-x="951" 
d="M189 258c-91 0 -142 34 -142 72c0 23 18 39 43 53c26 -58 65 -86 120 -86c48 0 79 32 79 78c0 59 -47 84 -130 79l6 30l23 9c85 32 111 58 111 90c0 25 -24 43 -52 43c-46 0 -74 -17 -117 -59l-24 23c58 66 102 87 165 87c65 0 107 -29 107 -76s-57 -77 -116 -106v-3
c74 -7 107 -49 107 -91c0 -87 -100 -143 -180 -143zM195 -87l-38 32l603 781l39 -31zM707 -18c-88 0 -150 39 -150 98c0 57 55 90 124 113c-43 28 -60 57 -60 97c0 54 54 111 148 111c88 0 131 -47 131 -87c0 -51 -49 -84 -110 -105c57 -35 86 -63 86 -106
c0 -64 -67 -121 -169 -121zM717 16c53 0 88 24 88 62c0 23 -16 45 -68 78l-32 20c-45 -17 -75 -42 -75 -81c0 -36 19 -79 87 -79zM765 226c44 19 63 46 63 81c0 37 -20 61 -64 61c-40 0 -75 -24 -75 -59c0 -24 12 -46 64 -76z" />
    <glyph glyph-name="fiveeighths" unicode="&#x215d;" horiz-adv-x="949" 
d="M163 258c-58 0 -109 23 -109 64c0 21 15 40 40 50c21 -43 55 -75 105 -75c59 0 101 34 100 87c-1 51 -45 69 -96 69c-49 0 -76 -15 -94 -30h-14l60 242h230l-12 -64h-193l-26 -102c21 12 43 21 83 21c65 0 132 -29 132 -107c0 -103 -112 -155 -206 -155zM192 -87l-38 32
l603 781l39 -31zM705 -18c-88 0 -150 39 -150 98c0 57 55 90 124 113c-43 28 -60 57 -60 97c0 54 54 111 148 111c88 0 131 -47 131 -87c0 -51 -49 -84 -110 -105c57 -35 86 -63 86 -106c0 -64 -67 -121 -169 -121zM715 16c53 0 88 24 88 62c0 23 -16 45 -68 78l-32 20
c-45 -17 -75 -42 -75 -81c0 -36 19 -79 87 -79zM763 226c44 19 63 46 63 81c0 37 -20 61 -64 61c-40 0 -75 -24 -75 -59c0 -24 12 -46 64 -76z" />
    <glyph glyph-name="twothirds" unicode="&#x2154;" horiz-adv-x="933" 
d="M39 276l5 33l58 41c132 93 191 146 191 195c0 43 -26 72 -72 72c-40 0 -71 -25 -103 -58l-24 24c37 47 79 94 154 94c66 0 121 -41 121 -107c0 -61 -28 -102 -175 -200l-48 -32h213l-12 -62h-308zM205 -87l-38 32l603 781l39 -31zM696 -18c-91 0 -142 34 -142 72
c0 23 18 39 43 53c26 -58 65 -86 120 -86c48 0 79 32 79 78c0 59 -47 84 -130 79l6 30l23 9c85 32 111 58 111 90c0 25 -24 43 -52 43c-46 0 -74 -17 -117 -59l-24 23c58 66 102 87 165 87c65 0 107 -29 107 -76s-57 -77 -116 -106v-3c74 -7 107 -49 107 -91
c0 -87 -100 -143 -180 -143z" />
    <glyph glyph-name="seveneighths" unicode="&#x215e;" horiz-adv-x="886" 
d="M69 276l253 322h-232l13 67h299l-3 -14l-250 -375h-80zM126 -87l-38 32l603 781l39 -31zM642 -18c-88 0 -150 39 -150 98c0 57 55 90 124 113c-43 28 -60 57 -60 97c0 54 54 111 148 111c88 0 131 -47 131 -87c0 -51 -49 -84 -110 -105c57 -35 86 -63 86 -106
c0 -64 -67 -121 -169 -121zM652 16c53 0 88 24 88 62c0 23 -16 45 -68 78l-32 20c-45 -17 -75 -42 -75 -81c0 -36 19 -79 87 -79zM700 226c44 19 63 46 63 81c0 37 -20 61 -64 61c-40 0 -75 -24 -75 -59c0 -24 12 -46 64 -76z" />
    <glyph glyph-name="Pcircle" unicode="&#x24c5;" horiz-adv-x="813" 
d="M66 327c8 193 168 346 359 346s340 -153 332 -346c-6 -193 -167 -345 -358 -345s-339 152 -333 345zM100 327c-6 -175 129 -316 301 -316s315 141 321 316c8 175 -127 316 -299 316s-315 -141 -323 -316zM404 285l5 29c67 3 126 36 126 96c0 65 -63 81 -123 81l-61 -310
l73 -16l-5 -26h-197l6 28l54 14l57 294l-48 16l4 27h168c78 -3 152 -39 152 -103c0 -99 -115 -131 -211 -130z" />
    <glyph glyph-name="dollar.lin" horiz-adv-x="537" 
d="M45 210h35l24 -145c13 -9 58 -37 120 -40l54 277l-28 16c-71 40 -123 83 -121 163c3 95 92 180 222 192l22 111h40l-22 -109c63 -1 109 -18 145 -27l-30 -177h-30l-26 126c-22 20 -42 31 -67 36l-50 -253c103 -57 155 -102 153 -190c-3 -107 -112 -186 -231 -203
l-22 -112h-39l21 108h-9c-65 0 -147 28 -185 40zM391 160c1 48 -18 83 -78 121l-50 -254c62 9 125 48 128 133zM214 526c-1 -54 13 -84 84 -125l46 235c-78 -2 -128 -56 -130 -110z" />
    <glyph glyph-name="Euro.lin" horiz-adv-x="627" 
d="M80 362l13 44h67c69 176 221 263 333 263c70 0 131 -39 131 -83c0 -24 -15 -36 -43 -63c-35 48 -81 99 -147 99c-73 0 -145 -97 -185 -216h253l-13 -44h-253c-7 -28 -13 -57 -16 -85h241l-13 -44h-231v-15c0 -103 56 -168 141 -168c79 0 120 35 175 85l18 -21
c-70 -86 -146 -137 -234 -137c-138 0 -195 124 -195 220c0 12 0 24 1 36h-84l14 44h74c4 30 9 58 17 85h-64z" />
    <glyph glyph-name="sterling.lin" horiz-adv-x="615" 
d="M100 260l7 44h121l44 166c51 194 163 259 238 259c52 0 108 -40 108 -97c0 -34 -36 -51 -78 -55c-9 71 -31 109 -66 109c-28 0 -56 -26 -93 -163l-59 -219h194l-7 -44h-198l-2 -7c-30 -111 -88 -180 -148 -221c44 -17 85 -36 112 -51l34 -18c118 -63 144 -74 166 -74
c49 0 51 89 41 135c46 3 77 -9 77 -46c0 -45 -56 -138 -161 -138c-93 0 -177 60 -266 114l-72 43c-30 -11 -58 -16 -78 -16c-33 0 -49 16 -49 42c0 23 24 44 58 44c26 0 60 -8 96 -20c33 29 60 72 77 134l21 79h-117z" />
    <glyph glyph-name="yen.lin" horiz-adv-x="627" 
d="M63 259l9 42h204l-129 309l-55 22l6 32h241l-6 -32l-88 -21l106 -263h3l205 258l-85 26l7 32h206l-6 -32l-58 -22l-250 -309h208l-9 -43h-209l-15 -75h210l-9 -44h-210l-17 -83l86 -23l-7 -33h-272l7 33l94 23l16 83h-207l9 44h207l16 76h-208z" />
    <glyph glyph-name="florin.lin" horiz-adv-x="456" 
d="M62 273l6 44h89l8 38c36 179 151 324 270 324c48 0 67 -28 67 -54s-20 -50 -31 -64c-31 33 -59 64 -94 64c-34 0 -75 -26 -134 -308h131l-10 -44h-130l-53 -258c-50 -241 -176 -275 -221 -275c-25 0 -66 19 -66 57c0 18 12 41 25 50c26 -24 62 -58 90 -58
c37 0 54 55 73 150l66 334h-86z" />
    <glyph glyph-name="zero.lin" horiz-adv-x="639" 
d="M394 678c126 0 200 -116 200 -274c0 -172 -118 -421 -332 -421c-127 0 -202 115 -202 266c0 179 119 429 334 429zM266 23c136 0 228 242 228 424c0 103 -23 190 -104 190c-143 0 -230 -241 -230 -423c0 -103 25 -191 106 -191z" />
    <glyph glyph-name="one.lin" horiz-adv-x="409" 
d="M347 682l-123 -629l106 -16l-7 -37h-311l7 37l115 15l105 529l-126 -6l7 38l222 69h5z" />
    <glyph glyph-name="two.lin" horiz-adv-x="515" 
d="M218 173l-105 -91h332l-16 -82h-425l10 52l60 53c194 172 313 275 313 376c0 76 -47 118 -111 118c-51 0 -93 -33 -134 -78l-31 30c49 69 111 128 200 128c112 0 171 -69 171 -156c0 -120 -66 -178 -264 -350z" />
    <glyph glyph-name="three.lin" horiz-adv-x="493" 
d="M276 378v-5c81 -15 153 -73 153 -161c0 -130 -153 -228 -269 -228c-86 0 -145 33 -145 72c0 26 18 49 50 71c38 -78 80 -97 132 -97c64 0 142 51 142 148c0 99 -101 142 -189 142l10 44c168 82 201 116 201 174c0 49 -40 66 -82 66c-59 0 -100 -33 -147 -81l-24 24
c64 83 128 132 212 132c79 0 133 -52 133 -116c0 -88 -65 -124 -177 -185z" />
    <glyph glyph-name="four.lin" horiz-adv-x="567" 
d="M192 33l86 23l27 136h-267l5 33l405 444l36 -5l-80 -406h129l-11 -66h-131l-26 -136l75 -24l-6 -32h-248zM125 258h193l53 271z" />
    <glyph glyph-name="five.lin" horiz-adv-x="500" 
d="M488 664l-17 -84h-260l-50 -197c18 10 52 20 96 20c88 0 186 -56 186 -177c0 -145 -154 -242 -279 -242c-41 0 -139 9 -139 73c0 25 15 48 47 70c43 -80 88 -95 142 -95c66 0 145 48 145 154c0 101 -80 137 -135 137c-59 0 -88 -17 -115 -35h-19l94 376h304z" />
    <glyph glyph-name="six.lin" horiz-adv-x="569" 
d="M578 649c-169 -44 -322 -153 -387 -303h1c49 48 103 67 156 67c66 0 163 -47 163 -171c0 -122 -82 -262 -261 -262c-106 0 -187 83 -187 216c0 274 269 449 509 489zM312 367c-45 0 -89 -22 -140 -72c-10 -35 -15 -72 -15 -110c0 -119 42 -165 105 -165
c88 0 155 88 155 215c0 77 -38 132 -105 132z" />
    <glyph glyph-name="seven.lin" horiz-adv-x="464" 
d="M115 0h-82l373 576h-333l17 88h408l-3 -13z" />
    <glyph glyph-name="eight.lin" horiz-adv-x="527" 
d="M34 121c0 117 105 172 190 214l-15 17c-42 46 -72 83 -72 145c0 85 99 182 206 182c103 0 172 -54 172 -141c0 -88 -98 -150 -175 -190l22 -22c46 -49 88 -86 88 -154c0 -110 -122 -192 -221 -192c-122 0 -195 59 -195 141zM267 288l-22 24c-80 -52 -122 -103 -122 -176
c0 -53 36 -116 113 -116c86 0 126 63 126 112c0 62 -51 107 -95 156zM220 525c0 -51 26 -78 72 -127l25 -26c60 40 111 92 111 170c0 63 -36 96 -94 96c-45 0 -114 -34 -114 -113z" />
    <glyph glyph-name="nine.lin" horiz-adv-x="564" 
d="M15 16c167 43 307 146 375 280h-1c-40 -33 -84 -55 -135 -55c-89 0 -171 58 -171 194c0 110 93 250 267 250c96 0 179 -83 179 -217c0 -275 -273 -450 -507 -488zM292 289c38 0 85 20 122 62c14 41 22 84 22 129c0 93 -29 167 -103 167c-80 0 -156 -90 -156 -219
c0 -76 39 -139 115 -139z" />
    <glyph glyph-name="percent.lin" horiz-adv-x="865" 
d="M75 -50l642 729h64l-642 -729h-64zM286 635c-65 0 -124 -86 -124 -191c0 -55 25 -95 69 -95c61 0 124 77 124 190c0 56 -25 96 -69 96zM227 310c-85 0 -139 66 -139 150c0 109 97 214 203 214c84 0 138 -66 138 -150c0 -111 -94 -214 -202 -214zM657 308
c-65 0 -124 -86 -124 -191c0 -55 25 -95 69 -95c61 0 124 77 124 190c0 56 -25 96 -69 96zM598 -17c-85 0 -139 66 -139 150c0 109 97 214 203 214c84 0 138 -66 138 -150c0 -111 -94 -214 -202 -214z" />
    <glyph glyph-name="perthousand.lin" horiz-adv-x="1243" 
d="M227 310c-85 0 -139 66 -139 150c0 109 97 214 203 214c84 0 138 -66 138 -150c0 -111 -94 -214 -202 -214zM286 635c-65 0 -124 -86 -124 -191c0 -55 25 -95 69 -95c61 0 124 77 124 190c0 56 -25 96 -69 96zM75 -50l642 729h64l-642 -729h-64zM598 -17
c-85 0 -139 66 -139 150c0 109 97 214 203 214c84 0 138 -66 138 -150c0 -111 -94 -214 -202 -214zM657 308c-65 0 -124 -86 -124 -191c0 -55 25 -95 69 -95c61 0 124 77 124 190c0 56 -25 96 -69 96zM991 -17c-85 0 -139 66 -139 150c0 109 97 214 203 214
c84 0 138 -66 138 -150c0 -111 -94 -214 -202 -214zM1050 308c-65 0 -124 -86 -124 -191c0 -55 25 -95 69 -95c61 0 124 77 124 190c0 56 -25 96 -69 96z" />
    <glyph glyph-name="plus.lin" horiz-adv-x="558" 
d="M517 268h-206v-208h-62v208h-206v58h206v208h62v-208h206v-58z" />
    <glyph glyph-name="minus.lin" horiz-adv-x="558" 
d="M516 268h-474v58h474v-58z" />
    <glyph glyph-name="multiply.lin" horiz-adv-x="558" 
d="M458 72l-183 184l-180 -184l-41 41l183 184l-183 183l43 43l182 -183l183 188l40 -41l-183 -187l183 -185z" />
    <glyph glyph-name="divide.lin" horiz-adv-x="558" 
d="M516 268h-474v58h474v-58zM278 56c-37 0 -69 32 -69 70c0 37 32 69 69 69c38 0 70 -32 70 -69c0 -38 -32 -70 -70 -70zM279 398c-37 0 -69 32 -69 70c0 37 32 69 69 69c38 0 70 -32 70 -69c0 -38 -32 -70 -70 -70z" />
    <glyph glyph-name="equal.lin" horiz-adv-x="558" 
d="M42 353v55h474v-55h-474zM42 207v55h474v-55h-474z" />
    <glyph glyph-name="less.lin" horiz-adv-x="558" 
d="M514 481l-403 -185l403 -182v-68l-472 220v59l472 220v-64z" />
    <glyph glyph-name="greater.lin" horiz-adv-x="558" 
d="M43 112l403 184l-403 181v68l472 -220v-59l-472 -220v66z" />
    <glyph glyph-name="plusminus.lin" horiz-adv-x="557" 
d="M516 399h-206v-208h-62v208h-206v58h206v208h62v-208h206v-58zM516 0h-474v56h474v-56z" />
    <glyph glyph-name="notequal.lin" horiz-adv-x="558" 
d="M42 353v55h296l99 110h61l-100 -110h118v-55h-167l-82 -91h249v-55h-299l-99 -110h-58l98 110h-116v55h166l81 91h-247z" />
    <glyph glyph-name="approxequal.lin" horiz-adv-x="558" 
d="M90 337l-45 18c29 62 64 99 123 99c23 0 50 -5 76 -11l66 -16c30 -7 62 -16 88 -16c34 0 51 22 71 59l45 -18c-29 -63 -64 -97 -124 -97c-30 0 -66 7 -98 15l-65 17c-23 6 -45 12 -66 12c-34 0 -52 -26 -71 -62zM90 177l-45 18c29 62 64 99 123 99c23 0 50 -5 76 -11
l66 -16c30 -7 62 -16 88 -16c34 0 51 22 71 59l45 -18c-29 -63 -64 -97 -124 -97c-30 0 -66 7 -98 15l-65 17c-23 6 -45 12 -66 12c-34 0 -52 -26 -71 -62z" />
    <glyph glyph-name="lessequal.lin" horiz-adv-x="558" 
d="M513 519l-386 -144l386 -143v-67l-472 180v59l472 180v-65zM513 0h-472v56h472v-56z" />
    <glyph glyph-name="greaterequal.lin" horiz-adv-x="558" 
d="M428 374l-386 143v68l472 -180v-59l-472 -180v65zM514 0h-472v56h472v-56z" />
    <glyph glyph-name="numbersign.lin" horiz-adv-x="593" 
d="M103 423l12 58h107l58 153h56l-57 -153h144l58 153h56l-57 -153h105l-12 -58h-115l-65 -174h102l-12 -58h-112l-56 -151h-56l56 151h-144l-56 -151h-57l56 151h-101l12 58h111l65 174h-98zM257 423l-65 -174h145l65 174h-145z" />
    <glyph glyph-name="ordfeminine.lin" horiz-adv-x="457" 
d="M392 674h55l-93 -337l3 -1c35 10 67 42 86 74l17 -7c-25 -66 -94 -131 -134 -131c-37 0 -56 28 -34 92l23 75h-3c-38 -51 -103 -170 -185 -170c-42 0 -67 33 -67 76c-3 152 152 318 267 318c22 0 43 -6 57 -14zM168 336c50 0 158 154 180 226l11 36c-15 19 -33 31 -55 31
c-61 0 -161 -139 -161 -255c0 -21 6 -38 25 -38z" />
    <glyph glyph-name="ordmasculine.lin" horiz-adv-x="409" 
d="M142 387c0 -36 5 -89 44 -89c71 0 140 153 140 253c0 26 0 92 -47 92c-74 0 -137 -163 -137 -256zM287 670c85 0 119 -68 119 -139c0 -117 -83 -260 -223 -260c-82 0 -119 66 -119 144c0 115 82 255 223 255z" />
    <glyph glyph-name="dollar.tab" 
d="M88 205h36l24 -139c13 -9 52 -32 104 -37l53 266l-22 13c-69 37 -117 79 -115 156c2 88 86 168 206 182l27 138h40l-27 -135c60 -1 118 -19 147 -27l-28 -167h-31l-25 120c-22 20 -44 30 -71 34l-47 -236c107 -60 156 -102 154 -187c-3 -104 -112 -180 -229 -194
l-23 -117h-39l22 114c-66 0 -142 27 -179 39zM420 157c2 47 -20 82 -80 119l-49 -246c61 6 126 43 129 127zM252 507c-1 -49 7 -74 72 -114l42 217c-69 -6 -112 -54 -114 -103z" />
    <glyph glyph-name="Euro.tab" 
d="M97 327l12 44h56c64 159 204 234 298 234c73 0 123 -39 123 -85c0 -25 -13 -39 -41 -68c-35 53 -69 102 -131 102c-68 0 -129 -85 -163 -183h208l-12 -44h-209c-6 -25 -11 -51 -13 -75h201l-12 -44h-191c1 -102 47 -166 127 -166c62 0 106 31 143 66l24 -24
c-59 -64 -115 -107 -200 -107c-133 0 -186 112 -186 203c0 9 0 19 1 28h-68l12 44h59c4 26 9 51 16 75h-54z" />
    <glyph glyph-name="sterling.tab" 
d="M123 255l7 44h99l30 112c41 153 163 242 232 242c35 0 87 -35 87 -96c0 -21 -24 -43 -66 -47c-9 67 -31 100 -57 100c-32 0 -64 -47 -95 -163l-40 -148h166l-7 -44h-171l-3 -14c-29 -108 -84 -176 -138 -215c33 -15 66 -33 94 -53l45 -31c86 -60 126 -92 153 -92
c32 0 42 57 30 130c33 0 72 -6 72 -45c0 -56 -55 -130 -150 -130c-55 0 -114 38 -253 148l-50 40c-21 -8 -38 -12 -51 -12c-39 0 -53 12 -53 36c0 21 25 37 61 37c19 0 42 -6 67 -14c29 26 45 65 57 110l28 105h-94z" />
    <glyph glyph-name="yen.tab" 
d="M79 248l9 44h171l-119 290l-55 22l6 32h241l-6 -32l-88 -21l99 -245h3l192 240l-85 26l7 32h206l-6 -32l-58 -22l-230 -290h172l-8 -44h-180l-16 -75h180l-9 -45h-180l-14 -72l86 -23l-7 -33h-272l7 33l94 23l14 72h-178l9 45h178l15 75h-178z" />
    <glyph glyph-name="florin.tab" 
d="M123 273l6 44h121c43 161 150 287 261 287c48 0 67 -28 67 -54s-20 -50 -31 -64c-31 33 -59 64 -94 64c-31 0 -68 -22 -118 -233h160l-10 -44h-160l-6 -31l-47 -227c-50 -241 -176 -275 -221 -275c-25 0 -66 19 -66 57c0 18 12 41 25 50c26 -24 62 -58 90 -58
c37 0 54 55 73 150l66 334h-116z" />
    <glyph glyph-name="zero.tab" 
d="M348 469c-104 0 -182 -126 -182 -284c0 -83 15 -161 110 -161s178 113 178 281c0 97 -28 164 -106 164zM269 -15c-113 0 -202 79 -202 228c0 152 124 297 284 297c131 0 202 -104 202 -226c0 -157 -120 -299 -284 -299z" />
    <glyph glyph-name="one.tab" 
d="M427 508l-89 -450l130 -21l-7 -37h-365l7 37l149 20l72 367h-148l4 42l243 42h4z" />
    <glyph glyph-name="two.tab" 
d="M239 109l-39 -29h280l-15 -80h-406v24l100 78c180 140 218 188 218 253c0 49 -39 88 -99 88c-49 0 -81 -18 -123 -63l-26 25c52 74 103 109 176 109c106 0 157 -60 157 -133c0 -85 -53 -147 -223 -272z" />
    <glyph glyph-name="three.tab" 
d="M98 -238l-13 34c74 29 261 105 261 227c0 67 -54 124 -147 124h-13l8 49l52 21c61 25 144 79 144 147c0 42 -36 79 -93 79c-43 0 -92 -24 -130 -62l-25 24c37 54 110 109 186 109s147 -44 147 -121c0 -81 -74 -136 -168 -185l-6 -3c73 -18 137 -75 137 -158
c0 -139 -175 -233 -340 -285z" />
    <glyph glyph-name="four.tab" 
d="M271 -195l42 220h-297l5 30l444 451h22l-81 -413h120l-11 -68h-122l-42 -220h-80zM112 93h214l52 272z" />
    <glyph glyph-name="five.tab" 
d="M320 52c0 81 -52 143 -173 260l87 176l265 14l-16 -83l-250 -13l-15 -32c116 -109 194 -180 194 -289c0 -171 -200 -267 -358 -320l-13 34c87 36 279 106 279 253z" />
    <glyph glyph-name="six.tab" 
d="M627 667c-134 -54 -325 -166 -408 -326h2c38 39 91 68 146 68c73 0 163 -46 163 -176c0 -113 -85 -253 -259 -253c-110 0 -189 83 -189 206c0 304 325 452 538 514zM331 363c-41 0 -81 -18 -131 -63c-15 -39 -23 -81 -23 -125c0 -107 39 -155 104 -155
c85 0 155 88 155 215c0 75 -38 128 -105 128z" />
    <glyph glyph-name="seven.tab" 
d="M117 -205l-62 32l412 586h-354l17 88h446l-1 -9l-362 -544z" />
    <glyph glyph-name="eight.tab" 
d="M94 115c0 119 107 178 182 218l-26 26c-37 37 -56 69 -56 128c0 88 93 192 208 192c99 0 163 -57 163 -136c0 -87 -100 -153 -169 -194l20 -19c48 -47 85 -83 85 -143c0 -125 -118 -207 -224 -207c-115 0 -183 53 -183 135zM323 287l-24 23c-75 -55 -116 -107 -116 -180
c0 -53 31 -110 104 -110c90 0 125 72 125 123c0 57 -43 97 -89 144zM281 519c0 -47 22 -78 61 -116l29 -29c54 44 107 102 107 172c0 54 -31 91 -84 91c-50 0 -113 -41 -113 -118z" />
    <glyph glyph-name="nine.tab" 
d="M-18 -175c162 59 324 164 405 304h-1c-37 -30 -81 -50 -130 -50c-70 0 -167 47 -167 188c0 105 94 245 263 245c104 0 185 -83 185 -198c0 -303 -316 -463 -548 -525zM290 126c43 0 81 15 123 56c18 44 29 92 29 142c0 92 -30 148 -104 148c-80 0 -155 -88 -155 -210
c0 -83 40 -136 107 -136z" />
    <glyph glyph-name="cent.tab" 
d="M205 -125l32 114c-70 4 -115 65 -115 142c0 97 48 216 157 297c26 20 64 41 96 51l37 133h40l-36 -127c46 -3 84 -26 84 -50c0 -31 -28 -69 -31 -69c-26 26 -48 47 -70 58l-104 -373c42 12 104 61 141 115l18 -12c-25 -49 -100 -136 -175 -159l-33 -120h-41zM212 154
c0 -67 18 -93 43 -102l106 380c-83 -7 -149 -162 -149 -278z" />
    <glyph glyph-name="percent.tab" horiz-adv-x="900" 
d="M256 566c-59 0 -108 -86 -108 -191c0 -55 15 -95 64 -95c56 0 109 77 109 190c0 56 -15 96 -65 96zM203 241c-85 0 -129 66 -129 150c0 109 87 214 193 214c84 0 128 -66 128 -150c0 -111 -84 -214 -192 -214zM110 -50l598 680h64l-598 -680h-64zM676 308
c-59 0 -108 -86 -108 -191c0 -55 15 -95 64 -95c56 0 109 77 109 190c0 56 -15 96 -65 96zM623 -17c-85 0 -129 66 -129 150c0 109 87 214 193 214c84 0 128 -66 128 -150c0 -111 -84 -214 -192 -214z" />
    <glyph glyph-name="perthousand.tab" horiz-adv-x="1200" 
d="M80 -50l598 680h64l-598 -680h-64zM226 566c-59 0 -108 -86 -108 -191c0 -55 15 -95 64 -95c56 0 109 77 109 190c0 56 -15 96 -65 96zM173 241c-85 0 -129 66 -129 150c0 109 87 214 193 214c84 0 128 -66 128 -150c0 -111 -84 -214 -192 -214zM646 308
c-59 0 -108 -86 -108 -191c0 -55 15 -95 64 -95c56 0 109 77 109 190c0 56 -15 96 -65 96zM593 -17c-85 0 -129 66 -129 150c0 109 87 214 193 214c84 0 128 -66 128 -150c0 -111 -84 -214 -192 -214zM1033 308c-59 0 -108 -86 -108 -191c0 -55 15 -95 64 -95
c56 0 109 77 109 190c0 56 -15 96 -65 96zM980 -17c-85 0 -129 66 -129 150c0 109 87 214 193 214c84 0 128 -66 128 -150c0 -111 -84 -214 -192 -214z" />
    <glyph glyph-name="plus.tab" 
d="M547 208h-206v-208h-62v208h-206v58h206v208h62v-208h206v-58z" />
    <glyph glyph-name="minus.tab" 
d="M547 208h-474v58h474v-58z" />
    <glyph glyph-name="multiply.tab" 
d="M490 12l-183 184l-180 -184l-41 41l183 184l-183 183l43 43l182 -183l183 188l40 -41l-183 -187l183 -185z" />
    <glyph glyph-name="divide.tab" 
d="M547 208h-474v58h474v-58zM309 -4c-37 0 -69 32 -69 70c0 37 32 69 69 69c38 0 70 -32 70 -69c0 -38 -32 -70 -70 -70zM310 338c-37 0 -69 32 -69 70c0 37 32 69 69 69c38 0 70 -32 70 -69c0 -38 -32 -70 -70 -70z" />
    <glyph glyph-name="equal.tab" 
d="M73 293v55h474v-55h-474zM73 147v55h474v-55h-474z" />
    <glyph glyph-name="less.tab" 
d="M546 421l-403 -185l403 -182v-68l-472 220v59l472 220v-64z" />
    <glyph glyph-name="greater.tab" 
d="M74 52l403 184l-403 181v68l472 -220v-59l-472 -220v66z" />
    <glyph glyph-name="plusminus.tab" 
d="M547 338h-206v-208h-62v208h-206v58h206v208h62v-208h206v-58zM547 0h-474v56h474v-56z" />
    <glyph glyph-name="notequal.tab" 
d="M73 293v55h296l99 110h61l-100 -110h118v-55h-167l-82 -91h249v-55h-299l-99 -110h-58l98 110h-116v55h166l81 91h-247z" />
    <glyph glyph-name="approxequal.tab" 
d="M125 277l-45 18c29 62 64 99 123 99c23 0 50 -5 76 -11l66 -16c30 -7 62 -16 88 -16c34 0 51 22 71 59l45 -18c-29 -63 -64 -97 -124 -97c-30 0 -66 7 -98 15l-65 17c-23 6 -45 12 -66 12c-34 0 -52 -26 -71 -62zM115 117l-45 18c29 62 64 99 123 99c23 0 50 -5 76 -11
l66 -16c30 -7 62 -16 88 -16c34 0 51 22 71 59l45 -18c-29 -63 -64 -97 -124 -97c-30 0 -66 7 -98 15l-65 17c-23 6 -45 12 -66 12c-34 0 -52 -26 -71 -62z" />
    <glyph glyph-name="lessequal.tab" 
d="M546 460l-386 -144l386 -143v-67l-472 180v59l472 180v-65zM546 0h-472v56h472v-56z" />
    <glyph glyph-name="greaterequal.tab" 
d="M460 314l-386 143v68l472 -180v-59l-472 -180v65zM546 0h-472v56h472v-56z" />
    <glyph glyph-name="parenleft.tab" horiz-adv-x="300" 
d="M246 -180h-49c-87 124 -130 278 -91 475c31 157 133 313 269 437h55c-132 -141 -210 -268 -246 -447c-38 -194 -13 -324 62 -465z" />
    <glyph glyph-name="parenright.tab" horiz-adv-x="300" 
d="M75 732h49c87 -124 130 -278 91 -475c-31 -157 -133 -313 -269 -437h-55c132 141 210 268 246 447c38 194 13 324 -62 465z" />
    <glyph glyph-name="bracketleft.tab" horiz-adv-x="300" 
d="M197 -181h-174l181 914h173l-7 -39h-95l-165 -836h95z" />
    <glyph glyph-name="bracketright.tab" horiz-adv-x="300" 
d="M124 733h173l-181 -914h-172l8 39h95l165 836h-96z" />
    <glyph glyph-name="braceleft.tab" horiz-adv-x="300" 
d="M165 293v-2c48 -19 68 -53 55 -130l-29 -177c-16 -113 -1 -133 69 -133l-6 -32h-14c-134 0 -154 62 -124 200l34 159c13 61 -7 92 -48 93l-36 1l9 46l35 1c52 1 75 29 83 73l33 185c16 94 60 156 194 156h15l-7 -32c-70 0 -96 -19 -122 -133l-36 -157
c-17 -73 -44 -108 -105 -118z" />
    <glyph glyph-name="braceright.tab" horiz-adv-x="300" 
d="M176 259v2c-48 19 -68 53 -55 130l29 177c16 113 1 133 -69 133l6 32h14c134 0 154 -62 124 -200l-34 -159c-13 -61 7 -92 48 -93l36 -1l-9 -46l-35 -1c-52 -1 -75 -29 -83 -73l-33 -185c-16 -94 -60 -156 -194 -156h-15l7 32c70 0 96 19 122 133l36 157
c17 73 44 108 105 118z" />
    <glyph glyph-name="numbersign.tab" 
d="M129 383l12 58h107l58 153h56l-57 -153h144l58 153h56l-57 -153h105l-12 -58h-115l-65 -174h102l-12 -58h-112l-56 -151h-56l56 151h-144l-56 -151h-57l56 151h-101l12 58h111l65 174h-98zM283 383l-65 -174h145l65 174h-145z" />
    <glyph glyph-name="period.tab" horiz-adv-x="300" 
d="M149 -4c-37 0 -69 32 -69 70c0 37 32 69 69 69c38 0 70 -32 70 -69c0 -38 -32 -70 -70 -70z" />
    <glyph glyph-name="comma.tab" horiz-adv-x="300" 
d="M7 -159c83 35 117 100 117 149c0 37 -19 66 -58 84c0 38 18 80 66 80c43 0 79 -35 79 -102c0 -101 -84 -207 -190 -240c0 0 -13 24 -14 29z" />
    <glyph glyph-name="colon.tab" horiz-adv-x="300" 
d="M127 -4c-37 0 -69 32 -69 70c0 37 32 69 69 69c38 0 70 -32 70 -69c0 -38 -32 -70 -70 -70zM192 331c-37 0 -69 32 -69 70c0 37 32 69 69 69c38 0 70 -32 70 -69c0 -38 -32 -70 -70 -70z" />
    <glyph glyph-name="semicolon.tab" horiz-adv-x="300" 
d="M-2 -159c83 35 117 100 117 149c0 37 -19 66 -58 84c0 38 18 80 66 80c43 0 79 -35 79 -102c0 -101 -84 -207 -190 -240c0 0 -13 24 -14 29zM190 331c-37 0 -69 32 -69 70c0 37 32 69 69 69c38 0 70 -32 70 -69c0 -38 -32 -70 -70 -70z" />
    <glyph glyph-name="space.tab" horiz-adv-x="300" 
 />
    <glyph glyph-name="dollar.lintab" 
d="M69 210h35l24 -146c13 -10 53 -36 115 -39l54 277l-28 16c-71 40 -123 83 -121 163c3 95 92 180 222 192l22 111h40l-22 -109c62 -1 105 -17 140 -27l-30 -177h-30l-26 127c-20 19 -38 30 -62 35l-50 -253c103 -57 155 -102 153 -190c-3 -107 -112 -186 -231 -203
l-22 -112h-39l21 108h-9c-65 0 -132 24 -180 40zM410 160c1 48 -18 83 -78 121l-50 -254c62 9 125 48 128 133zM233 526c-1 -54 12 -83 84 -125l46 235c-78 -2 -128 -56 -130 -110z" />
    <glyph glyph-name="Euro.lintab" 
d="M80 362l13 44h51c67 176 213 263 328 263c60 0 119 -47 119 -85c0 -24 -15 -36 -43 -63c-41 63 -79 101 -135 101c-69 0 -139 -98 -178 -216h251l-13 -44h-251c-7 -28 -12 -57 -16 -85h239l-13 -44h-229v-15c0 -103 55 -168 140 -168c68 0 109 26 164 76l19 -23
c-66 -81 -133 -126 -224 -126c-138 0 -194 124 -194 220c0 12 0 24 1 36h-70l14 44h60c3 30 9 58 16 85h-49z" />
    <glyph glyph-name="sterling.lintab" 
d="M107 260l7 44h103l37 166c49 186 149 259 229 259c51 0 107 -40 107 -97c0 -34 -36 -51 -78 -55c-9 71 -31 109 -63 109c-26 0 -49 -26 -86 -163l-50 -219h158l-7 -44h-161l-1 -7c-31 -113 -87 -183 -144 -224c41 -17 80 -37 108 -52l34 -18c118 -63 126 -70 153 -70
c32 0 54 59 37 135c49 3 77 -12 77 -46c0 -61 -71 -138 -155 -138c-83 0 -181 55 -256 108l-66 46c-26 -9 -49 -13 -68 -13c-33 0 -54 16 -54 42c0 23 24 42 60 42c24 0 55 -8 87 -19c32 26 59 67 74 135l18 79h-100z" />
    <glyph glyph-name="yen.lintab" 
d="M68 259l9 42h168l-112 309l-55 22l6 32h241l-6 -32l-88 -21l91 -263h3l189 258l-85 26l7 32h206l-6 -32l-58 -22l-231 -309h170l-9 -43h-175l-15 -75h175l-9 -44h-175l-17 -83l86 -23l-7 -33h-272l7 33l94 23l17 83h-173l9 44h173l15 76h-173z" />
    <glyph glyph-name="florin.lintab" 
d="M77 273l6 44h159l8 38c36 179 151 324 270 324c48 0 67 -28 67 -54s-20 -50 -31 -64c-31 33 -59 64 -94 64c-34 0 -75 -26 -134 -308h186l-10 -44h-185l-53 -258c-50 -241 -176 -275 -221 -275c-25 0 -66 19 -66 57c0 18 12 41 25 50c26 -24 62 -58 90 -58
c37 0 54 55 73 150l66 334h-156z" />
    <glyph glyph-name="zero.lintab" 
d="M370 678c126 0 187 -116 187 -274c0 -172 -105 -421 -319 -421c-127 0 -189 115 -189 266c0 179 106 429 321 429zM249 23c129 0 208 242 208 424c0 103 -10 190 -100 190c-134 0 -208 -241 -208 -423c0 -103 12 -191 100 -191z" />
    <glyph glyph-name="one.lintab" 
d="M436 682l-121 -620l156 -18l-9 -44h-421l9 44l175 17l103 520h-182l7 37l278 64h5z" />
    <glyph glyph-name="two.lintab" 
d="M242 173l-105 -91h332l-16 -82h-425l10 52l60 53c194 172 313 275 313 376c0 76 -47 118 -111 118c-51 0 -93 -33 -134 -78l-31 30c49 69 111 128 200 128c112 0 171 -69 171 -156c0 -120 -66 -178 -264 -350z" />
    <glyph glyph-name="three.lintab" 
d="M314 375v-5c81 -15 163 -70 163 -158c0 -130 -163 -228 -273 -228c-92 0 -159 33 -159 72c0 26 18 49 50 71c36 -72 83 -97 145 -97c75 0 147 56 147 148c0 99 -117 142 -205 142l10 42c179 88 217 117 217 176c0 40 -33 66 -86 66c-65 0 -111 -30 -158 -78l-24 24
c64 83 133 129 209 129c112 0 151 -60 151 -116c0 -88 -75 -127 -187 -188z" />
    <glyph glyph-name="four.lintab" 
d="M205 33l86 23l24 126h-294l5 33l435 454l34 -5l-82 -416h123l-11 -66h-125l-24 -126l77 -24l-6 -32h-248zM109 248h219l56 286z" />
    <glyph glyph-name="five.lintab" 
d="M535 664l-17 -84h-266l-50 -197c18 10 52 20 96 20c88 0 192 -56 192 -177c0 -145 -154 -242 -279 -242c-41 0 -145 9 -145 73c0 25 15 48 47 70c43 -80 94 -95 148 -95c66 0 145 48 145 154c0 101 -86 137 -141 137c-59 0 -88 -17 -115 -35h-19l94 376h310z" />
    <glyph glyph-name="six.lintab" 
d="M577 646c-170 -44 -313 -157 -377 -300h1c49 48 103 67 151 67c79 0 158 -65 158 -171c0 -122 -72 -262 -251 -262c-106 0 -187 83 -187 216c0 260 251 444 499 487zM317 367c-41 0 -84 -22 -135 -71c-10 -36 -16 -73 -16 -111c0 -119 42 -165 105 -165
c88 0 145 88 145 215c0 68 -30 132 -99 132z" />
    <glyph glyph-name="seven.lintab" 
d="M194 0h-88l388 576h-377l17 88h458l-3 -13z" />
    <glyph glyph-name="eight.lintab" 
d="M64 121c0 116 101 172 186 214l-16 17c-44 44 -72 83 -72 145c0 85 99 182 206 182c103 0 172 -54 172 -141c0 -88 -94 -151 -170 -191l22 -21c46 -49 88 -86 88 -154c0 -110 -122 -192 -221 -192c-122 0 -195 59 -195 141zM297 288l-23 23c-80 -51 -121 -102 -121 -175
c0 -53 36 -116 113 -116c86 0 126 63 126 112c0 62 -49 109 -95 156zM245 525c0 -51 26 -78 72 -127l28 -27c60 40 108 92 108 171c0 63 -36 96 -94 96c-45 0 -114 -34 -114 -113z" />
    <glyph glyph-name="nine.lintab" 
d="M34 19c161 42 298 145 365 277h-1c-40 -33 -84 -55 -131 -55c-91 0 -165 61 -165 194c0 110 83 250 251 250c102 0 185 -83 185 -217c0 -273 -272 -446 -497 -486zM303 289c36 0 83 20 120 62c14 41 22 84 22 129c0 93 -29 167 -103 167c-80 0 -146 -90 -146 -219
c0 -76 34 -139 107 -139z" />
    <glyph glyph-name="percent.lintab" horiz-adv-x="900" 
d="M79 -50l642 729h64l-642 -729h-64zM290 635c-65 0 -124 -86 -124 -191c0 -55 25 -95 69 -95c61 0 124 77 124 190c0 56 -25 96 -69 96zM231 310c-85 0 -139 66 -139 150c0 109 97 214 203 214c84 0 138 -66 138 -150c0 -111 -94 -214 -202 -214zM661 308
c-65 0 -124 -86 -124 -191c0 -55 25 -95 69 -95c61 0 124 77 124 190c0 56 -25 96 -69 96zM602 -17c-85 0 -139 66 -139 150c0 109 97 214 203 214c84 0 138 -66 138 -150c0 -111 -94 -214 -202 -214z" />
    <glyph glyph-name="perthousand.lintab" horiz-adv-x="1200" 
d="M195 310c-85 0 -139 66 -139 150c0 109 97 214 203 214c84 0 138 -66 138 -150c0 -111 -94 -214 -202 -214zM254 635c-65 0 -124 -86 -124 -191c0 -55 25 -95 69 -95c61 0 124 77 124 190c0 56 -25 96 -69 96zM43 -50l642 729h64l-642 -729h-64zM566 -17
c-85 0 -139 66 -139 150c0 109 97 214 203 214c84 0 138 -66 138 -150c0 -111 -94 -214 -202 -214zM625 308c-65 0 -124 -86 -124 -191c0 -55 25 -95 69 -95c61 0 124 77 124 190c0 56 -25 96 -69 96zM959 -17c-85 0 -139 66 -139 150c0 109 97 214 203 214
c84 0 138 -66 138 -150c0 -111 -94 -214 -202 -214zM1018 308c-65 0 -124 -86 -124 -191c0 -55 25 -95 69 -95c61 0 124 77 124 190c0 56 -25 96 -69 96z" />
    <glyph glyph-name="numbersign.lintab" 
d="M117 423l12 58h107l58 153h56l-57 -153h144l58 153h56l-57 -153h105l-12 -58h-115l-65 -174h102l-12 -58h-112l-56 -151h-56l56 151h-144l-56 -151h-57l56 151h-101l12 58h111l65 174h-98zM271 423l-65 -174h145l65 174h-145z" />
    <glyph glyph-name="plus.lintab" 
d="M535 268h-206v-208h-62v208h-206v58h206v208h62v-208h206v-58z" />
    <glyph glyph-name="minus.lintab" 
d="M535 268h-474v58h474v-58z" />
    <glyph glyph-name="multiply.lintab" 
d="M478 72l-183 184l-180 -184l-41 41l183 184l-183 183l43 43l182 -183l183 188l40 -41l-183 -187l183 -185z" />
    <glyph glyph-name="divide.lintab" 
d="M535 268h-474v58h474v-58zM297 56c-37 0 -69 32 -69 70c0 37 32 69 69 69c38 0 70 -32 70 -69c0 -38 -32 -70 -70 -70zM298 398c-37 0 -69 32 -69 70c0 37 32 69 69 69c38 0 70 -32 70 -69c0 -38 -32 -70 -70 -70z" />
    <glyph glyph-name="equal.lintab" 
d="M61 353v55h474v-55h-474zM61 207v55h474v-55h-474z" />
    <glyph glyph-name="less.lintab" 
d="M534 478l-400 -183l400 -180v-69l-472 220v59l472 220v-67z" />
    <glyph glyph-name="greater.lintab" 
d="M62 113l400 183l-400 180v69l472 -220v-59l-472 -220v67z" />
    <glyph glyph-name="plusminus.lintab" 
d="M535 399h-206v-208h-62v208h-206v58h206v208h62v-208h206v-58zM535 0h-474v56h474v-56z" />
    <glyph glyph-name="notequal.lintab" 
d="M61 353v55h296l99 110h61l-100 -110h118v-55h-167l-82 -91h249v-55h-299l-99 -110h-58l98 110h-116v55h166l81 91h-247z" />
    <glyph glyph-name="approxequal.lintab" 
d="M108 337l-45 18c29 62 64 99 123 99c23 0 50 -5 76 -11l66 -16c30 -7 62 -16 88 -16c34 0 51 22 71 59l45 -18c-29 -63 -64 -97 -124 -97c-30 0 -66 7 -98 15l-65 17c-23 6 -45 12 -66 12c-34 0 -52 -26 -71 -62zM108 177l-45 18c29 62 64 99 123 99c23 0 50 -5 76 -11
l66 -16c30 -7 62 -16 88 -16c34 0 51 22 71 59l45 -18c-29 -63 -64 -97 -124 -97c-30 0 -66 7 -98 15l-65 17c-23 6 -45 12 -66 12c-34 0 -52 -26 -71 -62z" />
    <glyph glyph-name="lessequal.lintab" 
d="M534 518l-384 -143l384 -142v-67l-472 180v59l472 180v-67zM534 0h-472v56h472v-56z" />
    <glyph glyph-name="greaterequal.lintab" 
d="M446 375l-384 143v67l472 -180v-59l-472 -180v67zM534 0h-472v56h472v-56z" />
    <glyph glyph-name="parenleft.uctab" horiz-adv-x="300" 
d="M238 -140h-49c-87 124 -130 278 -91 475c31 157 133 313 269 437h55c-132 -141 -210 -268 -246 -447c-38 -194 -13 -324 62 -465z" />
    <glyph glyph-name="parenright.uctab" horiz-adv-x="300" 
d="M63 772h49c87 -124 130 -278 91 -475c-31 -157 -133 -313 -269 -437h-55c132 141 210 268 246 447c38 194 13 324 -62 465z" />
    <glyph glyph-name="bracketleft.uctab" horiz-adv-x="300" 
d="M186 -141h-174l181 914h173l-7 -39h-95l-165 -836h95z" />
    <glyph glyph-name="bracketright.uctab" horiz-adv-x="300" 
d="M119 773h173l-181 -914h-172l8 39h95l165 836h-96z" />
    <glyph glyph-name="braceleft.uctab" horiz-adv-x="300" 
d="M131 333v-2c48 -19 68 -53 55 -130l-29 -177c-16 -113 -1 -133 69 -133l-6 -32h-14c-134 0 -154 62 -124 200l34 159c13 61 -7 92 -48 93l-36 1l9 46l35 1c52 1 75 29 83 73l33 185c16 94 60 156 194 156h15l-7 -32c-70 0 -96 -19 -122 -133l-36 -157
c-17 -73 -44 -108 -105 -118z" />
    <glyph glyph-name="braceright.uctab" horiz-adv-x="300" 
d="M169 299v2c-48 19 -68 53 -55 130l29 177c16 113 1 133 -69 133l6 32h14c134 0 154 -62 124 -200l-34 -159c-13 -61 7 -92 48 -93l36 -1l-9 -46l-35 -1c-52 -1 -75 -29 -83 -73l-33 -185c-16 -94 -60 -156 -194 -156h-15l7 32c70 0 96 19 122 133l36 157
c17 73 44 108 105 118z" />
    <glyph glyph-name="zero.num" horiz-adv-x="477" 
d="M246 258c-101 0 -162 79 -162 167c0 111 83 252 229 252c97 0 163 -71 163 -177c0 -96 -83 -242 -230 -242zM252 294c83 -1 136 119 136 225c0 72 -22 122 -80 122c-89 0 -136 -127 -136 -225c0 -70 22 -121 80 -122z" />
    <glyph glyph-name="one.num" horiz-adv-x="340" 
d="M45 276l7 33l96 16l53 267h-103l3 34l184 41h6l-67 -343l86 -15l-7 -33h-258z" />
    <glyph glyph-name="two.num" horiz-adv-x="370" 
d="M39 276l5 33l58 41c132 93 191 146 191 195c0 43 -26 72 -72 72c-40 0 -71 -25 -103 -58l-24 24c37 47 79 94 154 94c66 0 121 -41 121 -107c0 -61 -28 -102 -175 -200l-48 -32h213l-12 -62h-308z" />
    <glyph glyph-name="three.num" horiz-adv-x="368" 
d="M189 258c-91 0 -142 34 -142 72c0 23 18 39 43 53c26 -58 65 -86 120 -86c48 0 79 32 79 78c0 59 -47 84 -130 79l6 30l23 9c85 32 111 58 111 90c0 25 -24 43 -52 43c-46 0 -74 -17 -117 -59l-24 23c58 66 102 87 165 87c65 0 107 -29 107 -76s-57 -77 -116 -106v-3
c74 -7 107 -49 107 -91c0 -87 -100 -143 -180 -143z" />
    <glyph glyph-name="four.num" horiz-adv-x="394" 
d="M222 276l18 92h-188l4 25l287 277l30 -3l-51 -250h92l-8 -49h-93l-17 -92h-74zM127 417h122l29 146z" />
    <glyph glyph-name="five.num" horiz-adv-x="383" 
d="M163 258c-58 0 -109 23 -109 64c0 21 15 40 40 50c21 -43 55 -75 105 -75c59 0 101 34 100 87c-1 51 -45 69 -96 69c-49 0 -76 -15 -94 -30h-14l60 242h230l-12 -64h-193l-26 -102c21 12 43 21 83 21c65 0 132 -29 132 -107c0 -103 -112 -155 -206 -155z" />
    <glyph glyph-name="six.num" horiz-adv-x="423" 
d="M235 258c-87 0 -152 56 -152 153c0 149 150 257 335 276l4 -34c-126 -27 -207 -79 -237 -163c25 25 65 41 107 41c63 0 122 -40 122 -116c0 -74 -64 -157 -179 -157zM243 293c55 0 86 49 86 113c0 55 -26 86 -69 86c-35 0 -66 -17 -87 -42c-4 -18 -6 -36 -6 -65
c0 -59 31 -92 76 -92z" />
    <glyph glyph-name="seven.num" horiz-adv-x="351" 
d="M69 276l253 322h-232l13 67h299l-3 -14l-250 -375h-80z" />
    <glyph glyph-name="eight.num" horiz-adv-x="398" 
d="M212 258c-88 0 -150 39 -150 98c0 57 55 90 124 113c-43 28 -60 57 -60 97c0 54 54 111 148 111c88 0 131 -47 131 -87c0 -51 -49 -84 -110 -105c57 -35 86 -63 86 -106c0 -64 -67 -121 -169 -121zM222 292c53 0 88 24 88 62c0 23 -16 45 -68 78l-32 20
c-45 -17 -75 -42 -75 -81c0 -36 19 -79 87 -79zM270 502c44 19 63 46 63 81c0 37 -20 61 -64 61c-40 0 -75 -24 -75 -59c0 -24 12 -46 64 -76z" />
    <glyph glyph-name="nine.num" horiz-adv-x="423" 
d="M270 677c86 0 152 -58 152 -155c0 -139 -135 -254 -337 -274l-7 34c138 28 211 85 244 163c-26 -25 -68 -41 -107 -41c-66 0 -124 41 -124 117c0 74 64 156 179 156zM262 642c-55 0 -86 -48 -86 -112c0 -60 27 -87 72 -87c35 0 63 17 84 42c4 18 6 36 6 65
c0 59 -31 92 -76 92z" />
    <glyph glyph-name="zero.den" horiz-adv-x="477" 
d="M188 -18c-101 0 -162 79 -162 167c0 111 83 252 229 252c97 0 163 -71 163 -177c0 -96 -83 -242 -230 -242zM194 18c83 -1 136 119 136 225c0 72 -22 122 -80 122c-89 0 -136 -127 -136 -225c0 -70 22 -121 80 -122z" />
    <glyph glyph-name="one.den" horiz-adv-x="340" 
d="M-13 0l7 33l96 16l53 267h-103l3 34l184 41h6l-67 -343l86 -15l-7 -33h-258z" />
    <glyph glyph-name="two.den" horiz-adv-x="370" 
d="M-19 0l5 33l58 41c132 93 191 146 191 195c0 43 -26 72 -72 72c-40 0 -71 -25 -103 -58l-24 24c37 47 79 94 154 94c66 0 121 -41 121 -107c0 -61 -28 -102 -175 -200l-48 -32h213l-12 -62h-308z" />
    <glyph glyph-name="three.den" horiz-adv-x="368" 
d="M131 -18c-91 0 -142 34 -142 72c0 23 18 39 43 53c26 -58 65 -86 120 -86c48 0 79 32 79 78c0 59 -47 84 -130 79l6 30l23 9c85 32 111 58 111 90c0 25 -24 43 -52 43c-46 0 -74 -17 -117 -59l-24 23c58 66 102 87 165 87c65 0 107 -29 107 -76s-57 -77 -116 -106v-3
c74 -7 107 -49 107 -91c0 -87 -100 -143 -180 -143z" />
    <glyph glyph-name="four.den" horiz-adv-x="394" 
d="M164 0l18 92h-188l4 25l287 277l30 -3l-51 -250h92l-8 -49h-93l-17 -92h-74zM69 141h122l29 146z" />
    <glyph glyph-name="five.den" horiz-adv-x="383" 
d="M105 -18c-58 0 -109 23 -109 64c0 21 15 40 40 50c21 -43 55 -75 105 -75c59 0 101 34 100 87c-1 51 -45 69 -96 69c-49 0 -76 -15 -94 -30h-14l60 242h230l-12 -64h-193l-26 -102c21 12 43 21 83 21c65 0 132 -29 132 -107c0 -103 -112 -155 -206 -155z" />
    <glyph glyph-name="six.den" horiz-adv-x="423" 
d="M177 -18c-87 0 -152 56 -152 153c0 149 150 257 335 276l4 -34c-126 -27 -207 -79 -237 -163c25 25 65 41 107 41c63 0 122 -40 122 -116c0 -74 -64 -157 -179 -157zM185 17c55 0 86 49 86 113c0 55 -26 86 -69 86c-35 0 -66 -17 -87 -42c-4 -18 -6 -36 -6 -65
c0 -59 31 -92 76 -92z" />
    <glyph glyph-name="seven.den" horiz-adv-x="351" 
d="M11 0l253 322h-232l13 67h299l-3 -14l-250 -375h-80z" />
    <glyph glyph-name="eight.den" horiz-adv-x="398" 
d="M154 -18c-88 0 -150 39 -150 98c0 57 55 90 124 113c-43 28 -60 57 -60 97c0 54 54 111 148 111c88 0 131 -47 131 -87c0 -51 -49 -84 -110 -105c57 -35 86 -63 86 -106c0 -64 -67 -121 -169 -121zM164 16c53 0 88 24 88 62c0 23 -16 45 -68 78l-32 20
c-45 -17 -75 -42 -75 -81c0 -36 19 -79 87 -79zM212 226c44 19 63 46 63 81c0 37 -20 61 -64 61c-40 0 -75 -24 -75 -59c0 -24 12 -46 64 -76z" />
    <glyph glyph-name="nine.den" horiz-adv-x="423" 
d="M212 401c86 0 152 -58 152 -155c0 -139 -135 -254 -337 -274l-7 34c138 28 211 85 244 163c-26 -25 -68 -41 -107 -41c-66 0 -124 41 -124 117c0 74 64 156 179 156zM204 366c-55 0 -86 -48 -86 -112c0 -60 27 -87 72 -87c35 0 63 17 84 42c4 18 6 36 6 65
c0 59 -31 92 -76 92z" />
    <glyph glyph-name="zero.sub" horiz-adv-x="477" 
d="M167 -148c-101 0 -162 79 -162 167c0 111 83 252 229 252c97 0 163 -71 163 -177c0 -96 -83 -242 -230 -242zM173 -112c83 -1 136 119 136 225c0 72 -22 122 -80 122c-89 0 -136 -127 -136 -225c0 -70 22 -121 80 -122z" />
    <glyph glyph-name="one.sub" horiz-adv-x="340" 
d="M-34 -130l7 33l96 16l53 267h-103l3 34l184 41h6l-67 -343l86 -15l-7 -33h-258z" />
    <glyph glyph-name="two.sub" horiz-adv-x="370" 
d="M-40 -130l5 33l58 41c132 93 191 146 191 195c0 43 -26 72 -72 72c-40 0 -71 -25 -103 -58l-24 24c37 47 79 94 154 94c66 0 121 -41 121 -107c0 -61 -28 -102 -175 -200l-48 -32h213l-12 -62h-308z" />
    <glyph glyph-name="three.sub" horiz-adv-x="368" 
d="M110 -148c-91 0 -142 34 -142 72c0 23 18 39 43 53c26 -58 65 -86 120 -86c48 0 79 32 79 78c0 59 -47 84 -130 79l6 30l23 9c85 32 111 58 111 90c0 25 -24 43 -52 43c-46 0 -74 -17 -117 -59l-24 23c58 66 102 87 165 87c65 0 107 -29 107 -76s-57 -77 -116 -106v-3
c74 -7 107 -49 107 -91c0 -87 -100 -143 -180 -143z" />
    <glyph glyph-name="four.sub" horiz-adv-x="394" 
d="M143 -130l18 92h-188l4 25l287 277l30 -3l-51 -250h92l-8 -49h-93l-17 -92h-74zM48 11h122l29 146z" />
    <glyph glyph-name="five.sub" horiz-adv-x="383" 
d="M84 -148c-58 0 -109 23 -109 64c0 21 15 40 40 50c21 -43 55 -75 105 -75c59 0 101 34 100 87c-1 51 -45 69 -96 69c-49 0 -76 -15 -94 -30h-14l60 242h230l-12 -64h-193l-26 -102c21 12 43 21 83 21c65 0 132 -29 132 -107c0 -103 -112 -155 -206 -155z" />
    <glyph glyph-name="six.sub" horiz-adv-x="423" 
d="M156 -148c-87 0 -152 56 -152 153c0 149 150 257 335 276l4 -34c-126 -27 -207 -79 -237 -163c25 25 65 41 107 41c63 0 122 -40 122 -116c0 -74 -64 -157 -179 -157zM164 -113c55 0 86 49 86 113c0 55 -26 86 -69 86c-35 0 -66 -17 -87 -42c-4 -18 -6 -36 -6 -65
c0 -59 31 -92 76 -92z" />
    <glyph glyph-name="seven.sub" horiz-adv-x="351" 
d="M-10 -130l253 322h-232l13 67h299l-3 -14l-250 -375h-80z" />
    <glyph glyph-name="eight.sub" horiz-adv-x="398" 
d="M133 -148c-88 0 -150 39 -150 98c0 57 55 90 124 113c-43 28 -60 57 -60 97c0 54 54 111 148 111c88 0 131 -47 131 -87c0 -51 -49 -84 -110 -105c57 -35 86 -63 86 -106c0 -64 -67 -121 -169 -121zM143 -114c53 0 88 24 88 62c0 23 -16 45 -68 78l-32 20
c-45 -17 -75 -42 -75 -81c0 -36 19 -79 87 -79zM191 96c44 19 63 46 63 81c0 37 -20 61 -64 61c-40 0 -75 -24 -75 -59c0 -24 12 -46 64 -76z" />
    <glyph glyph-name="nine.sub" horiz-adv-x="423" 
d="M191 271c86 0 152 -58 152 -155c0 -139 -135 -254 -337 -274l-7 34c138 28 211 85 244 163c-26 -25 -68 -41 -107 -41c-66 0 -124 41 -124 117c0 74 64 156 179 156zM183 236c-55 0 -86 -48 -86 -112c0 -60 27 -87 72 -87c35 0 63 17 84 42c4 18 6 36 6 65
c0 59 -31 92 -76 92z" />
    <glyph glyph-name="plus.sub" horiz-adv-x="442" 
d="M119 -107l29 153h-151l11 54h151l29 153h58l-29 -153h151l-11 -54h-151l-29 -153h-58z" />
    <glyph glyph-name="minus.sub" horiz-adv-x="442" 
d="M357 46h-360l11 54h360z" />
    <glyph glyph-name="zero.sup" horiz-adv-x="477" 
d="M249 292c-101 0 -162 79 -162 167c0 111 83 252 229 252c97 0 163 -71 163 -177c0 -96 -83 -242 -230 -242zM255 328c83 -1 136 119 136 225c0 72 -22 122 -80 122c-89 0 -136 -127 -136 -225c0 -70 22 -121 80 -122z" />
    <glyph glyph-name="one.sup" horiz-adv-x="340" 
d="M48 310l7 33l96 16l53 267h-103l3 34l184 41h6l-67 -343l86 -15l-7 -33h-258z" />
    <glyph glyph-name="two.sup" horiz-adv-x="370" 
d="M42 310l5 33l58 41c132 93 191 146 191 195c0 43 -26 72 -72 72c-40 0 -71 -25 -103 -58l-24 24c37 47 79 94 154 94c66 0 121 -41 121 -107c0 -61 -28 -102 -175 -200l-48 -32h213l-12 -62h-308z" />
    <glyph glyph-name="three.sup" horiz-adv-x="368" 
d="M192 292c-91 0 -142 34 -142 72c0 23 18 39 43 53c26 -58 65 -86 120 -86c48 0 79 32 79 78c0 59 -47 84 -130 79l6 30l23 9c85 32 111 58 111 90c0 25 -24 43 -52 43c-46 0 -74 -17 -117 -59l-24 23c58 66 102 87 165 87c65 0 107 -29 107 -76s-57 -77 -116 -106v-3
c74 -7 107 -49 107 -91c0 -87 -100 -143 -180 -143z" />
    <glyph glyph-name="four.sup" horiz-adv-x="394" 
d="M225 310l18 92h-188l4 25l287 277l30 -3l-51 -250h92l-8 -49h-93l-17 -92h-74zM130 451h122l29 146z" />
    <glyph glyph-name="five.sup" horiz-adv-x="383" 
d="M166 292c-58 0 -109 23 -109 64c0 21 15 40 40 50c21 -43 55 -75 105 -75c59 0 101 34 100 87c-1 51 -45 69 -96 69c-49 0 -76 -15 -94 -30h-14l60 242h230l-12 -64h-193l-26 -102c21 12 43 21 83 21c65 0 132 -29 132 -107c0 -103 -112 -155 -206 -155z" />
    <glyph glyph-name="six.sup" horiz-adv-x="423" 
d="M238 292c-87 0 -152 56 -152 153c0 149 150 257 335 276l4 -34c-126 -27 -207 -79 -237 -163c25 25 65 41 107 41c63 0 122 -40 122 -116c0 -74 -64 -157 -179 -157zM246 327c55 0 86 49 86 113c0 55 -26 86 -69 86c-35 0 -66 -17 -87 -42c-4 -18 -6 -36 -6 -65
c0 -59 31 -92 76 -92z" />
    <glyph glyph-name="seven.sup" horiz-adv-x="351" 
d="M72 310l253 322h-232l13 67h299l-3 -14l-250 -375h-80z" />
    <glyph glyph-name="eight.sup" horiz-adv-x="398" 
d="M215 292c-88 0 -150 39 -150 98c0 57 55 90 124 113c-43 28 -60 57 -60 97c0 54 54 111 148 111c88 0 131 -47 131 -87c0 -51 -49 -84 -110 -105c57 -35 86 -63 86 -106c0 -64 -67 -121 -169 -121zM225 326c53 0 88 24 88 62c0 23 -16 45 -68 78l-32 20
c-45 -17 -75 -42 -75 -81c0 -36 19 -79 87 -79zM273 536c44 19 63 46 63 81c0 37 -20 61 -64 61c-40 0 -75 -24 -75 -59c0 -24 12 -46 64 -76z" />
    <glyph glyph-name="nine.sup" horiz-adv-x="423" 
d="M273 711c86 0 152 -58 152 -155c0 -139 -135 -254 -337 -274l-7 34c138 28 211 85 244 163c-26 -25 -68 -41 -107 -41c-66 0 -124 41 -124 117c0 74 64 156 179 156zM265 676c-55 0 -86 -48 -86 -112c0 -60 27 -87 72 -87c35 0 63 17 84 42c4 18 6 36 6 65
c0 59 -31 92 -76 92z" />
    <glyph glyph-name="plus.sup" horiz-adv-x="442" 
d="M201 333l29 153h-151l11 54h151l29 153h58l-29 -153h151l-11 -54h-151l-29 -153h-58z" />
    <glyph glyph-name="minus.sup" horiz-adv-x="442" 
d="M439 486h-360l11 54h360z" />
    <glyph glyph-name="a.ord" horiz-adv-x="454" 
d="M379 636h54l-91 -327l3 -1c34 10 66 41 84 72l17 -7c-24 -64 -92 -127 -131 -127c-37 0 -55 27 -34 89l23 73h-3c-37 -50 -101 -165 -181 -165c-42 0 -66 32 -66 74c-3 147 149 308 262 308c22 0 42 -6 56 -14zM160 308c49 0 155 149 176 219l11 36c-15 17 -32 29 -54 29
c-60 0 -158 -135 -158 -247c0 -21 6 -37 25 -37z" />
    <glyph glyph-name="b.ord" horiz-adv-x="431" 
d="M184 243c-40 0 -79 15 -115 52l-8 9l114 453l-48 19l6 17l128 26l-86 -330h4c37 68 102 143 166 143c48 0 76 -37 76 -100c0 -118 -105 -289 -237 -289zM145 356l-10 -39c6 -20 26 -46 58 -46c72 0 148 150 148 256c0 36 -20 45 -35 45c-63 0 -142 -144 -161 -216z" />
    <glyph glyph-name="c.ord" horiz-adv-x="356" 
d="M250 588c-55 0 -106 -132 -106 -212c0 -55 23 -73 52 -73c32 0 90 37 124 85l15 -11c-23 -45 -99 -132 -172 -132c-60 0 -99 50 -99 112c0 84 42 173 128 232c31 22 75 43 105 43c41 0 76 -20 76 -42c0 -25 -21 -53 -26 -55c-28 23 -66 53 -97 53z" />
    <glyph glyph-name="d.ord" horiz-adv-x="470" 
d="M294 632c24 0 48 -9 66 -20l38 145l-48 19l5 17l126 26l-129 -510l3 -1c34 10 66 41 85 72l17 -7c-22 -60 -92 -127 -134 -127c-38 0 -51 28 -34 89l19 67h-2c-36 -48 -95 -159 -172 -159c-45 0 -76 30 -76 93c0 128 107 296 236 296zM340 536l6 24c-13 23 -38 44 -60 44
c-75 0 -144 -152 -144 -242c0 -44 13 -55 29 -55c48 0 148 144 169 229z" />
    <glyph glyph-name="e.ord" horiz-adv-x="349" 
d="M160 245c-71 0 -99 55 -99 113c0 101 52 179 118 228c33 26 77 46 113 46c48 0 68 -21 68 -57c0 -74 -104 -132 -221 -147c-2 -12 -3 -25 -3 -38c0 -58 17 -88 55 -88c37 0 79 34 100 63l17 -11c-16 -34 -72 -109 -148 -109zM270 600c-41 0 -103 -66 -126 -148
c66 10 146 72 146 125c0 14 -8 23 -20 23z" />
    <glyph glyph-name="f.ord" horiz-adv-x="274" 
d="M80 577l5 37h74c39 122 138 205 227 205c40 0 72 -24 72 -45s-19 -44 -29 -55c-25 29 -63 55 -96 55c-21 0 -70 -19 -105 -160h107l-9 -37h-106l-3 -18l-45 -246c-33 -180 -126 -228 -170 -228c-25 0 -50 18 -50 48c0 18 12 34 25 42c20 -25 38 -47 60 -47
c29 0 34 37 48 110l63 333c0 2 0 4 1 6h-69z" />
    <glyph glyph-name="g.ord" horiz-adv-x="366" 
d="M249 631c21 0 38 -4 60 -9l103 5l-11 -57l-74 19v-2c8 -13 20 -35 20 -60c0 -82 -76 -175 -175 -174c-4 0 -8 0 -12 1c-17 -9 -22 -16 -22 -25c0 -12 7 -16 26 -24l108 -47c55 -23 65 -37 66 -65c0 -64 -99 -113 -204 -111c-102 2 -157 23 -157 68c0 47 60 65 154 86v1
l-5 2c-24 11 -50 25 -50 59c0 31 27 47 54 60v4c-37 16 -59 53 -59 95c-1 83 64 174 178 174zM242 604c-53 1 -102 -100 -102 -170c0 -32 11 -54 35 -54c53 -1 104 99 104 173c0 28 -12 51 -37 51zM212 202l-50 21c-70 -17 -106 -30 -106 -60c0 -25 40 -47 124 -48
c55 -1 94 18 94 43c0 14 -13 23 -62 44z" />
    <glyph glyph-name="h.ord" horiz-adv-x="452" 
d="M260 819l-92 -361h3c52 79 122 174 198 174c37 0 54 -22 38 -86l-63 -237l3 -1c34 10 65 41 85 72l16 -7c-21 -60 -91 -128 -133 -128c-37 0 -53 28 -38 82l59 212c5 18 2 30 -14 30c-62 0 -170 -178 -191 -277l-7 -32l-65 -16l-11 10l127 503l-48 19l5 17z" />
    <glyph glyph-name="i.ord" horiz-adv-x="257" 
d="M141 561l-68 15l1 7s48 50 100 50c32 0 47 -25 33 -83l-59 -241l2 -1c35 10 67 41 86 72l16 -7c-21 -60 -92 -128 -134 -128c-36 0 -50 28 -37 82zM170 771c0 26 20 47 45 47s45 -21 45 -47s-20 -47 -45 -47s-45 21 -45 47z" />
    <glyph glyph-name="j.ord" horiz-adv-x="234" 
d="M76 253l76 308l-69 15l1 7s48 50 96 50c36 0 54 -24 38 -88l-58 -234c-31 -130 -98 -226 -174 -226c-23 0 -50 16 -50 47c0 20 11 36 25 43c30 -34 39 -47 59 -47c24 0 37 47 56 125zM180 771c0 26 21 47 46 47c24 0 45 -21 45 -47s-21 -47 -45 -47c-25 0 -46 21 -46 47z
" />
    <glyph glyph-name="k.ord" horiz-adv-x="409" 
d="M360 224c-41 0 -60 22 -99 59l-106 102c-11 -26 -19 -52 -23 -76l-10 -49l-63 -16l-11 10l127 503l-48 19l5 17l127 26l-85 -341h4c51 86 104 154 170 154c41 0 63 -29 64 -64c0 -76 -92 -136 -185 -171l167 -158v-5c-6 -5 -19 -10 -34 -10zM317 572
c-48 0 -118 -88 -158 -177c120 34 185 102 185 148c0 19 -11 29 -27 29z" />
    <glyph glyph-name="l.ord" horiz-adv-x="238" 
d="M236 373c-21 -60 -92 -128 -134 -128c-36 0 -50 28 -37 82l110 430l-48 19l6 17l125 26l-126 -510l2 -1c35 10 67 41 86 72z" />
    <glyph glyph-name="m.ord" horiz-adv-x="674" 
d="M60 254l84 309l-68 13l1 7s48 50 93 50c44 0 53 -35 35 -96l-22 -76h3c55 78 120 171 193 171c44 0 54 -32 36 -95l-22 -76h3c54 78 119 171 196 171c36 0 53 -22 38 -86l-64 -237l3 -1c35 10 65 41 85 72l17 -7c-22 -61 -93 -128 -133 -128c-39 0 -53 28 -39 82l60 212
c5 18 2 30 -14 30c-66 0 -167 -174 -191 -276l-8 -33l-65 -16l-11 10l79 285c5 18 2 30 -14 30c-66 0 -167 -174 -191 -277l-8 -32l-65 -16z" />
    <glyph glyph-name="n.ord" horiz-adv-x="463" 
d="M60 254l84 309l-68 13l1 7s48 50 93 50c44 0 52 -35 35 -96l-22 -76h3c54 78 120 171 196 171c37 0 54 -22 38 -86l-63 -237l2 -1c35 10 66 41 86 72l16 -7c-21 -61 -93 -128 -133 -128c-38 0 -52 28 -38 82l59 212c5 18 3 30 -14 30c-65 0 -168 -174 -191 -277l-8 -32
l-65 -16z" />
    <glyph glyph-name="o.ord" horiz-adv-x="409" 
d="M139 357c0 -35 5 -86 43 -86c70 0 137 149 137 246c0 25 0 89 -46 89c-72 0 -134 -158 -134 -249zM281 632c83 0 117 -66 117 -135c0 -113 -82 -252 -219 -252c-80 0 -117 64 -117 140c0 111 81 247 219 247z" />
    <glyph glyph-name="p.ord" horiz-adv-x="426" 
d="M34 123l104 419c-25 -13 -51 -29 -79 -46l-10 18c27 21 61 45 98 66l20 80h55l-12 -50c33 13 66 22 96 22c83 0 115 -45 115 -107c0 -126 -111 -281 -229 -281c-20 0 -38 7 -53 17l-36 -143h107l-8 -33h-217l3 20s18 4 46 18zM202 271c69 0 139 140 139 237
c0 47 -21 80 -77 80c-15 0 -30 -3 -46 -8l-68 -273c12 -21 31 -36 52 -36z" />
    <glyph glyph-name="q.ord" horiz-adv-x="416" 
d="M230 127l59 232c5 17 11 43 11 43h-2c-35 -48 -96 -159 -172 -159c-45 0 -76 30 -76 93c0 128 107 296 236 296c31 0 61 -16 80 -29l6 29h54l-129 -514h75l-6 -33h-207l3 21s34 5 68 21zM163 307c48 0 148 144 169 229l6 24c-13 22 -38 44 -60 44
c-75 0 -144 -152 -144 -242c0 -44 13 -55 29 -55z" />
    <glyph glyph-name="r.ord" horiz-adv-x="352" 
d="M58 254l24 91c34 129 53 218 53 218l-64 12l1 8s45 49 91 49c42 0 46 -36 31 -89l-42 -137h11c65 138 108 226 175 226c23 0 41 -14 41 -41c0 -35 -28 -68 -42 -80h-29c14 23 11 49 -7 53c-34 -18 -76 -85 -115 -161c-21 -44 -33 -74 -54 -143l-62 -16z" />
    <glyph glyph-name="s.ord" horiz-adv-x="300" 
d="M268 367c0 -57 -71 -124 -144 -124c-49 0 -87 31 -87 59c0 25 12 41 17 50h2c47 -36 83 -62 115 -62c19 0 35 11 35 32s-13 41 -26 56l-40 49c-32 38 -42 57 -42 81c0 68 91 126 142 126c37 0 71 -20 71 -46c0 -22 -11 -42 -17 -51l-3 -1c-32 24 -66 49 -98 49
c-19 0 -35 -12 -35 -32c0 -19 8 -32 24 -53l45 -54c30 -38 41 -54 41 -79z" />
    <glyph glyph-name="t.ord" horiz-adv-x="297" 
d="M69 577l5 37h69l37 95h54l-24 -95h104l-5 -37h-106l-65 -262l3 -2c42 16 93 59 115 90l16 -7c-28 -61 -120 -151 -170 -151c-29 0 -48 29 -38 71l68 261h-63z" />
    <glyph glyph-name="u.ord" horiz-adv-x="457" 
d="M141 563l-68 13v7s47 50 99 50c36 0 48 -28 34 -86l-56 -216c-5 -17 -1 -24 9 -24c55 0 173 186 186 252l15 57l64 17l11 -11l-80 -313l2 -1c35 10 67 41 86 72l17 -7c-22 -60 -92 -128 -134 -128c-37 0 -49 28 -35 85l26 98h-2c-54 -64 -116 -183 -202 -183
c-31 0 -50 23 -34 90z" />
    <glyph glyph-name="v.ord" horiz-adv-x="381" 
d="M186 559l11 -244c80 79 134 157 135 211c0 35 -21 50 -55 50c-11 0 -27 -3 -39 -6l1 13c35 33 63 49 90 49c38 0 60 -23 60 -65c0 -87 -79 -169 -161 -260l-58 -63h-7l-30 13l-15 302c-9 10 -25 16 -41 16c-10 0 -26 -2 -36 -5l1 13c32 33 57 49 87 49
c34 0 55 -20 57 -73z" />
    <glyph glyph-name="w.ord" horiz-adv-x="554" 
d="M370 560l5 -238h4c82 71 125 152 125 207c0 32 -22 47 -55 47c-11 0 -28 -3 -39 -6l1 14c34 32 62 48 87 48c37 0 62 -23 63 -68c1 -83 -78 -174 -158 -259l-57 -61h-7l-27 12l-2 153h-2c-29 -32 -62 -70 -106 -117l-41 -48h-7l-29 11l-8 305c-8 9 -24 15 -41 15
c-9 0 -25 -2 -35 -5l1 14c32 33 58 48 87 48c35 0 56 -21 57 -73l5 -237h4c59 61 109 125 111 131l-1 103c-8 11 -27 19 -47 19c-11 0 -28 -2 -38 -5v14c35 33 62 48 88 48c39 0 61 -19 62 -72z" />
    <glyph glyph-name="x.ord" horiz-adv-x="433" 
d="M281 246c-21 0 -29 12 -36 37l-31 113l-36 -52c-50 -72 -74 -101 -109 -101c-22 0 -43 16 -43 47c0 25 14 42 14 42l30 -10c42 -16 52 -13 117 80l18 28l-25 95c-7 29 -12 39 -24 39c-16 0 -40 -24 -51 -86h-20c2 89 46 153 96 153c37 0 51 -22 64 -75l18 -71l53 77
c30 45 63 70 88 70c23 -1 38 -15 38 -41c0 -34 -27 -67 -48 -81h-17c7 23 7 50 -10 50c-12 0 -27 -18 -51 -51c-16 -18 -34 -44 -44 -60l35 -141h3c35 11 67 41 87 72l16 -7c-21 -60 -92 -127 -132 -127z" />
    <glyph glyph-name="y.ord" horiz-adv-x="396" 
d="M55 478c2 79 43 153 96 153c55 0 91 -72 92 -197c0 -67 -9 -139 -22 -183h3c51 68 112 155 126 236c-1 51 -13 90 -30 128c13 9 27 13 41 13c19 0 45 -11 45 -58c0 -92 -72 -228 -154 -335c-101 -116 -149 -150 -191 -150c-32 0 -54 17 -54 49c0 23 18 44 47 44
c25 0 38 -19 46 -41h3c54 57 70 143 70 251c0 114 -21 176 -46 176c-21 0 -41 -28 -52 -86h-20z" />
    <glyph glyph-name="z.ord" horiz-adv-x="390" 
d="M393 633l30 -24l-265 -255l101 -36c52 -19 72 -8 95 29l17 -6c-20 -57 -42 -100 -92 -100c-23 0 -38 6 -70 19l-106 42l-47 -54l-30 24l267 257l-90 32c-39 14 -63 13 -70 0c-7 -12 3 -32 38 -55c-18 -25 -31 -41 -49 -41c-22 0 -37 16 -37 44c0 40 55 125 118 125
c21 0 40 -8 62 -17l83 -34z" />
    <glyph glyph-name="egrave.ord" horiz-adv-x="349" 
d="M160 245c-71 0 -99 55 -99 113c0 101 52 179 118 228c33 26 77 46 113 46c48 0 68 -21 68 -57c0 -74 -104 -132 -221 -147c-2 -12 -3 -25 -3 -38c0 -58 17 -88 55 -88c37 0 79 34 100 63l17 -11c-16 -34 -72 -109 -148 -109zM270 600c-41 0 -103 -66 -126 -148
c66 10 146 72 146 125c0 14 -8 23 -20 23zM209 837h61l32 -156h-35l-58 142v14z" />
    <glyph glyph-name="uacute.ord" horiz-adv-x="457" 
d="M348 837h60v-14l-99 -142h-37zM141 563l-68 13v7s47 50 99 50c36 0 48 -28 34 -86l-56 -216c-5 -17 -1 -24 9 -24c55 0 173 186 186 252l15 57l64 17l11 -11l-80 -313l2 -1c35 10 67 41 86 72l17 -7c-22 -60 -92 -128 -134 -128c-37 0 -49 28 -35 85l26 98h-2
c-54 -64 -116 -183 -202 -183c-31 0 -50 23 -34 90z" />
    <glyph glyph-name="second" unicode="&#x2033;" horiz-adv-x="459" 
d="M133 502h-34l86 244h90l-1 -8zM312 502h-34l86 244h90l-1 -8z" />
    <glyph glyph-name="minute" unicode="&#x2032;" horiz-adv-x="270" 
d="M123 502h-34l86 244h90l-1 -8z" />
    <glyph glyph-name="A.alt" horiz-adv-x="674" 
d="M-21 0l6 32l58 23l405 609l34 5l39 10l17 -627l62 -20l-6 -32h-238l7 33l85 23l-5 180h-221l-110 -176l89 -27l-7 -33h-215zM434 572l-174 -276h182l-7 276h-1z" />
    <glyph glyph-name="M.alt" horiz-adv-x="903" 
d="M-38 0l7 33l83 23l179 550l-74 26l6 32h200l72 -482l285 482h175l-6 -32l-86 -26l-31 -550l76 -24l-6 -32h-257l7 33l88 23l34 511l-281 -480l-29 -53h-36l-6 53l-85 505h-2l-169 -532l98 -27l-7 -33h-235z" />
    <glyph glyph-name="V.alt" horiz-adv-x="621" 
d="M158 -12l-27 621l-57 23l6 32h236l-6 -32l-86 -26l13 -494h2l334 494l-104 24l7 34h210l-6 -32l-43 -21l-439 -623h-40z" />
    <glyph glyph-name="W.alt" horiz-adv-x="901" 
d="M471 -7l5 469l-313 -469h-54l23 616l-58 23l7 32h237l-7 -32l-88 -26l-23 -487l277 420l1 67l-76 26l7 32h251l-7 -34l-85 -24l-9 -484l291 483l-102 25l6 34h212l-7 -32l-44 -21l-389 -618h-55z" />
    <glyph glyph-name="h.alt" horiz-adv-x="498" 
d="M24 -1l163 674l-59 24l7 22l150 27l-118 -481h4c67 116 149 219 233 219c46 0 68 -30 68 -92c0 -178 -122 -402 -241 -402c-19 0 -36 14 -36 34c0 15 7 27 15 38c41 -20 64 -24 79 -20c16 20 92 219 92 331c0 19 -10 32 -32 32c-82 0 -201 -222 -228 -352l-9 -46l-75 -21
z" />
    <glyph glyph-name="v.alt" horiz-adv-x="522" 
d="M246 397h-128c-21 0 -29 -10 -30 -20c0 -15 8 -26 37 -51c-16 -27 -36 -44 -56 -44c-23 0 -39 18 -38 42c2 55 80 146 154 146h134l-1 -12l-47 -86c-40 -73 -71 -147 -73 -212c-2 -55 21 -85 64 -85c77 0 150 109 167 200c6 84 -1 139 -15 188c7 4 25 13 47 13
c26 0 46 -13 46 -69c0 -125 -141 -418 -284 -418c-75 0 -113 46 -111 103c3 102 75 204 120 281z" />
    <glyph glyph-name="w.alt" horiz-adv-x="711" 
d="M329 470l-1 -12l-51 -86c-45 -74 -93 -150 -99 -215c-4 -49 13 -83 56 -83c38 0 93 37 125 89c17 131 35 203 55 290c14 12 27 23 51 23c29 0 38 -28 26 -63l-88 -237c8 -64 36 -103 82 -103c81 0 134 93 143 201c-11 92 -26 136 -46 181c13 11 37 21 55 21
c31 0 49 -23 49 -114c0 -75 -68 -371 -216 -371c-76 0 -102 43 -110 118c-46 -62 -118 -120 -177 -120c-63 0 -100 45 -95 101c9 102 100 204 147 283l14 24h-125c-21 0 -29 -10 -29 -20c0 -15 8 -26 38 -51c-15 -27 -34 -44 -54 -44c-23 0 -40 18 -40 42
c0 55 75 146 149 146h141z" />
    <glyph glyph-name="Aacute.alt" horiz-adv-x="674" 
d="M-21 0l6 32l58 23l405 609l34 5l39 10l17 -627l62 -20l-6 -32h-238l7 33l85 23l-5 180h-221l-110 -176l89 -27l-7 -33h-215zM434 572l-174 -276h182l-7 276h-1zM554 875h93v-20l-135 -119h-52z" />
    <glyph glyph-name="Abreve.alt" horiz-adv-x="674" 
d="M-21 0l6 32l58 23l405 609l34 5l39 10l17 -627l62 -20l-6 -32h-238l7 33l85 23l-5 180h-221l-110 -176l89 -27l-7 -33h-215zM434 572l-174 -276h182l-7 276h-1zM495 732c-63 0 -100 49 -100 133h41c9 -49 33 -72 72 -72c38 0 70 32 89 72h38c-23 -80 -68 -133 -140 -133z
" />
    <glyph glyph-name="Acircumflex.alt" horiz-adv-x="674" 
d="M-21 0l6 32l58 23l405 609l34 5l39 10l17 -627l62 -20l-6 -32h-238l7 33l85 23l-5 180h-221l-110 -176l89 -27l-7 -33h-215zM434 572l-174 -276h182l-7 276h-1zM417 736h-53l116 129h76l65 -129h-46l-65 79z" />
    <glyph glyph-name="Adieresis.alt" horiz-adv-x="674" 
d="M-21 0l6 32l58 23l405 609l34 5l39 10l17 -627l62 -20l-6 -32h-238l7 33l85 23l-5 180h-221l-110 -176l89 -27l-7 -33h-215zM434 572l-174 -276h182l-7 276h-1zM400 761c-31 0 -56 25 -56 56s25 57 56 57s57 -26 57 -57s-26 -56 -57 -56zM621 761c-31 0 -57 25 -57 56
s26 57 57 57s57 -26 57 -57s-26 -56 -57 -56z" />
    <glyph glyph-name="Agrave.alt" horiz-adv-x="674" 
d="M-21 0l6 32l58 23l405 609l34 5l39 10l17 -627l62 -20l-6 -32h-238l7 33l85 23l-5 180h-221l-110 -176l89 -27l-7 -33h-215zM434 572l-174 -276h182l-7 276h-1zM382 875h93l49 -139h-52l-90 119v20z" />
    <glyph glyph-name="Amacron.alt" horiz-adv-x="674" 
d="M-21 0l6 32l58 23l405 609l34 5l39 10l17 -627l62 -20l-6 -32h-238l7 33l85 23l-5 180h-221l-110 -176l89 -27l-7 -33h-215zM434 572l-174 -276h182l-7 276h-1zM363 782l13 60h282l-13 -60h-282z" />
    <glyph glyph-name="Aogonek.alt" horiz-adv-x="674" 
d="M-21 0l6 32l58 23l405 609l34 5l39 10l17 -627l62 -20l-6 -32h-127c-104 -74 -126 -109 -126 -153c0 -24 15 -38 40 -38s52 9 92 46l14 -17c-38 -45 -85 -97 -157 -97c-45 0 -73 23 -73 72c0 62 76 129 191 221l-5 202h-221l-110 -176l89 -27l-7 -33h-215zM434 572
l-174 -276h181l-6 276h-1z" />
    <glyph glyph-name="Aring.alt" horiz-adv-x="674" 
d="M-21 0l6 32l58 23l405 609l34 5l39 10l17 -627l62 -20l-6 -32h-238l7 33l85 23l-5 180h-221l-110 -176l89 -27l-7 -33h-215zM434 572l-174 -276h182l-7 276h-1zM394 817c0 65 52 114 117 114c66 0 117 -48 117 -114c0 -65 -52 -114 -117 -114c-66 0 -117 48 -117 114z
M440 817c0 -43 32 -73 71 -73s71 30 71 73s-32 73 -71 73s-71 -30 -71 -73z" />
    <glyph glyph-name="Aringacute.alt" horiz-adv-x="674" 
d="M-21 0l6 32l58 23l405 609l34 5l39 10l17 -627l62 -20l-6 -32h-238l7 33l85 23l-5 180h-221l-110 -176l89 -27l-7 -33h-215zM434 572l-174 -276h182l-7 276h-1zM394 817c0 65 52 114 117 114c66 0 117 -48 117 -114c0 -65 -52 -114 -117 -114c-66 0 -117 48 -117 114z
M440 817c0 -43 32 -73 71 -73s71 30 71 73s-32 73 -71 73s-71 -30 -71 -73zM602 1097h93v-20l-135 -119h-52z" />
    <glyph glyph-name="Atilde.alt" horiz-adv-x="674" 
d="M-21 0l6 32l58 23l405 609l34 5l39 10l17 -627l62 -20l-6 -32h-238l7 33l85 23l-5 180h-221l-110 -176l89 -27l-7 -33h-215zM434 572l-174 -276h182l-7 276h-1zM500 769l-25 12c-72 35 -82 15 -105 -37l-29 13l5 14c36 102 94 109 165 75l23 -11c81 -39 93 -18 118 39
l28 -12l-6 -17c-39 -110 -93 -119 -174 -76z" />
    <glyph glyph-name="Wacute.alt" horiz-adv-x="901" 
d="M471 -7l5 469l-313 -469h-54l23 616l-58 23l7 32h237l-7 -32l-88 -26l-23 -487l277 420l1 67l-76 26l7 32h251l-7 -34l-85 -24l-9 -484l291 483l-102 25l6 34h212l-7 -32l-44 -21l-389 -618h-55zM610 875h93v-20l-135 -119h-52z" />
    <glyph glyph-name="Wcircumflex.alt" horiz-adv-x="901" 
d="M471 -7l5 469l-313 -469h-54l23 616l-58 23l7 32h237l-7 -32l-88 -26l-23 -487l277 420l1 67l-76 26l7 32h251l-7 -34l-85 -24l-9 -484l291 483l-102 25l6 34h212l-7 -32l-44 -21l-389 -618h-55zM473 736h-53l116 129h76l65 -129h-46l-65 79z" />
    <glyph glyph-name="Wdieresis.alt" horiz-adv-x="901" 
d="M471 -7l5 469l-313 -469h-54l23 616l-58 23l7 32h237l-7 -32l-88 -26l-23 -487l277 420l1 67l-76 26l7 32h251l-7 -34l-85 -24l-9 -484l291 483l-102 25l6 34h212l-7 -32l-44 -21l-389 -618h-55zM457 761c-31 0 -56 25 -56 56s25 57 56 57s57 -26 57 -57s-26 -56 -57 -56
zM678 761c-31 0 -57 25 -57 56s26 57 57 57s57 -26 57 -57s-26 -56 -57 -56z" />
    <glyph glyph-name="Wgrave.alt" horiz-adv-x="901" 
d="M471 -7l5 469l-313 -469h-54l23 616l-58 23l7 32h237l-7 -32l-88 -26l-23 -487l277 420l1 67l-76 26l7 32h251l-7 -34l-85 -24l-9 -484l291 483l-102 25l6 34h212l-7 -32l-44 -21l-389 -618h-55zM438 875h93l49 -139h-52l-90 119v20z" />
    <glyph glyph-name="hbar.alt" horiz-adv-x="498" 
d="M70 550l11 47h88l18 76l-59 24l7 22l150 27l-37 -149h178l-11 -47h-178l-70 -285h4c67 116 149 219 233 219c46 0 68 -30 68 -92c0 -178 -122 -402 -241 -402c-19 0 -36 14 -36 34c0 15 7 27 15 38c41 -20 64 -24 79 -20c16 20 92 219 92 331c0 19 -10 32 -32 32
c-82 0 -201 -222 -228 -352l-9 -46l-75 -21l-13 13l133 551h-87z" />
    <glyph glyph-name="hcircumflex.alt" horiz-adv-x="498" 
d="M24 -1l163 674l-59 24l7 22l150 27l-118 -481h4c67 116 149 219 233 219c46 0 68 -30 68 -92c0 -178 -122 -402 -241 -402c-19 0 -36 14 -36 34c0 15 7 27 15 38c41 -20 64 -24 79 -20c16 20 92 219 92 331c0 19 -10 32 -32 32c-82 0 -201 -222 -228 -352l-9 -46l-75 -21
zM313 816h-53l116 129h76l65 -129h-46l-65 79z" />
    <glyph glyph-name="wacute.alt" horiz-adv-x="711" 
d="M329 470l-1 -12l-51 -86c-45 -74 -93 -150 -99 -215c-4 -49 13 -83 56 -83c38 0 93 37 125 89c17 131 35 203 55 290c14 12 27 23 51 23c29 0 38 -28 26 -63l-88 -237c8 -64 36 -103 82 -103c81 0 134 93 143 201c-11 92 -26 136 -46 181c13 11 37 21 55 21
c31 0 49 -23 49 -114c0 -75 -68 -371 -216 -371c-76 0 -102 43 -110 118c-46 -62 -118 -120 -177 -120c-63 0 -100 45 -95 101c9 102 100 204 147 283l14 24h-125c-21 0 -29 -10 -29 -20c0 -15 8 -26 38 -51c-15 -27 -34 -44 -54 -44c-23 0 -40 18 -40 42
c0 55 75 146 149 146h141zM556 756h71v-19l-124 -186h-46z" />
    <glyph glyph-name="wcircumflex.alt" horiz-adv-x="711" 
d="M329 470l-1 -12l-51 -86c-45 -74 -93 -150 -99 -215c-4 -49 13 -83 56 -83c38 0 93 37 125 89c17 131 35 203 55 290c14 12 27 23 51 23c29 0 38 -28 26 -63l-88 -237c8 -64 36 -103 82 -103c81 0 134 93 143 201c-11 92 -26 136 -46 181c13 11 37 21 55 21
c31 0 49 -23 49 -114c0 -75 -68 -371 -216 -371c-76 0 -102 43 -110 118c-46 -62 -118 -120 -177 -120c-63 0 -100 45 -95 101c9 102 100 204 147 283l14 24h-125c-21 0 -29 -10 -29 -20c0 -15 8 -26 38 -51c-15 -27 -34 -44 -54 -44c-23 0 -40 18 -40 42
c0 55 75 146 149 146h141zM395 551h-44l139 205h56l51 -205h-42l-49 141z" />
    <glyph glyph-name="wdieresis.alt" horiz-adv-x="711" 
d="M329 470l-1 -12l-51 -86c-45 -74 -93 -150 -99 -215c-4 -49 13 -83 56 -83c38 0 93 37 125 89c17 131 35 203 55 290c14 12 27 23 51 23c29 0 38 -28 26 -63l-88 -237c8 -64 36 -103 82 -103c81 0 134 93 143 201c-11 92 -26 136 -46 181c13 11 37 21 55 21
c31 0 49 -23 49 -114c0 -75 -68 -371 -216 -371c-76 0 -102 43 -110 118c-46 -62 -118 -120 -177 -120c-63 0 -100 45 -95 101c9 102 100 204 147 283l14 24h-125c-21 0 -29 -10 -29 -20c0 -15 8 -26 38 -51c-15 -27 -34 -44 -54 -44c-23 0 -40 18 -40 42
c0 55 75 146 149 146h141zM348 644c0 28 22 50 50 50s51 -22 51 -50s-23 -49 -51 -49s-50 21 -50 49zM518 644c0 28 22 50 50 50s51 -22 51 -50s-23 -49 -51 -49s-50 21 -50 49z" />
    <glyph glyph-name="wgrave.alt" horiz-adv-x="711" 
d="M329 470l-1 -12l-51 -86c-45 -74 -93 -150 -99 -215c-4 -49 13 -83 56 -83c38 0 93 37 125 89c17 131 35 203 55 290c14 12 27 23 51 23c29 0 38 -28 26 -63l-88 -237c8 -64 36 -103 82 -103c81 0 134 93 143 201c-11 92 -26 136 -46 181c13 11 37 21 55 21
c31 0 49 -23 49 -114c0 -75 -68 -371 -216 -371c-76 0 -102 43 -110 118c-46 -62 -118 -120 -177 -120c-63 0 -100 45 -95 101c9 102 100 204 147 283l14 24h-125c-21 0 -29 -10 -29 -20c0 -15 8 -26 38 -51c-15 -27 -34 -44 -54 -44c-23 0 -40 18 -40 42
c0 55 75 146 149 146h141zM377 756h72l41 -205h-44l-69 186v19z" />
    <glyph glyph-name="bullet.alt" horiz-adv-x="333" 
d="M131 643c49 0 71 -54 87 -84h14c40 32 57 48 84 48c32 0 56 -23 56 -56c0 -37 -27 -63 -60 -63c-38 0 -62 37 -82 55h-6c-11 -14 -18 -29 -18 -46c0 -27 19 -46 52 -71c31 -23 54 -53 54 -85c0 -43 -32 -64 -74 -60c-7 -7 -17 -17 -38 -17c-31 0 -47 25 -56 44
c-14 26 -23 63 -57 63c-24 0 -36 -18 -38 -34h-11c-16 47 22 77 57 77c66 0 68 -78 106 -78c17 0 26 11 26 28c0 37 -60 63 -60 118c0 27 16 48 29 68l-4 2c-25 -7 -45 -12 -62 -12c-32 0 -53 19 -53 50c0 34 27 53 54 53zM300 681c0 -29 -34 -55 -59 -79h-18
c-4 10 -29 50 -29 77c0 32 28 48 55 48s51 -19 51 -46z" />
    <glyph glyph-name="Q.short" horiz-adv-x="736" 
d="M459 679c130 0 251 -107 251 -282c0 -178 -132 -382 -350 -409c80 -80 138 -130 198 -130c41 0 55 8 94 28l14 -21c-38 -29 -81 -59 -144 -59c-100 0 -168 72 -286 191c-100 31 -183 128 -183 265c0 191 140 417 406 417zM610 416c0 124 -53 219 -170 219
c-144 0 -287 -184 -287 -394c0 -122 51 -218 168 -218c178 0 289 230 289 393z" />
    <glyph glyph-name="f.short" horiz-adv-x="311" 
d="M57 415l6 44h91c46 165 164 287 232 287c46 0 65 -25 65 -43c0 -26 -23 -46 -35 -58c-26 30 -43 47 -66 47c-31 0 -62 -22 -111 -233h130l-10 -44h-130l-6 -31l-77 -369c-50 -241 -176 -275 -221 -275c-25 0 -66 19 -66 57c0 18 12 41 25 50c26 -24 62 -58 90 -58
c37 0 54 55 73 150l96 476h-86z" />
    <glyph glyph-name="f_f.short" horiz-adv-x="598" 
d="M57 415l6 44h92c58 176 206 243 284 243c42 0 81 -22 104 -44c46 55 94 88 130 88c46 0 65 -25 65 -43c0 -26 -23 -46 -35 -58c-26 30 -43 47 -66 47c-31 0 -62 -22 -111 -233h130l-10 -44h-130l-6 -31l-70 -334c-50 -241 -176 -275 -221 -275c-25 0 -66 19 -66 57
c0 18 12 41 25 50c26 -24 62 -58 90 -58c37 0 54 55 73 150l89 441h-200l-10 -46l-74 -354c-50 -241 -176 -275 -221 -275c-25 0 -66 19 -66 57c0 18 12 41 25 50c26 -24 62 -58 90 -58c37 0 54 55 73 150l95 468c0 2 1 5 1 8h-86zM399 655c-39 0 -104 -19 -157 -196h199
c14 52 36 99 61 140c-24 25 -67 56 -103 56z" />
    <glyph glyph-name="i.ger" horiz-adv-x="293" 
d="M135 396l-85 19v5s56 65 121 65c38 0 56 -31 39 -104l-74 -319l3 -1c44 13 85 57 109 98l20 -6c-26 -78 -113 -164 -162 -164c-45 0 -62 37 -46 101zM164 650c0 29 24 53 53 53s53 -24 53 -53s-24 -53 -53 -53s-53 24 -53 53z" />
    <glyph glyph-name="j.short" horiz-adv-x="261" 
d="M-52 -255l-10 17c49 40 80 86 114 230l95 404l-86 19v5s56 65 115 65c44 0 66 -30 46 -112l-94 -393c-26 -109 -80 -200 -180 -235zM182 680c0 29 24 53 53 53s53 -24 53 -53s-24 -53 -53 -53s-53 24 -53 53z" />
    <glyph glyph-name="jcircumflex.short" horiz-adv-x="261" 
d="M-52 -255l-10 17c49 40 80 86 114 230l95 404l-86 19v5s56 65 115 65c44 0 66 -30 46 -112l-94 -393c-26 -109 -80 -200 -180 -235zM119 551h-44l139 205h56l51 -205h-42l-49 141z" />
    <glyph glyph-name="j.ger" horiz-adv-x="261" 
d="M39 -61l108 457l-86 19v5s56 65 115 65c44 0 66 -30 46 -112l-86 -359c-37 -158 -129 -274 -221 -274c-25 0 -68 17 -68 53c0 22 13 45 27 54c25 -24 60 -58 88 -58c37 0 53 52 77 150zM177 650c0 29 24 53 53 53s53 -24 53 -53s-24 -53 -53 -53s-53 24 -53 53z" />
    <glyph glyph-name="y.short" horiz-adv-x="464" 
d="M26 296c3 103 56 188 117 188c68 0 111 -99 111 -262c0 -80 -10 -169 -26 -227h4c62 78 142 199 159 305c0 65 -16 117 -37 164c16 11 32 15 48 15c24 0 55 -13 55 -75c0 -115 -88 -285 -183 -407c-130 -167 -214 -255 -278 -255c-29 0 -52 20 -52 58c0 27 22 53 56 53
c28 0 42 -26 52 -50h3c101 89 118 237 118 373c0 154 -26 228 -57 228c-26 0 -52 -33 -66 -108h-24z" />
    <glyph glyph-name="yacute.short" horiz-adv-x="464" 
d="M25 296c3 103 56 188 117 188c68 0 111 -99 111 -262c0 -80 -10 -169 -26 -227h4c62 78 142 199 159 305c0 65 -16 117 -37 164c16 11 32 15 48 15c24 0 55 -13 55 -75c0 -115 -88 -285 -183 -407c-130 -167 -214 -255 -278 -255c-29 0 -52 20 -52 58c0 27 22 53 56 53
c28 0 42 -26 52 -50h3c101 89 118 237 118 373c0 154 -26 228 -57 228c-26 0 -52 -33 -66 -108h-24zM365 756h71v-19l-124 -186h-46z" />
    <glyph glyph-name="ycircumflex.short" horiz-adv-x="464" 
d="M25 296c3 103 56 188 117 188c68 0 111 -99 111 -262c0 -80 -10 -169 -26 -227h4c62 78 142 199 159 305c0 65 -16 117 -37 164c16 11 32 15 48 15c24 0 55 -13 55 -75c0 -115 -88 -285 -183 -407c-130 -167 -214 -255 -278 -255c-29 0 -52 20 -52 58c0 27 22 53 56 53
c28 0 42 -26 52 -50h3c101 89 118 237 118 373c0 154 -26 228 -57 228c-26 0 -52 -33 -66 -108h-24zM210 551h-44l139 205h56l51 -205h-42l-49 141z" />
    <glyph glyph-name="ydieresis.short" horiz-adv-x="464" 
d="M25 296c3 103 56 188 117 188c68 0 111 -99 111 -262c0 -80 -10 -169 -26 -227h4c62 78 142 199 159 305c0 65 -16 117 -37 164c16 11 32 15 48 15c24 0 55 -13 55 -75c0 -115 -88 -285 -183 -407c-130 -167 -214 -255 -278 -255c-29 0 -52 20 -52 58c0 27 22 53 56 53
c28 0 42 -26 52 -50h3c101 89 118 237 118 373c0 154 -26 228 -57 228c-26 0 -52 -33 -66 -108h-24zM177 644c0 28 22 50 50 50s51 -22 51 -50s-23 -49 -51 -49s-50 21 -50 49zM347 644c0 28 22 50 50 50s51 -22 51 -50s-23 -49 -51 -49s-50 21 -50 49z" />
    <glyph glyph-name="ygrave.short" horiz-adv-x="464" 
d="M25 296c3 103 56 188 117 188c68 0 111 -99 111 -262c0 -80 -10 -169 -26 -227h4c62 78 142 199 159 305c0 65 -16 117 -37 164c16 11 32 15 48 15c24 0 55 -13 55 -75c0 -115 -88 -285 -183 -407c-130 -167 -214 -255 -278 -255c-29 0 -52 20 -52 58c0 27 22 53 56 53
c28 0 42 -26 52 -50h3c101 89 118 237 118 373c0 154 -26 228 -57 228c-26 0 -52 -33 -66 -108h-24zM206 756h72l41 -205h-44l-69 186v19z" />
    <glyph glyph-name="uni0237.short" horiz-adv-x="261" 
d="M-52 -255l-10 17c49 40 80 86 114 230l95 404l-86 19v5s56 65 115 65c44 0 66 -30 46 -112l-94 -393c-26 -109 -80 -200 -180 -235z" />
    <glyph glyph-name="h.ordalt" horiz-adv-x="425" 
d="M51 254l129 503l-49 19l6 17l128 26l-92 -356h3c55 93 119 169 187 169c38 0 56 -25 56 -74c0 -145 -103 -312 -197 -312c-17 0 -30 12 -30 28c0 13 6 24 13 32c31 -13 50 -18 62 -15c15 23 73 167 73 246c0 15 -8 25 -25 25c-65 0 -158 -168 -180 -263l-8 -39l-64 -16z
" />
    <glyph glyph-name="v.ordalt" horiz-adv-x="448" 
d="M235 555h-100c-20 0 -28 -7 -29 -17c0 -13 8 -23 33 -40c-13 -27 -29 -42 -47 -42c-19 0 -33 15 -32 40c1 45 63 125 127 125h110l-1 -11l-35 -57c-33 -61 -57 -113 -59 -161c-1 -42 18 -68 54 -68c61 0 119 80 132 145c3 62 -3 109 -15 146c7 5 22 12 40 12
c22 0 39 -13 39 -56c0 -96 -114 -325 -231 -325c-61 0 -93 36 -92 85c2 75 58 147 94 205z" />
    <glyph glyph-name="w.ordalt" horiz-adv-x="593" 
d="M305 621l-1 -11l-38 -57c-37 -60 -74 -115 -79 -163c-3 -38 11 -67 47 -67c30 0 73 26 98 64c13 111 27 168 41 221c12 10 23 19 43 19c24 0 33 -22 23 -51c0 0 -66 -158 -71 -182c7 -46 30 -73 67 -73c64 0 106 67 113 140c-9 72 -22 113 -38 149c11 9 31 17 46 17
c26 0 41 -19 41 -84s-54 -296 -177 -296c-61 0 -82 33 -88 92c-36 -48 -92 -93 -142 -93c-52 0 -82 36 -79 82c7 77 77 151 115 209l12 18h-98c-21 0 -29 -7 -29 -17c0 -13 8 -23 33 -40c-12 -27 -27 -42 -45 -42c-19 0 -34 15 -34 40c0 45 60 125 124 125h116z" />
    </font>
</defs>
</svg>
