<?xml version="1.0" standalone="no"?>
<!DOCTYPE svg PUBLIC "-//W3C//DTD SVG 1.1//EN" "http://www.w3.org/Graphics/SVG/1.1/DTD/svg11.dtd" >
<svg>
<metadata>
Created by FontForge 20110222 at Tue Aug 18 17:41:38 2015
 By www-data
(c)2009 Kai Bernau and Commercial Type.
</metadata>
<defs>
<font id="LyonText-BoldItalic" horiz-adv-x="600" >
  <font-face 
    font-family="Lyon Text Bold"
    font-weight="700"
    font-style="italic"
    font-stretch="normal"
    units-per-em="1000"
    panose-1="2 0 5 3 8 0 0 9 0 4"
    ascent="760"
    descent="-240"
    x-height="503"
    cap-height="664"
    bbox="-220 -285 1366 1103"
    underline-thickness="50"
    underline-position="-50"
    slope="-12"
    stemh="45"
    stemv="162"
    unicode-range="U+0020-FB04"
  />
<missing-glyph horiz-adv-x="500" 
 />
    <glyph glyph-name="f_b" unicode="fb" horiz-adv-x="894" 
d="M538 -18c-50 0 -115 28 -178 72l-23 16l152 579c-24 19 -49 28 -74 28c-38 0 -84 -31 -119 -188h93l-11 -62h-95l-69 -324c-59 -279 -237 -363 -311 -363c-55 0 -94 37 -94 79s36 72 84 82c20 -56 39 -95 67 -95c27 0 51 38 70 133l98 483c0 1 0 3 1 5h-82l10 62h91
c75 193 275 257 339 257c37 0 63 -10 82 -23l87 23l-109 -413h6c53 92 117 172 204 172c78 0 114 -54 114 -148c0 -174 -117 -375 -333 -375zM493 117l-9 -36c6 -31 35 -53 65 -53c78 0 160 197 160 343c0 26 -11 39 -26 39c-72 0 -165 -196 -190 -293z" />
    <glyph glyph-name="f_f" unicode="ff" horiz-adv-x="692" 
d="M47 427l10 62h96c75 157 244 225 323 225c58 0 95 -35 113 -57c76 60 160 89 206 89c59 0 107 -42 107 -74c0 -31 -48 -80 -74 -94c-39 52 -84 94 -124 94c-37 0 -67 -51 -95 -183h125l-11 -62h-127l-62 -297c-58 -279 -229 -363 -309 -363c-50 0 -72 31 -72 67
c0 35 31 60 70 69c18 -47 33 -71 58 -71c23 0 50 39 69 134l93 461h-161l-68 -324c-59 -279 -237 -363 -311 -363c-55 0 -94 37 -94 79s36 72 84 82c20 -56 39 -95 67 -95c27 0 51 38 70 133l94 463c1 8 4 17 6 25h-83zM461 489c12 30 28 58 46 83c-30 43 -61 69 -99 69
c-43 0 -82 -30 -112 -152h165z" />
    <glyph glyph-name="f_f_b" unicode="ffb" horiz-adv-x="1208" 
d="M853 -18c-50 0 -115 27 -179 72l-23 16l152 578c-25 19 -50 29 -74 29c-44 0 -90 -48 -120 -188h94l-10 -62h-97l-62 -297c-58 -279 -229 -363 -309 -363c-50 0 -72 31 -72 67c0 35 31 60 70 69c18 -47 33 -71 58 -71c23 0 50 39 69 134l93 461h-161l-68 -324
c-59 -279 -237 -363 -311 -363c-55 0 -94 37 -94 79s36 72 84 82c20 -56 39 -95 67 -95c27 0 51 38 70 133l94 463c1 8 4 17 6 25h-83l10 62h96c75 157 244 225 323 225c58 0 94 -34 113 -56c78 61 167 88 212 88c37 0 65 -9 83 -22l86 22l-109 -413h6
c53 92 117 172 204 172c78 0 114 -54 114 -148c0 -174 -117 -375 -332 -375zM807 116l-9 -35c6 -31 35 -53 65 -53c78 0 161 195 161 343c0 26 -12 39 -27 39c-72 0 -167 -202 -190 -294zM408 641c-43 0 -82 -30 -112 -152h165c12 31 27 59 45 84c-30 42 -61 68 -98 68z" />
    <glyph glyph-name="f_f_h" unicode="ffh" horiz-adv-x="1238" 
d="M970 746l-118 -472h7c62 104 146 231 251 231c59 0 92 -24 66 -126l-73 -286l3 -1c36 16 65 41 91 78l24 -16c-32 -78 -131 -171 -212 -171c-45 0 -78 34 -55 121l69 258c6 24 4 36 -10 36c-45 0 -187 -238 -219 -360l-8 -31l-127 -24l-25 16l170 649
c-25 19 -51 29 -75 29c-44 0 -90 -48 -120 -188h94l-10 -62h-97l-62 -297c-58 -279 -229 -363 -309 -363c-50 0 -72 31 -72 67c0 35 31 60 70 69c18 -47 33 -71 58 -71c23 0 50 39 69 134l93 461h-161l-68 -324c-59 -279 -237 -363 -311 -363c-55 0 -94 37 -94 79
s36 72 84 82c20 -56 39 -95 67 -95c27 0 51 38 70 133l94 463c1 8 4 17 6 25h-83l10 62h96c75 157 244 225 323 225c58 0 94 -34 113 -56c78 61 167 88 212 88c38 0 65 -9 83 -23zM408 641c-43 0 -82 -30 -112 -152h165c12 31 27 59 45 84c-30 42 -61 68 -98 68z" />
    <glyph glyph-name="f_f_i" unicode="ffi" horiz-adv-x="947" 
d="M47 427l10 62h96c75 157 244 225 323 225c61 0 97 -37 115 -59c82 62 175 91 227 91c71 0 118 -42 118 -74c0 -31 -48 -80 -81 -92c-40 50 -88 95 -132 95c-36 0 -85 -56 -114 -186h244l22 12h36l-100 -408l3 -1c35 16 64 41 91 78l24 -16c-33 -78 -132 -171 -212 -171
c-45 0 -79 34 -55 121l90 323h-156l-62 -297c-58 -279 -229 -363 -309 -363c-50 0 -72 31 -72 67c0 35 31 60 70 69c18 -47 33 -71 58 -71c23 0 50 39 69 134l93 461h-161l-68 -324c-59 -279 -237 -363 -311 -363c-55 0 -94 37 -94 79s36 72 84 82c20 -56 39 -95 67 -95
c27 0 51 38 70 133l94 463c1 8 4 17 6 25h-83zM408 641c-43 0 -82 -30 -112 -152h165c12 30 28 58 46 82c-30 44 -61 70 -99 70z" />
    <glyph glyph-name="f_f_j" unicode="ffj" horiz-adv-x="934" 
d="M223 -97c18 -47 33 -71 58 -71c23 0 50 39 69 134l93 461h-161l-68 -324c-59 -279 -237 -363 -311 -363c-55 0 -94 37 -94 79s36 72 84 82c20 -56 39 -95 67 -95c27 0 51 38 70 133l94 463c1 8 4 17 6 25h-83l10 62h96c75 157 244 225 323 225c61 0 97 -37 115 -59
c82 62 175 91 227 91c71 0 118 -42 118 -74c0 -31 -48 -80 -81 -92c-40 50 -88 95 -132 95c-36 0 -85 -56 -114 -186h246l21 12h37l-71 -344c-43 -207 -182 -362 -310 -362c-39 0 -72 28 -72 65s29 58 71 71c16 -48 33 -72 57 -72c42 0 59 101 85 213l82 355h-159l-62 -297
c-56 -267 -229 -363 -309 -363c-50 0 -72 31 -72 67c0 35 31 60 70 69zM408 641c-43 0 -82 -30 -112 -152h165c12 30 28 58 46 82c-30 44 -61 70 -99 70z" />
    <glyph glyph-name="f_f_k" unicode="ffk" horiz-adv-x="1188" 
d="M1089 -39c-79 0 -142 52 -191 123l-64 91c-20 -44 -36 -90 -45 -132l-8 -36l-121 -24l-26 16l168 650c-24 19 -50 28 -73 28c-44 0 -89 -48 -120 -188h94l-10 -62h-97l-62 -297c-57 -279 -229 -363 -309 -363c-50 0 -72 31 -72 67c0 35 31 60 70 69c18 -47 33 -71 58 -71
c23 0 50 39 69 134l93 461h-161l-68 -324c-58 -279 -237 -363 -311 -363c-55 0 -94 37 -94 79s36 72 84 82c20 -56 39 -95 67 -95c27 0 51 38 70 133l94 463c1 8 4 17 6 25h-83l10 62h96c75 157 244 225 323 225c58 0 94 -34 113 -56c78 61 167 88 212 88c38 0 65 -9 83 -23
l87 23l-114 -444h7c67 119 142 203 222 203c59 0 92 -43 93 -90c1 -83 -52 -150 -210 -214l185 -214v-14c-14 -7 -33 -12 -65 -12zM408 641c-43 0 -82 -30 -112 -152h165c12 31 27 59 45 84c-30 43 -61 68 -98 68zM1020 400c-50 0 -128 -102 -182 -217l6 1
c141 49 208 122 208 179c0 25 -12 37 -32 37z" />
    <glyph glyph-name="f_f_l" unicode="ffl" horiz-adv-x="944" 
d="M47 427l10 62h96c75 157 244 225 323 225c58 0 94 -34 113 -56c78 61 167 88 212 88c37 0 64 -9 82 -22l86 22l-161 -653l3 -1c35 16 64 41 91 78l24 -16c-33 -78 -132 -171 -212 -171c-45 0 -78 33 -55 121l86 323h-149l-62 -297c-57 -279 -229 -363 -309 -363
c-50 0 -72 31 -72 67c0 35 31 60 70 69c18 -47 33 -71 58 -71c23 0 50 39 69 134l93 461h-161l-68 -324c-58 -279 -237 -363 -311 -363c-55 0 -94 37 -94 79s36 72 84 82c20 -56 39 -95 67 -95c27 0 51 38 70 133l94 463c1 8 4 17 6 25h-83zM729 677
c-44 0 -89 -48 -120 -188h152l42 159c-25 19 -50 29 -74 29zM408 641c-43 0 -82 -30 -112 -152h165c12 31 27 59 45 84c-30 43 -61 68 -98 68z" />
    <glyph glyph-name="f_h" unicode="fh" horiz-adv-x="924" 
d="M656 746l-119 -472h8c61 104 145 231 250 231c60 0 92 -24 66 -126l-73 -286l3 -1c36 16 65 41 91 78l25 -16c-33 -78 -132 -171 -212 -171c-45 0 -79 34 -56 121l69 258c7 24 5 36 -9 36c-46 0 -187 -238 -219 -360l-8 -31l-127 -24l-26 16l170 650
c-24 18 -49 28 -74 28c-38 0 -84 -31 -119 -188h93l-11 -62h-95l-69 -324c-59 -279 -237 -363 -311 -363c-55 0 -94 37 -94 79s36 72 84 82c20 -56 39 -95 67 -95c27 0 51 38 70 133l98 483c0 1 0 3 1 5h-82l10 62h91c75 193 275 257 339 257c37 0 64 -9 82 -23z" />
    <glyph glyph-name="f_i" unicode="fi" horiz-adv-x="633" 
d="M47 427l10 62h91c74 182 271 257 356 257c70 0 118 -42 118 -74c0 -31 -48 -80 -81 -92c-40 50 -89 95 -132 95c-31 0 -80 -41 -113 -186h240l22 12h37l-101 -408l3 -1c36 16 65 41 91 78l25 -16c-33 -78 -132 -171 -213 -171c-45 0 -79 34 -55 121l90 323h-152l-69 -324
c-59 -279 -237 -363 -311 -363c-55 0 -94 37 -94 79s36 72 84 82c20 -56 39 -95 67 -95c27 0 51 38 70 133l98 483c0 1 0 3 1 5h-82z" />
    <glyph glyph-name="f_j" unicode="fj" horiz-adv-x="625" 
d="M353 45l88 382h-158l-69 -324c-59 -279 -237 -363 -311 -363c-55 0 -94 37 -94 79s36 72 84 82c20 -56 39 -95 67 -95c27 0 51 38 70 133l98 483c0 1 0 3 1 5h-82l10 62h91c74 182 271 257 356 257c70 0 118 -42 118 -74c0 -31 -48 -80 -81 -92c-40 50 -89 95 -132 95
c-31 0 -80 -41 -113 -186h245l21 12h37l-77 -371c-43 -208 -182 -363 -311 -363c-38 0 -71 28 -71 65c0 38 29 59 70 71c17 -48 34 -71 58 -71c42 0 59 101 85 213z" />
    <glyph glyph-name="f_k" unicode="fk" horiz-adv-x="873" 
d="M774 -39c-78 0 -140 52 -190 123l-64 91c-20 -44 -36 -90 -45 -132l-8 -36l-121 -24l-26 16l168 650c-24 18 -48 28 -73 28c-38 0 -84 -31 -119 -188h93l-11 -62h-95l-69 -324c-59 -279 -237 -363 -311 -363c-55 0 -94 37 -94 79s36 72 84 82c20 -56 39 -95 67 -95
c27 0 51 38 70 133l98 483c0 1 0 3 1 5h-82l10 62h91c75 193 275 257 339 257c37 0 64 -9 82 -23l87 23l-114 -444h8c67 119 141 203 222 203c58 0 91 -43 92 -90c2 -83 -52 -150 -209 -214l185 -214v-14c-14 -7 -33 -12 -66 -12zM706 400c-51 0 -128 -102 -182 -217l6 1
c141 49 207 122 207 179c0 25 -12 37 -31 37z" />
    <glyph glyph-name="f_l" unicode="fl" horiz-adv-x="631" 
d="M613 154c-33 -78 -132 -171 -212 -171c-45 0 -79 33 -56 121l86 323h-148l-69 -324c-59 -279 -237 -363 -311 -363c-55 0 -94 37 -94 79s36 72 84 82c20 -56 39 -95 67 -95c27 0 51 38 70 133l98 483c0 1 0 3 1 5h-82l10 62h91c75 193 275 257 339 257
c37 0 63 -10 82 -23l87 23l-162 -653l3 -1c36 16 65 41 92 78zM415 677c-38 0 -84 -31 -119 -188h151l42 159c-24 19 -49 29 -74 29z" />
    <glyph glyph-name=".notdef" horiz-adv-x="500" 
 />
    <glyph glyph-name="Eth" unicode="&#xd0;" horiz-adv-x="776" 
d="M-25 0l10 52l85 14l47 240h-92l12 59h91l46 232l-76 15l11 52l263 3c260 -2 382 -129 382 -285c0 -263 -243 -389 -484 -386zM418 306h-140l-37 -193c-10 -48 20 -64 69 -64c156 1 261 150 261 338c1 145 -88 234 -232 230l-49 -252h140z" />
    <glyph glyph-name="Lslash" unicode="&#x141;" horiz-adv-x="607" 
d="M19 243l11 56l88 23l54 275l-74 15l9 52h327l-10 -52l-86 -15l-45 -228l208 56l-11 -56l-208 -56l-49 -248h183l103 170h48l-56 -235h-537l9 52l85 14l39 200z" />
    <glyph glyph-name="lslash" unicode="&#x142;" horiz-adv-x="308" 
d="M-13 269l13 61l91 44l65 264l-72 28l6 26l243 54l-71 -287l96 47l-14 -61l-97 -48l-74 -304l3 -1c35 16 64 41 91 78l24 -16c-33 -78 -131 -171 -212 -171c-45 0 -77 33 -55 121l51 208z" />
    <glyph glyph-name="Scaron" unicode="&#x160;" horiz-adv-x="582" 
d="M489 874h74l-130 -138h-102l-74 138h66l71 -62zM59 232h52l27 -159c27 -15 68 -33 111 -33c73 0 118 43 118 103c0 49 -32 81 -94 116l-50 28c-83 47 -112 91 -112 171c0 110 105 225 292 225c71 0 126 -21 169 -34l-44 -193h-53l-12 139c-21 15 -56 31 -97 31
c-63 0 -113 -40 -113 -95c0 -49 28 -71 83 -104l67 -40c74 -44 122 -88 122 -171c0 -160 -177 -236 -299 -236c-92 0 -163 32 -197 44z" />
    <glyph glyph-name="scaron" unicode="&#x161;" horiz-adv-x="406" 
d="M401 769h63l-132 -197h-93l-57 197h58l65 -96zM359 170c0 -102 -137 -190 -241 -190c-62 0 -131 45 -131 105c0 30 8 53 40 97h6c52 -71 109 -131 169 -131c29 0 44 15 44 38c0 19 -15 40 -58 75l-59 49c-31 25 -63 60 -63 104c0 104 151 192 242 192
c44 0 100 -32 100 -85c0 -34 -13 -65 -34 -96h-6c-50 51 -96 98 -152 98c-25 0 -39 -15 -39 -33c0 -23 15 -35 51 -64l58 -47c61 -49 73 -76 73 -112z" />
    <glyph glyph-name="Yacute" unicode="&#xdd;" horiz-adv-x="681" 
d="M664 595l-229 -316l-41 -213l85 -14l-11 -52h-340l11 52l90 14l36 187l-113 348l-59 11l10 52h318l-10 -51l-85 -14l82 -269h2l184 264l-80 19l11 51h212l-11 -51zM486 875h136v-22l-142 -117h-78z" />
    <glyph glyph-name="yacute" unicode="&#xfd;" horiz-adv-x="527" 
d="M50 268h-37c-2 101 42 235 146 235c83 0 141 -73 146 -239c3 -105 -16 -194 -39 -265h5c84 115 125 198 146 304c-6 71 -24 120 -50 169c23 16 48 30 88 30c27 0 70 -19 70 -78c0 -233 -389 -697 -587 -697c-58 0 -106 30 -106 89c0 43 33 83 85 83c56 0 77 -47 90 -99h6
c129 58 151 285 149 396c-3 146 -26 198 -54 198s-51 -45 -58 -126zM355 769h124v-18l-129 -179h-62z" />
    <glyph glyph-name="HT" horiz-adv-x="0" 
 />
    <glyph glyph-name="Thorn" unicode="&#xde;" horiz-adv-x="639" 
d="M-26 0l10 52l84 14l105 531l-75 15l10 52h321l-10 -52l-81 -15l-16 -80h5c215 3 310 -73 310 -162c0 -164 -202 -211 -346 -198l8 39c102 1 178 56 178 147c0 76 -65 124 -165 126l-79 -403l79 -14l-9 -52h-329z" />
    <glyph glyph-name="thorn" unicode="&#xfe;" horiz-adv-x="574" 
d="M-42 -173l198 811l-72 28l6 26l245 54l-109 -413h7c52 92 116 172 203 172c79 0 115 -54 115 -138c0 -184 -118 -379 -333 -379c-22 0 -50 4 -75 14l-44 -186h124l-13 -56h-344l7 37s79 27 85 30zM168 98l-8 -31c12 -22 33 -39 60 -39c86 0 168 195 168 345
c0 26 -11 37 -26 37c-72 0 -162 -190 -194 -312z" />
    <glyph glyph-name="Zcaron" unicode="&#x17d;" horiz-adv-x="641" 
d="M513 874h74l-130 -138h-102l-74 138h66l71 -62zM-15 0l9 56l444 544h-214l-77 -148h-50l41 219l90 -7h447l-3 -18l-473 -581h246l106 170h48l-67 -242l-96 7h-451z" />
    <glyph glyph-name="zcaron" unicode="&#x17e;" horiz-adv-x="539" 
d="M454 769h63l-132 -197h-93l-57 197h58l65 -96zM513 508l46 -46l-349 -304l77 -30c102 -41 139 -10 178 81l32 -11c-39 -132 -89 -218 -197 -218c-37 0 -64 13 -143 54l-56 29l-70 -80l-45 43l349 304l-96 37c-73 28 -119 26 -125 6c-7 -19 25 -45 93 -70
c-43 -50 -71 -75 -103 -75c-37 0 -64 25 -64 66c0 48 64 215 194 215c41 0 86 -17 134 -40l79 -39z" />
    <glyph glyph-name="onehalf" unicode="&#xbd;" horiz-adv-x="989" 
d="M227 -84l-46 36l600 774l46 -35zM48 268l7 46l93 11l50 244h-107l4 46l251 49h9l-69 -341l88 -9l-10 -46h-316zM563 0l10 41l104 71c79 54 136 102 136 157c0 29 -22 60 -62 60c-38 0 -69 -17 -108 -56l-34 29c43 61 99 110 188 110c77 0 143 -42 143 -114
c0 -79 -86 -135 -205 -202l-2 -1h205l-19 -95h-356z" />
    <glyph glyph-name="onequarter" unicode="&#xbc;" horiz-adv-x="949" 
d="M48 268l7 46l93 11l50 244h-107l4 46l251 49h9l-69 -341l88 -9l-10 -46h-316zM227 -84l-46 36l600 774l46 -35zM690 0l16 84h-201l10 51l313 274l67 -9l-51 -246h76l-14 -70h-75l-17 -84h-124zM603 154h117l25 129z" />
    <glyph glyph-name="threequarters" unicode="&#xbe;" horiz-adv-x="976" 
d="M202 250c-98 0 -157 40 -158 89c0 34 27 53 66 63c24 -78 63 -108 108 -108c33 0 62 23 62 61c0 50 -47 78 -131 88l7 44l30 6c79 16 106 50 106 77c0 29 -20 43 -53 43c-46 0 -81 -25 -113 -57l-35 30c58 68 110 90 189 90c82 0 138 -34 138 -86
c0 -50 -53 -89 -129 -101v-2c81 -9 123 -42 123 -96c0 -83 -94 -141 -210 -141zM249 -84l-46 36l600 774l46 -35zM716 0l16 84h-201l10 51l313 274l67 -9l-51 -246h76l-14 -70h-75l-17 -84h-124zM629 154h117l25 129z" />
    <glyph glyph-name="brokenbar" unicode="&#xa6;" horiz-adv-x="270" 
d="M178 313h-67l83 421h67zM76 -200h-66l82 419h67z" />
    <glyph glyph-name="minus" unicode="&#x2212;" horiz-adv-x="558" 
d="M516 204h-474v66h474v-66z" />
    <glyph glyph-name="multiply" unicode="&#xd7;" horiz-adv-x="558" 
d="M454 8l-180 181l-177 -180l-46 47l180 181l-180 180l48 49l180 -181l180 186l45 -47l-179 -183l180 -182z" />
    <glyph glyph-name="space" unicode=" " horiz-adv-x="199" 
 />
    <glyph glyph-name="exclam" unicode="!" horiz-adv-x="302" 
d="M148 695h178l-155 -485h-57zM127 -13c-47 0 -86 40 -86 85c0 48 39 87 86 87s87 -39 87 -87c0 -45 -40 -85 -87 -85z" />
    <glyph glyph-name="quotedbl" unicode="&#x22;" horiz-adv-x="469" 
d="M128 474l15 311h154l-118 -311h-51zM352 474l14 311h154l-118 -311h-50z" />
    <glyph glyph-name="numbersign" unicode="#" horiz-adv-x="593" 
d="M107 381l12 60h108l57 153h62l-57 -153h133l57 153h62l-57 -153h105l-12 -60h-116l-63 -170h101l-12 -60h-112l-56 -151h-62l56 151h-132l-56 -151h-63l56 151h-101l12 60h112l63 170h-97zM266 381l-63 -170h133l63 170h-133z" />
    <glyph glyph-name="dollar" unicode="$" horiz-adv-x="580" 
d="M55 225h47l28 -153c16 -9 36 -18 61 -26l69 220l-30 13c-76 33 -125 80 -124 166c0 104 114 204 276 207l42 132h52l-43 -135c51 -6 96 -20 128 -28l-32 -182h-43l-23 131c-13 9 -29 19 -47 26l-66 -209l50 -21c77 -33 127 -77 127 -154c0 -147 -173 -225 -302 -225h-2
l-35 -112h-51l36 116c-60 9 -118 30 -143 38zM386 149c0 47 -28 72 -81 97l-66 -209h16c67 0 130 44 131 112zM237 503c0 -40 16 -72 68 -97l63 201h-10c-79 0 -120 -51 -121 -104z" />
    <glyph glyph-name="percent" unicode="%" horiz-adv-x="973" 
d="M194 -50l503 687h72l-503 -687h-72zM264 563c-57 0 -99 -133 -99 -212c0 -28 6 -74 41 -74c47 0 97 109 97 209c0 42 -10 77 -39 77zM201 230c-99 0 -159 70 -159 158c0 110 89 221 225 221c99 0 159 -67 159 -158c0 -111 -89 -221 -225 -221zM764 314
c-56 0 -98 -133 -98 -211c0 -28 5 -74 40 -74c47 0 98 108 98 209c0 41 -10 76 -40 76zM702 -19c-100 0 -160 67 -160 159c0 110 90 221 225 221c99 0 159 -68 159 -159c0 -111 -89 -221 -224 -221z" />
    <glyph glyph-name="ampersand" unicode="&#x26;" horiz-adv-x="965" 
d="M665 410c-47 30 -74 50 -108 50c-39 0 -54 -28 -54 -51c0 -40 34 -61 68 -87c-19 -28 -37 -59 -78 -59c-17 0 -57 8 -57 90c0 75 71 213 197 212c45 0 76 -20 114 -44c89 -57 113 -74 139 -74c18 -1 31 13 31 37c0 33 -12 75 -49 129c20 12 38 21 63 21
c43 0 67 -37 67 -76c0 -114 -94 -215 -184 -215c-36 0 -66 15 -108 41c-42 -277 -190 -415 -384 -415c-172 0 -270 103 -270 258c0 197 148 326 238 326c28 0 48 -10 71 -23c103 157 110 175 110 175h21l40 -34l-347 -478c38 -49 97 -79 171 -79c133 0 262 66 309 296z
M140 334c0 -35 6 -67 18 -95l130 179c-5 30 -25 54 -54 54c-46 0 -94 -48 -94 -138z" />
    <glyph glyph-name="quotesingle" unicode="'" horiz-adv-x="246" 
d="M136 474l15 311h154l-119 -311h-50z" />
    <glyph glyph-name="parenleft" unicode="(" horiz-adv-x="361" 
d="M264 -180h-83c-76 89 -122 221 -122 356c0 230 134 423 309 556h93c-175 -153 -284 -336 -284 -600c0 -114 32 -221 87 -312z" />
    <glyph glyph-name="parenright" unicode=")" horiz-adv-x="361" 
d="M97 732h84c75 -90 120 -222 120 -356c0 -230 -134 -423 -308 -556h-93c175 153 284 336 284 600c0 114 -32 221 -87 312z" />
    <glyph glyph-name="asterisk" unicode="*" horiz-adv-x="394" 
d="M444 521l-118 -22l-2 -124l-27 -6l-55 110l-119 -37l-14 22l91 87l-74 100l16 19l113 -54l71 97l22 -8l-17 -121l114 -37z" />
    <glyph glyph-name="plus" unicode="+" horiz-adv-x="558" 
d="M518 204h-202v-204h-70v204h-202v66h202v204h70v-204h202v-66z" />
    <glyph glyph-name="comma" unicode="," horiz-adv-x="346" 
d="M-24 -153c103 47 148 88 148 146c0 38 -18 66 -72 93c3 51 29 105 93 105c55 0 105 -43 105 -131c0 -115 -111 -213 -253 -257c0 0 -21 43 -21 44z" />
    <glyph glyph-name="hyphen" unicode="-" horiz-adv-x="378" 
d="M58 224l21 111h249l-21 -111h-249z" />
    <glyph glyph-name="period" unicode="." horiz-adv-x="329" 
d="M134 -13c-47 0 -87 40 -87 87c0 48 40 87 87 87c48 0 88 -39 88 -87c0 -47 -40 -87 -88 -87z" />
    <glyph glyph-name="slash" unicode="/" horiz-adv-x="486" 
d="M-9 -206l-55 32l523 920l55 -32z" />
    <glyph glyph-name="zero" unicode="0" horiz-adv-x="646" 
d="M370 488c-92 0 -160 -214 -160 -339c0 -44 8 -120 67 -120c77 0 158 173 158 334c0 68 -17 125 -65 125zM268 -18c-134 0 -226 93 -226 233c0 160 131 320 338 320c135 0 224 -97 224 -232c0 -162 -129 -321 -336 -321z" />
    <glyph glyph-name="one" unicode="1" horiz-adv-x="431" 
d="M370 534l-94 -468l110 -14l-10 -52h-380l10 51l114 15l71 364h-120l7 56l287 48h5z" />
    <glyph glyph-name="two" unicode="2" horiz-adv-x="492" 
d="M218 140l-30 -18h257l-20 -122h-425l11 59l81 56c131 90 199 151 199 227c0 42 -28 83 -83 83c-38 0 -70 -21 -101 -48l-33 31c44 58 99 127 195 127c111 0 168 -66 168 -148c0 -97 -84 -166 -219 -247z" />
    <glyph glyph-name="three" unicode="3" horiz-adv-x="444" 
d="M-36 -249l-13 45c150 46 266 110 266 213c0 76 -61 113 -150 113h-2l11 80l27 10c66 24 168 63 168 138c0 42 -24 79 -84 79c-40 0 -70 -15 -108 -50l-34 29c43 57 98 127 211 127c101 0 155 -63 155 -133c0 -100 -89 -149 -163 -185l-19 -10c82 -14 143 -78 143 -163
c0 -160 -198 -256 -408 -293z" />
    <glyph glyph-name="four" unicode="4" horiz-adv-x="627" 
d="M261 -205l43 217h-302l12 65l454 457h81l-83 -415h126l-21 -107h-126l-43 -217h-141zM133 119h192l49 246z" />
    <glyph glyph-name="five" unicode="5" horiz-adv-x="412" 
d="M171 59c0 61 -26 116 -125 202l86 247l278 24l-27 -127l-243 -20l-4 -13c118 -85 194 -169 194 -276c0 -182 -148 -292 -377 -345l-14 45c145 62 232 142 232 263z" />
    <glyph glyph-name="six" unicode="6" horiz-adv-x="613" 
d="M665 696c-191 -85 -307 -184 -376 -283h3c19 13 53 24 90 24c93 0 182 -61 182 -179c0 -168 -132 -276 -293 -276c-138 0 -227 79 -227 237c0 266 327 462 611 518zM324 377c-26 0 -48 -8 -71 -25c-37 -73 -50 -145 -50 -208c0 -66 19 -115 74 -115c69 0 124 108 124 239
c0 67 -28 109 -77 109z" />
    <glyph glyph-name="seven" unicode="7" horiz-adv-x="553" 
d="M52 -232l-71 50l420 562h-342l28 137h463l-4 -26l-373 -537z" />
    <glyph glyph-name="eight" unicode="8" horiz-adv-x="539" 
d="M15 128c0 109 100 165 183 195l-4 4c-60 57 -82 83 -82 152c0 95 97 205 239 205c137 0 190 -69 190 -133c0 -72 -62 -128 -163 -173l23 -21c58 -53 93 -88 93 -151c0 -130 -136 -226 -269 -226c-126 0 -210 56 -210 148zM292 237l-63 57c-41 -30 -87 -79 -87 -149
c0 -50 27 -109 104 -109c58 0 101 45 101 104c0 37 -19 64 -55 97zM258 539c0 -45 29 -78 63 -109l26 -25c45 41 77 87 77 143c0 49 -34 81 -79 81s-87 -30 -87 -90z" />
    <glyph glyph-name="nine" unicode="9" horiz-adv-x="613" 
d="M-54 -180c192 84 309 182 377 280h-2c-20 -15 -53 -27 -90 -27c-101 0 -183 62 -183 186c0 161 127 275 290 275c142 0 232 -94 232 -239c0 -263 -326 -460 -613 -517zM283 135c32 0 56 11 81 34c35 72 47 141 47 203c0 64 -18 115 -75 115c-65 0 -125 -108 -125 -239
c0 -67 23 -113 72 -113z" />
    <glyph glyph-name="colon" unicode=":" horiz-adv-x="260" 
d="M102 -13c-47 0 -87 40 -87 87c0 48 40 87 87 87c48 0 88 -39 88 -87c0 -47 -40 -87 -88 -87zM168 324c-48 0 -87 40 -87 86c0 48 39 88 87 88s87 -40 87 -88c0 -46 -39 -86 -87 -86z" />
    <glyph glyph-name="semicolon" unicode=";" horiz-adv-x="261" 
d="M-43 -205l-22 43c104 47 149 89 149 147c0 38 -19 65 -72 92c3 51 28 105 92 105c55 0 106 -43 106 -131c0 -114 -111 -213 -253 -256zM167 324c-47 0 -87 40 -87 86c0 48 40 88 87 88c48 0 88 -40 88 -88c0 -46 -40 -86 -88 -86z" />
    <glyph glyph-name="less" unicode="&#x3c;" horiz-adv-x="558" 
d="M514 414l-392 -179l392 -177v-72l-472 220v59l472 220v-71z" />
    <glyph glyph-name="equal" unicode="=" horiz-adv-x="558" 
d="M42 293v64h474v-64h-474zM42 139v63h474v-63h-474z" />
    <glyph glyph-name="greater" unicode="&#x3e;" horiz-adv-x="558" 
d="M43 57l392 179l-392 177v72l472 -220v-59l-472 -220v71z" />
    <glyph glyph-name="question" unicode="?" horiz-adv-x="441" 
d="M90 548l13 139l40 -5c181 -25 250 -120 250 -221c0 -90 -36 -149 -140 -175l-81 -20l-16 -56h-58l14 162l133 31c73 17 92 39 92 62c0 36 -35 55 -169 73zM112 -13c-47 0 -86 40 -86 85c0 48 39 87 86 87s86 -39 86 -87c0 -45 -39 -85 -86 -85z" />
    <glyph glyph-name="at" unicode="@" horiz-adv-x="969" 
d="M533 166l11 39h-4l-27 -43c-44 -66 -90 -152 -171 -152c-50 0 -79 38 -79 98c0 167 206 346 311 346c15 0 29 -2 41 -5l7 27h113l-87 -334c-17 -59 -10 -84 22 -84c57 0 170 80 170 281c0 151 -119 279 -282 279c-203 0 -394 -182 -394 -444c0 -195 125 -309 312 -309
c81 0 154 26 168 31l-2 -38s-102 -38 -211 -38c-241 0 -377 148 -377 335c0 295 272 505 531 505c226 0 348 -149 348 -303c0 -215 -184 -347 -306 -347c-92 0 -121 61 -94 156zM415 112c35 0 134 150 162 252l7 25c-14 7 -27 11 -37 11c-55 0 -151 -154 -149 -255
c0 -27 8 -33 17 -33z" />
    <glyph glyph-name="A" unicode="A" horiz-adv-x="772" 
d="M-22 0l9 49l66 21l343 586l65 5l74 19l99 -616l68 -13l-10 -51h-322l11 53l83 13l-18 135h-240l-67 -123l92 -25l-10 -53h-243zM400 557l-153 -281h190l-36 281h-1z" />
    <glyph glyph-name="B" unicode="B" horiz-adv-x="660" 
d="M268 -1l-294 1l9 52l86 14l105 531l-76 15l10 52h285c176 0 250 -57 250 -142c0 -106 -110 -155 -229 -165v-4c151 -16 209 -67 209 -159c0 -137 -161 -196 -355 -195zM445 202c0 76 -43 121 -163 127l-45 -225c-1 -35 34 -56 69 -56c69 0 139 52 139 154zM338 614
l-48 -241h45c93 9 143 62 143 138c0 62 -41 107 -140 103z" />
    <glyph glyph-name="C" unicode="C" horiz-adv-x="731" 
d="M380 -18c-189 0 -333 98 -333 309c0 209 207 393 463 393c80 0 144 -25 191 -54l-20 -182h-48l-38 141c-27 20 -62 33 -100 33c-138 0 -256 -135 -256 -346c0 -152 77 -230 179 -230c38 0 76 12 102 25l102 156h50l-58 -188c-70 -34 -161 -57 -234 -57z" />
    <glyph glyph-name="D" unicode="D" horiz-adv-x="776" 
d="M339 617l-98 -504c-10 -48 20 -64 69 -64c156 1 261 150 261 338c1 145 -88 234 -232 230zM-25 0l10 52l85 14l104 531l-76 15l11 52l263 3c260 -2 382 -129 382 -285c0 -263 -243 -389 -484 -386z" />
    <glyph glyph-name="E" unicode="E" horiz-adv-x="659" 
d="M386 309h-104l-49 -244h224l105 145h48l-63 -210h-573l10 52l85 14l105 531l-76 15l10 52h461l94 7l-54 -194h-47l-16 128h-206l-46 -237h103l48 84h47l-42 -221h-51z" />
    <glyph glyph-name="F" unicode="F" horiz-adv-x="622" 
d="M385 307h-104l-48 -241l111 -12l-11 -54h-359l10 52l85 14l105 531l-75 15l9 52h452l94 7l-54 -203h-47l-13 137h-200l-47 -239h104l44 84h46l-45 -224h-47z" />
    <glyph glyph-name="G" unicode="G" horiz-adv-x="758" 
d="M390 45c58 0 95 21 107 93l19 107l-80 13l10 50h274l-11 -51l-48 -14l-42 -196c-88 -33 -168 -65 -244 -65c-194 0 -328 100 -328 303c0 213 210 399 472 399c92 0 151 -29 193 -49l-39 -186h-48l-30 143c-24 18 -56 30 -104 30c-127 0 -257 -129 -257 -352
c1 -145 73 -225 156 -225z" />
    <glyph glyph-name="H" unicode="H" horiz-adv-x="807" 
d="M404 0l9 52l84 14l46 236h-264l-46 -236l77 -14l-10 -52h-326l9 52l85 14l105 531l-75 15l10 52h317l-9 -52l-78 -15l-46 -229h264l45 229l-71 15l10 52h318l-10 -52l-82 -15l-104 -531l79 -14l-10 -52h-327z" />
    <glyph glyph-name="I" unicode="I" horiz-adv-x="379" 
d="M-26 0l10 52l84 14l105 531l-75 15l10 52h321l-10 -52l-81 -15l-105 -531l79 -14l-10 -52h-328z" />
    <glyph glyph-name="J" unicode="J" horiz-adv-x="381" 
d="M343 597l-97 -497c-38 -188 -156 -317 -321 -320l-4 49c107 30 133 130 156 249l102 519l-78 15l10 52h325l-10 -52z" />
    <glyph glyph-name="K" unicode="K" horiz-adv-x="744" 
d="M-26 0l10 52l84 14l105 531l-75 15l10 52h319l-10 -52l-80 -15l-104 -531l64 -14l-11 -52h-312zM694 25l-10 -44c-202 0 -224 12 -385 367l2 13l78 24l225 208l-70 20l11 51h235l-10 -49l-84 -23l-224 -201c152 -320 160 -339 232 -366z" />
    <glyph glyph-name="L" unicode="L" horiz-adv-x="607" 
d="M233 65h183l103 170h48l-56 -235h-537l9 52l85 14l104 531l-74 15l9 52h327l-10 -52l-86 -15z" />
    <glyph glyph-name="M" unicode="M" horiz-adv-x="973" 
d="M-29 0l10 52l84 20l135 525l-82 15l10 52h293l81 -374l205 374h272l-10 -52l-81 -15l-58 -532l78 -13l-9 -52h-337l10 53l91 13l62 491l-244 -432l-52 -102h-55l-13 101l-94 447l-123 -491l102 -30l-11 -50h-264z" />
    <glyph glyph-name="N" unicode="N" horiz-adv-x="780" 
d="M626 -13h-121l-269 536l-85 -446l122 -28l-9 -49h-285l10 52l85 19l102 511l-79 31l10 51h244l239 -486l74 406l-115 31l8 49h275l-10 -52l-83 -22l-97 -491z" />
    <glyph glyph-name="O" unicode="O" horiz-adv-x="770" 
d="M458 684c167 0 289 -109 289 -307c0 -185 -147 -397 -407 -397c-176 0 -293 115 -293 308c0 196 164 396 411 396zM566 448c0 109 -33 180 -111 180c-116 0 -227 -199 -227 -407c0 -124 37 -185 114 -185c137 0 224 254 224 412z" />
    <glyph glyph-name="P" unicode="P" horiz-adv-x="642" 
d="M318 283l8 40c86 6 164 57 164 159c0 83 -62 133 -148 132l-108 -548l101 -14l-10 -52h-351l10 52l85 14l105 531l-76 15l10 52l288 1c154 -8 261 -63 261 -173c0 -158 -179 -217 -339 -209z" />
    <glyph glyph-name="Q" unicode="Q" horiz-adv-x="770" 
d="M458 684c167 0 289 -109 289 -307c0 -160 -126 -335 -322 -379c95 -80 181 -147 283 -147c58 0 110 22 164 49l15 -29c-38 -34 -109 -107 -256 -107c-167 0 -251 73 -429 254c-89 44 -155 138 -155 275c0 191 164 391 411 391zM566 448c0 109 -33 180 -111 180
c-116 0 -227 -199 -227 -407c0 -124 37 -185 114 -185c137 0 224 254 224 412z" />
    <glyph glyph-name="R" unicode="R" horiz-adv-x="724" 
d="M-26 0l11 52l84 14l106 532l-77 14l11 52l282 2c168 1 273 -60 273 -167c0 -108 -108 -154 -179 -175c119 -255 130 -276 195 -301l-7 -41c-190 -1 -212 12 -346 304h-50l-43 -220l86 -15l-11 -51h-335zM343 617l-55 -278c138 0 210 60 210 157c0 72 -43 122 -155 121z
" />
    <glyph glyph-name="S" unicode="S" horiz-adv-x="582" 
d="M59 232h52l27 -159c27 -15 68 -33 111 -33c73 0 118 43 118 103c0 49 -32 81 -94 116l-50 28c-83 47 -112 91 -112 171c0 110 105 225 292 225c71 0 126 -21 169 -34l-44 -193h-53l-12 139c-21 15 -56 31 -97 31c-63 0 -113 -40 -113 -95c0 -49 28 -71 83 -104l67 -40
c74 -44 122 -88 122 -171c0 -160 -177 -236 -299 -236c-92 0 -163 32 -197 44z" />
    <glyph glyph-name="T" unicode="T" horiz-adv-x="712" 
d="M216 664h435l93 7l-44 -203h-47l-20 137h-129l-106 -538l94 -15l-10 -52h-359l10 52l101 14l106 539h-127l-74 -137h-47l37 203z" />
    <glyph glyph-name="U" unicode="U" horiz-adv-x="754" 
d="M344 -21c-189 0 -278 94 -238 299l63 319l-75 15l10 52h318l-9 -52l-77 -15l-68 -342c-24 -120 18 -191 122 -191c94 0 170 58 198 212l58 314l-119 25l9 49h272l-10 -52l-81 -21l-58 -295c-38 -192 -128 -317 -315 -317z" />
    <glyph glyph-name="V" unicode="V" horiz-adv-x="742" 
d="M261 -11l-106 608l-65 15l11 52h317l-10 -52l-79 -17l67 -452h2l243 445l-100 23l11 53h246l-10 -52l-68 -18l-346 -605h-113z" />
    <glyph glyph-name="W" unicode="W" horiz-adv-x="1081" 
d="M629 -10l-60 423l-217 -423h-110l-84 607l-69 15l10 52h318l-10 -52l-76 -15l49 -431l175 344l-12 88l-67 14l10 52h315l-10 -53l-77 -15l53 -433l204 422l-78 26l10 53h234l-10 -52l-76 -21l-309 -601h-113z" />
    <glyph glyph-name="X" unicode="X" horiz-adv-x="701" 
d="M-26 0l10 53l64 14l240 251l-121 280l-59 14l10 52h314l-10 -52l-77 -14l69 -181h2l158 177l-80 18l11 52h224l-10 -52l-59 -15l-222 -234l130 -298l69 -13l-10 -52h-326l10 53l80 13l-78 199h-2l-171 -194l78 -19l-10 -52h-234z" />
    <glyph glyph-name="Y" unicode="Y" horiz-adv-x="681" 
d="M664 595l-229 -316l-41 -213l85 -14l-11 -52h-340l11 52l90 14l36 187l-113 348l-59 11l10 52h318l-10 -51l-85 -14l82 -269h2l184 264l-80 19l11 51h212l-11 -51z" />
    <glyph glyph-name="Z" unicode="Z" horiz-adv-x="641" 
d="M-15 0l9 56l444 544h-214l-77 -148h-50l41 219l90 -7h447l-3 -18l-473 -581h246l106 170h48l-67 -242l-96 7h-451z" />
    <glyph glyph-name="bracketleft" unicode="[" horiz-adv-x="302" 
d="M204 -181h-211l184 914h211l-11 -56h-97l-162 -802h98z" />
    <glyph glyph-name="backslash" unicode="\" horiz-adv-x="499" 
d="M407 -194l-62 -12l-210 938l64 13z" />
    <glyph glyph-name="bracketright" unicode="]" horiz-adv-x="302" 
d="M100 733h211l-184 -914h-211l12 56h96l162 802h-98z" />
    <glyph glyph-name="asciicircum" unicode="^" horiz-adv-x="498" 
d="M152 468h-65l215 288h89l106 -288h-58l-109 200z" />
    <glyph glyph-name="underscore" unicode="_" horiz-adv-x="408" 
d="M-75 -222l15 76h379l-14 -76h-380z" />
    <glyph glyph-name="grave" unicode="`" horiz-adv-x="400" 
d="M157 769h124l38 -197h-61l-101 179v18z" />
    <glyph glyph-name="a" unicode="a" horiz-adv-x="596" 
d="M444 507h127l-112 -414l3 -1c36 15 65 41 91 78l24 -16c-33 -79 -132 -167 -211 -167c-48 0 -81 32 -51 120l26 75h-7c-43 -69 -127 -200 -226 -200c-65 0 -100 42 -100 101c0 206 206 412 366 412c21 0 43 -7 61 -17zM186 94c50 0 151 132 186 245l23 74
c-15 22 -33 32 -48 32c-67 0 -183 -193 -183 -313c0 -24 7 -38 22 -38z" />
    <glyph glyph-name="b" unicode="b" horiz-adv-x="574" 
d="M218 -18c-50 0 -117 26 -180 72l-22 16l140 568l-72 28l6 26l245 54l-109 -413h7c52 92 116 172 203 172c79 0 115 -54 115 -148c0 -174 -118 -375 -333 -375zM170 106l-7 -25c7 -31 35 -53 65 -53c78 0 160 195 160 345c0 26 -11 37 -26 37c-72 0 -161 -190 -192 -304z
" />
    <glyph glyph-name="c" unicode="c" horiz-adv-x="461" 
d="M292 438c-64 0 -115 -164 -115 -269c0 -70 28 -84 56 -84c46 0 99 42 154 109l26 -22c-30 -61 -125 -189 -263 -189c-86 0 -134 69 -134 155c0 146 82 252 183 312c61 36 119 55 164 55c61 0 107 -34 107 -72c0 -34 -44 -79 -69 -91c-37 47 -78 96 -109 96z" />
    <glyph glyph-name="d" unicode="d" horiz-adv-x="624" 
d="M340 502c30 0 57 -10 78 -22l38 158l-72 28l6 26l243 54l-164 -653l3 -1c35 16 64 41 91 78l24 -16c-33 -78 -133 -167 -214 -167c-52 0 -79 43 -51 120l26 73h-7c-55 -90 -135 -198 -224 -198c-57 0 -102 40 -102 135c0 153 147 385 325 385zM394 375l7 32
c-17 27 -39 49 -63 49c-75 0 -156 -202 -156 -307c0 -35 8 -50 25 -50c50 0 161 167 187 276z" />
    <glyph glyph-name="e" unicode="e" horiz-adv-x="469" 
d="M162 -17c-101 0 -146 66 -146 155c0 133 83 243 181 307c56 38 120 60 174 60c64 0 104 -27 104 -86c0 -107 -166 -181 -299 -204c-1 -10 -1 -19 -1 -29c0 -75 23 -101 67 -101c49 0 110 49 141 86l24 -21c-30 -55 -122 -167 -245 -167zM320 450
c-49 0 -115 -86 -137 -191c85 28 163 102 163 161c0 18 -9 30 -26 30z" />
    <glyph glyph-name="f" unicode="f" horiz-adv-x="378" 
d="M47 427l10 62h90c68 174 256 257 334 257c59 0 107 -42 107 -74c0 -31 -48 -80 -75 -94c-38 52 -83 94 -123 94c-37 0 -67 -51 -95 -183h125l-11 -62h-127l-68 -324c-59 -279 -237 -363 -311 -363c-55 0 -94 37 -94 79s36 72 84 82c20 -56 39 -95 67 -95
c27 0 51 38 70 133l99 488h-82z" />
    <glyph glyph-name="g" unicode="g" horiz-adv-x="542" 
d="M309 504c37 0 74 -11 102 -18l169 12l-30 -96l-91 26l-2 -4c22 -31 27 -59 27 -86c0 -115 -120 -213 -256 -213c-11 0 -21 1 -30 2c-20 -10 -27 -22 -27 -34c0 -18 15 -28 38 -35l173 -51c70 -21 97 -53 97 -106c0 -108 -187 -175 -321 -175c-154 0 -239 48 -239 106
c1 61 62 84 174 110v3c-36 16 -64 44 -64 86c0 50 46 87 119 107v4c-58 26 -95 80 -95 146c0 123 104 216 256 216zM306 459c-59 0 -113 -138 -113 -221c0 -46 14 -69 38 -69c50 -1 113 120 113 223c0 39 -12 67 -38 67zM295 -117l-146 44c-39 -11 -77 -31 -77 -67
c0 -46 62 -81 149 -81c71 0 132 29 132 61c0 20 -16 30 -58 43z" />
    <glyph glyph-name="h" unicode="h" horiz-adv-x="596" 
d="M328 746l-119 -472h8c61 104 145 231 250 231c60 0 92 -26 67 -126l-74 -286l3 -1c36 16 65 41 91 78l25 -16c-33 -78 -132 -171 -212 -171c-45 0 -79 34 -56 121l69 258c6 24 5 36 -9 36c-46 0 -191 -242 -221 -360l-8 -31l-125 -24l-26 16l161 639l-71 28l6 26z" />
    <glyph glyph-name="i" unicode="i" horiz-adv-x="319" 
d="M109 401l-79 19l6 23s91 64 165 64c53 0 75 -34 54 -120l-71 -294l3 -1c35 16 64 41 91 78l24 -16c-33 -78 -132 -171 -212 -171c-45 0 -77 33 -55 121zM155 666c0 47 38 86 85 86s85 -39 85 -86c0 -46 -38 -85 -85 -85s-85 39 -85 85z" />
    <glyph glyph-name="j" unicode="j" horiz-adv-x="318" 
d="M39 17l95 384l-78 19l5 23s92 64 164 64c52 0 78 -34 56 -121l-72 -290c-51 -206 -180 -356 -305 -356c-57 0 -110 32 -110 87c0 37 41 66 90 79c8 -60 32 -100 62 -100c37 0 66 100 93 211zM180 666c0 47 39 86 86 86c46 0 85 -39 85 -86c0 -46 -39 -85 -85 -85
c-47 0 -86 39 -86 85z" />
    <glyph glyph-name="k" unicode="k" horiz-adv-x="543" 
d="M445 -39c-78 0 -140 54 -179 110l-74 104c-21 -45 -37 -91 -46 -132l-8 -36l-121 -24l-26 16l161 639l-71 28l6 26l240 54l-114 -444h5c73 125 144 203 225 203c58 0 92 -40 92 -91c0 -82 -55 -149 -209 -212l185 -215v-14c-14 -7 -33 -12 -66 -12zM377 399
c-49 0 -127 -103 -180 -215c141 49 211 124 211 180c0 24 -12 35 -31 35z" />
    <glyph glyph-name="l" unicode="l" horiz-adv-x="308" 
d="M291 154c-33 -78 -131 -171 -212 -171c-45 0 -77 33 -55 121l132 534l-72 28l6 26l243 54l-160 -653l3 -1c35 16 64 41 91 78z" />
    <glyph glyph-name="m" unicode="m" horiz-adv-x="901" 
d="M5 -1l105 403l-77 18l5 23s101 64 169 64c54 0 73 -42 44 -130l-38 -115h9c62 104 154 243 258 243c61 0 96 -29 63 -128l-38 -115h9c62 104 154 243 259 243c59 0 92 -24 66 -126l-73 -286l3 -1c36 16 64 41 91 78l24 -16c-32 -78 -132 -171 -212 -171
c-45 0 -78 34 -55 121l69 258c7 24 4 36 -10 36c-48 0 -184 -229 -217 -359l-8 -32l-128 -24l-26 16l97 363c7 24 4 36 -10 36c-48 0 -186 -232 -219 -360l-8 -31l-126 -24z" />
    <glyph glyph-name="n" unicode="n" horiz-adv-x="614" 
d="M5 -1l105 403l-77 18l5 23s101 64 169 64c54 0 73 -42 44 -130l-38 -115h9c62 104 159 243 264 243c59 0 92 -24 66 -126l-73 -286l3 -1c36 16 64 41 91 78l24 -16c-33 -78 -132 -171 -212 -171c-45 0 -78 34 -55 121l69 258c6 24 5 36 -10 36c-48 0 -186 -235 -217 -346
l-13 -46l-128 -23z" />
    <glyph glyph-name="o" unicode="o" horiz-adv-x="566" 
d="M188 117c0 -45 7 -89 41 -89c76 0 149 220 149 343c0 48 -10 89 -42 89c-76 0 -148 -222 -148 -343zM350 505c118 0 190 -84 190 -201c0 -156 -123 -321 -322 -321c-120 0 -192 84 -192 203c0 155 123 319 324 319z" />
    <glyph glyph-name="p" unicode="p" horiz-adv-x="589" 
d="M-1 -173l124 520l-105 -58l-16 37c44 28 90 57 136 83l35 147h132l-18 -75c46 17 89 28 127 28c95 0 152 -51 152 -156c0 -150 -127 -367 -313 -367c-25 0 -45 5 -62 13l-44 -183h124l-13 -56h-350l6 37s80 27 85 30zM251 31c76 0 156 175 156 308c0 50 -20 95 -72 95
c-11 0 -25 -3 -41 -8l-88 -366c15 -20 29 -29 45 -29z" />
    <glyph glyph-name="q" unicode="q" horiz-adv-x="586" 
d="M252 -181l74 293c8 34 20 68 20 68h-7c-54 -90 -135 -198 -223 -198c-58 0 -103 40 -103 135c0 153 147 385 325 385c40 0 73 -17 97 -34l8 34h130l-170 -686h87l-16 -56h-309l10 42s70 13 77 17zM205 99c50 0 163 167 187 276l7 33c-16 27 -39 48 -62 48
c-75 0 -156 -202 -156 -307c0 -35 7 -50 24 -50z" />
    <glyph glyph-name="r" unicode="r" horiz-adv-x="491" 
d="M19 -1l30 118c42 167 65 285 65 285l-76 17l5 24s83 63 149 63c61 0 81 -44 51 -137l-55 -173h15c62 143 127 310 230 310c40 0 69 -26 69 -76c0 -53 -43 -101 -74 -118h-48c19 32 22 74 -1 87c-36 -29 -84 -104 -125 -187c-35 -70 -64 -141 -82 -206l-127 -23z" />
    <glyph glyph-name="s" unicode="s" horiz-adv-x="406" 
d="M359 170c0 -102 -137 -190 -241 -190c-62 0 -131 45 -131 105c0 30 8 53 40 97h6c52 -71 109 -131 169 -131c29 0 44 15 44 38c0 19 -15 40 -58 75l-59 49c-31 25 -63 60 -63 104c0 104 151 192 242 192c44 0 100 -32 100 -85c0 -34 -13 -65 -34 -96h-6
c-50 51 -96 98 -152 98c-25 0 -39 -15 -39 -33c0 -23 15 -35 51 -64l58 -47c61 -49 73 -76 73 -112z" />
    <glyph glyph-name="t" unicode="t" horiz-adv-x="403" 
d="M45 427l10 62h93l55 119h108l-24 -119h122l-10 -62h-121l-81 -326l4 -3c65 27 111 80 143 127l24 -17c-40 -84 -156 -225 -260 -225c-45 0 -81 45 -65 109l83 335h-81z" />
    <glyph glyph-name="u" unicode="u" horiz-adv-x="603" 
d="M109 403l-78 18l5 23s93 64 157 64c57 0 87 -32 58 -139l-65 -242c-6 -24 -5 -35 6 -35c33 0 194 240 219 365l6 26l125 24l26 -16l-99 -398l3 -1c35 16 64 41 91 78l24 -16c-33 -78 -132 -171 -212 -171c-50 0 -80 35 -50 127l45 138h-7c-56 -81 -143 -264 -268 -264
c-50 0 -83 38 -60 128z" />
    <glyph glyph-name="v" unicode="v" horiz-adv-x="506" 
d="M233 390l10 -284c93 101 145 171 145 244c0 41 -28 61 -60 61c-20 0 -37 -4 -52 -8l6 33c45 46 96 67 139 67c50 0 85 -34 85 -87c0 -112 -114 -208 -228 -331l-92 -99h-9l-65 23l-25 389c-10 8 -27 12 -42 12c-12 0 -34 -4 -45 -8l6 34c50 50 99 67 138 67
c49 0 86 -20 89 -113z" />
    <glyph glyph-name="w" unicode="w" horiz-adv-x="761" 
d="M496 394l-1 -287h4c83 89 143 164 143 244c0 40 -28 60 -60 60c-20 0 -37 -4 -52 -8l6 33c46 47 99 67 138 67c51 0 86 -33 87 -87c0 -112 -137 -239 -244 -349l-82 -84h-16l-56 25l-3 172h-2c-31 -33 -63 -67 -106 -111l-85 -86h-12l-58 19l-12 396c-8 7 -23 12 -40 12
c-13 0 -35 -4 -45 -8l6 34c51 50 101 67 139 67c49 0 86 -23 86 -110l-1 -282h3c59 57 102 111 123 140l-4 146c-8 7 -25 13 -42 13c-13 0 -35 -4 -46 -8l6 34c53 50 103 67 140 67c43 0 86 -15 86 -109z" />
    <glyph glyph-name="x" unicode="x" horiz-adv-x="578" 
d="M346 -16c-37 0 -52 12 -69 63l-43 130l-27 -45c-59 -98 -97 -150 -158 -150c-37 0 -76 25 -76 74c0 59 48 88 48 88l31 -19c56 -35 85 -21 143 63l24 35l-32 100c-16 49 -24 71 -44 71c-21 0 -51 -29 -58 -126h-37c-3 151 61 236 150 236c57 0 90 -28 116 -110l23 -74
l48 79c46 75 83 107 126 107s71 -27 71 -76c0 -48 -34 -96 -80 -123h-36c12 37 10 76 -12 76c-19 0 -41 -28 -82 -84l-20 -28l57 -177h3c39 16 67 40 94 77l24 -16c-33 -78 -132 -171 -184 -171z" />
    <glyph glyph-name="y" unicode="y" horiz-adv-x="527" 
d="M50 268h-37c-2 101 42 235 146 235c83 0 141 -73 146 -239c3 -105 -16 -194 -39 -265h5c84 115 125 198 146 304c-6 71 -24 120 -50 169c23 16 48 30 88 30c27 0 70 -19 70 -78c0 -233 -389 -697 -587 -697c-58 0 -106 30 -106 89c0 43 33 83 85 83c56 0 77 -47 90 -99h6
c129 58 151 285 149 396c-3 146 -26 198 -54 198s-51 -45 -58 -126z" />
    <glyph glyph-name="z" unicode="z" horiz-adv-x="539" 
d="M513 508l46 -46l-349 -304l77 -30c102 -41 139 -10 178 81l32 -11c-39 -132 -89 -218 -197 -218c-37 0 -64 13 -143 54l-56 29l-70 -80l-45 43l349 304l-96 37c-73 28 -119 26 -125 6c-7 -19 25 -45 93 -70c-43 -50 -71 -75 -103 -75c-37 0 -64 25 -64 66
c0 48 64 215 194 215c41 0 86 -17 134 -40l79 -39z" />
    <glyph glyph-name="braceleft" unicode="{" horiz-adv-x="332" 
d="M116 291v-3c58 -19 88 -52 72 -133l-33 -171c-18 -93 -4 -116 69 -116l-11 -49h-19c-133 0 -172 62 -148 179l38 183c11 54 -1 74 -45 76l-27 1l14 71l37 1c37 1 56 19 62 56l33 191c19 107 76 156 221 156h18l-10 -49c-73 0 -96 -16 -118 -121l-33 -155
c-14 -67 -54 -108 -120 -117z" />
    <glyph glyph-name="bar" unicode="|" horiz-adv-x="269" 
d="M76 -206h-66l188 950h66z" />
    <glyph glyph-name="braceright" unicode="}" horiz-adv-x="370" 
d="M215 261v3c-58 19 -87 52 -72 133l33 171c17 93 4 116 -69 116l11 49h19c133 0 172 -62 148 -179l-38 -183c-11 -54 1 -74 45 -76l27 -1l-14 -71l-37 -1c-37 -1 -56 -19 -62 -56l-33 -191c-19 -107 -76 -156 -221 -156h-18l10 49c73 0 96 16 118 121l33 155
c14 67 54 108 120 117z" />
    <glyph glyph-name="asciitilde" unicode="~" horiz-adv-x="497" 
d="M72 192l-42 21l4 11c46 126 113 140 205 108l35 -12c94 -32 124 -35 152 36l42 -21l-6 -16c-49 -130 -112 -141 -215 -106l-36 12c-89 30 -113 32 -139 -33z" />
    <glyph glyph-name="Adieresis" unicode="&#xc4;" horiz-adv-x="772" 
d="M-22 0l9 49l66 21l343 586l65 5l74 19l99 -616l68 -13l-10 -51h-322l11 53l83 13l-18 135h-240l-67 -123l92 -25l-10 -53h-243zM400 557l-153 -281h190l-36 281h-1zM367 724c-41 0 -75 34 -75 75s34 76 75 76c40 0 75 -35 75 -76s-35 -75 -75 -75zM612 724
c-41 0 -75 34 -75 75s34 76 75 76s75 -35 75 -76s-34 -75 -75 -75z" />
    <glyph glyph-name="Aring" unicode="&#xc5;" horiz-adv-x="772" 
d="M-22 0l9 49l66 21l343 586l65 5l74 19l99 -616l68 -13l-10 -51h-322l11 53l83 13l-18 135h-240l-67 -123l92 -25l-10 -53h-243zM400 557l-153 -281h190l-36 281h-1zM374 826c0 66 54 117 120 117c68 0 121 -50 121 -117s-54 -118 -121 -118s-120 50 -120 118zM431 826
c0 -39 28 -66 63 -66s64 27 64 66c0 38 -29 65 -64 65s-63 -27 -63 -65z" />
    <glyph glyph-name="Ccedilla" unicode="&#xc7;" horiz-adv-x="731" 
d="M193 -277l-7 39c42 13 98 37 98 84c0 27 -18 43 -30 52l68 87c-160 18 -275 117 -275 306c0 209 207 393 463 393c80 0 144 -25 191 -54l-20 -182h-48l-38 141c-27 20 -62 33 -100 33c-138 0 -256 -135 -256 -346c0 -152 77 -230 179 -230c38 0 76 12 102 25l102 156h50
l-58 -188c-70 -34 -161 -57 -234 -57h-9l-28 -44c34 -10 60 -34 60 -71c0 -84 -97 -125 -210 -144z" />
    <glyph glyph-name="Eacute" unicode="&#xc9;" horiz-adv-x="659" 
d="M438 875h136v-22l-142 -117h-78zM386 309h-104l-49 -244h224l105 145h48l-63 -210h-573l10 52l85 14l105 531l-76 15l10 52h461l94 7l-54 -194h-47l-16 128h-206l-46 -237h103l48 84h47l-42 -221h-51z" />
    <glyph glyph-name="Ntilde" unicode="&#xd1;" horiz-adv-x="780" 
d="M626 -13h-121l-269 536l-85 -446l122 -28l-9 -49h-285l10 52l85 19l102 511l-79 31l10 51h244l239 -486l74 406l-115 31l8 49h275l-10 -52l-83 -22l-97 -491zM502 757l-26 9c-84 29 -98 16 -130 -35l-35 19l5 13c43 119 105 124 188 95l26 -9c98 -34 106 -23 146 34
l35 -18l-7 -16c-50 -118 -104 -127 -202 -92z" />
    <glyph glyph-name="Odieresis" unicode="&#xd6;" horiz-adv-x="770" 
d="M376 724c-41 0 -75 34 -75 75s34 76 75 76c40 0 75 -35 75 -76s-35 -75 -75 -75zM621 724c-41 0 -75 34 -75 75s34 76 75 76s75 -35 75 -76s-34 -75 -75 -75zM458 684c167 0 289 -109 289 -307c0 -185 -147 -397 -407 -397c-176 0 -293 115 -293 308
c0 196 164 396 411 396zM566 448c0 109 -33 180 -111 180c-116 0 -227 -199 -227 -407c0 -124 37 -185 114 -185c137 0 224 254 224 412z" />
    <glyph glyph-name="Udieresis" unicode="&#xdc;" horiz-adv-x="754" 
d="M344 -21c-189 0 -278 94 -238 299l63 319l-75 15l10 52h318l-9 -52l-77 -15l-68 -342c-24 -120 18 -191 122 -191c94 0 170 58 198 212l58 314l-119 25l9 49h272l-10 -52l-81 -21l-58 -295c-38 -192 -128 -317 -315 -317zM369 724c-41 0 -75 34 -75 75s34 76 75 76
c40 0 75 -35 75 -76s-35 -75 -75 -75zM614 724c-41 0 -75 34 -75 75s34 76 75 76s75 -35 75 -76s-34 -75 -75 -75z" />
    <glyph glyph-name="aacute" unicode="&#xe1;" horiz-adv-x="596" 
d="M444 507h127l-112 -414l3 -1c36 15 65 41 91 78l24 -16c-33 -79 -132 -167 -211 -167c-48 0 -81 32 -51 120l26 75h-7c-43 -69 -127 -200 -226 -200c-65 0 -100 42 -100 101c0 206 206 412 366 412c21 0 43 -7 61 -17zM186 94c50 0 151 132 186 245l23 74
c-15 22 -33 32 -48 32c-67 0 -183 -193 -183 -313c0 -24 7 -38 22 -38zM414 769h124v-18l-129 -179h-62z" />
    <glyph glyph-name="agrave" unicode="&#xe0;" horiz-adv-x="596" 
d="M444 507h127l-112 -414l3 -1c36 15 65 41 91 78l24 -16c-33 -79 -132 -167 -211 -167c-48 0 -81 32 -51 120l26 75h-7c-43 -69 -127 -200 -226 -200c-65 0 -100 42 -100 101c0 206 206 412 366 412c21 0 43 -7 61 -17zM186 94c50 0 151 132 186 245l23 74
c-15 22 -33 32 -48 32c-67 0 -183 -193 -183 -313c0 -24 7 -38 22 -38zM253 769h124l38 -197h-61l-101 179v18z" />
    <glyph glyph-name="acircumflex" unicode="&#xe2;" horiz-adv-x="596" 
d="M444 507h127l-112 -414l3 -1c36 15 65 41 91 78l24 -16c-33 -79 -132 -167 -211 -167c-48 0 -81 32 -51 120l26 75h-7c-43 -69 -127 -200 -226 -200c-65 0 -100 42 -100 101c0 206 206 412 366 412c21 0 43 -7 61 -17zM186 94c50 0 151 132 186 245l23 74
c-15 22 -33 32 -48 32c-67 0 -183 -193 -183 -313c0 -24 7 -38 22 -38zM306 572h-63l132 197h93l57 -197h-58l-65 95z" />
    <glyph glyph-name="adieresis" unicode="&#xe4;" horiz-adv-x="596" 
d="M444 507h127l-112 -414l3 -1c36 15 65 41 91 78l24 -16c-33 -79 -132 -167 -211 -167c-48 0 -81 32 -51 120l26 75h-7c-43 -69 -127 -200 -226 -200c-65 0 -100 42 -100 101c0 206 206 412 366 412c21 0 43 -7 61 -17zM186 94c50 0 151 132 186 245l23 74
c-15 22 -33 32 -48 32c-67 0 -183 -193 -183 -313c0 -24 7 -38 22 -38zM211 660c0 41 33 75 74 75s74 -34 74 -75s-33 -73 -74 -73s-74 32 -74 73zM432 660c0 41 33 75 73 75c41 0 75 -34 75 -75s-34 -73 -75 -73c-40 0 -73 32 -73 73z" />
    <glyph glyph-name="atilde" unicode="&#xe3;" horiz-adv-x="596" 
d="M444 507h127l-112 -414l3 -1c36 15 65 41 91 78l24 -16c-33 -79 -132 -167 -211 -167c-48 0 -81 32 -51 120l26 75h-7c-43 -69 -127 -200 -226 -200c-65 0 -100 42 -100 101c0 206 206 412 366 412c21 0 43 -7 61 -17zM186 94c50 0 151 132 186 245l23 74
c-15 22 -33 32 -48 32c-67 0 -183 -193 -183 -313c0 -24 7 -38 22 -38zM386 601l-26 8c-79 24 -97 28 -127 -28l-36 19l6 13c61 118 108 124 192 98l26 -8c86 -26 101 -33 141 31l38 -20l-10 -17c-69 -123 -115 -126 -204 -96z" />
    <glyph glyph-name="aring" unicode="&#xe5;" horiz-adv-x="596" 
d="M444 507h127l-112 -414l3 -1c36 15 65 41 91 78l24 -16c-33 -79 -132 -167 -211 -167c-48 0 -81 32 -51 120l26 75h-7c-43 -69 -127 -200 -226 -200c-65 0 -100 42 -100 101c0 206 206 412 366 412c21 0 43 -7 61 -17zM186 94c50 0 151 132 186 245l23 74
c-15 22 -33 32 -48 32c-67 0 -183 -193 -183 -313c0 -24 7 -38 22 -38zM286 674c0 65 52 114 117 114c66 0 117 -48 117 -114c0 -65 -52 -114 -117 -114c-66 0 -117 48 -117 114zM342 674c0 -38 27 -64 61 -64s61 26 61 64s-27 64 -61 64s-61 -26 -61 -64z" />
    <glyph glyph-name="ccedilla" unicode="&#xe7;" horiz-adv-x="461" 
d="M19 -277l-7 39c42 13 98 37 98 84c0 27 -18 43 -30 52l66 85c-84 2 -130 70 -130 155c0 146 82 252 183 312c61 36 119 55 164 55c61 0 107 -34 107 -72c0 -34 -44 -79 -69 -91c-37 47 -78 96 -109 96c-64 0 -115 -164 -115 -269c0 -70 28 -84 56 -84c46 0 99 42 154 109
l26 -22c-26 -53 -101 -157 -211 -183l-33 -51c34 -10 60 -34 60 -71c0 -84 -97 -125 -210 -144z" />
    <glyph glyph-name="eacute" unicode="&#xe9;" horiz-adv-x="469" 
d="M356 769h124v-18l-129 -179h-62zM162 -17c-101 0 -146 66 -146 155c0 133 83 243 181 307c56 38 120 60 174 60c64 0 104 -27 104 -86c0 -107 -166 -181 -299 -204c-1 -10 -1 -19 -1 -29c0 -75 23 -101 67 -101c49 0 110 49 141 86l24 -21c-30 -55 -122 -167 -245 -167z
M320 450c-49 0 -115 -86 -137 -191c85 28 163 102 163 161c0 18 -9 30 -26 30z" />
    <glyph glyph-name="egrave" unicode="&#xe8;" horiz-adv-x="469" 
d="M162 -17c-101 0 -146 66 -146 155c0 133 83 243 181 307c56 38 120 60 174 60c64 0 104 -27 104 -86c0 -107 -166 -181 -299 -204c-1 -10 -1 -19 -1 -29c0 -75 23 -101 67 -101c49 0 110 49 141 86l24 -21c-30 -55 -122 -167 -245 -167zM320 450
c-49 0 -115 -86 -137 -191c85 28 163 102 163 161c0 18 -9 30 -26 30zM215 769h124l38 -197h-61l-101 179v18z" />
    <glyph glyph-name="ecircumflex" unicode="&#xea;" horiz-adv-x="469" 
d="M240 572h-63l132 197h93l57 -197h-58l-65 95zM162 -17c-101 0 -146 66 -146 155c0 133 83 243 181 307c56 38 120 60 174 60c64 0 104 -27 104 -86c0 -107 -166 -181 -299 -204c-1 -10 -1 -19 -1 -29c0 -75 23 -101 67 -101c49 0 110 49 141 86l24 -21
c-30 -55 -122 -167 -245 -167zM320 450c-49 0 -115 -86 -137 -191c85 28 163 102 163 161c0 18 -9 30 -26 30z" />
    <glyph glyph-name="edieresis" unicode="&#xeb;" horiz-adv-x="469" 
d="M156 660c0 41 33 75 74 75s74 -34 74 -75s-33 -73 -74 -73s-74 32 -74 73zM377 660c0 41 33 75 73 75c41 0 75 -34 75 -75s-34 -73 -75 -73c-40 0 -73 32 -73 73zM162 -17c-101 0 -146 66 -146 155c0 133 83 243 181 307c56 38 120 60 174 60c64 0 104 -27 104 -86
c0 -107 -166 -181 -299 -204c-1 -10 -1 -19 -1 -29c0 -75 23 -101 67 -101c49 0 110 49 141 86l24 -21c-30 -55 -122 -167 -245 -167zM320 450c-49 0 -115 -86 -137 -191c85 28 163 102 163 161c0 18 -9 30 -26 30z" />
    <glyph glyph-name="iacute" unicode="&#xed;" horiz-adv-x="319" 
d="M248 782h124v-18l-129 -179h-62zM187 92c35 16 64 41 91 78l24 -16c-33 -78 -132 -171 -212 -171c-45 0 -77 33 -55 121l74 297l-79 19l6 23s91 64 165 64c48 0 75 -34 54 -120l-71 -294z" />
    <glyph glyph-name="igrave" unicode="&#xec;" horiz-adv-x="319" 
d="M187 92c35 16 64 41 91 78l24 -16c-33 -78 -132 -171 -212 -171c-45 0 -77 33 -55 121l74 297l-79 19l6 23s91 64 165 64c48 0 75 -34 54 -120l-71 -294zM86 782h124l38 -197h-61l-101 179v18z" />
    <glyph glyph-name="icircumflex" unicode="&#xee;" horiz-adv-x="319" 
d="M139 585h-63l132 197h93l57 -197h-58l-65 95zM187 92c35 16 64 41 91 78l24 -16c-33 -78 -132 -171 -212 -171c-45 0 -77 33 -55 121l74 297l-79 19l6 23s91 64 165 64c48 0 75 -34 54 -120l-71 -294z" />
    <glyph glyph-name="idieresis" unicode="&#xef;" horiz-adv-x="319" 
d="M125 587c-41 0 -74 32 -74 73s33 75 74 75s74 -34 74 -75s-33 -73 -74 -73zM328 587c-41 0 -74 32 -74 73s33 75 74 75s75 -34 75 -75s-34 -73 -75 -73zM187 92c35 16 64 41 91 78l24 -16c-33 -78 -132 -171 -212 -171c-45 0 -77 33 -55 121l74 297l-79 19l6 23
s91 64 165 64c48 0 75 -34 54 -120l-71 -294z" />
    <glyph glyph-name="ntilde" unicode="&#xf1;" horiz-adv-x="614" 
d="M5 -1l105 403l-77 18l5 23s101 64 169 64c54 0 73 -42 44 -130l-38 -115h9c62 104 159 243 264 243c59 0 92 -24 66 -126l-73 -286l3 -1c36 16 64 41 91 78l24 -16c-33 -78 -132 -171 -212 -171c-45 0 -78 34 -55 121l69 258c6 24 5 36 -10 36c-48 0 -186 -235 -217 -346
l-13 -46l-128 -23zM359 601l-26 8c-79 24 -97 28 -127 -28l-36 19l6 13c61 118 108 124 192 98l26 -8c86 -26 101 -33 141 31l38 -20l-10 -17c-69 -123 -115 -126 -204 -96z" />
    <glyph glyph-name="oacute" unicode="&#xf3;" horiz-adv-x="566" 
d="M387 769h124v-18l-129 -179h-62zM188 117c0 -45 7 -89 41 -89c76 0 149 220 149 343c0 48 -10 89 -42 89c-76 0 -148 -222 -148 -343zM350 505c118 0 190 -84 190 -201c0 -156 -123 -321 -322 -321c-120 0 -192 84 -192 203c0 155 123 319 324 319z" />
    <glyph glyph-name="ograve" unicode="&#xf2;" horiz-adv-x="566" 
d="M188 117c0 -45 7 -89 41 -89c76 0 149 220 149 343c0 48 -10 89 -42 89c-76 0 -148 -222 -148 -343zM350 505c118 0 190 -84 190 -201c0 -156 -123 -321 -322 -321c-120 0 -192 84 -192 203c0 155 123 319 324 319zM225 769h124l38 -197h-61l-101 179v18z" />
    <glyph glyph-name="ocircumflex" unicode="&#xf4;" horiz-adv-x="566" 
d="M278 572h-63l132 197h93l57 -197h-58l-65 95zM188 117c0 -45 7 -89 41 -89c76 0 149 220 149 343c0 48 -10 89 -42 89c-76 0 -148 -222 -148 -343zM350 505c118 0 190 -84 190 -201c0 -156 -123 -321 -322 -321c-120 0 -192 84 -192 203c0 155 123 319 324 319z" />
    <glyph glyph-name="odieresis" unicode="&#xf6;" horiz-adv-x="566" 
d="M188 660c0 41 33 75 74 75s74 -34 74 -75s-33 -73 -74 -73s-74 32 -74 73zM409 660c0 41 33 75 73 75c41 0 75 -34 75 -75s-34 -73 -75 -73c-40 0 -73 32 -73 73zM188 117c0 -45 7 -89 41 -89c76 0 149 220 149 343c0 48 -10 89 -42 89c-76 0 -148 -222 -148 -343z
M350 505c118 0 190 -84 190 -201c0 -156 -123 -321 -322 -321c-120 0 -192 84 -192 203c0 155 123 319 324 319z" />
    <glyph glyph-name="otilde" unicode="&#xf5;" horiz-adv-x="566" 
d="M350 505c118 0 190 -84 190 -201c0 -156 -123 -321 -322 -321c-120 0 -192 84 -192 203c0 155 123 319 324 319zM188 117c0 -45 7 -89 41 -89c76 0 149 220 149 343c0 48 -10 89 -42 89c-76 0 -148 -222 -148 -343zM360 601l-26 8c-79 24 -97 28 -127 -28l-36 19l6 13
c61 118 108 124 192 98l26 -8c86 -26 101 -33 141 31l38 -20l-10 -17c-69 -123 -115 -126 -204 -96z" />
    <glyph glyph-name="uacute" unicode="&#xfa;" horiz-adv-x="603" 
d="M387 769h124v-18l-129 -179h-62zM109 403l-78 18l5 23s93 64 157 64c57 0 87 -32 58 -139l-65 -242c-6 -24 -5 -35 6 -35c33 0 194 240 219 365l6 26l125 24l26 -16l-99 -398l3 -1c35 16 64 41 91 78l24 -16c-33 -78 -132 -171 -212 -171c-50 0 -80 35 -50 127l45 138h-7
c-56 -81 -143 -264 -268 -264c-50 0 -83 38 -60 128z" />
    <glyph glyph-name="ugrave" unicode="&#xf9;" horiz-adv-x="603" 
d="M109 403l-78 18l5 23s93 64 157 64c57 0 87 -32 58 -139l-65 -242c-6 -24 -5 -35 6 -35c33 0 194 240 219 365l6 26l125 24l26 -16l-99 -398l3 -1c35 16 64 41 91 78l24 -16c-33 -78 -132 -171 -212 -171c-50 0 -80 35 -50 127l45 138h-7c-56 -81 -143 -264 -268 -264
c-50 0 -83 38 -60 128zM225 769h124l38 -197h-61l-101 179v18z" />
    <glyph glyph-name="ucircumflex" unicode="&#xfb;" horiz-adv-x="603" 
d="M279 572h-63l132 197h93l57 -197h-58l-65 95zM109 403l-78 18l5 23s93 64 157 64c57 0 87 -32 58 -139l-65 -242c-6 -24 -5 -35 6 -35c33 0 194 240 219 365l6 26l125 24l26 -16l-99 -398l3 -1c35 16 64 41 91 78l24 -16c-33 -78 -132 -171 -212 -171
c-50 0 -80 35 -50 127l45 138h-7c-56 -81 -143 -264 -268 -264c-50 0 -83 38 -60 128z" />
    <glyph glyph-name="udieresis" unicode="&#xfc;" horiz-adv-x="603" 
d="M189 660c0 41 33 75 74 75s74 -34 74 -75s-33 -73 -74 -73s-74 32 -74 73zM410 660c0 41 33 75 73 75c41 0 75 -34 75 -75s-34 -73 -75 -73c-40 0 -73 32 -73 73zM109 403l-78 18l5 23s93 64 157 64c57 0 87 -32 58 -139l-65 -242c-6 -24 -5 -35 6 -35
c33 0 194 240 219 365l6 26l125 24l26 -16l-99 -398l3 -1c35 16 64 41 91 78l24 -16c-33 -78 -132 -171 -212 -171c-50 0 -80 35 -50 127l45 138h-7c-56 -81 -143 -264 -268 -264c-50 0 -83 38 -60 128z" />
    <glyph glyph-name="dagger" unicode="&#x2020;" horiz-adv-x="328" 
d="M79 549l15 76l104 -4l19 115h85l-27 -115l107 4l-15 -76l-106 3l-45 -256h-86l55 256z" />
    <glyph glyph-name="degree" unicode="&#xb0;" horiz-adv-x="338" 
d="M89 603c0 84 68 147 151 147c82 0 146 -63 146 -147c0 -85 -66 -148 -148 -148c-83 0 -149 63 -149 148zM149 603c0 -53 39 -95 89 -95c51 0 90 42 90 95s-39 95 -90 95c-50 0 -89 -42 -89 -95z" />
    <glyph glyph-name="cent" unicode="&#xa2;" horiz-adv-x="462" 
d="M122 -125l35 108c-98 1 -141 70 -141 156c0 145 86 256 188 316c45 27 86 40 122 45l40 121h48l-39 -119c54 -4 96 -34 96 -69c0 -34 -44 -73 -63 -87c-24 33 -41 59 -59 76l-112 -345c49 2 105 51 159 117l26 -21c-27 -55 -103 -160 -214 -184l-37 -114h-49zM295 445
c-70 0 -129 -141 -129 -283c0 -39 10 -62 26 -74l116 356c-4 0 -9 1 -13 1z" />
    <glyph glyph-name="sterling" unicode="&#xa3;" horiz-adv-x="747" 
d="M155 244l14 67h123l18 75c44 191 206 266 297 266c74 0 134 -46 134 -109c0 -41 -30 -64 -97 -71c-13 69 -40 118 -75 118c-31 0 -56 -41 -80 -142l-33 -137h178l-13 -67h-181c-26 -94 -90 -159 -159 -201c45 -24 88 -51 124 -78l39 -29c57 -43 101 -71 133 -71
c42 0 48 79 50 139c61 0 96 -20 99 -59c6 -63 -100 -150 -214 -150c-86 0 -172 43 -255 131l-69 74c-42 -15 -80 -21 -104 -21c-53 0 -75 25 -75 61c0 37 43 65 92 65c32 0 74 -13 118 -32c21 35 38 84 52 145l6 26h-122z" />
    <glyph glyph-name="section" unicode="&#xa7;" horiz-adv-x="568" 
d="M238 -65c0 47 -17 87 -57 142l-61 84c-32 45 -56 101 -56 158c0 191 311 347 447 347c63 0 91 -28 91 -63c0 -33 -30 -67 -72 -72c0 0 -85 59 -93 59c-27 -4 -58 -9 -89 -19c-3 -17 -7 -41 -7 -66c0 -26 16 -80 56 -134l62 -83c33 -44 57 -94 57 -150
c0 -202 -312 -356 -446 -356c-64 0 -92 30 -92 69c0 37 34 66 64 68c0 0 92 -60 100 -60c27 3 58 10 90 20c3 15 6 35 6 56zM173 370c0 -46 18 -93 55 -142l57 -76c34 -45 48 -87 48 -128c0 -46 -23 -86 -48 -119h10c67 36 121 94 117 181c-2 46 -23 86 -60 134l-58 76
c-34 45 -49 88 -47 132c2 45 22 82 48 115h-12c-61 -34 -110 -89 -110 -173z" />
    <glyph glyph-name="bullet" unicode="&#x2022;" horiz-adv-x="333" 
d="M170 163c-60 0 -109 49 -109 108c0 60 49 108 109 108c59 0 108 -48 108 -108c0 -59 -49 -108 -108 -108z" />
    <glyph glyph-name="paragraph" unicode="&#xb6;" horiz-adv-x="611" 
d="M188 -208c-101 0 -168 66 -168 158c0 78 55 141 133 141c49 0 80 -36 80 -69c0 -36 -23 -67 -64 -70l-74 43l-7 -2c-5 -10 -8 -25 -7 -43c2 -63 40 -107 117 -107c80 0 137 58 159 168l118 596h-86l-82 -416h-41c-129 0 -212 104 -190 230c22 135 152 243 283 243h303
l-9 -51l-86 -16l-111 -559c-36 -181 -163 -246 -268 -246z" />
    <glyph glyph-name="germandbls" unicode="&#xdf;" horiz-adv-x="624" 
d="M628 623c0 -148 -205 -170 -205 -229c0 -18 6 -21 40 -54l39 -37c65 -61 77 -93 77 -126c0 -110 -122 -197 -230 -197c-43 0 -109 27 -109 88c0 23 13 49 35 77c55 -68 106 -92 152 -92c23 0 39 16 39 39s-17 39 -51 73l-39 38c-64 63 -72 80 -72 117
c0 112 196 147 196 272c0 39 -23 75 -74 75c-77 0 -140 -76 -184 -288l-57 -276c-58 -279 -237 -363 -311 -363c-55 0 -94 37 -94 79s36 72 84 82c20 -56 38 -95 67 -95c27 0 51 38 70 133l84 418c47 231 280 389 397 389c92 0 146 -48 146 -123z" />
    <glyph glyph-name="registered" unicode="&#xae;" horiz-adv-x="490" 
d="M90 534c0 126 103 222 229 222c125 0 226 -96 226 -222c0 -125 -104 -223 -230 -223c-125 0 -225 97 -225 223zM129 534c0 -106 82 -189 187 -189c108 0 190 82 190 189c0 106 -82 189 -190 189c-106 0 -187 -83 -187 -189zM175 425l4 23l32 7l35 174l-32 6l4 24h116
c73 0 105 -31 105 -64s-24 -54 -66 -66c44 -76 49 -80 70 -88l-2 -18c-76 -3 -84 -1 -131 92h-18l-11 -61l19 -6l-4 -23h-121zM314 632l-17 -90c17 1 33 4 44 10c15 8 23 22 23 37c0 24 -15 41 -50 43z" />
    <glyph glyph-name="copyright" unicode="&#xa9;" horiz-adv-x="802" 
d="M69 327c7 193 167 346 358 346s340 -153 333 -346c-6 -193 -167 -345 -358 -345s-339 152 -333 345zM110 327c-5 -171 127 -307 295 -307c167 0 309 136 314 307c6 171 -126 308 -293 308c-168 0 -309 -137 -316 -308zM408 132c-134 0 -199 73 -199 171
c0 129 120 219 251 219c46 0 94 -12 123 -24l-18 -112h-32l-21 77c-19 11 -35 17 -55 17c-73 0 -124 -79 -124 -166c0 -94 44 -138 94 -138c14 0 27 3 40 8l57 82h38l-30 -111c-37 -12 -88 -23 -124 -23z" />
    <glyph glyph-name="trademark" unicode="&#x2122;" horiz-adv-x="944" 
d="M409 322l7 37l40 6l51 252l-36 7l7 40h199l23 -181l102 181h182l-8 -40l-39 -7l-51 -252l37 -6l-6 -37h-185l7 37l45 6l50 245h-5l-135 -233l-20 -37h-63l-4 36l-36 234h-4l-50 -244l41 -7l-7 -37h-142zM116 664h327l-21 -123h-39l-4 75h-60l-50 -251l43 -6l-7 -37h-189
l6 37l48 6l51 251h-60l-35 -75h-38z" />
    <glyph glyph-name="acute" unicode="&#xb4;" horiz-adv-x="400" 
d="M253 769h124v-18l-129 -179h-62z" />
    <glyph glyph-name="dieresis" unicode="&#xa8;" horiz-adv-x="400" 
d="M84 660c0 41 33 75 74 75s74 -34 74 -75s-33 -73 -74 -73s-74 32 -74 73zM305 660c0 41 33 75 73 75c41 0 75 -34 75 -75s-34 -73 -75 -73c-40 0 -73 32 -73 73z" />
    <glyph glyph-name="notequal" unicode="&#x2260;" horiz-adv-x="558" 
d="M42 293v64h293l83 101h65l-83 -101h116v-64h-169l-75 -91h244v-63h-295l-84 -102h-62l83 102h-116v63h167l74 91h-241z" />
    <glyph glyph-name="AE" unicode="&#xc6;" horiz-adv-x="1021" 
d="M745 290h-104l-46 -225h224l105 145h48l-63 -210h-570l10 52l85 14l44 225h-199l-151 -213l96 -25l-12 -53h-261l11 49l68 21l397 521l-102 21l10 52h596l94 7l-54 -194h-47l-16 128h-206l-50 -256h104l47 85h48l-43 -222h-50zM541 605h-22l-197 -256h168z" />
    <glyph glyph-name="Oslash" unicode="&#xd8;" horiz-adv-x="770" 
d="M113 -50h-66l87 109c-55 54 -87 134 -87 229c0 196 164 396 411 396c55 0 105 -14 148 -38l62 77h65l-86 -107c62 -53 100 -136 100 -239c0 -185 -147 -397 -407 -397c-64 0 -120 17 -166 47zM569 454c0 21 -2 41 -5 59l-325 -405c18 -49 53 -72 103 -72
c137 0 227 257 227 418zM224 216c0 -16 0 -30 1 -44l322 400c-19 36 -49 56 -91 56c-118 0 -232 -202 -232 -412z" />
    <glyph glyph-name="plusminus" unicode="&#xb1;" horiz-adv-x="557" 
d="M516 351h-202v-204h-70v204h-202v66h202v204h70v-204h202v-66zM516 0h-474v66h474v-66z" />
    <glyph glyph-name="lessequal" unicode="&#x2264;" horiz-adv-x="558" 
d="M515 456l-377 -141l377 -139v-70l-472 180v59l472 180v-69zM515 0h-473v66h473v-66z" />
    <glyph glyph-name="greaterequal" unicode="&#x2265;" horiz-adv-x="558" 
d="M419 315l-377 140v70l472 -180v-59l-472 -180v69zM515 0h-473v66h473v-66z" />
    <glyph glyph-name="yen" unicode="&#xa5;" horiz-adv-x="679" 
d="M77 262l11 54h148l-104 258l-59 10l10 53h317l-9 -51l-86 -14l90 -225h2l175 220l-80 19l10 51h212l-10 -51l-62 -18l-203 -252h164l-11 -54h-182l-13 -69h182l-11 -54h-182l-14 -73l89 -14l-11 -52h-340l11 52l95 14l14 73h-177l11 54h176l14 69h-177z" />
    <glyph glyph-name="ordfeminine" unicode="&#xaa;" horiz-adv-x="484" 
d="M378 655h103l-86 -326h3c26 11 48 29 68 58l19 -13c-26 -63 -104 -133 -167 -133c-35 0 -66 26 -40 96l21 56h-6c-34 -56 -99 -157 -176 -157c-50 0 -78 34 -77 81c0 166 161 328 285 328c16 0 32 -5 46 -13zM180 330c38 0 113 94 141 188l19 61c-13 18 -26 26 -35 26
c-52 0 -141 -156 -141 -246c0 -19 5 -29 16 -29z" />
    <glyph glyph-name="ordmasculine" unicode="&#xba;" horiz-adv-x="463" 
d="M184 341c0 -36 7 -67 32 -67c58 0 112 179 112 276c0 36 -9 67 -32 67c-57 0 -112 -179 -112 -276zM308 654c93 0 151 -66 151 -164c0 -124 -97 -254 -253 -254c-94 0 -152 67 -152 166c0 123 97 252 254 252z" />
    <glyph glyph-name="ae" unicode="&#xe6;" horiz-adv-x="714" 
d="M406 -17c-59 0 -99 25 -119 72c-48 -38 -106 -72 -160 -72c-67 0 -122 37 -122 108s50 114 176 142l110 26l11 48c9 82 -14 133 -66 133c-19 0 -36 -9 -45 -17c-2 -7 -21 -107 -21 -107c-18 -4 -39 -7 -53 -7c-30 0 -47 16 -47 39c0 65 114 150 218 158
c69 0 114 -25 140 -80h4c47 55 120 79 176 79c64 0 111 -27 111 -86c0 -112 -151 -161 -302 -189c-2 -15 -3 -30 -3 -45c-1 -74 27 -100 72 -100c49 0 110 49 141 86l24 -21c-31 -57 -123 -167 -245 -167zM274 113c-2 30 1 64 8 103l-65 -19c-56 -17 -74 -39 -74 -73
c0 -39 27 -64 62 -64c36 0 55 25 69 53zM563 449c-47 0 -110 -81 -137 -177c110 37 165 87 165 141c0 27 -10 36 -28 36z" />
    <glyph glyph-name="oslash" unicode="&#xf8;" horiz-adv-x="566" 
d="M87 -50h-57l62 83c-39 35 -66 88 -66 153c0 155 123 319 324 319c29 0 58 -8 83 -21l46 61h57l-65 -86c42 -37 69 -92 69 -155c0 -156 -123 -321 -322 -321c-30 0 -61 9 -89 23zM227 28c74 0 149 182 159 318l-203 -268c7 -33 22 -50 44 -50zM335 460
c-70 0 -142 -176 -153 -309l200 265c-7 26 -23 44 -47 44z" />
    <glyph glyph-name="questiondown" unicode="&#xbf;" horiz-adv-x="444" 
d="M336 25l-13 -140l-53 8c-168 25 -238 118 -238 218c0 90 37 151 143 177l79 19l16 56h58l-14 -163l-133 -31c-74 -17 -92 -38 -92 -61c0 -37 35 -55 155 -71zM314 586c47 0 86 -40 86 -85c0 -48 -39 -87 -86 -87c-48 0 -87 39 -87 87c0 45 39 85 87 85z" />
    <glyph glyph-name="exclamdown" unicode="&#xa1;" horiz-adv-x="301" 
d="M174 -121h-177l154 485h58zM195 587c47 0 86 -39 86 -85c0 -47 -39 -87 -86 -87s-86 40 -86 87c0 46 39 85 86 85z" />
    <glyph glyph-name="florin" unicode="&#x192;" horiz-adv-x="542" 
d="M65 263l10 62h111c55 190 226 282 295 282c66 0 84 -35 84 -71c0 -43 -39 -83 -79 -97c-15 55 -33 95 -63 95c-40 0 -61 -53 -85 -209h143l-11 -62h-142l-18 -121c-49 -324 -240 -402 -314 -402c-55 0 -91 37 -91 79s36 72 84 82c20 -56 36 -95 65 -95c26 0 44 41 61 136
l58 321h-108z" />
    <glyph glyph-name="approxequal" unicode="&#x2248;" horiz-adv-x="558" 
d="M91 272l-47 23c29 62 64 99 123 99c23 0 50 -5 76 -11l66 -16c30 -7 62 -16 88 -16c34 0 51 22 71 59l47 -23c-29 -63 -64 -97 -124 -97c-30 0 -66 7 -98 15l-65 17c-23 6 -45 12 -66 12c-34 0 -52 -26 -71 -62zM90 112l-48 23c29 62 64 99 123 99c23 0 50 -5 76 -11
l66 -16c30 -7 62 -16 88 -16c34 0 51 22 71 59l48 -23c-29 -63 -64 -97 -124 -97c-30 0 -66 7 -98 15l-65 17c-23 6 -45 12 -66 12c-34 0 -52 -26 -71 -62z" />
    <glyph glyph-name="guillemotleft" unicode="&#xab;" horiz-adv-x="700" 
d="M364 486l30 -37l-200 -203l128 -202l-41 -29l-214 221l5 34zM639 486l30 -37l-200 -203l128 -202l-41 -29l-214 221l5 34z" />
    <glyph glyph-name="guillemotright" unicode="&#xbb;" horiz-adv-x="700" 
d="M56 13l-30 36l201 203l-128 202l40 29l215 -220l-5 -35zM332 13l-30 36l201 203l-128 202l40 29l215 -220l-5 -35z" />
    <glyph glyph-name="ellipsis" unicode="&#x2026;" horiz-adv-x="987" 
d="M134 -13c-47 0 -87 40 -87 87c0 48 40 87 87 87c48 0 88 -39 88 -87c0 -47 -40 -87 -88 -87zM463 -13c-47 0 -87 40 -87 87c0 48 40 87 87 87c48 0 88 -39 88 -87c0 -47 -40 -87 -88 -87zM792 -13c-47 0 -87 40 -87 87c0 48 40 87 87 87c48 0 88 -39 88 -87
c0 -47 -40 -87 -88 -87z" />
    <glyph glyph-name="Agrave" unicode="&#xc0;" horiz-adv-x="772" 
d="M-22 0l9 49l66 21l343 586l65 5l74 19l99 -616l68 -13l-10 -51h-322l11 53l83 13l-18 135h-240l-67 -123l92 -25l-10 -53h-243zM400 557l-153 -281h190l-36 281h-1zM334 875h136l48 -139h-79l-105 117v22z" />
    <glyph glyph-name="Atilde" unicode="&#xc3;" horiz-adv-x="772" 
d="M-22 0l9 49l66 21l343 586l65 5l74 19l99 -616l68 -13l-10 -51h-322l11 53l83 13l-18 135h-240l-67 -123l92 -25l-10 -53h-243zM482 757l-26 9c-84 29 -98 16 -130 -35l-35 19l5 13c43 119 105 124 188 95l26 -9c98 -34 106 -23 146 34l35 -18l-7 -16
c-50 -118 -104 -127 -202 -92zM400 557l-153 -281h190l-36 281h-1z" />
    <glyph glyph-name="Otilde" unicode="&#xd5;" horiz-adv-x="770" 
d="M458 684c167 0 289 -109 289 -307c0 -185 -147 -397 -407 -397c-176 0 -293 115 -293 308c0 196 164 396 411 396zM566 448c0 109 -33 180 -111 180c-116 0 -227 -199 -227 -407c0 -124 37 -185 114 -185c137 0 224 254 224 412zM492 757l-26 9c-84 29 -98 16 -130 -35
l-35 19l5 13c43 119 105 124 188 95l26 -9c98 -34 106 -23 146 34l35 -18l-7 -16c-50 -118 -104 -127 -202 -92z" />
    <glyph glyph-name="OE" unicode="&#x152;" horiz-adv-x="1043" 
d="M931 0h-261c-200 0 -224 -8 -327 -8c-200 -1 -296 133 -296 299c0 213 184 382 420 382c56 0 99 -9 365 -9h121l93 7l-54 -194h-47l-15 128h-206l-47 -237h104l47 84h48l-43 -221h-50l-13 78h-104l-49 -244h224l105 145h48zM489 197l77 393c-22 15 -57 31 -101 31
c-160 0 -241 -231 -241 -395c-1 -106 31 -181 118 -181c81 0 129 59 147 152z" />
    <glyph glyph-name="oe" unicode="&#x153;" horiz-adv-x="822" 
d="M513 -17c-57 0 -93 31 -113 78c-49 -47 -112 -78 -182 -78c-120 0 -192 84 -192 203c0 155 128 319 316 319c85 0 135 -50 156 -114c63 66 144 114 219 114c71 0 110 -27 110 -86c0 -112 -182 -185 -315 -206c-1 -9 -1 -18 -1 -27c0 -68 40 -101 83 -101
c50 0 110 49 141 86l24 -21c-30 -55 -122 -167 -246 -167zM335 460c-76 0 -148 -219 -148 -343c0 -45 9 -89 43 -89c76 0 149 216 149 343c0 42 -10 89 -44 89zM672 450c-56 0 -129 -87 -153 -195c86 24 180 103 180 165c0 18 -9 30 -27 30z" />
    <glyph glyph-name="endash" unicode="&#x2013;" horiz-adv-x="414" 
d="M16 258l15 68h380l-15 -68h-380z" />
    <glyph glyph-name="emdash" unicode="&#x2014;" horiz-adv-x="798" 
d="M18 258l14 68h760l-13 -68h-761z" />
    <glyph glyph-name="quotedblleft" unicode="&#x201c;" horiz-adv-x="517" 
d="M323 754c-68 -40 -90 -77 -90 -117c0 -37 20 -64 67 -88c-6 -54 -36 -92 -85 -92c-59 0 -94 55 -94 118c0 81 53 158 176 223c0 0 26 -43 26 -44zM568 754c-68 -40 -90 -77 -90 -117c0 -37 20 -64 67 -88c-6 -54 -36 -92 -85 -92c-59 0 -94 55 -94 118
c0 81 53 158 176 223c0 0 26 -43 26 -44z" />
    <glyph glyph-name="quotedblright" unicode="&#x201d;" horiz-adv-x="517" 
d="M92 499c68 40 90 78 90 117c0 37 -19 64 -67 88c6 54 36 93 85 93c59 0 95 -56 95 -118c0 -81 -54 -159 -177 -223c0 0 -25 42 -26 43zM337 499c68 40 90 78 90 117c0 37 -19 64 -67 88c6 54 36 93 85 93c59 0 95 -56 95 -118c0 -81 -54 -159 -177 -223
c0 0 -25 42 -26 43z" />
    <glyph glyph-name="quoteleft" unicode="&#x2018;" horiz-adv-x="271" 
d="M323 754c-68 -40 -90 -77 -90 -117c0 -37 20 -64 67 -88c-6 -54 -36 -92 -85 -92c-59 0 -94 55 -94 118c0 81 53 158 176 223c0 0 26 -43 26 -44z" />
    <glyph glyph-name="quoteright" unicode="&#x2019;" horiz-adv-x="271" 
d="M99 499c68 40 90 78 90 117c0 37 -19 64 -67 88c6 54 36 93 85 93c59 0 95 -56 95 -118c0 -81 -54 -159 -177 -223c0 0 -25 42 -26 43z" />
    <glyph glyph-name="divide" unicode="&#xf7;" horiz-adv-x="558" 
d="M518 205h-474v64h474v-64zM280 -7c-44 0 -81 37 -81 82c0 42 37 80 81 80s82 -38 82 -80c0 -45 -38 -82 -82 -82zM281 318c-44 0 -81 37 -81 82c0 42 37 80 81 80s82 -38 82 -80c0 -45 -38 -82 -82 -82z" />
    <glyph glyph-name="ydieresis" unicode="&#xff;" horiz-adv-x="527" 
d="M50 268h-37c-2 101 42 235 146 235c83 0 141 -73 146 -239c3 -105 -16 -194 -39 -265h5c84 115 125 198 146 304c-6 71 -24 120 -50 169c23 16 48 30 88 30c27 0 70 -19 70 -78c0 -233 -389 -697 -587 -697c-58 0 -106 30 -106 89c0 43 33 83 85 83c56 0 77 -47 90 -99h6
c129 58 151 285 149 396c-3 146 -26 198 -54 198s-51 -45 -58 -126zM142 660c0 41 33 75 74 75s74 -34 74 -75s-33 -73 -74 -73s-74 32 -74 73zM363 660c0 41 33 75 73 75c41 0 75 -34 75 -75s-34 -73 -75 -73c-40 0 -73 32 -73 73z" />
    <glyph glyph-name="Ydieresis" unicode="&#x178;" horiz-adv-x="681" 
d="M664 595l-229 -316l-41 -213l85 -14l-11 -52h-340l11 52l90 14l36 187l-113 348l-59 11l10 52h318l-10 -51l-85 -14l82 -269h2l184 264l-80 19l11 51h212l-11 -51zM340 724c-41 0 -75 34 -75 75s34 76 75 76c40 0 75 -35 75 -76s-35 -75 -75 -75zM585 724
c-41 0 -75 34 -75 75s34 76 75 76s75 -35 75 -76s-34 -75 -75 -75z" />
    <glyph glyph-name="fraction" unicode="&#x2044;" horiz-adv-x="210" 
d="M-142 -84l-46 36l600 774l46 -35z" />
    <glyph glyph-name="Euro" unicode="&#x20ac;" horiz-adv-x="641" 
d="M52 341l11 53h86c87 175 283 230 356 230c70 0 134 -41 134 -83c0 -25 -25 -63 -77 -92c-43 61 -94 106 -140 106c-56 0 -104 -71 -131 -161h203l-12 -53h-205c-4 -23 -8 -47 -10 -70h198l-11 -54h-188c5 -83 55 -132 123 -132c70 0 117 41 164 82l31 -35
c-78 -92 -155 -151 -268 -151c-140 0 -208 96 -208 224v12h-82l11 54h75c4 25 9 48 16 70h-76z" />
    <glyph glyph-name="guilsinglleft" unicode="&#x2039;" horiz-adv-x="425" 
d="M361 486l30 -37l-200 -203l128 -202l-41 -29l-214 221l5 34z" />
    <glyph glyph-name="guilsinglright" unicode="&#x203a;" horiz-adv-x="425" 
d="M58 13l-30 36l201 203l-128 202l40 29l215 -220l-5 -35z" />
    <glyph glyph-name="daggerdbl" unicode="&#x2021;" horiz-adv-x="328" 
d="M79 549l15 76l104 -4l19 115h85l-27 -115l107 4l-15 -76l-106 3l-18 -90l108 4l-15 -76l-105 3l-18 -114l-86 -1l27 115l-105 -3l15 76l105 -4l17 90z" />
    <glyph glyph-name="periodcentered" unicode="&#xb7;" horiz-adv-x="295" 
d="M151 185c-47 0 -86 40 -86 86c0 48 39 88 86 88c49 0 88 -40 88 -88c0 -46 -39 -86 -88 -86z" />
    <glyph glyph-name="quotesinglbase" unicode="&#x201a;" horiz-adv-x="305" 
d="M-2 -116c72 48 97 86 97 131c0 36 -19 64 -66 88c3 50 31 91 85 91c58 0 89 -55 89 -109c0 -91 -58 -173 -184 -236c0 0 -18 28 -21 35z" />
    <glyph glyph-name="quotedblbase" unicode="&#x201e;" horiz-adv-x="550" 
d="M-2 -116c72 48 97 86 97 131c0 36 -19 64 -66 88c3 50 31 91 85 91c58 0 89 -55 89 -109c0 -91 -58 -173 -184 -236c0 0 -18 28 -21 35zM243 -116c72 48 97 86 97 131c0 36 -19 64 -66 88c3 50 31 91 85 91c58 0 89 -55 89 -109c0 -91 -58 -173 -184 -236
c0 0 -18 28 -21 35z" />
    <glyph glyph-name="perthousand" unicode="&#x2030;" horiz-adv-x="1413" 
d="M264 563c-57 0 -99 -133 -99 -212c0 -28 6 -74 41 -74c47 0 97 109 97 209c0 42 -10 77 -39 77zM201 230c-99 0 -159 70 -159 158c0 110 89 221 225 221c99 0 159 -67 159 -158c0 -111 -89 -221 -225 -221zM764 314c-56 0 -98 -133 -98 -211c0 -28 5 -74 40 -74
c47 0 98 108 98 209c0 41 -10 76 -40 76zM702 -19c-100 0 -160 67 -160 159c0 110 90 221 225 221c99 0 159 -68 159 -159c0 -111 -89 -221 -224 -221zM1205 314c-57 0 -99 -133 -99 -211c0 -28 6 -74 40 -74c48 0 98 108 98 209c0 41 -10 76 -39 76zM1142 -19
c-99 0 -159 67 -159 159c0 110 89 221 224 221c99 0 159 -68 159 -159c0 -111 -89 -221 -224 -221zM194 -50l503 687h72l-503 -687h-72z" />
    <glyph glyph-name="Acircumflex" unicode="&#xc2;" horiz-adv-x="772" 
d="M-22 0l9 49l66 21l343 586l65 5l74 19l99 -616l68 -13l-10 -51h-322l11 53l83 13l-18 135h-240l-67 -123l92 -25l-10 -53h-243zM400 557l-153 -281h190l-36 281h-1zM393 736h-74l130 138h103l73 -138h-65l-72 62z" />
    <glyph glyph-name="Ecircumflex" unicode="&#xca;" horiz-adv-x="659" 
d="M316 736h-74l130 138h103l73 -138h-65l-72 62zM386 309h-104l-49 -244h224l105 145h48l-63 -210h-573l10 52l85 14l105 531l-76 15l10 52h461l94 7l-54 -194h-47l-16 128h-206l-46 -237h103l48 84h47l-42 -221h-51z" />
    <glyph glyph-name="Aacute" unicode="&#xc1;" horiz-adv-x="772" 
d="M-22 0l9 49l66 21l343 586l65 5l74 19l99 -616l68 -13l-10 -51h-322l11 53l83 13l-18 135h-240l-67 -123l92 -25l-10 -53h-243zM400 557l-153 -281h190l-36 281h-1zM513 875h136v-22l-142 -117h-78z" />
    <glyph glyph-name="Edieresis" unicode="&#xcb;" horiz-adv-x="659" 
d="M386 309h-104l-49 -244h224l105 145h48l-63 -210h-573l10 52l85 14l105 531l-76 15l10 52h461l94 7l-54 -194h-47l-16 128h-206l-46 -237h103l48 84h47l-42 -221h-51zM289 724c-41 0 -75 34 -75 75s34 76 75 76c40 0 75 -35 75 -76s-35 -75 -75 -75zM534 724
c-41 0 -75 34 -75 75s34 76 75 76s75 -35 75 -76s-34 -75 -75 -75z" />
    <glyph glyph-name="Egrave" unicode="&#xc8;" horiz-adv-x="659" 
d="M259 875h136l48 -139h-79l-105 117v22zM386 309h-104l-49 -244h224l105 145h48l-63 -210h-573l10 52l85 14l105 531l-76 15l10 52h461l94 7l-54 -194h-47l-16 128h-206l-46 -237h103l48 84h47l-42 -221h-51z" />
    <glyph glyph-name="Iacute" unicode="&#xcd;" horiz-adv-x="379" 
d="M-26 0l10 52l84 14l105 531l-75 15l10 52h321l-10 -52l-81 -15l-105 -531l79 -14l-10 -52h-328zM319 875h136v-22l-142 -117h-78z" />
    <glyph glyph-name="Icircumflex" unicode="&#xce;" horiz-adv-x="379" 
d="M-26 0l10 52l84 14l105 531l-75 15l10 52h321l-10 -52l-81 -15l-105 -531l79 -14l-10 -52h-328zM200 736h-74l130 138h103l73 -138h-65l-72 62z" />
    <glyph glyph-name="Idieresis" unicode="&#xcf;" horiz-adv-x="379" 
d="M-26 0l10 52l84 14l105 531l-75 15l10 52h321l-10 -52l-81 -15l-105 -531l79 -14l-10 -52h-328zM173 724c-41 0 -75 34 -75 75s34 76 75 76c40 0 75 -35 75 -76s-35 -75 -75 -75zM418 724c-41 0 -75 34 -75 75s34 76 75 76s75 -35 75 -76s-34 -75 -75 -75z" />
    <glyph glyph-name="Igrave" unicode="&#xcc;" horiz-adv-x="379" 
d="M-26 0l10 52l84 14l105 531l-75 15l10 52h321l-10 -52l-81 -15l-105 -531l79 -14l-10 -52h-328zM140 875h136l48 -139h-79l-105 117v22z" />
    <glyph glyph-name="Oacute" unicode="&#xd3;" horiz-adv-x="770" 
d="M523 875h136v-22l-142 -117h-78zM458 684c167 0 289 -109 289 -307c0 -185 -147 -397 -407 -397c-176 0 -293 115 -293 308c0 196 164 396 411 396zM566 448c0 109 -33 180 -111 180c-116 0 -227 -199 -227 -407c0 -124 37 -185 114 -185c137 0 224 254 224 412z" />
    <glyph glyph-name="Ocircumflex" unicode="&#xd4;" horiz-adv-x="770" 
d="M404 736h-74l130 138h103l73 -138h-65l-72 62zM458 684c167 0 289 -109 289 -307c0 -185 -147 -397 -407 -397c-176 0 -293 115 -293 308c0 196 164 396 411 396zM566 448c0 109 -33 180 -111 180c-116 0 -227 -199 -227 -407c0 -124 37 -185 114 -185
c137 0 224 254 224 412z" />
    <glyph glyph-name="Ograve" unicode="&#xd2;" horiz-adv-x="770" 
d="M345 875h136l48 -139h-79l-105 117v22zM458 684c167 0 289 -109 289 -307c0 -185 -147 -397 -407 -397c-176 0 -293 115 -293 308c0 196 164 396 411 396zM566 448c0 109 -33 180 -111 180c-116 0 -227 -199 -227 -407c0 -124 37 -185 114 -185c137 0 224 254 224 412z
" />
    <glyph glyph-name="Uacute" unicode="&#xda;" horiz-adv-x="754" 
d="M515 875h136v-22l-142 -117h-78zM344 -21c-189 0 -278 94 -238 299l63 319l-75 15l10 52h318l-9 -52l-77 -15l-68 -342c-24 -120 18 -191 122 -191c94 0 170 58 198 212l58 314l-119 25l9 49h272l-10 -52l-81 -21l-58 -295c-38 -192 -128 -317 -315 -317z" />
    <glyph glyph-name="Ucircumflex" unicode="&#xdb;" horiz-adv-x="754" 
d="M396 736h-74l130 138h103l73 -138h-65l-72 62zM344 -21c-189 0 -278 94 -238 299l63 319l-75 15l10 52h318l-9 -52l-77 -15l-68 -342c-24 -120 18 -191 122 -191c94 0 170 58 198 212l58 314l-119 25l9 49h272l-10 -52l-81 -21l-58 -295c-38 -192 -128 -317 -315 -317z
" />
    <glyph glyph-name="Ugrave" unicode="&#xd9;" horiz-adv-x="754" 
d="M337 875h136l48 -139h-79l-105 117v22zM344 -21c-189 0 -278 94 -238 299l63 319l-75 15l10 52h318l-9 -52l-77 -15l-68 -342c-24 -120 18 -191 122 -191c94 0 170 58 198 212l58 314l-119 25l9 49h272l-10 -52l-81 -21l-58 -295c-38 -192 -128 -317 -315 -317z" />
    <glyph glyph-name="dotlessi" unicode="&#x131;" horiz-adv-x="319" 
d="M187 92c35 16 64 41 91 78l24 -16c-33 -78 -132 -171 -212 -171c-45 0 -77 33 -55 121l74 297l-79 19l6 23s91 64 165 64c48 0 75 -34 54 -120l-71 -294z" />
    <glyph glyph-name="circumflex" unicode="&#x2c6;" horiz-adv-x="400" 
d="M168 572h-63l132 197h93l57 -197h-58l-65 95z" />
    <glyph glyph-name="tilde" unicode="&#x2dc;" horiz-adv-x="400" 
d="M249 601l-26 8c-79 24 -97 28 -127 -28l-36 19l6 13c61 118 108 124 192 98l26 -8c86 -26 101 -33 141 31l38 -20l-10 -17c-69 -123 -115 -126 -204 -96z" />
    <glyph glyph-name="macron" unicode="&#xaf;" horiz-adv-x="400" 
d="M114 614l17 80h289l-17 -80h-289z" />
    <glyph glyph-name="breve" unicode="&#x2d8;" horiz-adv-x="400" 
d="M251 566c-89 0 -122 75 -115 163h55c8 -45 29 -73 73 -73s70 35 90 73h54c-22 -86 -68 -163 -157 -163z" />
    <glyph glyph-name="dotaccent" unicode="&#x2d9;" horiz-adv-x="400" 
d="M172 660c0 47 38 86 85 86s85 -39 85 -86c0 -46 -38 -85 -85 -85s-85 39 -85 85z" />
    <glyph glyph-name="ring" unicode="&#x2da;" horiz-adv-x="400" 
d="M144 674c0 65 52 114 117 114c66 0 117 -48 117 -114c0 -65 -52 -114 -117 -114c-66 0 -117 48 -117 114zM200 674c0 -38 27 -64 61 -64s61 26 61 64s-27 64 -61 64s-61 -26 -61 -64z" />
    <glyph glyph-name="cedilla" unicode="&#xb8;" horiz-adv-x="400" 
d="M40 -268l-7 39c42 13 98 37 98 84c0 27 -18 43 -30 52l76 97h50l-37 -57c34 -10 60 -34 60 -71c0 -84 -97 -125 -210 -144z" />
    <glyph glyph-name="hungarumlaut" unicode="&#x2dd;" horiz-adv-x="400" 
d="M183 769h108v-18l-120 -179h-53zM349 769h108v-18l-120 -179h-53z" />
    <glyph glyph-name="ogonek" unicode="&#x2db;" horiz-adv-x="486" 
d="M336 47h44c-111 -97 -141 -125 -141 -164c0 -34 27 -50 53 -50c36 0 60 15 95 47l22 -24c-39 -55 -79 -115 -158 -115c-73 0 -116 42 -116 98c0 79 63 115 201 208z" />
    <glyph glyph-name="caron" unicode="&#x2c7;" horiz-adv-x="400" 
d="M359 769h63l-132 -197h-93l-57 197h58l65 -96z" />
    <glyph glyph-name="space_uni0326" horiz-adv-x="400" 
d="M35 -276l-13 35c83 29 105 53 105 83c0 24 -19 39 -49 45c13 45 42 67 87 67c47 0 83 -30 83 -75c0 -68 -89 -123 -213 -155z" />
    <glyph glyph-name="caron.alt" horiz-adv-x="400" 
d="M150 535h-40l58 211h112v-28z" />
    <glyph glyph-name="space_uni0326.alt" horiz-adv-x="400" 
d="M318 811l13 -35c-84 -29 -106 -53 -106 -83c0 -25 20 -39 50 -45c-13 -45 -43 -67 -88 -67c-47 0 -83 30 -83 75c0 68 89 123 214 155z" />
    <glyph glyph-name="grave.uc" horiz-adv-x="400" 
d="M166 875h136l48 -139h-79l-105 117v22z" />
    <glyph glyph-name="dieresis.uc" horiz-adv-x="400" 
d="M149 724c-41 0 -75 34 -75 75s34 76 75 76c40 0 75 -35 75 -76s-35 -75 -75 -75zM394 724c-41 0 -75 34 -75 75s34 76 75 76s75 -35 75 -76s-34 -75 -75 -75z" />
    <glyph glyph-name="macron.uc" horiz-adv-x="400" 
d="M144 763l16 77h289l-16 -77h-289z" />
    <glyph glyph-name="acute.uc" horiz-adv-x="400" 
d="M326 875h136v-22l-142 -117h-78z" />
    <glyph glyph-name="circumflex.uc" horiz-adv-x="400" 
d="M203 736h-74l130 138h103l73 -138h-65l-72 62z" />
    <glyph glyph-name="caron.uc" horiz-adv-x="400" 
d="M391 874h74l-130 -138h-102l-74 138h66l71 -62z" />
    <glyph glyph-name="breve.uc" horiz-adv-x="400" 
d="M289 725c-105 0 -134 79 -128 151h52c9 -36 32 -64 88 -64c57 0 88 31 106 64h50c-19 -77 -71 -151 -168 -151z" />
    <glyph glyph-name="dotaccent.uc" horiz-adv-x="400" 
d="M217 826c0 48 39 87 87 87s87 -39 87 -87c0 -47 -39 -86 -87 -86s-87 39 -87 86z" />
    <glyph glyph-name="ring.uc" horiz-adv-x="400" 
d="M182 826c0 66 54 117 120 117c68 0 121 -50 121 -117s-54 -118 -121 -118s-120 50 -120 118zM239 826c0 -39 28 -66 63 -66s64 27 64 66c0 38 -29 65 -64 65s-63 -27 -63 -65z" />
    <glyph glyph-name="tilde.uc" horiz-adv-x="400" 
d="M301 757l-26 9c-84 29 -98 16 -130 -35l-35 19l5 13c43 119 105 124 188 95l26 -9c98 -34 106 -23 146 34l35 -18l-7 -16c-50 -118 -104 -127 -202 -92z" />
    <glyph glyph-name="hungarumlaut.uc" horiz-adv-x="400" 
d="M395 875h116v-19l-124 -120h-70zM239 875h115v-19l-123 -120h-70z" />
    <glyph glyph-name="Dcroat" unicode="&#x110;" horiz-adv-x="776" 
d="M-25 0l10 52l85 14l47 240h-92l12 59h91l46 232l-76 15l11 52l263 3c260 -2 382 -129 382 -285c0 -263 -243 -389 -484 -386zM418 306h-140l-37 -193c-10 -48 20 -64 69 -64c156 1 261 150 261 338c1 145 -88 234 -232 230l-49 -252h140z" />
    <glyph glyph-name="Eng" unicode="&#x14a;" horiz-adv-x="780" 
d="M739 590l-88 -443l-9 -47c-38 -188 -157 -317 -322 -320l-4 49c104 25 149 95 175 186l-255 508l-85 -446l122 -28l-9 -49h-285l10 52l85 19l102 511l-79 31l10 51h244l239 -486l74 406l-115 31l8 49h275l-10 -52z" />
    <glyph glyph-name="IJ" unicode="&#x132;" horiz-adv-x="749" 
d="M-26 0l10 52l84 14l105 531l-75 15l10 52h321l-10 -52l-81 -15l-105 -531l79 -14l-10 -52h-328zM711 597l-97 -497c-38 -188 -156 -317 -321 -320l-4 49c107 30 133 130 156 249l102 519l-78 15l10 52h325l-10 -52z" />
    <glyph glyph-name="uni0237" unicode="&#x237;" horiz-adv-x="318" 
d="M39 17l95 384l-78 19l5 23s92 64 164 64c49 0 78 -34 56 -121l-72 -290c-51 -206 -180 -356 -305 -356c-57 0 -110 32 -110 87c0 37 41 66 90 79c8 -60 32 -100 62 -100c37 0 66 100 93 211z" />
    <glyph glyph-name="dcroat" unicode="&#x111;" horiz-adv-x="624" 
d="M256 554l11 47h180l11 46l-74 19l6 26l243 54l-37 -145h76l-11 -47h-76l-116 -461l3 -1c35 16 64 41 91 78l24 -16c-33 -78 -133 -167 -214 -167c-52 0 -78 43 -51 120l26 73h-7c-55 -90 -135 -198 -224 -198c-57 0 -102 40 -102 135c0 153 147 385 325 385
c30 0 57 -10 78 -22l18 74h-180zM394 375l7 32c-17 27 -39 49 -63 49c-75 0 -156 -202 -156 -307c0 -35 8 -50 25 -50c50 0 161 167 187 276z" />
    <glyph glyph-name="eng" unicode="&#x14b;" horiz-adv-x="582" 
d="M306 4l93 358c6 24 5 36 -10 36c-48 0 -187 -238 -217 -345l-13 -47l-128 -23l-26 16l105 403l-77 18l5 23s101 64 169 64c54 0 73 -42 44 -130l-38 -115h9c62 104 159 243 264 243c59 0 92 -24 66 -126l-74 -294c-50 -198 -180 -345 -305 -345c-57 0 -110 32 -110 87
c0 37 41 66 90 79c8 -60 32 -100 62 -100c37 0 65 100 91 198z" />
    <glyph glyph-name="ij" unicode="&#x133;" horiz-adv-x="618" 
d="M109 401l-79 19l6 23s91 64 165 64c53 0 75 -34 54 -120l-71 -294l3 -1c35 16 64 41 91 78l24 -16c-33 -78 -132 -171 -212 -171c-45 0 -77 33 -55 121zM155 666c0 47 38 86 85 86s85 -39 85 -86c0 -46 -38 -85 -85 -85s-85 39 -85 85zM339 17l95 384l-78 19l5 23
s92 64 164 64c52 0 78 -34 56 -121l-72 -290c-51 -206 -180 -356 -305 -356c-57 0 -110 32 -110 87c0 37 41 66 90 79c8 -60 32 -100 62 -100c37 0 66 100 93 211zM480 666c0 47 39 86 86 86c46 0 85 -39 85 -86c0 -46 -39 -85 -85 -85c-47 0 -86 39 -86 85z" />
    <glyph glyph-name="Abreve" unicode="&#x102;" horiz-adv-x="772" 
d="M-22 0l9 49l66 21l343 586l65 5l74 19l99 -616l68 -13l-10 -51h-322l11 53l83 13l-18 135h-240l-67 -123l92 -25l-10 -53h-243zM400 557l-153 -281h190l-36 281h-1zM476 725c-105 0 -134 79 -128 151h52c9 -36 32 -64 88 -64c57 0 88 31 106 64h50
c-19 -77 -71 -151 -168 -151z" />
    <glyph glyph-name="Amacron" unicode="&#x100;" horiz-adv-x="772" 
d="M-22 0l9 49l66 21l343 586l65 5l74 19l99 -616l68 -13l-10 -51h-322l11 53l83 13l-18 135h-240l-67 -123l92 -25l-10 -53h-243zM400 557l-153 -281h190l-36 281h-1zM336 763l16 77h289l-16 -77h-289z" />
    <glyph glyph-name="Aogonek" unicode="&#x104;" horiz-adv-x="772" 
d="M-22 0l9 49l66 21l343 586l65 5l74 19l99 -616l68 -13l-10 -51h-182c-82 -43 -104 -83 -104 -119c0 -34 27 -52 54 -52c32 0 55 14 90 46l23 -22c-36 -54 -77 -121 -162 -121c-67 0 -111 42 -111 99c0 64 51 105 168 210l-21 160h-241l-67 -123l92 -25l-10 -53h-243z
M400 557l-153 -281h190l-36 281h-1z" />
    <glyph glyph-name="Aringacute" unicode="&#x1fa;" horiz-adv-x="772" 
d="M-22 0l9 49l66 21l343 586l65 5l74 19l99 -616l68 -13l-10 -51h-322l11 53l83 13l-18 135h-240l-67 -123l92 -25l-10 -53h-243zM400 557l-153 -281h190l-36 281h-1zM547 1103h136v-22l-142 -117h-78zM368 820c0 66 54 117 120 117c68 0 121 -50 121 -117
s-54 -118 -121 -118s-120 50 -120 118zM425 820c0 -39 28 -66 63 -66s64 27 64 66c0 38 -29 65 -64 65s-63 -27 -63 -65z" />
    <glyph glyph-name="AEacute" unicode="&#x1fc;" horiz-adv-x="1021" 
d="M693 875h136v-22l-142 -117h-78zM745 290h-104l-46 -225h224l105 145h48l-63 -210h-570l10 52l85 14l44 225h-199l-151 -213l96 -25l-12 -53h-261l11 49l68 21l397 521l-102 21l10 52h596l94 7l-54 -194h-47l-16 128h-206l-50 -256h104l47 85h48l-43 -222h-50zM541 605
h-22l-197 -256h168z" />
    <glyph glyph-name="Cacute" unicode="&#x106;" horiz-adv-x="731" 
d="M380 -18c-189 0 -333 98 -333 309c0 209 207 393 463 393c80 0 144 -25 191 -54l-20 -182h-48l-38 141c-27 20 -62 33 -100 33c-138 0 -256 -135 -256 -346c0 -152 77 -230 179 -230c38 0 76 12 102 25l102 156h50l-58 -188c-70 -34 -161 -57 -234 -57zM535 875h136v-22
l-142 -117h-78z" />
    <glyph glyph-name="Ccaron" unicode="&#x10c;" horiz-adv-x="731" 
d="M592 874h74l-130 -138h-102l-74 138h66l71 -62zM380 -18c-189 0 -333 98 -333 309c0 209 207 393 463 393c80 0 144 -25 191 -54l-20 -182h-48l-38 141c-27 20 -62 33 -100 33c-138 0 -256 -135 -256 -346c0 -152 77 -230 179 -230c38 0 76 12 102 25l102 156h50
l-58 -188c-70 -34 -161 -57 -234 -57z" />
    <glyph glyph-name="Ccircumflex" unicode="&#x108;" horiz-adv-x="731" 
d="M414 736h-74l130 138h103l73 -138h-65l-72 62zM380 -18c-189 0 -333 98 -333 309c0 209 207 393 463 393c80 0 144 -25 191 -54l-20 -182h-48l-38 141c-27 20 -62 33 -100 33c-138 0 -256 -135 -256 -346c0 -152 77 -230 179 -230c38 0 76 12 102 25l102 156h50l-58 -188
c-70 -34 -161 -57 -234 -57z" />
    <glyph glyph-name="Cdotaccent" unicode="&#x10a;" horiz-adv-x="731" 
d="M380 -18c-189 0 -333 98 -333 309c0 209 207 393 463 393c80 0 144 -25 191 -54l-20 -182h-48l-38 141c-27 20 -62 33 -100 33c-138 0 -256 -135 -256 -346c0 -152 77 -230 179 -230c38 0 76 12 102 25l102 156h50l-58 -188c-70 -34 -161 -57 -234 -57zM413 826
c0 48 39 87 87 87s87 -39 87 -87c0 -47 -39 -86 -87 -86s-87 39 -87 86z" />
    <glyph glyph-name="Dcaron" unicode="&#x10e;" horiz-adv-x="776" 
d="M524 874h74l-130 -138h-102l-74 138h66l71 -62zM339 617l-98 -504c-10 -48 20 -64 69 -64c156 1 261 150 261 338c1 145 -88 234 -232 230zM-25 0l10 52l85 14l104 531l-76 15l11 52l263 3c260 -2 382 -129 382 -285c0 -263 -243 -389 -484 -386z" />
    <glyph glyph-name="Ebreve" unicode="&#x114;" horiz-adv-x="659" 
d="M386 309h-104l-49 -244h224l105 145h48l-63 -210h-573l10 52l85 14l105 531l-76 15l10 52h461l94 7l-54 -194h-47l-16 128h-206l-46 -237h103l48 84h47l-42 -221h-51zM406 725c-105 0 -134 79 -128 151h52c9 -36 32 -64 88 -64c57 0 88 31 106 64h50
c-19 -77 -71 -151 -168 -151z" />
    <glyph glyph-name="Ecaron" unicode="&#x11a;" horiz-adv-x="659" 
d="M494 874h74l-130 -138h-102l-74 138h66l71 -62zM386 309h-104l-49 -244h224l105 145h48l-63 -210h-573l10 52l85 14l105 531l-76 15l10 52h461l94 7l-54 -194h-47l-16 128h-206l-46 -237h103l48 84h47l-42 -221h-51z" />
    <glyph glyph-name="Edotaccent" unicode="&#x116;" horiz-adv-x="659" 
d="M332 826c0 48 39 87 87 87s87 -39 87 -87c0 -47 -39 -86 -87 -86s-87 39 -87 86zM386 309h-104l-49 -244h224l105 145h48l-63 -210h-573l10 52l85 14l105 531l-76 15l10 52h461l94 7l-54 -194h-47l-16 128h-206l-46 -237h103l48 84h47l-42 -221h-51z" />
    <glyph glyph-name="Emacron" unicode="&#x112;" horiz-adv-x="659" 
d="M386 309h-104l-49 -244h224l105 145h48l-63 -210h-573l10 52l85 14l105 531l-76 15l10 52h461l94 7l-54 -194h-47l-16 128h-206l-46 -237h103l48 84h47l-42 -221h-51zM260 763l16 77h289l-16 -77h-289z" />
    <glyph glyph-name="Eogonek" unicode="&#x118;" horiz-adv-x="659" 
d="M386 309h-104l-49 -244h224l105 145h48l-63 -210h-111c-75 -67 -97 -92 -97 -126s27 -50 53 -50c36 0 60 15 95 47l22 -24c-39 -55 -79 -115 -158 -115c-73 0 -116 42 -116 98c0 68 46 104 144 170h-405l10 52l85 14l105 531l-76 15l10 52h461l94 7l-54 -194h-47l-16 128
h-206l-46 -237h103l48 84h47l-42 -221h-51z" />
    <glyph glyph-name="Gbreve" unicode="&#x11e;" horiz-adv-x="758" 
d="M499 725c-105 0 -134 79 -128 151h52c9 -36 32 -64 88 -64c57 0 88 31 106 64h50c-19 -77 -71 -151 -168 -151zM390 45c58 0 95 21 107 93l19 107l-80 13l10 50h274l-11 -51l-48 -14l-42 -196c-88 -33 -168 -65 -244 -65c-194 0 -328 100 -328 303c0 213 210 399 472 399
c92 0 151 -29 193 -49l-39 -186h-48l-30 143c-24 18 -56 30 -104 30c-127 0 -257 -129 -257 -352c1 -145 73 -225 156 -225z" />
    <glyph glyph-name="Gcircumflex" unicode="&#x11c;" horiz-adv-x="758" 
d="M416 736h-74l130 138h103l73 -138h-65l-72 62zM390 45c58 0 95 21 107 93l19 107l-80 13l10 50h274l-11 -51l-48 -14l-42 -196c-88 -33 -168 -65 -244 -65c-194 0 -328 100 -328 303c0 213 210 399 472 399c92 0 151 -29 193 -49l-39 -186h-48l-30 143
c-24 18 -56 30 -104 30c-127 0 -257 -129 -257 -352c1 -145 73 -225 156 -225z" />
    <glyph glyph-name="Gcommaaccent" unicode="&#x122;" horiz-adv-x="758" 
d="M212 -285l-13 35c83 29 105 53 105 83c0 24 -19 39 -49 45c13 45 42 67 87 67c47 0 83 -30 83 -75c0 -68 -89 -123 -213 -155zM390 45c58 0 95 21 107 93l19 107l-80 13l10 50h274l-11 -51l-48 -14l-42 -196c-88 -33 -168 -65 -244 -65c-194 0 -328 100 -328 303
c0 213 210 399 472 399c92 0 151 -29 193 -49l-39 -186h-48l-30 143c-24 18 -56 30 -104 30c-127 0 -257 -129 -257 -352c1 -145 73 -225 156 -225z" />
    <glyph glyph-name="Gdotaccent" unicode="&#x120;" horiz-adv-x="758" 
d="M415 826c0 48 39 87 87 87s87 -39 87 -87c0 -47 -39 -86 -87 -86s-87 39 -87 86zM390 45c58 0 95 21 107 93l19 107l-80 13l10 50h274l-11 -51l-48 -14l-42 -196c-88 -33 -168 -65 -244 -65c-194 0 -328 100 -328 303c0 213 210 399 472 399c92 0 151 -29 193 -49
l-39 -186h-48l-30 143c-24 18 -56 30 -104 30c-127 0 -257 -129 -257 -352c1 -145 73 -225 156 -225z" />
    <glyph glyph-name="Hbar" unicode="&#x126;" horiz-adv-x="807" 
d="M49 459l12 60h96l16 78l-75 15l10 52h317l-9 -52l-78 -15l-16 -78h263l16 78l-71 15l10 52h318l-10 -52l-82 -15l-16 -78h98l-13 -60h-96l-77 -393l79 -14l-10 -52h-327l9 52l84 14l46 236h-264l-46 -236l77 -14l-10 -52h-326l9 52l85 14l77 393h-96zM292 368h264l18 91
h-264z" />
    <glyph glyph-name="Hcircumflex" unicode="&#x124;" horiz-adv-x="807" 
d="M404 0l9 52l84 14l46 236h-264l-46 -236l77 -14l-10 -52h-326l9 52l85 14l105 531l-75 15l10 52h317l-9 -52l-78 -15l-46 -229h264l45 229l-71 15l10 52h318l-10 -52l-82 -15l-104 -531l79 -14l-10 -52h-327zM414 736h-74l130 138h103l73 -138h-65l-72 62z" />
    <glyph glyph-name="Idotaccent" unicode="&#x130;" horiz-adv-x="379" 
d="M-26 0l10 52l84 14l105 531l-75 15l10 52h321l-10 -52l-81 -15l-105 -531l79 -14l-10 -52h-328zM212 826c0 48 39 87 87 87s87 -39 87 -87c0 -47 -39 -86 -87 -86s-87 39 -87 86z" />
    <glyph glyph-name="Ibreve" unicode="&#x12c;" horiz-adv-x="379" 
d="M-26 0l10 52l84 14l105 531l-75 15l10 52h321l-10 -52l-81 -15l-105 -531l79 -14l-10 -52h-328zM282 725c-105 0 -134 79 -128 151h52c9 -36 32 -64 88 -64c57 0 88 31 106 64h50c-19 -77 -71 -151 -168 -151z" />
    <glyph glyph-name="Imacron" unicode="&#x12a;" horiz-adv-x="379" 
d="M-26 0l10 52l84 14l105 531l-75 15l10 52h321l-10 -52l-81 -15l-105 -531l79 -14l-10 -52h-328zM144 763l16 77h289l-16 -77h-289z" />
    <glyph glyph-name="Iogonek" unicode="&#x12e;" horiz-adv-x="379" 
d="M-26 0l10 52l84 14l105 531l-75 15l10 52h321l-10 -52l-81 -15l-105 -531l79 -14l-10 -52h-129c-62 -59 -93 -90 -93 -128c0 -31 27 -48 53 -48c36 0 60 15 95 47l22 -24c-38 -54 -79 -115 -157 -115c-74 0 -117 43 -117 99c0 73 64 115 132 169h-134z" />
    <glyph glyph-name="Itilde" unicode="&#x128;" horiz-adv-x="379" 
d="M-26 0l10 52l84 14l105 531l-75 15l10 52h321l-10 -52l-81 -15l-105 -531l79 -14l-10 -52h-328zM288 757l-26 9c-84 29 -98 16 -130 -35l-35 19l5 13c43 119 105 124 188 95l26 -9c98 -34 106 -23 146 34l35 -18l-7 -16c-50 -118 -104 -127 -202 -92z" />
    <glyph glyph-name="Jcircumflex" unicode="&#x134;" horiz-adv-x="381" 
d="M205 736h-74l130 138h103l73 -138h-65l-72 62zM343 597l-97 -497c-38 -188 -156 -317 -321 -320l-4 49c107 30 133 130 156 249l102 519l-78 15l10 52h325l-10 -52z" />
    <glyph glyph-name="Kcommaaccent" unicode="&#x136;" horiz-adv-x="744" 
d="M209 -285l-13 35c83 29 105 53 105 83c0 24 -19 39 -49 45c13 45 42 67 87 67c47 0 83 -30 83 -75c0 -68 -89 -123 -213 -155zM-26 0l10 52l84 14l105 531l-75 15l10 52h319l-10 -52l-80 -15l-104 -531l64 -14l-11 -52h-312zM694 25l-10 -44c-202 0 -224 12 -385 367
l2 13l78 24l225 208l-70 20l11 51h235l-10 -49l-84 -23l-224 -201c152 -320 160 -339 232 -366z" />
    <glyph glyph-name="Lacute" unicode="&#x139;" horiz-adv-x="607" 
d="M321 875h136v-22l-142 -117h-78zM233 65h183l103 170h48l-56 -235h-537l9 52l85 14l104 531l-74 15l9 52h327l-10 -52l-86 -15z" />
    <glyph glyph-name="Lcaron" unicode="&#x13d;" horiz-adv-x="607" 
d="M511 474h-40l58 211h112v-28zM233 65h183l103 170h48l-56 -235h-537l9 52l85 14l104 531l-74 15l9 52h327l-10 -52l-86 -15z" />
    <glyph glyph-name="Lcommaaccent" unicode="&#x13b;" horiz-adv-x="607" 
d="M115 -285l-13 35c83 29 105 53 105 83c0 24 -19 39 -49 45c13 45 42 67 87 67c47 0 83 -30 83 -75c0 -68 -89 -123 -213 -155zM233 65h183l103 170h48l-56 -235h-537l9 52l85 14l104 531l-74 15l9 52h327l-10 -52l-86 -15z" />
    <glyph glyph-name="Ldot" unicode="&#x13f;" horiz-adv-x="607" 
d="M526 306c-44 0 -82 37 -82 81c0 45 38 83 82 83c45 0 83 -38 83 -83c0 -44 -38 -81 -83 -81zM233 65h183l103 170h48l-56 -235h-537l9 52l85 14l104 531l-74 15l9 52h327l-10 -52l-86 -15z" />
    <glyph glyph-name="Nacute" unicode="&#x143;" horiz-adv-x="780" 
d="M532 875h136v-22l-142 -117h-78zM626 -13h-121l-269 536l-85 -446l122 -28l-9 -49h-285l10 52l85 19l102 511l-79 31l10 51h244l239 -486l74 406l-115 31l8 49h275l-10 -52l-83 -22l-97 -491z" />
    <glyph glyph-name="Ncaron" unicode="&#x147;" horiz-adv-x="780" 
d="M592 874h74l-130 -138h-102l-74 138h66l71 -62zM626 -13h-121l-269 536l-85 -446l122 -28l-9 -49h-285l10 52l85 19l102 511l-79 31l10 51h244l239 -486l74 406l-115 31l8 49h275l-10 -52l-83 -22l-97 -491z" />
    <glyph glyph-name="Ncommaaccent" unicode="&#x145;" horiz-adv-x="780" 
d="M217 -285l-13 35c83 29 105 53 105 83c0 24 -19 39 -49 45c13 45 42 67 87 67c47 0 83 -30 83 -75c0 -68 -89 -123 -213 -155zM626 -13h-121l-269 536l-85 -446l122 -28l-9 -49h-285l10 52l85 19l102 511l-79 31l10 51h244l239 -486l74 406l-115 31l8 49h275l-10 -52
l-83 -22l-97 -491z" />
    <glyph glyph-name="Obreve" unicode="&#x14e;" horiz-adv-x="770" 
d="M486 725c-105 0 -134 79 -128 151h52c9 -36 32 -64 88 -64c57 0 88 31 106 64h50c-19 -77 -71 -151 -168 -151zM458 684c167 0 289 -109 289 -307c0 -185 -147 -397 -407 -397c-176 0 -293 115 -293 308c0 196 164 396 411 396zM566 448c0 109 -33 180 -111 180
c-116 0 -227 -199 -227 -407c0 -124 37 -185 114 -185c137 0 224 254 224 412z" />
    <glyph glyph-name="Ohungarumlaut" unicode="&#x150;" horiz-adv-x="770" 
d="M595 875h116v-19l-124 -120h-70zM439 875h115v-19l-123 -120h-70zM458 684c167 0 289 -109 289 -307c0 -185 -147 -397 -407 -397c-176 0 -293 115 -293 308c0 196 164 396 411 396zM566 448c0 109 -33 180 -111 180c-116 0 -227 -199 -227 -407c0 -124 37 -185 114 -185
c137 0 224 254 224 412z" />
    <glyph glyph-name="Omacron" unicode="&#x14c;" horiz-adv-x="770" 
d="M348 763l16 77h289l-16 -77h-289zM458 684c167 0 289 -109 289 -307c0 -185 -147 -397 -407 -397c-176 0 -293 115 -293 308c0 196 164 396 411 396zM566 448c0 109 -33 180 -111 180c-116 0 -227 -199 -227 -407c0 -124 37 -185 114 -185c137 0 224 254 224 412z" />
    <glyph glyph-name="Oslashacute" unicode="&#x1fe;" horiz-adv-x="770" 
d="M113 -50h-66l87 109c-55 54 -87 134 -87 229c0 196 164 396 411 396c55 0 105 -14 148 -38l62 77h65l-86 -107c62 -53 100 -136 100 -239c0 -185 -147 -397 -407 -397c-64 0 -120 17 -166 47zM569 454c0 21 -2 41 -5 59l-325 -405c18 -49 53 -72 103 -72
c137 0 227 257 227 418zM224 216c0 -16 0 -30 1 -44l322 400c-19 36 -49 56 -91 56c-118 0 -232 -202 -232 -412zM523 875h136v-22l-142 -117h-78z" />
    <glyph glyph-name="Racute" unicode="&#x154;" horiz-adv-x="724" 
d="M445 875h136v-22l-142 -117h-78zM-26 0l11 52l84 14l106 532l-77 14l11 52l282 2c168 1 273 -60 273 -167c0 -108 -108 -154 -179 -175c119 -255 130 -276 195 -301l-7 -41c-190 -1 -212 12 -346 304h-50l-43 -220l86 -15l-11 -51h-335zM343 617l-55 -278
c138 0 210 60 210 157c0 72 -43 122 -155 121z" />
    <glyph glyph-name="Rcaron" unicode="&#x158;" horiz-adv-x="724" 
d="M503 874h74l-130 -138h-102l-74 138h66l71 -62zM-26 0l11 52l84 14l106 532l-77 14l11 52l282 2c168 1 273 -60 273 -167c0 -108 -108 -154 -179 -175c119 -255 130 -276 195 -301l-7 -41c-190 -1 -212 12 -346 304h-50l-43 -220l86 -15l-11 -51h-335zM343 617l-55 -278
c138 0 210 60 210 157c0 72 -43 122 -155 121z" />
    <glyph glyph-name="Rcommaaccent" unicode="&#x156;" horiz-adv-x="724" 
d="M221 -285l-13 35c83 29 105 53 105 83c0 24 -19 39 -49 45c13 45 42 67 87 67c47 0 83 -30 83 -75c0 -68 -89 -123 -213 -155zM-26 0l11 52l84 14l106 532l-77 14l11 52l282 2c168 1 273 -60 273 -167c0 -108 -108 -154 -179 -175c119 -255 130 -276 195 -301l-7 -41
c-190 -1 -212 12 -346 304h-50l-43 -220l86 -15l-11 -51h-335zM343 617l-55 -278c138 0 210 60 210 157c0 72 -43 122 -155 121z" />
    <glyph glyph-name="Sacute" unicode="&#x15a;" horiz-adv-x="582" 
d="M59 232h52l27 -159c27 -15 68 -33 111 -33c73 0 118 43 118 103c0 49 -32 81 -94 116l-50 28c-83 47 -112 91 -112 171c0 110 105 225 292 225c71 0 126 -21 169 -34l-44 -193h-53l-12 139c-21 15 -56 31 -97 31c-63 0 -113 -40 -113 -95c0 -49 28 -71 83 -104l67 -40
c74 -44 122 -88 122 -171c0 -160 -177 -236 -299 -236c-92 0 -163 32 -197 44zM427 875h136v-22l-142 -117h-78z" />
    <glyph glyph-name="Scedilla" unicode="&#x15e;" horiz-adv-x="582" 
d="M73 -277l-7 39c42 13 98 37 98 84c0 27 -18 43 -30 52l65 83c-79 6 -140 32 -170 43l30 208h52l27 -159c27 -15 68 -33 111 -33c73 0 118 43 118 103c0 49 -32 81 -94 116l-50 28c-83 47 -112 91 -112 171c0 110 105 225 292 225c71 0 126 -21 169 -34l-44 -193h-53
l-12 139c-21 15 -56 31 -97 31c-63 0 -113 -40 -113 -95c0 -49 28 -71 83 -104l67 -40c74 -44 122 -88 122 -171c0 -150 -154 -225 -274 -235l-28 -43c34 -10 60 -34 60 -71c0 -84 -97 -125 -210 -144z" />
    <glyph glyph-name="Scircumflex" unicode="&#x15c;" horiz-adv-x="582" 
d="M312 736h-74l130 138h103l73 -138h-65l-72 62zM59 232h52l27 -159c27 -15 68 -33 111 -33c73 0 118 43 118 103c0 49 -32 81 -94 116l-50 28c-83 47 -112 91 -112 171c0 110 105 225 292 225c71 0 126 -21 169 -34l-44 -193h-53l-12 139c-21 15 -56 31 -97 31
c-63 0 -113 -40 -113 -95c0 -49 28 -71 83 -104l67 -40c74 -44 122 -88 122 -171c0 -160 -177 -236 -299 -236c-92 0 -163 32 -197 44z" />
    <glyph glyph-name="Scommaaccent" unicode="&#x218;" horiz-adv-x="582" 
d="M107 -285l-13 35c83 29 105 53 105 83c0 24 -19 39 -49 45c13 45 42 67 87 67c47 0 83 -30 83 -75c0 -68 -89 -123 -213 -155zM59 232h52l27 -159c27 -15 68 -33 111 -33c73 0 118 43 118 103c0 49 -32 81 -94 116l-50 28c-83 47 -112 91 -112 171c0 110 105 225 292 225
c71 0 126 -21 169 -34l-44 -193h-53l-12 139c-21 15 -56 31 -97 31c-63 0 -113 -40 -113 -95c0 -49 28 -71 83 -104l67 -40c74 -44 122 -88 122 -171c0 -160 -177 -236 -299 -236c-92 0 -163 32 -197 44z" />
    <glyph glyph-name="Tcaron" unicode="&#x164;" horiz-adv-x="712" 
d="M549 874h74l-130 -138h-102l-74 138h66l71 -62zM216 664h435l93 7l-44 -203h-47l-20 137h-129l-106 -538l94 -15l-10 -52h-359l10 52l101 14l106 539h-127l-74 -137h-47l37 203z" />
    <glyph glyph-name="Tcommaaccent" unicode="&#x162;" horiz-adv-x="712" 
d="M168 -285l-13 35c83 29 105 53 105 83c0 24 -19 39 -49 45c13 45 42 67 87 67c47 0 83 -30 83 -75c0 -68 -89 -123 -213 -155zM216 664h435l93 7l-44 -203h-47l-20 137h-129l-106 -538l94 -15l-10 -52h-359l10 52l101 14l106 539h-127l-74 -137h-47l37 203z" />
    <glyph glyph-name="Tbar" unicode="&#x166;" horiz-adv-x="712" 
d="M216 664h435l93 7l-44 -203h-47l-20 137h-129l-43 -217h136l-11 -59h-137l-51 -262l94 -15l-10 -52h-359l10 52l101 14l51 263h-136l12 59h136l43 217h-127l-74 -137h-47l37 203z" />
    <glyph glyph-name="Ubreve" unicode="&#x16c;" horiz-adv-x="754" 
d="M344 -21c-189 0 -278 94 -238 299l63 319l-75 15l10 52h318l-9 -52l-77 -15l-68 -342c-24 -120 18 -191 122 -191c94 0 170 58 198 212l58 314l-119 25l9 49h272l-10 -52l-81 -21l-58 -295c-38 -192 -128 -317 -315 -317zM478 725c-105 0 -134 79 -128 151h52
c9 -36 32 -64 88 -64c57 0 88 31 106 64h50c-19 -77 -71 -151 -168 -151z" />
    <glyph glyph-name="Uhungarumlaut" unicode="&#x170;" horiz-adv-x="754" 
d="M587 875h116v-19l-124 -120h-70zM431 875h115v-19l-123 -120h-70zM344 -21c-189 0 -278 94 -238 299l63 319l-75 15l10 52h318l-9 -52l-77 -15l-68 -342c-24 -120 18 -191 122 -191c94 0 170 58 198 212l58 314l-119 25l9 49h272l-10 -52l-81 -21l-58 -295
c-38 -192 -128 -317 -315 -317z" />
    <glyph glyph-name="Umacron" unicode="&#x16a;" horiz-adv-x="754" 
d="M344 -21c-189 0 -278 94 -238 299l63 319l-75 15l10 52h318l-9 -52l-77 -15l-68 -342c-24 -120 18 -191 122 -191c94 0 170 58 198 212l58 314l-119 25l9 49h272l-10 -52l-81 -21l-58 -295c-38 -192 -128 -317 -315 -317zM340 763l16 77h289l-16 -77h-289z" />
    <glyph glyph-name="Uogonek" unicode="&#x172;" horiz-adv-x="754" 
d="M210 -170c0 60 36 95 114 149c-175 7 -257 101 -218 299l63 319l-75 15l10 52h318l-9 -52l-77 -15l-68 -342c-24 -120 18 -191 122 -191c94 0 170 58 198 212l58 314l-119 25l9 49h272l-10 -52l-81 -21l-58 -295c-35 -175 -113 -294 -268 -314c-59 -54 -77 -78 -77 -108
c0 -34 27 -50 53 -50c36 0 60 15 95 47l22 -24c-39 -55 -79 -115 -158 -115c-73 0 -116 42 -116 98z" />
    <glyph glyph-name="Uring" unicode="&#x16e;" horiz-adv-x="754" 
d="M344 -21c-189 0 -278 94 -238 299l63 319l-75 15l10 52h318l-9 -52l-77 -15l-68 -342c-24 -120 18 -191 122 -191c94 0 170 58 198 212l58 314l-119 25l9 49h272l-10 -52l-81 -21l-58 -295c-38 -192 -128 -317 -315 -317zM373 826c0 66 54 117 120 117
c68 0 121 -50 121 -117s-54 -118 -121 -118s-120 50 -120 118zM430 826c0 -39 28 -66 63 -66s64 27 64 66c0 38 -29 65 -64 65s-63 -27 -63 -65z" />
    <glyph glyph-name="Utilde" unicode="&#x168;" horiz-adv-x="754" 
d="M344 -21c-189 0 -278 94 -238 299l63 319l-75 15l10 52h318l-9 -52l-77 -15l-68 -342c-24 -120 18 -191 122 -191c94 0 170 58 198 212l58 314l-119 25l9 49h272l-10 -52l-81 -21l-58 -295c-38 -192 -128 -317 -315 -317zM484 757l-26 9c-84 29 -98 16 -130 -35l-35 19
l5 13c43 119 105 124 188 95l26 -9c98 -34 106 -23 146 34l35 -18l-7 -16c-50 -118 -104 -127 -202 -92z" />
    <glyph glyph-name="Wacute" unicode="&#x1e82;" horiz-adv-x="1081" 
d="M685 875h136v-22l-142 -117h-78zM629 -10l-60 423l-217 -423h-110l-84 607l-69 15l10 52h318l-10 -52l-76 -15l49 -431l175 344l-12 88l-67 14l10 52h315l-10 -53l-77 -15l53 -433l204 422l-78 26l10 53h234l-10 -52l-76 -21l-309 -601h-113z" />
    <glyph glyph-name="Wcircumflex" unicode="&#x174;" horiz-adv-x="1081" 
d="M566 736h-74l130 138h103l73 -138h-65l-72 62zM629 -10l-60 423l-217 -423h-110l-84 607l-69 15l10 52h318l-10 -52l-76 -15l49 -431l175 344l-12 88l-67 14l10 52h315l-10 -53l-77 -15l53 -433l204 422l-78 26l10 53h234l-10 -52l-76 -21l-309 -601h-113z" />
    <glyph glyph-name="Wdieresis" unicode="&#x1e84;" horiz-adv-x="1081" 
d="M539 724c-41 0 -75 34 -75 75s34 76 75 76c40 0 75 -35 75 -76s-35 -75 -75 -75zM784 724c-41 0 -75 34 -75 75s34 76 75 76s75 -35 75 -76s-34 -75 -75 -75zM629 -10l-60 423l-217 -423h-110l-84 607l-69 15l10 52h318l-10 -52l-76 -15l49 -431l175 344l-12 88l-67 14
l10 52h315l-10 -53l-77 -15l53 -433l204 422l-78 26l10 53h234l-10 -52l-76 -21l-309 -601h-113z" />
    <glyph glyph-name="Wgrave" unicode="&#x1e80;" horiz-adv-x="1081" 
d="M507 875h136l48 -139h-79l-105 117v22zM629 -10l-60 423l-217 -423h-110l-84 607l-69 15l10 52h318l-10 -52l-76 -15l49 -431l175 344l-12 88l-67 14l10 52h315l-10 -53l-77 -15l53 -433l204 422l-78 26l10 53h234l-10 -52l-76 -21l-309 -601h-113z" />
    <glyph glyph-name="Ycircumflex" unicode="&#x176;" horiz-adv-x="681" 
d="M664 595l-229 -316l-41 -213l85 -14l-11 -52h-340l11 52l90 14l36 187l-113 348l-59 11l10 52h318l-10 -51l-85 -14l82 -269h2l184 264l-80 19l11 51h212l-11 -51zM367 736h-74l130 138h103l73 -138h-65l-72 62z" />
    <glyph glyph-name="Ygrave" unicode="&#x1ef2;" horiz-adv-x="681" 
d="M664 595l-229 -316l-41 -213l85 -14l-11 -52h-340l11 52l90 14l36 187l-113 348l-59 11l10 52h318l-10 -51l-85 -14l82 -269h2l184 264l-80 19l11 51h212l-11 -51zM307 875h136l48 -139h-79l-105 117v22z" />
    <glyph glyph-name="Zacute" unicode="&#x179;" horiz-adv-x="641" 
d="M436 875h136v-22l-142 -117h-78zM-15 0l9 56l444 544h-214l-77 -148h-50l41 219l90 -7h447l-3 -18l-473 -581h246l106 170h48l-67 -242l-96 7h-451z" />
    <glyph glyph-name="Zdotaccent" unicode="&#x17b;" horiz-adv-x="641" 
d="M-15 0l9 56l444 544h-214l-77 -148h-50l41 219l90 -7h447l-3 -18l-473 -581h246l106 170h48l-67 -242l-96 7h-451zM330 826c0 48 39 87 87 87s87 -39 87 -87c0 -47 -39 -86 -87 -86s-87 39 -87 86z" />
    <glyph glyph-name="abreve" unicode="&#x103;" horiz-adv-x="596" 
d="M444 507h127l-112 -414l3 -1c36 15 65 41 91 78l24 -16c-33 -79 -132 -167 -211 -167c-48 0 -81 32 -51 120l26 75h-7c-43 -69 -127 -200 -226 -200c-65 0 -100 42 -100 101c0 206 206 412 366 412c21 0 43 -7 61 -17zM186 94c50 0 151 132 186 245l23 74
c-15 22 -33 32 -48 32c-67 0 -183 -193 -183 -313c0 -24 7 -38 22 -38zM381 566c-89 0 -122 75 -115 163h55c8 -45 29 -73 73 -73s70 35 90 73h54c-22 -86 -68 -163 -157 -163z" />
    <glyph glyph-name="amacron" unicode="&#x101;" horiz-adv-x="596" 
d="M444 507h127l-112 -414l3 -1c36 15 65 41 91 78l24 -16c-33 -79 -132 -167 -211 -167c-48 0 -81 32 -51 120l26 75h-7c-43 -69 -127 -200 -226 -200c-65 0 -100 42 -100 101c0 206 206 412 366 412c21 0 43 -7 61 -17zM186 94c50 0 151 132 186 245l23 74
c-15 22 -33 32 -48 32c-67 0 -183 -193 -183 -313c0 -24 7 -38 22 -38zM244 614l17 80h289l-17 -80h-289z" />
    <glyph glyph-name="aogonek" unicode="&#x105;" horiz-adv-x="596" 
d="M379 -16h-14c-44 0 -80 35 -50 123l26 75h-7c-43 -69 -127 -200 -226 -200c-65 0 -100 42 -100 101c0 206 206 412 366 412c21 0 43 -7 61 -17l9 29h127l-112 -414l3 -1c36 15 65 41 91 78l24 -16c-15 -34 -37 -67 -80 -109l-65 -63c-73 -71 -94 -92 -94 -119
c0 -24 14 -43 43 -43c38 0 63 19 96 54l25 -19c-30 -55 -91 -123 -164 -123c-65 0 -105 38 -105 90c0 48 31 91 146 158v4zM186 94c50 0 151 132 186 245l23 74c-15 22 -33 32 -48 32c-67 0 -183 -193 -183 -313c0 -24 7 -38 22 -38z" />
    <glyph glyph-name="aringacute" unicode="&#x1fb;" horiz-adv-x="596" 
d="M444 507h127l-112 -414l3 -1c36 15 65 41 91 78l24 -16c-33 -79 -132 -167 -211 -167c-48 0 -81 32 -51 120l26 75h-7c-43 -69 -127 -200 -226 -200c-65 0 -100 42 -100 101c0 206 206 412 366 412c21 0 43 -7 61 -17zM186 94c50 0 151 132 186 245l23 74
c-15 22 -33 32 -48 32c-67 0 -183 -193 -183 -313c0 -24 7 -38 22 -38zM282 670c0 65 52 114 117 114c66 0 117 -48 117 -114c0 -65 -52 -114 -117 -114c-66 0 -117 48 -117 114zM338 670c0 -38 27 -64 61 -64s61 26 61 64s-27 64 -61 64s-61 -26 -61 -64zM462 964h136v-22
l-142 -117h-78z" />
    <glyph glyph-name="aeacute" unicode="&#x1fd;" horiz-adv-x="714" 
d="M492 769h124v-18l-129 -179h-62zM406 -17c-59 0 -99 25 -119 72c-48 -38 -106 -72 -160 -72c-67 0 -122 37 -122 108s50 114 176 142l110 26l11 48c9 82 -14 133 -66 133c-19 0 -36 -9 -45 -17c-2 -7 -21 -107 -21 -107c-18 -4 -39 -7 -53 -7c-30 0 -47 16 -47 39
c0 65 114 150 218 158c69 0 114 -25 140 -80h4c47 55 120 79 176 79c64 0 111 -27 111 -86c0 -112 -151 -161 -302 -189c-2 -15 -3 -30 -3 -45c-1 -74 27 -100 72 -100c49 0 110 49 141 86l24 -21c-31 -57 -123 -167 -245 -167zM274 113c-2 30 1 64 8 103l-65 -19
c-56 -17 -74 -39 -74 -73c0 -39 27 -64 62 -64c36 0 55 25 69 53zM563 449c-47 0 -110 -81 -137 -177c110 37 165 87 165 141c0 27 -10 36 -28 36z" />
    <glyph glyph-name="cacute" unicode="&#x107;" horiz-adv-x="461" 
d="M358 769h124v-18l-129 -179h-62zM292 438c-64 0 -115 -164 -115 -269c0 -70 28 -84 56 -84c46 0 99 42 154 109l26 -22c-30 -61 -125 -189 -263 -189c-86 0 -134 69 -134 155c0 146 82 252 183 312c61 36 119 55 164 55c61 0 107 -34 107 -72c0 -34 -44 -79 -69 -91
c-37 47 -78 96 -109 96z" />
    <glyph glyph-name="ccaron" unicode="&#x10d;" horiz-adv-x="461" 
d="M442 769h63l-132 -197h-93l-57 197h58l65 -96zM292 438c-64 0 -115 -164 -115 -269c0 -70 28 -84 56 -84c46 0 99 42 154 109l26 -22c-30 -61 -125 -189 -263 -189c-86 0 -134 69 -134 155c0 146 82 252 183 312c61 36 119 55 164 55c61 0 107 -34 107 -72
c0 -34 -44 -79 -69 -91c-37 47 -78 96 -109 96z" />
    <glyph glyph-name="ccircumflex" unicode="&#x109;" horiz-adv-x="461" 
d="M250 572h-63l132 197h93l57 -197h-58l-65 95zM292 438c-64 0 -115 -164 -115 -269c0 -70 28 -84 56 -84c46 0 99 42 154 109l26 -22c-30 -61 -125 -189 -263 -189c-86 0 -134 69 -134 155c0 146 82 252 183 312c61 36 119 55 164 55c61 0 107 -34 107 -72
c0 -34 -44 -79 -69 -91c-37 47 -78 96 -109 96z" />
    <glyph glyph-name="cdotaccent" unicode="&#x10b;" horiz-adv-x="461" 
d="M292 438c-64 0 -115 -164 -115 -269c0 -70 28 -84 56 -84c46 0 99 42 154 109l26 -22c-30 -61 -125 -189 -263 -189c-86 0 -134 69 -134 155c0 146 82 252 183 312c61 36 119 55 164 55c61 0 107 -34 107 -72c0 -34 -44 -79 -69 -91c-37 47 -78 96 -109 96zM259 660
c0 47 38 86 85 86s85 -39 85 -86c0 -46 -38 -85 -85 -85s-85 39 -85 85z" />
    <glyph glyph-name="dcaron" unicode="&#x10f;" horiz-adv-x="624" 
d="M691 535h-40l58 211h112v-28zM340 502c30 0 57 -10 78 -22l38 158l-72 28l6 26l243 54l-164 -653l3 -1c35 16 64 41 91 78l24 -16c-33 -78 -133 -167 -214 -167c-52 0 -79 43 -51 120l26 73h-7c-55 -90 -135 -198 -224 -198c-57 0 -102 40 -102 135
c0 153 147 385 325 385zM394 375l7 32c-17 27 -39 49 -63 49c-75 0 -156 -202 -156 -307c0 -35 8 -50 25 -50c50 0 161 167 187 276z" />
    <glyph glyph-name="ebreve" unicode="&#x115;" horiz-adv-x="469" 
d="M162 -17c-101 0 -146 66 -146 155c0 133 83 243 181 307c56 38 120 60 174 60c64 0 104 -27 104 -86c0 -107 -166 -181 -299 -204c-1 -10 -1 -19 -1 -29c0 -75 23 -101 67 -101c49 0 110 49 141 86l24 -21c-30 -55 -122 -167 -245 -167zM320 450
c-49 0 -115 -86 -137 -191c85 28 163 102 163 161c0 18 -9 30 -26 30zM323 566c-89 0 -122 75 -115 163h55c8 -45 29 -73 73 -73s70 35 90 73h54c-22 -86 -68 -163 -157 -163z" />
    <glyph glyph-name="ecaron" unicode="&#x11b;" horiz-adv-x="469" 
d="M437 769h63l-132 -197h-93l-57 197h58l65 -96zM162 -17c-101 0 -146 66 -146 155c0 133 83 243 181 307c56 38 120 60 174 60c64 0 104 -27 104 -86c0 -107 -166 -181 -299 -204c-1 -10 -1 -19 -1 -29c0 -75 23 -101 67 -101c49 0 110 49 141 86l24 -21
c-30 -55 -122 -167 -245 -167zM320 450c-49 0 -115 -86 -137 -191c85 28 163 102 163 161c0 18 -9 30 -26 30z" />
    <glyph glyph-name="edotaccent" unicode="&#x117;" horiz-adv-x="469" 
d="M162 -17c-101 0 -146 66 -146 155c0 133 83 243 181 307c56 38 120 60 174 60c64 0 104 -27 104 -86c0 -107 -166 -181 -299 -204c-1 -10 -1 -19 -1 -29c0 -75 23 -101 67 -101c49 0 110 49 141 86l24 -21c-30 -55 -122 -167 -245 -167zM320 450
c-49 0 -115 -86 -137 -191c85 28 163 102 163 161c0 18 -9 30 -26 30zM255 660c0 47 38 86 85 86s85 -39 85 -86c0 -46 -38 -85 -85 -85s-85 39 -85 85z" />
    <glyph glyph-name="emacron" unicode="&#x113;" horiz-adv-x="469" 
d="M162 -17c-101 0 -146 66 -146 155c0 133 83 243 181 307c56 38 120 60 174 60c64 0 104 -27 104 -86c0 -107 -166 -181 -299 -204c-1 -10 -1 -19 -1 -29c0 -75 23 -101 67 -101c49 0 110 49 141 86l24 -21c-30 -55 -122 -167 -245 -167zM320 450
c-49 0 -115 -86 -137 -191c85 28 163 102 163 161c0 18 -9 30 -26 30zM189 614l17 80h289l-17 -80h-289z" />
    <glyph glyph-name="eogonek" unicode="&#x119;" horiz-adv-x="469" 
d="M207 -19v5c-14 -2 -29 -3 -45 -3c-101 0 -146 66 -146 155c0 133 83 243 181 307c56 38 120 60 174 60c64 0 104 -27 104 -86c0 -107 -166 -181 -299 -204c-1 -10 -1 -19 -1 -29c0 -75 23 -102 67 -102c50 0 110 50 141 87l24 -21c-15 -28 -38 -63 -87 -109l-63 -60
c-73 -70 -92 -92 -92 -118c0 -24 14 -43 42 -43c38 0 63 19 96 54l25 -19c-29 -55 -90 -123 -163 -123c-65 0 -106 38 -106 90c0 49 31 91 148 159zM320 450c-49 0 -115 -86 -137 -191c85 28 163 102 163 161c0 18 -9 30 -26 30z" />
    <glyph glyph-name="gbreve" unicode="&#x11f;" horiz-adv-x="542" 
d="M309 504c37 0 74 -11 102 -18l169 12l-30 -96l-91 26l-2 -4c22 -31 27 -59 27 -86c0 -115 -120 -213 -256 -213c-11 0 -21 1 -30 2c-20 -10 -27 -22 -27 -34c0 -18 15 -28 38 -35l173 -51c70 -21 97 -53 97 -106c0 -108 -187 -175 -321 -175c-154 0 -239 48 -239 106
c1 61 62 84 174 110v3c-36 16 -64 44 -64 86c0 50 46 87 119 107v4c-58 26 -95 80 -95 146c0 123 104 216 256 216zM306 459c-59 0 -113 -138 -113 -221c0 -46 14 -69 38 -69c50 -1 113 120 113 223c0 39 -12 67 -38 67zM295 -117l-146 44c-39 -11 -77 -31 -77 -67
c0 -46 62 -81 149 -81c71 0 132 29 132 61c0 20 -16 30 -58 43zM340 566c-89 0 -122 75 -115 163h55c8 -45 29 -73 73 -73s70 35 90 73h54c-22 -86 -68 -163 -157 -163z" />
    <glyph glyph-name="gcircumflex" unicode="&#x11d;" horiz-adv-x="542" 
d="M263 572h-63l132 197h93l57 -197h-58l-65 95zM309 504c37 0 74 -11 102 -18l169 12l-30 -96l-91 26l-2 -4c22 -31 27 -59 27 -86c0 -115 -120 -213 -256 -213c-11 0 -21 1 -30 2c-20 -10 -27 -22 -27 -34c0 -18 15 -28 38 -35l173 -51c70 -21 97 -53 97 -106
c0 -108 -187 -175 -321 -175c-154 0 -239 48 -239 106c1 61 62 84 174 110v3c-36 16 -64 44 -64 86c0 50 46 87 119 107v4c-58 26 -95 80 -95 146c0 123 104 216 256 216zM306 459c-59 0 -113 -138 -113 -221c0 -46 14 -69 38 -69c50 -1 113 120 113 223c0 39 -12 67 -38 67
zM295 -117l-146 44c-39 -11 -77 -31 -77 -67c0 -46 62 -81 149 -81c71 0 132 29 132 61c0 20 -16 30 -58 43z" />
    <glyph glyph-name="gcommaaccent" unicode="&#x123;" horiz-adv-x="542" 
d="M474 811l13 -35c-84 -29 -106 -53 -106 -83c0 -25 20 -39 50 -45c-13 -45 -43 -67 -88 -67c-47 0 -83 30 -83 75c0 68 89 123 214 155zM309 504c37 0 74 -11 102 -18l169 12l-30 -96l-91 26l-2 -4c22 -31 27 -59 27 -86c0 -115 -120 -213 -256 -213c-11 0 -21 1 -30 2
c-20 -10 -27 -22 -27 -34c0 -18 15 -28 38 -35l173 -51c70 -21 97 -53 97 -106c0 -108 -187 -175 -321 -175c-154 0 -239 48 -239 106c1 61 62 84 174 110v3c-36 16 -64 44 -64 86c0 50 46 87 119 107v4c-58 26 -95 80 -95 146c0 123 104 216 256 216zM306 459
c-59 0 -113 -138 -113 -221c0 -46 14 -69 38 -69c50 -1 113 120 113 223c0 39 -12 67 -38 67zM295 -117l-146 44c-39 -11 -77 -31 -77 -67c0 -46 62 -81 149 -81c71 0 132 29 132 61c0 20 -16 30 -58 43z" />
    <glyph glyph-name="gdotaccent" unicode="&#x121;" horiz-adv-x="542" 
d="M309 504c37 0 74 -11 102 -18l169 12l-30 -96l-91 26l-2 -4c22 -31 27 -59 27 -86c0 -115 -120 -213 -256 -213c-11 0 -21 1 -30 2c-20 -10 -27 -22 -27 -34c0 -18 15 -28 38 -35l173 -51c70 -21 97 -53 97 -106c0 -108 -187 -175 -321 -175c-154 0 -239 48 -239 106
c1 61 62 84 174 110v3c-36 16 -64 44 -64 86c0 50 46 87 119 107v4c-58 26 -95 80 -95 146c0 123 104 216 256 216zM306 459c-59 0 -113 -138 -113 -221c0 -46 14 -69 38 -69c50 -1 113 120 113 223c0 39 -12 67 -38 67zM295 -117l-146 44c-39 -11 -77 -31 -77 -67
c0 -46 62 -81 149 -81c71 0 132 29 132 61c0 20 -16 30 -58 43zM273 660c0 47 38 86 85 86s85 -39 85 -86c0 -46 -38 -85 -85 -85s-85 39 -85 85z" />
    <glyph glyph-name="hbar" unicode="&#x127;" horiz-adv-x="596" 
d="M328 746l-37 -145h180l-11 -48h-181l-70 -279h8c61 104 145 231 250 231c60 0 93 -24 67 -126l-74 -286l3 -1c36 16 65 41 91 78l25 -16c-33 -78 -132 -171 -212 -171c-45 0 -79 34 -56 121l69 258c6 24 5 36 -9 36c-46 0 -191 -242 -221 -360l-8 -31l-125 -24l-26 16
l140 554h-79l11 48h80l12 46l-74 19l6 26z" />
    <glyph glyph-name="hcircumflex" unicode="&#x125;" horiz-adv-x="596" 
d="M328 746l-119 -472h8c61 104 145 231 250 231c60 0 92 -26 67 -126l-74 -286l3 -1c36 16 65 41 91 78l25 -16c-33 -78 -132 -171 -212 -171c-45 0 -79 34 -56 121l69 258c6 24 5 36 -9 36c-46 0 -191 -242 -221 -360l-8 -31l-125 -24l-26 16l161 639l-71 28l6 26z
M313 778h-74l130 138h103l73 -138h-65l-72 62z" />
    <glyph glyph-name="ibreve" unicode="&#x12d;" horiz-adv-x="319" 
d="M187 92c35 16 64 41 91 78l24 -16c-33 -78 -132 -171 -212 -171c-45 0 -77 33 -55 121l74 297l-79 19l6 23s91 64 165 64c48 0 75 -34 54 -120l-71 -294zM215 579c-89 0 -122 75 -115 163h55c8 -45 29 -73 73 -73s70 35 90 73h54c-22 -86 -68 -163 -157 -163z" />
    <glyph glyph-name="imacron" unicode="&#x12b;" horiz-adv-x="319" 
d="M68 604l17 77h266l-17 -77h-266zM187 92c35 16 64 41 91 78l24 -16c-33 -78 -132 -171 -212 -171c-45 0 -77 33 -55 121l74 297l-79 19l6 23s91 64 165 64c48 0 75 -34 54 -120l-71 -294z" />
    <glyph glyph-name="iogonek" unicode="&#x12f;" horiz-adv-x="319" 
d="M155 666c0 47 38 86 85 86s85 -39 85 -86c0 -46 -38 -85 -85 -85s-85 39 -85 85zM184 93l3 -1c35 16 64 41 91 78l24 -16c-15 -34 -38 -67 -81 -109l-65 -63c-73 -70 -94 -92 -94 -119c0 -24 15 -43 43 -43c38 0 63 19 96 54l25 -19c-29 -55 -90 -123 -164 -123
c-65 0 -105 38 -105 90c0 48 32 91 146 157v5c-5 -1 -10 -1 -14 -1c-44 0 -76 33 -54 121l74 297l-79 19l6 23s91 64 165 64c48 0 75 -34 54 -120z" />
    <glyph glyph-name="itilde" unicode="&#x129;" horiz-adv-x="319" 
d="M187 92c35 16 64 41 91 78l24 -16c-33 -78 -132 -171 -212 -171c-45 0 -77 33 -55 121l74 297l-79 19l6 23s91 64 165 64c48 0 75 -34 54 -120l-71 -294zM388 737l37 -20l-9 -17c-73 -130 -114 -121 -204 -95l-7 2c-78 22 -96 28 -127 -28l-35 19l6 13
c61 118 106 121 191 97l7 -2c87 -25 101 -33 141 31z" />
    <glyph glyph-name="idotaccent" horiz-adv-x="319" 
d="M109 401l-79 19l6 23s91 64 165 64c48 0 75 -34 54 -120l-71 -294l3 -1c35 16 64 41 91 78l24 -16c-33 -78 -132 -171 -212 -171c-45 0 -77 33 -55 121zM155 666c0 47 38 86 85 86s85 -39 85 -86c0 -46 -38 -85 -85 -85s-85 39 -85 85z" />
    <glyph glyph-name="jcircumflex" unicode="&#x135;" horiz-adv-x="318" 
d="M39 17l95 384l-78 19l5 23s92 64 164 64c49 0 78 -34 56 -121l-72 -290c-51 -206 -180 -356 -305 -356c-57 0 -110 32 -110 87c0 37 41 66 90 79c8 -60 32 -100 62 -100c37 0 66 100 93 211zM164 585h-63l132 197h93l57 -197h-58l-65 95z" />
    <glyph glyph-name="kcommaaccent" unicode="&#x137;" horiz-adv-x="543" 
d="M83 -285l-13 35c83 29 105 53 105 83c0 24 -19 39 -49 45c13 45 42 67 87 67c47 0 83 -30 83 -75c0 -68 -89 -123 -213 -155zM445 -39c-78 0 -140 54 -179 110l-74 104c-21 -45 -37 -91 -46 -132l-8 -36l-121 -24l-26 16l161 639l-71 28l6 26l240 54l-114 -444h5
c73 125 144 203 225 203c58 0 92 -40 92 -91c0 -82 -55 -149 -209 -212l185 -215v-14c-14 -7 -33 -12 -66 -12zM377 399c-49 0 -127 -103 -180 -215c141 49 211 124 211 180c0 24 -12 35 -31 35z" />
    <glyph glyph-name="kgreenlandic" unicode="&#x138;" horiz-adv-x="573" 
d="M110 402l-76 17l4 24s84 63 149 63c62 0 88 -44 56 -139l-42 -126h6c80 170 168 264 253 264c59 0 93 -40 93 -91c0 -81 -55 -149 -208 -212l183 -215v-14c-14 -7 -33 -12 -65 -12c-79 0 -144 53 -193 125l-60 89c-19 -40 -34 -78 -42 -110l-15 -59l-122 -23l-26 16z
M394 399c-49 0 -128 -109 -180 -215c141 49 211 124 211 180c0 24 -11 35 -31 35z" />
    <glyph glyph-name="lacute" unicode="&#x13a;" horiz-adv-x="308" 
d="M299 915h136v-22l-142 -117h-78zM291 154c-33 -78 -131 -171 -212 -171c-45 0 -77 33 -55 121l132 534l-72 28l6 26l243 54l-160 -653l3 -1c35 16 64 41 91 78z" />
    <glyph glyph-name="lcaron" unicode="&#x13e;" horiz-adv-x="308" 
d="M391 535h-40l58 211h112v-28zM291 154c-33 -78 -131 -171 -212 -171c-45 0 -77 33 -55 121l132 534l-72 28l6 26l243 54l-160 -653l3 -1c35 16 64 41 91 78z" />
    <glyph glyph-name="lcommaaccent" unicode="&#x13c;" horiz-adv-x="308" 
d="M-49 -285l-13 35c83 29 105 53 105 83c0 24 -19 39 -49 45c13 45 42 67 87 67c47 0 83 -30 83 -75c0 -68 -89 -123 -213 -155zM291 154c-33 -78 -131 -171 -212 -171c-45 0 -77 33 -55 121l132 534l-72 28l6 26l243 54l-160 -653l3 -1c35 16 64 41 91 78z" />
    <glyph glyph-name="ldot" unicode="&#x140;" horiz-adv-x="439" 
d="M389 295c-45 0 -82 38 -82 81c0 46 37 83 82 83s83 -37 83 -83c0 -43 -38 -81 -83 -81zM291 154c-33 -78 -131 -171 -212 -171c-45 0 -77 33 -55 121l132 534l-72 28l6 26l243 54l-160 -653l3 -1c35 16 64 41 91 78z" />
    <glyph glyph-name="nacute" unicode="&#x144;" horiz-adv-x="614" 
d="M397 769h124v-18l-129 -179h-62zM5 -1l105 403l-77 18l5 23s101 64 169 64c54 0 73 -42 44 -130l-38 -115h9c62 104 159 243 264 243c59 0 92 -24 66 -126l-73 -286l3 -1c36 16 64 41 91 78l24 -16c-33 -78 -132 -171 -212 -171c-45 0 -78 34 -55 121l69 258
c6 24 5 36 -10 36c-48 0 -186 -235 -217 -346l-13 -46l-128 -23z" />
    <glyph glyph-name="napostrophe" unicode="&#x149;" horiz-adv-x="614" 
d="M25 536l-13 35c83 29 105 53 105 83c0 24 -19 39 -49 45c13 45 42 67 87 67c47 0 83 -30 83 -75c0 -68 -89 -123 -213 -155zM5 -1l105 403l-77 18l5 23s101 64 169 64c54 0 73 -42 44 -130l-38 -115h9c62 104 159 243 264 243c59 0 92 -24 66 -126l-73 -286l3 -1
c36 16 64 41 91 78l24 -16c-33 -78 -132 -171 -212 -171c-45 0 -78 34 -55 121l69 258c6 24 5 36 -10 36c-48 0 -186 -235 -217 -346l-13 -46l-128 -23z" />
    <glyph glyph-name="ncaron" unicode="&#x148;" horiz-adv-x="614" 
d="M480 769h63l-132 -197h-93l-57 197h58l65 -96zM5 -1l105 403l-77 18l5 23s101 64 169 64c54 0 73 -42 44 -130l-38 -115h9c62 104 159 243 264 243c59 0 92 -24 66 -126l-73 -286l3 -1c36 16 64 41 91 78l24 -16c-33 -78 -132 -171 -212 -171c-45 0 -78 34 -55 121
l69 258c6 24 5 36 -10 36c-48 0 -186 -235 -217 -346l-13 -46l-128 -23z" />
    <glyph glyph-name="ncommaaccent" unicode="&#x146;" horiz-adv-x="614" 
d="M112 -285l-13 35c83 29 105 53 105 83c0 24 -19 39 -49 45c13 45 42 67 87 67c47 0 83 -30 83 -75c0 -68 -89 -123 -213 -155zM5 -1l105 403l-77 18l5 23s101 64 169 64c54 0 73 -42 44 -130l-38 -115h9c62 104 159 243 264 243c59 0 92 -24 66 -126l-73 -286l3 -1
c36 16 64 41 91 78l24 -16c-33 -78 -132 -171 -212 -171c-45 0 -78 34 -55 121l69 258c6 24 5 36 -10 36c-48 0 -186 -235 -217 -346l-13 -46l-128 -23z" />
    <glyph glyph-name="obreve" unicode="&#x14f;" horiz-adv-x="566" 
d="M188 117c0 -45 7 -89 41 -89c76 0 149 220 149 343c0 48 -10 89 -42 89c-76 0 -148 -222 -148 -343zM350 505c118 0 190 -84 190 -201c0 -156 -123 -321 -322 -321c-120 0 -192 84 -192 203c0 155 123 319 324 319zM355 566c-89 0 -122 75 -115 163h55
c8 -45 29 -73 73 -73s70 35 90 73h54c-22 -86 -68 -163 -157 -163z" />
    <glyph glyph-name="ohungarumlaut" unicode="&#x151;" horiz-adv-x="566" 
d="M306 769h108v-18l-120 -179h-53zM472 769h108v-18l-120 -179h-53zM188 117c0 -45 7 -89 41 -89c76 0 149 220 149 343c0 48 -10 89 -42 89c-76 0 -148 -222 -148 -343zM350 505c118 0 190 -84 190 -201c0 -156 -123 -321 -322 -321c-120 0 -192 84 -192 203
c0 155 123 319 324 319z" />
    <glyph glyph-name="omacron" unicode="&#x14d;" horiz-adv-x="566" 
d="M218 614l17 80h289l-17 -80h-289zM188 117c0 -45 7 -89 41 -89c76 0 149 220 149 343c0 48 -10 89 -42 89c-76 0 -148 -222 -148 -343zM350 505c118 0 190 -84 190 -201c0 -156 -123 -321 -322 -321c-120 0 -192 84 -192 203c0 155 123 319 324 319z" />
    <glyph glyph-name="oslashacute" unicode="&#x1ff;" horiz-adv-x="566" 
d="M87 -50h-57l62 83c-39 35 -66 88 -66 153c0 155 123 319 324 319c29 0 58 -8 83 -21l46 61h57l-65 -86c42 -37 69 -92 69 -155c0 -156 -123 -321 -322 -321c-30 0 -61 9 -89 23zM227 28c74 0 149 182 159 318l-203 -268c7 -33 22 -50 44 -50zM335 460
c-70 0 -142 -176 -153 -309l200 265c-7 26 -23 44 -47 44zM387 769h124v-18l-129 -179h-62z" />
    <glyph glyph-name="racute" unicode="&#x155;" horiz-adv-x="491" 
d="M338 769h124v-18l-129 -179h-62zM19 -1l30 118c42 167 65 285 65 285l-76 17l5 24s83 63 149 63c61 0 81 -44 51 -137l-55 -173h15c62 143 127 310 230 310c40 0 69 -26 69 -76c0 -53 -43 -101 -74 -118h-48c19 32 22 74 -1 87c-36 -29 -84 -104 -125 -187
c-35 -70 -64 -141 -82 -206l-127 -23z" />
    <glyph glyph-name="rcaron" unicode="&#x159;" horiz-adv-x="491" 
d="M423 769h63l-132 -197h-93l-57 197h58l65 -96zM19 -1l30 118c42 167 65 285 65 285l-76 17l5 24s83 63 149 63c61 0 81 -44 51 -137l-55 -173h15c62 143 127 310 230 310c40 0 69 -26 69 -76c0 -53 -43 -101 -74 -118h-48c19 32 22 74 -1 87c-36 -29 -84 -104 -125 -187
c-35 -70 -64 -141 -82 -206l-127 -23z" />
    <glyph glyph-name="rcommaaccent" unicode="&#x157;" horiz-adv-x="491" 
d="M-51 -285l-13 35c83 29 105 53 105 83c0 24 -19 39 -49 45c13 45 42 67 87 67c47 0 83 -30 83 -75c0 -68 -89 -123 -213 -155zM19 -1l30 118c42 167 65 285 65 285l-76 17l5 24s83 63 149 63c61 0 81 -44 51 -137l-55 -173h15c62 143 127 310 230 310c40 0 69 -26 69 -76
c0 -53 -43 -101 -74 -118h-48c19 32 22 74 -1 87c-36 -29 -84 -104 -125 -187c-35 -70 -64 -141 -82 -206l-127 -23z" />
    <glyph glyph-name="sacute" unicode="&#x15b;" horiz-adv-x="406" 
d="M319 769h124v-18l-129 -179h-62zM359 170c0 -102 -137 -190 -241 -190c-62 0 -131 45 -131 105c0 30 8 53 40 97h6c52 -71 109 -131 169 -131c29 0 44 15 44 38c0 19 -15 40 -58 75l-59 49c-31 25 -63 60 -63 104c0 104 151 192 242 192c44 0 100 -32 100 -85
c0 -34 -13 -65 -34 -96h-6c-50 51 -96 98 -152 98c-25 0 -39 -15 -39 -33c0 -23 15 -35 51 -64l58 -47c61 -49 73 -76 73 -112z" />
    <glyph glyph-name="scedilla" unicode="&#x15f;" horiz-adv-x="406" 
d="M-34 -277l-7 39c42 13 98 37 98 84c0 27 -18 43 -30 52l66 85c-54 10 -106 50 -106 102c0 30 8 53 40 97h6c52 -71 109 -131 169 -131c29 0 44 15 44 38c0 19 -15 40 -58 75l-59 49c-31 25 -63 60 -63 104c0 104 151 192 242 192c44 0 100 -32 100 -85
c0 -34 -13 -65 -34 -96h-6c-50 51 -96 98 -152 98c-25 0 -39 -15 -39 -33c0 -23 15 -35 51 -64l58 -47c61 -49 73 -76 73 -112c0 -94 -115 -175 -215 -188l-28 -44c34 -10 60 -34 60 -71c0 -84 -97 -125 -210 -144z" />
    <glyph glyph-name="scircumflex" unicode="&#x15d;" horiz-adv-x="406" 
d="M209 572h-63l132 197h93l57 -197h-58l-65 95zM359 170c0 -102 -137 -190 -241 -190c-62 0 -131 45 -131 105c0 30 8 53 40 97h6c52 -71 109 -131 169 -131c29 0 44 15 44 38c0 19 -15 40 -58 75l-59 49c-31 25 -63 60 -63 104c0 104 151 192 242 192
c44 0 100 -32 100 -85c0 -34 -13 -65 -34 -96h-6c-50 51 -96 98 -152 98c-25 0 -39 -15 -39 -33c0 -23 15 -35 51 -64l58 -47c61 -49 73 -76 73 -112z" />
    <glyph glyph-name="scommaaccent" unicode="&#x219;" horiz-adv-x="406" 
d="M-26 -285l-13 35c83 29 105 53 105 83c0 24 -19 39 -49 45c13 45 42 67 87 67c47 0 83 -30 83 -75c0 -68 -89 -123 -213 -155zM359 170c0 -102 -137 -190 -241 -190c-62 0 -131 45 -131 105c0 30 8 53 40 97h6c52 -71 109 -131 169 -131c29 0 44 15 44 38
c0 19 -15 40 -58 75l-59 49c-31 25 -63 60 -63 104c0 104 151 192 242 192c44 0 100 -32 100 -85c0 -34 -13 -65 -34 -96h-6c-50 51 -96 98 -152 98c-25 0 -39 -15 -39 -33c0 -23 15 -35 51 -64l58 -47c61 -49 73 -76 73 -112z" />
    <glyph glyph-name="tbar" unicode="&#x167;" horiz-adv-x="403" 
d="M45 427l10 62h93l55 119h108l-24 -119h122l-10 -62h-121l-19 -76h125l-11 -62h-130l-46 -188l4 -3c65 27 111 80 143 127l24 -17c-40 -84 -156 -225 -260 -225c-45 0 -81 45 -65 109l49 197h-72l12 62h75l19 76h-81z" />
    <glyph glyph-name="tcaron" unicode="&#x165;" horiz-adv-x="403" 
d="M418 564h-38l56 184h107v-25zM45 427l10 62h93l55 119h108l-24 -119h122l-10 -62h-121l-81 -326l4 -3c65 27 111 80 143 127l24 -17c-40 -84 -156 -225 -260 -225c-45 0 -81 45 -65 109l83 335h-81z" />
    <glyph glyph-name="tcommaaccent" unicode="&#x163;" horiz-adv-x="403" 
d="M-22 -285l-13 35c83 29 105 53 105 83c0 24 -19 39 -49 45c13 45 42 67 87 67c47 0 83 -30 83 -75c0 -68 -89 -123 -213 -155zM45 427l10 62h93l55 119h108l-24 -119h122l-10 -62h-121l-81 -326l4 -3c65 27 111 80 143 127l24 -17c-40 -84 -156 -225 -260 -225
c-45 0 -81 45 -65 109l83 335h-81z" />
    <glyph glyph-name="ubreve" unicode="&#x16d;" horiz-adv-x="603" 
d="M109 403l-78 18l5 23s93 64 157 64c57 0 87 -32 58 -139l-65 -242c-6 -24 -5 -35 6 -35c33 0 194 240 219 365l6 26l125 24l26 -16l-99 -398l3 -1c35 16 64 41 91 78l24 -16c-33 -78 -132 -171 -212 -171c-50 0 -80 35 -50 127l45 138h-7c-56 -81 -143 -264 -268 -264
c-50 0 -83 38 -60 128zM356 566c-89 0 -122 75 -115 163h55c8 -45 29 -73 73 -73s70 35 90 73h54c-22 -86 -68 -163 -157 -163z" />
    <glyph glyph-name="uhungarumlaut" unicode="&#x171;" horiz-adv-x="603" 
d="M109 403l-78 18l5 23s93 64 157 64c57 0 87 -32 58 -139l-65 -242c-6 -24 -5 -35 6 -35c33 0 194 240 219 365l6 26l125 24l26 -16l-99 -398l3 -1c35 16 64 41 91 78l24 -16c-33 -78 -132 -171 -212 -171c-50 0 -80 35 -50 127l45 138h-7c-56 -81 -143 -264 -268 -264
c-50 0 -83 38 -60 128zM307 769h108v-18l-120 -179h-53zM473 769h108v-18l-120 -179h-53z" />
    <glyph glyph-name="umacron" unicode="&#x16b;" horiz-adv-x="603" 
d="M109 403l-78 18l5 23s93 64 157 64c57 0 87 -32 58 -139l-65 -242c-6 -24 -5 -35 6 -35c33 0 194 240 219 365l6 26l125 24l26 -16l-99 -398l3 -1c35 16 64 41 91 78l24 -16c-33 -78 -132 -171 -212 -171c-50 0 -80 35 -50 127l45 138h-7c-56 -81 -143 -264 -268 -264
c-50 0 -83 38 -60 128zM219 614l17 80h289l-17 -80h-289z" />
    <glyph glyph-name="uogonek" unicode="&#x173;" horiz-adv-x="603" 
d="M388 -21v5c-5 -1 -11 -1 -15 -1c-44 1 -76 41 -48 127l45 138h-7c-56 -81 -143 -264 -268 -264c-50 0 -83 38 -60 128l74 291l-78 18l5 23s93 64 157 64c57 0 87 -32 58 -139l-65 -242c-6 -24 -5 -35 6 -35c33 0 186 225 219 365l6 26l125 24l26 -16l-99 -398l3 -1
c35 16 64 41 91 78l24 -16c-15 -34 -38 -67 -81 -109l-65 -63c-73 -71 -94 -92 -94 -119c0 -24 15 -43 43 -43c38 0 63 19 96 54l25 -19c-30 -55 -90 -123 -164 -123c-65 0 -105 38 -105 90c0 48 32 91 146 157z" />
    <glyph glyph-name="uring" unicode="&#x16f;" horiz-adv-x="603" 
d="M259 674c0 65 52 114 117 114c66 0 117 -48 117 -114c0 -65 -52 -114 -117 -114c-66 0 -117 48 -117 114zM315 674c0 -38 27 -64 61 -64s61 26 61 64s-27 64 -61 64s-61 -26 -61 -64zM109 403l-78 18l5 23s93 64 157 64c57 0 87 -32 58 -139l-65 -242
c-6 -24 -5 -35 6 -35c33 0 194 240 219 365l6 26l125 24l26 -16l-99 -398l3 -1c35 16 64 41 91 78l24 -16c-33 -78 -132 -171 -212 -171c-50 0 -80 35 -50 127l45 138h-7c-56 -81 -143 -264 -268 -264c-50 0 -83 38 -60 128z" />
    <glyph glyph-name="utilde" unicode="&#x169;" horiz-adv-x="603" 
d="M109 403l-78 18l5 23s93 64 157 64c57 0 87 -32 58 -139l-65 -242c-6 -24 -5 -35 6 -35c33 0 194 240 219 365l6 26l125 24l26 -16l-99 -398l3 -1c35 16 64 41 91 78l24 -16c-33 -78 -132 -171 -212 -171c-50 0 -80 35 -50 127l45 138h-7c-56 -81 -143 -264 -268 -264
c-50 0 -83 38 -60 128zM360 601l-26 8c-79 24 -97 28 -127 -28l-36 19l6 13c61 118 108 124 192 98l26 -8c86 -26 101 -33 141 31l38 -20l-10 -17c-69 -123 -115 -126 -204 -96z" />
    <glyph glyph-name="wacute" unicode="&#x1e83;" horiz-adv-x="761" 
d="M459 769h124v-18l-129 -179h-62zM496 394l-1 -287h4c83 89 143 164 143 244c0 40 -28 60 -60 60c-20 0 -37 -4 -52 -8l6 33c46 47 99 67 138 67c51 0 86 -33 87 -87c0 -112 -137 -239 -244 -349l-82 -84h-16l-56 25l-3 172h-2c-31 -33 -63 -67 -106 -111l-85 -86h-12
l-58 19l-12 396c-8 7 -23 12 -40 12c-13 0 -35 -4 -45 -8l6 34c51 50 101 67 139 67c49 0 86 -23 86 -110l-1 -282h3c59 57 102 111 123 140l-4 146c-8 7 -25 13 -42 13c-13 0 -35 -4 -46 -8l6 34c53 50 103 67 140 67c43 0 86 -15 86 -109z" />
    <glyph glyph-name="wcircumflex" unicode="&#x175;" horiz-adv-x="761" 
d="M350 572h-63l132 197h93l57 -197h-58l-65 95zM496 394l-1 -287h4c83 89 143 164 143 244c0 40 -28 60 -60 60c-20 0 -37 -4 -52 -8l6 33c46 47 99 67 138 67c51 0 86 -33 87 -87c0 -112 -137 -239 -244 -349l-82 -84h-16l-56 25l-3 172h-2c-31 -33 -63 -67 -106 -111
l-85 -86h-12l-58 19l-12 396c-8 7 -23 12 -40 12c-13 0 -35 -4 -45 -8l6 34c51 50 101 67 139 67c49 0 86 -23 86 -110l-1 -282h3c59 57 102 111 123 140l-4 146c-8 7 -25 13 -42 13c-13 0 -35 -4 -46 -8l6 34c53 50 103 67 140 67c43 0 86 -15 86 -109z" />
    <glyph glyph-name="wdieresis" unicode="&#x1e85;" horiz-adv-x="761" 
d="M260 660c0 41 33 75 74 75s74 -34 74 -75s-33 -73 -74 -73s-74 32 -74 73zM481 660c0 41 33 75 73 75c41 0 75 -34 75 -75s-34 -73 -75 -73c-40 0 -73 32 -73 73zM496 394l-1 -287h4c83 89 143 164 143 244c0 40 -28 60 -60 60c-20 0 -37 -4 -52 -8l6 33
c46 47 99 67 138 67c51 0 86 -33 87 -87c0 -112 -137 -239 -244 -349l-82 -84h-16l-56 25l-3 172h-2c-31 -33 -63 -67 -106 -111l-85 -86h-12l-58 19l-12 396c-8 7 -23 12 -40 12c-13 0 -35 -4 -45 -8l6 34c51 50 101 67 139 67c49 0 86 -23 86 -110l-1 -282h3
c59 57 102 111 123 140l-4 146c-8 7 -25 13 -42 13c-13 0 -35 -4 -46 -8l6 34c53 50 103 67 140 67c43 0 86 -15 86 -109z" />
    <glyph glyph-name="wgrave" unicode="&#x1e81;" horiz-adv-x="761" 
d="M496 394l-1 -287h4c83 89 143 164 143 244c0 40 -28 60 -60 60c-20 0 -37 -4 -52 -8l6 33c46 47 99 67 138 67c51 0 86 -33 87 -87c0 -112 -137 -239 -244 -349l-82 -84h-16l-56 25l-3 172h-2c-31 -33 -63 -67 -106 -111l-85 -86h-12l-58 19l-12 396c-8 7 -23 12 -40 12
c-13 0 -35 -4 -45 -8l6 34c51 50 101 67 139 67c49 0 86 -23 86 -110l-1 -282h3c59 57 102 111 123 140l-4 146c-8 7 -25 13 -42 13c-13 0 -35 -4 -46 -8l6 34c53 50 103 67 140 67c43 0 86 -15 86 -109zM296 769h124l38 -197h-61l-101 179v18z" />
    <glyph glyph-name="ycircumflex" unicode="&#x177;" horiz-adv-x="527" 
d="M50 268h-37c-2 101 42 235 146 235c83 0 141 -73 146 -239c3 -105 -16 -194 -39 -265h5c84 115 125 198 146 304c-6 71 -24 120 -50 169c23 16 48 30 88 30c27 0 70 -19 70 -78c0 -233 -389 -697 -587 -697c-58 0 -106 30 -106 89c0 43 33 83 85 83c56 0 77 -47 90 -99h6
c129 58 151 285 149 396c-3 146 -26 198 -54 198s-51 -45 -58 -126zM246 572h-63l132 197h93l57 -197h-58l-65 95z" />
    <glyph glyph-name="ygrave" unicode="&#x1ef3;" horiz-adv-x="527" 
d="M50 268h-37c-2 101 42 235 146 235c83 0 141 -73 146 -239c3 -105 -16 -194 -39 -265h5c84 115 125 198 146 304c-6 71 -24 120 -50 169c23 16 48 30 88 30c27 0 70 -19 70 -78c0 -233 -389 -697 -587 -697c-58 0 -106 30 -106 89c0 43 33 83 85 83c56 0 77 -47 90 -99h6
c129 58 151 285 149 396c-3 146 -26 198 -54 198s-51 -45 -58 -126zM201 769h124l38 -197h-61l-101 179v18z" />
    <glyph glyph-name="zacute" unicode="&#x17a;" horiz-adv-x="539" 
d="M371 769h124v-18l-129 -179h-62zM513 508l46 -46l-349 -304l77 -30c102 -41 139 -10 178 81l32 -11c-39 -132 -89 -218 -197 -218c-37 0 -64 13 -143 54l-56 29l-70 -80l-45 43l349 304l-96 37c-73 28 -119 26 -125 6c-7 -19 25 -45 93 -70c-43 -50 -71 -75 -103 -75
c-37 0 -64 25 -64 66c0 48 64 215 194 215c41 0 86 -17 134 -40l79 -39z" />
    <glyph glyph-name="zdotaccent" unicode="&#x17c;" horiz-adv-x="539" 
d="M513 508l46 -46l-349 -304l77 -30c102 -41 139 -10 178 81l32 -11c-39 -132 -89 -218 -197 -218c-37 0 -64 13 -143 54l-56 29l-70 -80l-45 43l349 304l-96 37c-73 28 -119 26 -125 6c-7 -19 25 -45 93 -70c-43 -50 -71 -75 -103 -75c-37 0 -64 25 -64 66
c0 48 64 215 194 215c41 0 86 -17 134 -40l79 -39zM272 660c0 47 38 86 85 86s85 -39 85 -86c0 -46 -38 -85 -85 -85s-85 39 -85 85z" />
    <glyph glyph-name="f_f_h.alt" horiz-adv-x="1215" 
d="M223 -97c18 -47 33 -71 58 -71c23 0 50 39 69 134l93 461h-161l-68 -324c-58 -279 -237 -363 -311 -363c-55 0 -94 37 -94 79s36 72 84 82c20 -56 39 -95 67 -95c27 0 51 38 70 133l94 463c1 8 4 17 6 25h-83l10 62h96c75 157 244 225 323 225c58 0 94 -34 113 -56
c78 61 167 88 212 88c37 0 65 -10 83 -23l86 23l-115 -458h5c80 135 147 217 237 217c60 0 92 -37 92 -108c0 -216 -180 -415 -289 -415c-37 0 -48 19 -48 45c0 23 13 44 22 54c25 -12 47 -23 71 -22c37 60 83 212 83 287c0 21 -10 34 -28 34c-74 0 -170 -207 -198 -308
l-18 -65l-125 -24l-26 16l169 650c-24 19 -50 28 -73 28c-44 0 -89 -48 -120 -188h94l-10 -62h-97l-62 -297c-57 -279 -229 -363 -309 -363c-50 0 -72 31 -72 67c0 35 31 60 70 69zM408 641c-43 0 -82 -30 -112 -152h165c12 31 27 59 45 84c-30 43 -61 68 -98 68z" />
    <glyph glyph-name="f_h.alt" horiz-adv-x="902" 
d="M320 -1l168 650c-24 18 -48 28 -73 28c-38 0 -84 -31 -119 -188h99l-11 -62h-101l-69 -324c-58 -279 -237 -363 -311 -363c-55 0 -94 37 -94 79s36 72 84 82c20 -56 39 -95 67 -95c27 0 51 38 70 133l98 483c0 1 0 3 1 5h-82l10 62h91c75 193 275 257 339 257
c37 0 64 -9 82 -23l87 23l-114 -458h5c79 135 146 217 236 217c61 0 93 -37 93 -108c0 -216 -181 -415 -290 -415c-37 0 -48 19 -48 45c0 23 13 44 22 54c25 -12 47 -23 72 -22c37 60 82 212 82 287c0 21 -10 34 -28 34c-74 0 -172 -207 -198 -308l-17 -65l-125 -24z" />
    <glyph glyph-name="oneeighth" unicode="&#x215b;" horiz-adv-x="1006" 
d="M755 -17c-112 0 -178 44 -178 101c0 54 48 85 120 101c-49 30 -69 57 -69 101c0 68 78 124 183 124c119 0 152 -55 152 -89c0 -40 -30 -71 -103 -91c62 -32 96 -68 96 -112c0 -82 -90 -135 -201 -135zM762 27c40 0 68 20 68 54c0 26 -22 46 -61 64l-38 18
c-33 -15 -50 -40 -50 -73c0 -35 26 -63 81 -63zM821 250c26 15 42 35 42 62c0 36 -24 55 -61 55c-33 0 -54 -21 -54 -46c0 -24 10 -40 49 -59zM48 268l7 46l93 11l50 244h-107l4 46l251 49h9l-69 -341l88 -9l-10 -46h-316zM227 -84l-46 36l600 774l46 -35z" />
    <glyph glyph-name="onethird" unicode="&#x2153;" horiz-adv-x="980" 
d="M730 -17c-98 0 -157 40 -158 89c0 34 27 53 66 63c24 -78 63 -108 108 -108c33 0 62 23 62 61c0 50 -47 78 -131 88l7 44l30 6c79 16 106 50 106 77c0 29 -20 43 -53 43c-46 0 -81 -25 -113 -57l-35 30c58 68 110 90 189 90c82 0 138 -34 138 -86
c0 -50 -53 -89 -129 -101v-2c81 -9 123 -42 123 -96c0 -83 -94 -141 -210 -141zM48 268l7 46l93 11l50 244h-107l4 46l251 49h9l-69 -341l88 -9l-10 -46h-316zM227 -84l-46 36l600 774l46 -35z" />
    <glyph glyph-name="threeeighths" unicode="&#x215c;" horiz-adv-x="1009" 
d="M758 -17c-112 0 -178 44 -178 101c0 54 48 85 120 101c-49 30 -69 57 -69 101c0 68 78 124 183 124c119 0 152 -55 152 -89c0 -40 -30 -71 -103 -91c62 -32 96 -68 96 -112c0 -82 -90 -135 -201 -135zM765 27c40 0 68 20 68 54c0 26 -22 46 -61 64l-38 18
c-33 -15 -50 -40 -50 -73c0 -35 26 -63 81 -63zM824 250c26 15 42 35 42 62c0 36 -24 55 -61 55c-33 0 -54 -21 -54 -46c0 -24 10 -40 49 -59zM231 -84l-46 36l600 774l46 -35zM202 250c-98 0 -157 40 -158 89c0 34 27 53 66 63c24 -78 63 -108 108 -108c33 0 62 23 62 61
c0 50 -47 78 -131 88l7 44l30 6c79 16 106 50 106 77c0 29 -20 43 -53 43c-46 0 -81 -25 -113 -57l-35 30c58 68 110 90 189 90c82 0 138 -34 138 -86c0 -50 -53 -89 -129 -101v-2c81 -9 123 -42 123 -96c0 -83 -94 -141 -210 -141z" />
    <glyph glyph-name="fiveeighths" unicode="&#x215d;" horiz-adv-x="1017" 
d="M766 -17c-112 0 -178 44 -178 101c0 54 48 85 120 101c-49 30 -69 57 -69 101c0 68 78 124 183 124c119 0 152 -55 152 -89c0 -40 -30 -71 -103 -91c62 -32 96 -68 96 -112c0 -82 -90 -135 -201 -135zM773 27c40 0 68 20 68 54c0 26 -22 46 -61 64l-38 18
c-33 -15 -50 -40 -50 -73c0 -35 26 -63 81 -63zM832 250c26 15 42 35 42 62c0 36 -24 55 -61 55c-33 0 -54 -21 -54 -46c0 -24 10 -40 49 -59zM194 250c-84 0 -141 29 -140 71c1 32 38 47 68 54c21 -49 46 -79 97 -79c54 0 76 32 76 65c0 40 -42 64 -92 64
c-37 0 -66 -9 -101 -25l-13 6l60 258h277l-18 -93h-225l-17 -75c29 15 63 25 106 25c76 0 144 -34 144 -115c0 -110 -120 -156 -222 -156zM237 -84l-46 36l600 774l46 -35z" />
    <glyph glyph-name="twothirds" unicode="&#x2154;" horiz-adv-x="1015" 
d="M765 -17c-98 0 -157 40 -158 89c0 34 27 53 66 63c24 -78 63 -108 108 -108c33 0 62 23 62 61c0 50 -47 78 -131 88l7 44l30 6c79 16 106 50 106 77c0 29 -20 43 -53 43c-46 0 -81 -25 -113 -57l-35 30c58 68 110 90 189 90c82 0 138 -34 138 -86
c0 -50 -53 -89 -129 -101v-2c81 -9 123 -42 123 -96c0 -83 -94 -141 -210 -141zM34 268l10 41l104 71c79 54 136 102 136 157c0 29 -22 60 -62 60c-38 0 -69 -17 -108 -56l-34 29c43 61 99 110 188 110c77 0 143 -42 143 -114c0 -79 -86 -135 -205 -202l-2 -1h205l-19 -95
h-356zM262 -84l-46 36l600 774l46 -35z" />
    <glyph glyph-name="seveneighths" unicode="&#x215e;" horiz-adv-x="956" 
d="M705 -17c-112 0 -178 44 -178 101c0 54 48 85 120 101c-49 30 -69 57 -69 101c0 68 78 124 183 124c119 0 152 -55 152 -89c0 -40 -30 -71 -103 -91c62 -32 96 -68 96 -112c0 -82 -90 -135 -201 -135zM712 27c40 0 68 20 68 54c0 26 -22 46 -61 64l-38 18
c-33 -15 -50 -40 -50 -73c0 -35 26 -63 81 -63zM771 250c26 15 42 35 42 62c0 36 -24 55 -61 55c-33 0 -54 -21 -54 -46c0 -24 10 -40 49 -59zM89 268l241 289h-242l25 107h330l-4 -21l-237 -375h-113zM167 -84l-46 36l600 774l46 -35z" />
    <glyph glyph-name="Pcircle" unicode="&#x24c5;" horiz-adv-x="802" 
d="M69 327c7 193 167 346 358 346s340 -153 333 -346c-6 -193 -167 -345 -358 -345s-339 152 -333 345zM110 327c-5 -171 127 -307 295 -307c167 0 309 136 314 307c6 171 -126 308 -293 308c-168 0 -309 -137 -316 -308zM441 282l5 34c53 7 85 39 85 89c0 49 -44 76 -91 78
l-56 -295l62 -12l-7 -37h-229l7 39l53 10l54 279l-50 11l7 39h182c100 1 178 -39 178 -107c0 -90 -93 -128 -200 -128z" />
    <glyph glyph-name="dollar.lin" horiz-adv-x="574" 
d="M47 231h42l29 -160c16 -9 38 -19 66 -26l73 230l-25 12c-87 40 -137 84 -137 179c0 111 129 218 292 218l32 100h51l-33 -103c56 -6 98 -20 132 -28l-33 -195h-40l-23 136c-14 12 -34 22 -54 29l-69 -217l51 -23c79 -36 128 -84 128 -166c-1 -155 -172 -237 -309 -237h-5
l-33 -105h-51l34 110c-61 9 -117 31 -145 39zM385 151c0 47 -25 73 -83 103l-69 -217c6 -1 12 -1 18 -1c68 0 134 46 134 115zM231 526c0 -45 21 -73 74 -99l66 206h-11c-80 0 -129 -49 -129 -107z" />
    <glyph glyph-name="Euro.lin" horiz-adv-x="645" 
d="M60 377l14 60h92c102 175 306 241 388 241c75 0 122 -57 122 -95c0 -27 -21 -61 -81 -92c-40 72 -86 111 -131 111c-64 0 -124 -66 -159 -165h211l-13 -60h-216c-6 -23 -10 -47 -12 -71h210l-14 -59h-200v-13c0 -93 47 -142 121 -142c76 0 132 44 186 88l29 -35
c-89 -99 -168 -164 -294 -164c-137 0 -207 106 -207 222c0 15 1 29 2 44h-74l14 59h68c6 25 13 49 21 71h-77z" />
    <glyph glyph-name="sterling.lin" horiz-adv-x="757" 
d="M163 248l13 64h117l33 133c55 225 222 298 305 298c67 0 126 -57 125 -109c-2 -43 -34 -65 -101 -72c-11 69 -29 118 -65 118c-31 0 -54 -46 -87 -182l-46 -186h193l-13 -64h-199c-36 -96 -95 -160 -158 -202c37 -19 70 -39 94 -55l44 -28c82 -52 123 -86 156 -86
c39 0 47 79 48 139c63 0 101 -17 101 -64c0 -57 -110 -151 -214 -151c-81 0 -165 31 -261 134l-61 65c-41 -15 -78 -21 -102 -21c-46 0 -72 30 -72 65c0 39 36 67 81 67c33 0 76 -13 120 -32c23 38 45 89 60 152l4 17h-115z" />
    <glyph glyph-name="yen.lin" horiz-adv-x="681" 
d="M96 273l12 53h156l-109 275l-60 11l11 52h317l-9 -51l-86 -14l90 -231h2l176 226l-79 19l10 51h212l-10 -51l-63 -18l-213 -269h173l-11 -54h-185l-14 -69h185l-12 -54h-183l-16 -83l89 -14l-11 -52h-340l11 52l94 14l16 83h-179l11 54h179l14 70h-178z" />
    <glyph glyph-name="florin.lin" horiz-adv-x="542" 
d="M59 263l11 62h105l8 36c48 219 252 325 326 325c66 0 84 -38 84 -75c0 -41 -40 -77 -89 -93c-10 55 -24 94 -55 94c-41 0 -71 -52 -106 -224l-13 -63h145l-11 -62h-146l-24 -119c-65 -323 -269 -404 -342 -404c-54 0 -85 30 -85 75c0 42 43 76 92 86
c16 -56 28 -95 56 -95c27 0 55 37 76 133l70 324h-102z" />
    <glyph glyph-name="zero.lin" horiz-adv-x="682" 
d="M420 684c138 0 240 -92 240 -283c0 -186 -129 -421 -367 -421c-149 0 -241 108 -241 288c0 197 147 416 368 416zM301 29c107 0 182 295 182 457c0 95 -17 148 -70 148c-95 0 -186 -233 -186 -453c0 -101 23 -152 74 -152z" />
    <glyph glyph-name="one.lin" horiz-adv-x="442" 
d="M403 678l-121 -612l109 -14l-9 -52h-382l10 51l113 15l96 488l-129 -4l8 55l297 73h8z" />
    <glyph glyph-name="two.lin" horiz-adv-x="558" 
d="M229 158l-39 -24h313l-26 -134h-485l19 73l130 96c120 89 232 186 232 293c0 71 -42 105 -102 105c-44 0 -81 -21 -137 -66l-36 36c58 70 130 148 239 148c122 0 196 -73 197 -178c1 -134 -104 -224 -305 -349z" />
    <glyph glyph-name="three.lin" horiz-adv-x="513" 
d="M313 373v-4c100 -17 174 -65 174 -162c0 -156 -191 -223 -308 -223c-102 0 -177 50 -177 125c0 37 29 73 84 89c35 -102 82 -155 148 -155c52 0 102 38 102 99c0 79 -67 141 -203 171l9 40c149 56 206 109 206 165c0 44 -34 67 -73 67c-53 0 -98 -31 -151 -73l-30 32
c52 66 139 142 253 142c98 0 160 -56 160 -134c0 -83 -63 -129 -194 -179z" />
    <glyph glyph-name="four.lin" horiz-adv-x="614" 
d="M195 51l101 13l21 108h-299l13 66l427 438l103 -12l-77 -385h120l-21 -107h-120l-21 -106l90 -15l-10 -51h-337zM145 279h194l51 256z" />
    <glyph glyph-name="five.lin" horiz-adv-x="553" 
d="M550 664l-25 -134h-321l-29 -134c36 17 91 33 155 33c100 0 187 -56 187 -166c0 -186 -208 -279 -318 -279c-113 0 -186 37 -186 104c0 42 33 71 76 79c35 -83 81 -121 147 -121c73 0 130 58 130 137c0 84 -61 126 -121 126c-58 0 -93 -17 -144 -51l-27 10l91 396h385z
" />
    <glyph glyph-name="six.lin" horiz-adv-x="606" 
d="M613 663c-179 -54 -288 -162 -348 -274h3c27 25 66 55 137 55c84 0 173 -56 173 -182c0 -162 -150 -280 -310 -280c-131 0 -225 78 -225 244c0 228 255 454 561 483zM332 380c-32 0 -62 -15 -90 -42c-25 -62 -36 -123 -36 -174c0 -101 24 -135 70 -135
c74 0 129 108 129 239c0 73 -30 112 -73 112z" />
    <glyph glyph-name="seven.lin" horiz-adv-x="515" 
d="M174 0h-119l355 518h-345l31 146h454l-5 -27z" />
    <glyph glyph-name="eight.lin" horiz-adv-x="548" 
d="M11 136c-1 94 91 152 189 188c-62 49 -90 96 -91 159c-1 100 102 203 257 203c141 0 191 -72 191 -139c0 -75 -64 -131 -169 -173l18 -14c55 -42 103 -83 104 -155c0 -131 -141 -225 -272 -225c-139 0 -226 55 -227 156zM286 259l-52 39c-43 -31 -93 -82 -92 -156
c1 -54 29 -109 109 -109c63 0 113 48 113 108c0 47 -28 80 -78 118zM251 528c0 -44 30 -71 72 -104l31 -24c52 39 83 85 83 139c0 63 -39 94 -88 94c-46 0 -98 -33 -98 -105z" />
    <glyph glyph-name="nine.lin" horiz-adv-x="606" 
d="M16 -3c171 46 282 155 346 268h-3c-27 -22 -62 -41 -113 -41c-94 0 -182 56 -182 191c0 151 131 270 294 270c140 0 239 -91 239 -248c0 -229 -283 -468 -575 -483zM307 285c31 0 56 10 83 36c29 68 43 132 43 182c0 89 -22 136 -72 136c-70 0 -127 -108 -127 -241
c0 -66 23 -113 73 -113z" />
    <glyph glyph-name="percent.lin" horiz-adv-x="958" 
d="M174 -50l550 754h73l-550 -754h-73zM289 636c-57 0 -97 -133 -97 -212c0 -27 7 -73 42 -73c47 0 96 108 96 208c0 42 -12 77 -41 77zM227 303c-97 0 -159 65 -159 159c0 110 90 221 228 221c94 0 156 -66 156 -159c0 -111 -89 -221 -225 -221zM742 314
c-56 0 -97 -133 -97 -211c0 -28 7 -74 42 -74c47 0 96 108 96 209c0 41 -11 76 -41 76zM680 -19c-96 0 -158 65 -158 159c0 110 89 221 228 221c94 0 155 -66 155 -159c0 -111 -88 -221 -225 -221z" />
    <glyph glyph-name="perthousand.lin" horiz-adv-x="1395" 
d="M227 303c-97 0 -159 65 -159 159c0 110 90 221 228 221c94 0 156 -66 156 -159c0 -111 -89 -221 -225 -221zM290 636c-56 0 -98 -133 -98 -212c0 -27 5 -73 40 -73c47 0 98 108 98 208c0 42 -10 77 -40 77zM173 -50l550 754h73l-550 -754h-73zM680 -19
c-96 0 -158 65 -158 159c0 110 89 221 228 221c94 0 155 -66 155 -159c0 -111 -88 -221 -225 -221zM744 314c-57 0 -99 -133 -99 -211c0 -28 6 -74 40 -74c48 0 98 108 98 209c0 41 -10 76 -39 76zM1120 -19c-97 0 -158 65 -158 159c0 110 89 221 227 221
c95 0 156 -66 156 -159c0 -111 -89 -221 -225 -221zM1183 314c-56 0 -98 -133 -98 -211c0 -28 5 -74 40 -74c47 0 98 108 98 209c0 41 -10 76 -40 76z" />
    <glyph glyph-name="plus.lin" horiz-adv-x="558" 
d="M531 272h-201v-203h-71v203h-202v67h202v204h71v-204h201v-67z" />
    <glyph glyph-name="minus.lin" horiz-adv-x="558" 
d="M529 272h-474v67h474v-67z" />
    <glyph glyph-name="multiply.lin" horiz-adv-x="558" 
d="M467 76l-180 182l-177 -180l-46 46l181 182l-181 180l48 48l180 -180l180 185l45 -47l-179 -183l180 -181z" />
    <glyph glyph-name="divide.lin" horiz-adv-x="558" 
d="M529 273h-474v65h474v-65zM291 61c-44 0 -81 37 -81 82c0 43 37 81 81 81s82 -38 82 -81c0 -45 -38 -82 -82 -82zM292 386c-44 0 -81 37 -81 82c0 43 37 81 81 81s82 -38 82 -81c0 -45 -38 -82 -82 -82z" />
    <glyph glyph-name="equal.lin" horiz-adv-x="558" 
d="M55 362v63h474v-63h-474zM55 207v64h474v-64h-474z" />
    <glyph glyph-name="less.lin" horiz-adv-x="558" 
d="M528 483l-392 -179l392 -177v-72l-472 220v59l472 220v-71z" />
    <glyph glyph-name="greater.lin" horiz-adv-x="558" 
d="M56 126l392 179l-392 176v73l472 -220v-59l-472 -220v71z" />
    <glyph glyph-name="plusminus.lin" horiz-adv-x="557" 
d="M529 419h-202v-203h-70v203h-202v67h202v204h70v-204h202v-67zM529 0h-474v66h474v-66z" />
    <glyph glyph-name="notequal.lin" horiz-adv-x="558" 
d="M55 362v63h293l83 102h64l-84 -102h118v-63h-170l-75 -91h245v-64h-297l-83 -101h-61l82 101h-115v64h167l74 91h-241z" />
    <glyph glyph-name="approxequal.lin" horiz-adv-x="558" 
d="M104 340l-48 24c29 62 64 99 123 99c23 0 50 -5 76 -11l66 -16c30 -7 62 -16 88 -16c34 0 51 22 71 59l48 -24c-29 -63 -64 -97 -124 -97c-30 0 -66 7 -98 15l-65 17c-23 6 -45 12 -66 12c-34 0 -52 -26 -71 -62zM104 180l-48 24c29 62 64 99 123 99c23 0 50 -5 76 -11
l66 -16c30 -7 62 -16 88 -16c34 0 51 22 71 59l48 -24c-29 -63 -64 -97 -124 -97c-30 0 -66 7 -98 15l-65 17c-23 6 -45 12 -66 12c-34 0 -52 -26 -71 -62z" />
    <glyph glyph-name="lessequal.lin" horiz-adv-x="558" 
d="M528 524l-377 -140l377 -140v-70l-472 180v59l472 180v-69zM528 0h-473v66h473v-66z" />
    <glyph glyph-name="greaterequal.lin" horiz-adv-x="558" 
d="M432 383l-377 141v70l472 -180v-59l-472 -180v69zM528 0h-473v66h473v-66z" />
    <glyph glyph-name="numbersign.lin" horiz-adv-x="593" 
d="M117 447l12 60h108l57 153h62l-57 -153h134l57 153h61l-57 -153h105l-12 -60h-116l-64 -171h102l-12 -59h-112l-56 -151h-61l56 151h-133l-56 -151h-63l56 151h-101l12 59h111l64 171h-97zM276 447l-63 -171h133l64 171h-134z" />
    <glyph glyph-name="ordfeminine.lin" horiz-adv-x="484" 
d="M384 683h103l-86 -326h3c26 12 48 30 68 59l19 -14c-25 -62 -104 -133 -167 -133c-35 0 -67 27 -40 97l21 55h-6c-33 -55 -98 -156 -175 -156c-51 0 -78 34 -78 81c0 165 161 328 285 328c16 0 32 -6 46 -13zM186 359c38 0 113 94 142 188l18 61c-12 18 -25 26 -35 26
c-52 0 -141 -156 -141 -246c0 -20 5 -29 16 -29z" />
    <glyph glyph-name="ordmasculine.lin" horiz-adv-x="463" 
d="M190 370c0 -36 6 -67 31 -67c58 0 113 179 113 275c0 36 -10 68 -33 68c-57 0 -111 -180 -111 -276zM313 683c93 0 151 -67 151 -165c0 -124 -97 -253 -253 -253c-94 0 -151 67 -151 165c0 124 96 253 253 253z" />
    <glyph glyph-name="dollar.tab" 
d="M54 225h46l29 -153c15 -9 36 -17 60 -25l69 219l-29 13c-76 33 -125 80 -125 166c1 104 115 204 277 207l42 132h51l-43 -135c52 -6 96 -20 128 -28l-31 -182h-44l-22 130c-14 10 -30 20 -48 27l-66 -209l50 -21c77 -33 128 -77 128 -154c-1 -147 -173 -225 -302 -225h-3
l-35 -112h-51l36 116c-60 9 -117 30 -143 38zM384 149c1 47 -27 73 -80 98l-67 -209s6 -1 16 -1c68 0 131 44 131 112zM236 503c0 -40 16 -72 67 -96l64 200h-11c-78 0 -120 -51 -120 -104z" />
    <glyph glyph-name="Euro.tab" 
d="M52 347l14 59h66c88 178 286 240 365 240c70 0 120 -43 120 -85c0 -26 -23 -66 -76 -95c-42 64 -86 108 -125 108c-54 0 -108 -72 -138 -168h178l-13 -59h-179c-5 -23 -8 -47 -10 -70h175l-14 -60h-161c8 -86 65 -130 120 -130c67 0 111 28 150 61l31 -38
c-61 -74 -142 -129 -248 -129c-146 0 -217 100 -217 231v5h-61l14 60h51c4 25 9 48 15 70h-57z" />
    <glyph glyph-name="sterling.tab" 
d="M88 244l14 67h91l18 75c45 189 203 266 297 266c72 0 132 -46 132 -109c0 -41 -30 -64 -97 -71c-11 68 -39 118 -74 118c-32 0 -55 -42 -79 -142l-34 -137h149l-14 -67h-151c-26 -93 -88 -157 -153 -198c25 -14 50 -30 74 -46l32 -22c90 -62 128 -111 158 -111
c23 0 39 35 41 138c61 0 97 -20 100 -59c6 -64 -101 -150 -189 -150c-80 0 -148 35 -254 148l-53 56c-34 -11 -63 -17 -81 -17c-44 0 -64 20 -64 52c0 31 35 57 78 57c32 0 64 -7 96 -18c17 35 31 83 46 144l6 26h-89z" />
    <glyph glyph-name="yen.tab" 
d="M64 262l10 54h123l-96 258l-59 10l10 53h317l-9 -51l-85 -14l81 -225h2l165 220l-80 19l10 51h212l-10 -51l-62 -18l-191 -252h132l-10 -54h-154l-14 -69h154l-11 -54h-153l-14 -73l89 -14l-11 -52h-340l11 52l95 14l14 73h-150l10 54h151l13 69h-150z" />
    <glyph glyph-name="florin.tab" 
d="M65 263l10 62h133c55 190 226 282 295 282c65 0 84 -35 84 -71c0 -43 -39 -83 -79 -97c-15 55 -33 95 -63 95c-40 0 -61 -53 -85 -209h160l-11 -62h-159l-18 -121c-49 -324 -240 -402 -314 -402c-55 0 -92 37 -92 79s37 72 85 82c20 -56 36 -95 64 -95c27 0 44 41 61 136
l59 321h-130z" />
    <glyph glyph-name="zero.tab" 
d="M339 488c-88 0 -145 -214 -145 -339c0 -83 11 -120 55 -120c78 0 148 173 148 334c0 83 -12 125 -58 125zM241 -18c-126 0 -206 93 -206 233c0 160 119 320 319 320c125 0 204 -97 204 -232c0 -162 -118 -321 -317 -321z" />
    <glyph glyph-name="one.tab" 
d="M446 534l-92 -460l133 -22l-10 -52h-447l9 51l159 23l69 356h-153l7 56l320 48h5z" />
    <glyph glyph-name="two.tab" 
d="M239 139l-29 -17h283l-20 -122h-456l11 59l82 56c132 90 219 150 219 229c0 45 -37 80 -92 80c-45 0 -72 -12 -113 -47l-32 31c69 91 115 126 205 126c117 0 177 -73 177 -147c0 -103 -91 -164 -235 -248z" />
    <glyph glyph-name="three.tab" 
d="M22 -251l-13 44c148 43 287 113 287 216c0 76 -71 113 -160 113h-21l12 80l40 10c67 17 180 64 180 141c0 42 -31 77 -88 77c-45 0 -86 -17 -125 -52l-32 29c43 56 110 128 223 128c111 0 164 -63 164 -133c0 -99 -103 -150 -179 -185l-18 -9c85 -12 159 -77 159 -164
c0 -160 -219 -260 -429 -295z" />
    <glyph glyph-name="four.tab" 
d="M230 -205l43 217h-292l12 65l441 457h82l-83 -416h100l-21 -106h-100l-43 -217h-139zM104 118h190l49 250z" />
    <glyph glyph-name="five.tab" 
d="M277 45c0 76 -71 135 -173 216l85 247l324 30l-27 -127l-288 -26l-5 -15c122 -77 240 -164 240 -279c0 -169 -194 -287 -423 -340l-13 45c145 62 280 142 280 249z" />
    <glyph glyph-name="six.tab" 
d="M638 689c-184 -87 -295 -183 -359 -276h4c28 15 56 26 96 26c96 0 165 -70 165 -193c0 -156 -123 -264 -284 -264c-138 0 -221 79 -221 237c0 266 300 450 588 515zM312 377c-25 0 -47 -7 -69 -24c-36 -72 -47 -141 -47 -203c0 -82 19 -121 70 -121c69 0 116 108 116 227
c0 79 -21 121 -70 121z" />
    <glyph glyph-name="seven.tab" 
d="M97 -232l-71 50l418 562h-362l28 137h486l-5 -26l-373 -537z" />
    <glyph glyph-name="eight.tab" 
d="M41 128c0 109 100 165 182 195l-10 10c-46 42 -75 77 -75 146c0 95 97 205 239 205c137 0 190 -69 190 -133c0 -72 -63 -128 -163 -173l23 -21c56 -51 93 -88 93 -156c0 -125 -136 -221 -269 -221c-126 0 -210 56 -210 148zM318 237l-63 57c-41 -30 -87 -79 -87 -149
c0 -50 26 -109 104 -109c61 0 101 45 101 98c0 43 -19 70 -55 103zM284 539c0 -45 28 -77 63 -109l26 -24c45 40 77 86 77 142c0 49 -34 81 -79 81s-87 -30 -87 -90z" />
    <glyph glyph-name="nine.tab" 
d="M-47 -172c186 86 297 181 362 275h-3c-22 -15 -49 -30 -99 -30c-86 0 -167 64 -167 186c0 161 118 275 281 275c143 0 226 -94 226 -239c0 -263 -302 -451 -590 -514zM273 135c31 0 53 10 80 33c35 73 46 143 46 204c0 78 -24 115 -74 115c-64 0 -116 -108 -116 -239
c0 -78 19 -113 64 -113z" />
    <glyph glyph-name="cent.tab" 
d="M173 -125l35 108c-98 1 -141 70 -141 156c0 145 86 256 187 316c46 27 86 40 123 45l39 121h49l-39 -119c53 -4 95 -34 95 -69c0 -34 -43 -73 -62 -87c-24 33 -41 59 -59 76l-113 -345c49 2 105 51 159 117l27 -21c-27 -55 -103 -161 -215 -185l-37 -113h-48zM346 445
c-70 0 -130 -141 -130 -283c0 -39 10 -62 26 -74l116 356c-4 0 -8 1 -12 1z" />
    <glyph glyph-name="percent.tab" horiz-adv-x="900" 
d="M242 563c-53 0 -90 -133 -90 -212c0 -55 9 -74 39 -74c43 0 88 109 88 209c0 56 -11 77 -37 77zM182 230c-99 0 -149 70 -149 158c0 110 80 221 215 221c99 0 149 -67 149 -158c0 -111 -79 -221 -215 -221zM148 -50l503 687h72l-503 -687h-72zM688 314
c-53 0 -89 -133 -89 -211c0 -55 9 -74 38 -74c43 0 88 108 88 209c0 56 -11 76 -37 76zM628 -19c-98 0 -148 71 -148 159c0 110 79 221 215 221c98 0 148 -68 148 -159c0 -111 -79 -221 -215 -221z" />
    <glyph glyph-name="perthousand.tab" horiz-adv-x="1200" 
d="M105 -50l502 687h72l-503 -687h-71zM206 563c-53 0 -89 -133 -89 -212c0 -55 9 -74 39 -74c43 0 87 109 87 209c0 56 -10 77 -37 77zM147 230c-90 0 -136 70 -136 158c0 110 75 221 202 221c90 0 140 -67 140 -158c0 -111 -79 -221 -206 -221zM632 314
c-53 0 -90 -133 -90 -211c0 -55 9 -74 39 -74c43 0 88 108 88 209c0 56 -11 76 -37 76zM572 -19c-90 0 -136 71 -136 159c0 110 75 221 202 221c90 0 140 -68 140 -159c0 -111 -79 -221 -206 -221zM1019 314c-53 0 -89 -133 -89 -211c0 -55 9 -74 39 -74c43 0 87 108 87 209
c0 56 -10 76 -37 76zM960 -19c-90 0 -136 71 -136 159c0 110 75 221 202 221c90 0 140 -68 140 -159c0 -111 -79 -221 -206 -221z" />
    <glyph glyph-name="plus.tab" 
d="M533 204h-202v-204h-71v204h-201v66h201v204h71v-204h202v-66z" />
    <glyph glyph-name="minus.tab" 
d="M530 204h-474v66h474v-66z" />
    <glyph glyph-name="multiply.tab" 
d="M460 8l-180 181l-177 -180l-46 47l181 181l-181 180l48 49l180 -181l180 186l45 -47l-179 -183l180 -182z" />
    <glyph glyph-name="divide.tab" 
d="M533 205h-474v64h474v-64zM295 -7c-44 0 -81 37 -81 82c0 42 37 80 81 80s81 -38 81 -80c0 -45 -37 -82 -81 -82zM296 318c-44 0 -81 37 -81 82c0 42 37 80 81 80s81 -38 81 -80c0 -45 -37 -82 -81 -82z" />
    <glyph glyph-name="equal.tab" 
d="M56 293v64h474v-64h-474zM56 139v63h474v-63h-474z" />
    <glyph glyph-name="less.tab" 
d="M529 414l-392 -179l392 -177v-72l-472 220v59l472 220v-71z" />
    <glyph glyph-name="greater.tab" 
d="M58 57l392 179l-392 177v72l472 -220v-59l-472 -220v71z" />
    <glyph glyph-name="plusminus.tab" 
d="M529 351h-202v-204h-70v204h-202v66h202v204h70v-204h202v-66zM529 0h-474v66h474v-66z" />
    <glyph glyph-name="notequal.tab" 
d="M56 293v64h293l83 101h65l-83 -101h116v-64h-169l-75 -91h244v-63h-295l-84 -102h-62l83 102h-116v63h167l74 91h-241z" />
    <glyph glyph-name="approxequal.tab" 
d="M105 272l-47 23c29 62 64 99 123 99c23 0 50 -5 76 -11l66 -16c30 -7 62 -16 88 -16c34 0 51 22 71 59l47 -23c-29 -63 -64 -97 -124 -97c-30 0 -66 7 -98 15l-65 17c-23 6 -45 12 -66 12c-34 0 -52 -26 -71 -62zM104 112l-48 23c29 62 64 99 123 99c23 0 50 -5 76 -11
l66 -16c30 -7 62 -16 88 -16c34 0 51 22 71 59l48 -23c-29 -63 -64 -97 -124 -97c-30 0 -66 7 -98 15l-65 17c-23 6 -45 12 -66 12c-34 0 -52 -26 -71 -62z" />
    <glyph glyph-name="lessequal.tab" 
d="M530 456l-378 -141l378 -139v-70l-472 180v59l472 180v-69zM530 0h-474v66h474v-66z" />
    <glyph glyph-name="greaterequal.tab" 
d="M425 315l-377 140v70l472 -180v-59l-472 -180v69zM521 0h-473v66h473v-66z" />
    <glyph glyph-name="parenleft.tab" horiz-adv-x="300" 
d="M261 -179h-84c-75 89 -121 221 -121 356c0 223 134 423 309 556h93c-175 -153 -284 -336 -284 -600c0 -114 32 -221 87 -312z" />
    <glyph glyph-name="parenright.tab" horiz-adv-x="300" 
d="M33 733h84c75 -90 121 -225 121 -360c0 -222 -135 -420 -308 -552h-93c174 153 284 336 284 600c0 114 -32 221 -88 312z" />
    <glyph glyph-name="bracketleft.tab" horiz-adv-x="300" 
d="M197 -181h-211l184 914h211l-11 -56h-98l-161 -802h97z" />
    <glyph glyph-name="bracketright.tab" horiz-adv-x="300" 
d="M104 733h212l-185 -914h-210l11 56h97l162 802h-98z" />
    <glyph glyph-name="braceleft.tab" horiz-adv-x="300" 
d="M141 291v-3c58 -19 88 -52 72 -133l-32 -171c-18 -93 -5 -116 68 -116l-10 -49h-19c-134 0 -173 62 -149 179l38 183c12 54 -1 74 -44 76l-28 1l14 71l37 1c37 1 56 19 63 56l33 191c18 107 76 156 220 156h18l-10 -49c-73 0 -95 -16 -118 -121l-32 -155
c-15 -67 -55 -108 -121 -117z" />
    <glyph glyph-name="braceright.tab" horiz-adv-x="300" 
d="M165 261v3c-58 19 -88 52 -72 133l32 171c18 93 5 116 -68 116l10 49h20c133 0 172 -62 148 -179l-38 -183c-11 -54 1 -74 45 -76l27 -1l-14 -71l-37 -1c-37 -1 -56 -19 -62 -56l-33 -191c-19 -107 -76 -156 -221 -156h-18l10 49c73 0 95 16 118 121l33 155
c14 67 54 108 120 117z" />
    <glyph glyph-name="numbersign.tab" 
d="M111 381l12 60h108l57 153h62l-57 -153h133l57 153h62l-57 -153h105l-12 -60h-116l-63 -170h101l-12 -60h-112l-56 -151h-62l56 151h-132l-56 -151h-63l56 151h-101l12 60h112l63 170h-97zM270 381l-63 -170h133l63 170h-133z" />
    <glyph glyph-name="period.tab" horiz-adv-x="300" 
d="M121 -13c-47 0 -87 40 -87 87c0 48 40 87 87 87c48 0 88 -39 88 -87c0 -47 -40 -87 -88 -87z" />
    <glyph glyph-name="comma.tab" horiz-adv-x="300" 
d="M-47 -153c104 47 149 88 149 146c0 38 -18 66 -72 93c3 51 29 105 93 105c55 0 105 -43 105 -131c0 -115 -111 -213 -253 -257c0 0 -21 43 -22 44z" />
    <glyph glyph-name="colon.tab" horiz-adv-x="300" 
d="M120 -13c-47 0 -87 40 -87 87c0 48 40 87 87 87c48 0 88 -39 88 -87c0 -47 -40 -87 -88 -87zM186 324c-47 0 -87 40 -87 86c0 48 40 88 87 88c48 0 88 -40 88 -88c0 -46 -40 -86 -88 -86z" />
    <glyph glyph-name="semicolon.tab" horiz-adv-x="300" 
d="M-49 -153c104 47 149 88 149 146c0 38 -18 66 -72 93c3 51 28 105 92 105c55 0 106 -43 106 -131c0 -115 -111 -213 -253 -257c0 0 -22 43 -22 44zM183 333c-47 0 -87 39 -87 86c0 48 40 88 87 88c48 0 88 -40 88 -88c0 -47 -40 -86 -88 -86z" />
    <glyph glyph-name="space.tab" horiz-adv-x="300" 
 />
    <glyph glyph-name="dollar.lintab" 
d="M55 231h42l30 -160c16 -10 37 -19 64 -27l74 231l-26 12c-87 40 -137 87 -137 174c1 116 129 223 292 223l32 100h51l-33 -103c56 -6 98 -20 132 -28l-34 -195h-40l-24 135c-14 11 -32 22 -52 29l-69 -216l48 -21c82 -38 131 -86 131 -168c-1 -155 -172 -237 -309 -237
h-5l-33 -105h-51l34 110c-61 9 -116 30 -144 39zM392 151c0 47 -25 73 -83 103l-69 -217c6 -1 12 -1 18 -1c68 0 134 46 134 115zM238 524c0 -43 22 -71 75 -97l65 206h-11c-80 0 -129 -49 -129 -109z" />
    <glyph glyph-name="Euro.lintab" 
d="M66 377l13 60h74c98 175 293 241 378 241c62 0 103 -50 103 -93c0 -29 -21 -63 -81 -95c-32 80 -86 112 -120 112c-59 0 -116 -64 -149 -165h177l-14 -60h-179c-5 -23 -9 -46 -11 -71h172l-14 -59h-160v-3c0 -103 40 -152 114 -152s108 21 162 65l29 -36
c-89 -98 -164 -140 -270 -140c-136 0 -194 106 -194 222c0 15 1 29 2 44h-59l14 59h53c5 25 11 49 20 71h-60z" />
    <glyph glyph-name="sterling.lintab" 
d="M83 247l13 64h97l32 134c52 224 218 298 301 298c68 0 127 -57 125 -109c-1 -43 -33 -65 -101 -72c-10 69 -28 118 -64 118c-31 0 -52 -46 -84 -182l-44 -187h179l-13 -64h-185c-35 -95 -95 -159 -155 -201c19 -10 37 -21 53 -31l51 -33c82 -53 132 -105 170 -105
c32 0 43 74 43 139c64 0 101 -18 101 -64c0 -62 -109 -151 -194 -151c-80 0 -166 39 -266 148l-47 50c-36 -14 -65 -20 -78 -20c-43 0 -65 28 -65 61c0 36 30 65 67 65c27 0 64 -12 103 -28c20 37 38 90 53 154l3 16h-95z" />
    <glyph glyph-name="yen.lintab" 
d="M64 273l11 53h131l-96 275l-59 11l10 52h318l-10 -51l-85 -14l77 -231h2l167 226l-80 19l11 51h212l-11 -51l-62 -18l-200 -269h149l-10 -54h-165l-13 -70h161l-12 -53h-159l-16 -83l88 -14l-10 -52h-340l10 52l95 14l16 83h-159l12 53h158l14 71h-155z" />
    <glyph glyph-name="florin.lintab" 
d="M61 263l10 62h133l8 36c48 219 252 325 326 325c66 0 84 -38 84 -75c0 -41 -41 -77 -89 -93c-11 55 -24 94 -55 94c-41 0 -71 -52 -106 -224l-13 -63h170l-11 -62h-171l-24 -119c-65 -323 -269 -404 -342 -404c-55 0 -85 30 -85 75c0 42 43 76 92 86
c16 -56 28 -95 56 -95c27 0 54 37 75 133l71 324h-129z" />
    <glyph glyph-name="zero.lintab" 
d="M379 684c115 0 203 -92 203 -257c0 -171 -109 -447 -349 -447c-125 0 -204 106 -204 260c0 211 137 444 350 444zM246 29c84 0 166 292 166 502c0 69 -13 103 -47 103c-76 0 -169 -263 -169 -495c0 -71 15 -110 50 -110z" />
    <glyph glyph-name="one.lintab" 
d="M481 678l-119 -605l133 -17l-11 -56h-440l10 55l149 18l94 481l-163 -4l8 56l331 72h8z" />
    <glyph glyph-name="two.lintab" 
d="M237 157l-38 -23h313l-26 -134h-484l19 73l132 98c121 90 230 184 230 291c0 71 -43 105 -103 105c-44 0 -81 -21 -137 -66l-35 36c57 70 130 148 238 148c122 0 197 -73 197 -178c1 -134 -105 -226 -306 -350z" />
    <glyph glyph-name="three.lintab" 
d="M345 372v-3c101 -17 175 -65 175 -162c0 -156 -192 -223 -308 -223c-103 0 -170 50 -170 125c0 37 29 73 84 89c32 -105 73 -155 141 -155c53 0 102 39 102 99c0 79 -68 141 -205 171l9 40c150 56 209 109 209 165c0 42 -32 66 -73 66c-54 0 -91 -27 -144 -72l-31 34
c52 68 131 140 244 140c103 0 163 -58 163 -134c0 -83 -65 -130 -196 -180z" />
    <glyph glyph-name="four.lintab" 
d="M180 51l96 13l21 107h-282l13 65l410 440l102 -12l-78 -391h91l-21 -102h-90l-21 -105l87 -15l-10 -51h-329zM133 273h185l48 245z" />
    <glyph glyph-name="five.lintab" 
d="M564 664l-26 -134h-313l-29 -134c36 17 85 33 150 33c100 0 185 -56 185 -166c0 -186 -203 -279 -313 -279c-113 0 -184 37 -184 104c0 42 33 71 76 79c35 -83 79 -121 145 -121c73 0 125 58 125 137c0 84 -60 126 -119 126c-58 0 -88 -17 -140 -51l-27 10l92 396h378z
" />
    <glyph glyph-name="six.lintab" 
d="M602 662c-179 -54 -287 -163 -346 -274h3c28 25 65 56 133 56c88 0 162 -59 162 -182c0 -162 -136 -280 -289 -280c-137 0 -223 78 -223 244c0 226 244 453 551 483zM321 380c-31 0 -61 -15 -89 -43c-25 -62 -35 -123 -35 -173c0 -101 24 -135 70 -135
c73 0 114 108 114 239c0 72 -16 112 -60 112z" />
    <glyph glyph-name="seven.lintab" 
d="M229 0h-126l364 518h-378l31 146h487l-4 -27z" />
    <glyph glyph-name="eight.lintab" 
d="M32 136c-1 94 91 153 189 188c-61 47 -91 95 -92 159c-1 100 102 203 257 203c141 0 190 -72 191 -139c0 -76 -64 -131 -170 -174l18 -13c55 -42 104 -83 105 -155c1 -131 -141 -225 -271 -225c-140 0 -226 55 -227 156zM308 259l-52 39c-43 -31 -94 -82 -94 -156
c1 -54 30 -109 110 -109c63 0 113 48 112 108c0 47 -26 80 -76 118zM271 528c0 -44 27 -72 71 -104l31 -25c52 40 83 85 83 140c0 63 -38 94 -87 94c-46 0 -98 -33 -98 -105z" />
    <glyph glyph-name="nine.lintab" 
d="M14 -1c164 50 271 156 334 266h-2c-27 -22 -63 -41 -114 -41c-93 0 -168 57 -168 191c0 151 117 271 279 271c141 0 232 -92 232 -249c0 -232 -272 -467 -555 -481zM300 285c25 0 50 11 78 37c29 67 42 131 42 181c0 89 -23 136 -73 136c-70 0 -114 -108 -114 -231
c0 -87 15 -123 67 -123z" />
    <glyph glyph-name="percent.lintab" horiz-adv-x="900" 
d="M137 -50l550 754h73l-550 -754h-73zM269 636c-57 0 -93 -133 -93 -212c0 -27 3 -73 38 -73c47 0 91 108 91 208c0 42 -7 77 -36 77zM207 303c-88 0 -150 65 -150 159c0 110 81 221 219 221c86 0 148 -66 148 -159c0 -111 -81 -221 -217 -221zM687 314
c-56 0 -92 -133 -92 -211c0 -28 3 -74 37 -74c48 0 92 108 92 209c0 41 -7 76 -37 76zM626 -19c-89 0 -150 65 -150 159c0 110 81 221 219 221c86 0 147 -66 147 -159c0 -111 -80 -221 -216 -221z" />
    <glyph glyph-name="perthousand.lintab" horiz-adv-x="1200" 
d="M168 303c-80 0 -142 65 -142 159c0 110 73 221 211 221c77 0 139 -66 139 -159c0 -111 -72 -221 -208 -221zM223 636c-37 0 -84 -97 -83 -202c1 -70 13 -83 38 -83c40 0 84 106 82 202c-1 71 -15 83 -37 83zM89 -50l550 754h73l-550 -754h-73zM569 -19
c-79 0 -141 65 -141 159c0 110 72 221 211 221c77 0 138 -66 138 -159c0 -111 -72 -221 -208 -221zM625 314c-37 0 -84 -97 -82 -202c1 -70 13 -83 37 -83c40 0 84 106 83 202c-1 71 -15 83 -38 83zM968 -19c-80 0 -142 65 -142 159c0 110 72 221 211 221
c77 0 138 -66 138 -159c0 -111 -71 -221 -207 -221zM1022 314c-37 0 -84 -97 -82 -202c1 -70 13 -83 37 -83c40 0 85 106 83 202c-1 71 -15 83 -38 83z" />
    <glyph glyph-name="numbersign.lintab" 
d="M118 447l12 60h108l57 153h62l-57 -153h133l57 153h62l-57 -153h105l-12 -60h-116l-64 -171h102l-12 -59h-112l-56 -151h-62l56 151h-132l-56 -151h-63l56 151h-101l12 59h111l64 171h-97zM277 447l-63 -171h132l64 171h-133z" />
    <glyph glyph-name="plus.lintab" 
d="M552 272h-202v-203h-70v203h-202v67h202v204h70v-204h202v-67z" />
    <glyph glyph-name="minus.lintab" 
d="M549 272h-474v67h474v-67z" />
    <glyph glyph-name="multiply.lintab" 
d="M488 76l-180 182l-177 -180l-46 46l181 182l-181 180l48 48l180 -180l180 185l45 -47l-179 -183l180 -181z" />
    <glyph glyph-name="divide.lintab" 
d="M549 273h-474v65h474v-65zM311 61c-43 0 -80 37 -80 82c0 43 37 81 80 81c44 0 82 -38 82 -81c0 -45 -38 -82 -82 -82zM312 386c-43 0 -80 37 -80 82c0 43 37 81 80 81c44 0 82 -38 82 -81c0 -45 -38 -82 -82 -82z" />
    <glyph glyph-name="equal.lintab" 
d="M75 362v63h474v-63h-474zM75 207v64h474v-64h-474z" />
    <glyph glyph-name="less.lintab" 
d="M548 482l-391 -178l391 -177v-72l-472 220v59l472 220v-72z" />
    <glyph glyph-name="greater.lintab" 
d="M76 126l392 179l-392 176v73l472 -220v-59l-472 -220v71z" />
    <glyph glyph-name="plusminus.lintab" 
d="M550 419h-201v-203h-71v203h-202v67h202v204h71v-204h201v-67zM550 0h-474v66h474v-66z" />
    <glyph glyph-name="notequal.lintab" 
d="M75 362v63h294l83 102h64l-84 -102h117v-63h-169l-75 -91h244v-64h-296l-83 -101h-61l82 101h-116v64h168l74 91h-242z" />
    <glyph glyph-name="approxequal.lintab" 
d="M124 340l-47 24c29 62 64 99 123 99c23 0 50 -5 76 -11l66 -16c30 -7 62 -16 88 -16c34 0 51 22 71 59l47 -24c-29 -63 -64 -97 -124 -97c-30 0 -66 7 -98 15l-65 17c-23 6 -45 12 -66 12c-34 0 -52 -26 -71 -62zM124 180l-47 24c29 62 64 99 123 99c23 0 50 -5 76 -11
l66 -16c30 -7 62 -16 88 -16c34 0 51 22 71 59l47 -24c-29 -63 -64 -97 -124 -97c-30 0 -66 7 -98 15l-65 17c-23 6 -45 12 -66 12c-34 0 -52 -26 -71 -62z" />
    <glyph glyph-name="lessequal.lintab" 
d="M549 524l-377 -140l377 -140v-69l-472 180v59l472 180v-70zM549 0h-473v66h473v-66z" />
    <glyph glyph-name="greaterequal.lintab" 
d="M453 384l-377 140v70l472 -180v-59l-472 -180v69zM549 0h-473v66h473v-66z" />
    <glyph glyph-name="parenleft.uctab" horiz-adv-x="300" 
d="M250 -140h-84c-76 89 -122 222 -122 356c0 223 135 424 309 556h94c-174 -152 -285 -335 -285 -596c0 -115 31 -224 88 -316z" />
    <glyph glyph-name="parenright.uctab" horiz-adv-x="300" 
d="M64 772h84c75 -90 120 -222 120 -356c0 -233 -134 -423 -308 -556h-93c173 151 284 335 284 595c0 116 -31 225 -87 317z" />
    <glyph glyph-name="bracketleft.uctab" horiz-adv-x="300" 
d="M204 -141h-212l185 914h211l-11 -56h-98l-161 -802h97z" />
    <glyph glyph-name="bracketright.uctab" horiz-adv-x="300" 
d="M106 773h212l-185 -914h-210l11 56h97l162 802h-98z" />
    <glyph glyph-name="braceleft.uctab" horiz-adv-x="300" 
d="M134 331v-3c59 -19 88 -52 72 -133l-32 -171c-18 -93 -4 -116 68 -116l-10 -49h-19c-133 0 -173 62 -149 179l38 183c12 54 -1 74 -44 76l-28 1l14 71l37 1c38 1 56 19 63 56l33 191c18 107 76 156 220 156h18l-10 -49c-72 0 -95 -16 -118 -121l-32 -155
c-15 -67 -54 -108 -121 -117z" />
    <glyph glyph-name="braceright.uctab" horiz-adv-x="300" 
d="M182 301v3c-58 19 -88 52 -72 133l32 171c18 93 5 116 -68 116l10 49h19c134 0 173 -62 149 -179l-38 -183c-12 -54 1 -74 44 -76l28 -1l-14 -71l-37 -1c-37 -1 -56 -19 -63 -56l-33 -191c-18 -107 -76 -156 -220 -156h-18l10 49c73 0 95 16 118 121l32 155
c15 67 55 108 121 117z" />
    <glyph glyph-name="zero.num" horiz-adv-x="522" 
d="M271 250c-122 0 -193 85 -193 189c0 118 103 237 261 237c109 0 193 -71 193 -186c0 -106 -98 -240 -261 -240zM278 297c57 -1 108 103 108 234c0 58 -18 97 -54 97c-59 0 -108 -102 -108 -229c0 -62 20 -101 54 -102z" />
    <glyph glyph-name="one.num" horiz-adv-x="373" 
d="M48 268l7 46l93 11l50 244h-107l4 46l251 49h9l-69 -341l88 -9l-10 -46h-316z" />
    <glyph glyph-name="two.num" horiz-adv-x="411" 
d="M34 268l10 41l104 71c79 54 136 102 136 157c0 29 -22 60 -62 60c-38 0 -69 -17 -108 -56l-34 29c43 61 99 110 188 110c77 0 143 -42 143 -114c0 -79 -86 -135 -205 -202l-2 -1h205l-19 -95h-356z" />
    <glyph glyph-name="three.num" horiz-adv-x="405" 
d="M202 250c-98 0 -157 40 -158 89c0 34 27 53 66 63c24 -78 63 -108 108 -108c33 0 62 23 62 61c0 50 -47 78 -131 88l7 44l30 6c79 16 106 50 106 77c0 29 -20 43 -53 43c-46 0 -81 -25 -113 -57l-35 30c58 68 110 90 189 90c82 0 138 -34 138 -86
c0 -50 -53 -89 -129 -101v-2c81 -9 123 -42 123 -96c0 -83 -94 -141 -210 -141z" />
    <glyph glyph-name="four.num" horiz-adv-x="447" 
d="M236 268l16 84h-202l10 50l314 275l66 -10l-50 -246h76l-14 -69h-75l-17 -84h-124zM149 421h117l25 129z" />
    <glyph glyph-name="five.num" horiz-adv-x="416" 
d="M194 250c-84 0 -141 29 -140 71c1 32 38 47 68 54c21 -49 46 -79 97 -79c54 0 76 32 76 65c0 40 -42 64 -92 64c-37 0 -66 -9 -101 -25l-13 6l60 258h277l-18 -93h-225l-17 -75c29 15 63 25 106 25c76 0 144 -34 144 -115c0 -110 -120 -156 -222 -156z" />
    <glyph glyph-name="six.num" horiz-adv-x="470" 
d="M266 250c-118 0 -186 66 -186 168c0 151 154 253 379 273l5 -43c-129 -29 -185 -75 -217 -136c22 15 50 21 88 21c74 0 138 -41 138 -121c0 -96 -88 -162 -207 -162zM263 295c49 0 77 63 77 125c0 43 -22 64 -49 64c-23 0 -39 -4 -56 -16c-12 -30 -17 -67 -17 -102
c0 -43 11 -71 45 -71z" />
    <glyph glyph-name="seven.num" horiz-adv-x="394" 
d="M89 268l241 289h-242l25 107h330l-4 -21l-237 -375h-113z" />
    <glyph glyph-name="eight.num" horiz-adv-x="438" 
d="M235 250c-112 0 -178 44 -178 101c0 54 48 85 120 101c-49 30 -69 57 -69 101c0 68 78 124 183 124c119 0 152 -55 152 -89c0 -40 -30 -71 -103 -91c62 -32 96 -68 96 -112c0 -82 -90 -135 -201 -135zM242 294c40 0 68 20 68 54c0 26 -22 46 -61 64l-38 18
c-33 -15 -50 -40 -50 -73c0 -35 26 -63 81 -63zM301 517c26 15 42 35 42 62c0 36 -24 55 -61 55c-33 0 -54 -21 -54 -46c0 -24 10 -40 49 -59z" />
    <glyph glyph-name="nine.num" horiz-adv-x="470" 
d="M292 677c122 0 186 -67 186 -170c0 -150 -169 -261 -385 -274l-7 43c131 31 196 80 227 138c-22 -14 -51 -20 -89 -20c-75 0 -138 41 -138 120c0 97 88 163 206 163zM295 632c-48 0 -79 -58 -79 -126c0 -43 24 -63 52 -63c23 0 40 3 56 16c13 30 17 66 17 101
c0 44 -12 72 -46 72z" />
    <glyph glyph-name="zero.den" horiz-adv-x="522" 
d="M222 -17c-121 0 -193 85 -193 188c0 119 103 238 261 238c110 0 193 -71 193 -187c0 -106 -98 -239 -261 -239zM229 30c57 -1 109 103 109 233c0 59 -19 98 -55 98c-59 0 -108 -103 -108 -229c0 -63 21 -101 54 -102z" />
    <glyph glyph-name="one.den" horiz-adv-x="373" 
d="M-1 0l7 47l93 11l50 244h-106l3 45l252 50h8l-69 -341l88 -9l-9 -47h-317z" />
    <glyph glyph-name="two.den" horiz-adv-x="411" 
d="M-15 0l10 41l104 71c79 54 136 102 136 157c0 29 -22 60 -62 60c-38 0 -69 -17 -108 -56l-34 29c43 61 99 110 188 110c77 0 143 -42 143 -114c0 -79 -86 -135 -205 -202l-2 -1h205l-19 -95h-356z" />
    <glyph glyph-name="three.den" horiz-adv-x="405" 
d="M154 -17c-98 0 -157 40 -158 89c0 34 27 53 66 63c24 -78 63 -108 108 -108c33 0 62 23 62 61c0 50 -47 78 -131 88l7 44l30 6c79 16 106 50 106 77c0 29 -20 43 -53 43c-46 0 -81 -25 -113 -57l-35 30c58 68 110 90 189 90c82 0 138 -34 138 -86
c0 -50 -53 -89 -129 -101v-2c81 -9 123 -42 123 -96c0 -83 -94 -141 -210 -141z" />
    <glyph glyph-name="four.den" horiz-adv-x="447" 
d="M187 0l16 84h-201l10 51l313 274l67 -9l-51 -246h76l-14 -70h-75l-17 -84h-124zM100 154h117l25 129z" />
    <glyph glyph-name="five.den" horiz-adv-x="416" 
d="M145 -18c-84 0 -140 30 -140 72c1 32 38 46 68 54c21 -50 46 -79 98 -79c54 0 75 32 75 65c0 40 -41 63 -92 63c-37 0 -65 -9 -100 -24l-14 6l60 258h277l-18 -93h-224l-18 -76c30 16 64 25 106 25c76 0 144 -34 144 -114c0 -111 -120 -157 -222 -157z" />
    <glyph glyph-name="six.den" horiz-adv-x="470" 
d="M218 -18c-119 0 -186 66 -186 168c0 152 153 254 378 274l5 -44c-129 -28 -185 -74 -217 -135c22 14 50 20 88 20c75 0 138 -41 138 -120c0 -97 -88 -163 -206 -163zM215 27c48 0 76 64 76 126c0 42 -21 63 -49 63c-22 0 -39 -3 -56 -16c-12 -30 -17 -66 -17 -101
c0 -44 12 -72 46 -72z" />
    <glyph glyph-name="seven.den" horiz-adv-x="394" 
d="M40 0l241 290h-241l25 107h329l-4 -21l-237 -376h-113z" />
    <glyph glyph-name="eight.den" horiz-adv-x="438" 
d="M187 -17c-112 0 -178 44 -178 101c0 54 48 85 120 101c-49 30 -69 57 -69 101c0 68 78 124 183 124c119 0 152 -55 152 -89c0 -40 -30 -71 -103 -91c62 -32 96 -68 96 -112c0 -82 -90 -135 -201 -135zM194 27c40 0 68 20 68 54c0 26 -22 46 -61 64l-38 18
c-33 -15 -50 -40 -50 -73c0 -35 26 -63 81 -63zM253 250c26 15 42 35 42 62c0 36 -24 55 -61 55c-33 0 -54 -21 -54 -46c0 -24 10 -40 49 -59z" />
    <glyph glyph-name="nine.den" horiz-adv-x="470" 
d="M243 410c122 0 186 -68 186 -171c0 -150 -169 -261 -385 -274l-7 44c131 30 197 79 227 138c-22 -15 -51 -21 -88 -21c-76 0 -139 41 -139 121c0 97 88 163 206 163zM247 364c-49 0 -80 -58 -80 -125c0 -43 25 -63 53 -63c22 0 39 3 56 15c12 30 16 67 16 102
c0 43 -12 71 -45 71z" />
    <glyph glyph-name="zero.sub" horiz-adv-x="522" 
d="M203 -139c-122 0 -193 85 -193 189c0 118 103 237 261 237c109 0 193 -71 193 -186c0 -106 -98 -240 -261 -240zM210 -92c57 -1 108 103 108 234c0 58 -18 97 -54 97c-59 0 -108 -102 -108 -229c0 -62 20 -101 54 -102z" />
    <glyph glyph-name="one.sub" horiz-adv-x="373" 
d="M-20 -122l7 47l93 11l50 244h-107l4 46l251 49h9l-69 -341l88 -9l-10 -47h-316z" />
    <glyph glyph-name="two.sub" horiz-adv-x="411" 
d="M-34 -122l10 41l104 71c79 54 136 102 136 157c0 29 -22 60 -62 60c-38 0 -69 -17 -108 -56l-34 29c43 61 99 110 188 110c77 0 143 -42 143 -114c0 -79 -86 -135 -205 -202l-2 -1h205l-19 -95h-356z" />
    <glyph glyph-name="three.sub" horiz-adv-x="405" 
d="M134 -139c-98 0 -157 40 -158 89c0 34 27 53 66 63c24 -78 63 -108 108 -108c33 0 62 23 62 61c0 50 -47 78 -131 88l7 44l30 6c79 16 106 50 106 77c0 29 -20 43 -53 43c-46 0 -81 -25 -113 -57l-35 30c58 68 110 90 189 90c82 0 138 -34 138 -86
c0 -50 -53 -89 -129 -101v-2c81 -9 123 -42 123 -96c0 -83 -94 -141 -210 -141z" />
    <glyph glyph-name="four.sub" horiz-adv-x="447" 
d="M168 -122l16 85h-202l10 50l314 275l66 -10l-50 -246h76l-14 -69h-75l-17 -85h-124zM81 32h117l25 129z" />
    <glyph glyph-name="five.sub" horiz-adv-x="416" 
d="M126 -140c-84 0 -141 30 -140 72c1 32 38 47 68 54c21 -49 46 -79 97 -79c54 0 76 32 76 65c0 40 -42 64 -92 64c-37 0 -66 -9 -101 -25l-13 6l60 258h277l-18 -93h-225l-17 -75c29 15 63 25 106 25c76 0 144 -34 144 -115c0 -110 -120 -157 -222 -157z" />
    <glyph glyph-name="six.sub" horiz-adv-x="470" 
d="M199 -140c-119 0 -186 67 -186 169c0 151 153 253 378 273l5 -43c-129 -29 -185 -75 -217 -136c22 15 50 21 88 21c74 0 138 -41 138 -121c0 -97 -88 -163 -206 -163zM195 -94c49 0 77 63 77 125c0 43 -22 64 -49 64c-23 0 -39 -4 -56 -16c-12 -30 -17 -67 -17 -102
c0 -43 12 -71 45 -71z" />
    <glyph glyph-name="seven.sub" horiz-adv-x="394" 
d="M21 -122l241 290h-242l25 107h330l-4 -21l-237 -376h-113z" />
    <glyph glyph-name="eight.sub" horiz-adv-x="438" 
d="M167 -139c-112 0 -178 44 -178 101c0 54 48 85 120 101c-49 30 -69 57 -69 101c0 68 78 124 183 124c119 0 152 -55 152 -89c0 -40 -30 -71 -103 -91c62 -32 96 -68 96 -112c0 -82 -90 -135 -201 -135zM174 -95c40 0 68 20 68 54c0 26 -22 46 -61 64l-38 18
c-33 -15 -50 -40 -50 -73c0 -35 26 -63 81 -63zM233 128c26 15 42 35 42 62c0 36 -24 55 -61 55c-33 0 -54 -21 -54 -46c0 -24 10 -40 49 -59z" />
    <glyph glyph-name="nine.sub" horiz-adv-x="470" 
d="M224 288c122 0 186 -67 186 -170c0 -150 -169 -261 -385 -274l-7 43c131 31 196 80 227 138c-22 -14 -51 -20 -89 -20c-75 0 -138 41 -138 120c0 97 88 163 206 163zM227 243c-48 0 -79 -58 -79 -126c0 -43 24 -63 52 -63c23 0 40 3 56 16c13 30 17 66 17 101
c0 44 -12 72 -46 72z" />
    <glyph glyph-name="plus.sub" horiz-adv-x="432" 
d="M118 -107l30 150h-143l12 60h144l30 150h64l-29 -150h143l-13 -60h-143l-30 -150h-65z" />
    <glyph glyph-name="minus.sub" horiz-adv-x="432" 
d="M356 43h-351l12 60h352z" />
    <glyph glyph-name="zero.sup" horiz-adv-x="522" 
d="M292 289c-121 0 -192 85 -192 189c0 118 102 237 260 237c110 0 194 -71 194 -186c0 -106 -98 -240 -262 -240zM299 337c58 -1 109 102 109 233c0 58 -19 97 -54 97c-60 0 -108 -102 -108 -229c0 -62 20 -100 53 -101z" />
    <glyph glyph-name="one.sup" horiz-adv-x="373" 
d="M69 307l7 46l94 11l49 244h-106l4 46l251 50h8l-68 -342l87 -9l-9 -46h-317z" />
    <glyph glyph-name="two.sup" horiz-adv-x="411" 
d="M56 307l10 41l104 71c79 54 136 102 136 157c0 29 -22 60 -62 60c-38 0 -69 -17 -108 -56l-34 29c43 61 99 110 188 110c77 0 143 -42 143 -114c0 -79 -81 -132 -205 -202l-2 -1h205l-19 -95h-356z" />
    <glyph glyph-name="three.sup" horiz-adv-x="405" 
d="M224 289c-98 0 -157 40 -158 89c0 34 27 53 66 63c24 -78 63 -108 108 -108c33 0 62 23 62 61c0 50 -47 78 -131 88l7 44l30 6c79 16 106 50 106 77c0 29 -20 43 -53 43c-46 0 -81 -25 -113 -57l-35 30c58 68 110 90 189 90c82 0 138 -34 138 -86
c0 -50 -53 -89 -129 -101v-2c81 -9 123 -42 123 -96c0 -83 -94 -141 -210 -141z" />
    <glyph glyph-name="four.sup" horiz-adv-x="447" 
d="M257 307l17 84h-202l10 50l313 275l67 -10l-50 -246h76l-14 -69h-76l-17 -84h-124zM171 460h117l24 129z" />
    <glyph glyph-name="five.sup" horiz-adv-x="416" 
d="M215 289c-83 0 -140 29 -139 71c1 32 38 47 68 55c21 -50 45 -80 97 -80c54 0 76 33 75 65c0 40 -41 64 -91 64c-37 0 -66 -9 -101 -25l-13 6l60 258h277l-18 -93h-225l-17 -75c29 15 63 25 106 25c76 0 143 -34 143 -115c0 -110 -119 -156 -222 -156z" />
    <glyph glyph-name="six.sup" horiz-adv-x="470" 
d="M288 289c-118 0 -186 66 -186 168c0 151 154 254 379 273l4 -43c-128 -29 -185 -75 -216 -136c21 15 49 21 87 21c75 0 138 -41 138 -120c0 -97 -87 -163 -206 -163zM285 334c48 0 77 63 77 126c0 42 -22 63 -50 63c-22 0 -38 -4 -55 -16c-13 -30 -17 -67 -17 -102
c0 -43 11 -71 45 -71z" />
    <glyph glyph-name="seven.sup" horiz-adv-x="394" 
d="M110 307l241 289h-241l25 107h330l-4 -21l-238 -375h-113z" />
    <glyph glyph-name="eight.sup" horiz-adv-x="438" 
d="M257 289c-112 0 -178 44 -178 101c0 54 48 85 120 101c-49 30 -69 57 -69 101c0 68 78 124 183 124c119 0 152 -55 152 -89c0 -40 -30 -71 -103 -91c62 -32 96 -68 96 -112c0 -82 -90 -135 -201 -135zM264 333c40 0 68 20 68 54c0 26 -22 46 -61 64l-38 18
c-33 -15 -50 -40 -50 -73c0 -35 26 -63 81 -63zM323 556c26 15 42 35 42 62c0 36 -24 55 -61 55c-33 0 -54 -21 -54 -46c0 -24 10 -40 49 -59z" />
    <glyph glyph-name="nine.sup" horiz-adv-x="470" 
d="M314 716c122 0 186 -67 186 -170c0 -150 -169 -261 -386 -274l-7 43c132 31 197 80 227 139c-21 -15 -51 -21 -88 -21c-75 0 -138 41 -138 120c0 97 87 163 206 163zM317 671c-48 0 -79 -58 -79 -126c0 -43 24 -63 52 -63c22 0 39 4 56 16c13 30 16 66 16 101
c0 44 -11 72 -45 72z" />
    <glyph glyph-name="plus.sup" horiz-adv-x="432" 
d="M208 321l30 151h-144l13 60h143l30 149h65l-30 -149h144l-13 -60h-144l-29 -151h-65z" />
    <glyph glyph-name="minus.sup" horiz-adv-x="432" 
d="M446 472h-352l13 60h352z" />
    <glyph glyph-name="a.ord" horiz-adv-x="475" 
d="M393 656h101l-85 -317h3c27 11 47 29 67 57l20 -14c-26 -60 -102 -128 -164 -128c-26 0 -49 13 -49 48c0 12 2 27 9 45l20 54h-5c-33 -54 -97 -152 -172 -152c-49 0 -76 32 -76 76c0 162 154 321 280 321c15 0 30 -5 44 -13zM199 340c37 0 111 92 139 183l18 59
c-12 18 -25 25 -35 25c-51 0 -138 -151 -138 -239c0 -18 6 -28 16 -28z" />
    <glyph glyph-name="b.ord" horiz-adv-x="459" 
d="M224 250c-38 0 -90 20 -139 55l-18 13l102 419l-55 21l5 21l192 44l-80 -298h5c40 71 88 129 154 129c61 0 88 -42 88 -116c0 -138 -88 -288 -254 -288zM191 359l-8 -33c5 -25 26 -40 48 -40c59 0 120 155 120 267c0 17 -9 26 -19 26c-54 0 -119 -148 -141 -220z" />
    <glyph glyph-name="c.ord" horiz-adv-x="373" 
d="M280 602c-48 0 -87 -126 -87 -206c0 -55 22 -63 43 -63c35 0 74 31 115 83l21 -17c-23 -48 -94 -150 -202 -150c-66 0 -103 55 -103 122c0 118 65 197 140 242c48 28 92 42 127 42c47 0 82 -28 82 -58c0 -27 -34 -63 -55 -73c-28 39 -58 78 -81 78z" />
    <glyph glyph-name="d.ord" horiz-adv-x="497" 
d="M315 652c23 0 42 -8 59 -17l24 102l-55 21l4 21l191 44l-121 -484h2c26 11 48 29 68 57l18 -14c-25 -60 -102 -128 -165 -128c-40 0 -60 34 -39 93l19 54h-5c-42 -74 -104 -152 -171 -152c-43 0 -77 32 -77 107c0 116 112 296 248 296zM355 554l6 24
c-13 20 -29 36 -47 36c-55 0 -116 -156 -116 -233c0 -24 5 -37 17 -37c38 0 120 127 140 210z" />
    <glyph glyph-name="e.ord" horiz-adv-x="380" 
d="M180 249c-78 0 -113 51 -113 122c0 102 64 188 139 238c44 29 93 46 135 46c49 0 79 -22 79 -68c0 -86 -128 -143 -228 -161v-17c0 -59 18 -76 51 -76c38 0 84 39 108 67l18 -18c-23 -43 -94 -133 -189 -133zM301 610c-37 0 -87 -67 -104 -148c65 22 124 80 124 125
c0 13 -8 23 -20 23z" />
    <glyph glyph-name="f.ord" horiz-adv-x="310" 
d="M89 581l8 50h68c52 133 195 192 244 192c53 0 76 -33 76 -58c0 -37 -38 -66 -59 -77c-27 50 -46 77 -76 77s-52 -45 -70 -134h95l-8 -50h-97l-38 -198c-42 -217 -180 -289 -239 -289c-43 0 -72 30 -72 63c0 35 29 58 68 66c15 -47 26 -76 48 -76c20 0 37 27 51 100
l63 334h-62z" />
    <glyph glyph-name="g.ord" horiz-adv-x="438" 
d="M293 654c29 0 58 -9 79 -15l131 10l-24 -77l-69 20l-1 -3c18 -26 20 -48 20 -67c0 -90 -93 -162 -196 -162c-9 0 -17 1 -25 2c-16 -5 -23 -12 -23 -21c0 -14 16 -18 33 -22l114 -25c72 -16 92 -47 92 -76c0 -89 -148 -129 -220 -128c-125 0 -185 27 -185 74
c0 38 39 56 115 75v1c-25 8 -49 27 -49 56c0 32 33 58 85 74v3c-45 20 -73 63 -73 116c0 98 81 165 196 165zM291 618c-43 0 -84 -107 -84 -170c0 -37 10 -54 28 -54c37 0 85 92 85 172c0 31 -10 52 -29 52zM283 207l-99 22c-30 -7 -57 -20 -57 -47c0 -34 43 -50 104 -50
c48 0 95 20 95 45c0 14 -13 23 -43 30z" />
    <glyph glyph-name="h.ord" horiz-adv-x="476" 
d="M303 823l-85 -347h6c47 81 110 179 190 179c46 0 74 -19 51 -107l-55 -209h2c27 11 48 29 68 57l19 -14c-25 -60 -100 -133 -164 -133c-34 0 -62 27 -43 96l53 196c5 19 3 28 -7 28c-32 0 -142 -189 -166 -278l-6 -22l-98 -19l-20 13l118 474l-55 21l4 21z" />
    <glyph glyph-name="i.ord" horiz-adv-x="264" 
d="M137 573l-59 15l5 20s71 49 128 49c37 0 57 -27 41 -95l-54 -223h3c27 11 47 29 67 57l19 -14c-25 -60 -101 -133 -164 -133c-34 0 -59 26 -42 96zM174 770c0 38 30 69 67 69c36 0 67 -31 67 -69c0 -39 -31 -70 -67 -70c-37 0 -67 31 -67 70z" />
    <glyph glyph-name="j.ord" horiz-adv-x="265" 
d="M93 316l64 257l-59 15l5 20s72 49 127 49c38 0 59 -28 42 -95l-47 -200c-36 -149 -142 -268 -233 -268c-39 0 -72 26 -72 67c0 34 19 54 67 67c11 -55 22 -74 39 -74c28 0 45 75 67 162zM194 770c0 38 31 69 67 69c37 0 67 -31 67 -69c0 -39 -30 -70 -67 -70
c-36 0 -67 31 -67 70z" />
    <glyph glyph-name="k.ord" horiz-adv-x="435" 
d="M397 233c-62 0 -106 39 -145 95l-48 68c-14 -33 -26 -68 -35 -103l-6 -24l-95 -19l-20 13l118 474l-55 21l4 21l188 44l-82 -325h5c51 93 109 157 170 157c44 0 69 -33 70 -71c2 -61 -34 -110 -154 -163l136 -166v-12c-12 -5 -26 -10 -51 -10zM343 569
c-38 0 -94 -73 -135 -165l4 1c106 39 156 93 156 136c0 20 -9 28 -25 28z" />
    <glyph glyph-name="l.ord" horiz-adv-x="256" 
d="M279 382c-25 -60 -100 -133 -163 -133c-35 0 -60 26 -42 96l94 392l-55 21l5 21l190 44l-117 -484h3c25 11 47 29 67 57z" />
    <glyph glyph-name="m.ord" horiz-adv-x="709" 
d="M58 263l80 310l-59 15l5 20s79 49 132 49c41 0 55 -31 33 -101l-29 -92h7c46 82 116 191 196 191c47 0 75 -20 49 -100l-29 -91h7c47 82 117 191 197 191c46 0 73 -19 52 -100l-55 -216h2c27 11 48 29 68 57l19 -14c-25 -60 -101 -133 -164 -133c-34 0 -61 27 -43 96
l52 196c5 19 3 28 -7 28c-34 0 -137 -177 -163 -277l-6 -23l-100 -19l-20 13l73 278c5 19 4 28 -7 28c-35 0 -137 -180 -164 -278l-6 -22l-99 -19z" />
    <glyph glyph-name="n.ord" horiz-adv-x="489" 
d="M58 263l80 310l-59 15l5 20s79 49 132 49c41 0 56 -31 34 -101l-29 -92h6c46 82 121 191 201 191c46 0 72 -19 52 -100l-55 -216h2c27 11 47 29 68 57l19 -14c-26 -60 -102 -133 -165 -133c-33 0 -60 27 -42 96l51 196c5 19 4 28 -6 28c-34 0 -138 -182 -162 -263
l-11 -37l-100 -19z" />
    <glyph glyph-name="o.ord" horiz-adv-x="455" 
d="M203 351c0 -35 6 -65 31 -65c57 0 111 174 111 268c0 35 -10 65 -33 65c-56 0 -109 -174 -109 -268zM324 655c91 0 148 -64 148 -160c0 -120 -95 -246 -248 -246c-92 0 -148 65 -148 161c0 120 94 245 248 245z" />
    <glyph glyph-name="p.ord" horiz-adv-x="472" 
d="M60 151l88 376l-80 -45l-11 30c33 23 68 45 103 65l28 120h105l-14 -61c35 14 68 22 97 22c71 0 116 -38 116 -122c0 -113 -96 -283 -240 -283c-19 0 -35 3 -48 10l-28 -120h94l-11 -45h-266l5 31s60 22 62 22zM250 289c56 0 117 134 117 237c0 37 -16 72 -53 72
c-8 0 -19 -2 -31 -6l-67 -281c11 -16 22 -22 34 -22z" />
    <glyph glyph-name="q.ord" horiz-adv-x="470" 
d="M252 144l52 201c7 28 16 56 16 56h-6c-42 -74 -103 -152 -170 -152c-43 0 -78 32 -78 107c0 116 112 296 248 296c31 0 55 -13 73 -27l6 27h103l-124 -509h65l-13 -45h-238l8 34s53 10 58 12zM215 344c37 0 122 127 140 210l5 24c-13 20 -29 36 -46 36
c-56 0 -116 -156 -116 -233c0 -24 4 -37 17 -37z" />
    <glyph glyph-name="r.ord" horiz-adv-x="398" 
d="M70 263l22 91c31 129 50 219 50 219l-57 14l3 21s66 48 116 48c47 0 63 -34 39 -109l-42 -132h12c46 104 96 241 174 241c33 0 55 -22 55 -62c0 -42 -33 -80 -57 -94h-38c14 26 17 59 0 71c-27 -24 -62 -79 -94 -141c-27 -56 -51 -116 -62 -161l-101 -19z" />
    <glyph glyph-name="s.ord" horiz-adv-x="331" 
d="M333 398c0 -83 -107 -151 -187 -151c-47 0 -100 36 -100 86c0 23 5 41 31 79h5c39 -59 83 -108 130 -108c21 0 33 11 33 28c0 14 -9 31 -47 59l-36 26c-31 23 -57 51 -57 88c0 83 117 154 189 154c32 0 77 -26 77 -70c0 -27 -11 -52 -28 -79h-5c-38 42 -73 81 -116 81
c-19 0 -30 -11 -30 -24c0 -17 10 -27 40 -49l43 -31c48 -35 58 -61 58 -89z" />
    <glyph glyph-name="t.ord" horiz-adv-x="329" 
d="M90 594l8 50h71l42 91h85l-18 -91h92l-7 -50h-91l-61 -249l2 -2c51 22 84 61 108 98l19 -14c-31 -66 -118 -177 -200 -177c-35 0 -63 36 -51 86l63 258h-62z" />
    <glyph glyph-name="u.ord" horiz-adv-x="481" 
d="M137 574l-58 15l4 20s73 49 120 49c45 0 69 -25 46 -112l-48 -180c-5 -19 -4 -28 3 -28c23 0 141 185 160 262l9 37l98 20l20 -14l-75 -304h2c27 11 48 29 68 57l19 -14c-25 -60 -101 -133 -164 -133c-38 0 -61 27 -38 101l34 108h-4c-42 -62 -109 -207 -205 -207
c-39 0 -63 30 -46 100z" />
    <glyph glyph-name="v.ord" horiz-adv-x="407" 
d="M236 563l7 -215c71 77 108 127 109 185c0 31 -22 46 -45 46c-15 0 -29 -3 -40 -6l4 28c35 35 75 52 107 52c39 0 66 -27 66 -67c0 -86 -87 -160 -188 -270l-58 -63h-7l-50 18l-20 298c-8 6 -20 9 -31 9c-9 0 -26 -3 -35 -6l6 29c38 40 76 52 106 52c38 0 67 -14 69 -90z
" />
    <glyph glyph-name="w.ord" horiz-adv-x="603" 
d="M437 567l-1 -218h3c62 68 108 121 108 180c0 35 -22 50 -45 50c-16 0 -28 -3 -40 -6l5 28c36 36 77 52 107 52c39 0 66 -26 66 -67c0 -87 -107 -185 -189 -271l-62 -65h-13l-44 20l-2 129h-2c-23 -25 -47 -47 -78 -79l-67 -70h-9l-46 15l-8 305c-7 5 -18 8 -30 8
c-10 0 -27 -3 -35 -6l6 29c39 40 78 52 107 52c46 0 66 -26 66 -88v-212h2c43 40 74 77 91 103l-3 114c-6 5 -19 8 -31 8c-9 0 -26 -3 -34 -6l5 29c40 40 79 52 108 52c45 0 65 -24 65 -86z" />
    <glyph glyph-name="x.ord" horiz-adv-x="462" 
d="M321 250c-29 0 -40 9 -55 55l-32 95l-19 -32c-45 -77 -74 -119 -121 -119c-29 0 -59 20 -59 59c0 50 38 73 38 73l23 -15c43 -28 68 -17 108 42l18 27l-24 73c-13 39 -19 58 -34 58c-16 0 -39 -22 -44 -100h-28c-3 122 46 188 115 188c44 0 70 -21 91 -86l18 -56l34 59
c35 61 64 85 97 85c34 0 56 -22 56 -62c0 -39 -27 -75 -62 -98h-29c9 29 8 61 -8 61s-31 -21 -64 -68l-12 -15l44 -134h1c29 12 50 29 70 57l18 -14c-25 -61 -100 -133 -140 -133z" />
    <glyph glyph-name="y.ord" horiz-adv-x="422" 
d="M65 466c-1 78 31 187 113 187c63 0 108 -53 113 -182c2 -83 -16 -152 -33 -207h4c64 92 97 156 112 234c-5 54 -19 92 -39 130c18 14 38 25 69 25c20 0 55 -15 55 -61c0 -98 -90 -260 -201 -382c-71 -79 -134 -122 -205 -122c-37 0 -65 24 -65 60s24 61 60 61
c33 0 55 -26 66 -66h4c41 73 60 157 60 274c0 112 -20 149 -40 149c-22 0 -38 -37 -43 -100h-30z" />
    <glyph glyph-name="z.ord" horiz-adv-x="434" 
d="M450 658l35 -39l-263 -229l52 -21c80 -33 109 -7 140 70l24 -10c-31 -111 -70 -181 -153 -181c-31 0 -55 14 -110 43l-41 21l-54 -63l-34 35l263 230l-69 27c-57 22 -93 22 -98 6c-5 -15 20 -35 73 -54c-33 -41 -55 -61 -80 -61c-29 0 -51 19 -51 52c0 37 49 175 151 175
c32 0 75 -18 114 -38l50 -26z" />
    <glyph glyph-name="egrave.ord" horiz-adv-x="380" 
d="M180 249c-78 0 -113 51 -113 122c0 102 64 188 139 238c44 29 93 46 135 46c49 0 79 -22 79 -68c0 -86 -128 -143 -228 -161v-17c0 -59 18 -76 51 -76c38 0 84 39 108 67l18 -18c-23 -43 -94 -133 -189 -133zM227 846h97l28 -151h-47l-78 137v14zM301 610
c-37 0 -87 -67 -104 -148c65 22 124 80 124 125c0 13 -8 23 -20 23z" />
    <glyph glyph-name="uacute.ord" horiz-adv-x="481" 
d="M137 574l-58 15l4 20s73 49 120 49c45 0 69 -25 46 -112l-48 -180c-5 -19 -4 -28 3 -28c23 0 141 185 160 262l9 37l98 20l20 -14l-75 -304h2c27 11 48 29 68 57l19 -14c-25 -60 -101 -133 -164 -133c-38 0 -61 27 -38 101l34 108h-4c-42 -62 -109 -207 -205 -207
c-39 0 -63 30 -46 100zM350 846h96v-14l-97 -137h-48z" />
    <glyph glyph-name="second" unicode="&#x2033;" horiz-adv-x="442" 
d="M133 491h-49l67 255h123v-28zM301 491h-49l67 255h123v-28z" />
    <glyph glyph-name="minute" unicode="&#x2032;" horiz-adv-x="273" 
d="M132 491h-50l68 255h123v-28z" />
    <glyph glyph-name="A.alt" horiz-adv-x="751" 
d="M-29 0l10 49l57 21l435 586l58 5l72 19l18 -616l67 -13l-9 -51h-320l12 53l83 13v135h-239l-84 -123l101 -25l-10 -53h-251zM452 547l-186 -271h188v271h-2z" />
    <glyph glyph-name="M.alt" horiz-adv-x="1002" 
d="M-31 0l10 52l83 20l159 525l-82 15l10 52h283l63 -389l210 389h263l-10 -52l-81 -15l-14 -532l79 -13l-10 -52h-337l11 53l90 13l16 488l-234 -429l-48 -100h-55l-12 99l-82 443h-2l-139 -487l104 -30l-10 -50h-265z" />
    <glyph glyph-name="V.alt" horiz-adv-x="711" 
d="M183 -11l-27 608l-65 15l10 52h317l-10 -52l-79 -17l7 -435h2l288 428l-98 23l10 53h230l-10 -52l-49 -18l-421 -605h-105z" />
    <glyph glyph-name="W.alt" horiz-adv-x="1013" 
d="M504 -10l24 431l-305 -431h-108l35 607l-69 15l9 52h310l-10 -52l-76 -15l-31 -428l251 360l4 69l-66 14l10 52h301l-10 -53l-77 -15l-29 -420l268 409l-76 26l11 53h210l-10 -52l-49 -21l-414 -601h-103z" />
    <glyph glyph-name="h.alt" horiz-adv-x="574" 
d="M-8 -1l161 639l-72 28l6 26l241 54l-114 -458h5c79 135 146 217 236 217c60 0 93 -37 93 -108c0 -216 -181 -415 -290 -415c-37 0 -48 19 -48 45c0 23 13 44 22 54c25 -12 47 -23 71 -22c38 60 83 212 83 287c0 21 -10 34 -28 34c-74 0 -172 -207 -198 -308l-17 -65
l-126 -24z" />
    <glyph glyph-name="v.alt" horiz-adv-x="644" 
d="M284 369h-102c-57 0 -85 -10 -88 -30c-3 -24 23 -41 74 -54c-18 -61 -33 -87 -77 -87c-33 0 -63 26 -63 82c1 67 69 210 202 210h166v-22l-19 -36c-51 -96 -70 -147 -73 -201c-3 -53 26 -98 89 -98c74 0 139 88 151 151c-10 72 -32 151 -49 196c20 13 49 25 77 25
c39 0 65 -29 65 -84c0 -123 -154 -435 -329 -435c-82 0 -141 50 -141 134c1 84 46 152 95 219z" />
    <glyph glyph-name="w.alt" horiz-adv-x="849" 
d="M410 490v-22l-20 -33c-56 -93 -93 -150 -96 -205c-4 -51 13 -97 77 -97c35 0 74 22 102 64c9 185 20 264 23 277c18 18 47 31 77 31c38 0 63 -30 51 -77c0 0 -36 -109 -95 -233c13 -47 50 -70 95 -70c80 0 124 67 128 123c-7 96 -34 179 -55 231c20 14 50 26 78 26
c40 0 66 -31 66 -96c0 -110 -67 -423 -262 -423c-86 0 -115 43 -116 124c-38 -66 -91 -124 -181 -124c-80 0 -127 50 -126 123c1 95 63 172 118 234l23 26h-102c-69 0 -97 -10 -100 -30c-3 -24 22 -41 74 -54c-18 -61 -33 -87 -76 -87c-34 0 -63 26 -63 82
c0 67 68 210 201 210h179z" />
    <glyph glyph-name="Aacute.alt" horiz-adv-x="751" 
d="M582 875h136v-22l-142 -117h-78zM-29 0l10 49l57 21l435 586l58 5l72 19l18 -616l67 -13l-9 -51h-320l12 53l83 13v135h-239l-84 -123l101 -25l-10 -53h-251zM452 547l-186 -271h188v271h-2z" />
    <glyph glyph-name="Abreve.alt" horiz-adv-x="751" 
d="M-29 0l10 49l57 21l435 586l58 5l72 19l18 -616l67 -13l-9 -51h-320l12 53l83 13v135h-239l-84 -123l101 -25l-10 -53h-251zM452 547l-186 -271h188v271h-2zM545 725c-105 0 -134 79 -128 151h52c9 -36 32 -64 88 -64c57 0 88 31 106 64h50c-19 -77 -71 -151 -168 -151z
" />
    <glyph glyph-name="Acircumflex.alt" horiz-adv-x="751" 
d="M462 736h-74l130 138h103l73 -138h-65l-72 62zM-29 0l10 49l57 21l435 586l58 5l72 19l18 -616l67 -13l-9 -51h-320l12 53l83 13v135h-239l-84 -123l101 -25l-10 -53h-251zM452 547l-186 -271h188v271h-2z" />
    <glyph glyph-name="Adieresis.alt" horiz-adv-x="751" 
d="M-29 0l10 49l57 21l435 586l58 5l72 19l18 -616l67 -13l-9 -51h-320l12 53l83 13v135h-239l-84 -123l101 -25l-10 -53h-251zM452 547l-186 -271h188v271h-2zM434 724c-41 0 -75 34 -75 75s34 76 75 76c40 0 75 -35 75 -76s-35 -75 -75 -75zM679 724c-41 0 -75 34 -75 75
s34 76 75 76s75 -35 75 -76s-34 -75 -75 -75z" />
    <glyph glyph-name="Agrave.alt" horiz-adv-x="751" 
d="M-29 0l10 49l57 21l435 586l58 5l72 19l18 -616l67 -13l-9 -51h-320l12 53l83 13v135h-239l-84 -123l101 -25l-10 -53h-251zM452 547l-186 -271h188v271h-2zM403 875h136l48 -139h-79l-105 117v22z" />
    <glyph glyph-name="Amacron.alt" horiz-adv-x="751" 
d="M-29 0l10 49l57 21l435 586l58 5l72 19l18 -616l67 -13l-9 -51h-320l12 53l83 13v135h-239l-84 -123l101 -25l-10 -53h-251zM452 547l-186 -271h188v271h-2zM406 763l16 77h289l-16 -77h-289z" />
    <glyph glyph-name="Aogonek.alt" horiz-adv-x="751" 
d="M-29 0l10 49l57 21l435 586l58 5l72 19l18 -616l67 -13l-9 -51h-185c-82 -43 -103 -83 -103 -119c0 -34 27 -52 54 -52c32 0 54 14 89 46l24 -22c-36 -54 -77 -121 -163 -121c-67 0 -111 42 -111 99c0 64 52 105 170 211v159h-239l-84 -123l101 -25l-10 -53h-251z
M452 547l-186 -271h188v271h-2z" />
    <glyph glyph-name="Aring.alt" horiz-adv-x="751" 
d="M-29 0l10 49l57 21l435 586l58 5l72 19l18 -616l67 -13l-9 -51h-320l12 53l83 13v135h-239l-84 -123l101 -25l-10 -53h-251zM452 547l-186 -271h188v271h-2zM443 826c0 66 54 117 120 117c68 0 121 -50 121 -117s-54 -118 -121 -118s-120 50 -120 118zM500 826
c0 -39 28 -66 63 -66s64 27 64 66c0 38 -29 65 -64 65s-63 -27 -63 -65z" />
    <glyph glyph-name="Aringacute.alt" horiz-adv-x="751" 
d="M618 1103h136v-22l-142 -117h-78zM-29 0l10 49l57 21l435 586l58 5l72 19l18 -616l67 -13l-9 -51h-320l12 53l83 13v135h-239l-84 -123l101 -25l-10 -53h-251zM452 547l-186 -271h188v271h-2zM431 820c0 66 54 117 120 117c68 0 121 -50 121 -117s-54 -118 -121 -118
s-120 50 -120 118zM488 820c0 -39 28 -66 63 -66s64 27 64 66c0 38 -29 65 -64 65s-63 -27 -63 -65z" />
    <glyph glyph-name="Atilde.alt" horiz-adv-x="751" 
d="M-29 0l10 49l57 21l435 586l58 5l72 19l18 -616l67 -13l-9 -51h-320l12 53l83 13v135h-239l-84 -123l101 -25l-10 -53h-251zM550 757l-26 9c-84 29 -98 16 -130 -35l-35 19l5 13c43 119 105 124 188 95l26 -9c98 -34 106 -23 146 34l35 -18l-7 -16
c-50 -118 -104 -127 -202 -92zM452 547l-186 -271h188v271h-2z" />
    <glyph glyph-name="Wacute.alt" horiz-adv-x="1013" 
d="M685 875h136v-22l-142 -117h-78zM504 -10l24 431l-305 -431h-108l35 607l-69 15l9 52h310l-10 -52l-76 -15l-31 -428l251 360l4 69l-66 14l10 52h301l-10 -53l-77 -15l-29 -420l268 409l-76 26l11 53h210l-10 -52l-49 -21l-414 -601h-103z" />
    <glyph glyph-name="Wcircumflex.alt" horiz-adv-x="1013" 
d="M566 736h-74l130 138h103l73 -138h-65l-72 62zM504 -10l24 431l-305 -431h-108l35 607l-69 15l9 52h310l-10 -52l-76 -15l-31 -428l251 360l4 69l-66 14l10 52h301l-10 -53l-77 -15l-29 -420l268 409l-76 26l11 53h210l-10 -52l-49 -21l-414 -601h-103z" />
    <glyph glyph-name="Wdieresis.alt" horiz-adv-x="1013" 
d="M504 -10l24 431l-305 -431h-108l35 607l-69 15l9 52h310l-10 -52l-76 -15l-31 -428l251 360l4 69l-66 14l10 52h301l-10 -53l-77 -15l-29 -420l268 409l-76 26l11 53h210l-10 -52l-49 -21l-414 -601h-103zM539 724c-41 0 -75 34 -75 75s34 76 75 76c40 0 75 -35 75 -76
s-35 -75 -75 -75zM784 724c-41 0 -75 34 -75 75s34 76 75 76s75 -35 75 -76s-34 -75 -75 -75z" />
    <glyph glyph-name="Wgrave.alt" horiz-adv-x="1013" 
d="M507 875h136l48 -139h-79l-105 117v22zM504 -10l24 431l-305 -431h-108l35 607l-69 15l9 52h310l-10 -52l-76 -15l-31 -428l251 360l4 69l-66 14l10 52h301l-10 -53l-77 -15l-29 -420l268 409l-76 26l11 53h210l-10 -52l-49 -21l-414 -601h-103z" />
    <glyph glyph-name="hbar.alt" horiz-adv-x="574" 
d="M53 553l11 48h80l12 46l-75 19l6 26l241 54l-36 -145h180l-11 -48h-181l-66 -265h5c79 135 146 217 236 217c60 0 93 -37 93 -108c0 -216 -181 -415 -290 -415c-37 0 -48 19 -48 45c0 23 13 44 22 54c25 -12 47 -23 71 -22c38 60 83 212 83 287c0 21 -10 34 -28 34
c-74 0 -172 -207 -198 -308l-17 -65l-126 -24l-25 16l140 554h-79z" />
    <glyph glyph-name="hcircumflex.alt" horiz-adv-x="574" 
d="M315 778h-74l130 138h103l73 -138h-65l-72 62zM-8 -1l161 639l-72 28l6 26l241 54l-114 -458h5c79 135 146 217 236 217c60 0 93 -37 93 -108c0 -216 -181 -415 -290 -415c-37 0 -48 19 -48 45c0 23 13 44 22 54c25 -12 47 -23 71 -22c38 60 83 212 83 287
c0 21 -10 34 -28 34c-74 0 -172 -207 -198 -308l-17 -65l-126 -24z" />
    <glyph glyph-name="wacute.alt" horiz-adv-x="849" 
d="M604 769h124v-18l-129 -179h-62zM410 490v-22l-20 -33c-56 -93 -93 -150 -96 -205c-4 -51 13 -97 77 -97c35 0 74 22 102 64c9 185 20 264 23 277c18 18 47 31 77 31c38 0 63 -30 51 -77c0 0 -36 -109 -95 -233c13 -47 50 -70 95 -70c80 0 124 67 128 123
c-7 96 -34 179 -55 231c20 14 50 26 78 26c40 0 66 -31 66 -96c0 -110 -67 -423 -262 -423c-86 0 -115 43 -116 124c-38 -66 -91 -124 -181 -124c-80 0 -127 50 -126 123c1 95 63 172 118 234l23 26h-102c-69 0 -97 -10 -100 -30c-3 -24 22 -41 74 -54
c-18 -61 -33 -87 -76 -87c-34 0 -63 26 -63 82c0 67 68 210 201 210h179z" />
    <glyph glyph-name="wcircumflex.alt" horiz-adv-x="849" 
d="M495 572h-63l132 197h93l57 -197h-58l-65 95zM410 490v-22l-20 -33c-56 -93 -93 -150 -96 -205c-4 -51 13 -97 77 -97c35 0 74 22 102 64c9 185 20 264 23 277c18 18 47 31 77 31c38 0 63 -30 51 -77c0 0 -36 -109 -95 -233c13 -47 50 -70 95 -70c80 0 124 67 128 123
c-7 96 -34 179 -55 231c20 14 50 26 78 26c40 0 66 -31 66 -96c0 -110 -67 -423 -262 -423c-86 0 -115 43 -116 124c-38 -66 -91 -124 -181 -124c-80 0 -127 50 -126 123c1 95 63 172 118 234l23 26h-102c-69 0 -97 -10 -100 -30c-3 -24 22 -41 74 -54
c-18 -61 -33 -87 -76 -87c-34 0 -63 26 -63 82c0 67 68 210 201 210h179z" />
    <glyph glyph-name="wdieresis.alt" horiz-adv-x="849" 
d="M403 660c0 41 33 75 74 75s74 -34 74 -75s-33 -73 -74 -73s-74 32 -74 73zM624 660c0 41 33 75 73 75c41 0 75 -34 75 -75s-34 -73 -75 -73c-40 0 -73 32 -73 73zM410 490v-22l-20 -33c-56 -93 -93 -150 -96 -205c-4 -51 13 -97 77 -97c35 0 74 22 102 64
c9 185 20 264 23 277c18 18 47 31 77 31c38 0 63 -30 51 -77c0 0 -36 -109 -95 -233c13 -47 50 -70 95 -70c80 0 124 67 128 123c-7 96 -34 179 -55 231c20 14 50 26 78 26c40 0 66 -31 66 -96c0 -110 -67 -423 -262 -423c-86 0 -115 43 -116 124
c-38 -66 -91 -124 -181 -124c-80 0 -127 50 -126 123c1 95 63 172 118 234l23 26h-102c-69 0 -97 -10 -100 -30c-3 -24 22 -41 74 -54c-18 -61 -33 -87 -76 -87c-34 0 -63 26 -63 82c0 67 68 210 201 210h179z" />
    <glyph glyph-name="wgrave.alt" horiz-adv-x="849" 
d="M410 490v-22l-20 -33c-56 -93 -93 -150 -96 -205c-4 -51 13 -97 77 -97c35 0 74 22 102 64c9 185 20 264 23 277c18 18 47 31 77 31c38 0 63 -30 51 -77c0 0 -36 -109 -95 -233c13 -47 50 -70 95 -70c80 0 124 67 128 123c-7 96 -34 179 -55 231c20 14 50 26 78 26
c40 0 66 -31 66 -96c0 -110 -67 -423 -262 -423c-86 0 -115 43 -116 124c-38 -66 -91 -124 -181 -124c-80 0 -127 50 -126 123c1 95 63 172 118 234l23 26h-102c-69 0 -97 -10 -100 -30c-3 -24 22 -41 74 -54c-18 -61 -33 -87 -76 -87c-34 0 -63 26 -63 82
c0 67 68 210 201 210h179zM439 769h124l38 -197h-61l-101 179v18z" />
    <glyph glyph-name="bullet.alt" horiz-adv-x="393" 
d="M148 642c53 0 79 -59 101 -95h16c47 35 62 51 95 51c41 0 65 -29 65 -66c0 -42 -37 -68 -70 -68c-44 0 -63 42 -92 65h-7c-12 -14 -20 -30 -20 -48c0 -26 22 -43 61 -72c35 -26 63 -56 63 -93c0 -50 -47 -66 -85 -61c-6 -6 -17 -19 -41 -19c-34 0 -53 22 -67 48
c-18 33 -27 67 -65 67c-28 0 -41 -18 -42 -36h-13c-22 53 22 83 62 83c73 0 80 -76 121 -76c19 0 26 12 26 29c0 36 -65 58 -65 113c0 28 19 53 34 73l-6 2c-26 -8 -52 -17 -71 -17c-39 0 -61 24 -61 56c0 36 25 64 61 64zM342 673c0 -35 -46 -65 -69 -89h-19
c-6 11 -33 59 -33 91c0 35 32 55 63 55c38 0 58 -30 58 -57z" />
    <glyph glyph-name="Q.short" horiz-adv-x="770" 
d="M458 684c167 0 289 -109 289 -307c0 -161 -127 -337 -325 -379c75 -70 136 -120 196 -120c24 0 38 4 73 20l15 -29c-53 -40 -98 -69 -183 -69c-112 0 -198 87 -323 219c-88 45 -153 138 -153 274c0 191 164 391 411 391zM566 448c0 109 -33 180 -111 180
c-116 0 -227 -199 -227 -407c0 -124 37 -185 114 -185c137 0 224 254 224 412z" />
    <glyph glyph-name="f.short" horiz-adv-x="377" 
d="M47 427l10 62h92c72 177 244 257 292 257c56 0 92 -40 92 -73c0 -41 -35 -70 -98 -91c-14 64 -30 90 -54 90c-30 0 -58 -52 -86 -183h125l-11 -62h-127l-68 -324c-59 -279 -237 -363 -311 -363c-55 0 -94 37 -94 79s36 72 84 82c20 -56 39 -95 67 -95c27 0 51 38 70 133
l96 475l3 13h-82z" />
    <glyph glyph-name="f_f.short" horiz-adv-x="692" 
d="M47 427l10 62h96c75 157 244 225 323 225c56 0 92 -32 111 -54c69 58 140 86 168 86c57 0 93 -41 93 -73c0 -41 -36 -70 -99 -91c-14 64 -29 90 -53 90c-31 0 -59 -52 -87 -183h125l-11 -62h-127l-62 -297c-58 -279 -229 -363 -309 -363c-50 0 -72 31 -72 67
c0 35 31 60 70 69c18 -47 33 -71 58 -71c23 0 50 39 69 134l91 448l3 13h-162l-68 -324c-59 -279 -237 -363 -311 -363c-55 0 -94 37 -94 79s36 72 84 82c20 -56 39 -95 67 -95c27 0 51 38 70 133l94 463c1 8 4 17 6 25h-83zM408 641c-43 0 -82 -30 -112 -152h168
c12 30 26 57 43 82c-30 43 -61 70 -99 70z" />
    <glyph glyph-name="i.ger" horiz-adv-x="319" 
d="M109 401l-79 19l6 23s91 64 165 64c48 0 74 -34 54 -120l-71 -294l3 -1c35 16 64 41 91 78l24 -16c-33 -78 -132 -171 -212 -171c-45 0 -77 33 -55 121zM154 662c0 47 38 85 85 85s85 -38 85 -85s-38 -85 -85 -85s-85 38 -85 85z" />
    <glyph glyph-name="j.short" horiz-adv-x="318" 
d="M-81 -260l-17 30c54 45 94 74 139 254l93 377l-78 19l5 23s92 64 164 64c49 0 77 -34 56 -121l-73 -295c-46 -190 -126 -314 -289 -351zM180 666c0 47 39 86 86 86c46 0 85 -39 85 -86c0 -46 -39 -85 -85 -85c-47 0 -86 39 -86 85z" />
    <glyph glyph-name="jcircumflex.short" horiz-adv-x="318" 
d="M164 585h-63l132 197h93l57 -197h-58l-65 95zM-81 -260l-17 30c54 45 94 74 139 254l93 377l-78 19l5 23s92 64 164 64c49 0 77 -34 56 -121l-73 -295c-46 -190 -126 -314 -289 -351z" />
    <glyph glyph-name="j.ger" horiz-adv-x="318" 
d="M39 17l95 384l-78 19l5 23s92 64 164 64c49 0 77 -34 56 -121l-72 -290c-50 -206 -180 -356 -305 -356c-57 0 -110 32 -110 87c0 37 41 66 90 79c8 -60 32 -100 62 -100c37 0 66 100 93 211zM180 662c0 47 38 85 85 85s85 -38 85 -85s-38 -85 -85 -85s-85 38 -85 85z" />
    <glyph glyph-name="y.short" horiz-adv-x="526" 
d="M13 268c-2 101 44 235 146 235c83 0 142 -70 148 -252c2 -75 -15 -179 -41 -257h5c80 115 126 206 146 309c-6 71 -24 120 -50 169c23 17 48 30 88 30c26 0 70 -18 70 -78c0 -119 -104 -302 -210 -435c-114 -143 -248 -262 -332 -262c-48 0 -80 30 -81 77
c-1 48 31 85 77 85c45 0 66 -35 79 -80h4c69 86 98 236 100 387c1 114 -20 198 -54 198c-28 0 -51 -45 -58 -126h-37z" />
    <glyph glyph-name="yacute.short" horiz-adv-x="526" 
d="M357 782h124v-18l-129 -179h-62zM13 268c-2 101 44 235 146 235c83 0 142 -70 148 -252c2 -75 -15 -179 -41 -257h5c80 115 126 206 146 309c-6 71 -24 120 -50 169c23 17 48 30 88 30c26 0 70 -18 70 -78c0 -119 -104 -302 -210 -435c-114 -143 -248 -262 -332 -262
c-48 0 -80 30 -81 77c-1 48 31 85 77 85c45 0 66 -35 79 -80h4c69 86 98 236 100 387c1 114 -20 198 -54 198c-28 0 -51 -45 -58 -126h-37z" />
    <glyph glyph-name="ycircumflex.short" horiz-adv-x="526" 
d="M249 585h-63l132 197h93l57 -197h-58l-65 95zM13 268c-2 101 44 235 146 235c83 0 142 -70 148 -252c2 -75 -15 -179 -41 -257h5c80 115 126 206 146 309c-6 71 -24 120 -50 169c23 17 48 30 88 30c26 0 70 -18 70 -78c0 -119 -104 -302 -210 -435
c-114 -143 -248 -262 -332 -262c-48 0 -80 30 -81 77c-1 48 31 85 77 85c45 0 66 -35 79 -80h4c69 86 98 236 100 387c1 114 -20 198 -54 198c-28 0 -51 -45 -58 -126h-37z" />
    <glyph glyph-name="ydieresis.short" horiz-adv-x="526" 
d="M159 673c0 41 33 75 74 75s74 -34 74 -75s-33 -73 -74 -73s-74 32 -74 73zM380 673c0 41 33 75 73 75c41 0 75 -34 75 -75s-34 -73 -75 -73c-40 0 -73 32 -73 73zM13 268c-2 101 44 235 146 235c83 0 142 -70 148 -252c2 -75 -15 -179 -41 -257h5c80 115 126 206 146 309
c-6 71 -24 120 -50 169c23 17 48 30 88 30c26 0 70 -18 70 -78c0 -119 -104 -302 -210 -435c-114 -143 -248 -262 -332 -262c-48 0 -80 30 -81 77c-1 48 31 85 77 85c45 0 66 -35 79 -80h4c69 86 98 236 100 387c1 114 -20 198 -54 198c-28 0 -51 -45 -58 -126h-37z" />
    <glyph glyph-name="ygrave.short" horiz-adv-x="526" 
d="M13 268c-2 101 44 235 146 235c83 0 142 -70 148 -252c2 -75 -15 -179 -41 -257h5c80 115 126 206 146 309c-6 71 -24 120 -50 169c23 17 48 30 88 30c26 0 70 -18 70 -78c0 -119 -104 -302 -210 -435c-114 -143 -248 -262 -332 -262c-48 0 -80 30 -81 77
c-1 48 31 85 77 85c45 0 66 -35 79 -80h4c69 86 98 236 100 387c1 114 -20 198 -54 198c-28 0 -51 -45 -58 -126h-37zM195 782h124l38 -197h-61l-101 179v18z" />
    <glyph glyph-name="uni0237.short" horiz-adv-x="318" 
d="M-81 -260l-17 30c54 45 94 74 139 254l93 377l-78 19l5 23s92 64 164 64c49 0 77 -34 56 -121l-73 -295c-46 -190 -126 -314 -289 -351z" />
    </font>
</defs>
</svg>
