<svg xmlns="http://www.w3.org/2000/svg" xmlns:xlink="http://www.w3.org/1999/xlink" viewBox="0 0 353.39 560.74"><defs><style>.cls-1{fill:none;}.cls-2{clip-path:url(#clip-path);}.cls-3{fill:#bff1f4;}.cls-4{fill:#4da3c1;}.cls-5{fill:#36385c;}.cls-6{fill:#70c1b9;}.cls-7{fill:#8ccdc7;}.cls-8{fill:#1f9e92;}.cls-9{fill:#12998c;}.cls-10{fill:#41ada3;}.cls-11{fill:#58b7ae;}.cls-12{fill:#30a69a;}.cls-13{fill:#009183;}</style><clipPath id="clip-path"><circle class="cls-1" cx="213.07" cy="213.97" r="132.51"/></clipPath></defs><title>Asset 7</title><g id="Layer_2" data-name="Layer 2"><g id="Layer_1-2" data-name="Layer 1"><g class="cls-2"><path class="cls-3" d="M193.76,41.65l.73-.57c-.29.1-.55.26-.84.36C193.69,41.51,193.72,41.59,193.76,41.65Z"/><path class="cls-4" d="M138.21,343.28l.27.3c.09-.25.23-.53.33-.78-.18-.24-.37-.46-.54-.7C138.25,342.49,138.24,342.91,138.21,343.28Z"/><path class="cls-4" d="M138.75,344a5.11,5.11,0,0,1,.46.76c.15-.25.36-.57.53-.83-.21-.27-.44-.51-.65-.78Z"/><path class="cls-4" d="M320.28,49.62c.07.21.13.43.2.65.68.18,1.35.37,2,.54C321.61,49.9,320.85,49.48,320.28,49.62Z"/><path class="cls-5" d="M12.31,215.86c2.13,1.17,1.11-2.59,1-6.94l-.09-.07A49.24,49.24,0,0,1,12.31,215.86Z"/><path class="cls-6" d="M193.79,447.24c-5.32,1.67-10.56,8.18-17.26,4-1.89-3.2-5.24-6.51-3.12-10l13.15-6.15c-2.73-9.42-6.07-18.54-9.32-26.94-4.67-5.18-8-9.36-12.3-13.91-5.21,7.52-11,15.28-15.85,23.39,2.69,7.72,5.58,15.35,7.43,23.43,3.94,14.26,32.9,62.82,63.43,119.71h47C240.65,505.46,216.49,460,212,454.43,205.87,452.32,199.92,449.33,193.79,447.24Z"/><path class="cls-7" d="M176.53,451.2c6.7,4.22,11.94-2.29,17.26-4-2.27-3.84-4.95-8.33-7.23-12.18l-13.15,6.15C171.29,444.69,174.64,448,176.53,451.2Z"/><path class="cls-8" d="M340.39,215.1a49.48,49.48,0,0,1,13,15V210.65c-1.21-.91-2.38-1.8-3.48-2.68Z"/><path class="cls-9" d="M300.93,230.38c7.09,6.06,12.94,13.05,18.16,4C310.69,234.67,306.51,233.2,300.93,230.38Z"/><path class="cls-9" d="M280.14,427.56c.71-4.05,3.12-5.8,5.39-7.66C259.82,397,240.39,374.16,222,351.51a33.1,33.1,0,0,1-9.31-.92l-6.13-9.74c-6.37-1.09-12.31-1.52-18.64-2.59a203.52,203.52,0,0,0,6.36,21.4c8,7,4.87,14.52-4.42,25.71l11.53,22.82,5.38,9.08,16.1,16.5c9.3,9.77,20.8-6.24,24.4,12.82,1.12,5.17,25.78,55.31,51.24,114.15h38.77c-26.58-64.66-53.45-122.42-53.26-126.58C282.5,431.53,281.32,429.55,280.14,427.56Z"/><path class="cls-9" d="M151.4,89.45l-41.13,32.66c1.36.92,2.87,1.81,4.46,2.69L156.08,92A42.94,42.94,0,0,0,151.4,89.45Z"/><path class="cls-9" d="M90,147.39l8.57-6.81-.52-.79L111,129.51l-1.35-.66,4.41-3.5-13.35,3.13-4.65,1.1L80.41,142c2.31,3.87,4.44,7.49,6.5,11.08l4.94-3.92Z"/><path class="cls-9" d="M182.88,72.07l-5.81-6.84L152.79,84.51l6.84-2.83Z"/><path class="cls-9" d="M252.41,310.23c-4.65-7-9.53-13.87-14.63-21C240.8,304.71,247.82,304.61,252.41,310.23Z"/><path class="cls-9" d="M234.72,192.22c-7.42-9.47-12.6-22-25.27-21.34L203,161.75l17.86-9.92-.33-.47c-2.44-1.26-4.86-2.5-7.49-3.73l-8.73,7.05a10.49,10.49,0,0,0-5.2-1l-3.43-9.08-1.29.17-10-13.48c-.22-.08-.42-.19-.63-.26l-11.19-10.55c-1.5-10.59-4.75-18.54-11.35-24.56l-46,36.56L129.46,146a60,60,0,0,1,1.71,8.88l15.13,7,6.91,13.77c10,2.09,13.49,10.42,25.93,13.64,7.21,5.41,14.39,10.82,21.67,17.17,3.37-1.67,7.76-3.1,11.12-4.76,2.68-3.11,4.34-6.45,6.54-9.23,6.09,4.34,12.75,9.21,18.39,13.93,7.44,2.24,16.19,9.64,9.8,21.59,7.28,7.44,14.5,14.86,36.26,25.3,1.23,2.09,1.95,4.51,3.23,7.51l.32,3.71c8.87,8.25,17.34,15.79,26.08,24.16a85.64,85.64,0,0,1-1.82,10.13l13.08,13.95,10.38,11a48.25,48.25,0,0,0,5.06,1.53c-.47-.87-.84-1.73-1.34-2.6-2.32-5.91-4.61-11.85-7.49-17.49L320.21,289c-.5-4.17-1-8.34-.56-12.11l-14.51-6.1-27.43-41.23c-1.45-1.05-2.94-1.16-4.36-2.2-3.69-7-7-13.38-10.72-20.39l-15.47-17.87C243,190.47,238.88,190.88,234.72,192.22Z"/><path class="cls-9" d="M255.09,331c-6.38-5.95-15.26-4.2-19.83-13.37-15.75-9.56-7.55-19.59-15.33-40.24l-14.5-22.44a219.6,219.6,0,0,0-18-13.8c-4.82-12.19-23.38-20.5-20.15-32.17-5.07-5-9.05-8.91-13.57-13.35a125.24,125.24,0,0,0-15.08,3.08c1.82,1.33,3.64,2.65,5.44,4,.52,5.93.56,11.18,1.57,16.8a29.28,29.28,0,0,0,19.92,13.77c3.78,8.51,7.09,16.35,9.89,24.46q12.28-2.61,23.11,8.77a148.24,148.24,0,0,1,.68,16.19c.65,3.11,1,4.69,1.65,7.83,7.21,11,15.23,22.44,22.54,34.28,4.8,5.35,9.47,11.62,14.23,17-.74.72-1.44,1.49-2.13,2.27,4,5.56,7.79,11.25,11.59,17.07,6.52,9.79,12.87,20.08,20.06,30.86,3.85-6.78,1.38-12.87-13.43-24.69-3.57-6.81-6.19-13.22-9.25-20.29l15.79-7.7A69.32,69.32,0,0,1,255.09,331Z"/><path class="cls-9" d="M121.65,186c2.75,2.17,5.62,4.28,8.48,6.4l-10.61-12.27Z"/><path class="cls-9" d="M102.63,160.58l-5.93-6.85L93,150.2l-5.29,4.21c.54,1,1.13,2,1.66,2.92C93.32,161.74,98,160.78,102.63,160.58Z"/><path class="cls-9" d="M158,93.35,111.93,130l1.25.61.94.89,46-36.57C159.52,94.34,158.75,93.86,158,93.35Z"/><path class="cls-9" d="M298.31,368.73c-6.12-7-12.54-13.68-18.92-20.46,9,14.24,17.6,28.7,26.21,43.18,8.69,2.82,9.78,17.64,21.24,19.24-.5-1-.87-1.87-1.32-2.82l-7-7.82C311.73,392.5,305,385,298.31,368.73Z"/><path class="cls-9" d="M290.07,411.28l-19.7-14.65c4.92,7.2,10.26,14.61,16.34,22.23A9.41,9.41,0,0,0,290.07,411.28Z"/><path class="cls-10" d="M34.39,172.64l8.13,7.69c2.91,8,6.81,16.25,10.23,23.93,9.29,2.51,18.53,6,28.31,9.17.29-3.78.48-7.7.7-11.61-8.18-5.26-17.09-13-26.44-21.73l7.77-6.16c-1.85-.81-3.66-1.58-5.58-2.41-1.6-3.82-3-7.59-4.39-11.35l36.67-29.12-4.31,1Z"/><path class="cls-10" d="M322.5,119.89,301.86,96.36c-5-6.56-9.41-12.52-14.88-18.71-3.59-7.73-9.14-12.74-15.16-18.49-5.77-.62-11.42-.27-17.19-.88L240.15,44.65,216.64,27.89l-79.35,63,6.31-2.61,56.93-45.22,8.8,14.69L222,47.7c15.46,20.6,31.71,44.79,47.74,59.4,6,1.39,7.44,4.15,7.74,7.3,4.94-.07,9.83-.2,14.37-.68,8.68,3.57,17.86,6.8,26,9.82-3.68,8-7.59,16.39-11.28,24.36,6.49,6.31,12.71,12.86,19.06,19.3l19.54,19.93q4.09,3.23,8.23,6.45V154.81l-5.13-5C339.45,140,331.12,129.81,322.5,119.89Z"/><path class="cls-10" d="M209.57,61.4c-.32,1.26-.72,2.54-1.1,4.17,2.39,1.4,4.72,2.83,7.09,4.24Z"/><path class="cls-10" d="M83.25,182.23l-.53-.22.5.5A2.66,2.66,0,0,1,83.25,182.23Z"/><path class="cls-11" d="M349.91,208c1.1.88,2.27,1.77,3.48,2.68V193.58q-4.12-3.22-8.23-6.45Z"/><path class="cls-11" d="M243,138.84l7.56,1.12a81.73,81.73,0,0,1,7.09-8l-.26-.18-21.73-18a20.87,20.87,0,0,1-7.57.91Z"/><path class="cls-11" d="M280.37,127.19c1.75,4.58,3.11,8.59,4.45,12.57l7,9.32c4.57-.46,9.58-1.29,14.75-1.18,3.69-8,7.6-16.4,11.28-24.36-8.11-3-17.29-6.25-26-9.82-4.54.48-9.43.61-14.37.68C277.89,118.66,276.17,123.66,280.37,127.19Z"/><path class="cls-11" d="M97.78,196.76l12.68,4.72c6.28,6,12.69,11.82,18.83,17.92,1.29,2.31,3,4.57,4.51,6.85l3.07,1.56c.89,2.13,1.82,4.27,2.73,6.4,8.13,10.19,18,20.06,27.62,29.71,10.18,10.17,19.7,20.32,26.42,30.28l7.24-3.72c-.67-3.14-1-4.72-1.65-7.83a148.24,148.24,0,0,0-.68-16.19q-10.81-11.38-23.11-8.77c-2.8-8.11-6.11-15.95-9.89-24.46a29.28,29.28,0,0,1-19.92-13.77c-1-5.62-1-10.87-1.57-16.8-1.8-1.34-3.62-2.66-5.44-4l-1.66.4-5.75-5.45-1.08-1.24c-2.86-2.12-5.73-4.23-8.48-6.4l-33.73-6.45-2.6,1.5,9.4,12.74Z"/><path class="cls-11" d="M324.22,222.17c.77-2.58,2.56-4.95,3.8-7.89l-25-29.74c-1.54.14-3.15-.67-5.21-1.1-.87-2.52-1.68-4.94-2.51-7.4-1.07-.65-2.1-1.32-3.16-2l-4.77,2.56c-1.73,2.74-4,4.82-5.67,7.56l4.19,5.93c11.4,14.86,22.32,29.07,33.17,44.22,6.75,10,14.35,21.42,21.12,32.38l8.2,13c1.62.67,3.26,1.35,5,2V260.61l-.19-.3.19-1.63v-10l-7.08,5.21Z"/><path class="cls-6" d="M322.52,50.81c-.69-.17-1.36-.36-2-.54-13.07-3.65-23.58-10.22-28.74-22.35C272.82,31.5,261.6,14.29,246.21,0l-18.4,14.61L194.49,41.08l-.73.57-68,54.05,11.58-4.78,79.35-63,23.51,16.76,14.48,13.63c5.77.61,11.42.26,17.19.88,6,5.75,11.57,10.76,15.16,18.49,5.47,6.19,9.88,12.15,14.88,18.71l20.64,23.53c8.62,9.92,16.95,20.14,25.76,30l5.13,5V59.61c-1.79-1.74-3.53-3.51-5.32-5.24A142.17,142.17,0,0,1,322.52,50.81Z"/><path class="cls-6" d="M66.9,142.41l-2.63,2.08L34.73,168l-11.54,9.16L7.27,189.77l-3.79,3L0,195.54a59.48,59.48,0,0,0,13.24,13.31l.09.07c.43.3.82.63,1.26.92-1.06,7.61-1.13,14.55-1.71,21.81l4.38,5.93c.14.19.27.38.42.57L19.07,240l.55.75c1.72,2.32,3.56,4.82,5.75,7.79,5.08-1.17,9.64-2.06,14.78-4.11-2.58-6.32-5.44-13.31-8.29-20.31l15.08-8.68L57.8,230.15c.06,5.16-1.8,10.54,1.63,16.38l12.7,15.79,10.24,12.76a3.77,3.77,0,0,0,.72.44c3.68,2.34,6.27-3.8,8.49,2.24,15.62,12.9-10,13.95-7.62,24.59,15.39,1.9,19.09,14.36,26,22.54,8,3.4,15.24,5.57,22.85,8.37a57.48,57.48,0,0,0,5.42,8.84c.17.24.36.46.54.7s.19.22.28.34c.21.27.44.51.65.78a59.69,59.69,0,0,0,20.57,15.82c1.06-9.79,1.16-19.14,1.93-28.85l-32.55-48.8c-6.71-3.31-11-10.4-18.45-31.48L94.53,226.82c-4.49-4.48-9.34-8.73-13.47-13.39-9.78-3.2-19-6.66-28.31-9.17-3.42-7.68-7.32-15.95-10.23-23.93l-8.13-7.69,51.09-40.58-7.89,1.86-9.92,7.87Z"/><path class="cls-6" d="M114.12,131.46l1.12,1,46-36.56c-.37-.35-.69-.73-1.1-1.06Z"/><path class="cls-6" d="M235.52,344c-3.14,3.51-6.37,7.11-13.49,7.51,18.36,22.65,37.79,45.5,63.5,68.39.41-.33.79-.69,1.18-1-6.08-7.62-11.42-15-16.34-22.23l-4.15-3.08a18.39,18.39,0,0,0,.95-1.62c-7.19-10.78-13.54-21.07-20.06-30.86C243.31,355.25,239.5,349.56,235.52,344Z"/><path class="cls-6" d="M91.85,149.15l-4.94,3.92.76,1.34L93,150.2Z"/><path class="cls-6" d="M81.76,201.82c.35-6.41.74-12.88,1.46-19.31l-.5-.5c-7-2.65-13.25-5.32-19.63-8.08l-7.77,6.16C64.67,188.85,73.58,196.56,81.76,201.82Z"/><path class="cls-6" d="M270,146.72c5.48,9.87,11.43,20.37,17.43,29.92l4.77-2.56c1.06.64,2.09,1.31,3.16,2-2.64-7.79-5.21-15.44-8.19-23.28-8.31-6-17.05-12.38-25.78-18.25Z"/><path class="cls-6" d="M209.57,61.4l6,8.41c13.25,7.89,26.3,15.9,39.21,23.3.28,1.87.55,3.73.69,4.69l17,16.68c-.79,1.69-1,4-1.69,6.6l14,18.68c-1.34-4-2.7-8-4.45-12.57-4.2-3.53-2.48-8.53-2.87-12.79-.3-3.15-1.72-5.91-7.74-7.3-16-14.61-32.28-38.8-47.74-59.4L209.33,57.78,210,59A13.35,13.35,0,0,1,209.57,61.4Z"/><path class="cls-6" d="M110.46,201.48l-12.68-4.72-3.06-3L109.63,214l24.17,12.28c-1.55-2.28-3.22-4.54-4.51-6.85C123.15,213.3,116.74,207.46,110.46,201.48Z"/><path class="cls-6" d="M167.22,263.92c-9.67-9.65-19.49-19.52-27.62-29.71,5.18,12.14,10.74,24.15,18.18,34.29,8.42,12.11,19.45,21.64,35.58,25.84l.28-.14C186.92,284.24,177.4,274.09,167.22,263.92Z"/><path class="cls-8" d="M192,134.74c-3-1.35-5.14-2.52-7.54-3.42l10,13.48,1.29-.17Z"/><path class="cls-8" d="M156.08,92,114.73,124.8c.17.09.29.19.46.28l-1.14.27-4.41,3.5,1.35.66,46.24-36.73C156.84,92.51,156.49,92.22,156.08,92Z"/><path class="cls-8" d="M334.19,323.78l-10.38-11-13.08-13.95a85.64,85.64,0,0,0,1.82-10.13c-8.74-8.37-17.21-15.91-26.08-24.16l-.32-3.71c-1.28-3-2-5.42-3.23-7.51-21.76-10.44-29-17.86-36.26-25.3,6.39-11.95-2.36-19.35-9.8-21.59-5.64-4.72-12.3-9.59-18.39-13.93-2.2,2.78-3.86,6.12-6.54,9.23-3.36,1.66-7.75,3.09-11.12,4.76-7.28-6.35-14.46-11.76-21.67-17.17-12.44-3.22-15.93-11.55-25.93-13.64l-6.91-13.77-15.13-7a60,60,0,0,0-1.71-8.88l-14.22-13.44-1.12-1-.94-.89-1.25-.61L98.56,140.58q2.63,4,4.93,7.46l20.85,12.43,22,20.8,7.36,14.32c4.52,4.44,8.5,8.35,13.57,13.35-3.23,11.67,15.33,20,20.15,32.17a219.6,219.6,0,0,1,18,13.8c9.64,1.42,25.51,4.2,29.23,29.93l2.76,2.82c5,6.06,14.41.91,23.15,19.81l-6.66,4.95a156.08,156.08,0,0,0,6,15l7.74,8.25.26-.12a59.58,59.58,0,0,0,8.55,7.94c1,1.57,2,3.19,3,4.78,6.38,6.78,12.8,13.51,18.92,20.46,6.32,7.91,10.91-1.09,19.16,4.52l.56,1c-.64-15.71-.11-29.37-17.14-46.07-.28-6-.52-11-.8-17L324.8,329c-2.22,9.77,5,22,15.64,25.71l7.37-3.42-5-5.53c.94-2.49,1.92-5.12,2.9-7.73q-3-6.33-6.48-12.67A48.25,48.25,0,0,1,334.19,323.78Zm-70.3-53.34c2-3.59,4.26-7.57,6.26-11.14,6.44,6.45,13,12.85,19.88,19.08a97.79,97.79,0,0,0,.94,12.75C275.15,292.84,274.82,273.69,263.89,270.44Z"/><path class="cls-10" d="M253.91,312.42c-.49-.73-1-1.46-1.5-2.19-4.59-5.62-11.61-5.52-14.63-21-1.05-1.47-2-2.88-3.12-4.38l-14.73-7.49c7.78,20.65-.42,30.68,15.33,40.24,4.57,9.17,13.45,7.42,19.83,13.37a69.32,69.32,0,0,0,5.19,8.29l7.33-3.58-7.74-8.25A156.08,156.08,0,0,1,253.91,312.42Z"/><path class="cls-10" d="M157.23,92.78,111,129.51,98,139.79l.52.79L111.93,130,158,93.35C157.76,93.16,157.51,93,157.23,92.78Z"/><path class="cls-10" d="M91.85,149.15l1.11,1,3.74,3.53,5.93,6.85c4.56-.19,9,.36,12.59,7.68l4.3,11.85,10.61,12.27,1.08,1.24,5.75,5.45,1.66-.4a125.24,125.24,0,0,1,15.08-3.08l-7.36-14.32-22-20.8L103.49,148q-2.31-3.48-4.93-7.46L90,147.39Z"/><path class="cls-10" d="M261.36,134.51c-1.24-.84-2.48-1.75-3.72-2.56a81.73,81.73,0,0,0-7.09,8L243,138.84l15.94,25.76-8.84,7c-8.45-6.65-14.36-17.39-18.52-14.06-3.91-2.37-7.45-4.32-11-6.17l.33.47,26.27,37.3L262.63,207c6.2-1.5,12.42-3,17.66-4.83,2.79,7.53,5.32,14.34,8.12,21.88,4.6.12,8.73,3.09,12.52,6.33,5.58,2.82,9.76,4.29,18.16,4-10.85-15.15-21.77-29.36-33.17-44.22l-4.19-5.93c1.71-2.74,3.94-4.82,5.67-7.56-6-9.55-11.95-20-17.43-29.92Z"/><path class="cls-10" d="M121.65,186l-2.13-5.87-4.3-11.85c-3.56-7.32-8-7.87-12.59-7.68s-9.31,1.16-13.3-3.25l-1.41,22.2Z"/><path class="cls-12" d="M353.39,351.19v0h-.05A.1.1,0,0,0,353.39,351.19Z"/><path class="cls-12" d="M343.48,298.91c1.6-6.24,3.33-13,4.93-19.22l-8.2-13c-6.77-11-14.37-22.35-21.12-32.38-5.22,9.08-11.07,2.09-18.16-4-3.79-3.24-7.92-6.21-12.52-6.33-2.8-7.54-5.33-14.35-8.12-21.88-5.24,1.85-11.46,3.33-17.66,4.83,3.68,7,7,13.37,10.72,20.39,1.42,1,2.91,1.15,4.36,2.2l27.43,41.23,14.51,6.1c-.47,3.77.06,7.94.56,12.11l10.21,16.19c2.88,5.64,5.17,11.58,7.49,17.49.5.87.87,1.73,1.34,2.6q3.44,6.35,6.48,12.67l1.55-4.13a25.72,25.72,0,0,1-2.9-7.64A106.89,106.89,0,0,0,350.63,312l2.76-2V299Q348.38,298.83,343.48,298.91Z"/><path class="cls-10" d="M343.48,298.91q4.9-.07,9.91.06V281.69c-1.72-.65-3.36-1.33-5-2C346.81,285.89,345.08,292.67,343.48,298.91Z"/><path class="cls-8" d="M270.8,121.08c.7-2.65.9-4.91,1.69-6.6l-17-16.68-19.81,16,21.73,18,.26.18c1.24.81,2.48,1.72,3.72,2.56,8.73,5.87,17.47,12.22,25.78,18.25l4.67-3.68-7-9.32Z"/><path class="cls-8" d="M114.05,125.35l1.14-.27c-.17-.09-.29-.19-.46-.28-1.59-.88-3.1-1.77-4.46-2.69L151.4,89.45A42.94,42.94,0,0,1,156.08,92c.41.25.76.54,1.15.81s.53.38.8.57c.72.51,1.49,1,2.14,1.54.41.33.73.71,1.1,1.06,6.6,6,9.85,14,11.35,24.56l11.19,10.55c.21.07.41.18.63.26,2.4.9,4.54,2.07,7.54,3.42,1.71-5.55,11.34-4.05,21.09,12.89,2.63,1.23,5.05,2.47,7.49,3.73,3.56,1.85,7.1,3.8,11,6.17,4.16-3.33,10.07,7.41,18.52,14.06l8.84-7L243,138.84l-14.91-24.11L191.19,80l-8.31-7.88-23.25,9.61-6.84,2.83L96.05,129.58l4.65-1.1Z"/><path class="cls-8" d="M81.76,201.82c-.22,3.91-.41,7.83-.7,11.61,4.13,4.66,9,8.91,13.47,13.39A177.73,177.73,0,0,1,109.63,214l-14.91-20.2L85.32,181l-2.07,1.2a2.66,2.66,0,0,0,0,.28C82.5,188.94,82.11,195.41,81.76,201.82Z"/><path class="cls-8" d="M209.45,170.88c12.67-.68,17.85,11.87,25.27,21.34,4.16-1.34,8.27-1.75,12.44-3.09l-26.27-37.3L203,161.75Z"/><path class="cls-12" d="M223.42,324.76c-7.31-11.84-15.33-23.27-22.54-34.28l-7.24,3.72-.28.14c-16.13-4.2-27.16-13.73-35.58-25.84-7.44-10.14-13-22.15-18.18-34.29-.91-2.13-1.84-4.27-2.73-6.4l-3.07-1.56L109.63,214a177.73,177.73,0,0,0-15.1,12.85l16.71,23.79c7.48,21.08,11.74,28.17,18.45,31.48l7.44-4c14.62,12,22.07,28.8,32.65,48.93l-7.54,3.84c-.77,9.71-.87,19.06-1.93,28.85,1.55,2.49,3,4.79,4.44,7.1l3.56,5.68c-1.1,7.25-2.64,13.83-3.37,21.69,4.26,4.55,7.63,8.73,12.3,13.91,7.6-.32,15.61,0,24.18.07l-11.53-22.82c-5.8-4.71-12.54-9.78-18.86-14.19l23.28-11.52a203.52,203.52,0,0,1-6.36-21.4c6.33,1.07,12.27,1.5,18.64,2.59l6.57-11Z"/><path class="cls-8" d="M162.24,330.89l7.54-3.84c-10.58-20.13-18-36.9-32.65-48.93l-7.44,4Z"/><path class="cls-8" d="M235.52,344c.69-.78,1.39-1.55,2.13-2.27-4.76-5.35-9.43-11.62-14.23-17l-10.26,5.13-6.57,11,6.13,9.74a33.1,33.1,0,0,0,9.31.92C229.15,351.11,232.38,347.51,235.52,344Z"/><path class="cls-13" d="M324.8,329l-24.71-17.77c.28,6,.52,11.06.8,17,17,16.7,16.5,30.36,17.14,46.07l10.27,19c5.24,7.7,11.24,15.79,17.3,23.87-3.47.51-6.44,1.62-9.91,2.11l-10.17-11.35c.45.95.82,1.86,1.32,2.82-11.46-1.6-12.55-16.42-21.24-19.24C297,377,288.42,362.51,279.39,348.27c-1-1.59-1.95-3.21-3-4.78a59.58,59.58,0,0,1-8.55-7.94l-.26.12-7.33,3.58L244.49,347c3.06,7.07,5.68,13.48,9.25,20.29,14.81,11.82,17.28,17.91,13.43,24.69a18.39,18.39,0,0,1-.95,1.62l4.15,3.08,19.7,14.65a9.41,9.41,0,0,1-3.36,7.58c-.39.35-.77.71-1.18,1-2.27,1.86-4.68,3.61-5.39,7.66,1.18,2,2.36,4,3.91,6.6-.19,4.16,26.68,61.92,53.26,126.58h16.08V376.41l-12.95-21.75C329.82,350.91,322.58,338.72,324.8,329Z"/><path class="cls-8" d="M189.89,385.37c9.29-11.19,12.41-18.66,4.42-25.71L171,371.18C177.35,375.59,184.09,380.66,189.89,385.37Z"/><path class="cls-8" d="M222.9,433.77l-16.1-16.5-5.38-9.08c-8.57-.07-16.58-.39-24.18-.07,3.25,8.4,6.59,17.52,9.32,26.94,2.28,3.85,5,8.34,7.23,12.18,6.13,2.09,12.08,5.08,18.25,7.19,4.45,5.52,28.61,51,54.94,106.31h31.56c-25.46-58.84-50.12-109-51.24-114.15C243.7,427.53,232.2,443.54,222.9,433.77Z"/><path class="cls-8" d="M348.13,351.6l-.32-.36-7.37,3.42,12.95,21.75V351.19a.1.1,0,0,1-.05,0Z"/><path class="cls-12" d="M340.39,215.1l9.52-7.13-4.75-20.84L325.62,167.2c-6.35-6.44-12.57-13-19.06-19.3-5.17-.11-10.18.72-14.75,1.18l-4.67,3.68c3,7.84,5.55,15.49,8.19,23.28.83,2.46,1.64,4.88,2.51,7.4,2.06.43,3.67,1.24,5.21,1.1l25,29.74c-1.24,2.94-3,5.31-3.8,7.89l22.09,31.73,7.08-5.21V230.12A49.48,49.48,0,0,0,340.39,215.1Z"/><path class="cls-12" d="M252.41,310.23c.49.73,1,1.46,1.5,2.19l6.66-4.95c-8.74-18.9-18.2-13.75-23.15-19.81l-2.76-2.82c1.08,1.5,2.07,2.91,3.12,4.38C242.88,296.36,247.76,303.27,252.41,310.23Z"/><path class="cls-12" d="M53.12,160.17c1.35,3.76,2.79,7.53,4.39,11.35,1.92.83,3.73,1.6,5.58,2.41,6.38,2.76,12.63,5.43,19.63,8.08l.53.22,2.07-1.2,2.6-1.5,1.41-22.2c-.53-1-1.12-2-1.66-2.92l-.76-1.34c-2.06-3.59-4.19-7.21-6.5-11.08l15.64-12.41,56.74-45.07,24.28-19.28,5.81,6.84L191.19,80l36.89,34.78a20.87,20.87,0,0,0,7.57-.91l19.81-16c-.14-1-.41-2.82-.69-4.69-12.91-7.4-26-15.41-39.21-23.3-2.37-1.41-4.7-2.84-7.09-4.24.38-1.63.78-2.91,1.1-4.17A13.35,13.35,0,0,0,210,59l-.7-1.18-8.8-14.69L143.6,88.31,89.79,131.05Z"/><path class="cls-13" d="M344.38,326.21a25.72,25.72,0,0,0,2.9,7.64c1.92,1.81,4,3.65,6.11,5.49V310l-2.76,2A106.89,106.89,0,0,1,344.38,326.21Z"/><path class="cls-9" d="M345.73,338c-1,2.61-2,5.24-2.9,7.73l5,5.53.32.36,5.21-.45h.05V339.34c-2.12-1.84-4.19-3.68-6.11-5.49Z"/><path class="cls-13" d="M192,134.74l3.73,9.89,3.43,9.08a10.49,10.49,0,0,1,5.2,1l8.73-7.05C203.32,130.69,193.69,129.19,192,134.74Z"/><path class="cls-13" d="M270.15,259.3c-2,3.57-4.24,7.55-6.26,11.14,10.93,3.25,11.26,22.4,27.08,20.69a97.79,97.79,0,0,1-.94-12.75C283.1,272.15,276.59,265.75,270.15,259.3Z"/><path class="cls-6" d="M353.39,260.61v-1.93l-.19,1.63Z"/><path class="cls-12" d="M298.31,368.73c6.66,16.25,13.42,23.77,20.2,31.32l7,7.82,10.17,11.35c3.47-.49,6.44-1.6,9.91-2.11-6.06-8.08-12.06-16.17-17.3-23.87l-10.27-19-.56-1C309.22,367.64,304.63,376.64,298.31,368.73Z"/><path class="cls-12" d="M219.93,277.35l14.73,7.49c-3.72-25.73-19.59-28.51-29.23-29.93Z"/></g></g></g></svg>