<svg xmlns="http://www.w3.org/2000/svg" viewBox="0 0 231.53 329.81"><defs><style>.cls-1{isolation:isolate;}.cls-2,.cls-3{fill:#c7d1d8;}.cls-14,.cls-2{opacity:0.6;}.cls-4{fill:#ffebd2;}.cls-18,.cls-5{fill:#876f5c;}.cls-6{fill:#ff9a15;}.cls-16,.cls-7{fill:#fff;}.cls-7{opacity:0.81;}.cls-8{fill:#e0c8a6;}.cls-9{fill:#41b3d6;}.cls-10{fill:#288bb2;}.cls-11{fill:#4e4754;}.cls-12{fill:#645966;}.cls-13{fill:#e6f3f4;}.cls-14{fill:#544756;}.cls-15{fill:#a38fb5;opacity:0.5;}.cls-15,.cls-18{mix-blend-mode:multiply;}.cls-17{fill:#b1c7c9;}.cls-18{opacity:0.58;}.cls-19{fill:#b59885;}.cls-20{fill:#ffce31;}.cls-21{fill:#dbbf9c;}.cls-22,.cls-23{fill:none;stroke-linecap:round;stroke-linejoin:round;stroke-width:7.63px;}.cls-22{stroke:#876f5c;opacity:0.59;}.cls-23{stroke:#7d7087;}.cls-24{fill:#7c9cb4;}.cls-25{fill:#433a47;}.cls-26{fill:#574d5e;}.cls-27{fill:#cece15;}.cls-28{fill:#f7524b;}.cls-29{fill:#ffcf48;}</style></defs><title>Asset 3</title><g class="cls-1"><g id="Layer_2" data-name="Layer 2"><g id="Layer_1-2" data-name="Layer 1"><path class="cls-2" d="M0,15.17c0-1.05.27-1.91.61-1.91h212.2c.24,0,.46.47.55,1.14a4.75,4.75,0,0,1,0,.77V187.53c0,1.05-.27,1.91-.6,1.91L.61,158.33"/><polygon class="cls-3" points="202 258.01 216.78 254.08 146.63 155.36 124.35 213.64 124.35 153.41 0 154.07 93.94 289.5 95.47 289.2 95.1 290.16 133.61 329.81 218.83 301.19 202 258.01"/><rect class="cls-4" x="94.63" y="13.76" width="132.04" height="174.36" rx="1.91" ry="1.91"/><rect class="cls-4" x="94.63" y="18.38" width="132.04" height="93.18" rx="1.91" ry="1.91"/><rect class="cls-5" x="99.4" y="130.11" width="122.5" height="155.28"/><rect class="cls-5" x="104.14" y="203.46" width="61.19" height="43.85"/><polygon class="cls-6" points="138.61 247.37 129.28 200.96 105.17 205.79 105.17 222.64 138.61 247.37"/><polygon class="cls-7" points="126.31 206.6 125.83 216.13 108.66 218.52 108.18 208.03 126.31 206.6"/><rect class="cls-8" x="99.4" y="177.05" width="122.5" height="33.95"/><rect class="cls-4" x="99.4" y="169.51" width="122.5" height="33.95"/><path class="cls-5" d="M221.9,166v37.45h-9.21c-10-11-27.31-30.07-34-37.45Z"/><path class="cls-5" d="M131.75,169.51l-10.44,22.62H113c-9-10-9-11.75-15.12-18.44l2.86-4.77Z"/><rect class="cls-4" x="99.4" y="247.31" width="122.5" height="33.94"/><polygon class="cls-5" points="114.75 269.06 101.98 252.54 101.98 234.74 118.83 234.74 114.75 269.06"/><polygon class="cls-9" points="195.8 170.44 123.77 133.93 123.77 186.48 195.8 186.48 195.8 170.44"/><polygon class="cls-10" points="119.09 170.44 119.09 186.48 195.79 186.48 195.79 191.82 112.71 191.82 112.71 165.17 195.79 169.94 195.79 175.21 119.09 170.44"/><polygon class="cls-11" points="119.09 170.89 119.09 186.48 126.41 186.48 126.41 191.82 112.71 191.82 112.71 164.37 126.41 164.37 126.41 170.89 119.09 170.89"/><polygon class="cls-12" points="126.42 172.5 119.09 170.89 119.09 186.48 126.42 186.48 126.42 172.5"/><polygon class="cls-9" points="195.81 134.93 126.41 130.88 113.67 133.86 126.24 165.97 195.81 169.94 195.81 134.93"/><polygon class="cls-13" points="191.11 174.92 191.11 183.15 119.09 183.15 119.09 170.89 126.41 170.89 191.11 174.92"/><polygon class="cls-14" points="124.02 170.75 124.02 183.15 119.09 183.15 119.09 170.89 124.02 170.75"/><polygon class="cls-15" points="191.11 174.92 191.11 179.69 119.09 174.92 119.09 170.89 126.42 170.89 191.11 174.92"/><rect class="cls-12" x="112.71" y="130.88" width="13.7" height="35.07"/><path class="cls-16" d="M172.6,141.37a1.71,1.71,0,0,0-1.59-1.68l-23.09-1.34a1.48,1.48,0,0,0-1.59,1.49l-.05,6.92a1.7,1.7,0,0,0,1.58,1.68L171,149.76a1.48,1.48,0,0,0,1.59-1.5Z"/><path class="cls-17" d="M128,159.19c0-.65-.72-1.19-1.59-1.19h-5.73c-.88,0-1.59.54-1.59,1.19a1.44,1.44,0,0,0,1.59,1.2h5.73C127.28,160.39,128,159.85,128,159.19Z"/><path class="cls-17" d="M127.75,137.59c0-.66-.72-1.19-1.59-1.19h-5.73c-.88,0-1.59.53-1.59,1.19a1.44,1.44,0,0,0,1.59,1.2h5.73C127,138.79,127.75,138.25,127.75,137.59Z"/><polygon class="cls-15" points="157.7 178.51 129.06 185.38 128.7 178.5 157.7 178.51"/><polygon class="cls-16" points="157.7 178.51 126.94 181.15 127.89 177.02 157.7 178.51"/><polygon class="cls-18" points="195.78 161.29 126.47 155.56 112.47 155.56 112.47 132.99 195.78 132.99 195.78 161.29"/><path class="cls-19" d="M221.9,245.82v33.95h-8.35c-9-10-24.75-27.25-30.84-33.95Z"/><path class="cls-8" d="M224.76,125.35H96.54a1.91,1.91,0,0,0-1.91,1.9v161a1.92,1.92,0,0,0,1.91,1.91H224.76a1.92,1.92,0,0,0,1.91-1.91v-161A1.91,1.91,0,0,0,224.76,125.35Zm-7.63,155.27h-113V134.89h113Z"/><polygon class="cls-20" points="135.84 265.26 123.93 267.22 114.75 269.06 105.41 222.63 126.52 218.84 134.01 256.14 135.84 265.26"/><path class="cls-21" d="M220.58,203.22a5.42,5.42,0,0,1,3.53.21l5.46,2.62a3.07,3.07,0,0,1,1.61,2.73l-8.68,79.46a3.4,3.4,0,0,1-1.86,2.67l-79.86,34.78a4.28,4.28,0,0,1-3.4-.21l-5.61-3.29a3.68,3.68,0,0,1-1.65-2.87V235.6a2.84,2.84,0,0,1,1.8-2.52Z"/><path class="cls-4" d="M229.72,207.48a1.29,1.29,0,0,1,1.81,1.3v83.73a2.89,2.89,0,0,1-1.8,2.53l-88.66,30.78a1.27,1.27,0,0,1-1.8-1.28V239.86a2.85,2.85,0,0,1,1.81-2.52Z"/><line class="cls-22" x1="151.92" y1="247.27" x2="151.92" y2="279.64"/><path class="cls-23" d="M160.66,251.5a6.39,6.39,0,0,0-2-1.86l-5.83-3.33"/><path class="cls-23" d="M152.87,273.91l5.8,3.21c1.84,1,3.34.12,3.34-2V255.35"/><path class="cls-23" d="M162,255.35a7,7,0,0,0-1.35-3.85"/><polygon class="cls-24" points="201.6 79.93 127.67 88.04 118.13 77.07 118.13 44.63 201.6 44.63 201.6 79.93"/><rect class="cls-25" x="198.27" y="2.19" width="7.63" height="47.69"/><rect class="cls-25" x="127.67" y="44.16" width="78.22" height="43.88"/><rect class="cls-26" x="127.67" y="40.34" width="78.22" height="34.34"/><rect class="cls-27" x="156.52" y="79.45" width="4.05" height="4.05"/><rect class="cls-28" x="197.06" y="79.45" width="4.05" height="4.05" rx="1.91" ry="1.91"/><rect class="cls-29" x="148.89" y="79.45" width="4.05" height="4.05"/><rect class="cls-27" x="141.26" y="79.45" width="4.05" height="4.05"/><rect class="cls-27" x="133.63" y="79.45" width="4.05" height="4.05"/><ellipse class="cls-26" cx="202.08" cy="2.54" rx="3.81" ry="2.54"/></g></g></g></svg>