<svg xmlns="http://www.w3.org/2000/svg" xmlns:xlink="http://www.w3.org/1999/xlink" viewBox="0 0 328.16 269.84"><defs><style>.cls-1,.cls-5{fill:none;}.cls-2{isolation:isolate;}.cls-3{opacity:0.81;}.cls-21,.cls-4{fill:#7c9cb4;}.cls-5{stroke:#433a47;stroke-linecap:round;stroke-width:4.77px;}.cls-5,.cls-7{stroke-miterlimit:10;}.cls-6{fill:#f27b57;}.cls-22,.cls-7{fill:#fff;}.cls-7{stroke:#913d31;stroke-width:9.54px;}.cls-8{clip-path:url(#clip-path);}.cls-9{fill:#ff2600;}.cls-10{fill:#353030;}.cls-11{fill:#ff2a00;}.cls-12{fill:#ffb500;}.cls-13{fill:#141414;}.cls-14{fill:#ffc914;}.cls-15{fill:#ffb000;}.cls-16{fill:#ffc200;}.cls-17{fill:#ff9500;}.cls-18{fill:#ffdb29;}.cls-19{fill:#ffff54;}.cls-20{fill:#7b96aa;opacity:0.1;}.cls-20,.cls-21{mix-blend-mode:multiply;}.cls-21{opacity:0.35;}.cls-22{opacity:0.46;mix-blend-mode:overlay;}</style><clipPath id="clip-path"><rect class="cls-1" x="61.2" y="38.39" width="247.75" height="207.04"/></clipPath></defs><title>Asset 5</title><g class="cls-2"><g id="Layer_2" data-name="Layer 2"><g id="Layer_1-2" data-name="Layer 1"><g class="cls-3"><rect class="cls-4" x="35.33" y="19.87" width="278.18" height="249.97"/></g><polyline class="cls-5" points="263.41 41.77 185.21 2.67 107.01 41.77"/><rect class="cls-6" x="46.82" y="16.7" width="276.75" height="20.78"/><rect class="cls-7" x="54" y="31.36" width="262.39" height="221.25"/><g class="cls-8"><rect class="cls-9" x="136.05" y="48.96" width="4.07" height="191.16" transform="matrix(0.54, -0.84, 0.84, 0.54, -58.16, 182.59)"/><path class="cls-9" d="M58.94,92.23,218.65,194.64l-1.42,2.21L57.52,94.45l1.42-2.22Zm-.43-2-.78,1.21-1.42,2.21-.78,1.21,1.21.78,159.72,102.4,1.2.78.78-1.21,1.42-2.22.78-1.21-1.21-.77L59.71,91l-1.2-.77Z"/><rect class="cls-10" x="178.52" y="55.79" width="27.77" height="184.08"/><polygon class="cls-11" points="169.9 209.73 154.89 233.1 0 154.72 15 110.27 169.9 209.73"/><rect class="cls-12" x="102.6" y="69.83" width="18.7" height="26.35" transform="translate(62.6 -47.33) rotate(32.71)"/><rect class="cls-12" x="215.86" y="38.67" width="8.38" height="76.96"/><rect class="cls-12" x="228.6" y="66.83" width="4.19" height="27.38" transform="translate(-9.57 36.07) rotate(-8.76)"/><rect class="cls-12" x="234.93" y="68.5" width="4.19" height="14.61" transform="translate(-8.78 36.98) rotate(-8.76)"/><polygon class="cls-11" points="255.96 53.93 284.92 83.75 273.19 95.41 243.99 66.32 255.96 53.93"/><rect class="cls-10" x="207.05" y="221.43" width="54.71" height="17.42" transform="translate(146.47 -86.37) rotate(30)"/><rect class="cls-10" x="84.25" y="233.38" width="54.71" height="9.68" transform="translate(134.06 -23.89) rotate(30)"/><rect class="cls-10" x="227.02" y="213.72" width="18.46" height="7.12" transform="translate(140.29 -89.02) rotate(30)"/><rect class="cls-13" x="255" y="234.52" width="37.91" height="5.04" transform="translate(155.23 -105.22) rotate(30)"/><rect class="cls-14" x="263.61" y="223.93" width="37.91" height="5.04" transform="translate(151.08 -110.95) rotate(30)"/><rect class="cls-12" x="217.27" y="181.6" width="10.76" height="5.04" transform="translate(121.89 -86.66) rotate(30)"/><rect class="cls-12" x="212" y="179.39" width="4.87" height="13.59" transform="translate(-54.01 278.84) rotate(-60.01)"/><path class="cls-12" d="M210,181.66l10.53,6.08-1.72,3-10.52-6.07,1.71-3Zm-.52-2-.72,1.25-1.72,3-.71,1.24,1.24.72L218.12,192l1.24.72.72-1.24,1.72-3,.72-1.25-1.25-.72-10.52-6.07-1.24-.72Z"/><rect class="cls-14" x="259.94" y="202.19" width="11.33" height="8.82" transform="translate(392.31 518.33) rotate(-150)"/><rect class="cls-14" x="271.27" y="228.14" width="11.55" height="5.04" transform="translate(152.45 -107.62) rotate(30)"/><rect class="cls-10" x="32.91" y="216.3" width="50" height="5.03" transform="translate(117.16 0.36) rotate(30)"/><rect class="cls-10" x="22.8" y="216.3" width="50" height="5.03" transform="translate(115.81 5.42) rotate(30)"/><rect class="cls-10" x="54.19" y="193.89" width="15.39" height="5.03" transform="translate(106.49 -4.63) rotate(30)"/><rect class="cls-15" x="98.01" y="234.14" width="54" height="2.59" transform="translate(134.47 -30.97) rotate(30)"/><rect class="cls-16" x="275.49" y="154.17" width="54" height="6.74" transform="translate(119.29 -130.14) rotate(30)"/><rect class="cls-11" x="256.48" y="134.39" width="50.3" height="6.74" transform="translate(106.61 -122.36) rotate(30)"/><rect class="cls-16" x="267.67" y="122.63" width="29.8" height="6.74" transform="translate(100.86 -124.4) rotate(30)"/><rect class="cls-17" x="241.65" y="169.04" width="76.76" height="11.21" transform="translate(124.84 -116.62) rotate(30)"/><rect class="cls-18" x="260" y="157.83" width="68.36" height="17.54" transform="translate(122.71 -124.77) rotate(30)"/><rect class="cls-18" x="53.87" y="88.23" width="45.74" height="11.74" transform="translate(57.33 -25.76) rotate(30)"/><rect class="cls-18" x="68.21" y="78.64" width="22.29" height="5.72" transform="translate(51.38 -28.76) rotate(30)"/><rect class="cls-18" x="89.59" y="76.11" width="8.65" height="4.92" transform="translate(51.87 -36.43) rotate(30)"/><rect class="cls-10" x="231.48" y="192.83" width="13.77" height="13.77"/><path class="cls-19" d="M106.69,63.68a2.95,2.95,0,1,1-3.2-2.67A3,3,0,0,1,106.69,63.68Z"/><circle class="cls-18" cx="156.77" cy="129.87" r="46.12"/></g><rect class="cls-20" x="61.2" y="38.39" width="247.75" height="207.04"/><polygon class="cls-21" points="61.2 38.39 61.2 45.81 301.92 45.81 301.92 246.23 309.34 246.23 309.34 38.39 61.2 38.39"/><polygon class="cls-22" points="70.7 245.43 184.26 245.43 278.46 46.31 167.26 46.31 70.7 245.43"/></g></g></g></svg>