<svg xmlns="http://www.w3.org/2000/svg" viewBox="0 0 431.77 75.84"><defs><style>.cls-1{fill:#FFFFFF;}</style></defs><title>Asset 9</title><g id="Layer_2" data-name="Layer 2"><g id="Layer_1-2" data-name="Layer 1"><path class="cls-1" d="M52,20.13h18.9l9.83,32.3,9.83-32.3h18.62L88.72,75.84H72.37Z"/><path class="cls-1" d="M285.28,75.84A27.42,27.42,0,0,1,274,73.54a28.74,28.74,0,0,1-8.93-6.19,27.34,27.34,0,0,1-5.86-9.09,29.74,29.74,0,0,1-2.08-11.14v-.21a29.55,29.55,0,0,1,2.13-11.19,28.68,28.68,0,0,1,5.9-9.2,28.08,28.08,0,0,1,9-6.23A27.63,27.63,0,0,1,285.47,18a27.94,27.94,0,0,1,11.3,2.25,27.59,27.59,0,0,1,8.93,6.18,28.07,28.07,0,0,1,5.86,9.15,29.9,29.9,0,0,1,2.08,11.14v.2a29.48,29.48,0,0,1-2.13,11.19,28.49,28.49,0,0,1-5.91,9.2,27.83,27.83,0,0,1-20.32,8.54Zm.19-16.46a9.91,9.91,0,0,0,4.44-1,9.73,9.73,0,0,0,3.36-2.66,12.6,12.6,0,0,0,2.13-3.93,14.78,14.78,0,0,0,.75-4.7v-.21a14.31,14.31,0,0,0-.8-4.8,12.28,12.28,0,0,0-2.27-3.94,11.61,11.61,0,0,0-3.45-2.7,9.36,9.36,0,0,0-4.35-1,10.08,10.08,0,0,0-4.44,1,9.91,9.91,0,0,0-3.35,2.66A12.36,12.36,0,0,0,275.36,42a14.74,14.74,0,0,0-.76,4.7v.2a14.08,14.08,0,0,0,.81,4.81,12,12,0,0,0,2.27,3.93,11.24,11.24,0,0,0,3.45,2.71A9.35,9.35,0,0,0,285.47,59.38Z"/><path class="cls-1" d="M197.37,19.62l-.87,0c-4.1,0-12.81,3.89-13.52,4.27V20.54H165v55.3h18V58.67q0-8.36,2.86-12.84a10.84,10.84,0,0,1,.92-1.27q3.78-4.5,10.87-4.5h1.51V19.62C198.53,19.59,198,19.6,197.37,19.62Z"/><path class="cls-1" d="M344.61,75.84a27.42,27.42,0,0,1-11.29-2.3,28.74,28.74,0,0,1-8.93-6.19,27.34,27.34,0,0,1-5.86-9.09,29.74,29.74,0,0,1-2.08-11.14v-.21a29.55,29.55,0,0,1,2.13-11.19,28.51,28.51,0,0,1,5.9-9.2,28.08,28.08,0,0,1,9-6.23A27.63,27.63,0,0,1,344.8,18a27.94,27.94,0,0,1,11.3,2.25A27.59,27.59,0,0,1,365,26.42a28.07,28.07,0,0,1,5.86,9.15A29.89,29.89,0,0,1,373,46.71v.2a29.47,29.47,0,0,1-2.12,11.19,28.49,28.49,0,0,1-5.91,9.2,27.83,27.83,0,0,1-20.32,8.54Zm.19-16.46a9.91,9.91,0,0,0,4.44-1,9.73,9.73,0,0,0,3.36-2.66,12.6,12.6,0,0,0,2.13-3.93,14.78,14.78,0,0,0,.75-4.7v-.21a14.31,14.31,0,0,0-.8-4.8,12.28,12.28,0,0,0-2.27-3.94,11.61,11.61,0,0,0-3.45-2.7,9.36,9.36,0,0,0-4.35-1,10,10,0,0,0-4.44,1,9.91,9.91,0,0,0-3.35,2.66A12.36,12.36,0,0,0,334.69,42a14.47,14.47,0,0,0-.76,4.7v.2a14.08,14.08,0,0,0,.81,4.81A12,12,0,0,0,337,55.65a11.32,11.32,0,0,0,3.44,2.71A9.42,9.42,0,0,0,344.8,59.38Z"/><path class="cls-1" d="M413.81,0V21.4a25.83,25.83,0,0,0-2.36-1.16A27.07,27.07,0,0,0,402,18.05c-.6,0-1.2-.06-1.82-.06-.91,0-1.81,0-2.69.12a19,19,0,0,0-6.67,1.41c-.43.17-.86.36-1.28.56a21.88,21.88,0,0,0-7.18,5.73,27.65,27.65,0,0,0-4.91,9.09,33.79,33.79,0,0,0-1.37,5.83,44.94,44.94,0,0,0-.43,6.29v.2a42,42,0,0,0,.44,6.17,32.25,32.25,0,0,0,1.4,5.79,28.36,28.36,0,0,0,4.92,9,21.25,21.25,0,0,0,7.18,5.67l.86.4a19.68,19.68,0,0,0,7.79,1.6l.79,0,1,0c.62,0,1.22,0,1.82-.06a27.32,27.32,0,0,0,9.52-2.24c.86-.38,1.7-.8,2.5-1.25v2.32h18V0Zm-.09,51.82a12.6,12.6,0,0,1-2.13,3.93,9.79,9.79,0,0,1-3.35,2.66,10,10,0,0,1-4.45,1,9.35,9.35,0,0,1-4.34-1A11.24,11.24,0,0,1,396,55.65a12,12,0,0,1-2.27-3.93,14.08,14.08,0,0,1-.8-4.81v-.2a14.73,14.73,0,0,1,.75-4.7,12.56,12.56,0,0,1,2.13-3.94,9.91,9.91,0,0,1,3.35-2.66,10.11,10.11,0,0,1,4.44-1,9.36,9.36,0,0,1,4.35,1,11.61,11.61,0,0,1,3.45,2.7,12.28,12.28,0,0,1,2.27,3.94,14.31,14.31,0,0,1,.8,4.8v.21A14.78,14.78,0,0,1,413.72,51.82Z"/><path class="cls-1" d="M249.06,24.73a14.83,14.83,0,0,0-3.5-3v0l-.24-.13-.65-.36c-.65-.34-1.3-.68-2-1a29.4,29.4,0,0,0-21.76-.3V1.23H203V75.84h18V45.89c0-3.07.71-5.38,2.13-7a7,7,0,0,1,5.43-2.35,6.47,6.47,0,0,1,5.2,2.35c1.32,1.57,2,3.88,2,7v30h18V39.66Q253.64,30.15,249.06,24.73Z"/><path class="cls-1" d="M159.73,41.24V41.1h0a38.4,38.4,0,0,0-1-4.46A28.58,28.58,0,0,0,154,27a23,23,0,0,0-8-6.59A25.28,25.28,0,0,0,134.54,18c-.49,0-1,0-1.45,0a27.16,27.16,0,0,0-9.84,2.27,28,28,0,0,0-9,6.23,28.71,28.71,0,0,0-5.91,9.2,29.55,29.55,0,0,0-2.12,11.19v.21a29.93,29.93,0,0,0,2.07,11.14,27.49,27.49,0,0,0,5.86,9.09,28.67,28.67,0,0,0,8.94,6.19,27.39,27.39,0,0,0,11.29,2.3l.82,0,.88,0a26.18,26.18,0,0,0,13.09-3.07,28.22,28.22,0,0,0,9.12-8.18l-.8-.71-9.12-7.66A16.74,16.74,0,0,1,143,60a13.2,13.2,0,0,1-5.9,1.32,11.69,11.69,0,0,1-7.14-2.24,13.23,13.23,0,0,1-3.31-3.28,16.07,16.07,0,0,1-1.87-3.56H160.2c.06-.68.09-1.36.09-2V48.24A44.39,44.39,0,0,0,159.73,41.24Zm-36-.14a14.39,14.39,0,0,1,.71-3.58,12.2,12.2,0,0,1,2.13-3.93,9.79,9.79,0,0,1,3.35-2.66,9.91,9.91,0,0,1,4.44-1,9.36,9.36,0,0,1,4.35,1,11.48,11.48,0,0,1,3.45,2.71,12.23,12.23,0,0,1,2.27,3.93,13.91,13.91,0,0,1,.74,3.48Z"/><path class="cls-1" d="M53.49,41.24V41.1h0a40.59,40.59,0,0,0-1-4.46A28.6,28.6,0,0,0,47.77,27a23,23,0,0,0-8-6.59A25.24,25.24,0,0,0,28.31,18c-.49,0-1,0-1.46,0A27.26,27.26,0,0,0,17,20.29a28.08,28.08,0,0,0-9,6.23,28.51,28.51,0,0,0-5.9,9.2A29.55,29.55,0,0,0,0,46.91v.21A29.74,29.74,0,0,0,2.08,58.26a27.34,27.34,0,0,0,5.86,9.09,28.63,28.63,0,0,0,8.93,6.19,27.42,27.42,0,0,0,11.29,2.3l.82,0,.88,0A26.16,26.16,0,0,0,43,72.77a28,28,0,0,0,9.12-8.18l-.79-.71-9.13-7.66A16.81,16.81,0,0,1,36.72,60a13.27,13.27,0,0,1-5.91,1.32,11.69,11.69,0,0,1-7.14-2.24,13.23,13.23,0,0,1-3.31-3.28,16.07,16.07,0,0,1-1.87-3.56H54a20,20,0,0,0,.1-2V48.24A44.38,44.38,0,0,0,53.49,41.24Zm-36-.14a14.86,14.86,0,0,1,.71-3.58,12.6,12.6,0,0,1,2.13-3.93,9.73,9.73,0,0,1,3.36-2.66,9.91,9.91,0,0,1,4.44-1,9.42,9.42,0,0,1,4.35,1,11.32,11.32,0,0,1,3.44,2.71,12.05,12.05,0,0,1,2.27,3.93,13.93,13.93,0,0,1,.75,3.48Z"/></g></g></svg>