<svg xmlns="http://www.w3.org/2000/svg" viewBox="0 0 251.65 287.49"><defs><style>.cls-1{isolation:isolate;}.cls-2{fill:#f2e7d7;}.cls-24,.cls-3{fill:#cebca4;}.cls-4{fill:#ffce31;}.cls-5{fill:#c7d1d8;opacity:0.6;}.cls-6{fill:#4b4051;}.cls-7{fill:#b59885;}.cls-8{fill:#f2dbbb;}.cls-9{fill:#ffdb29;}.cls-10{fill:#ffb024;}.cls-11,.cls-14,.cls-16{fill:#fff;}.cls-11{opacity:0.38;}.cls-11,.cls-14{mix-blend-mode:overlay;}.cls-12{fill:#433a47;}.cls-13{fill:#4e4556;}.cls-14{opacity:0.73;}.cls-15{fill:#ddd6e5;}.cls-17{fill:#a22c3d;}.cls-18{fill:#d24436;}.cls-19{fill:#dd5e3c;}.cls-20{fill:#ff9a15;}.cls-21{fill:#4a3b4c;}.cls-22{fill:#655b70;}.cls-23{fill:#b2542f;}.cls-24{mix-blend-mode:multiply;}.cls-25,.cls-26,.cls-27{fill:none;stroke-miterlimit:10;stroke-width:2.86px;}.cls-25{stroke:#822121;}.cls-26{stroke:#f2e7d7;}.cls-27{stroke:#cebca4;}</style></defs><title>Asset 1</title><g class="cls-1"><g id="Layer_2" data-name="Layer 2"><g id="Layer_1-2" data-name="Layer 1"><rect class="cls-2" x="97.05" y="2.72" width="11.49" height="12.5"/><rect class="cls-3" x="105.05" y="2.72" width="2.75" height="12.07"/><rect class="cls-2" x="72.51" y="13.62" width="21.43" height="64.12"/><polygon class="cls-4" points="70.22 10.02 96.22 10.02 96.22 33.34 92.4 33.34 92.4 13.83 74.04 13.83 74.04 33.34 70.22 33.34 70.22 10.02"/><polygon class="cls-5" points="249.69 85.59 213.79 85.59 213.79 51.38 120.56 51.38 120.56 85.59 39.06 85.59 39.06 2.15 16.29 24.09 16.29 97.17 0 109.55 0 133.28 116.77 133.28 190.78 133.28 211.32 133.28 251.63 106.24 251.65 98.79 249.69 85.59"/><rect class="cls-6" x="227.85" y="115.97" width="10.48" height="10.34" rx="4.62" ry="4.62"/><rect class="cls-6" x="44.4" y="115.97" width="10.48" height="10.34" rx="4.62" ry="4.62"/><rect class="cls-7" x="31.04" y="109.64" width="220.51" height="10.34"/><rect class="cls-8" x="31.04" y="84.96" width="220.51" height="25.16"/><path class="cls-7" d="M231.27,99.73h-82.4c-3,0-6.71-2.42-8.31-5.41l-5-9.36h93.23l5,9.36C235.39,97.31,234.26,99.73,231.27,99.73Z"/><rect class="cls-9" x="143.46" y="43.75" width="93.22" height="39.53" rx="5.41" ry="5.41"/><path class="cls-10" d="M236.68,63.46V92.18a5.41,5.41,0,0,1-5.41,5.4h-82.4a5.41,5.41,0,0,1-5.41-5.4V63.46a5.41,5.41,0,0,1,5.41-5.41h82.4A5.41,5.41,0,0,1,236.68,63.46Z"/><polygon class="cls-11" points="204.69 64.71 202.97 68.53 192.84 90.94 169.63 90.94 179.75 68.53 180.61 66.62 181.47 64.71 204.69 64.71"/><path class="cls-12" d="M230.25,68.82v18a4.12,4.12,0,0,1-3.82,4.11H155a4.12,4.12,0,0,1-4.11-4.12v-18a2.62,2.62,0,0,1,0-.28,4.12,4.12,0,0,1,4.1-3.83h71.19A4.11,4.11,0,0,1,230.25,68.82Z"/><path class="cls-13" d="M226.44,72.64v18a2.81,2.81,0,0,1,0,.29H155a4.12,4.12,0,0,1-4.11-4.12v-18a2.62,2.62,0,0,1,0-.28h71.48A4.11,4.11,0,0,1,226.44,72.64Z"/><polygon class="cls-14" points="168.77 90.94 180.61 68.53 182.33 64.73 205.55 64.73 203.83 68.53 191.98 90.94 168.77 90.94"/><rect class="cls-12" x="164.95" y="81.78" width="7.46" height="7.33"/><rect class="cls-12" x="174.85" y="81.78" width="7.46" height="7.33"/><rect class="cls-15" x="164.95" y="69.81" width="7.46" height="7.33"/><rect class="cls-16" x="164.95" y="80.11" width="7.46" height="7.33"/><rect class="cls-15" x="174.85" y="69.81" width="7.46" height="7.33"/><rect class="cls-16" x="174.85" y="80.11" width="7.46" height="7.33"/><rect class="cls-12" x="196.65" y="81.78" width="7.46" height="7.33"/><rect class="cls-12" x="206.55" y="81.78" width="7.46" height="7.33"/><rect class="cls-15" x="196.65" y="69.81" width="7.46" height="7.33"/><rect class="cls-16" x="196.65" y="80.11" width="7.46" height="7.33"/><rect class="cls-15" x="206.55" y="69.81" width="7.46" height="7.33"/><rect class="cls-16" x="206.55" y="80.11" width="7.46" height="7.33"/><polygon class="cls-5" points="251.65 253 251.63 260.45 211.32 287.49 35.87 287.49 35.87 263.76 67.39 239.81 249.69 239.81 251.65 253"/><rect class="cls-6" x="80.26" y="270.18" width="10.48" height="10.34" rx="4.62" ry="4.62"/><rect class="cls-6" x="227.85" y="270.18" width="10.48" height="10.34" rx="4.62" ry="4.62"/><rect class="cls-8" x="66.91" y="239.18" width="184.65" height="25.16"/><rect class="cls-7" x="66.91" y="263.85" width="184.64" height="10.34"/><rect class="cls-17" x="38.86" y="25.76" width="31.48" height="77.27"/><rect class="cls-2" x="39.82" y="2.24" width="28.74" height="25.85"/><rect class="cls-3" x="63.88" y="2.24" width="3.94" height="25.42"/><polygon class="cls-18" points="70.3 30 38.86 30 38.86 0 42.68 0 42.68 26.18 66.49 26.18 66.49 0 70.3 0 70.3 30"/><polygon class="cls-19" points="110.41 18.07 96.1 18.07 96.1 1.43 99.95 1.43 99.95 14.26 106.56 14.26 106.56 1.43 110.41 1.43 110.41 18.07"/><rect class="cls-20" x="70.34" y="33.17" width="26.12" height="64.12"/><rect class="cls-3" x="73.92" y="33.17" width="18.6" height="64.12"/><rect class="cls-21" x="110.42" y="36.83" width="26.12" height="64.12"/><rect class="cls-2" x="112.33" y="21.42" width="22.31" height="18.48"/><path class="cls-22" d="M132.73,19.52V38h-18.5V19.52h-3.81V41.81h26.12V19.52Z"/><rect class="cls-23" x="96.1" y="17.17" width="14.31" height="85.85"/><polygon class="cls-24" points="88.47 10.02 88.47 97.54 96.1 103.02 96.1 2.38 88.47 10.02"/><polygon class="cls-24" points="39.06 84.96 39.06 102.78 31.04 97.3 31.04 84.96 39.06 84.96"/><rect class="cls-18" x="66.53" y="29.57" width="3.82" height="73.45"/><line class="cls-25" x1="44.83" y1="38.16" x2="63.19" y2="38.16"/><line class="cls-25" x1="44.83" y1="95.63" x2="63.19" y2="95.63"/><line class="cls-26" x1="116.85" y1="51.75" x2="130.04" y2="51.75"/><line class="cls-26" x1="116.85" y1="57.55" x2="130.04" y2="57.55"/><line class="cls-25" x1="44.83" y1="43.4" x2="63.19" y2="43.4"/><rect class="cls-3" x="100.51" y="92.05" width="5.48" height="6.68"/><line class="cls-27" x1="103.25" y1="85.14" x2="103.25" y2="41.73"/></g></g></g></svg>