<svg xmlns="http://www.w3.org/2000/svg" viewBox="0 0 343.8 317.81"><defs><style>.cls-1{isolation:isolate;}.cls-2{fill:#f27b57;}.cls-15,.cls-19,.cls-3{fill:#7c9cb4;}.cls-4{fill:#a8b2bc;}.cls-5{fill:#dfecf4;}.cls-18,.cls-6{fill:#fff;}.cls-7,.cls-9{opacity:0.6;}.cls-14,.cls-8,.cls-9{fill:#c7d1d8;}.cls-8{opacity:0.81;}.cls-10{fill:#4b4051;}.cls-11{fill:#f2dbbb;}.cls-12{fill:#b59885;}.cls-13{fill:#b2542f;}.cls-15{opacity:0.7;mix-blend-mode:multiply;}.cls-16{fill:#433a47;}.cls-17{opacity:0.41;}.cls-18{opacity:0.4;}.cls-19{opacity:0.79;}.cls-20,.cls-21,.cls-22{fill:none;stroke-linecap:round;stroke-miterlimit:10;}.cls-20,.cls-22{stroke:#615368;}.cls-20{stroke-width:5.72px;}.cls-21{stroke:#ff645c;stroke-width:4.77px;}.cls-22{stroke-width:7.63px;}.cls-23{fill:#a1e3dd;}</style></defs><title>Asset 2</title><g class="cls-1"><g id="Layer_2" data-name="Layer 2"><g id="Layer_1-2" data-name="Layer 1"><path class="cls-2" d="M134.76,118.92v-4.41H235.7v4.41Z"/><circle class="cls-3" cx="63.25" cy="58.31" r="55.45"/><path class="cls-4" d="M122.52,51V61.43H20.43V51a51.1,51.1,0,0,1,51-51c.39,0,.78,0,1.17,0a51.08,51.08,0,0,1,49.88,51Z"/><path class="cls-5" d="M104.12,14.36V46.45a1.31,1.31,0,0,1-1.31,1.31H73.94a1.3,1.3,0,0,1-1.3-1.31V3.29A1.32,1.32,0,0,1,74,2,51,51,0,0,1,94.15,7.22a51.19,51.19,0,0,1,9.48,6.12A1.32,1.32,0,0,1,104.12,14.36Z"/><path class="cls-6" d="M94.15,7.22V29.94H86.38V4.13A50.91,50.91,0,0,1,94.15,7.22Z"/><g class="cls-7"><polygon class="cls-8" points="220.8 250.7 119.86 250.7 135.27 120.25 233.52 121.53 220.8 250.7"/></g><polygon class="cls-9" points="263.48 255.61 263.46 263.06 223.15 290.1 0 290.1 0 266.37 31.53 242.41 261.51 242.41 263.48 255.61"/><rect class="cls-10" x="44.4" y="272.79" width="10.48" height="10.34" rx="4.62" ry="4.62"/><rect class="cls-10" x="239.68" y="272.79" width="10.48" height="10.34" rx="4.62" ry="4.62"/><rect class="cls-11" x="31.04" y="241.78" width="232.34" height="25.16"/><polygon class="cls-12" points="235.7 251.97 134.76 251.97 121.64 241.78 225.99 241.78 235.7 251.97"/><rect class="cls-12" x="31.04" y="266.46" width="232.34" height="10.34"/><rect class="cls-11" x="139.53" y="123.69" width="91.41" height="123.51"/><path class="cls-13" d="M134.76,118.92V252H235.7v-133Zm91.4,123.51H144.3v-114h81.86Z"/><path class="cls-6" d="M221.4,133.23V237.66H149.07V133.23Zm4.76-4.77H144.3v114h81.86v-114Z"/><circle class="cls-6" cx="71.82" cy="57.59" r="46.27"/><path class="cls-14" d="M71.47,108.77a51,51,0,1,1,51-51A51.1,51.1,0,0,1,71.47,108.77Zm0-92.55A41.51,41.51,0,1,0,113,57.72,41.54,41.54,0,0,0,71.47,16.22Z"/><polygon class="cls-15" points="144.3 128.46 144.3 131.32 223.3 131.32 223.3 242.43 226.16 242.43 226.16 128.46 144.3 128.46"/><path class="cls-16" d="M160.08,199.91v-1.74a13.84,13.84,0,0,0,2-.22,1.45,1.45,0,0,0,.55-.29,2.14,2.14,0,0,0,.47-.63c.16-.29.64-1.35,1.44-3.2q.54-1.29,2.1-5.13l5.47-13.5,1.84-4.76h3l9.36,21.89,1.3,2.87.84,1.92a2.11,2.11,0,0,0,.4.55,1.24,1.24,0,0,0,.43.25,5.82,5.82,0,0,0,1.23.15l.92.1v1.74l-5.83-.12-7.35.12v-1.74a12.25,12.25,0,0,0,2.86-.28.64.64,0,0,0,.32-.6,5.44,5.44,0,0,0-.48-1.72l-1.8-4.61H168.38l-.92,2.52a16.05,16.05,0,0,0-1.05,3.6.79.79,0,0,0,.34.72,9.06,9.06,0,0,0,3,.37v1.74l-4.84-.12Zm9.27-11.34c1.31.05,2.8.07,4.46.07s3.05,0,4.32-.07l-4.49-10.81Z"/><path class="cls-16" d="M217.21,198.34v1.57c-1.6-.07-3-.1-4.27-.1s-2.31,0-3.42.1l-.19-.23.19-2.74q-.75.48-4.44,3.31a8.3,8.3,0,0,1-1.8.21,4.74,4.74,0,0,1-3.58-1.34,5.36,5.36,0,0,1-1.29-3.86,6,6,0,0,1,.58-2.79,4.88,4.88,0,0,1,1.24-1.6,7.4,7.4,0,0,1,2-1,44.36,44.36,0,0,1,7.25-1.84,5.67,5.67,0,0,0-1-3.8,4.08,4.08,0,0,0-3.31-1.29,6.11,6.11,0,0,0-1.72.23,3.39,3.39,0,0,0-.83.42l-.88,2.11-1.43-.31.13-2.71c1-.69,2-1.3,3-1.82a11.67,11.67,0,0,1,2-.94,7.82,7.82,0,0,1,2.18-.23,9.25,9.25,0,0,1,3.76.66,5.5,5.5,0,0,1,2.18,1.56,5.25,5.25,0,0,1,1,1.93,11,11,0,0,1,.26,2.6c0,.44,0,1.61-.11,3.5,0,1.25-.06,2.28-.06,3.08a26.61,26.61,0,0,0,.21,4.52.7.7,0,0,0,.34.51A8.41,8.41,0,0,0,217.21,198.34Zm-7.69-8.55a23.91,23.91,0,0,0-3.26.91,4.29,4.29,0,0,0-2,1.32,3.31,3.31,0,0,0-.57,2,3,3,0,0,0,.68,2.08,2.35,2.35,0,0,0,1.8.73,3.78,3.78,0,0,0,1.89-.54,4.29,4.29,0,0,0,1.5-1.39Z"/><g class="cls-17"><path class="cls-16" d="M193.53,163.64v45.49h-36V163.64Zm2.72-2.72H154.81v50.92h41.44V160.92Z"/><rect class="cls-11" x="192.09" y="156.86" width="8.22" height="8.29"/><path class="cls-16" d="M193.45,158.21H199v5.58h-5.51v-5.58Zm-2.71-2.71v11h10.93v-11H190.74Z"/><rect class="cls-11" x="192.09" y="207.63" width="8.22" height="8.29"/><path class="cls-16" d="M193.45,209H199v5.58h-5.51V209Zm-2.71-2.72v11h10.93v-11H190.74Z"/><rect class="cls-11" x="150.81" y="207.63" width="8.22" height="8.29"/><path class="cls-16" d="M152.17,209h5.51v5.58h-5.51V209Zm-2.72-2.72v11h10.94v-11H149.45Z"/><rect class="cls-11" x="150.81" y="156.86" width="8.22" height="8.29"/><path class="cls-16" d="M152.17,158.21h5.51v5.58h-5.51v-5.58Zm-2.72-2.71v11h10.94v-11H149.45Z"/></g><polygon class="cls-18" points="223.3 132.28 223.3 139.88 174.83 242.43 144.3 242.43 144.3 223.31 188.36 132.28 223.3 132.28"/><path class="cls-19" d="M69.56,19.08A41.49,41.49,0,0,1,105.1,82,41.49,41.49,0,1,0,35.94,36.3,41.45,41.45,0,0,1,69.56,19.08Z"/><line class="cls-20" x1="70.73" y1="57.93" x2="54.83" y2="38.54"/><line class="cls-21" x1="70.73" y1="57.93" x2="59.6" y2="84.64"/><line class="cls-22" x1="70.73" y1="57.93" x2="86.31" y2="45.53"/><path class="cls-23" d="M342.81,315.45a8.17,8.17,0,0,0,.8,2.36c.06-.22.11-.4.19-.71Z"/><polygon class="cls-23" points="336.6 313.69 336.59 313.75 336.76 313.78 336.6 313.69"/></g></g></g></svg>