<svg width="87" height="134" viewBox="0 0 87 134" xmlns="http://www.w3.org/2000/svg" xmlns:xlink="http://www.w3.org/1999/xlink"><title>logo-white</title><defs><path id="a" d="M0 .484v10.59h8.423V.484H0z"/><path id="c" d="M0 133.875h86.438V.712H0z"/><path id="e" d="M0 133.875h86.438V.712H0z"/><path id="g" d="M0 133.875h86.438V.712H0z"/><path id="i" d="M0 133.875h86.438V.712H0z"/><path id="k" d="M0 133.875h86.438V.712H0z"/><path id="m" d="M0 133.875h86.438V.712H0z"/><path id="o" d="M0 133.875h86.438V.712H0z"/></defs><g fill="none" fill-rule="evenodd"><path fill="#FFF" fill-rule="nonzero" d="M16.505 107H15v11h8v-1.524h-6.495zM49.489 115.395l-3.818-8.393H44L49.007 118h.96L55 107.001 53.3 107zM83.77 114.333c.7-.68 1.055-1.62 1.055-2.795 0-1.156-.362-2.095-1.075-2.789-.712-.696-1.685-1.048-2.892-1.048h-3.01v7.656h3.01c1.232 0 2.211-.345 2.912-1.024zm1.134-6.622c1.018.982 1.534 2.276 1.534 3.846 0 1.582-.508 2.87-1.511 3.827-1 .956-2.37 1.44-4.069 1.44h-4.577v-10.59h4.577c1.668 0 3.03.497 4.046 1.477z"/><g transform="translate(0 105.75)"><mask id="b" fill="#fff"><use xlink:href="#a"/></mask><path fill="#FFF" fill-rule="nonzero" mask="url(#b)" d="M0 1.95v9.124h8.423V9.607H1.567V6.512h5.636V5.047H1.567V1.95h6.856V.484H0z"/></g><path fill="#FFF" fill-rule="nonzero" d="M30.085 107.7v9.124h8.423v-1.467h-6.856V112.262h5.636v-1.466h-5.636V107.7h6.856v-1.467h-8.423zM67.406 114.782c-.624.368-1.478.554-2.538.554-1.072 0-1.933-.189-2.557-.563-.609-.366-.905-.825-.905-1.408 0-.596.249-1.017.758-1.285.531-.28 1.441-.423 2.704-.423 1.257 0 2.162.141 2.69.418.507.267.752.689.752 1.29 0 .594-.295 1.058-.904 1.417m-4.58-6.696c.498-.253 1.185-.383 2.042-.383.858 0 1.55.129 2.053.38.48.238.712.525.712.876 0 .373-.22.66-.671.87-.481.223-1.185.337-2.094.337-.878 0-1.573-.113-2.063-.333-.46-.208-.683-.483-.683-.837 0-.371.23-.668.703-.91m7.114 5.261c0-.592-.156-1.118-.462-1.558-.271-.384-.666-.717-1.178-.99.286-.222.512-.469.674-.732.198-.324.298-.677.298-1.052 0-.86-.409-1.547-1.214-2.04a4.504 4.504 0 0 0-1.404-.56 8.058 8.058 0 0 0-1.785-.183c-1.332 0-2.405.248-3.19.738-.805.503-1.214 1.19-1.214 2.043 0 .392.103.755.302 1.07.101.175.225.334.367.471.088.086.185.168.293.245-.503.264-.896.594-1.171.987a2.697 2.697 0 0 0-.477 1.578c0 1.062.47 1.916 1.398 2.54.91.613 2.152.923 3.692.923 1.533 0 2.772-.316 3.68-.942.922-.635 1.391-1.489 1.391-2.538M16.436 133.796h.85v-2.403h3v-.793h-3v-1.745h3.357v-.8h-4.207z"/><mask id="d" fill="#fff"><use xlink:href="#c"/></mask><path fill="#FFF" fill-rule="nonzero" mask="url(#d)" d="M25.08 133.796h.853v-5.74h-.852z"/><mask id="f" fill="#fff"><use xlink:href="#e"/></mask><path fill="#FFF" fill-rule="nonzero" mask="url(#f)" d="M30.332 128.856h1.86v4.94h.859v-4.94h1.86v-.8h-4.579z"/><mask id="h" fill="#fff"><use xlink:href="#g"/></mask><path fill="#FFF" fill-rule="nonzero" mask="url(#h)" d="M43.329 132.263l-3.322-4.207h-.754v5.74h.835v-4.31l3.377 4.268.033.043h.667v-5.741h-.836z"/><g><mask id="j" fill="#fff"><use xlink:href="#i"/></mask><path fill="#FFF" fill-rule="nonzero" mask="url(#j)" d="M49.754 131.299h3.022v-.793h-3.022v-1.658h3.38v-.793h-4.23v5.741h4.269v-.792h-3.42z"/></g><g><mask id="l" fill="#fff"><use xlink:href="#k"/></mask><path d="M59.726 130.517c-1.197-.255-1.415-.527-1.415-.97 0-.462.439-.786 1.066-.786.56 0 1.045.183 1.527.574l.092.074.5-.66-.086-.07c-.615-.492-1.219-.702-2.016-.702-1.121 0-1.934.684-1.934 1.625 0 1.07.779 1.456 1.95 1.71 1.14.239 1.35.507 1.35.945 0 .499-.45.834-1.121.834-.703 0-1.232-.218-1.824-.752l-.087-.077-.534.629.082.073c.699.622 1.442.911 2.34.911 1.179 0 2.004-.69 2.004-1.68 0-.888-.568-1.391-1.894-1.678" fill="#FFF" fill-rule="nonzero" mask="url(#l)"/></g><g><mask id="n" fill="#fff"><use xlink:href="#m"/></mask><path d="M68.11 130.517c-1.197-.255-1.415-.527-1.415-.97 0-.462.438-.786 1.065-.786.56 0 1.045.183 1.528.574l.091.074.5-.66-.085-.07c-.616-.492-1.22-.702-2.017-.702-1.12 0-1.933.684-1.933 1.625 0 1.07.778 1.456 1.949 1.71 1.141.239 1.35.507 1.35.945 0 .499-.45.834-1.12.834-.703 0-1.232-.218-1.824-.752l-.087-.077-.535.629.083.073c.698.622 1.442.911 2.339.911 1.18 0 2.004-.69 2.004-1.68 0-.888-.567-1.391-1.894-1.678" fill="#FFF" fill-rule="nonzero" mask="url(#n)"/></g><g><mask id="p" fill="#fff"><use xlink:href="#o"/></mask><path d="M60.406 79.144c4.254-4.089 6.833-9.76 6.833-15.977 0-5.995-2.477-11.555-6.558-15.642 5.798 3.793 9.485 9.43 9.485 15.719 0 6.387-3.802 12.107-9.76 15.9m-4.954 1.674c4.476-4.132 7.35-10.472 7.35-17.574 0-7.305-3.039-13.805-7.737-17.925C61.4 48.987 65.55 55.714 65.55 63.167c0 7.403-3.963 13.968-10.097 17.651m-8.897 2.923a34.995 34.995 0 0 1-3.335.164c-1.13 0-2.242-.06-3.337-.164-8.286-1.826-14.574-10.32-14.574-20.497 0-10.178 6.288-18.672 14.574-20.499a35.037 35.037 0 0 1 3.337-.164c1.13 0 2.241.06 3.335.164 8.288 1.827 14.575 10.32 14.575 20.499 0 10.178-6.287 18.671-14.575 20.497M20.889 63.167c0-7.453 4.151-14.18 10.484-17.848-4.697 4.12-7.735 10.62-7.735 17.925 0 7.102 2.873 13.442 7.348 17.574-6.132-3.683-10.097-10.248-10.097-17.65m-4.616.076c0-6.29 3.687-11.926 9.486-15.719-4.083 4.087-6.56 9.647-6.56 15.642 0 6.217 2.579 11.888 6.833 15.977-5.958-3.793-9.759-9.513-9.759-15.9m12.545-41.96c0-9.026 4.77-16.755 11.194-18.717a27.35 27.35 0 0 1 3.208-.191c1.088 0 2.158.067 3.207.19 6.424 1.963 11.194 9.692 11.194 18.717 0 10.588-6.46 19.2-14.401 19.2s-14.402-8.612-14.402-19.2m-3.768.088c0-7.023 3.469-13.313 8.74-16.63-3.89 3.786-6.403 9.833-6.403 16.542 0 7.054 2.734 13.29 6.892 17.01-5.541-3.234-9.229-9.704-9.229-16.922m-4.699-.001c0-6.381 3.812-12.033 9.64-15.479-3.947 3.805-6.395 9.388-6.395 15.48 0 6.13 2.495 11.759 6.501 15.571-5.93-3.448-9.746-9.162-9.746-15.572m41.038.001c0 7.218-3.689 13.688-9.229 16.922 4.158-3.72 6.891-9.956 6.891-17.01 0-6.71-2.513-12.756-6.403-16.542 5.272 3.317 8.741 9.607 8.741 16.63m4.698-.001c0 6.41-3.814 12.124-9.745 15.572 4.006-3.812 6.5-9.442 6.5-15.57 0-6.093-2.448-11.676-6.394-15.48 5.827 3.445 9.639 9.097 9.639 15.478M49.749 41.287c10.498-2.415 18.01-10.466 18.01-19.917 0-10.973-10.217-19.971-23.062-20.618-.088-.01-.176-.026-.264-.034l-.002.02a28.837 28.837 0 0 0-2.424 0l-.002-.02c-.088.008-.175.024-.263.034C28.896 1.4 18.68 10.397 18.68 21.37c0 9.451 7.512 17.502 18.009 19.917-12.765 2.32-22.308 11.28-22.308 21.957 0 12.432 12.937 22.546 28.839 22.546 15.901 0 28.838-10.114 28.838-22.546 0-10.677-9.544-19.636-22.309-21.957" fill="#FFF" fill-rule="nonzero" mask="url(#p)"/></g></g></svg>