<svg width="62" height="109" viewBox="0 0 62 109" xmlns="http://www.w3.org/2000/svg" xmlns:xlink="http://www.w3.org/1999/xlink"><title>Page 1</title><defs><path id="a" d="M0 108.199h61.6V.349H0z"/></defs><g fill="none" fill-rule="evenodd"><path fill="#2A2723" d="M12 88.923h-1.116v7.546h5.936v-1.046H12zM35.355 94.68l-2.787-5.756h-1.22l3.655 7.544h.702l3.673-7.545h-1.24z"/><g transform="translate(0 .452)"><path d="M59.698 94.241c-.5.484-1.198.73-2.075.73h-2.145v-5.454h2.145c.86 0 1.553.25 2.061.747.508.494.766 1.163.766 1.987 0 .837-.253 1.506-.752 1.99m.808-4.717c-.724-.698-1.695-1.052-2.883-1.052H54.36v7.545h3.262c1.21 0 2.187-.346 2.9-1.026.714-.682 1.077-1.6 1.077-2.727 0-1.119-.368-2.04-1.094-2.74M0 89.517v6.5h6.003v-1.045H1.117v-2.205h4.016v-1.045H1.117v-2.205h4.886v-1.045H0zM21.44 89.517v6.5h6.002v-1.045h-4.886v-2.205h4.017v-1.045h-4.017v-2.205h4.886v-1.045H21.44zM48.037 94.562c-.445.262-1.054.395-1.81.395-.764 0-1.377-.135-1.821-.402-.434-.26-.645-.587-.645-1.003 0-.424.176-.724.54-.916.379-.2 1.027-.301 1.926-.301.897 0 1.542.101 1.918.298.361.19.536.49.536.92 0 .423-.21.753-.644 1.009m-3.265-4.77c.355-.181.845-.273 1.455-.273.612 0 1.105.091 1.464.27.342.17.507.374.507.624 0 .266-.157.47-.478.62-.343.16-.845.24-1.493.24-.625 0-1.12-.08-1.47-.237-.327-.148-.486-.344-.486-.596 0-.265.163-.477.501-.649m5.07 3.749c0-.423-.111-.797-.33-1.11-.193-.275-.474-.512-.84-.706.204-.158.366-.334.481-.521.141-.231.212-.483.212-.75 0-.613-.29-1.102-.865-1.453a3.21 3.21 0 0 0-1-.4 5.746 5.746 0 0 0-1.273-.13c-.948 0-1.713.177-2.272.526-.574.358-.865.848-.865 1.456 0 .28.073.537.215.763.071.124.16.237.261.335.062.06.132.119.208.174a2.295 2.295 0 0 0-.833.703c-.226.322-.34.7-.34 1.125 0 .756.335 1.365.996 1.81.649.435 1.534.657 2.63.657 1.094 0 1.976-.226 2.622-.671.659-.453.993-1.061.993-1.808M11.713 108.143h.606v-1.712h2.138v-.565h-2.138v-1.243h2.392v-.57h-2.998z" fill="#2A2723"/><mask id="b" fill="#fff"><use xlink:href="#a"/></mask><path fill="#2A2723" mask="url(#b)" d="M17.873 108.142h.607v-4.09h-.607zM21.616 104.623h1.325v3.52h.612v-3.52h1.325v-.57h-3.262zM30.878 107.05l-2.367-2.997h-.537v4.09h.595v-3.071l2.405 3.04.025.03h.475v-4.089h-.596zM35.457 106.363h2.154v-.565h-2.154v-1.18h2.408v-.565H34.85v4.09h3.043v-.565h-2.436zM42.563 105.806c-.853-.182-1.008-.375-1.008-.69 0-.33.312-.56.76-.56.399 0 .744.13 1.088.408l.065.053.356-.47-.06-.05a2.134 2.134 0 0 0-1.438-.5c-.798 0-1.377.487-1.377 1.158 0 .761.554 1.037 1.389 1.218.813.17.962.36.962.673 0 .355-.32.594-.799.594-.5 0-.878-.155-1.3-.535l-.062-.056-.38.448.058.053c.498.443 1.028.649 1.667.649.84 0 1.429-.492 1.429-1.198 0-.632-.405-.99-1.35-1.195M48.538 105.806c-.853-.182-1.009-.375-1.009-.69 0-.33.313-.56.76-.56.4 0 .745.13 1.088.408l.066.053.355-.47-.06-.05a2.134 2.134 0 0 0-1.437-.5c-.799 0-1.378.487-1.378 1.158 0 .761.555 1.037 1.39 1.218.812.17.961.36.961.673 0 .355-.32.594-.798.594-.501 0-.878-.155-1.3-.535l-.062-.056-.38.448.058.053c.497.443 1.027.649 1.667.649.84 0 1.428-.492 1.428-1.198 0-.632-.404-.99-1.35-1.195M14.705 79.934c-.501 0-.878-.155-1.299-.535l-.062-.056-.382.45.06.051c.498.443 1.027.649 1.666.649.84 0 1.428-.493 1.428-1.197 0-.633-.403-.99-1.35-1.196-.85-.182-1.007-.375-1.007-.69 0-.33.312-.56.76-.56.4 0 .745.13 1.088.409l.065.052.357-.47-.062-.05c-.438-.35-.868-.5-1.437-.5-.798 0-1.378.487-1.378 1.158 0 .762.556 1.037 1.39 1.218.813.17.962.36.962.674 0 .355-.32.593-.8.593M21.21 79.934c-.842 0-1.477-.665-1.477-1.548 0-.876.63-1.536 1.465-1.536.841 0 1.477.665 1.477 1.548 0 .876-.63 1.536-1.466 1.536m2.089-1.548c0-1.201-.898-2.107-2.089-2.107-1.177 0-2.098.93-2.098 2.119 0 1.2.897 2.106 2.087 2.106 1.177 0 2.1-.93 2.1-2.118M29.5 80.406l.024.03h.475v-4.09h-.595v2.998l-2.343-2.967-.025-.03h-.537v4.09h.595v-3.07zM33.416 80.436h.606v-4.09h-.606zM40.772 80.437h.606v-4.09h-.574l-1.395 2.08-1.371-2.045-.024-.035h-.575v4.09h.596v-2.998l1.29 1.885.024.035h.108l1.315-1.925zM46.499 77.112l.773 1.727h-1.55l.777-1.727zm1.02 2.287l.462 1.037h.657l-1.852-4.07-.02-.047h-.521l-1.821 4.004-.052.113h.634l.469-1.037h2.043zM43.048 56.226c3.032-2.913 4.87-6.954 4.87-11.383 0-4.27-1.766-8.231-4.675-11.143 4.132 2.702 6.76 6.718 6.76 11.198 0 4.55-2.709 8.625-6.955 11.328m-3.53 1.193c3.19-2.944 5.237-7.461 5.237-12.521 0-5.204-2.166-9.835-5.513-12.77 4.513 2.613 7.471 7.406 7.471 12.715 0 5.274-2.825 9.952-7.196 12.576m-6.34 2.083c-.78.073-1.571.116-2.377.116-.806 0-1.598-.043-2.377-.116-5.906-1.302-10.387-7.353-10.387-14.604 0-7.25 4.48-13.302 10.387-14.604.78-.073 1.571-.116 2.377-.116.806 0 1.597.043 2.377.116 5.906 1.302 10.387 7.353 10.387 14.604 0 7.25-4.481 13.302-10.387 14.604m-18.29-14.659c0-5.31 2.957-10.102 7.47-12.715-3.347 2.935-5.512 7.566-5.512 12.77 0 5.06 2.047 9.577 5.238 12.52-4.372-2.623-7.196-7.3-7.196-12.575m-3.29.055c0-4.48 2.628-8.496 6.76-11.198-2.91 2.912-4.675 6.873-4.675 11.143 0 4.43 1.838 8.47 4.87 11.383-4.246-2.703-6.956-6.777-6.956-11.328m8.94-29.893c0-6.43 3.4-11.937 7.978-13.334.748-.088 1.51-.137 2.286-.137s1.538.049 2.286.137c4.578 1.397 7.977 6.904 7.977 13.334 0 7.542-4.604 13.678-10.263 13.678-5.66 0-10.263-6.136-10.263-13.678m-2.685.062c0-5.003 2.472-9.484 6.228-11.847-2.772 2.697-4.563 7.005-4.563 11.785 0 5.025 1.948 9.468 4.911 12.118-3.948-2.304-6.576-6.913-6.576-12.056m-3.349 0c0-4.546 2.717-8.573 6.87-11.028-2.812 2.71-4.557 6.688-4.557 11.028 0 4.367 1.778 8.377 4.632 11.093-4.226-2.456-6.945-6.527-6.945-11.094m29.245.001c0 5.143-2.628 9.752-6.577 12.056 2.963-2.65 4.912-7.093 4.912-12.118 0-4.78-1.792-9.088-4.563-11.785 3.756 2.363 6.228 6.844 6.228 11.847m3.349 0c0 4.566-2.72 8.637-6.946 11.093 2.855-2.716 4.633-6.726 4.633-11.093 0-4.34-1.745-8.317-4.557-11.028 4.153 2.455 6.87 6.482 6.87 11.027m-11.643 14.19c7.48-1.721 12.834-7.456 12.834-14.19C48.288 7.25 41.007.84 31.854.378c-.063-.007-.126-.019-.189-.024l-.001.013A22.016 22.016 0 0 0 30.8.35c-.29 0-.578.007-.864.018l-.001-.013c-.063.005-.125.017-.189.024-9.153.46-16.434 6.87-16.434 14.688 0 6.734 5.353 12.469 12.834 14.19-9.097 1.653-15.897 8.036-15.897 15.642 0 8.857 9.22 16.062 20.551 16.062 11.332 0 20.552-7.205 20.552-16.062 0-7.606-6.801-13.989-15.898-15.642"/></g></g></svg>