<svg xmlns="http://www.w3.org/2000/svg" xmlns:xlink="http://www.w3.org/1999/xlink" viewBox="0 0 273.47 360.51"><defs><style>.cls-1{fill:none;}.cls-2{clip-path:url(#clip-path);}.cls-3{fill:#41b3d6;}</style><clipPath id="clip-path"><circle class="cls-1" cx="133.75" cy="163.37" r="129.9"/></clipPath></defs><title>Asset 6</title><g id="Layer_2" data-name="Layer 2"><g id="Layer_1-2" data-name="Layer 1"><g class="cls-2"><path d="M165.48,166.47c.34,0,.87,0,.88-.2a3.08,3.08,0,0,0,1.77-.4h2.65a16.76,16.76,0,0,0,5.74,0c.26,0,.52,0,.43-.2h.45c5.47.19,9.24-1.17,14.13-.61v-1.21h-8a12,12,0,0,0-4.85,0h-7.5c-.1-.61-4.32-.61-4.42,0h-4c.22-.63-2-.14-2.21-.6.66,0,1.63.07,1.77-.2a2.36,2.36,0,0,0,1.77,0c.13-.53-.62-.66-1.77-.6-.1-.16-.37-.24-.88-.2-.06-.45-1.88-.09-2.65-.21-.49-.4-3.42-.23-4,0-.58.51,1,1,0,1-2.76-.09-4.55-.61-7.51-.6-.56-.28-2.33,0-1.77-.81-1.37,0-1.26.63-3.09.4a41.06,41.06,0,0,0-5.74-.6,29.19,29.19,0,0,0-6.18-.4c-3.1-.94-7.14-1.44-10.59-2.22a15.22,15.22,0,0,0-5.3,0v1a8.9,8.9,0,0,0,4,.41,3.08,3.08,0,0,0,1.76.4,15.3,15.3,0,0,0,4,.8,11.75,11.75,0,0,0,4.41,1h.88v.2a6.92,6.92,0,0,0,3.53.81c1.71-.11,2.16.35,4,.2,0,.2-.35.23-.44.4,2.16.09,3.8.41,6.18.39.66.58,2.6.57,4.42.61a14.7,14.7,0,0,0,3.09.2c1.32.74,4.86.47,6.62,1a12.66,12.66,0,0,0,3.53.2A12.05,12.05,0,0,0,165.48,166.47Z"/><path d="M249.09,319c3.57-.23,5.75.11,9.76.2.95.12,3.37-.23,3.26.2a6.43,6.43,0,0,0-2.61.41c-1.23.36-4.3.15-6.5.2-.13-.3-1.58-.19-2.61-.2,0-.31-4.82-.44-3.89.2-1.55.53-6.55,1.05-5.21,1.81v1.82h-.65a20,20,0,0,0-5.2.2h0c-.89.19-.87.44,1.29.59,2.47,0,3.93,1.33,5.86.81a10,10,0,0,1,1.3.2c-.26,1,3.43.82,3.9,1.61-.92.9,2.2.53,2,1.21h4.55a30,30,0,0,0,4.55.4v.41c3-.07,4.34.4,7.16.4.16.42,2.85,0,3.25.4a12.9,12.9,0,0,0,4.21.6V318.4H258.2c-1.63-.15-6.25.09-9.11-.2Z"/><path d="M265.69,211.15c-.19-1.33-1.75-2-4.42-2.22v1C263.43,210,263.4,211.11,265.69,211.15Z"/><path d="M258.19,220c.69,0,1.52,0,1.32-.4,1.13-.3,3.35-.09,2.64-1.21-1.24,0-3-.18-3.08.4-2.34.18-.07-.49-1.77-.6h-2.65c-1.36-.2,1-.33.89-.6a4,4,0,0,0,1.32-.21c1.57-.56,3.12-1.12,2.65-2.61,1,0,.95-.51.88-1,.82-.73,2.74.09,3.09-.6-1-.27-1,.1-1.76-.41-.74-.33.28-1.46-1.33-1.41-.95-.17-1-.74-.88-1.4-1.22-.12-1.85-.5-3.09-.61v-.2c-.27-.28-1.7,0-1.77-.4s.44-1-.88-.81h-3.09c-.76-.46-3.37-.07-4.85-.2,0-.12-.07-.23-.45-.2a12.05,12.05,0,0,0-4.86,0c-4-.07-6.84-.64-11.47-.4-.52-.35-4-.37-4,.2.91.19,1.75.41,2.65.6v.21c-.67.5-3.8-.13-4.41.4h-4c-.05-.45-1.87-.08-2.64-.2a60.76,60.76,0,0,0-11,0c-.18.95,2.87.43,3.09,1.21-1.63.12-4.4-.26-5.3.19-2.1.08.28,1,.44,1.61.21.76-2.19,2.11.89,2,.09.22.49.31.88.4.63.49-.19,1.93,1.77,1.41.44,0,.52.16.88.2.82,0,.27.68.88.8H211v.2c2.72.17,5.2.45,7.5.81.91.46,3.82,0,4.86.41a31.13,31.13,0,0,0,4.85.6,1.37,1.37,0,0,1,.29,0h.37c.33,0,.7,0,1,0s.5,0,.54-.17c3.7-.16,9,0,14.15,0h.44c2,.64,9.29-.34,9.27.6s1.92.17,2.65.2c0,.4-1.21.26-.89.81-.11.28-1,.23-1.32.4-1.33.06-3.43-.23-3.53.4-1.56.1-4.25-.33-4,.61,3.31.33,8.75,0,10.59-1Z"/><path d="M262.75,341.94c0-.61-2.28-.5-3.9-.6a14.49,14.49,0,0,0-3.9.4c2.52-.1,3.17.36,5.85.2Z"/><path d="M252.44,184.18v.2c-1.34.47-2.95.8-3.08,1.81h-.44c-1,.48-.73,1.55-1.77,2h-.44c-1.45,1.45.95,2.76,4.41,2.62.41.63,1.89,2.65,2.21,2.41V193c1.23.46,3.36.05,3.53-.6h1.33c1.48-.12,4.1.26,4.85-.2h10.43v-1a22.2,22.2,0,0,1-5.13-.17v-.2h-.44c1.41-.88,4.1-.46,5.57-1.49v-.15a3.13,3.13,0,0,0-2.92.84,3.34,3.34,0,0,0-3.09.4c.5-.9,3.79-2.39.88-3v.2h-.44v-1c2.08-.07.71-1.69,3.52-1.41.38,0,.43-.09.45-.2a3.09,3.09,0,0,1-1.77-.41A25.91,25.91,0,0,1,267,186c-.36,0-.45-.2-.89-.2a.83.83,0,0,0,.44-1h-.44V184H267c1.4.8.67-1.71,2.2-.81,1.84.92.42-.15.88-.4,0-.55.74-.4,0-.81-1.6.08-2.1.65-4.41.41-.2-.56,2.4.16,2.21-.41-.52,0-.79,0-.88-.2-3.15.45-7.44.37-9.28,1.41h-.88C255.51,183.56,252.61,183.25,252.44,184.18Z"/><path d="M254.3,280.37c-.45.81.62,1.14.65,1.81-1.81.24-1.21,1.24-1.31,2-2.42-.08-3.81.16-3.89.8v.41c2.9.31,6.18.5,8.45,1,1.91.49,1.26,1.76,3.91,2,.47.72,5.12.15,5.85.8,0,.77,3,.61,5.51.61v-9.75a83.43,83.43,0,0,0-11.36.49C258.83,280.71,257.57,280.23,254.3,280.37Z"/><path d="M244.5,231.67h2.21v-.6C245.85,230.68,244,230.85,244.5,231.67Z"/><path d="M211.83,307.73c-1.64-.33-3.68.68-4.85,1.21C209,308.81,211.6,309.1,211.83,307.73Z"/><path d="M195.5,266.89c0-.26.56-.28.44-.61a6,6,0,0,0-1.77-.2C194.05,266.61,194.33,267,195.5,266.89Z"/><path d="M193.29,156c.5-.84-.93-.78-.88-1.41h-.88c-.51-.39-3-1-3.54-.21.7.09.38.64,1.77.41.61.46,1.53.78,2.21,1.21C191.43,157,194.91,156.44,193.29,156Z"/><path d="M122.66,338.32c.59.28,3.08.39,3.08-.2-.26-.28-1.69,0-1.77-.4C123,337.68,122.57,337.88,122.66,338.32Z"/><path d="M133.69,338.72c.53,0,1.26,0,1.33-.19h8.38c1.49-.13,4.11.25,4.86-.21h2.21v.21c3,.07,4.64-.44,7.5-.41a16.43,16.43,0,0,0,5.3-.6,24.18,24.18,0,0,0,7.07-1.21h3.53c.46-.66.32-1.59,3.08-1.2.51-.25.5-.72.45-1.22-.64-.1-2.29.24-2.21-.2s1.26-.36.88-1c-.3-.4-2.46.05-2.65-.4.29-.61,1.22-.92,3.1-.81a1.81,1.81,0,0,0-.89-1.61c-.27,0-.52,0-.44-.2-.32-.54,2.08.14,1.76-.4,1.49.21.69-.62.89-1,1-.09.17-1,.44-1.41-1.22,0-2.89-.81-3.53-.4-.56-.28-2.17-.09-2.21-.6,1.39-1,6.45.39,8.83-.41.66,0,1.63.07,1.77-.2,1.11-.43,4.47.16,4.85-.61a8.91,8.91,0,0,0-3.09-.39h-11v-.4c-1.1-1.38-4.18-1.86-7.07-2.42,0-.27.78-.19.89-.4a27.47,27.47,0,0,0,4.85-.21c.49.41,3.42.24,4,0,.11-.65-.53-1-1.77-1H166.8c-.44,0-.53-.16-.88-.21-1.92-1-8.28-.61-10.6,0v.21h-.43c-.38-.64-.59.36-.45.6h5.74a38.11,38.11,0,0,1,5.3.4c-.1.23-.49.32-.89.41-2.84-.05-5.18-.33-8.38-.2h-.44c-2.08-.77-4.86-.09-8-.21-.9-.46-3.67-.07-5.3-.2-.33-.45-2.47-.07-3.53-.2-.74-.32-4.73-.42-4.86.2a20.32,20.32,0,0,0-6.62.61H126.2V321c-1.7,0-3.8-.12-4,.6.06.71,1.46-.43,1.33.2.13.46-1.27.22-1.33.61a4,4,0,0,0-1.76.8h-.88c-1.85-.05-3.7-.07-4,.61-2.06.27-5.21,0-7.06.4-.56,1.4,3.56.66,4,1.61.12.45-.11.75-.89.8-2.24,0-4.59-.09-5.74.4v-.2h-1.75c-1.11.75-.23,2,1.75,2,1.07-.09,1,.37,2.22.2h.44c.27,0,.52,0,.44.2.34.72,3.38.2,4,.8v.21c2.33-.26,2.88,1.35,4.85.59h.89c.18.46,2.16.09,3.08.2,0,.21-.35.25-.44.41H117.8a18.75,18.75,0,0,0-4.42-.41c-.08-.22-.48-.3-.88-.4v-.2h-1.32c-1.16.42-.09,2.2.88,1.61h.44c.28,1.15,4,.72,6.19,1,1.21.66,3.9.64,6.62.6a70.61,70.61,0,0,0,7.06.41c2.28.84,8.18,0,10.59.8-1.08.41,1.47.82,0,1.41-3.55-.14-4.31,1-8.39.6a46.51,46.51,0,0,1-8.83,0h-.43a22.16,22.16,0,0,0-7.51-2c-.82,1,2.83,1.62,4.86,2,.13.42,1.18.4,1.31.81C127.27,337.9,129.55,339.61,133.69,338.72Zm-10.43-13.37c-.34.23-.13.71-.63.88.5-.17.29-.65.62-.88h0Z"/><path d="M180.93,192.63a5.23,5.23,0,0,0,2.64.4c.42-.16,1-1.28,0-1.4,0-.59-1-.75-1.76-1-2.14-.17-2.57-2.18-4-2a4.92,4.92,0,0,1-1.77-.21c.1-.37-.49-.43-.44-.8-2.44-.24-2.42.64-4.85.4a66.8,66.8,0,0,0-11.49,0h-.43a53,53,0,0,0-10.15,0,8.84,8.84,0,0,0,.43,2,8.6,8.6,0,0,0-3.53.4H143.4c-1.1-.29-5.73-.48-6.18.2a12.66,12.66,0,0,0-3.53.2c.08.3-.16.74.44.81-.09.37.5.44.44.8h-1.32c.07.3-.15.75.44.8v1.62c-5-.24-1.9,3.14,3.09,2.41.29.6,1.53.78,3.09.81h.44c.49.64,2.44.63,4.42.6,1.14.55,3.64.48,5.74.6.9.46,3.66.07,5.3.2,2.79.47,7.5.07,11,.2,0,.61,3.27-.28,2.65.61-2.51.13-6.17-.27-7.94.2h-.45a124.42,124.42,0,0,1-18.54-.81,3.77,3.77,0,0,1-1.32-.2c-.08-.29-1.07-.18-1.77-.2-.62,1.49,1.92,1.54,4,1.81,1.15.22,1.65.73,3.09.81.42.62,3.37,1.14,4.42.8h.44c2.28.17,4.09.55,6.62.61.45,0,.53.16.89.2a52.16,52.16,0,0,0,10.15,0c2.93-.28,6.37-.32,7.51-1.41,2.58.17,3.1-.6,4.85-.81v-1.2c-1.11.26-1.38-.8-1.76-.2h-.44c-.29-1.5-1.13-3.33.88-4.23.5-.57.54-1.37,3.09-1C183.33,193.55,180.72,193.73,180.93,192.63Zm-19,9.66c-1.44-.09-6,.21-5.29-.2C158.09,202.17,162.66,201.89,161.94,202.29Zm2.25-7.47c.58-.33.23-.51-.06-.71.29.2.64.38.06.71-1.48-.85-1.55-2.15-1.84-3.52C162.64,192.67,162.71,194,164.19,194.82Zm16.74-3.19v.2c-.08.3.15.74-.45.8a2.13,2.13,0,0,0-1.76-.6c-.25-.49-2.86.09-2.65-.6.83-1,3.78.3,3.1-.81C180.75,190.5,179.17,191.82,180.93,191.63Z"/><path d="M178.72,186.4c-.71-1.13,1.1-1.12,1.33-1.82-1.22-.56-1.85.18-3.1.2-.14-.23-1.36-.94-1.76-.4-.44,0-.52-.16-.89-.2-.92-.18-.76-.86-2.2-.8-1,.5,0,1.32,1.32,1.4V185C175.25,185.43,175.78,186.46,178.72,186.4Z"/><path d="M177.4,270.51c1.34.12,3.8-.26,4.41.2-.23.3-.65.5-.88.8-1.59.09-3.42.05-4,.61,1.31.21,4.27.73,5.74.2.52,0,1.26,0,1.33-.2a29.07,29.07,0,0,0,5.3-1,19.41,19.41,0,0,0,4-.8,4.44,4.44,0,0,0,2.65,0c.1-.61-1.63-.69-.44-1.21,1.87.12,3.09-.07,2.65-1a33,33,0,0,1-4.42.2c-1.44-.79-5.64-.25-7.5,0h-1.77c0-.12-.07-.23-.44-.2a14.31,14.31,0,0,0-5.3,0c-1.39-.23-1.07.32-1.77.41v.2c-.5.64-3.4.19-3.53,1,.57,0,.61.26,1.33.2A3.74,3.74,0,0,0,177.4,270.51Z"/><path d="M174.3,271.92c-.2.63.95.64,2.22.6v-.8A5.72,5.72,0,0,0,174.3,271.92Z"/><path d="M174.3,169.49h1.77c.07-.5.08-1-.88-1h-.44C173.15,168.3,174,169.35,174.3,169.49Z"/><path d="M169.89,162.85c.56.28,2.16.31,2.21-.2C171.54,162.37,169.94,162.34,169.89,162.85Z"/><path d="M167.24,271.31h4c1.11-.23,2.5-.33,3.08-.8a19.35,19.35,0,0,0-6.17,0C166.8,270.31,167.34,271,167.24,271.31Z"/><path d="M164.16,277.75c.13-.27.62-.38.43-.8h-1.32C163.15,277.4,163.38,277.71,164.16,277.75Z"/><path d="M161.94,271.31h.45c.1-.54,1.86-.76.88-1.2-1.45.59-2.21-.51-3.09,0a4.74,4.74,0,0,0-1.77.2C158.35,271.21,160.54,271.08,161.94,271.31Z"/><path d="M162.39,237.1a20.57,20.57,0,0,0-5.74-1c-.51.24-.51.71-.44,1.21C158.67,237,161.44,238,162.39,237.1Z"/><path d="M156.65,313.57h1.76a.82.82,0,0,0-.44-1C156.59,312.47,156.56,313,156.65,313.57Z"/><path d="M153.56,235.9c-3,.09-6.29.08-8.83.4h-.44a23.62,23.62,0,0,1-4.42.2c-.37,1.51-6.2.52-9.27.81h-.44c-.41-.76-3.54-.27-5.3-.41-2.29-.07-.52.94-1.32,1.21a13.9,13.9,0,0,1,3.53,0c-.25.41-1.33.39-.45.8,2.1.18,1.24-.49,1.77-.6a13.63,13.63,0,0,0,6.63.4c1.44-.48,4.77-.1,5.74-.8.26,0,.52,0,.44-.2,1.76,0,2.65-.4,4.41-.4,3.34.11,4.12-.94,7.95-.61C155.26,236.86,155.26,235.73,153.56,235.9Z"/><path d="M154.44,238.31c-1.36-.52-2.37.41-3.09.8C152.32,239.46,153.8,238.74,154.44,238.31Z"/><path d="M150.47,239.31a10.56,10.56,0,0,0-3.09-.2c-2.07.14-4.22.23-5.3.81a14.31,14.31,0,0,0,5.3,0h1.33A2.11,2.11,0,0,0,150.47,239.31Z"/><path d="M152.23,319.6c1.38.1,1.41-.42,1.33-1-.64.1-2.28-.24-2.21.19-1.57,0-2.64.14-3.09.6C149,319.75,150.85,319.57,152.23,319.6Z"/><path d="M148.26,319.4a10.84,10.84,0,0,0-2.21-.4C145.16,319.77,148.06,319.8,148.26,319.4Z"/><path d="M144.73,187.8c-1.16-.06-1.45.28-1.33.81,1.16,0,1.9-.08,1.77-.61C144.9,188,144.65,188,144.73,187.8Z"/><path d="M135.9,239.92c.67.31,3,.36,2.65-.41C137.88,239.21,135.53,239.16,135.9,239.92Z"/><path d="M135,241.73c.2-.63-.39-.89-1.77-.8v.8Z"/><path d="M120.89,236.7v.81c1.27,0,2.41,0,2.21-.61A6.08,6.08,0,0,0,120.89,236.7Z"/><path d="M121.33,288.62c-.31.74.7.89,2.21.8C123.84,288.68,122.84,288.53,121.33,288.62Z"/><path d="M115.59,286.4c1.14-.21,3-.12,3.53-.6.95.43,2.42.07,2.65-.4-.56,0-.6-.26-1.32-.2-1.18-.46-4.6-.23-4.86.4a4.9,4.9,0,0,0-1.76.2c-2.11-.16-2.91.29-3.53.81C111.05,287.14,114.86,287.05,115.59,286.4Z"/><path d="M108.09,251.8c0,.51,1.65.32,2.21.6.93-.18-.52-1.3-.89-.81,1.67.11-1,.82-.88.21H109c.18-.9-.73-1.28-2.21-1.42h-.43c-.32-.72-2.25-.72-4-.8-1-.13-.64-.91-1.76-1a8.41,8.41,0,0,0-5.31-.81c-.2,1.1,3.28.52,3.54,1.41-.65.11-2.29-.24-2.21.2h-.44c-1.86,0-3.69-.07-4,.6.83,0,1,.24,1.77.2,3-.15,4.68.28,7.5.2v.2c1.42,0,1.86.37,3.52.2C105.36,251.42,106.89,251.53,108.09,251.8Z"/><path d="M109.41,256a3.22,3.22,0,0,0-.43-.7C109.2,255.77,107.73,256.08,109.41,256Z"/><path d="M71,264.87h.89a5.81,5.81,0,0,0,1.76.21c0,.2-.35.23-.44.4,2,.19,2.66.56,4.42,0a13.38,13.38,0,0,0,4.41.6c.75.46,3.37.07,4.85.2,1.89.42,5.43.08,7.51.41a20.23,20.23,0,0,0,7.07-.21c.08-.3,1.06-.18,1.76-.2,2.4,0,4.3-.32,7.07-.2-.24-.29.51-1-.44-1v-.41c-1-.43-2.41-.64-3.53-1-.46-.2-.91-.4-1.34-.61.4-.16,2-1.23,0-1.21h-.43a.77.77,0,0,0-.44-.8c-.11-.29-.73-.34-.89-.6.19-.39,1.27-.37.89-1a3.81,3.81,0,0,0,1.32-.2c3.85-1.06-2.46-2.06-1.77-3.63-.15,0-.3-.06-.44-.09a.09.09,0,0,1,0-.1,2.33,2.33,0,0,0-.39-.06h-.22A24.28,24.28,0,0,0,97.05,254a16.91,16.91,0,0,0-3.54-.2h-.43c-.7-.42-3.08-.07-4-.41-.61-.69,5-.27,6.62-.6.78.6,2.37-.12,3.53,0a12.3,12.3,0,0,0,5.74,1.61c.47.52,2.33.42,2.65,1-.29-.65.82-.35,1.27-.22l.07.11s0-.06,0-.09a.2.2,0,0,0-.08,0c-1-1.29-3-2.09-6.54-2.18,0-.27-.21-.44-.45-.6-1.69-1.8-9.85-1.47-15.44-1.21a7.62,7.62,0,0,0-3.1.4h-4A17.15,17.15,0,0,0,74.1,253c-.84,0-.32.67-1.33.6a10.32,10.32,0,0,0-3.52.81c-1.63.06-3.92-.17-4.87.2v.61h-.44c-.8.7-2.81,2.22-.44,2.61-.8.58-3.53.27-4.41.8-1.33-.2-.78.45-.89.81,2.31.3,3.87.92,6.62,1-.34.69.5.85.89,1.2,2-.15,2.65.27,4.42.2a18.78,18.78,0,0,1,4,.4c.37,1.31,6.25.11,7.94.81v.81h-5.3c-1.5-.35-5.2,0-7.06.2C69.56,264.6,69.85,264.93,71,264.87Z"/><path d="M110.74,231.47c0,.2-.36.24-.44.4,2.07.4,2.84,1.38,6.62,1-.42.72,1.73.28,2.65.4h4c.07.24.69.22,1.32.2,2.22.47,6.33.07,9.27.2.54,0,.27.23,0,.4h-1.76v.81h1.76c1,.37,3.24.13,4.86.2a11.71,11.71,0,0,0,4.86,0c.51,0,1.25,0,1.32-.2,2.13-.06.07-.9-.44-1h6.18v.2c.59.14.82.43.88.81a21.49,21.49,0,0,0,4-.2v-.4c1.32-.14-.42-.44,0-.81a16.2,16.2,0,0,0,3.52-1.61c1.19.14.86-.42,1.33-.6h.44c1.5-.7.08-1.38-1.77-1.61,0-.48.77-.59.45-1.21-1.38-.24-1.92-.87-3.53-1-1,0-1-.5-.89-1h-1.76c-.07-.44-1.11-.44-2.21-.4-1.13-.43-3.13-.09-.88-.61a14.7,14.7,0,0,0,3.09.2c1.35.79,4.11-.47,1.33-.6-3.15-.65-7.71-.64-12.37-.61v-.19a6.23,6.23,0,0,0-3.09.4c-.61.46,1.14.75,0,.8h-9.27c-4.06-.11-6.19.67-9.27,1-1.71-.11-2.16.36-4,.2-2.83.25-4.4,1.08-8.39.8-.56.53-1,.61-.44,1.21h.44c.45.63-2.39,1.39,0,1.61C108.61,231,108.89,231.56,110.74,231.47Zm33.55,2.61c-1.2.13-3.51-.25-4,.21-2.09,0-4.19,0-4.85-.61h5.74C141.25,234.26,144.23,233.51,144.29,234.08Z"/><path d="M108.53,285.6h-.44c.41-.82-2.39-.7-3.1-.4,0,.61-.25,1.32,1.34,1.2a4.48,4.48,0,0,0,2.64.41C109,286.32,109.05,285.83,108.53,285.6Z"/><path d="M101,286.61h2.21V286C102.38,285.61,100.52,285.79,101,286.61Z"/><path d="M94.85,201.08c.17.26.56.41,1.32.41.08.29,1.06.18,1.77.2-.91-1.85-7.22-2.29-11-1.61-.19.91,2.07.55,3.1.4.09.16.38.23.88.2A9.1,9.1,0,0,1,94.85,201.08Z"/><path d="M96.17,302.1c.75.46,3.36.07,4.85.2,1.92-.13,5,.27,6.19-.2h2.65c.62.28,5.06.63,4.41.2-.64-.11-2.29.23-2.21-.2,1.54-.1,4.19.3,4.41-.4,1.42,0,1.87-.36,3.54-.21.06.51,1.49.06,1.76,0,.37-.56-.62-.51-.44-1h1.77c.53.61,1.93,0,1.33-.6a34.56,34.56,0,0,1-3.54-.61c-1-.92-2.83-1.24-1.77-2.61.73,0,.26.56.89.6.11-.42,1.93,0,2.2-.4.09-.58.06-1.1-1.32-1v-.2h.44c.85-1,1.88-.47,3.1-.6-.44-.82-2.31-1-2.22-2,1.16.62,2.5-.36,1.33-.8.77-.46,3.12-.18,3.53-.81v-.2c1.37,0,1.26-.63,3.09-.4,1.62-.06,3.91.17,4.86-.2.63-1.09-5.72-.92-5.3-.6,0,.2-.35.24-.44.4h-.44c-2-.11-2.51-.87-4.87-.8.28.58,1.68,1,0,1.4a6.86,6.86,0,0,0-2.64.4c-1.68-.22-2.75.54-3.1-.2,1-.68,1.73-1.49,1.34-2.81-1.77-.38-3-.2-4.42-.41-.07-.23-.69-.21-1.32-.2.07-.44-1.57-.09-2.22-.2-.73-.32-4.72-.42-4.85.2h-.43a19.4,19.4,0,0,0-5.31.61c-3.69.26-5.28,1.48-7.94,2.21-2-.11-2.76.36-4.85.2-1,.15-2.27.18-3.1.4v.61c-1.26,0,.38,1.38-.88,1.41V293c-1.27,0-2.1.26-1.76,1,.3.4,2.46-.05,2.64.4,0,.26-.57.28-.44.61-2.54.11-3.08,1.14-6.18,1-1.87-.18-1.89.49-1.77,1.21,1.36-.15.86.55,2.21.4a2.2,2.2,0,0,0,1.32.61c2.49.85,4.14-1,6.62-.2,0,.26.78.18.89.4,0,.72-2.88.16-3.53.6-.08,1.12,3.18,1.77,5.3,1.21,3.38.2,4.76-.51,7.94-.4a.63.63,0,0,1,0,1.21,23.6,23.6,0,0,0-4.41.2c-1.75,0-2.63.41-2.65,1.2,1.51,0,3.08.07,3.54-.4A3.2,3.2,0,0,1,96.17,302.1Z"/><path d="M88.66,168.89a4.11,4.11,0,0,0-1.77.8c2.14.31,2.87,1.25,6.19,1C92.74,169.58,90.82,169.18,88.66,168.89Z"/><path d="M72.33,177.94h.44c-.59-.88,1-.72,1.33-1.21h.43a59.88,59.88,0,0,0,6.19-.2c.59-.39-.32-.81.44-1.4,1.91,0,3.16-.3,3.53-1,.65,0,.41-.49.44-.81.44,0,.53.17.88.21,2.11.34,1.61-1.29,0-1-.8-.79-.37-2.7-.88-3,0-.25-.14-.47-.88-.4.11-.29.72-.34.88-.6a8.15,8.15,0,0,0-2.64-.41,7.31,7.31,0,0,0-2.65-.6c-.45-.46-2-.42-3.54-.41a20,20,0,0,0-6.17,0c-.53,0-1.26,0-1.34.21-1.25,0-3-.18-3.08.4.64.31,2.26.17,3.54.2h8.38c-.45.61,1,.36,1.76.4.1.25.68.41-.44.41-1.63-.47-5.14-.07-7.51-.2-2.22.12-5.58-.27-7.06.2H63.05a15.74,15.74,0,0,1-4.85.4c-1.9-.06-3.56,0-3.54.8-2.34.33-.79,1.46-.43,2.22,0,.12-.06.24-.44.2a.47.47,0,0,1,0,.37c-.36.79-3.33.38-3.53,1.24.07.37,1.49.12,1.76.4v.61h-.44c-.53.28-1.92.19-1.32,1,1.06-.12,3.19.25,3.53-.21,1.66-.14,2.1.25,3.53.21v.2c.79.45,7.16.08,10.16.2-.07.37.43.47,1.31.4,1.08.49-1.07.53-.43,1.41C69.55,178,71.86,178.4,72.33,177.94Zm11.48-8.85c-1.25.1-.64,1-2.65.8-1.34-.53,1.9-.43.45-1C82.24,169,83.88,168.65,83.81,169.09Z"/><path d="M83.36,276.75a5.71,5.71,0,0,0-2.2-.21C80.42,277.5,83.7,277.65,83.36,276.75Z"/><path d="M82.93,232.28c.38-.77-1.48-.95-2.21-.61C80.68,232.27,82,232.69,82.93,232.28Z"/><path d="M79.84,234.69c0,.4-1.21.26-.89.8a3.49,3.49,0,0,0,3.09.61v-1C81.45,234.89,80.42,234.9,79.84,234.69Z"/><path d="M80.27,287.21a3.2,3.2,0,0,0-2.2,0,.76.76,0,0,0,.44.8C79.89,288.11,80.48,287.84,80.27,287.21Z"/><path d="M76.3,197.66a5.34,5.34,0,0,0,1.77.2c1.56.11,2.28-.17,2.65-.6-.69,0-2.07-.77-2.65-.2H76.74C76.76,197.34,76.54,197.5,76.3,197.66Z"/><path d="M77.18,198.87v.8h3.54c1.38.24,2.13.78,4.41.61v-1a6,6,0,0,0-2.2-.2c0-.12-.07-.24-.44-.2a10,10,0,0,0-4.42,0h-.89Z"/><path d="M77.63,249.58c-.66-.32-2-.23-1.76.4A1.52,1.52,0,0,0,77.63,249.58Z"/><path d="M74.1,198.67c.83,0,1,.23,1.77.2.56-.27.56-.74,0-1Q73.77,197.73,74.1,198.67Z"/><path d="M69.68,233.48c1-.54-.5-1.26-2.2-1.2C66.76,232.7,67.84,233.59,69.68,233.48Z"/><path d="M64.82,252H63.05v.81C64.59,253,65.17,252.69,64.82,252Z"/><path d="M64.38,210.94a3.35,3.35,0,0,0-2.21,0c.25.36.24.84.88,1C62.73,211.26,64.85,211.69,64.38,210.94Z"/><path d="M62.17,315.59c-.41.72,1.91.35,2.21.19-.18-.92-1-1.57-3.09-1.61.07.24-.07.57.45.61C61.8,315.08,61.58,315.52,62.17,315.59Z"/><path d="M61.29,313a6,6,0,0,0,1.76.2v-.8a4.71,4.71,0,0,0-1.76.2Z"/><path d="M58.2,211.75c-.59-.28-3.09-.38-3.09.2C55.71,212.23,58.2,212.34,58.2,211.75Z"/><path d="M58.2,311.76c.19-.69-.13-1.15-1.77-1v1Z"/><path d="M54.23,312.77c-.13.46.11.75.88.8.14-.27.64-.38.44-.8Z"/><path d="M47.17,322.22c-.06-.51-.64-.78-1.77-.8-.44,0-.53-.16-.87-.2V321c-2.17.11-2.29-.71-3.54-1,.54-.61,1.51.22,2.65,0v.2a7.65,7.65,0,0,0,2.64-.2v-.81c-.63-.31-2.25-.17-3.53-.2,0-.31.06-.69-.88-.6v-.2c.55-.09.91-.26.88-.6.52,0,1.26,0,1.32-.2a24.45,24.45,0,0,1,5.74-.41c.82-.43.3-1.47.45-2.21-1.27,0-2.89.11-3.54-.2h-.44v-.21c.21-.15-1-1.3.44-1.8h.89c-.08.43,1.56.08,2.2.2.67-1.18-1.53-1-3.53-1-.53-.36-2.29-.16-3.09-.4H42.3c-.75-.46-3.36-.07-4.85-.2-.54-.83-4.87-1-6.62-.61H27.3a53.49,53.49,0,0,0-8.38-.6c-2.09-.15-3,.23-4.86.2V310H11.84c0,.88-.08,1.78,1.77,1.81v.2c.43.87-1.72.56-2.2,1,.18.65-.58,1.74.89,1.81a7.58,7.58,0,0,0,2.64.2c2,0,1.61,1.15,3.52,1.21-.45.09,3.52.93,3.54.8a4.38,4.38,0,0,1,1.32.41c-.33,0-.86,0-.87.2,1.35.2-1.27.19-.89.6a11.24,11.24,0,0,0,4,.41,4.06,4.06,0,0,1,1.32.19c1.29.88,6.31.08,8.39.6.42.55,3.65-.18,3.53.61-.52,0-1.26,0-1.33.2-.76,0-1.12.15-1.32.4.56,0,.61.26,1.32.2,2.55.73-2.16.1-2.64.61-1.59.13-3.42-.65-4,.2a11.08,11.08,0,0,0,4,.4c1.32,0,3.78.54,4.85,0,1.93-.14,2.49.35,4.41.2A6.9,6.9,0,0,0,47.17,322.22Zm-4.94-8.47a4.71,4.71,0,0,1,.14,1.3A5.13,5.13,0,0,0,42.23,313.75Z"/><path d="M45.4,279.76V279c-.83,0-1-.23-1.76-.2a.82.82,0,0,0-.45,1Z"/><path d="M42.3,278.36h1.34c.12-.47-.11-.76-.89-.81C42.61,277.82,42.13,277.93,42.3,278.36Z"/><path d="M40.1,258.84c.63,0,.75.33,1.33.4C42.84,258.74,40.4,258,40.1,258.84Z"/><path d="M38.33,155.6c.63.05.76.33,1.33.41C41.07,155.51,38.64,154.77,38.33,155.6Z"/><path d="M40.1,161.84c-2-.11-2.75.36-4.85.2v.41c-1,0-.2.71-.44,1-.6-.27-1.65-.27-1.77.2,1.69.35,4-.53,5.29-1C39.85,162.8,40.45,162.53,40.1,161.84Z"/><path d="M31.28,345.16a5.51,5.51,0,0,0,1.76.21v-.61C32,344.71,31.39,344.81,31.28,345.16Z"/><path d="M29.51,161.44c-.52,0-1.25,0-1.33.2-1.37.18-3.07.21-3.09,1a7,7,0,0,0,3.53,0,3.26,3.26,0,0,0,1.78-.4c1.62.14,1.94-.33,1.76-1C31.39,161.36,29.56,161,29.51,161.44Z"/><path d="M20.68,266.08c.52,0,1.26,0,1.32-.2.35,0,.87,0,.89-.2,1.87-.09,4.55.19,5.73-.2v-.81h-.88a10,10,0,0,0-4.42,0,7.18,7.18,0,0,0-2.64.61c-1.36-.15-.86.55-2.22.4-.54.08-.89.26-.88.6-1-.06-1.65.05-1.76.41-1.07.08-1-.37-2.21-.21,0,.28-.2.45-.43.61a5.28,5.28,0,0,0,1.76.19c1.22-.11,1.85-.5,3.09-.59A5,5,0,0,0,20.68,266.08Z"/><path d="M30.4,306.53c-1.74-.19-1.13.7-3.1.4v.8a9.12,9.12,0,0,0,3.53,0C30.89,307.23,30.89,306.76,30.4,306.53Z"/><path d="M28.18,358H26.41v.81C27.81,358.94,28.39,358.67,28.18,358Z"/><path d="M25.54,286.4H23.77v.81C25.28,287.36,25.88,287.1,25.54,286.4Z"/><path d="M25.54,281.38c1.85.53,3.81-.24,5.74.2.54-.36.32-1.07,1.32-1.21a2,2,0,0,0-.44-1.61c-.13-.68-2.91-.15-3.09-.81-.65-.17-1.4-.3-1.33-.8v-.61c.91-.12.13-1,1.77-.8.58,0,.4.35.89.4-.15.53.6.66,1.76.61v-.41c.82-.65-1.38-1.64-2.65-2,0-.2-.36-.24-.44-.4-.83-.05-1,.22-1.77.2v-.2a13.83,13.83,0,0,0-4.41-.81v-.2a56.49,56.49,0,0,0-12.81-1.2H7.87c-.1-.29-1-.24-1.31-.41-.08-.37-1.5-.12-1.77-.4a19.89,19.89,0,0,0-4.79-.2v11.7a66.92,66.92,0,0,0,8.76.37h.88c.23.71,2.89.3,4.42.41a8.08,8.08,0,0,0,4,0c3.33-.46,4.72.85,6.18.6C23.49,282.45,25.43,282.33,25.54,281.38Zm.39-6.51a.37.37,0,0,1,0-.09h0A.19.19,0,0,0,25.93,274.87Z"/><path d="M25.54,263.47a1.42,1.42,0,0,0-.88-1.62c.17-.85-.43-2.07.43-2.61,5.46,1,7.45-2.51,2.21-2.42-.27,0-.53,0-.44-.2.12-.52-.16-.86-1.32-.81.28-.73-.3-1.07-.88-1.4a9.63,9.63,0,0,1-3.54-.4c-1.53-.73,2.24-.16,2.65-.61v-.8c-.56,0-.61-.26-1.32-.2-2.6-.37-6.43-.16-8.84-.6h-.43c-4.09-.23-7.83-.6-12.36-.61-.2,0-.47-.09-.82-.13v4.6H0v.14a2.6,2.6,0,0,0,.36.13h0L0,255.81V263a35.43,35.43,0,0,0,3.91.05c2.8.87,9.72.93,13.67.61C21.42,264,22.59,263.07,25.54,263.47ZM1.06,256.15h0a13.69,13.69,0,0,0,1.58.34H2.59C2.05,256.39,1.53,256.28,1.06,256.15Zm3,.54.54.06-.54-.05Z"/><path d="M17.58,198.67c-.08.71.65,1.05,2.22,1,.13-.27.63-.38.44-.8A7.7,7.7,0,0,0,17.58,198.67Z"/><path d="M19.35,190a4,4,0,0,1-1.32-.21c-1.16.46.33,1.54,1.32,1Z"/><path d="M7.43,213.16H7a11.66,11.66,0,0,0-4.85,0H1.69a6.69,6.69,0,0,0-1.69.07v.89a3.39,3.39,0,0,0,.82,0H4.34c2,.1,4.76.7,6.19.41C10,213.85,9,213.38,7.43,213.16Z"/><path d="M9.2,266.48c-1.11-.4-2.43-.47-3.09.21C6.64,267.06,9.4,267.45,9.2,266.48Z"/><path d="M0,216.67v.87C.42,217.31.52,216.86,0,216.67Z"/><path d="M.37,286s0,0,0-.06c.32-.24.39-.53-.33-.67v.9c.14,0,.14-.11.24-.17Z"/><path d="M254.21,152.58c-1.81,0-4.25-.19-4.85.41a20.23,20.23,0,0,0-4.86.4c-.44,0-.52.16-.88.2a13.86,13.86,0,0,0-6.19.8v.21c-1.31.74.25,1.89,0,2.82-.86.27-.24,1.23-.87,1.6,1.48,1.07,4.93.35,7.94.41a3.25,3.25,0,0,1,2.21.81c0,.52-.17,1.15.44,1.4h.44c1.72.49,4.71.4,7.5.4-.81.37-.71,1.35,1.33,1,.1.36.76.46,1.77.41,4,.4,7.5,1,11.47,1.4,0-.2-.35-.24-.44-.41h-.88c-.23-.15-.46-.32-.44-.6h5.57v-.18c-2.07-.18-5.53.28-6.9-.21h4.85c-3.28-.45-8.63,0-10.59-1h3.54a19.41,19.41,0,0,0,6.18,0H271v-.2h2.2V162h-.44v-.2h.72v-.1c-.26-.1-.71-.1-.72-.3a8.11,8.11,0,0,0-2.65,0c-.83,0-1-.23-1.76-.2-.27,0-.53,0-.44-.2v-.2h.88c1.81-.28,3.61.48,4.41,0-1.31-.13.43-.43,0-.81v-.2h-.44c-1.73.12-1.12-.82-2.2-1-.6-.73-1.25-1.44-1.77-2.21-1.36-.15-.85.55-2.21.41.13-.33-.41-.35-.44-.61h.44a4.7,4.7,0,0,1,2.65-.2c2.17.39,1.18-.67,2.65-.61V156c.44,0,.52.16.88.2,0-.22.33-.34.72-.38v-.74l-1.16.32c.2-1-1.05-1.4-1.32-2.22a7.94,7.94,0,0,1,2.48.29V153a15.27,15.27,0,0,0-3.37,0v-.41h-1.76v-.19h5.13v-.2h-1.16c-1.77-.14-4.69.26-5.74-.2h-4c-1.29.68-5.31.12-7.06.59Zm15,8.06c.78-.72-1.48-1-.44-1.21,1.71,0,1.74.82,3.09,1C271.82,160.88,270,160.52,269.22,160.64Zm.88-6.25c-.33.74-1.4,0-3.08.21a11.17,11.17,0,0,1,2.64-1.61C271.88,153.15,268.28,153.9,270.1,154.39Z"/><path d="M238.76,248.58c3-.17,6.59-.09,7.5-1.21,1,.06.49-.59,1.33-.61.66,0,1.63-.07,1.77.2-.35,0-.87,0-.89.21a9.83,9.83,0,0,0,4,0c.08-.45-.35-.65-1.32-.61-1.3-.54-.55-2-3.09-2-1.73-.41-.76-2.1,0-2.62,1-.08.18-1,.44-1.41.84-.08,1.9-.07,1.77-.6-2.22-.48-.85-1.61-2.21-2.21-.27,0-.52,0-.44-.2.45-.49-2.2-1.28-4-1.41-.46-.68,1.37-.31,2.21-.41.18-.89-.74-1.27-2.21-1.4a18.07,18.07,0,0,0-4-.41c-.33-.45-2.48-.08-3.53-.2a25.56,25.56,0,0,0-4.42-.6c-1.73-.49-4.71-.41-7.5-.41h-.89c-1.86-.27-5.2-.77-7.07-.39-.45-.47-2-.42-3.53-.41-.19-.45-2.17-.08-3.09-.2a12,12,0,0,0-4.85,0h-3.53c-1.53.11-4.19-.3-4.42.41-1.78.19-4.43,0-5.29.59a7.82,7.82,0,0,1-3.54.21c-.59,1.05-2.77,2.06-1.76,3.22-1.64.13-2.47.62-2.21,1.61h1.32c.54.69,2.22.87,4,1,1.34.46,3.38.6,3.09,1.81-3.93.36-1,1.94,2.2,1.82,0,.33,1.23.11,1.33.4v.2c2.21,1.07,6.91,1,9.71,1.81v.2c1.21-.15.89.4,1.77.4,0,.52,1.64.33,2.2.6.56.56,2.39.53,4,.61,2.39-.15,3.42.32,5.73.2a16.54,16.54,0,0,0,4.42.61c1.14.55,3.64.48,5.74.6C231,248.76,235.85,249.09,238.76,248.58Zm6.64-8a2.88,2.88,0,0,1,.55.4,3.39,3.39,0,0,0-.55-.4Zm-.09-.06h0a3,3,0,0,1-1.2-.94A3,3,0,0,0,245.31,240.52Z"/><path d="M206.09,350.39h-1.32v.81C206.24,351.4,206.22,350.92,206.09,350.39Z"/><path d="M183.14,307.13c1.46.41,1.53,1.45,2.65,2,1.24,0,3,.17,3.09-.41a37.25,37.25,0,0,0,4.85-.4c.1-.16.37-.24.88-.2,2.44.24,3.07-.35,4.86-.41a29.21,29.21,0,0,0,6.62-.39c1.4.1.17-1,1.77-.81h.44c1.85.77,3.36-.34,2.65-1.41-1.44-.71.89-.93.88-1.61,1-.34.17-1.54.44-2.21,1.48.2.69-.63.89-1-1.1-.31-2.63-.41-3.09-1,.58-.2,1.64-.18,1.76-.6-1.11,0-1.07-.45-1.76-.6,1.53.38,5.9.79,3.53-.21,0-.12-.07-.24-.44-.2-.83-1.33-8.3-1.34-9.72-.2-.44,0-.52.16-.88.2-2.85-.15-3.67.61-5.3,1h-.44a22.56,22.56,0,0,1-6.18,1c-2.51-.08-3.75.43-4.41,1.21,0-.29-1.13-.22-.89.2-.88.19-1.79.38-2.65.6h-.44c-1.28.78,0,1.86-2.64,2.21h-.44c-.69.77-2.25,1.13-1.77,2.42a19.61,19.61,0,0,0,2.65.4C181.88,306.5,181.76,307.15,183.14,307.13Z"/><path d="M171.22,256.62h-.44c-2.18,0-3.21.55-3.54,1.41,3.29.52,8,.4,12.37.41h2.2c2.6.42,6.92.06,9.72.4v.6h7.06c.11.28,1,.23,1.32.4v.21h2.21c.45-.82-.69-.9-1.32-1.21.27,0,.52,0,.44-.21-1.64.15-1.9-.34-3.54-.19-.32-.73-3.47-.16-4-.81a15.51,15.51,0,0,1-3.09-.2v-.81h-.88a10,10,0,0,0-4.42,0c-2,.11-2.74-.35-4.86-.2C177.94,255.94,173.71,256.42,171.22,256.62Z"/><path d="M174.3,267.09v.19c1.33.41,4.17.12,6.18.21,2.25-.19,6.21.41,7.07-.4H188c3.09.26,4.1-.42,5.74-.81.05-.58-.25-1.32.44-1.61,2.07.21-.08-1.51,1.33-1.61h.44c1.58.12,1.34-.59,1.32-1.21-1.2.15-.89-.4-1.76-.4a6.64,6.64,0,0,0-4.42-1.81c-.83-.36-2.92-.15-4.41-.2,0-.12-.07-.23-.44-.2a75,75,0,0,0-12.36,0,16.36,16.36,0,0,1-5.74-.2c-1.35-1.16-5.35,0-7.51-.6a3.62,3.62,0,0,0,2.21-.41c1.34,0,2.91.12,2.65-.6-1.24-.37-4,0-5.3.2h-.89c-.24,1.2-2,1.58-4.4,2.21v.21c-.45,0-.54.16-.89.2a20.68,20.68,0,0,0-6.18.6c-1.49.33-3.13,1.65-1.77,2.62v.2c-1.06.45-1.9,1-1.76,2,.57,0,.61.26,1.32.2.95.5,4.21,1.89,5.3,1,.27,0,.53,0,.44.2v.6c-1.1.08,0,.78.88.6,3.19.58,7.73,0,9.28-.8C166.38,267.63,170.18,267.28,174.3,267.09Zm-24.05-3.86-.23.07.22-.07h0Zm1-.42a.14.14,0,0,0-.11,0,.12.12,0,0,1,.1,0Z"/><path d="M113,149.77c-2.27,0-4.79-.16-4.42,1,.1.15.36.23.88.2-.75,1.24,0,2.07-1.32,2.82a14.9,14.9,0,0,0-3.1.2c.11.35-.43,1,.88.8a6.48,6.48,0,0,0,2.22.4,3.7,3.7,0,0,1,1.32.21v.19a7.13,7.13,0,0,0,4,.81c5.85.49,15.49.32,18.1,1.61,1.64-.14,1.9.34,3.54.2v.2a31.56,31.56,0,0,0,4,.2v.2c1.57.1,4.52.62,5.3.4a25.59,25.59,0,0,1,4.85.41,131.24,131.24,0,0,0,18.55,1.61c.63.31,2.25.17,3.53.2,0,.69,1.63.6,3.08.6,1.84.39,4.28-.21,6.18.41,2.36.6,4.35-.7,6.63-.81,0-.6-1.15-.68-1.32-1.2.76-.19,1.53-.38,1.32-1,1.95-.45,2.61-1.49,2.65-2.82-1.56,0-2-.58-3.53-.6h-.44c-.1-.16-.38-.24-.89-.2a1.65,1.65,0,0,0-.88-2c.56.27,2.16.31,2.21-.21-1.85-.56-2.65-1.6-4.42-2.21.94-.57-1.77-1.19-2.64-1.61v-.2c-1.64-.06-1.2-1.06-3.1-1v-.2c-1.34,0-2.9-.12-2.65.61,1.13.69,3.78.69,4,1.81-.11.35-.76.45-1.77.4-1.75-.75-4.59-1-7.5-1.21-4.13-.53-8.14-1.12-12.81-1.41a60,60,0,0,0-7.5-.4h-.88c-.1-.16-.37-.24-.89-.2-.75-.46-3.36-.08-4.85-.21-.6-.39-2.71-.1-3.54-.4-.6-.46-3.07-.07-4.41-.2a10,10,0,0,0-4.41,0c-1.35,0-2.26.18-2.64.6a20,20,0,0,0,4.4.41c.75.46,3.37.07,4.86.2,2.94-.13,3.49.12,1.76.81H135.9a16.28,16.28,0,0,0-5.74,0h-.44a13.85,13.85,0,0,0-5.29,0h-.89a31.77,31.77,0,0,0-4-.2c.13.46-1.28.21-1.34.6C116.62,149.7,113.84,149.31,113,149.77Z"/><path d="M115.15,256c1.18.21.55,1.24,2.21,1.22v.2a3.35,3.35,0,0,0,2.21,0c.21-.64-.56-.82-1.34-1-.44-1.37-4.14-2.22-7-1.81C111.63,255.48,113.43,255.74,115.15,256Z"/><path d="M80.72,180.76a15,15,0,0,0,2.64-.6c.09.29,1.07.18,1.77.2.06.44,1.87.08,2.65.2.47-.19.13-.75,1.32-.6,1.22.73,2.35-.27,1.77-1-.57,0-.61-.26-1.32-.2-3-.56-7.38,0-10.16.2-.08-.3-1.06-.18-1.76-.2.56-.81-3-.77-3.53-.41-2,.37-5.29.14-7.95.2a19.4,19.4,0,0,0-7.06-.2c.6,1,1.42,1.9,4.41,1.82a21.48,21.48,0,0,0,4,.4c2,1.08,9.85.6,13.24.4Z"/><path d="M56.88,210.14c2.44-.18,3.74.12,5.29-.2a3.84,3.84,0,0,1,1.33.2c1.81.45,4,.71,5.75,1.2.9-.11,2.89.25,3.08-.19a20,20,0,0,0,4.85-.41,10.25,10.25,0,0,0,4-.4h6.18c0,.2-.36.24-.45.4,2.78.48,4.23-1.16,2.21-1.61-1-.06-1-.62-1.76-.8.22-.64-2-.15-2.21-.61a3.48,3.48,0,0,1-1.77-1.61,10.86,10.86,0,0,0-2.2-.4c0-.2-.35-.24-.44-.4-1-2,3.26-1.6,2.64-3.42-.83-.22-2.08-.26-3.09-.4-.39-.49-1.77-.54-3.09-.6.93-1.55-3.92-1.06-4.85-.61-1.83-.78-6.19-.4-7.07-1.61-.13.67-1.93-.53-2.21.2a4.93,4.93,0,0,0-1.76.2c-2.63,0-4.17.51-6.63.6-.62.74.26.91-.87,1.41-1.91,0-2.8.47-4.87.41-.1,1.15-2.84,1.11-3.52,2H45c-1.88.15-3.87.25-5.74.4-.1.38-1.14,1.33,0,1.61.14.27.62.39.44.81v.4a14.28,14.28,0,0,0-3.1.4c.25.29-.5,1,.46,1h.43v1.2a7.64,7.64,0,0,0,2.65.21v.19c-.19.44,5.35,0,6.18.61,2.82.3,7.55,1.15,9.72,0C56.43,210.34,56.52,210.18,56.88,210.14Z"/><path d="M57.32,240.52c2.59-.16,3,.64,5.73.41,1.6-.08,3.44-.06,4-.61.27,0,.52,0,.45-.2h1.31c.62.4,3.76.25,4.42,0-.07-.3.16-.74-.44-.81-.56-.47-3.48.12-4-.4v-.2c-.88-.4-.75-1.26-1.31-1.81H66.15a2.2,2.2,0,0,0-1.33-.6c-.51-1.38.69-2,1.33-2.82-.78-.18-.72-.74-1.77-.81-.24-.7,1.56-.49,1.33-1.2-.57,0-.61-.26-1.33-.2a5.87,5.87,0,0,0-3.52-.4c-3.11.16-6.5-1.08-8.84,0-2.79.4-6.21.52-7.49,1.61-4.1-.26-4.06,1.37-7.08,1.6v1.61a4.92,4.92,0,0,0-1.77.21c-.31.45.8,1.57-.87,1.41a9.63,9.63,0,0,0-2.21.4c.27.48-.55,1.46.44,1.6.38.58,3.14,1.12,4.41.61,2.4-.34,2.78,1.27,3.54,1,.86.28.66,1,1.31,1.41h3.1a29.52,29.52,0,0,0,8.39-1.41C55.29,240.94,56.86,241,57.32,240.52Z"/><path d="M44.07,310.35c-.1.81,3.62.46,2.65-.4-1.65.21-1.25-.5-2.65-.41-.07-.29-1.06-.18-1.77-.2-.65-.35-13.37-1.28-11,.2,3.4.06,5.8.58,9.71.41A8.62,8.62,0,0,1,44.07,310.35Z"/><path d="M37.9,297.27v.81h1.32v-.81Z"/><path d="M24.21,285.6c1.94-.14,2.49.34,4.41.2v-1H27.3c.12-.91-5.86-.77-4.41,0-.84,0-1,.24-1.77.2a5.76,5.76,0,0,0-2.2.21c-2.31-.31-5.39.47-3.1,1,1.65.28,6,.24,7.07-.4A3.77,3.77,0,0,0,24.21,285.6Z"/><path d="M5.67,162.85v.2c1-.35,3.69.08,4-.6.35,0,.87,0,.89-.2,1.92.14,2.48-.35,4.41-.21,2.68,0,5.78.09,7.06-.6a7.7,7.7,0,0,1,2.66-.2,13,13,0,0,0,4-.4c1.57-.07,1.08-.56,2.66-.2.56-.47-.24-.46.88-.81h.44c.38.44,1.08.72,2.65.61.38-.89,1.9-2.14-.44-2.62.33-.76-.54-1-.45-1.61,1.45-.13,4.34-1.11,2.2-1.61.24-1.32-5.08-.1-4.85-1.41h.89c2.31.26,1-1,.44-1.2v-1c-.66-.11-1.11-.3-1.76-.41-.45,0-.54-.16-.88-.2v-.2a13.78,13.78,0,0,0-6.63-.4c-2,0-3.92-.05-4.42.6-2-.11-2.74.36-4.85.2-4.07-.1-6.25.64-9.71.81-1.6.18-3.28.32-4.79.54V163.4c1.64-.17,3.17-.37,4.79-.55Z"/><path d="M7,359.65c3,0,6.06.08,7.51-.6,2.65,0,3.16-1,4.85-1.41,1.82-.11,3.72-.19,4.42-.8h3.09c-.16-.69,2-1.37.44-2v-.2c0-.61-2.22-.2-2.21-.8,1.08-.13.06-.94-.43-1-1.4-.55-2.22-2.77,0-3.22,1.38,0,2.11-.37,2.2-1-.24-.48-1.71-.84-2.65-.41,0-.75-.71-1.15-1.76-1.4.33-1.37-1.05-1.94-3.1-2.22-1.94.07-3.24-1.19-4.85-.6a67.84,67.84,0,0,0-8.39,1c-2,.2-4.1.39-6.11.61v8.55a.67.67,0,0,1,0,1v5.39C3,360.51,6.2,360.31,7,359.65Zm16.33-4.83c-.32.38-1.32.14-.43.61h-4c-.48-.75,1.49-.4,1.76-.81,1.2.15.89-.4,1.77-.4A1.87,1.87,0,0,0,23.32,354.82Z"/><path d="M2.14,199.07a10.61,10.61,0,0,0,4.72-1,.51.51,0,0,0,.13,0c-.08-.18.17-.19.44-.21-.31-.55,2.08.15,1.77-.4h2.21v.2a4.74,4.74,0,0,0,1.77-.2c.36-.57-.62-.52-.45-1h.45c1.06.25,1.3.88,3.09.8.94-.46.15-1.26-1.33-1.21a1.17,1.17,0,0,1-.46-1.59h0a.41.41,0,0,0,.1-.14.06.06,0,0,1,0,0,.25.25,0,0,0,0-.17,5.17,5.17,0,0,0,.77-2.08h1.77c-.09-.63.3-1.48-.44-1.82a14.29,14.29,0,0,0-2.65.21c-1.94-.16.93-1.75-1.33-2H12.3c0-.26-.78-.18-.89-.4.35,0,.87,0,.89-.2a13.59,13.59,0,0,0-3.54-.4v-.2c-.63,0-.49-.44-.89-.6a10.49,10.49,0,0,1-3.08-.2c-.08-.24-.7-.23-1.33-.21-1.06-.87-1.69-.37-3.46-.23v3.4H0v8.34c2,0,4.22-.23,5.22.16-.07.23-.69.22-1.31.21H3.46A15.93,15.93,0,0,0,0,197.84v1.44a7.74,7.74,0,0,0,1.69-.21Z"/><path d="M137.66,292.84c.66,0,.41-.48.45-.8C136.49,291.61,136.12,293.07,137.66,292.84Z"/><path d="M39.66,257.83c-.34,0-.51-.17-.44-.4-.66,0-1.63-.08-1.77.2C38,257.92,39.28,258.58,39.66,257.83Z"/><path class="cls-3" d="M78.28,19.31c.69,0,1.54,0,1.33-.58-1.38-.92-8.51-1.08-9.26.29.56,0,.6.37,1.31.29A15.4,15.4,0,0,0,78.28,19.31Z"/><path class="cls-3" d="M205.87,35.56c2,.4,2.14-1.17,1.32-1.74-1.82.74-2.83-1.09-4,.29,1.24.61-.07,1.09,1.32,1.45.84-.5-.59-1.11.89-.58C205.43,35.28,205.78,35.33,205.87,35.56Z"/><path class="cls-3" d="M205,38.47c1.42-.72-1-1.8-1.31-.58C204.3,38,204.41,38.36,205,38.47Z"/><path class="cls-3" d="M164.37,31.5H167c.06-.72.07-1.4-.44-1.74C164.83,29.67,164.19,30.32,164.37,31.5Z"/><path class="cls-3" d="M158.63,43.7c-.78-.26-1.29-.93-2.2-.3C156,44.47,158.6,44.55,158.63,43.7Z"/><path class="cls-3" d="M149.8,128.74c-.52-.47-2.79-1.06-3.09,0C147.24,129.21,149.51,129.8,149.8,128.74Z"/><path class="cls-3" d="M145.83,22.21c-.5-.52-3.23-1.06-3.53,0C142.79,22.74,145.53,23.27,145.83,22.21Z"/><path class="cls-3" d="M126.84,23.66c-.28-.86-2.76-1.23-4-.57V24C123.58,24.34,126.77,24.58,126.84,23.66Z"/><path class="cls-3" d="M118.46,23.66c0-.37.57-.4.44-.87a3.15,3.15,0,0,0-2.65,0C116.06,23.7,117.2,23.72,118.46,23.66Z"/><path class="cls-3" d="M95.07,18.73c-1.53-.65-6.24-1.1-7.07.29C89.43,19.85,94.16,19.93,95.07,18.73Z"/><path class="cls-3" d="M90.21,21.93c.56.39,2.16.44,2.2-.3C91.85,21.24,90.26,21.18,90.21,21.93Z"/><path class="cls-3" d="M69.89,19.31c.24-1.2-2.38-1.47-3.53-.87-1.6.21-2.44-.71-3.52,0,0,.5.34.74.88.87C66.14,19,68.12,20.12,69.89,19.31Z"/><path class="cls-3" d="M67.69,3.92c-.27-.16-2.09-.67-2.2,0-1.15-.17-1.59.12-1.33.87-.07.64,1.57.14,2.2.3C67.53,5.17,67.82,4.68,67.69,3.92Z"/><path class="cls-3" d="M56.66,5.09c-.79-.26-1.29-.92-2.21-.3C54,5.86,56.62,6,56.66,5.09Z"/><path class="cls-3" d="M48.71,6c.78.54,1.37-.08,1.77-.59C49.82,4.92,48.5,5.05,48.71,6Z"/><path class="cls-3" d="M45.62,6c.56.39,2.16.44,2.21-.29C47.27,5.27,45.67,5.22,45.62,6Z"/><path class="cls-3" d="M3.73,0H.58L0,.66V4.12c1.3-1.48,3.37-3,3.68-4A.27.27,0,0,1,3.73,0Z"/><path class="cls-3" d="M230.59,36.72c-1-.39-2.51-.47-3.53-.87-.22-.55-2.52-1.21-3.09-.58h-.88c-1.35.21-1.3-.5-2.66-.29V34.4c-1.92-.86-5.38-.71-7.94-1.16V33c-.73-.68-2.58-.63-4.42-.58-.62-.85-2.46-.9-4.4-.87h-.45c-.61-.86-2.81-.67-4.42-.87-.42-.54-3.65-.49-3.53.29.9.08.87.78,1.77.87-.13.34-1.78,1.1-.44,1.45.28.88,2,.8,2.65,1.45.3-.67,1.46-.77,1.76-1.45q-.67-.42-1.32-.87c2.14-.25,2.27.83,4.42.58,2.9.51,5,1.57,8.82,1.45.46,1.15,2.7,1.13,4.86,1.16,1.31.21.7,1.68,2.21,1.75,0-.3.35-.35.43-.59,2.18-.55,1.19,1,2.66.88.43-.5,1.22-.75,2.65-.58h1.32v.29a13.51,13.51,0,0,1,2.65.58c.29.87,2.57.43,3.09,1.16-.06.82,1.08.83,2.21.87,3.24,1,6.5.91,10.15.87V40.5c.56.39,2.17.45,2.21-.29-.88,0-.56-.79-1.77-.58v-.29a28.43,28.43,0,0,0-4.85-.87A28.18,28.18,0,0,0,234.12,37C233.1,36.78,231.62,36.09,230.59,36.72Z"/><path class="cls-3" d="M212.37,128.1a2.92,2.92,0,0,0,.61.07H213a7.11,7.11,0,0,0,.78,0h.88c1.63.67,5.14.1,7.5.29h.44c2.22.67,6.33.1,9.28.29h6.62c2.78.49,6.72.23,10.15.29,2.07-.19,5.29.38,6.62-.29h.44c5.35-.32,9.11,0,13.25-.87,1.34-.18,3.8.37,4.41-.29h.06V106.7c0-.11-.05-.2-.06-.31-.64.16-2.28-.34-2.21.29-.59-.09-.84-.42-1.76-.29a2.36,2.36,0,0,1-1.77-.58c-1.26-1.11-3.3-1.7-5.73-2-.57,0-.62-.38-1.33-.29-.27,0-.52,0-.44-.3.34-.06.87,0,.89-.29-1.85.15-2-.85-4-.58-.48-.75-2.62-.4-3.09-1.16-3.44-.83-6.42-2-10.6-2.32H243c-.79-.73-2.33-1-4-1.16-.79-.16-1.83-.15-2.21-.58v-.29a2.77,2.77,0,0,1-2.21-.58c-4.71-1.35-12.2-3.39-19.86-3.77h-.45c-1.94-1.72-6.78-1.54-10.58-2-.78-.46-2.36-.39-3.54-.58a14,14,0,0,0-4.41-.58V89c-1.14-.51-3.51-.21-4.42-.87,1.63-.18,4.4.38,5.3-.29H197c2.31.13,3.87.75,6.63.58a88.33,88.33,0,0,0,11.91,1.17c0,.74,1.48.57,2.65.57h.44c1.48.68,4.85.11,7.07.3h1.76c.1.22.37.33.88.28.9.67,3.67.11,5.3.3h.44a15.76,15.76,0,0,0,6.63,0h.88c.81-.92,2.78-1.08,2.65-2.62,1.09-.69,2.6,0,4,0V89c2,.23,2.65-.38,4.41-.28.52,1.11,3.87.35,5.74.58,1.34.66,4.56.09,6.63.29h5.29a6.72,6.72,0,0,0,3.15.3v-4.4a16.2,16.2,0,0,0-4,.32c.64.16,2.28-.34,2.21.29h-3.54c-.46-.66-2.77-.11-4-.29-1.64-1.15-6.26-.34-9.28-.58-5.17-.08-9.1-1-14.57-.87-.33-.66-2.47-.11-3.53-.29-.82-.9-3.4-.67-5.29-.87A18.33,18.33,0,0,0,225.3,82c-.28-1.18-2.36-1.17-4-1.46.13-.39,1.1-.24,1.77-.29,3.06,0,4.71,1,8.39.58H235c6.33,1.26,14.1,1.57,21.63,2a82.46,82.46,0,0,0,11.92.87c.95.53,3.1.28,4.91.25V80.84c-1,0-2.9.07-3.59,0-.61-.66-3.07-.11-4.42-.29H265c-.6-.86-3-.5-4.86-.58h-2.65c-.76-.56-2.29-.62-4-.58H250.9a7.57,7.57,0,0,0-4.42-1.16c-.9-.66-3.66-.1-5.29-.29-2.21.2-3.42-.27-5.3-.29-1.19-.67-4.26-.1-6.18-.29-1.62-.48-4.41-.19-4.41-1.74-1.06.47-3.87,1.73-4.42,0-1,1.22-2.31.54-4.86.58a21.58,21.58,0,0,0-5.29-.29c-2.16,0-4.74.21-5.75-.58-.29-.87-2.56-.44-3.09-1.16,0-1.06-2.29-.62-1.76-2,1.18,1,2.63-.63,4.85-.59h5.31a34.31,34.31,0,0,0,8.38.3c1.26.05.87-1,2.65-.58a9.9,9.9,0,0,0,5.29,0h.89c2.07.67,5.28.59,8.39.58,1.16.88,4.24.5,6.62.58.23,1.1,2.6.8,4.42.87,1.48.67,4.84.1,7.06.29.33.66,2.48.11,3.53.29,1.1.89,2.68-.35,4.42,0,.91.17,2.9-.36,3.09.29,2.51.66,6.54.34,8.38,1.45a.9.9,0,0,0,.06.34v-25c-2.27-.75-5.19-.78-7.56-1.42,0-1.11-2.57-1.08-3.09-.28-.22,1.2,1.11,1.39,2.64,1.44.14.41,1.11.25,1.77.3.09,1.69,2,2.15,4,2.61.2.36.57.59,1.33.58,0,.28-.54.23-.88.29-1.42-.23-2.23-.85-4-.87-1.07-.74-2.32-1.37-3.52-2-1.3-1.38-4-1.79-4.42-3.78-3,.24-4.39-.6-6.62-.86h-.45v-.3c.64-.53-2-1.34-4-1.16.21-.61-.62-.55-1.32-.58a6.94,6.94,0,0,0-3.54-.87c-.51.05-.78-.06-.88-.28,2-.11-1.52-.72-2.2-.88-3.36-1.23-6-1.6-10.6-2.32-.55-1.19-3.86-.56-5.3-1.16-3.22-1.42-6.52-1.08-10.15-2.32V35.56h-1.77c-1.16.21-.87,1.37-1.76,1.75-.84,0-.31-1-1.33-.87a9.81,9.81,0,0,0-3.53.87c.44.38.42,1.07,1.33,1.16,0,.49.32.75.87.87.49-.08.31-.58.89-.58,1,0,.95-.73.89-1.45,1,.84,2,1,1.32,2.32a7.14,7.14,0,0,0,3.53,1.16c1.64.3.87-1,1.77-1.16,1.13-.32,2.1.88,2.65,0H220c1.62,1.6,2.57,2,4,3.48,1.92-1.15,3.54.81,6.18.87h.44a53.9,53.9,0,0,0,7.51,1.74c-.31.78.91.56,1.32.87-.61.75-2.7.07-3.53,0-2.9-1-5.47-2.21-9.71-2.32-.79-.16-1.84-.15-2.21-.57-.59-.79-2.8-.49-4-.88-1.47-1.06-5.1-.72-7.51-1.16h-.44c-1.6-1.17-4.47-1.51-7.94-1.45h-.44c-2-1.32-5.27-1.77-9.28-1.74-.62,0-1.25,0-1.33-.29.76-.33-2.4-.53-3.53-.58-1-1.08-4-.84-6.62-.88-1.13-.7-3.68-.47-4.41-1.45,1.83.24.22-1.79,1.32-2h.89a9.57,9.57,0,0,0,2.64,1.16c.18.7-2-.16-1.32.87,1.26.63,2.35-1.35,4.85-.87-.16,1.23,1.92.26,2.65.29,1,.35,2,.6,3.09.87,2,.81,3.45,2,6.63,2,.88,0,.56-.8,1.76-.58,0,.4-.07.82.44.87,2.5-.47-2-1,.44-1.45a1.13,1.13,0,0,0-.88-.59c0-.28-.53-.22-.88-.29a14.94,14.94,0,0,0-3.53-.87c-.41-.7-1.77-.77-3.09-.87-.23-.42-.65-.73-.89-1.16-1.4-.25-1.36.46-2.2.58H190c.2-.81-2.41.23-2.21-.58-.14-1.19.92-.16,1.76-.29h2.22c.36-.82-.63-.75-.45-1.45h-2.21a23.35,23.35,0,0,0-4-.87c-3.8-.5-7.08-1.34-11-1.75-.32-.65-2.47-.11-3.53-.28-.32.89.77.85.44,1.74,1.21.8-.64.27-.88.87-.92-.12-1.17.2-1.76.29.09,1.48,2.87,1.21,4,2-1.91.56-4.06-1.84-6.62-.29-.7,0-1.69-.14-1.77.29-1.05-.18.07-1.78-.88-2-1.3.12-.86,1.37-1.77,1.74-.51.05-.78-.06-.88-.29-.48-1.28.75-1.44.88-2.32-.64-.54-2.42-.34-2.2-1.46-.8-1.44-1.61-.84-3.54-.57-.08-.23-.44-.29-.44-.58-.41-1.05,1.74-.41,2.65-.59h.88c1,.84,2.78,1.87,4.42,1.45.47.66,2.77.12,4,.29s1.22,1.34,3.09,1.17c.3-.64-.93-2.38-2.65-2.61-1.15-.6-4.21.06-4.85-.87-.62-.67-3.07-.11-4.42-.29-.71-1-3.08-.88-5.29-.88-.07-.34-.81-.24-1.33-.28-1.68.39.39,2.61-2.21,2.9-.58-1,0-1.06-.44-2a6.37,6.37,0,0,1-3.53-.28c-.82,0-.27,1-.88,1.15-2.94.48-3-.94-4.86-1.15-.75-.11-.83.22-.88.58-.56-.4-2.17-.45-2.21.29.55,1.12,2.25-.19,3.09.87h.44c1.1.72,3.58.54,5.3.87,0,.72-.83.89,0,1.44,1.36.22.85-.79,2.21-.57.07.95-1,1.39.88,1.45,1.63-.6-1.34-1.22,0-1.75.75.11.83-.22.88-.57,2.28.53,3.17,2,5.3,2.61.75.76,4.23-.27,4,1.16,1.31,1.25-2.24.8-3.53.58.09-.24.44-.29.44-.58-6.31-.11-9.91-2-16.77-1.74.81-.75-1.92-1.11-3.53-1.16.08-.24.44-.29.43-.59V28a35.26,35.26,0,0,0-5.29-1.74c-.54.12-.91.37-.88.87.25,1,2.86-.37,2.65.29s.3.77.43,1.15a61.48,61.48,0,0,1-7.5-.29c-1.62-.18-2.63-.78-4.86-.57h-.87a24.19,24.19,0,0,0-5.3-.58,1.2,1.2,0,0,0-.89-.59V26a5.75,5.75,0,0,0,1.32-1.16c-.8-.94-4.5-1.49-6.17-.88-.93-.12-1.17.2-1.77.3.88.74-.45,1.33.45,1.74-.94.2-3.1-1.25-5.75-.88H99c-.78-.59.32-.57-.45-1.16H96c-1,.08-1,.78-.45,1.16-1.38.14-1.17-.77-2.2-.86-2.17-.41-3.28.86-6.18.58h-.89c-.5-.74-.73-1.65-1.75-2H83.14c.21-.91-2-.22-2.2-.86,1-1.36,6.22,0,7.5-1.17-.61-.82-2.28-.94-3.53-.58H84c-2.69-.22-4.12.38-6.62.29-1.25.82-5.79-.52-5.29,1.46-.88,0-.56-.8-1.76-.59-.7,0-1.69-.14-1.77.29.13.67-1.28.32-1.33.87h-.89a3.46,3.46,0,0,0-4,.88H58c-1.48-.11-4.45-.74-5.73,0H50.91c-2.85-.36-5.14-1.07-8.82-.88-.91-.76-4.44.21-5.3-.57a5.57,5.57,0,0,0,3.53-.88c1.4.14,1.56-.52,3.09-.29,1.35-.19,3.81.37,4.42-.29a12.27,12.27,0,0,0,4-.58c2.57-.22,3.45.19,5.31-.29-1.37-1.6-6.17-.75-8.83-.58-.92.17-2.9-.36-3.1.29-2.36.38-5.15.47-7.49.87-1.32.1-2.69.17-3.1.87h-.43c-2.29.31-5.18,1.54-8,.58a7.79,7.79,0,0,0,1.34-4.06c1.27-.36,1.88-2.25,1.31-2.9,0-1.05,1.1-1.41,1.33-2.33.35-.05.44-.29.88-.29a8.79,8.79,0,0,1,9.27-3.19h1.77c.47-1.45,1.1-2.39.88-3.49,1.31-.2,3.12-.07,3.54-.87C52.81,4.1,58.63,3.39,65,3.05a17.19,17.19,0,0,0,7.07,0c2.07-.18,5.29.38,6.63-.28h4.4c1.34.66,4.55.1,6.62.28,1.35-.18,3.81.38,4.42-.28H95.5c.75.66,3.37.1,4.86.28,1.34-.18,3.81.38,4.41-.28h3.09c1.36-.22,1.62.29,2.65.28,2.81.68,7.51.1,11,.3a78.09,78.09,0,0,0,7.94.87c.1.9,2.2.49,3.53.57,1.75.8,5.09.53,7.51.88,1.63-.21,1.89.49,3.53.29.65.15,1.11.43,1.76.58A25.53,25.53,0,0,0,153.34,8c3.58.36,5.52,1.79,10.15,1.45.36.05.44.29.88.29.88.49,2.76.32,4,.58h.44c1.05.76,3.31.72,4.85,1.16,1,.52,3.15.26,4.42.58a7.79,7.79,0,0,0,4,1.16c1.61,1,4,1.43,7.06,1.46a22.82,22.82,0,0,0,7.07,1.45c0,1.08,2,.83,3.53.87,3.24.67,6.12,1.58,9.71,2,.7,0,1.68-.14,1.77.29-2,.16,1.88.7,3.08.58.79.26,1.13.81,2.66.58.48,1.13,2.57,1.21,4.41,1.46h.44c1.23.93,3.6,1.11,5.74,1.45h1.33c1,.88,4.1,1.93,5.73,1.45.72-.09.77.27,1.33.28,1.74.5,2.69,1.52,5.3,1.45,0,.29.54.23.88.29,0,.29.54.23.88.3.84,1.38,3.7,1.44,6.18,1.74a27.61,27.61,0,0,0,3.53.87c.45,1.25,2.91,1.18,5.3,1.16,0,.28.54.22.88.29a11.85,11.85,0,0,1,3.1,1.16,4.78,4.78,0,0,0,4.41,2c1.3.31,1.77,1.16,3.53,1.16h.44c.56.7,1.81.94,3.09,1.16a1.66,1.66,0,0,0,.06.21V25.12h-.06c-1-.08-.82-1-2.21-.86a32.46,32.46,0,0,1-3.53-1.16,7.84,7.84,0,0,0-5.29-1.75c-.4-.6-1.31-.88-2.65-.87-.45,0-.53-.23-.89-.29v-.29c-1.93,0-2.36-1-4-1.16-.79-1.22-3.45-1.22-5.3-1.74,0-.38-.77-.27-.88-.58,2.05-.3-2.53-.71-3.09-1.16a11.76,11.76,0,0,0-5.3-1.46h-.88V13.5a2.34,2.34,0,0,1-1.77-.58,13.92,13.92,0,0,0-7.94-2.32c-.34-.07-.87,0-.88-.29-.86-.89-2.64-1.17-4.86-1.16-1.08-.45-2.74-.52-3.54-1.16-.61-1-2.37-1.15-4.41-1.16-.21-1-2.08-1-3.53-1.16h-1.32c-1.24-.65-3.07-.88-4.42-1.45a17.12,17.12,0,0,0-7.5-2C198.46,2,197.42,2,197,1.6c-.8-.83-2.7-.94-4.42-1.16h-.44c-.35-.15-.72-.3-1.1-.44H178.73a124.52,124.52,0,0,1,12.85,3.33A124.67,124.67,0,0,0,178.69,0H158.41A2.79,2.79,0,0,1,157,0H79.64a10.65,10.65,0,0,1-2.46,0H6.37a.78.78,0,0,0,0,.44H5.89c-1.14.7-2.58,1.21-2.65,2.61,0,.37-.56.41-.44.87-.12.59-1.21.58-1.33,1.17C.11,5.06.15,6,.15,6.83v.58L0,7.45V70.76H0v1.07c3.67,0,6.67,1.13,9.86,2,.11.9,2.2.49,3.54.58.69.81,3.11,2,4,1.74-.24,0-.5-.24,0-.29.08.33.49.45.88.58a1.11,1.11,0,0,0,.44.87H8.54a5.47,5.47,0,0,0-2.65.29A29.77,29.77,0,0,0,0,78.42v20a1.32,1.32,0,0,0,.58-.69,8.26,8.26,0,0,0,5.75-.58c.12-.45,1-.2,1.33,0,.47.48,3.92.48,4.41,0a55.77,55.77,0,0,0,6.18-1.74c1.64.17,6.35-.28,4.41-.59v-.28h.88c.92.17,2.91-.36,3.1.28A25.24,25.24,0,0,0,24,97.39h-.45c-.85.91-2.12,3-.88,4.35.33,1.53,1.33,2.62,4,2.62.79,1.12,2.71,1.5,5.29,1.45.23,1,2.38.76,3.53,1.16,3.22.5,5.68,1.49,9.28,1.74.76.56,2.29.63,4,.58.45.67,2,.6,3.54.58.33.07.86,0,.88.29a17.92,17.92,0,0,0,4.4.58c.75,1.17,4.51.33,6.63.59H65v.29c1.72,0,4,1.22,5.74.29.84.12.79.82,2.21.57,1.78.67,5.44.1,8,.29a59.24,59.24,0,0,0,6.62.59h5.3a42.42,42.42,0,0,0,11,0,36.64,36.64,0,0,0,8-.59c3.81.19,6.46-.6,9.72,0,.7,1.38.58,3.29,1.76,4.36.36,1,1.75,1.36,3.09,1.74,5,.79,5.37,4.59,8.38,6.67,1.65-.1,1.16,1.18,3.1.88a1.19,1.19,0,0,1,.88.58v.58c.73.48,2.59.23,4,.29,1.32-.59.53-2.55,3.09-2.33.19.66,2.18.12,3.09.3h2.21c.32-.89-.45-1.07-.44-1.74h3.52c0,.17.08.34.45.28a42,42,0,0,0,6.62,1.16h.44c.62.67,3.08.11,4.42.3a15.32,15.32,0,0,0,5.3.58c.46.86,4,1.23,5.29.58h.44c-.07.63,1.57.13,2.21.29C189.85,127.67,202.87,127.78,212.37,128.1ZM183.29,2.3a2,2,0,0,0-.32.18,2,2,0,0,1,.32-.18h0ZM77.4,21.34h1.34c.44,1-3.33.69-3.54.29C76.26,21.75,76.16,21.1,77.4,21.34ZM3.68,88.39c.11-.41.72-.49.89-.87H5C6,86.69,7.5,86.26,8.09,85.2,9.4,85,10.8,84.84,11.18,84a8,8,0,0,0,4-.58c1.73,1,7.77.69,10.15.29h.45c-.15,1.07,1.6.87,2.65,1.16a3.61,3.61,0,0,1,1.76,1.16c-.14.39-.64.55-.44,1.16-.74.4-3.95.67-3.54-.58.15-.39.64-.56.45-1.16a10.49,10.49,0,0,0-3.1-.29v.58c-.5,0-.48.46-.44.87-.19.84-3.33-.26-3.54.58-1.38-.14-1.55.53-3.08.29h-2.2c-1.38.38-1.27-.08-3.1,0A1.41,1.41,0,0,0,10.74,89H10.3c-2.36-.18-4.71.82-6.62,0ZM202.4,10.61c.47.23,1,.48,1.47.7-.52-.22-1-.47-1.48-.7Zm-.06,0h0a8.85,8.85,0,0,0-2-.78h0A7.91,7.91,0,0,1,202.34,10.58ZM181.72,5.83c.93,1.44,3.47,1.81,5.61,2.45C185.19,7.64,182.65,7.27,181.72,5.83Zm1.74.54-.08,0,.07,0Zm-2.18-.64h0a6.8,6.8,0,0,1-1.63.17A6.67,6.67,0,0,0,181.28,5.73Zm2.5.76.08,0h0a7.61,7.61,0,0,1,.79.31C184.39,6.7,184.08,6.6,183.78,6.49ZM77,24.83c-6.41-.3-.2-1.15,2.42-.32l.22,0a.13.13,0,0,1,0,.06l-.23-.09C78.24,24.39,77.94,24.83,77,24.83ZM21.79,75c.09.35.48.18.87,0-.2.9,1.2,1.09,1.33.29-1.32-.1-1.61-.88-2.2-1.45-.05-.86-1-1.08-1.77-1.45-.2-.55-.95-.73-.89-1.45a1.84,1.84,0,0,0,1.77-.87c-1.18-.39-.88-1.75-2.65-1.74-.05-.36-.13-.69-.88-.59-.58-1.6-1.08-2-1.33-4.06h2.65c.22,1.21,1.67,1.61,3.1,2,.93.35,1.27,1.1,2.64,1.16,1.13.62,2.71,2.14,4.41,1.46,1.93,1.14,3.35,2.63,5.31,3.77v.29a32.37,32.37,0,0,0,9.7,6.67H41.2c-3.66-.11-6-1.08-10.15-.87-1.35.21-1.61-.29-2.64-.29-.41-1.08-3.56-.38-5.31-.58-1.64-.46-2-1.77-3.08-2.61A3.63,3.63,0,0,1,21.79,75ZM16.48,88.69c.52.77,2.31,0,3.08,0,.42.93-1.43.4-1.75.87H14.28c0-.46-1.13-.24-.88-.87C14.37,89.35,15.12,88.59,16.48,88.69ZM238.1,62.85c-1-.06-1.41.23-1.33.87.39.94-1.46.4-1.32,1.16-1.38-.13-1.41.62-1.33,1.45,1.17,0,2.6.16,2.65-.58,1,0,1.41-.24,1.33-.87.49,0,.68-.42.88,0,.32.89-.45,1.06-.44,1.74-.61,1.06-4.2.14-5.3.88h-1.32c-.33-.66-2.48-.12-3.54-.29-1.27-1.11-5.32-.38-7.95-.59h-6.18a13.12,13.12,0,0,0-4.41-.58c-2.91-1-7.64-.78-11.48-1.16v-.29c-2.78.09-4.19-2.26-6.18-1.74-.62-.07-.74-.48-1.32-.58a5,5,0,0,0-3.53-1.45c-.34-1.24-2.45-1.3-4-1.74-1.54-.15-1.74-1.18-3.53-1.17-1.25-1.29-3.86-1.72-6.62-2v-.29c-1.15-1-3.24-1.35-5.3-1.74a28.8,28.8,0,0,0-7.06-1.16c-.5-.64-2.91,0-3.09-.87.29-.5-2.74-1.29-4.85-1.17h-1.77c-.16-.76-2.25-.25-2.65-.86-.59-1.35-3.58-1.14-6.18-1.17v-.28c.82-.47-2.35-.77-3.53-.88-4.77-1.61-11.53-1.9-17.21-2.9.08-.42,1.31-.1,1.31-.58h2.21c1.63.67,5.15.1,7.5.29h1.33c1.05.67,4,.11,5.74.29a13.46,13.46,0,0,0,4.42.59c2,.62,5.67.13,8.38.28.59,1.17,3.45.83,5.74.88h.44c4.46,1.32,11.51.94,16.34,2,.56.39,1.91.28,3.09.28.19.66,2.17.13,3.09.29-.17-1.36-.56-1.45.88-2,1.32,0,1.5.75,2.65.86.76.67,3.37.11,4.85.3,4.89.78,9.07,1.4,12.81,2.31a2.09,2.09,0,0,1,1.33.88c.06.63,1.11.62,2.2.58.19-.56.95-.73.88-1.46,1,.28,2,.51,3.11.74,0,0,0,.09,0,.14h.7a21.12,21.12,0,0,1,6.37,2c1.07.74,3.24.77,5.29.87,1-.08,1.66.07,1.77.58a11.41,11.41,0,0,0,7.06,2,7.43,7.43,0,0,0,3.53.87,2.36,2.36,0,0,0,1.77.58c-.12,1.15,1.88.89,1.77,2A3.06,3.06,0,0,0,238.1,62.85Zm-72,27.86c.39.73,4,.87,4.85.3h3.54c-.13.76,1.71.22,1.32,1.16-1.32.58-4.17.16-6.18.29-.06-.64-1.87-.13-2.65-.29-1.51-.61-5.49,1.32-6.62-.58.17,1.08-2.76.12-3.09.87-.76,0-1.13.22-1.33.58.25.71,2.25.26,1.77,1.45h-3.09c-1.44.5-4.69-.18-5.3.87-.56.4-2.08.18-2.65.58-1.64.18-4.65-.55-4.41.87-1.52.26-3.57.17-4,1.16-.35.07-.88,0-.89.29-2.81-.11-3.95.88-5.73,1.45-2.55.31-3.79-1.42-5.75-.58h-1.32a2.36,2.36,0,0,0-1.77-.58c-.06-.34-.79-.24-1.31-.29-1.32-1.65-5.09-1.69-8-2.32a2,2,0,0,1-1.32-.87,14.84,14.84,0,0,0-7.51-2.61c0-.58-1.21-.37-.88-1.16h2.21c1.46-2.29,6-1.43,10.15-1.45h.44c2.54,1.07,4.78-.53,7.51-.29a40.7,40.7,0,0,0,9.26.87h.89c3,2.28,8.42-1.93,13.69,0,2.1.78,5-.42,7.94,0,.75.86,3,.73,4.86.87,1.49-.19,4.1.37,4.86-.29v-.3ZM35,32.37c1.23-.93,2.88-1.59,4-2.61h3.53c.27,0,.53,0,.44.29.91.66,3.67.11,5.3.29s.32,1.17.44,2c-1.21-.21-.88.57-1.77.58-2.76-.17-3.67.87-4.41,2,0,.3-.36.35-.44.58-1.05.18-2.05.39-2.2,1.16-1.67-.16-3-.58-3.54-1.45-.13-.76,1.72-.22,1.33-1.16,0-.18.06-.34.44-.29A2,2,0,0,0,39.44,33c1-.58,2.36-1,2.65-2A2.64,2.64,0,0,0,39,31.5a3.64,3.64,0,0,0-1.77,1.16c-.6.28-.88.78-1.32,1.16-.59,0-.4.51-.89.58-.16-.95-2.34-.58-2.21-1.74C33.46,32.5,35.1,33,35,32.37Zm23,1.74a2.22,2.22,0,0,1-2.65.29c-.22-.9,1.19-.76,1.33-1.45C58.14,32.66,58.11,33.35,58,34.11Zm-6.36,4a3.57,3.57,0,0,1-2.36,1.25A3.57,3.57,0,0,0,51.62,38.11Zm31-2.67c-2.69.22-5.19.57-7.49.58C77.4,36,79.9,35.66,82.59,35.44ZM50,33.53c.84.13.79.83,2.21.58,1.46.1-1.73.9,0,1.16-.09.34-.7.32-1.34.29-1.26,0-2.89-.16-3.53.29-.79-.06-2.21.3-1.76-.58C47.38,34.88,47.94,33.7,50,33.53ZM175,66.6h0a.4.4,0,0,1,0,.19A.4.4,0,0,0,175,66.6ZM72.42,89.9c-.5-.52-2.07-.33-1.65-1.45C70.35,89.57,71.92,89.38,72.42,89.9ZM90.55,51.29a7.2,7.2,0,0,1-.77,2.32A7.54,7.54,0,0,0,90.55,51.29ZM121,85.59h0a24.37,24.37,0,0,1-3.28.75A24.37,24.37,0,0,0,121,85.59ZM75.7,57.72a4.67,4.67,0,0,0-.65.27h0A4.67,4.67,0,0,1,75.7,57.72Zm75,25.74a65.2,65.2,0,0,0-12.36-.58,25.38,25.38,0,0,0-8.39-.87c-1.92-.68-5.73-.1-8.38-.29-3.38-1.27-9.9-.46-13.25-1.75-.71.09-.76-.27-1.32-.29v-.29c.52-1.92,3.62,0,5.73-.29a9.07,9.07,0,0,0,4,.58,9.68,9.68,0,0,0,4.41.87c1.71.6,4.9,0,6.63-.29,1.4-.13,1.56.53,3.09.29h.45c1,.67,4,.11,5.73.29,1.3.7,3.82.59,6.18.59a27,27,0,0,0,6.18.87c.16,1,2.55.45,4,.58h1.32C154.83,84.05,151.91,83.2,150.69,83.46Zm-92.14,1.4,0,0,0,0a1.12,1.12,0,0,0,.22-.09A1.33,1.33,0,0,1,58.55,84.86Zm77.86,17.76a3.45,3.45,0,0,1,.44.25,3.8,3.8,0,0,0-.47-.26Zm91.53,2.32c-1.14.72.3,1,.89,1.45-.64.16-2.28-.34-2.22.29-1.84-.78-4.43.07-6.61,0v-.29c-.82-1.27-4-.22-5.75-.29v-.29c-.9-.28-2.09-.36-2.2-1.16a2.72,2.72,0,0,0-2.21.58h-4.41v-.29c-2.51-1.47-6.13.51-8.83-.29-.49-.74-3.42.11-4-.58-.82-1.6-3.34.16-4.41.29-.56,0-.61-.38-1.33-.29-.41-1-4.64-.65-5.73-.29,0-.18-.07-.35-.44-.29-1.34-.68-4.56-.11-6.63-.3-2.36.19-5.88-.38-7.5.3a42.64,42.64,0,0,0-6.18.29c-.39-.52-2-.48-.88-1.17v-.29c1.55-.06,3.62-1.14,4.41,0,.25.61,2.85.37,2.65-.29,1.33-.09,3.43.33,3.53-.58h1.33c1.5,0,3.07.09,3.53-.58h1.32a45,45,0,0,0,11.48,0h.89c1.18.67,4.25.1,6.18.29,3.86.16,6.84.92,11,.87,1.14.71,4.5,0,5.74.58,0,.18.06.35.44.29,2.21.68,6.33.11,9.27.29,1.06.76,3,1,5.29.88A2,2,0,0,0,227.94,104.94ZM93,35.05c5.34-.11,10.07.32,16.09-.31C103.11,35.37,98.37,34.94,93,35.05Zm-16.53-3c-.07.25.18.28.46.29V33c-.39-.05-.42.11-.46.29h-.88c.09-.24-.16-.28-.43-.29v-.58c.37.06.41-.11.43-.29Zm61.82,9.29c-1.52-.23-2.11.16-1.77,1.16-2.26-.23-3.21.41-5.29.29.36-.63,1.94-.47,2.64-.87-2.74-1.89-5.26.85-8.83.29-.85-.52-4.06-1-5.29-.29-1.36-.21-1.62.3-2.66.29,0-1.07-4.39-1.32-4.85-.29-.37-.05-.41.11-.44.29-2.34.36-4.52-.89-6.18,0h-1.33a39,39,0,0,0-9.26-.87c-2.07-.68-6-.1-8.84-.29.55-2.47,11.88-.31,15.89-1.45.51-.06.26-.29,0-.29v-.29h2.65c.91.66,3.67.1,5.31.29a11.62,11.62,0,0,0,5.74,0c3.21-.18,5.11.5,8.38.29h.88a58.84,58.84,0,0,0,10.16.58c1.68.24,3.37.49,5.3.58C141.84,41.62,139.47,41.32,138.33,41.37ZM91.53,31.5h3.09c.14.67-1.28.32-1.32.87s-1.49.18-1.77.58c-1.22.69-3.69-.74-4.41.58v.29h-.44c-2.6-.2-8.07.51-7.94-.58V33a2.91,2.91,0,0,0,2.2-1.74c1.87.12,4.55-.28,5.74.29C87.3,32,90.91,32,91.53,31.5ZM153.78,44h.43c2,.22.62-1.1,1.33-1.16s1.63.1,1.77-.29a15.86,15.86,0,0,0,3.53.58,31.38,31.38,0,0,0,8.83.87c-.39.93,1.45.4,1.32,1.17-.81,0-.27,1-.88,1.16-4.54-.7-8.52-1.76-14.57-1.46C155.73,44.05,153.9,44.58,153.78,44Zm22.51,3.19c-.36-.05-.44-.28-.88-.28,0-.44-1.86-.93,0-.88v.3c1.49-.12,1.88.5,2.65.86C177.23,47.45,176.58,46.31,176.29,47.17Zm-29.14-5.51c-.31.79,2.09-.21,1.77.58-1.64-.31-.69,1.09-2.21.87.18-.42.54-.49,0-.87-1.45.1-3.75.76-4.41-.29-.18-.42-.53-.49,0-.87C144.26,41.05,144.89,41.89,147.15,41.66ZM28.41,29.76h5.74c0,.38.76.27.87.58-.33.93-2,1-3.09,1.45a3.43,3.43,0,0,1-1.76.29c-.78-.26-.73-1.07-1.76-1.16V29.76ZM17.75,55.27h0c-.51.12-1.1.25-1.68.33C16.65,55.52,17.24,55.39,17.75,55.27Zm30.52,48.51c-.59-.09-.37-.73-.44-1.17v-.29a30.26,30.26,0,0,1,3.08-2.61,10.45,10.45,0,0,1,5.75-1.45c1-.44.67-.7.44-1.45.69,0,1.68.14,1.77-.29,1.34-.17,2.29-.62,3.53-.87,1.87,1,4.1-1,6.18,0,3,.52,7.57,0,9.27,1.45,1,1.67,6.79.18,7.94,1.74-.19.9.95.93,2.21.87,0,.64,1.87.13,2.65.29V98.55c.08-.62-1.57-.13-2.21-.29-.37.06-.42-.11-.44-.29v-.29c0-1.33,2,.19,3.1,0,.06.34.8.25,1.31.29-.25.61-1.26.94-.44,1.45,1.65.31,1.44-.61,2.21-.87,1.06.76,3,1,5.3.87.23,1.39,2.36,1.54,4.85,1.45h.44c2.33,1.42,6.67,2.25,10.6,1.74,1.46,0,1.69.83,1.76,1.75-2.67.17-2.65,2.13-4.41,2.9h-.88c-.63-.49-2.88.42-4,.58-1.77.57-5.42-.08-7,.58-1.59.16-4.33.65-5.74,0v-.29a3.43,3.43,0,0,0,1.76.29c-5.31-2-14.81.12-22.51-.58h-.45C63.7,107.75,53.06,106.43,48.27,103.78ZM187,91.23h0a2.35,2.35,0,0,1,.37,0A2.2,2.2,0,0,0,187,91.23Zm71.37,31.13c-1.64.17-3.17.42-4,1.15-2.21.2-5.58-.37-7.06.29h-.44c-2.66.19-6.47-.38-8.39.3h-.44c-2.07.18-5.29-.38-6.62.28-1.71.05-3.88-.22-4.42.58a14.33,14.33,0,0,0,4,.3c0,.45,1.13.22.89.87h-3.54c.09-.25-.17-.28-.44-.29a32.25,32.25,0,0,0-9.71,0c-.91.17-2.9-.36-3.09.29h-.44c-2.16-.81-6.14-.41-8.83-.87-7.92,0-14.05-1.21-22.07-1.16.6-.5,1.42-1.15-.45-1.17-1.62-.67-5.14-.1-7.5-.29a2.79,2.79,0,0,0-1.32-.28c-.06-.65-1.88-.13-2.65-.3v-.29c3.86,0-1.13-.68-2.65-.58H167c-.62-.48-4.23-.48-4.86,0h-.88a40.88,40.88,0,0,0-8.83-.58c0-.48,1.23-.16,1.33-.58-6.22-.52-11.07-3.27-8.83-8.41a1.15,1.15,0,0,0,.44-.88h.44V111c.09.24.44.29.44.59,0,.76-.16,1.65.44,2,1,.12,2.44-.88,1.33-1.17a1.11,1.11,0,0,0,.44-.86h.44c.78-.08,1-.51.88-1.17,2,0,3.93.07,4.41-.87h2.66c.61.48,4.23.48,4.85,0a55.79,55.79,0,0,0,11,0c-.11,1.24,4.25,1.06,5.3.58.3.23,2.46.65,2.65,0a16.41,16.41,0,0,0,4.41.29H186c1.23.66,3.5.6,5.75.58.46.66,2.77.11,4,.3.85,1.17,4.81.31,7.06.58,1.45,0,2.2.48,4,.28.32,1.06,3.22.4,4.86.58h.88c5,.28,9.26,1.08,15,.88h.44c2.28,1.2,7.8.29,11.48.58h.44c1.52.69,4.95.16,6.62,0,.62,1.13,4.19.34,6.18.58.67.35,3.81.57,4.42,0,1.48-.18,4.1.37,4.86-.3h.44c1.64-.17,2-1.18,4.41-.86V116c-.68.42-.38,1.48-.44,2.32C264.67,120.28,261.84,121.52,258.4,122.36Zm10.6-56c-.43,0-.35-.35-.44-.58.6-.09.36-.72.44-1.16.73,0,.24-.81.88-.87.1.23.37.34.88.29v1.45c.08.25-.17.28-.44.29C270,66,269.11,65.92,269,66.33Zm-2.21-.87A2.34,2.34,0,0,1,265,66a15.26,15.26,0,0,0,.43-4.93c.12-.37.88-.3.89,0-.36,1.3.78,1.61,2.21,1.74a1.09,1.09,0,0,1-.45.87C267.17,64,266.56,64.43,266.79,65.46ZM29.73,98.84a2.24,2.24,0,0,1-1.58-.26A2.24,2.24,0,0,0,29.73,98.84ZM183.6,2.21l-.11,0h0ZM175,30.34c.05-.35.13-.68.88-.58.56.7,2.35.58,3.09,1.16-.08.43-1.06.27-1.77.29h-.88v-.29C176.28,30.44,175.07,30.76,175,30.34Zm2.2,3.48V35c-1.37.75-2.46.36-4.41.29.63-.51.41-.65-.88-.58a1.82,1.82,0,0,1,1.76-.87C174.25,34.57,176.35,33.89,177.17,33.82Zm-69.74-8.71a3.64,3.64,0,0,0,1.77-.28c0,.28.34.34.43.58-.1.54.49.63.45,1.15-.77-.16-2.6.36-2.65-.28C107.93,25.85,107.93,25.54,107.43,25.11Z"/></g></g></g></svg>